<svg width="60" height="60" viewBox="0 0 60 60" fill="none" xmlns="http://www.w3.org/2000/svg">
<path d="M55.929 23.5066L46.1558 15.2309V13.6873C46.1562 13.449 46.0613 13.2212 45.8927 13.0534L34.9466 2.12939C34.9438 2.12698 34.941 2.12538 34.9386 2.12298C34.7701 1.9456 34.5354 1.84509 34.2912 1.84509C34.2571 1.84509 34.2235 1.84709 34.1903 1.8511L34.1747 1.8495C34.1446 1.84669 34.1146 1.84509 34.0846 1.84509H18.605C15.8698 1.8479 13.6539 4.06458 13.6503 6.79939V15.2365L3.92993 23.4805C3.61441 23.6275 3.413 23.9434 3.4126 24.2914V52.0804C3.4166 55.4006 6.10697 58.0909 9.42719 58.0949H50.3789C53.6991 58.0909 56.3903 55.4006 56.3935 52.0804V24.2914C56.3935 23.9646 56.2157 23.6635 55.929 23.5066V23.5066ZM54.112 24.3154L46.1558 31.0635V17.5785L54.112 24.3154ZM35.1869 4.89983L43.1175 12.814H38.3493C36.6036 12.812 35.1889 11.3973 35.1869 9.65112V4.89983ZM18.605 3.63653H33.3955V9.65152C33.3983 12.3863 35.6145 14.603 38.3493 14.6058H44.3639V32.5831L32.6419 42.5253C31.0695 43.8663 28.7551 43.8675 27.1815 42.5277L15.4422 32.5879V6.79939C15.4442 5.05359 16.8592 3.63854 18.605 3.63653V3.63653ZM13.6503 17.5853V31.0707L5.69415 24.3334L13.6503 17.5853ZM9.42719 56.3035C8.50304 56.3039 7.60411 56 6.87016 55.4382L19.1172 42.9113C19.4583 42.5566 19.4491 41.994 19.0979 41.65C18.7464 41.3065 18.183 41.3105 17.8366 41.6588L5.70335 54.0688C5.37502 53.4574 5.20364 52.7743 5.20404 52.0804V26.2662L13.9759 33.6942L13.9767 33.695L26.0235 43.8955C28.265 45.8039 31.5608 45.8027 33.8003 43.8919L54.6021 26.2498V52.0804C54.6029 52.7767 54.4307 53.4626 54.1 54.076L41.8946 41.6568C41.5478 41.3045 40.9805 41.2997 40.6273 41.6464C40.2749 41.9932 40.2697 42.5602 40.6169 42.9133L52.9312 55.4414C52.198 56.0016 51.3011 56.3039 50.3789 56.3035H9.42719Z" fill="#0085FF"/>
<path d="M18.3206 30.8137C18.7042 31.7719 19.5703 32.4522 20.5921 32.598L23.4767 36.3995C24.4241 37.6387 26.1955 37.8786 27.4384 36.936C28.6817 35.9926 28.9279 34.2224 27.9901 32.9759L26.288 30.732L26.5098 30.6435L37.0222 30.6487C37.3197 30.6487 37.5976 30.5014 37.7642 30.2551C37.9312 30.0089 37.9648 29.6966 37.8543 29.4203L36.1245 25.087C37.7021 24.2381 38.3917 22.3406 37.7274 20.6769C37.0635 19.0132 35.2568 18.1122 33.5282 18.5827L31.7973 14.2483C31.6876 13.972 31.4469 13.7686 31.1566 13.7053C30.8659 13.6416 30.5632 13.7265 30.3478 13.9315L22.7327 21.1782L18.2862 22.9544C16.8106 23.5458 16.0923 25.22 16.6793 26.6967L18.3206 30.8137ZM26.5623 34.0587C26.7925 34.3546 26.845 34.751 26.7008 35.0969C26.5571 35.4429 26.2383 35.6847 25.8668 35.7304C25.4948 35.7756 25.1268 35.6179 24.9038 35.3167L22.557 32.2224L24.5622 31.4211L26.5623 34.0587ZM35.1379 20.391C35.7153 20.6384 36.1137 21.1786 36.1786 21.8036C36.2434 22.4279 35.9656 23.0393 35.4518 23.4001L34.2025 20.2709C34.5193 20.2228 34.8432 20.2645 35.1379 20.391V20.391ZM30.6253 16.1422L32.1696 20.0118C32.1753 20.0278 32.1797 20.0438 32.1865 20.0598C32.1925 20.0755 32.1997 20.0895 32.2069 20.1043L35.7005 28.8565L26.9451 28.8521L24.2815 22.1776L30.6253 16.1422ZM18.3542 25.2003C18.4675 24.9345 18.6822 24.725 18.9508 24.6185L22.7251 23.1106L25.1736 29.2481L21.3986 30.7557C20.8408 30.9791 20.2073 30.7076 19.9843 30.1494L18.3438 26.0328C18.2357 25.7645 18.2397 25.4654 18.3542 25.2003V25.2003Z" fill="#0085FF"/>
<path d="M38.0602 20.5167C38.2812 20.9592 38.8198 21.1386 39.2623 20.9171L41.5654 19.7656C42.0079 19.5445 42.1877 19.006 41.9658 18.5635C41.7452 18.1215 41.2067 17.9417 40.7642 18.1631L38.4606 19.3151C38.0182 19.5361 37.8388 20.0743 38.0602 20.5167V20.5167Z" fill="#0085FF"/>
<path d="M41.4115 22.0435L39.4919 21.7876C39.1724 21.7404 38.8525 21.8697 38.6543 22.1244C38.4565 22.3794 38.4104 22.7214 38.5349 23.0193C38.6595 23.3172 38.9346 23.525 39.2553 23.5639L41.1749 23.8197C41.6614 23.8778 42.1047 23.5342 42.1691 23.0481C42.2344 22.5624 41.8964 22.1148 41.4115 22.0435V22.0435Z" fill="#0085FF"/>
<path d="M36.8229 18.6976C37.2056 19.0112 37.7702 18.9547 38.083 18.5715L39.2349 17.1641C39.5485 16.7809 39.492 16.2167 39.1088 15.9032C38.726 15.5904 38.1614 15.6469 37.8483 16.0297L36.6963 17.4375C36.3836 17.8203 36.4397 18.3849 36.8229 18.6976V18.6976Z" fill="#0085FF"/>
</svg>
