<svg width="60" height="60" viewBox="0 0 60 60" fill="none" xmlns="http://www.w3.org/2000/svg">
<path d="M38.3694 39.1492C38.4237 38.9048 38.3494 38.65 38.1726 38.4732L32.8658 33.1664C34.425 31.0175 34.1906 28.054 32.3133 26.1766C30.4359 24.2993 27.4724 24.0649 25.3234 25.624L20.0162 20.3173C19.8395 20.14 19.5846 20.0662 19.3407 20.12C19.0963 20.1743 18.8967 20.3492 18.8114 20.5845L14.4426 32.5981C13.0026 36.5406 10.7212 40.1224 7.75771 43.095C6.56058 44.2921 6.56058 46.2333 7.75771 47.4309L11.059 50.7317C12.2561 51.9293 14.1973 51.9293 15.3944 50.7317C15.4149 50.7117 15.4359 50.6922 15.4554 50.6722L22.2823 57.499C22.5681 57.7849 23.0311 57.7849 23.317 57.499C25.4263 55.3901 25.4263 51.9707 23.317 49.8618L20.2753 46.8202C22.0408 45.6941 23.9239 44.7642 25.8913 44.0468L37.9049 39.678C38.1398 39.5927 38.3151 39.3931 38.3694 39.1492V39.1492ZM28.4942 26.0585C29.9323 26.0585 31.2557 26.8421 31.9469 28.1031C32.6381 29.364 32.5867 30.9018 31.8126 32.1137L26.3758 26.6768C27.0079 26.2714 27.7434 26.0566 28.4942 26.0585V26.0585ZM13.2269 50.1662C12.8015 50.1677 12.3938 49.9986 12.0936 49.697L8.79286 46.3958C8.16691 45.7703 8.16691 44.7556 8.79286 44.1297C9.3626 43.5594 9.90948 42.9654 10.4335 42.3485L16.1404 48.0564C15.5245 48.5799 14.9309 49.1268 14.3593 49.697C14.0596 49.9986 13.6519 50.1677 13.2269 50.1662ZM22.2828 50.897C23.6204 52.2351 23.8176 54.3355 22.7525 55.8994L16.5206 49.6675C17.3223 48.9501 18.1636 48.2779 19.0401 47.6543L22.2828 50.897ZM25.3911 42.6715C22.4781 43.7362 19.7447 45.2406 17.2871 47.1327L11.3572 41.2028C13.2488 38.7448 14.7532 36.0118 15.8179 33.0983L19.7937 22.1642L36.3253 38.6952L25.3911 42.6715Z" fill="#B33DC3"/>
<path d="M36.461 23.5976C34.2083 21.3405 30.8241 20.6498 27.8678 21.8445C27.4929 21.9955 27.3114 22.4219 27.4624 22.7968C27.6134 23.1717 28.0397 23.3532 28.4146 23.2022C30.827 22.2304 33.5866 22.793 35.4259 24.6322C37.2647 26.471 37.8278 29.2307 36.856 31.6435C36.7049 32.0179 36.8864 32.4443 37.2613 32.5953C37.6363 32.7463 38.0621 32.5648 38.2131 32.1904C39.4079 29.234 38.7176 25.8498 36.461 23.5976V23.5976Z" fill="#B33DC3"/>
<path d="M40.8214 33.9558C41.1963 34.1068 41.6227 33.9253 41.7737 33.5504C43.5315 29.1873 42.514 24.1964 39.1875 20.8703C35.8615 17.5438 30.87 16.5263 26.5074 18.2841C26.1325 18.4351 25.951 18.8615 26.102 19.2364C26.253 19.6113 26.6794 19.7928 27.0543 19.6418C30.8729 18.1031 35.2417 18.9939 38.1528 21.905C41.0639 24.8161 41.9547 29.1849 40.416 33.0035C40.265 33.3784 40.4465 33.8048 40.8214 33.9558V33.9558Z" fill="#B33DC3"/>
<path d="M48.9789 0C42.8918 0 37.9575 4.93426 37.9575 11.0213C37.9575 17.1084 42.8918 22.0427 48.9789 22.0427C55.0659 22.0427 60.0002 17.1084 60.0002 11.0213C59.9935 4.93712 55.0631 0.00666921 48.9789 0ZM48.9789 20.5793C43.7002 20.5793 39.4209 16.3 39.4209 11.0213C39.4209 5.74266 43.7002 1.46341 48.9789 1.46341C54.2575 1.46341 58.5368 5.74266 58.5368 11.0213C58.5306 16.2976 54.2552 20.5731 48.9789 20.5793Z" fill="#B33DC3"/>
<path d="M52.9379 9.74133C54.4475 9.74133 55.6718 8.51895 55.6742 7.00886C55.6761 5.49923 54.4552 4.27305 52.9455 4.26876C51.4359 4.26448 50.2078 5.48399 50.2016 6.99361L46.8084 8.95293C45.7132 8.00495 44.0693 8.0745 43.0579 9.11156C42.0471 10.1486 42.0194 11.794 42.9955 12.8644C43.9711 13.9348 45.6123 14.0592 46.7384 13.1483L50.2169 15.3282C50.3603 16.6797 51.4726 17.7215 52.8307 17.7758C54.1884 17.8301 55.3807 16.8807 55.6318 15.545C55.8824 14.2092 55.1159 12.8916 53.8306 12.45C52.5454 12.0079 51.1306 12.5753 50.507 13.7829L47.5916 11.956C47.8002 11.382 47.8107 10.7541 47.6211 10.1734L50.6127 8.44559C51.1115 9.25066 51.9909 9.74085 52.9379 9.74133V9.74133ZM52.9379 5.73266C53.6406 5.73266 54.2103 6.3024 54.2103 7.00552C54.2103 7.70817 53.6406 8.27791 52.9374 8.27791C52.2348 8.27791 51.6646 7.70817 51.6646 7.00504C51.6655 6.3024 52.2348 5.73313 52.9379 5.73266V5.73266ZM45.0196 12.2942C44.317 12.2942 43.7473 11.724 43.7473 11.0213C43.7473 10.3182 44.317 9.74847 45.0201 9.74847C45.7228 9.74847 46.293 10.3182 46.293 11.0213C46.292 11.724 45.7228 12.2932 45.0196 12.2942ZM52.9379 13.7648C53.6406 13.7648 54.2103 14.3345 54.2103 15.0376C54.2103 15.7408 53.6406 16.3105 52.9374 16.3105C52.2343 16.3105 51.6646 15.7403 51.6646 15.0376C51.6655 14.335 52.2348 13.7652 52.9379 13.7648V13.7648Z" fill="#B33DC3"/>
<path d="M48.9789 37.9573C42.8918 37.9573 37.9575 42.8916 37.9575 48.9786C37.9575 55.0657 42.8918 60 48.9789 60C55.0659 60 60.0002 55.0657 60.0002 48.9786C59.9935 42.8944 55.0631 37.964 48.9789 37.9573ZM48.9789 58.5366C43.7002 58.5366 39.4209 54.2573 39.4209 48.9786C39.4209 43.7 43.7002 39.4207 48.9789 39.4207C54.2575 39.4207 58.5368 43.7 58.5368 48.9786C58.5306 54.2549 54.2552 58.5304 48.9789 58.5366Z" fill="#B33DC3"/>
<path d="M53.5039 48.3565L47.5102 44.6489C47.2844 44.5093 47.0009 44.5031 46.7689 44.6322C46.5374 44.7613 46.3936 45.0057 46.3936 45.2711V52.6858C46.3936 52.9511 46.5374 53.1955 46.7689 53.3246C47.0009 53.4537 47.2844 53.447 47.5102 53.3075L53.5039 49.6003C53.7197 49.4669 53.8507 49.2316 53.8507 48.9777C53.8507 48.7243 53.7197 48.4889 53.5039 48.3556V48.3565ZM47.857 51.3729V46.5844L51.728 48.9787L47.857 51.3729Z" fill="#B33DC3"/>
<path d="M11.0213 22.0427C17.1084 22.0427 22.0427 17.1084 22.0427 11.0213C22.0427 4.93426 17.1084 0 11.0213 0C4.93426 0 0 4.93426 0 11.0213C0.00666921 17.1056 4.93712 22.036 11.0213 22.0427ZM11.0213 1.46341C16.3 1.46341 20.5793 5.74266 20.5793 11.0213C20.5793 16.3 16.3 20.5793 11.0213 20.5793C5.74266 20.5793 1.46341 16.3 1.46341 11.0213C1.46961 5.74505 5.74505 1.46961 11.0213 1.46341Z" fill="#B33DC3"/>
<path d="M6.52446 15.3973H11.7607C12.8383 15.3959 13.711 14.5231 13.712 13.4461V13.3298L16.3858 14.7971C16.6126 14.9214 16.8879 14.9171 17.1104 14.7852C17.3333 14.6537 17.4696 14.4141 17.4696 14.1554V7.88729C17.4696 7.62862 17.3329 7.38948 17.1104 7.25752C16.8879 7.12605 16.6126 7.12128 16.3858 7.24561L13.712 8.71332V8.59661C13.711 7.51953 12.8383 6.64681 11.7607 6.64539H6.52446C5.44738 6.64681 4.57467 7.51953 4.57324 8.59661V13.4461C4.57467 14.5231 5.44738 15.3959 6.52446 15.3973ZM16.0062 9.12347V12.9192L13.712 11.6606V10.3825L16.0062 9.12347ZM6.03666 8.59661C6.03666 8.32746 6.25483 8.1088 6.52446 8.1088H11.7607C12.0304 8.1088 12.2485 8.32746 12.2485 8.59661V13.4461C12.2485 13.7152 12.0304 13.9339 11.7607 13.9339H6.52446C6.25483 13.9339 6.03666 13.7152 6.03666 13.4461V8.59661Z" fill="#B33DC3"/>
</svg>
