<svg width="60" height="60" viewBox="0 0 60 60" fill="none" xmlns="http://www.w3.org/2000/svg">
<path d="M10.4502 44.6764H29.2969V53.3203H20.3172C20.1307 53.3203 19.9518 53.3944 19.82 53.5263C19.6881 53.6581 19.614 53.837 19.614 54.0234C19.614 54.2099 19.6881 54.3888 19.82 54.5206C19.9518 54.6525 20.1307 54.7266 20.3172 54.7266H40.2434C40.4298 54.7266 40.6087 54.6525 40.7406 54.5206C40.8724 54.3888 40.9465 54.2099 40.9465 54.0234C40.9465 53.837 40.8724 53.6581 40.7406 53.5263C40.6087 53.3944 40.4298 53.3203 40.2434 53.3203H30.7031V44.6764H49.5498C50.979 44.6748 52.3492 44.1063 53.3597 43.0958C54.3703 42.0852 54.9388 40.715 54.9404 39.2858V10.6641C54.9388 9.23488 54.3703 7.86471 53.3597 6.85413C52.3492 5.84355 50.979 5.27508 49.5498 5.27344H10.4502C9.02102 5.27508 7.65085 5.84355 6.64026 6.85413C5.62968 7.86471 5.06121 9.23488 5.05957 10.6641V39.2858C5.06121 40.715 5.62968 42.0852 6.64026 43.0958C7.65085 44.1063 9.02102 44.6748 10.4502 44.6764V44.6764ZM10.4502 6.67969H49.5498C50.6062 6.6809 51.6189 7.10107 52.3659 7.84802C53.1128 8.59497 53.533 9.60771 53.5342 10.6641V34.4435H6.46582V10.6641C6.46703 9.60771 6.8872 8.59497 7.63415 7.84802C8.38111 7.10107 9.39385 6.6809 10.4502 6.67969V6.67969ZM6.46582 35.8494H53.5342V39.2855C53.533 40.3418 53.1128 41.3546 52.3659 42.1015C51.6189 42.8485 50.6062 43.2686 49.5498 43.2698H10.4502C9.39385 43.2686 8.38111 42.8485 7.63415 42.1015C6.8872 41.3546 6.46703 40.3418 6.46582 39.2855V35.8494Z" fill="#FFC700"/>
<path d="M15.8418 25.1989C16.9186 25.1989 17.9776 24.9251 18.9194 24.4031C19.8612 23.8812 20.6548 23.1283 21.2256 22.2153C21.7963 21.3023 22.1256 20.2592 22.1823 19.1839C22.239 18.1087 22.0213 17.0367 21.5498 16.0687C21.0782 15.1007 20.3682 14.2685 19.4866 13.6504C18.6049 13.0323 17.5805 12.6486 16.5098 12.5353C15.439 12.422 14.357 12.5828 13.3655 13.0027C12.374 13.4226 11.5056 14.0878 10.8419 14.9357C10.1082 15.873 9.65269 16.9976 9.52744 18.1814C9.40219 19.3651 9.6122 20.5602 10.1335 21.6303C10.6548 22.7004 11.4665 23.6024 12.4758 24.2334C13.4851 24.8644 14.6515 25.199 15.8418 25.1989V25.1989ZM11.9487 15.8031C12.6694 14.882 13.6932 14.2463 14.8383 14.0089C15.9834 13.7714 17.1756 13.9476 18.203 14.5061C19.2305 15.0647 20.0267 15.9694 20.4501 17.0595C20.8735 18.1496 20.8968 19.3545 20.5157 20.4601C20.1346 21.5657 19.3739 22.5005 18.3688 23.0982C17.3637 23.696 16.1791 23.918 15.0257 23.7249C13.8723 23.5318 12.8248 22.936 12.0691 22.0435C11.3135 21.1509 10.8988 20.0194 10.8986 18.85C10.8964 17.7452 11.2664 16.6719 11.9487 15.8031V15.8031Z" fill="#FFC700"/>
<path d="M14.4067 20.5898C14.526 20.7294 14.695 20.8168 14.8778 20.8334C15.0606 20.8499 15.2426 20.7944 15.385 20.6786L18.541 18.111C18.614 18.0532 18.6748 17.9815 18.7199 17.9C18.765 17.8185 18.7934 17.7288 18.8036 17.6363C18.8137 17.5437 18.8054 17.45 18.779 17.3607C18.7527 17.2714 18.7089 17.1882 18.6501 17.1159C18.5913 17.0437 18.5188 16.9838 18.4367 16.9398C18.3546 16.8959 18.2646 16.8686 18.1719 16.8597C18.0792 16.8508 17.9856 16.8604 17.8967 16.888C17.8077 16.9155 17.7251 16.9605 17.6536 17.0202L15.0302 19.1545L14.1209 18.0897C14.0611 18.0189 13.9879 17.9607 13.9055 17.9183C13.8232 17.876 13.7332 17.8503 13.6409 17.8428C13.5486 17.8353 13.4557 17.8461 13.3676 17.8746C13.2794 17.9032 13.1978 17.9488 13.1274 18.009C13.0569 18.0691 12.9991 18.1426 12.9571 18.2252C12.9152 18.3078 12.8899 18.3978 12.8829 18.4902C12.8759 18.5825 12.8871 18.6754 12.9161 18.7634C12.945 18.8514 12.9911 18.9328 13.0516 19.0029L14.4067 20.5898Z" fill="#FFC700"/>
<path d="M10.1953 28.2422H21.3281C21.5146 28.2422 21.6934 28.1681 21.8253 28.0362C21.9572 27.9044 22.0312 27.7255 22.0312 27.5391C22.0312 27.3526 21.9572 27.1737 21.8253 27.0419C21.6934 26.91 21.5146 26.8359 21.3281 26.8359H10.1953C10.0088 26.8359 9.82999 26.91 9.69813 27.0419C9.56627 27.1737 9.49219 27.3526 9.49219 27.5391C9.49219 27.7255 9.56627 27.9044 9.69813 28.0362C9.82999 28.1681 10.0088 28.2422 10.1953 28.2422Z" fill="#FFC700"/>
<path d="M10.1953 31.7578H16.7578C16.9443 31.7578 17.1231 31.6837 17.255 31.5519C17.3869 31.42 17.4609 31.2412 17.4609 31.0547C17.4609 30.8682 17.3869 30.6894 17.255 30.5575C17.1231 30.4256 16.9443 30.3516 16.7578 30.3516H10.1953C10.0088 30.3516 9.82999 30.4256 9.69813 30.5575C9.56627 30.6894 9.49219 30.8682 9.49219 31.0547C9.49219 31.2412 9.56627 31.42 9.69813 31.5519C9.82999 31.6837 10.0088 31.7578 10.1953 31.7578Z" fill="#FFC700"/>
<path d="M28.4289 24.2169L28.2494 27.8203C28.2414 27.9806 28.2885 28.1387 28.3828 28.2686C28.4771 28.3984 28.613 28.492 28.7679 28.534L32.2498 29.4764L34.2222 32.4961C34.31 32.6305 34.4411 32.7308 34.5937 32.7804C34.7463 32.8299 34.9113 32.8258 35.0613 32.7687L38.4322 31.4844L41.8033 32.7687C41.9533 32.8258 42.1182 32.8299 42.2709 32.7803C42.4235 32.7307 42.5545 32.6304 42.6423 32.4961L44.6146 29.4757L48.0966 28.5333C48.2515 28.4914 48.3874 28.3977 48.4818 28.2679C48.5761 28.1381 48.6232 27.9799 48.6152 27.8196L48.4354 24.2167L50.6986 21.4076C50.7992 21.2826 50.8541 21.127 50.8541 20.9665C50.8541 20.806 50.7992 20.6504 50.6986 20.5254L48.4354 17.7163L48.6152 14.1134C48.6232 13.9531 48.5761 13.7949 48.4818 13.6651C48.3874 13.5353 48.2515 13.4416 48.0966 13.3997L44.6146 12.457L42.6423 9.43699C42.5546 9.30259 42.4235 9.20223 42.2709 9.15258C42.1183 9.10293 41.9533 9.10698 41.8033 9.16406L38.4322 10.4487L35.0613 9.16406C34.9113 9.10692 34.7463 9.1028 34.5937 9.15238C34.4411 9.20197 34.31 9.30227 34.2222 9.43664L32.2502 12.457L28.7682 13.3996C28.6133 13.4415 28.4775 13.5352 28.3832 13.665C28.2888 13.7948 28.2418 13.953 28.2498 14.1132L28.4293 17.7162L26.1658 20.5256C26.0651 20.6506 26.0103 20.8062 26.0103 20.9667C26.0103 21.1272 26.0651 21.2828 26.1658 21.4078L28.4289 24.2169ZM29.6921 18.3901C29.8003 18.2557 29.8553 18.0863 29.8467 17.914L29.682 14.6093L32.8759 13.7448C33.0426 13.6999 33.187 13.5951 33.2814 13.4505L35.0906 10.6802L38.1825 11.8581C38.3437 11.9196 38.5219 11.9196 38.6831 11.8581L41.7752 10.6802L43.5842 13.4505C43.6785 13.595 43.8227 13.6997 43.9892 13.7448L47.183 14.6093L47.0183 17.914C47.0097 18.0863 47.0647 18.2557 47.1729 18.3901L49.2486 20.9667L47.1723 23.543C47.0641 23.6774 47.0091 23.8468 47.0177 24.0191L47.1825 27.3238L43.9886 28.1882C43.8221 28.2332 43.678 28.338 43.5836 28.4824L41.7746 31.2529L38.6825 30.0749C38.5213 30.0135 38.3431 30.0135 38.1819 30.0749L35.09 31.2529L33.2814 28.4828C33.1871 28.3383 33.043 28.2336 32.8764 28.1885L29.6826 27.3241L29.8473 24.0195C29.8559 23.8472 29.8009 23.6777 29.6927 23.5433L27.617 20.9667L29.6921 18.3901Z" fill="#FFC700"/>
<path d="M33.7833 24.0912C34.1204 24.0912 34.2336 23.9294 34.2689 23.795L34.6274 22.54H36.7735L37.1316 23.7939C37.1673 23.9294 37.2805 24.0912 37.6176 24.0912C37.9676 24.0912 38.4761 23.8631 38.4761 23.5052C38.4749 23.4749 38.4698 23.4449 38.4607 23.4159L36.5712 17.2542C36.4671 16.907 36.0507 16.7832 35.6957 16.7832C35.3614 16.7832 34.934 16.9065 34.8299 17.2539L32.9454 23.396C32.9347 23.4316 32.9278 23.4682 32.9248 23.5052C32.9247 23.8685 33.4248 24.0912 33.7833 24.0912ZM34.9243 21.4277L35.6956 18.706L36.4668 21.4277H34.9243Z" fill="#FFC700"/>
<path d="M39.6469 24.0912H41.3739C42.89 24.0912 43.725 23.277 43.725 21.7985V19.1351C43.725 17.6565 42.89 16.8423 41.3739 16.8423H39.6469C39.3022 16.8423 39.0322 17.0394 39.0322 17.2911V23.6427C39.0322 23.8945 39.3022 24.0912 39.6469 24.0912ZM42.3401 21.7985C42.3401 22.5041 42.0151 22.8618 41.3743 22.8618H40.4182V18.0717H41.3743C42.0151 18.0717 42.3401 18.4295 42.3401 19.1351V21.7985Z" fill="#FFC700"/>
</svg>
