<svg width="68" height="68" viewBox="0 0 68 68" fill="none" xmlns="http://www.w3.org/2000/svg">
<path d="M13.3 42.4801L11.77 46.8901C12.77 47.2401 13.71 47.5801 14.64 47.8901C14.8542 47.9106 15.0599 47.9842 15.2384 48.1044C15.4168 48.2247 15.5623 48.3876 15.6617 48.5784C15.7611 48.7692 15.8112 48.9819 15.8074 49.197C15.8036 49.4122 15.7461 49.6229 15.64 49.8101C13.98 54.5301 12.41 59.3001 10.74 64.0201C10.5068 64.6873 10.144 65.3017 9.67247 65.828C9.20092 66.3544 8.62992 66.7823 7.99235 67.0872C7.35478 67.392 6.66322 67.5678 5.95746 67.6043C5.25171 67.6409 4.54569 67.5375 3.88004 67.3001C2.49401 66.8729 1.33283 65.9156 0.649232 64.6364C-0.0343624 63.3573 -0.185025 61.8598 0.23004 60.4701C1.78004 55.6601 3.46004 50.8801 5.07004 46.0801C5.39004 45.0801 5.95004 44.8201 6.90004 45.1901C7.85004 45.5601 8.73004 45.8701 9.83004 46.2801L11.31 41.8401L9.73004 41.0201C6.43099 39.2165 3.76523 36.4435 2.09306 33.0759C0.42089 29.7083 -0.177057 25.9085 0.38004 22.1901C0.937872 18.3968 2.71643 14.8885 5.44645 12.1964C8.17647 9.50425 11.7093 7.7749 15.51 7.27014C18.3543 6.81839 21.2662 7.07884 23.9851 8.0282C26.704 8.97755 29.1451 10.5862 31.09 12.7101C31.3159 13.0097 31.6377 13.2227 32.0017 13.3137C32.3656 13.4047 32.7498 13.3681 33.09 13.2101C35.71 12.3901 38.39 11.7501 41.21 11.0001V8.75014C39.51 8.75014 37.79 8.70014 36.07 8.75014C34.79 8.80014 34.3 8.27014 34.33 7.01014C34.39 5.18014 34.33 3.35014 34.33 1.52014C34.33 0.520139 34.75 -0.00986105 35.84 0.000138944C40.2534 0.000138944 44.6634 0.000138944 49.07 0.000138944C50.07 0.000138944 50.55 0.430139 50.54 1.42014V7.35014C50.54 8.35014 50.06 8.78014 49.06 8.76014C47.23 8.76014 45.41 8.76014 43.51 8.76014C43.45 9.15014 43.42 9.46014 43.36 9.76014C43.13 11.0201 43.69 11.4101 44.93 11.5501C48.5057 11.855 51.9685 12.9529 55.0666 14.764C58.1647 16.5751 60.8202 19.0539 62.84 22.0201C68.84 30.7001 69.37 40.0201 64.16 49.0801C58.82 58.4201 50.34 62.7501 39.62 61.6201C29.31 60.5501 22.33 54.7201 18.65 45.0201C18.14 43.6801 17.65 42.8901 16.09 42.9601C15.1455 42.9006 14.2101 42.7397 13.3 42.4801ZM20.3 43.2301C21.5082 47.6146 24.0162 51.5302 27.4935 54.4613C30.9708 57.3923 35.2544 59.2014 39.78 59.6501C44.8089 60.2035 49.8807 59.0956 54.2208 56.4958C58.561 53.8959 61.9308 49.947 63.8159 45.252C65.7009 40.557 65.9974 35.3741 64.6601 30.4948C63.3229 25.6155 60.4253 21.308 56.41 18.2301C48.54 12.1101 37.91 12.9101 33.5 15.5401C40.54 27.1201 33.37 41.2401 20.31 43.2301H20.3ZM2.21004 24.9101C2.20732 29.1805 3.89498 33.2783 6.90426 36.3082C9.91354 39.3381 13.9998 41.0537 18.27 41.0801C22.4649 41.0251 26.4704 39.3247 29.4237 36.3452C32.3771 33.3656 34.042 29.3453 34.06 25.1501C34.0392 20.9076 32.3486 16.8438 29.3543 13.8382C26.3599 10.8326 22.3025 9.12689 18.06 9.09014C15.9778 9.07823 13.9138 9.47908 11.9874 10.2695C10.061 11.06 8.31028 12.2243 6.83648 13.6953C5.36269 15.1663 4.19501 16.9148 3.40092 18.8397C2.60684 20.7647 2.20208 22.8279 2.21004 24.9101ZM13.5 49.6701L6.82004 47.3501C5.21004 52.1701 3.56004 56.8501 2.11004 61.5801C1.60004 63.2501 2.89004 64.9201 4.65004 65.4101C5.46484 65.6755 6.35068 65.6155 7.12227 65.2428C7.89387 64.87 8.49146 64.2133 8.79004 63.4101C10.4 58.8901 11.9 54.3601 13.5 49.6701ZM36.64 6.67014H47.57C47.8436 6.64702 48.1146 6.60017 48.38 6.53014V2.09014H40.15C36.09 2.09014 36.09 2.09014 36.45 6.20014C36.4997 6.362 36.5632 6.51926 36.64 6.67014Z" fill="#FF800B"/>
<path d="M43.4 27.73C43.4 28.43 43.4 29.13 43.4 29.83C43.33 31.35 43.4 32.57 44.99 33.58C46.8 34.72 46.99 37.08 45.73 38.98C45.5248 39.2235 45.4122 39.5316 45.4122 39.85C45.4122 40.1684 45.5248 40.4766 45.73 40.72C47.19 42.9 48.63 45.09 49.97 47.34C50.26 47.82 50.36 48.91 50.08 49.15C49.29 49.81 48.77 49.06 48.34 48.4C46.98 46.2 45.48 44.02 44.08 41.8C43.9392 41.4832 43.7045 41.2173 43.4075 41.0385C43.1106 40.8596 42.7658 40.7763 42.42 40.8C41.5153 40.8378 40.6258 40.5589 39.9048 40.0113C39.1838 39.4636 38.6763 38.6816 38.47 37.8C38.2054 36.9299 38.2399 35.9962 38.568 35.1479C38.896 34.2997 39.4987 33.5857 40.28 33.12C40.6513 32.9466 40.9575 32.659 41.1536 32.2991C41.3497 31.9393 41.4255 31.5261 41.37 31.12C41.31 28.73 41.37 26.34 41.37 23.96C41.37 23.19 41.49 22.38 42.44 22.57C42.84 22.65 43.32 23.43 43.37 23.94C43.4501 25.2018 43.4601 26.4671 43.4 27.73ZM42.1 38.73C42.3748 38.7435 42.6496 38.7022 42.9084 38.6087C43.1671 38.5152 43.4048 38.3712 43.6076 38.1852C43.8103 37.9992 43.9742 37.7748 44.0896 37.525C44.205 37.2752 44.2697 37.005 44.28 36.73C44.3061 36.4496 44.2766 36.1667 44.1932 35.8977C44.1097 35.6286 43.974 35.3787 43.7938 35.1622C43.6135 34.9457 43.3923 34.767 43.1429 34.6362C42.8934 34.5054 42.6205 34.4251 42.34 34.4C41.7991 34.4123 41.2827 34.6279 40.8939 35.004C40.505 35.3801 40.2722 35.889 40.2419 36.4291C40.2116 36.9693 40.3861 37.501 40.7305 37.9182C41.0749 38.3354 41.5639 38.6074 42.1 38.68V38.73Z" fill="#FF800B"/>
<path d="M57.3497 44.02C58.4897 44.77 59.5597 45.42 60.5397 46.18C60.6361 46.3509 60.6868 46.5438 60.6868 46.74C60.6868 46.9362 60.6361 47.1291 60.5397 47.3C60.3824 47.4464 60.1921 47.5528 59.985 47.6103C59.7779 47.6677 59.56 47.6745 59.3497 47.63C58.4159 47.1871 57.5311 46.6475 56.7097 46.02C56.5768 45.8732 56.4803 45.697 56.4282 45.5059C56.3761 45.3148 56.3697 45.114 56.4097 44.92C56.4997 44.63 56.9797 44.4 57.3497 44.02Z" fill="#FF800B"/>
<path d="M34.0404 50.4702C34.2304 50.9802 34.7104 51.6102 34.5604 51.9802C34.1009 52.9933 33.5308 53.9525 32.8604 54.8402C32.7231 54.9535 32.558 55.028 32.3822 55.0562C32.2064 55.0843 32.0262 55.065 31.8604 55.0002C31.5504 54.8202 31.1404 54.2502 31.2304 54.0702C31.8004 52.9202 32.4804 51.8302 33.1504 50.7402C33.2504 50.6202 33.5204 50.6202 34.0404 50.4702Z" fill="#FF800B"/>
<path d="M50.7999 22.8103C50.5599 22.4103 49.9899 21.8103 50.0999 21.6003C50.6319 20.4712 51.2609 19.3905 51.9799 18.3703C52.0999 18.2003 52.7199 18.1803 52.9799 18.3203C53.2399 18.4603 53.5899 19.0003 53.5099 19.1703C52.9399 20.3203 52.2699 21.4203 51.6099 22.5103C51.4999 22.6403 51.2499 22.6503 50.7999 22.8103Z" fill="#FF800B"/>
<path d="M28.7302 45.8C28.5702 46.01 28.4402 46.34 28.2002 46.5C27.4534 47.0526 26.6526 47.5283 25.8102 47.92C25.5881 47.9795 25.3543 47.9804 25.1317 47.9226C24.9091 47.8647 24.7053 47.7501 24.5402 47.59C24.4557 47.3785 24.4269 47.1487 24.4567 46.9228C24.4865 46.6969 24.5738 46.4825 24.7102 46.3C25.4692 45.6906 26.3067 45.1861 27.2002 44.8C27.9802 44.47 28.5502 44.82 28.7302 45.8Z" fill="#FF800B"/>
<path d="M60.5202 26.1801C60.3628 26.4732 60.1603 26.7397 59.9202 26.9701C59.2145 27.5033 58.4494 27.953 57.6402 28.3101C57.2602 28.4501 56.6902 28.1101 56.2002 27.9901C56.3202 27.5501 56.2802 26.9301 56.5702 26.6801C57.2917 26.0947 58.0806 25.5978 58.9202 25.2001C59.7402 24.8001 60.2402 25.2401 60.5202 26.1801Z" fill="#FF800B"/>
<path d="M54.0705 53.6802C53.7305 54.0902 53.5405 54.5402 53.2905 54.5802C53.0783 54.6172 52.8607 54.6087 52.6521 54.5553C52.4435 54.5018 52.2487 54.4047 52.0805 54.2702C51.4674 53.5117 50.9533 52.6784 50.5505 51.7902C50.5012 51.5839 50.5028 51.3688 50.555 51.1633C50.6073 50.9577 50.7087 50.7679 50.8505 50.6102C51.0164 50.5011 51.208 50.4373 51.4062 50.425C51.6044 50.4128 51.8023 50.4525 51.9805 50.5402C52.7105 51.5102 53.3505 52.5802 54.0705 53.6802Z" fill="#FF800B"/>
<path d="M43.3699 17.94C43.4562 18.396 43.4562 18.8641 43.3699 19.32C43.2099 19.71 42.7299 20.21 42.3699 20.21C42.1376 20.1569 41.9232 20.0441 41.7478 19.8827C41.5724 19.7214 41.4422 19.5171 41.3699 19.29C41.24 18.3713 41.24 17.4388 41.3699 16.52C41.3699 16.15 41.9599 15.85 42.2799 15.52C42.6299 15.86 43.1199 16.15 43.2799 16.57C43.3659 17.0226 43.3659 17.4874 43.2799 17.94H43.3699Z" fill="#FF800B"/>
<path d="M43.36 55.2899C43.4295 55.7957 43.4126 56.3097 43.31 56.8099C43.19 57.1499 42.63 57.6199 42.36 57.5599C42.1301 57.5015 41.9184 57.3869 41.7438 57.2263C41.5692 57.0657 41.4373 56.8642 41.36 56.6399C41.225 55.7617 41.225 54.8681 41.36 53.9899C41.42 53.5999 41.9 53.2599 42.19 52.8999C42.57 53.2299 43.08 53.4899 43.29 53.8999C43.5 54.3099 43.29 54.8099 43.29 55.2799L43.36 55.2899Z" fill="#FF800B"/>
<path d="M60.8402 37.5701C60.1402 37.4001 58.6902 38.0701 58.7202 36.5701C58.7202 35.1901 60.0902 35.6901 60.9502 35.5701C61.3561 35.4591 61.7843 35.4591 62.1902 35.5701C62.6362 35.8481 63.0431 36.1844 63.4002 36.5701C63.0599 36.9242 62.673 37.2303 62.2502 37.4801C61.7885 37.5884 61.3119 37.6188 60.8402 37.5701Z" fill="#FF800B"/>
<path d="M5.24023 24.6601C5.41553 23.4597 5.66264 22.2709 5.98023 21.1001C6.11023 20.6701 6.79023 20.4101 7.22023 20.1001C7.52959 20.5873 7.74969 21.1257 7.87023 21.6901C7.87023 23.6301 7.40023 25.6301 7.76023 27.4901C8.08069 29.1524 8.8071 30.7097 9.87484 32.0235C10.9426 33.3372 12.3185 34.3666 13.8802 35.0201C14.2202 35.1701 14.6602 35.2501 14.8802 35.5101C15.0206 35.6717 15.1246 35.8616 15.185 36.0669C15.2453 36.2723 15.2608 36.4882 15.2302 36.7001C15.1102 36.9701 14.5102 37.1001 14.1102 37.1601C13.8702 37.1601 13.5902 36.9801 13.3302 36.8801C10.9362 35.8552 8.89444 34.152 7.45686 31.9805C6.01928 29.8091 5.24873 27.2643 5.24023 24.6601Z" fill="#FF800B"/>
</svg>
