<svg width="68" height="49" viewBox="0 0 68 49" fill="none" xmlns="http://www.w3.org/2000/svg">
<path d="M33.6708 48.5C24.1908 48.5 14.6708 48.43 5.2408 48.5C0.240799 48.56 -0.319201 45.13 0.120799 41.75C0.180507 41.4764 0.301532 41.22 0.474754 41C0.647975 40.78 0.868874 40.6022 1.1208 40.48C2.2208 40.13 2.1208 39.38 2.1208 38.48C2.1208 27.4133 2.1208 16.34 2.1208 5.26C2.1408 1.4 3.5508 0 7.4908 0H60.2708C64.0108 0 65.4708 1.45 65.4808 5.18C65.4808 16.3 65.4808 27.42 65.4808 38.54C65.4808 39.41 65.4208 40.19 66.4808 40.54C66.8981 40.7453 67.2204 41.1034 67.3808 41.54C67.7399 42.302 67.897 43.1436 67.8368 43.9839C67.7767 44.8241 67.5013 45.6348 67.0373 46.3379C66.5733 47.041 65.9361 47.6128 65.1872 47.9985C64.4382 48.3842 63.6027 48.5706 62.7608 48.54L33.6708 48.5ZM65.5708 42.21H63.8708C56.6508 42.21 49.4308 42.21 42.2008 42.21C41.7209 42.1441 41.2324 42.2314 40.8051 42.4594C40.3777 42.6875 40.0332 43.0447 39.8208 43.48C39.4847 44.1329 38.9565 44.667 38.3074 45.0103C37.6583 45.3536 36.9196 45.4896 36.1908 45.4C34.6408 45.4 33.0908 45.33 31.5508 45.4C30.7825 45.5045 30.0007 45.3683 29.313 45.0102C28.6253 44.652 28.0656 44.0895 27.7108 43.4C27.5164 43.0047 27.2016 42.6813 26.8116 42.4764C26.4216 42.2715 25.9766 42.1957 25.5408 42.26C21.3608 42.32 17.1908 42.26 13.0108 42.26C12.1308 42.26 10.7008 42.71 10.7308 41.2C10.7608 39.69 12.1308 40.26 12.9808 40.26C29.1608 40.26 45.3441 40.26 61.5308 40.26H63.4808V5.11C63.4808 2.57 62.8708 1.97 60.3108 1.97H7.3908C4.7208 1.97 4.1408 2.54 4.1408 5.16C4.1408 16.2933 4.1408 27.4167 4.1408 38.53V40.17C4.71357 40.1341 5.28803 40.1341 5.8608 40.17C6.7408 40.29 8.2108 39.68 8.2108 41.17C8.2108 42.66 6.7008 42.17 5.7808 42.17C4.5808 42.26 3.3808 42.17 2.2108 42.17C1.6808 44.9 2.0008 46.59 5.5608 46.57C24.4108 46.48 43.2708 46.57 62.1308 46.57C62.6008 46.57 63.0708 46.57 63.5408 46.57C64.0665 46.5549 64.5664 46.3393 64.9383 45.9675C65.3101 45.5956 65.5257 45.0957 65.5408 44.57C65.593 43.7844 65.603 42.9966 65.5708 42.21ZM29.5708 42.3C30.7308 43.83 37.1808 43.76 38.0508 42.3H29.5708Z" fill="#FFC700"/>
<path d="M23.1711 6.19994V7.84994C23.1711 16.6699 23.1711 25.4899 23.1711 34.3099C23.1711 35.6199 23.5411 35.9599 24.8211 35.9599C35.7511 35.9099 46.6811 35.9599 57.6111 35.9599H59.1411V6.39994C59.0767 6.33558 58.9978 6.28757 58.9111 6.25994C58.1911 6.12994 57.2011 6.25994 57.2611 5.17994C57.3211 4.09994 58.3611 4.24994 59.1211 4.23994C61.1211 4.23994 61.2711 4.33994 61.2711 6.37994C61.2711 16.1799 61.2711 25.9866 61.2711 35.7999C61.2711 37.7999 61.1211 37.9699 59.1311 37.9699H8.57109C6.57109 37.9699 6.37109 37.8199 6.37109 35.8499V6.28994C6.37109 4.36994 6.52109 4.22994 8.48109 4.22994H52.8111C53.0911 4.22994 53.4211 4.13994 53.6411 4.22994C54.0709 4.49724 54.4788 4.79818 54.8611 5.12994C54.475 5.508 54.0492 5.84327 53.5911 6.12994C53.225 6.20596 52.8472 6.20596 52.4811 6.12994H23.1711V6.19994ZM8.50109 6.26994V35.8199H21.0011V6.26994H8.50109Z" fill="#FFC700"/>
<path d="M52.5311 22.85C52.2152 23.8679 51.8481 24.8692 51.4311 25.85C51.072 26.3891 50.6452 26.8798 50.1611 27.31C49.7114 26.8956 49.3211 26.4211 49.0011 25.9C48.5953 24.8079 48.1003 23.751 47.5211 22.74V27.74C47.5211 28.52 47.5211 29.39 46.4711 29.38C45.4211 29.37 45.4711 28.55 45.4711 27.83C45.4711 25.0567 45.4711 22.29 45.4711 19.53C45.4711 18.78 45.5611 18.08 46.4711 17.97C47.3811 17.86 48.2511 17.9 48.6111 19.03C49.0311 20.35 49.5411 21.64 50.1411 23.31C50.7611 21.65 51.2911 20.38 51.7011 19.06C52.1011 18 52.9211 17.88 53.8611 18C54.8011 18.12 54.8611 18.88 54.8611 19.68C54.8611 22.39 54.9111 25.12 54.8611 27.83C54.8611 28.38 54.3111 29.32 53.9311 29.36C52.9311 29.48 52.9311 28.54 52.9311 27.77V22.91L52.5311 22.85Z" fill="#FFC700"/>
<path d="M41.2405 9.50022H54.7505C55.1678 9.44283 55.5922 9.4666 56.0005 9.57022C56.3605 9.73022 56.9205 10.1902 56.8705 10.4202C56.7107 10.854 56.3928 11.2113 55.9805 11.4202C55.7005 11.5902 55.2505 11.4902 54.8805 11.4902H27.1605C26.4005 11.4902 25.4805 11.4902 25.4805 10.4902C25.4805 9.49022 26.4105 9.49022 27.1705 9.49022L41.2405 9.50022Z" fill="#FFC700"/>
<path d="M41.8807 25.9998C42.3206 26.6021 42.696 27.249 43.0007 27.9298C43.1307 28.2998 42.8607 28.8198 42.7807 29.2798C42.3207 29.1798 41.7307 29.2798 41.4407 28.9698C40.9509 28.4646 40.5457 27.8839 40.2407 27.2498C40.149 27.0479 40.0171 26.8669 39.853 26.7177C39.6889 26.5686 39.4962 26.4545 39.2865 26.3824C39.0768 26.3104 38.8546 26.2818 38.6336 26.2986C38.4125 26.3153 38.1971 26.377 38.0007 26.4798C38.0907 27.0462 38.0907 27.6233 38.0007 28.1898C37.8507 28.6598 37.3407 29.0198 37.0007 29.4298C36.6807 29.0398 36.1007 28.6498 36.0907 28.2498C36.0207 25.2498 36.0907 22.2498 36.0907 19.2498C36.0776 19.0849 36.0999 18.9191 36.1562 18.7635C36.2125 18.6079 36.3014 18.4662 36.4169 18.3478C36.5324 18.2294 36.672 18.1371 36.8261 18.0771C36.9803 18.0171 37.1455 17.9907 37.3107 17.9998C38.2507 17.9998 39.1807 17.9998 40.1207 17.9998C41.0071 17.9927 41.8726 18.269 42.5909 18.7883C43.3093 19.3076 43.8431 20.0428 44.1143 20.8867C44.3856 21.7306 44.3802 22.639 44.0989 23.4797C43.8176 24.3203 43.2752 25.0491 42.5507 25.5598L41.8807 25.9998ZM38.0707 24.2298C39.5607 24.1798 41.1407 24.7398 41.9507 23.1598C42.1039 22.8133 42.183 22.4386 42.183 22.0598C42.183 21.6809 42.1039 21.3063 41.9507 20.9598C41.0807 19.4398 39.5407 19.9598 38.1107 19.9598L38.0707 24.2298Z" fill="#FFC700"/>
<path d="M28.4607 23.7899C28.4607 26.3599 29.6007 27.7099 31.5707 27.3799C32.1007 27.2899 32.5707 26.8299 33.0907 26.7199C33.5863 26.6891 34.0838 26.7227 34.5707 26.8199C34.4607 27.3099 34.5107 27.9699 34.2007 28.2699C33.6352 28.8427 32.9173 29.2413 32.1321 29.4185C31.347 29.5957 30.5275 29.5442 29.7707 29.2699C28.9658 29.0649 28.2398 28.6258 27.6845 28.0081C27.1291 27.3905 26.7694 26.622 26.6507 25.7999C26.4458 24.4141 26.4458 23.0057 26.6507 21.6199C26.7755 20.8 27.1448 20.0368 27.7104 19.4302C28.276 18.8235 29.0115 18.4017 29.8207 18.2199C30.5772 17.9562 31.3926 17.9102 32.1739 18.087C32.9553 18.2637 33.6714 18.6563 34.2407 19.2199C34.5307 19.5099 34.4407 20.2199 34.5307 20.6799C34.0707 20.6799 33.5307 20.9599 33.1607 20.7899C30.1007 19.1899 28.4507 20.2099 28.4607 23.7899Z" fill="#FFC700"/>
<path d="M14.6911 16.7999C13.7581 16.8635 12.8213 16.8468 11.8911 16.7499C11.4411 16.6699 11.0711 16.0899 10.6611 15.7499C11.0511 15.4299 11.4311 14.8399 11.8411 14.8199C13.8411 14.7299 15.7711 14.7299 17.7311 14.8199C18.1311 14.8199 18.5011 15.4399 18.8811 15.7699C18.4711 16.1199 18.0911 16.6899 17.6311 16.7699C16.6536 16.8601 15.6703 16.8701 14.6911 16.7999Z" fill="#FFC700"/>
<path d="M14.6809 22.05C13.7044 22.1085 12.7248 22.0918 11.7509 22C11.3509 21.94 11.0309 21.36 10.6709 21C11.0109 20.69 11.3509 20.12 11.6709 20.1C13.6709 20.02 15.7809 20.02 17.8209 20.1C18.1809 20.1 18.5009 20.7 18.8209 21.02C18.4509 21.36 18.1109 21.92 17.7009 22.02C16.6754 22.0902 15.6464 22.0902 14.6209 22.02L14.6809 22.05Z" fill="#FFC700"/>
<path d="M14.7909 30.68C15.7663 30.6099 16.7455 30.6099 17.7209 30.68C18.1509 30.74 18.5009 31.28 18.8809 31.61C18.5109 31.95 18.1509 32.55 17.7609 32.61C15.8056 32.715 13.8462 32.715 11.8909 32.61C11.4609 32.61 11.0709 31.95 10.6709 31.61C11.0609 31.3 11.4309 30.78 11.8609 30.72C12.8351 30.6316 13.8147 30.6182 14.7909 30.68Z" fill="#FFC700"/>
<path d="M14.9409 9.51023C15.8707 9.4517 16.8038 9.46842 17.7309 9.56023C18.1509 9.62023 18.5009 10.1602 18.8809 10.4902C18.5009 10.8202 18.1409 11.4302 17.7509 11.4902C15.7956 11.5952 13.8362 11.5952 11.8809 11.4902C11.4609 11.4902 11.0709 10.8302 10.6709 10.4902C11.0709 10.1802 11.4409 9.66023 11.8709 9.60023C12.8913 9.50512 13.9167 9.47506 14.9409 9.51023Z" fill="#FFC700"/>
<path d="M14.6709 27.3498C13.7858 27.425 12.896 27.425 12.0109 27.3498C11.5209 27.2698 11.1109 26.7598 10.6709 26.4498C11.0909 26.0998 11.4909 25.4498 11.9209 25.4498C13.8395 25.3448 15.7623 25.3448 17.6809 25.4498C18.1009 25.4498 18.4809 26.0298 18.8809 26.3498C18.4609 26.6898 18.0809 27.2498 17.6209 27.3498C16.6392 27.4301 15.6526 27.4301 14.6709 27.3498Z" fill="#FFC700"/>
</svg>
