<svg width="68" height="68" viewBox="0 0 68 68" fill="none" xmlns="http://www.w3.org/2000/svg">
<path d="M8.59967 26.4717C9.27967 24.8817 9.95967 23.3917 10.5297 21.8617C10.5708 21.6573 10.5661 21.4464 10.516 21.2441C10.4659 21.0418 10.3715 20.8531 10.2397 20.6917C9.32967 19.6917 8.30967 18.7717 7.36967 17.7917C6.99528 17.465 6.69429 17.0627 6.48651 16.6114C6.27873 16.16 6.16887 15.6698 6.16414 15.1729C6.15942 14.676 6.25994 14.1838 6.45911 13.7286C6.65827 13.2733 6.95155 12.8654 7.31967 12.5317C9.00967 10.7717 10.7397 9.05167 12.4897 7.36167C12.8199 6.99043 13.225 6.69332 13.6783 6.48986C14.1316 6.28641 14.6228 6.18122 15.1197 6.18122C15.6165 6.18122 16.1078 6.28641 16.5611 6.48986C17.0143 6.69332 17.4194 6.99043 17.7497 7.36167C18.7497 8.30167 19.6297 9.36167 20.6497 10.2217C20.8583 10.3545 21.0918 10.4434 21.336 10.4829C21.5801 10.5225 21.8298 10.5118 22.0697 10.4517C22.6903 10.2421 23.2924 9.98118 23.8697 9.67167C26.4497 8.61167 26.5697 8.61167 26.4297 5.75167C26.2197 1.30167 27.4297 -0.248333 32.1297 0.0316674C33.8997 0.131667 35.6897 0.0316674 37.4697 0.0316674C37.9524 0.00942677 38.4346 0.0871186 38.8859 0.259876C39.3373 0.432633 39.7481 0.696734 40.0926 1.03563C40.4371 1.37453 40.708 1.78093 40.8881 2.22936C41.0683 2.67779 41.154 3.1586 41.1397 3.64167C41.1397 3.74167 41.1397 3.83167 41.1397 3.93167C41.1397 5.51167 40.6897 7.44167 41.4297 8.57167C42.1697 9.70167 44.1097 9.98167 45.5597 10.4417C45.8047 10.5106 46.0621 10.5239 46.3129 10.4806C46.5638 10.4373 46.8018 10.3386 47.0097 10.1917C48.0097 9.33167 48.8697 8.34167 49.8097 7.42167C50.1393 7.03493 50.5482 6.72347 51.0085 6.50834C51.4689 6.29322 51.9701 6.17944 52.4783 6.1747C52.9864 6.16996 53.4897 6.27437 53.954 6.48087C54.4183 6.68737 54.8329 6.99115 55.1697 7.37167C56.8897 9.03167 58.5797 10.7317 60.2497 12.4517C60.6348 12.784 60.9437 13.1954 61.1555 13.6579C61.3672 14.1203 61.4768 14.623 61.4768 15.1317C61.4768 15.6403 61.3672 16.143 61.1555 16.6055C60.9437 17.0679 60.6348 17.4793 60.2497 17.8117C59.3397 18.8117 58.3497 19.6217 57.4897 20.6117C57.3418 20.8116 57.2385 21.0409 57.1868 21.2841C57.135 21.5274 57.136 21.7789 57.1897 22.0217C57.592 23.2683 58.0901 24.4819 58.6797 25.6517C58.8104 25.8616 58.9857 26.0402 59.193 26.175C59.4004 26.3097 59.6348 26.3974 59.8797 26.4317C61.2397 26.5317 62.5997 26.4317 63.9597 26.4817C64.4432 26.4561 64.9267 26.5319 65.3791 26.7044C65.8315 26.8769 66.2429 27.1421 66.5866 27.483C66.9304 27.824 67.1991 28.2331 67.3752 28.6841C67.5514 29.1351 67.6313 29.618 67.6097 30.1017C67.6097 32.5917 67.6097 35.1017 67.6097 37.5617C67.625 38.0381 67.5423 38.5126 67.3667 38.9558C67.1911 39.399 66.9263 39.8013 66.5888 40.138C66.2512 40.4746 65.8481 40.7382 65.4045 40.9126C64.9608 41.087 64.4861 41.1684 64.0097 41.1517C63.1597 41.1517 62.3197 41.1517 61.4697 41.1517H59.0097C58.3297 42.7417 57.6497 44.2317 57.0797 45.7617C57.0377 45.9667 57.0429 46.1785 57.0949 46.3812C57.1468 46.5839 57.2442 46.7722 57.3797 46.9317C58.2897 47.9317 59.3097 48.8517 60.2497 49.8317C60.6195 50.1628 60.9153 50.5681 61.1179 51.0213C61.3204 51.4745 61.4251 51.9653 61.4251 52.4617C61.4251 52.958 61.3204 53.4488 61.1179 53.902C60.9153 54.3552 60.6195 54.7606 60.2497 55.0917C58.5897 56.8217 56.9097 58.5317 55.1597 60.1517C54.9268 60.3302 54.6543 60.4499 54.3653 60.5004C54.0762 60.5509 53.7793 60.5307 53.4997 60.4417C52.7397 59.9417 53.1097 59.2317 53.6697 58.6817C55.2597 57.0817 56.8597 55.5017 58.4397 53.9017C59.5597 52.7617 59.5497 52.2117 58.4397 51.0717C57.3297 49.9317 56.1397 48.7217 54.9597 47.5917C54.6673 47.3572 54.474 47.021 54.4184 46.6504C54.3628 46.2797 54.4489 45.9017 54.6597 45.5917C55.4691 43.9057 56.1933 42.1802 56.8297 40.4217C57.1597 39.4817 57.5997 39.0317 58.6297 39.0617C60.2697 39.1217 61.9097 39.0617 63.5497 39.0617C63.8071 39.1071 64.0716 39.09 64.321 39.0117C64.5703 38.9335 64.7972 38.7964 64.9825 38.6121C65.1678 38.4278 65.3061 38.2016 65.3857 37.9527C65.4652 37.7037 65.4837 37.4393 65.4397 37.1817C65.4397 34.9217 65.4397 32.6717 65.4397 30.4217C65.4397 28.9617 64.9597 28.5417 63.4397 28.5217C61.9197 28.5017 60.1597 28.5217 58.5197 28.5217C58.1478 28.5597 57.775 28.4593 57.4725 28.2398C57.1699 28.0203 56.9589 27.697 56.8797 27.3317C56.2197 25.5317 55.4997 23.7517 54.6697 22.0217C54.4675 21.6988 54.3904 21.313 54.453 20.9372C54.5157 20.5614 54.7137 20.2215 55.0097 19.9817C56.1397 18.9217 57.2097 17.8117 58.2997 16.7017C59.5897 15.4017 59.5797 14.9117 58.2997 13.5717C57.0197 12.2317 55.4497 10.6817 54.0097 9.26167C52.7397 7.98167 52.2297 7.98167 51.0097 9.22167C49.7897 10.4617 48.7897 11.3817 47.7297 12.5117C47.4814 12.8478 47.1129 13.075 46.701 13.1458C46.2892 13.2167 45.8659 13.1256 45.5197 12.8917C43.8359 12.0729 42.1064 11.3517 40.3397 10.7317C39.9445 10.6561 39.5927 10.4334 39.3551 10.1087C39.1176 9.78392 39.012 9.38119 39.0597 8.98167C39.1097 7.38167 39.0597 5.79167 39.0597 4.19167C39.0597 2.59167 38.6297 2.19167 37.0597 2.14167C34.8597 2.14167 32.6497 2.14167 30.4497 2.14167C28.9597 2.14167 28.5297 2.60167 28.4997 4.08167C28.4997 5.73167 28.4997 7.37167 28.4997 9.01167C28.5422 9.38344 28.4479 9.75799 28.2345 10.0653C28.021 10.3727 27.7029 10.5918 27.3397 10.6817C25.5097 11.3617 23.6897 12.1217 21.9097 12.9417C21.6164 13.1334 21.263 13.2108 20.9164 13.1592C20.5699 13.1076 20.2543 12.9306 20.0297 12.6617C18.8597 11.4317 17.6097 10.2317 16.3997 8.98167C16.2568 8.77743 16.0667 8.61066 15.8456 8.49552C15.6245 8.38038 15.3789 8.32026 15.1297 8.32026C14.8804 8.32026 14.6348 8.38038 14.4137 8.49552C14.1926 8.61066 14.0026 8.77743 13.8597 8.98167C12.253 10.6283 10.6363 12.255 9.00967 13.8617C8.80543 14.0046 8.63867 14.1946 8.52353 14.4157C8.40839 14.6368 8.34827 14.8824 8.34827 15.1317C8.34827 15.3809 8.40839 15.6265 8.52353 15.8476C8.63867 16.0687 8.80543 16.2588 9.00967 16.4017C10.2197 17.5817 11.3797 18.8117 12.5997 19.9717C12.9127 20.2155 13.121 20.5694 13.1823 20.9613C13.2436 21.3533 13.1533 21.7539 12.9297 22.0817C12.1049 23.7628 11.3836 25.4926 10.7697 27.2617C10.6826 27.6713 10.443 28.0325 10.0995 28.2721C9.75594 28.5116 9.33417 28.6116 8.91967 28.5517C7.27967 28.5017 5.63967 28.5517 3.98967 28.5517C3.74361 28.513 3.49192 28.5327 3.25488 28.6092C3.01784 28.6857 2.80208 28.8168 2.62499 28.9919C2.4479 29.1671 2.31443 29.3814 2.23534 29.6176C2.15626 29.8537 2.13376 30.1052 2.16967 30.3517C2.16967 32.6517 2.16967 34.9517 2.16967 37.2517C2.16967 38.5617 2.81967 39.1217 4.08967 39.1017C5.72967 39.1017 7.36967 39.1017 9.00967 39.1017C9.4037 39.0533 9.80148 39.1551 10.1239 39.3867C10.4463 39.6183 10.6697 39.9628 10.7497 40.3517C11.3997 42.1517 12.1497 43.9217 12.9697 45.6517C13.1737 45.9671 13.252 46.3475 13.1891 46.7179C13.1261 47.0882 12.9265 47.4214 12.6297 47.6517C11.4497 48.7917 10.2997 49.9617 9.14967 51.1317C7.99967 52.3017 8.00967 52.7717 9.15967 53.9817C10.6997 55.5517 12.2697 57.1017 13.8297 58.6617C14.3697 59.1917 14.8297 59.7917 14.1697 60.4817C13.5097 61.1717 12.8997 60.7617 12.3597 60.2117C10.6697 58.5217 8.94967 56.8517 7.29967 55.1317C6.93401 54.7951 6.64376 54.385 6.44802 53.9282C6.25227 53.4714 6.15546 52.9783 6.16396 52.4815C6.17246 51.9846 6.28608 51.4951 6.49734 51.0453C6.7086 50.5955 7.01272 50.1955 7.38967 49.8717C8.29967 48.8717 9.21967 47.9917 10.1897 47.1017C10.3107 47.0152 10.4135 46.9057 10.4921 46.7794C10.5708 46.653 10.6237 46.5125 10.6478 46.3657C10.672 46.2189 10.6669 46.0687 10.6329 45.9239C10.5989 45.7791 10.5366 45.6424 10.4497 45.5217C9.89322 44.412 9.41213 43.266 9.00967 42.0917C8.98778 41.9447 8.93688 41.8036 8.85993 41.6766C8.78299 41.5495 8.68154 41.439 8.56149 41.3516C8.44144 41.2641 8.30519 41.2014 8.16066 41.167C8.01614 41.1327 7.86623 41.1275 7.71967 41.1517C6.40967 41.1517 5.09967 41.1517 3.77967 41.1517C3.27554 41.1905 2.76897 41.12 2.29462 40.9449C1.82028 40.7698 1.38936 40.4943 1.03135 40.1373C0.673349 39.7802 0.396712 39.35 0.220375 38.8762C0.0440377 38.4023 -0.0278365 37.8959 0.0096711 37.3917C0.0096711 34.9817 0.0096711 32.6017 0.0096711 30.2117C-0.0255228 29.7154 0.0458106 29.2173 0.218887 28.7508C0.391964 28.2843 0.662783 27.8602 1.01318 27.507C1.36358 27.1537 1.78546 26.8795 2.25053 26.7027C2.71559 26.5258 3.2131 26.4505 3.70967 26.4817C5.34967 26.4417 7.00967 26.4717 8.59967 26.4717Z" fill="#C33DAB"/>
<path d="M30.4098 53.8217C30.9422 52.8417 31.1749 51.7268 31.0789 50.6156C30.9829 49.5044 30.5624 48.4459 29.8698 47.5717C29.5633 47.1572 29.3144 46.7031 29.1298 46.2217C28.7498 45.2217 29.1298 44.6017 30.1298 44.5717C32.5698 44.5184 35.0064 44.5184 37.4398 44.5717C38.4998 44.5717 38.8298 45.2617 38.4398 46.2217C38.2552 46.7031 38.0062 47.1572 37.6998 47.5717C37.0136 48.41 36.5898 49.432 36.4813 50.5098C36.3729 51.5876 36.5845 52.6735 37.0898 53.6317C37.271 53.3366 37.4314 53.0292 37.5698 52.7117C38.4098 50.5217 39.2998 48.3517 40.0398 46.1217C40.4898 44.7517 41.2398 44.4617 42.5798 44.7317C45.0859 45.2342 47.3505 46.5642 49.0099 48.5083C50.6693 50.4524 51.6272 52.8978 51.7298 55.4517C51.8098 58.9617 51.7298 62.4517 51.7298 66.0017C51.7298 67.1317 51.2698 67.6017 50.1298 67.6017C39.1964 67.6017 28.2664 67.6017 17.3398 67.6017C16.1998 67.6017 15.7398 67.1117 15.7498 65.9917C15.7498 62.4717 15.6998 58.9917 15.7498 55.4317C15.8645 52.8676 16.8411 50.4172 18.5217 48.4772C20.2022 46.5371 22.4882 45.221 25.0098 44.7417C26.3598 44.4717 27.0898 44.7417 27.5498 46.1417C28.3898 48.6517 29.3898 51.1117 30.4098 53.8217ZM32.5398 65.4117C30.1398 59.0917 27.8298 52.9917 25.5398 46.9217C23.482 47.2475 21.603 48.2825 20.2279 49.8476C18.8528 51.4126 18.0681 53.4092 18.0098 55.4917C17.9498 58.4917 18.0098 61.5817 18.0098 64.6217C18.0331 64.8903 18.0868 65.1553 18.1698 65.4117H32.5398ZM35.0798 65.4117H49.5198C49.5198 61.7117 49.7598 58.0917 49.4598 54.5217C49.1298 50.5217 45.5298 47.1517 42.0298 47.0617L35.0798 65.4117ZM31.6398 46.7917C34.1198 49.2317 33.1398 51.7917 32.6398 54.3517C32.5666 54.9004 32.4631 55.4445 32.3298 55.9817C31.5098 58.3917 33.0098 60.2217 33.7298 62.5617C35.0798 59.8817 35.9098 57.5617 35.0998 54.7717C34.3498 52.2217 33.5298 49.5117 35.5598 47.0417C35.5598 47.0417 35.5598 46.8817 35.4898 46.7717L31.6398 46.7917Z" fill="#C33DAB"/>
<path d="M32.6793 17.9818C30.0106 18.0861 27.4193 18.9073 25.1775 20.359C22.9357 21.8107 21.1263 23.8393 19.9393 26.2318C16.9393 31.7118 17.3193 37.2318 20.6093 42.5418C20.7993 42.8618 21.1493 43.1518 21.1893 43.4918C21.2311 43.6996 21.2286 43.9138 21.1821 44.1206C21.1355 44.3273 21.046 44.522 20.9193 44.6918C20.5159 44.8585 20.0628 44.8585 19.6593 44.6918C19.3993 44.6018 19.2193 44.2318 19.0293 43.9618C17.0149 40.9727 15.9443 37.4476 15.9562 33.843C15.968 30.2384 17.0619 26.7204 19.096 23.7446C21.1302 20.7688 24.0109 18.4723 27.3652 17.1524C30.7195 15.8325 34.3928 15.5502 37.9093 16.3418C41.3977 17.1801 44.558 19.0367 46.9886 21.6756C49.4191 24.3145 51.0101 27.6165 51.5593 31.1618C52.2678 35.7133 51.1501 40.3604 48.4493 44.0918C48.2518 44.3352 47.9963 44.5251 47.7062 44.6439C47.4161 44.7627 47.1009 44.8067 46.7893 44.7718C45.7893 44.3418 46.2993 43.5818 46.7893 42.9218C47.9976 41.2063 48.8471 39.2646 49.287 37.2129C49.7269 35.1613 49.7481 33.0419 49.3493 30.9818C48.0093 23.4818 41.5293 18.0318 32.6793 17.9818Z" fill="#C33DAB"/>
<path d="M33.7798 24.2217C35.7012 24.2296 37.5772 24.8062 39.1714 25.8788C40.7656 26.9514 42.0065 28.472 42.7377 30.2489C43.4688 32.0258 43.6576 33.9793 43.2801 35.8633C42.9026 37.7473 41.9757 39.4773 40.6163 40.8353C39.257 42.1932 37.526 43.1183 35.6417 43.4939C33.7573 43.8695 31.8039 43.6787 30.0278 42.9457C28.2517 42.2127 26.7324 40.9703 25.6614 39.375C24.5904 37.7797 24.0157 35.9031 24.0098 33.9817C24.0229 31.3955 25.0568 28.9191 26.8865 27.0913C28.7161 25.2635 31.1936 24.2322 33.7798 24.2217ZM33.7798 26.3817C32.2832 26.3896 30.8224 26.8403 29.5816 27.6772C28.3408 28.514 27.3754 29.6994 26.8073 31.0839C26.2391 32.4685 26.0935 33.9903 26.3889 35.4575C26.6842 36.9247 27.4073 38.2716 28.467 39.3285C29.5266 40.3854 30.8754 41.1049 32.3434 41.3964C33.8114 41.6879 35.3328 41.5383 36.7158 40.9665C38.0989 40.3947 39.2818 39.4263 40.1153 38.1833C40.9489 36.9402 41.3958 35.4783 41.3998 33.9817C41.4104 32.9815 41.2215 31.9893 40.844 31.063C40.4664 30.1368 39.9079 29.2951 39.2011 28.5874C38.4943 27.8797 37.6534 27.3201 36.7277 26.9413C35.802 26.5626 34.8099 26.3723 33.8098 26.3817H33.7798Z" fill="#C33DAB"/>
</svg>
