<svg width="56" height="68" viewBox="0 0 56 68" fill="none" xmlns="http://www.w3.org/2000/svg">
<path d="M27.7697 4.49C28.1837 4.47902 28.5918 4.59011 28.9431 4.80942C29.2943 5.02873 29.5733 5.34657 29.7453 5.72333C29.9172 6.10009 29.9744 6.51911 29.9099 6.92818C29.8453 7.33725 29.6618 7.71827 29.3822 8.02378C29.1026 8.32928 28.7393 8.54576 28.3375 8.64622C27.9358 8.74669 27.5133 8.72671 27.1229 8.58877C26.7324 8.45084 26.3911 8.20104 26.1416 7.87051C25.8921 7.53998 25.7454 7.14333 25.7197 6.73C25.7049 6.44778 25.7465 6.16544 25.8419 5.89943C25.9373 5.63342 26.0847 5.38906 26.2755 5.18058C26.4663 4.9721 26.6967 4.80368 26.9532 4.68512C27.2097 4.56655 27.4873 4.50023 27.7697 4.49Z" fill="#6AD7C3"/>
<path d="M0 37.23V12.75C0 8.65998 1.83 6.83998 5.93 6.83998C8.98 6.83998 12.03 6.83998 15.08 6.83998C15.51 6.83998 16.08 6.76998 16.34 6.48998C16.7649 5.91815 17.3412 5.47653 18.0039 5.215C18.6665 4.95348 19.3891 4.88246 20.09 5.00998C20.98 5.09998 21.36 4.75998 21.71 3.91998C22.1876 2.70833 23.0352 1.67819 24.1322 0.976188C25.2292 0.274182 26.5197 -0.0639281 27.82 0.0099777C29.1241 -0.0632513 30.4179 0.278606 31.5157 0.986475C32.6134 1.69434 33.4586 2.73182 33.93 3.94998C34.28 4.78998 34.68 5.11998 35.56 5.02998C36.2566 4.89997 36.9756 4.9668 37.6363 5.22294C38.2969 5.47909 38.8731 5.91441 39.3 6.47998C39.51 6.75998 40.13 6.81998 40.57 6.81998C43.71 6.81998 46.85 6.81998 49.99 6.81998C53.72 6.81998 55.63 8.72998 55.63 12.46C55.63 28.92 55.63 45.38 55.63 61.84C55.63 65.65 53.73 67.51 49.89 67.52H5.73C1.9 67.53 0 65.67 0 61.85C0 53.65 0 45.4433 0 37.23ZM8.1 14.89V58.73H47.53V14.89H8.1ZM15.87 9.52998H6C3.25 9.52998 2.66 10.1 2.66 12.79V61.61C2.66 64.3 3.27 64.9 5.99 64.9H49.59C52.35 64.9 52.93 64.31 52.93 61.49V28.85C52.93 23.36 52.93 17.85 52.93 12.39C52.93 10.24 52.2 9.54998 50.04 9.52998H39.81V12.13H47.81C50.12 12.13 50.37 12.38 50.37 14.72V58.9C50.37 61.3 50.18 61.49 47.83 61.49H7.85C5.48 61.49 5.3 61.3 5.3 58.91C5.3 46.25 5.3 33.59 5.3 20.91C5.3 18.13 5.55 15.35 5.69 12.57L14 12.13C14.59 12.13 15.18 12.13 15.84 12.13L15.87 9.52998ZM31.87 7.62998C31.55 4.10998 30.38 2.67998 27.87 2.62998C25.36 2.57998 24.25 3.89998 23.66 7.62998C22.33 7.62998 20.98 7.56998 19.66 7.62998C19.26 7.62998 18.66 8.12998 18.58 8.44998C18.498 9.63495 18.488 10.8238 18.55 12.01H37.09C37.09 10.87 37.09 9.83998 37.09 8.81998C37.09 7.79998 36.73 7.57998 35.84 7.61998C34.56 7.65998 33.25 7.62998 31.87 7.62998Z" fill="#6AD7C3"/>
<path d="M38.9099 30.1501C38.9159 32.3467 38.2699 34.4957 37.0538 36.3251C35.8378 38.1544 34.1063 39.5818 32.0785 40.4265C30.0508 41.2712 27.818 41.4953 25.6629 41.0704C23.5077 40.6455 21.5271 39.5907 19.9717 38.0396C18.4163 36.4884 17.3562 34.5106 16.9255 32.3566C16.4947 30.2026 16.7128 27.9693 17.552 25.9393C18.3913 23.9092 19.814 22.1739 21.64 20.9529C23.466 19.7319 25.6133 19.0801 27.8099 19.0801C30.7494 19.0774 33.5698 20.2419 35.6511 22.3177C37.7325 24.3934 38.9046 27.2106 38.9099 30.1501ZM36.2699 30.3201C36.2877 28.6472 35.8085 27.0068 34.8931 25.6065C33.9777 24.2063 32.6673 23.1092 31.1278 22.4544C29.5884 21.7996 27.8892 21.6165 26.2456 21.9283C24.602 22.2401 23.0879 23.0327 21.8952 24.2058C20.7024 25.3789 19.8848 26.8796 19.5457 28.5178C19.2067 30.156 19.3616 31.858 19.9907 33.4081C20.6199 34.9582 21.695 36.2867 23.0799 37.2252C24.4647 38.1638 26.097 38.6701 27.7699 38.6801C30.0018 38.6856 32.1458 37.811 33.737 36.246C35.3283 34.6809 36.2383 32.5517 36.2699 30.3201Z" fill="#6AD7C3"/>
<path d="M31.3405 55.1099H23.3405C22.3405 55.1099 21.4305 54.9699 21.4105 53.7799C21.3905 52.5899 22.3505 52.4399 23.3005 52.4399H39.4705C40.4105 52.4399 41.3805 52.5299 41.3905 53.7499C41.4005 54.9699 40.4705 55.1099 39.5005 55.1099H31.3405Z" fill="#6AD7C3"/>
<path d="M31.3296 46.0898H39.6297C40.5697 46.0898 41.3997 46.3098 41.3997 47.4098C41.3997 48.5098 40.5496 48.7298 39.6196 48.7298H23.1596C22.2296 48.7298 21.3896 48.4998 21.3896 47.3998C21.3896 46.2998 22.2396 46.0898 23.1796 46.0898H31.3296Z" fill="#6AD7C3"/>
<path d="M17.0003 55.0798C16.4803 55.0798 15.8803 55.2498 15.4703 55.0798C15.0603 54.9098 14.3303 54.2398 14.3203 53.7998C14.3949 53.5139 14.5402 53.2514 14.7429 53.0364C14.9457 52.8214 15.1993 52.661 15.4803 52.5698C16.3962 52.37 17.3444 52.37 18.2603 52.5698C18.5671 52.6542 18.8502 52.8082 19.0878 53.0198C19.3254 53.2313 19.5111 53.4948 19.6303 53.7898C19.8503 54.6798 19.0903 55.0798 18.2603 55.1698C17.8403 55.1698 17.4203 55.1698 17.0003 55.1698V55.0798Z" fill="#6AD7C3"/>
<path d="M16.9998 46.1102C17.4576 46.009 17.932 46.009 18.3898 46.1102C18.8898 46.3702 19.6598 46.9702 19.5998 47.2902C19.5136 47.5901 19.3583 47.8657 19.1464 48.095C18.9346 48.3242 18.6721 48.5006 18.3798 48.6102C17.4144 48.8202 16.4152 48.8202 15.4498 48.6102C15.1703 48.5151 14.9189 48.3519 14.7181 48.1355C14.5174 47.919 14.3736 47.656 14.2998 47.3702C14.2998 46.9402 14.9698 46.3702 15.4798 46.1302C15.9898 45.8902 16.4798 46.1102 16.9998 46.1102Z" fill="#6AD7C3"/>
<path d="M26.5596 31.88C28.0696 30.31 29.5596 28.8 30.9796 27.3C31.2696 27 31.5496 26.55 31.8996 26.48C32.471 26.303 33.088 26.3458 33.6296 26.6C33.7782 26.8317 33.8654 27.0974 33.8829 27.3721C33.9004 27.6468 33.8477 27.9214 33.7296 28.17C31.6229 30.4234 29.4529 32.61 27.2196 34.73C26.4896 35.44 25.6596 35 25.2196 34.31C24.4496 33.2 22.4896 32.75 23.1096 30.89C23.3896 30.06 24.2396 29.94 24.9796 30.44C25.532 30.891 26.0595 31.3717 26.5596 31.88Z" fill="#6AD7C3"/>
</svg>
