<svg width="60" height="59" viewBox="0 0 60 59" fill="none" xmlns="http://www.w3.org/2000/svg">
<path d="M25.7771 22.2501C24.8299 21.4824 24.1437 20.4399 23.8131 19.2662C23.4825 18.0925 23.5237 16.8453 23.931 15.6959C24.3383 14.5466 25.0917 13.5517 26.0875 12.848C27.0834 12.1444 28.2728 11.7666 29.4921 11.7666C30.7115 11.7666 31.9009 12.1444 32.8968 12.848C33.8926 13.5517 34.646 14.5466 35.0533 15.6959C35.4606 16.8453 35.5018 18.0925 35.1712 19.2662C34.8406 20.4399 34.1544 21.4824 33.2071 22.2501C38.3671 24.6401 39.7872 28.9401 39.2071 34.2501H40.1271C40.2682 34.2331 40.4112 34.2463 40.5468 34.2888C40.6823 34.3314 40.8072 34.4024 40.9132 34.497C41.0192 34.5916 41.1038 34.7077 41.1613 34.8376C41.2189 34.9674 41.2482 35.1081 41.2472 35.2501C41.4171 36.7901 41.5772 38.3401 41.7472 39.8801C41.7472 40.0001 41.7472 40.1101 41.7472 40.1901L45.2871 37.7701C44.5315 37.1421 43.9466 36.3335 43.5865 35.4193C43.2264 34.5051 43.1028 33.5148 43.2271 32.5401C43.3072 31.7759 43.5406 31.0357 43.9135 30.3639C44.2863 29.692 44.791 29.1023 45.3971 28.6301C46.6198 27.6528 48.1806 27.2012 49.7362 27.3747C51.2918 27.5482 52.7148 28.3325 53.6922 29.5551C54.6695 30.7778 55.1211 32.3386 54.9476 33.8942C54.7741 35.4498 53.9898 36.8728 52.7671 37.8501L53.1671 38.0701C54.914 38.815 56.401 40.0608 57.4404 41.6502C58.4798 43.2395 59.025 45.1012 59.0071 47.0001C59.0872 50.4901 59.0071 54.0001 59.0071 57.4701C59.0071 58.4701 58.6871 58.7901 57.6871 58.7901H1.46715C0.287149 58.8301 0.00714886 58.5601 0.00714886 57.4001C0.00714886 54.0701 0.00714886 50.7401 0.00714886 47.4001C-0.0683426 45.4346 0.455518 43.4925 1.50924 41.8316C2.56296 40.1706 4.09675 38.8693 5.90715 38.1001L6.14715 38.0001C5.39424 37.3863 4.80485 36.5958 4.43147 35.699C4.05809 34.8022 3.91232 33.8269 4.00715 32.8601C4.09686 31.3814 4.76071 29.9963 5.85715 29.0001C7.03471 27.9684 8.57388 27.4468 10.1361 27.5499C11.6982 27.6531 13.1555 28.3726 14.1871 29.5501C15.2188 30.7277 15.7405 32.2669 15.6373 33.829C15.5342 35.3912 14.8147 36.8484 13.6371 37.8801L17.1871 40.3201C17.3071 39.1001 17.4371 37.8101 17.5771 36.5201V36.4001C17.8071 34.8401 17.3771 34.3201 19.6671 34.2901C19.6671 33.5601 19.6671 32.8301 19.6671 32.1101C19.5198 30.0626 20.0198 28.0205 21.0965 26.2726C22.1732 24.5247 23.7721 23.1596 25.6671 22.3701C25.7094 22.3356 25.7464 22.2952 25.7771 22.2501ZM35.3971 36.3101C35.3171 36.6601 35.2571 36.9801 35.1771 37.3101C35.0071 38.0101 34.7271 38.3101 34.0371 38.3101H24.8871C24.7431 38.3335 24.5956 38.325 24.4552 38.2854C24.3147 38.2457 24.1847 38.1757 24.0741 38.0804C23.9636 37.9851 23.8752 37.8668 23.8153 37.7337C23.7554 37.6007 23.7253 37.4561 23.7271 37.3101C23.7271 37.0001 23.6271 36.6801 23.5771 36.4001H19.5771C19.2271 39.9801 18.8671 43.5301 18.5771 47.0801C18.5771 47.2301 18.8171 47.4701 18.9971 47.5501C20.2771 48.0901 21.5672 48.6001 22.8571 49.1001C23.1052 49.1715 23.3202 49.3278 23.4646 49.5417C23.609 49.7556 23.6736 50.0134 23.6471 50.2701C23.6471 51.0901 23.6471 51.9001 23.6471 52.7201C23.6471 53.7201 23.1771 54.1101 22.1671 53.9501L17.9971 53.3101L17.6971 56.9201H41.3971L41.0071 53.2601H40.6572L36.7771 53.8501C35.8372 54.0001 35.3671 53.6101 35.3571 52.6701C35.3471 51.7301 35.3571 51.0801 35.3571 50.2801C35.3204 49.9858 35.3912 49.6881 35.5566 49.4418C35.722 49.1956 35.9708 49.0174 36.2571 48.9401C37.5171 48.4701 38.7571 47.9401 40.0171 47.4501C40.3871 47.3101 40.5071 47.1601 40.4571 46.7501C40.2872 45.2001 40.1772 43.6601 40.0271 42.1101C39.8271 40.1701 39.6071 38.2301 39.3971 36.2701L35.3971 36.3101ZM21.5671 51.7801C21.7171 50.7001 21.7171 50.7101 20.8271 50.3501C18.0971 49.2601 15.3671 48.1601 12.6271 47.0801C12.1971 46.9101 11.8371 46.6701 11.8171 46.1801C11.8171 45.1801 11.8171 44.1801 11.8171 43.1801H13.8171C13.8171 43.8301 13.8171 44.4401 13.8171 45.0501C13.8202 45.1325 13.8404 45.2133 13.8766 45.2874C13.9128 45.3614 13.9641 45.4271 14.0271 45.4801C14.8671 45.8301 15.7171 46.1501 16.6071 46.4801C16.6971 45.6601 16.8271 44.9101 16.8471 44.1601C16.8632 43.741 16.7628 43.3257 16.5571 42.9601C15.6721 41.4956 14.3323 40.3608 12.742 39.729C11.1517 39.0971 9.39842 39.0029 7.74961 39.4607C6.1008 39.9185 4.64705 40.9032 3.61021 42.2645C2.57337 43.6258 2.01038 45.2889 2.00715 47.0001C2.00715 50.1001 2.00715 53.2101 2.00715 56.3101C2.00715 56.4901 2.00715 56.6601 2.00715 56.8101H15.6571L16.0071 52.9401C13.9171 52.6101 11.8971 52.3101 9.88715 51.9401C9.71282 51.914 9.54535 51.8538 9.39434 51.7628C9.24334 51.6719 9.11176 51.552 9.00715 51.4101C8.30715 50.1501 7.67715 48.8401 7.00715 47.5101L8.75715 46.6301C9.28715 47.6901 9.75715 48.7001 10.3071 49.6301C10.3758 49.7422 10.466 49.8396 10.5723 49.9169C10.6787 49.9941 10.7993 50.0496 10.9271 50.0801C12.9271 50.4201 14.9271 50.7301 16.9871 51.0801L21.5671 51.7801ZM57.0071 56.8401C57.0071 53.3501 57.1071 49.9101 57.0071 46.4901C56.9025 44.8013 56.2459 43.1937 55.1383 41.9145C54.0307 40.6353 52.5336 39.7554 50.8771 39.4101C49.258 39.0529 47.5673 39.2176 46.0476 39.8804C44.5278 40.5433 43.2569 41.6704 42.4171 43.1001C42.3071 43.2683 42.2386 43.4603 42.2171 43.6601C42.2771 44.5901 42.3772 45.5201 42.4771 46.5201C43.3172 46.1901 44.0872 45.8701 44.8671 45.5801C44.9938 45.5513 45.1047 45.4752 45.1771 45.3674C45.2496 45.2597 45.2782 45.1283 45.2571 45.0001C45.2571 44.4001 45.2571 43.7901 45.2571 43.1901H47.2571V45.6801C47.2571 46.6101 47.1271 46.8101 46.2571 47.1501L38.1771 50.3701C37.3071 50.7201 37.2671 50.8101 37.5171 51.7801L47.9371 50.2001C48.1258 50.1834 48.3059 50.1135 48.4564 49.9984C48.6069 49.8833 48.7216 49.7279 48.7871 49.5501C49.2371 48.5501 49.7371 47.6301 50.2371 46.6301L51.9771 47.5201C51.5372 48.4101 51.1371 49.2401 50.7171 50.0501C49.5971 52.1901 50.1971 51.8101 47.7171 52.2201L43.0071 53.0001L43.3471 56.8901L57.0071 56.8401ZM23.3371 34.2901C23.1071 32.8301 22.9071 31.4001 22.6771 29.9701C22.4971 28.8601 22.8271 28.4401 23.9471 28.4401H35.0071C36.1771 28.4401 36.4972 28.8501 36.3172 30.0001C36.0872 31.4201 35.8771 32.8501 35.6671 34.2801H37.3571C37.3571 33.2801 37.3571 32.2801 37.3571 31.2801C37.3352 29.9256 36.9639 28.5997 36.2793 27.4307C35.5947 26.2617 34.6199 25.2892 33.4493 24.6073C32.2787 23.9255 30.9519 23.5574 29.5973 23.5386C28.2427 23.5198 26.9062 23.851 25.7171 24.5001C24.0818 25.4804 22.8082 26.9642 22.0871 28.7291C21.366 30.4941 21.2362 32.4452 21.7171 34.2901H23.3371ZM25.6171 36.2901H33.3671L34.2371 30.4801H24.7471L25.6171 36.2901ZM25.5671 17.6601C25.5574 18.4365 25.7778 19.1983 26.2006 19.8495C26.6233 20.5007 27.2295 21.0121 27.9426 21.3191C28.6557 21.6262 29.4437 21.7151 30.2073 21.5747C30.9709 21.4344 31.6758 21.071 32.2331 20.5304C32.7904 19.9899 33.1751 19.2963 33.3387 18.5374C33.5022 17.7784 33.4373 16.988 33.1521 16.2659C32.8669 15.5438 32.3742 14.9223 31.7362 14.4799C31.0982 14.0375 30.3434 13.794 29.5671 13.7801C28.5299 13.7613 27.5273 14.1534 26.7779 14.8709C26.0286 15.5884 25.5934 16.573 25.5671 17.6101V17.6601ZM13.7671 33.3501C13.771 32.575 13.5455 31.8161 13.1191 31.1688C12.6927 30.5215 12.0844 30.0148 11.3707 29.7123C10.657 29.4098 9.86984 29.3252 9.10817 29.469C8.3465 29.6128 7.64436 29.9786 7.09006 30.5204C6.53577 31.0622 6.15408 31.7559 5.99299 32.5141C5.83191 33.2723 5.89864 34.0612 6.18478 34.7815C6.47092 35.5019 6.96369 36.1216 7.60112 36.5626C8.23854 37.0036 8.99215 37.2463 9.76715 37.2601C10.2878 37.2708 10.8053 37.1776 11.2895 36.9859C11.7737 36.7943 12.2149 36.5082 12.5873 36.1442C12.9597 35.7802 13.2558 35.3456 13.4584 34.8659C13.661 34.3862 13.7659 33.8709 13.7671 33.3501ZM45.2171 33.3001C45.2074 34.0765 45.4278 34.8383 45.8506 35.4895C46.2733 36.1407 46.8795 36.6521 47.5926 36.9591C48.3057 37.2662 49.0937 37.3551 49.8573 37.2147C50.6209 37.0744 51.3258 36.711 51.8831 36.1704C52.4404 35.6299 52.8251 34.9363 52.9887 34.1774C53.1522 33.4184 53.0873 32.628 52.8021 31.9059C52.5169 31.1838 52.0242 30.5623 51.3862 30.1199C50.7482 29.6775 49.9934 29.434 49.2171 29.4201C48.6994 29.4109 48.1849 29.504 47.7032 29.6943C47.2216 29.8845 46.7823 30.168 46.4105 30.5286C46.0388 30.8891 45.742 31.3196 45.5372 31.7953C45.3324 32.2709 45.2237 32.7823 45.2171 33.3001Z" fill="#0085FF"/>
<path d="M0.00683594 10.79V1.36C0.00683594 0.31 0.316836 0 1.35684 0H18.3568C19.3568 0 19.6668 0.32 19.6668 1.27V20.33C19.6668 21.24 19.3168 21.57 18.3968 21.57C16.8568 21.57 15.3268 21.57 13.7868 21.57C13.4813 21.608 13.202 21.7619 13.0068 22C12.2368 22.95 11.5168 23.95 10.7768 24.93C10.1768 25.71 9.52684 25.72 8.93684 24.93C8.20684 24 7.48684 23 6.79684 22.08C6.69419 21.9097 6.5465 21.771 6.37005 21.6792C6.1936 21.5874 5.99524 21.5462 5.79684 21.56C4.28684 21.56 2.79684 21.56 1.25684 21.56C0.356836 21.57 0.00683594 21.23 0.00683594 20.35C0.00683594 17.16 0.00683594 14 0.00683594 10.79ZM17.6468 19.61V2H2.00684V19.6C3.46684 19.6 4.89684 19.6 6.31684 19.6C6.66177 19.565 7.00947 19.6304 7.31815 19.7883C7.62682 19.9462 7.88333 20.1898 8.05684 20.49C8.59684 21.29 9.21684 22.05 9.83684 22.88C10.5368 21.95 11.2068 21.1 11.8368 20.23C11.9689 20.025 12.1537 19.8592 12.3719 19.7501C12.5901 19.6411 12.8335 19.5927 13.0768 19.61C14.5968 19.62 16.1068 19.61 17.6568 19.61H17.6468Z" fill="#0085FF"/>
<path d="M39.3174 10.79V1.35C39.3174 0.35 39.6274 0 40.6674 0H57.6074C58.6074 0 58.9674 0.3 58.9674 1.34V20.21C58.9674 21.26 58.6674 21.57 57.6274 21.57C56.0974 21.57 54.5574 21.57 53.0274 21.57C52.8939 21.577 52.7632 21.6107 52.643 21.6691C52.5227 21.7275 52.4154 21.8094 52.3274 21.91C51.5574 22.91 50.8274 23.91 50.0674 24.91C49.4774 25.69 48.8174 25.7 48.2274 24.91C47.4874 23.91 46.7674 22.91 46.0074 21.98C45.8028 21.7532 45.5212 21.6106 45.2174 21.58C43.6574 21.58 42.0974 21.58 40.5474 21.58C39.6674 21.58 39.3174 21.23 39.3174 20.35V10.79ZM49.1474 22.87C49.7474 22.08 50.3474 21.38 50.8274 20.61C51.0232 20.2631 51.3182 19.9826 51.6746 19.8044C52.0309 19.6262 52.4323 19.5585 52.8274 19.61C54.1874 19.69 55.5574 19.61 56.9274 19.61V2H41.3374V19.6C42.8574 19.6 44.3374 19.6 45.7974 19.6C46.0815 19.5765 46.3665 19.6323 46.6207 19.7612C46.8749 19.8901 47.0884 20.087 47.2374 20.33C47.8374 21.17 48.4774 22 49.1474 22.87Z" fill="#0085FF"/>
<path d="M15.7068 7.89014V9.77014H4.00684V7.89014H15.7068Z" fill="#0085FF"/>
<path d="M4.00684 13.6798V11.7998H15.6968V13.6798H4.00684Z" fill="#0085FF"/>
<path d="M4.00684 17.6102V15.7202H15.7068V17.6102H4.00684Z" fill="#0085FF"/>
<path d="M7.88672 5.85V4H11.7667V5.85H7.88672Z" fill="#0085FF"/>
<path d="M5.87684 4V5.85H4.00684V4H5.87684Z" fill="#0085FF"/>
<path d="M15.6974 5.85H13.8174V4H15.6974V5.85Z" fill="#0085FF"/>
<path d="M55.0069 4V5.85H43.2969V4H55.0069Z" fill="#0085FF"/>
<path d="M55.0069 7.89014V9.77014H43.2969V7.89014H55.0069Z" fill="#0085FF"/>
<path d="M43.2773 13.6798V11.7998H55.0073V13.6798H43.2773Z" fill="#0085FF"/>
<path d="M47.207 17.6002V15.7202H51.077V17.6002H47.207Z" fill="#0085FF"/>
<path d="M43.2773 17.6002V15.7202H45.1673V17.6002H43.2773Z" fill="#0085FF"/>
<path d="M55.0074 15.7202V17.6102H53.1074V15.7202H55.0074Z" fill="#0085FF"/>
</svg>
