<svg width="192" height="36" viewBox="0 0 192 36" fill="none" xmlns="http://www.w3.org/2000/svg">
<path d="M0.974365 25.9073C0.974365 23.3353 1.81737 20.9853 3.81237 19.3893L4.12237 19.7883C2.30437 21.2963 1.50637 23.5133 1.50637 25.9073C1.50637 30.8733 5.80736 34.8633 11.9264 34.8193C16.7144 34.8193 21.9464 32.1143 21.9464 25.5083C21.9464 14.6013 3.23537 20.4533 3.23537 8.88132C3.23537 3.96032 7.27037 0.856316 12.8124 0.856316C18.0444 0.856316 20.7934 3.73832 20.7934 7.55132C20.7934 9.50232 19.9514 11.2313 18.9314 12.1623L18.5764 11.8083C19.5964 10.9653 20.2614 9.28032 20.2614 7.55132C20.2614 3.91532 17.6014 1.38832 12.8564 1.38832C8.02437 1.29932 4.56537 3.73832 4.56537 7.37432C4.56537 17.3943 23.2764 11.6753 23.2764 23.8673C23.2764 31.7153 17.6894 35.3513 11.9264 35.3513C5.40836 35.3513 0.974365 31.3163 0.974365 25.9073Z" fill="#31489E"/>
<path d="M57.9667 18.4798C63.6857 18.4798 67.4547 15.3318 67.4107 9.47882C67.3657 4.20282 64.1737 1.85282 59.6517 1.85282H54.7297L54.8187 18.4798H57.9667ZM52.0697 1.32082H59.2967C64.6617 1.32082 69.8047 3.49382 69.8497 9.47882C69.8937 16.0858 65.1047 19.0118 57.7007 19.0118H54.8187L54.7297 35.1948H52.0697V1.32082Z" fill="#31489E"/>
<path d="M80.2691 18.4798C85.9881 18.4798 89.7571 15.3318 89.7131 9.47882C89.6681 4.20282 86.4761 1.85282 81.9541 1.85282H77.0321L77.1211 18.4798H80.2691ZM74.3721 1.32082H81.5991C86.9641 1.32082 92.1071 3.49382 92.1511 9.47882C92.1961 16.0858 87.4071 19.0118 80.0031 19.0118H77.1211L77.0321 35.1948H74.3721V1.32082Z" fill="#31489E"/>
<path d="M126.026 1.32104H128.686V35.1951H126.026V1.32104ZM100.887 1.32104H103.547V35.1951H100.887V1.32104ZM101.374 30.894C95.256 29.032 93.704 24.199 93.704 20.963C93.704 15.243 98.891 10.7211 106.74 10.7211C119.021 10.7211 126.78 23.1801 126.603 35.1951H125.982C126.159 23.4011 118.622 11.2531 106.74 11.2531C99.202 11.2531 94.325 15.465 94.325 20.963C94.325 24.111 95.788 28.6331 101.552 30.3621L101.374 30.894Z" fill="#31489E"/>
<path d="M135.249 35.1951H137.909V1.32104H135.249V35.1951Z" fill="#31489E"/>
<path d="M159.59 23.224C157.551 19.189 157.063 17.105 152.053 17.105H148.195V16.573H151.964C159.635 16.573 160.299 19.145 162.206 22.825L168.591 35.195H165.708L159.59 23.224ZM148.505 16.573C157.639 16.573 160.521 13.558 160.477 8.59201C160.433 4.20301 158.083 1.85301 152.718 1.85301H147.131L147.22 16.573H148.505ZM144.471 1.32101H153.25C158.615 1.32101 162.871 3.49401 162.915 8.59201C162.96 14.312 159.058 17.105 148.24 17.105H147.22L147.131 35.195H144.471V1.32101Z" fill="#31489E"/>
<path d="M172.492 34.6631H191.025V35.1951H172.492V34.6631ZM172.492 14.2681H188.365V14.8H172.492V14.2681ZM172.492 1.32104H190.582V1.85303H172.492V1.32104ZM172.049 1.32104H174.709V35.1951H172.049V1.32104Z" fill="#31489E"/>
<path d="M37.8633 35.0538C37.8713 35.0528 37.8783 35.0478 37.8863 35.0398C37.8553 35.0818 37.8213 35.1248 37.7893 35.1688V35.0138C37.8153 35.0428 37.8403 35.0588 37.8633 35.0538Z" fill="#31489E"/>
<path d="M31.8178 23.3418C31.9558 23.3328 32.2128 23.3108 32.4668 23.1448C32.9478 22.8308 33.0528 22.2288 33.1008 22.0498C34.0108 18.6848 35.0818 15.3628 36.0598 12.0148C36.5588 10.3078 37.1828 8.61882 37.4098 6.82082C37.5368 5.80382 37.5388 4.75282 37.3168 3.64382C37.3128 3.61982 37.3078 3.59482 37.3028 3.57182C34.2898 10.1298 31.2778 16.6878 28.2658 23.2458C28.5828 23.2708 30.6428 23.4248 31.8178 23.3418ZM37.4488 33.6608C37.4488 32.0278 37.4628 30.6878 37.4328 29.3468C37.4288 29.1278 37.2688 28.8738 37.1128 28.6968C35.8388 27.2548 34.5528 25.8218 33.2558 24.3988C33.0718 24.1978 32.8118 23.9388 32.5758 23.9318C31.3508 23.8838 30.1198 23.9098 28.6768 23.9098C31.6518 27.2158 34.4548 30.3328 37.4488 33.6608ZM37.8078 28.4638C37.9008 28.3578 38.0308 28.2078 38.1918 28.0328C40.2668 25.7708 41.0598 24.8418 42.1048 23.6488C42.2148 23.5228 42.1848 23.2138 42.1278 23.0168C40.9778 19.1298 40.0788 14.9618 37.9318 8.93482C37.8698 8.76182 37.8188 8.61482 37.7888 8.53482V8.37782L37.7828 8.37682V8.53482C37.7548 8.61482 37.7028 8.76182 37.6408 8.93482C35.4948 14.9618 34.5958 19.1298 33.4458 23.0168C33.3868 23.2138 33.3598 23.5228 33.4678 23.6488C34.5128 24.8418 35.3068 25.7708 37.3808 28.0328C37.5428 28.2108 37.6758 28.3628 37.7688 28.4678C37.7828 28.4648 37.7948 28.4618 37.8078 28.4638ZM38.1248 33.6608C41.1178 30.3328 43.9208 27.2158 46.8948 23.9098C45.4518 23.9098 44.2238 23.8838 42.9958 23.9318C42.7618 23.9388 42.5008 24.1978 42.3168 24.3988C41.0188 25.8218 39.7348 27.2548 38.4588 28.6968C38.3028 28.8738 38.1438 29.1278 38.1388 29.3468C38.1088 30.6878 38.1248 32.0278 38.1248 33.6608ZM38.2708 3.57182C37.6278 6.67382 38.7258 9.32082 39.5118 12.0148C40.4898 15.3628 41.5608 18.6848 42.4708 22.0498C42.5188 22.2288 42.6248 22.8308 43.1058 23.1448C43.3598 23.3108 43.6168 23.3328 43.7558 23.3418C44.9288 23.4248 46.9888 23.2708 47.3078 23.2458C44.2948 16.6878 41.2828 10.1298 38.2708 3.57182ZM27.8178 22.6638C31.6378 14.4828 37.7828 1.34782 37.7828 1.34782V1.36782L37.7888 1.34782L37.7908 1.35082C37.8848 1.55182 43.9628 14.5458 47.7558 22.6638C47.7988 22.7588 47.9058 22.9998 47.8808 23.3028C47.8448 23.7288 47.5878 23.9948 47.5158 24.0678C44.3438 27.6698 42.6538 29.5438 41.6898 30.5958C41.6088 30.6848 41.4748 30.8298 41.2968 31.0248C40.7348 31.6408 40.1328 32.3148 39.7928 32.7008C39.3938 33.1598 38.7468 33.9228 37.8868 35.0398C37.8788 35.0478 37.8708 35.0528 37.8638 35.0538C37.8398 35.0588 37.8158 35.0428 37.7888 35.0138C37.7858 35.0108 37.7848 35.0088 37.7828 35.0058V35.1688C36.8748 33.9818 36.1928 33.1758 35.7788 32.7008C35.4408 32.3148 34.8378 31.6408 34.2758 31.0248C34.0978 30.8298 33.9648 30.6848 33.8838 30.5958C32.9188 29.5438 31.2278 27.6698 28.0568 24.0678C27.9838 23.9948 27.7288 23.7288 27.6928 23.3028C27.6668 22.9998 27.7728 22.7588 27.8178 22.6638Z" fill="#31489E"/>
</svg>
