<svg width="382" height="84" viewBox="0 0 382 84" fill="none" xmlns="http://www.w3.org/2000/svg">
<path d="M77.5863 13.4595C76.7223 11.3155 75.8903 10.4835 75.1543 10.1315V9.68349H80.9463V10.1315C79.8903 10.4835 80.3383 11.3155 81.2023 13.4595L82.7703 17.2675L84.1783 13.4915C84.9783 11.3475 84.7222 10.3875 83.6343 10.1315V9.68349H87.3463V10.1315C86.3863 10.4835 85.5863 11.3475 84.7543 13.4915L83.0583 18.0355L87.1543 27.9875L92.4343 13.4915C93.2343 11.3475 92.9783 10.3875 91.8903 10.1315V9.68349H95.6023V10.1315C94.6423 10.4835 93.8423 11.3475 93.0743 13.4915L86.3223 32.0835H85.1703L80.9463 21.7475L76.7543 32.0835H75.5383L68.4343 13.4915C67.6343 11.3155 66.8343 10.4835 66.0983 10.1315V9.68349H71.8903V10.1315C70.8343 10.4835 71.2503 11.3155 72.0823 13.4915L77.6823 28.0515L80.6263 20.9155L77.5863 13.4595ZM101.451 32.4035C97.899 32.4035 93.867 29.8755 93.867 24.6915C93.867 19.2515 98.123 15.8595 102.283 15.8595C106.603 15.8595 108.907 18.8355 108.907 21.6195H96.779C96.747 21.9715 96.715 22.2915 96.715 22.6435C96.715 26.8355 99.275 29.8115 103.339 29.8115C105.707 29.8115 107.531 28.7875 108.875 27.2835L109.163 27.6035C107.691 29.8435 105.163 32.4035 101.451 32.4035ZM96.811 21.1715H105.675C105.259 18.5475 103.499 16.4675 101.291 16.4355C98.571 16.4035 97.195 18.6755 96.811 21.1715ZM128.055 13.4595C127.191 11.3155 126.359 10.4835 125.623 10.1315V9.68349H131.415V10.1315C130.359 10.4835 130.807 11.3155 131.671 13.4595L133.239 17.2675L134.647 13.4915C135.447 11.3475 135.191 10.3875 134.103 10.1315V9.68349H137.815V10.1315C136.855 10.4835 136.055 11.3475 135.223 13.4915L133.527 18.0355L137.623 27.9875L142.903 13.4915C143.703 11.3475 143.447 10.3875 142.359 10.1315V9.68349H146.071V10.1315C145.111 10.4835 144.311 11.3475 143.543 13.4915L136.791 32.0835H135.639L131.415 21.7475L127.223 32.0835H126.007L118.903 13.4915C118.103 11.3155 117.303 10.4835 116.567 10.1315V9.68349H122.359V10.1315C121.303 10.4835 121.719 11.3155 122.551 13.4915L128.151 28.0515L131.095 20.9155L128.055 13.4595ZM152.88 32.4035C148.72 32.4035 144.336 29.9395 144.336 24.4995C144.336 19.3155 148.496 15.8595 152.88 15.8595C156.848 15.8595 161.392 18.1955 161.392 23.8275C161.392 29.2995 156.656 32.4035 152.88 32.4035ZM147.536 22.0995C147.536 25.8755 149.776 31.6995 154 31.6995C157.136 31.6995 158.16 28.9795 158.16 26.2595C158.16 22.1955 155.376 16.0835 151.248 16.4995C148.464 16.7875 147.536 19.3475 147.536 22.0995ZM169.439 32.4035C166.047 32.4035 164.639 30.3235 164.639 26.4195V20.6595C164.639 18.7715 164.159 18.4515 163.359 18.0995V17.6515L167.583 15.7955L167.903 16.0515V26.0035C167.903 29.4275 168.447 31.1235 170.911 31.1235C172.351 31.1235 173.919 30.2595 175.487 28.6915V20.6595C175.487 18.7715 175.007 18.4515 174.207 18.0995V17.6515L178.431 15.7955L178.751 16.0515V28.0195C178.751 30.3235 178.975 31.2835 180.031 31.6355V32.0835H176.767C175.935 32.0835 175.487 31.6355 175.487 30.8035V29.3635C173.663 31.1235 171.455 32.4035 169.439 32.4035ZM181.96 32.0835V31.6355C183.016 31.2835 183.24 30.3235 183.24 28.0195V11.0595C183.24 9.1715 182.76 8.8515 181.96 8.49949V8.05149L186.184 6.1955L186.504 6.45149V28.0195C186.504 30.3235 186.728 31.2835 187.784 31.6355V32.0835H181.96ZM196.683 32.4675C192.619 32.4035 189.867 28.6595 189.867 24.6915C189.867 19.7955 193.227 15.8915 198.795 15.8915C200.139 15.8915 201.259 16.2115 202.219 16.6915V11.0595C202.219 9.1715 201.739 8.8515 200.939 8.49949V8.05149L205.163 6.1955L205.483 6.45149V28.0195C205.483 30.3235 205.707 31.2835 206.763 31.6355V32.0835H203.499C202.667 32.0835 202.219 31.6355 202.219 30.8035V29.4595C201.003 30.8675 199.083 32.5315 196.683 32.4675ZM193.003 22.0995C193.003 25.1395 194.059 30.5475 198.667 30.5475C200.075 30.5475 201.291 29.7795 202.219 28.7875V21.7155C202.219 19.3475 200.139 16.5635 197.451 16.5635C193.931 16.5635 193.003 19.5715 193.003 22.0995ZM215.254 32.0835V31.6355C216.31 31.2835 216.534 30.3235 216.534 28.0195V13.7475C216.534 11.4435 216.31 10.4835 215.254 10.1315V9.68349H221.206V10.1315C220.15 10.4835 219.926 11.4435 219.926 13.7475V29.9075C219.926 30.9315 220.502 31.5075 221.526 31.5075H224.15C227.382 31.5075 229.046 30.7395 230.326 27.9875L230.742 28.0515L230.486 32.0835H215.254ZM239.88 32.4035C235.72 32.4035 231.336 29.9395 231.336 24.4995C231.336 19.3155 235.496 15.8595 239.88 15.8595C243.848 15.8595 248.392 18.1955 248.392 23.8275C248.392 29.2995 243.656 32.4035 239.88 32.4035ZM234.536 22.0995C234.536 25.8755 236.776 31.6995 241 31.6995C244.136 31.6995 245.16 28.9795 245.16 26.2595C245.16 22.1955 242.376 16.0835 238.248 16.4995C235.464 16.7875 234.536 19.3475 234.536 22.0995ZM250.794 19.8275C249.898 17.7155 249.226 16.8515 248.522 16.5315V16.0835H253.994V16.5315C252.938 16.8835 253.386 17.7155 254.314 19.8275L258.122 28.8195L261.578 19.8915C262.378 17.7155 262.154 16.7875 261.066 16.5315V16.0835H264.49V16.5315C263.562 16.8515 262.922 17.7155 262.09 19.8915L257.418 32.0835H255.914L250.794 19.8275ZM271.576 32.4035C268.024 32.4035 263.992 29.8755 263.992 24.6915C263.992 19.2515 268.248 15.8595 272.408 15.8595C276.728 15.8595 279.032 18.8355 279.032 21.6195H266.904C266.872 21.9715 266.84 22.2915 266.84 22.6435C266.84 26.8355 269.4 29.8115 273.464 29.8115C275.832 29.8115 277.656 28.7875 279 27.2835L279.288 27.6035C277.816 29.8435 275.288 32.4035 271.576 32.4035ZM266.936 21.1715H275.8C275.384 18.5475 273.624 16.4675 271.416 16.4355C268.696 16.4035 267.32 18.6755 266.936 21.1715ZM292.516 32.4035C290.34 32.4035 289.188 31.0275 289.188 27.5715V16.5955H287.14V16.0835L291.94 11.8595H292.452V16.0835H297.412L297.284 16.5955H292.452V27.6035C292.452 29.5875 293.188 30.4515 294.596 30.4515C295.3 30.4515 296.388 30.1635 297.444 28.8515L297.764 29.1715C296.068 31.1235 294.436 32.4035 292.516 32.4035ZM307.067 32.4035C302.907 32.4035 298.523 29.9395 298.523 24.4995C298.523 19.3155 302.683 15.8595 307.067 15.8595C311.035 15.8595 315.579 18.1955 315.579 23.8275C315.579 29.2995 310.843 32.4035 307.067 32.4035ZM301.723 22.0995C301.723 25.8755 303.963 31.6995 308.187 31.6995C311.323 31.6995 312.347 28.9795 312.347 26.2595C312.347 22.1955 309.563 16.0835 305.435 16.4995C302.651 16.7875 301.723 19.3475 301.723 22.0995Z" fill="#31489E"/>
<path d="M2.41025 75.0835V74.6355C3.46625 74.2835 3.69025 73.3235 3.69025 71.0195V56.7475C3.69025 54.4435 3.46625 53.4835 2.41025 53.1315V52.6835H8.36225V53.1315C7.30625 53.4835 7.08225 54.4435 7.08225 56.7475V62.9235H18.2183V56.7475C18.2183 54.4435 17.9943 53.4835 16.9383 53.1315V52.6835H22.8903V53.1315C21.8343 53.4835 21.6103 54.4435 21.6103 56.7475V71.0195C21.6103 73.3235 21.8343 74.2835 22.8903 74.6355V75.0835H16.9383V74.6355C17.9943 74.2835 18.2183 73.3235 18.2183 71.0195V63.4995H7.08225V71.0195C7.08225 73.3235 7.30625 74.2835 8.36225 74.6355V75.0835H2.41025ZM33.7548 75.4035C29.5948 75.4035 25.2108 72.9395 25.2108 67.4995C25.2108 62.3155 29.3708 58.8595 33.7548 58.8595C37.7228 58.8595 42.2668 61.1955 42.2668 66.8275C42.2668 72.2995 37.5308 75.4035 33.7548 75.4035ZM28.4108 65.0995C28.4108 68.8755 30.6508 74.6995 34.8748 74.6995C38.0108 74.6995 39.0348 71.9795 39.0348 69.2595C39.0348 65.1955 36.2508 59.0835 32.1228 59.4995C29.3388 59.7875 28.4108 62.3475 28.4108 65.0995ZM50.6658 75.3395C48.3298 75.3395 46.1218 74.6355 44.9058 73.8355L44.5858 69.6435L44.9058 69.5795C46.2818 72.6515 48.5858 74.7955 51.4338 74.8275C53.4178 74.8595 54.6978 73.5475 54.6978 72.0755C54.6978 70.0275 53.0658 69.2275 50.2818 68.3635C46.9218 67.3395 44.8418 66.4115 44.8418 63.5315C44.8418 61.0995 46.7298 58.8595 51.0818 58.8595C52.9058 58.8595 54.8578 59.2115 55.9458 59.6595L56.1058 63.1795L55.7218 63.2435C54.6338 60.9715 52.6498 59.3075 50.3138 59.3075C48.2977 59.3075 46.9858 60.3635 46.9858 61.7395C46.9858 63.5315 48.5858 64.2995 51.4658 65.2595C54.0258 66.1235 56.8418 66.8915 56.8418 70.1555C56.8418 72.5875 55.3058 75.3395 50.6658 75.3395ZM63.9535 75.4035C61.7775 75.4035 60.6255 74.0275 60.6255 70.5715V59.5955H58.5775V59.0835L63.3775 54.8595H63.8895V59.0835H68.8495L68.7215 59.5955H63.8895V70.6035C63.8895 72.5875 64.6255 73.4515 66.0335 73.4515C66.7375 73.4515 67.8255 73.1635 68.8815 71.8515L69.2015 72.1715C67.5055 74.1235 65.8735 75.4035 63.9535 75.4035ZM81.638 75.0835V74.6355C82.694 74.2835 82.918 73.3235 82.918 71.0195L82.886 64.8115L78.15 56.2355C77.062 54.2195 76.038 53.4835 75.302 53.1315V52.6835H81.286V53.1315C80.23 53.4835 80.87 54.2195 81.99 56.2355L86.214 63.8515L90.534 56.2355C91.654 54.2195 91.494 53.3875 90.182 53.1315V52.6835H94.31V53.1315C93.35 53.4835 92.294 54.2195 91.174 56.2355L86.342 64.8435V71.0195C86.342 73.3235 86.566 74.2835 87.622 74.6355V75.0835H81.638ZM100.755 75.4035C96.5948 75.4035 92.2108 72.9395 92.2108 67.4995C92.2108 62.3155 96.3708 58.8595 100.755 58.8595C104.723 58.8595 109.267 61.1955 109.267 66.8275C109.267 72.2995 104.531 75.4035 100.755 75.4035ZM95.4108 65.0995C95.4108 68.8755 97.6508 74.6995 101.875 74.6995C105.011 74.6995 106.035 71.9795 106.035 69.2595C106.035 65.1955 103.251 59.0835 99.1228 59.4995C96.3388 59.7875 95.4108 62.3475 95.4108 65.0995ZM117.314 75.4035C113.922 75.4035 112.514 73.3235 112.514 69.4195V63.6595C112.514 61.7715 112.034 61.4515 111.234 61.0995V60.6515L115.458 58.7955L115.778 59.0515V69.0035C115.778 72.4275 116.322 74.1235 118.786 74.1235C120.226 74.1235 121.794 73.2595 123.362 71.6915V63.6595C123.362 61.7715 122.882 61.4515 122.082 61.0995V60.6515L126.306 58.7955L126.626 59.0515V71.0195C126.626 73.3235 126.85 74.2835 127.906 74.6355V75.0835H124.642C123.81 75.0835 123.362 74.6355 123.362 73.8035V72.3635C121.538 74.1235 119.33 75.4035 117.314 75.4035ZM148.401 75.0835C147.569 75.0835 147.121 74.6355 147.121 73.8035V68.5235C146.225 72.2355 143.921 75.4035 140.593 75.4035C138.225 75.4035 136.241 73.8995 136.241 71.2115C136.241 67.9155 139.601 66.6355 143.569 65.5155L147.121 64.4915C147.057 61.3235 145.329 60.1075 142.961 60.1075C141.169 60.1075 139.409 60.8755 137.777 62.8275L137.457 62.5395C139.249 60.3315 141.713 58.8595 144.625 58.8595C148.497 58.8595 150.321 60.9395 150.321 64.8435V71.0195C150.321 73.3235 150.545 74.2835 151.601 74.6355V75.0835H148.401ZM139.217 70.0915C139.217 72.2035 140.721 73.0675 142.193 73.0675C145.329 73.0675 147.089 68.6515 147.121 65.7715V64.9395L143.697 65.9315C142.193 66.3475 139.217 67.4355 139.217 70.0915ZM158.266 75.4035C156.09 75.4035 154.938 74.0275 154.938 70.5715V59.5955H152.89V59.0835L157.69 54.8595H158.202V59.0835H163.162L163.034 59.5955H158.202V70.6035C158.202 72.5875 158.938 73.4515 160.346 73.4515C161.05 73.4515 162.138 73.1635 163.194 71.8515L163.514 72.1715C161.818 74.1235 160.186 75.4035 158.266 75.4035ZM179.215 75.4035C175.919 75.4035 172.943 74.3475 171.311 73.1315L171.183 68.3315L171.599 68.2675C172.943 71.9155 175.791 74.7315 180.047 74.7315C182.255 74.7315 184.303 73.3235 184.303 70.6995C184.303 67.5635 180.175 66.0915 177.615 65.0675C174.319 63.6915 171.567 62.6035 171.567 58.8915C171.567 54.9235 174.766 52.4595 179.791 52.4595C182.159 52.4595 184.271 52.9715 185.935 53.8035L186.062 57.9635L185.711 58.0915C184.399 54.7955 181.679 53.0035 178.575 53.0035C176.015 53.0035 173.999 54.5075 173.999 57.0355C173.999 59.8835 177.231 61.0355 179.791 62.0595C183.055 63.3075 186.927 64.7475 186.927 68.5875C186.927 72.9715 182.895 75.4035 179.215 75.4035ZM200.87 75.0835C200.038 75.0835 199.59 74.6355 199.59 73.8035V68.5235C198.694 72.2355 196.39 75.4035 193.062 75.4035C190.694 75.4035 188.71 73.8995 188.71 71.2115C188.71 67.9155 192.07 66.6355 196.038 65.5155L199.59 64.4915C199.526 61.3235 197.798 60.1075 195.43 60.1075C193.638 60.1075 191.878 60.8755 190.246 62.8275L189.926 62.5395C191.718 60.3315 194.182 58.8595 197.094 58.8595C200.966 58.8595 202.79 60.9395 202.79 64.8435V71.0195C202.79 73.3235 203.014 74.2835 204.07 74.6355V75.0835H200.87ZM191.686 70.0915C191.686 72.2035 193.19 73.0675 194.662 73.0675C197.798 73.0675 199.558 68.6515 199.59 65.7715V64.9395L196.166 65.9315C194.662 66.3475 191.686 67.4355 191.686 70.0915ZM214.319 75.3715C212.847 75.3715 211.503 74.9555 210.383 74.3155V79.6595C210.383 81.9635 210.607 82.9235 211.663 83.2755V83.7235H205.839V83.2755C206.895 82.9235 207.119 81.9635 207.119 79.6595V63.6595C207.119 61.7715 206.639 61.4515 205.839 61.0995V60.6515L210.063 58.7955L210.383 59.0515V61.1315C212.079 59.9475 214.159 58.8595 216.367 58.8595C220.335 58.8595 222.863 62.1875 222.863 66.5715C222.863 71.4675 219.567 75.3715 214.319 75.3715ZM210.383 69.7395C210.383 71.9475 213.231 74.7635 215.599 74.7635C219.055 74.7635 219.855 71.9155 219.855 69.0035C219.855 66.1235 218.895 60.1715 214.127 60.1715C212.719 60.1715 211.503 60.8115 210.383 61.6755V69.7395ZM233.194 75.3715C231.722 75.3715 230.378 74.9555 229.258 74.3155V79.6595C229.258 81.9635 229.482 82.9235 230.538 83.2755V83.7235H224.714V83.2755C225.77 82.9235 225.994 81.9635 225.994 79.6595V63.6595C225.994 61.7715 225.514 61.4515 224.714 61.0995V60.6515L228.938 58.7955L229.258 59.0515V61.1315C230.954 59.9475 233.034 58.8595 235.242 58.8595C239.21 58.8595 241.738 62.1875 241.738 66.5715C241.738 71.4675 238.442 75.3715 233.194 75.3715ZM229.258 69.7395C229.258 71.9475 232.106 74.7635 234.474 74.7635C237.93 74.7635 238.73 71.9155 238.73 69.0035C238.73 66.1235 237.77 60.1715 233.002 60.1715C231.594 60.1715 230.378 60.8115 229.258 61.6755V69.7395ZM243.39 75.0835V74.6355C244.446 74.2835 244.67 73.3235 244.67 71.0195V54.0595C244.67 52.1715 244.19 51.8515 243.39 51.4995V51.0515L247.614 49.1955L247.934 49.4515V61.7395C249.694 60.2995 251.998 58.8595 254.494 58.8595C257.438 58.8595 259.422 60.3955 259.422 64.1395V71.0195C259.422 73.3235 259.646 74.2835 260.702 74.6355V75.0835H254.878V74.6355C255.934 74.2835 256.158 73.3235 256.158 71.0195V64.7155C256.158 61.8355 254.91 60.1395 252.542 60.1395C251.038 60.1395 249.662 60.8755 247.934 62.2835V71.0195C247.934 73.3235 248.158 74.2835 249.214 74.6355V75.0835H243.39ZM262.24 75.0835V74.6355C263.296 74.2835 263.52 73.3235 263.52 71.0195V63.6595C263.52 61.7715 263.04 61.4515 262.24 61.0995V60.6515L266.464 58.7955L266.784 59.0515V71.0195C266.784 73.3235 267.008 74.2835 268.064 74.6355V75.0835H262.24ZM262.784 55.5315C262.784 54.2835 263.744 53.3235 264.96 53.3235C266.24 53.3235 267.136 54.2835 267.136 55.5315C267.136 56.7475 266.176 57.7075 264.96 57.7075C263.744 57.7075 262.784 56.7475 262.784 55.5315ZM269.927 75.0835V74.6355C270.983 74.2835 271.207 73.3235 271.207 71.0195V63.6595C271.207 61.7715 270.727 61.4515 269.927 61.0995V60.6515L274.151 58.7955L274.471 59.0515V62.9235C274.951 61.8035 275.783 60.8115 276.807 60.1075C277.991 59.2755 279.207 58.8595 280.743 58.8595C281.831 58.8595 282.791 59.1475 282.791 59.8195C282.791 60.5235 282.087 61.8995 280.615 61.8995C279.719 61.8995 278.503 61.5795 276.455 60.9395C275.655 61.6115 274.567 63.0515 274.471 64.6515V71.0195C274.471 73.3235 274.695 74.2835 275.751 74.6355V75.0835H269.927ZM290.482 75.4035C286.93 75.4035 282.898 72.8755 282.898 67.6915C282.898 62.2515 287.154 58.8595 291.314 58.8595C295.634 58.8595 297.938 61.8355 297.938 64.6195H285.81C285.778 64.9715 285.746 65.2915 285.746 65.6435C285.746 69.8355 288.306 72.8115 292.37 72.8115C294.738 72.8115 296.562 71.7875 297.906 70.2835L298.194 70.6035C296.722 72.8435 294.194 75.4035 290.482 75.4035ZM285.842 64.1715H294.706C294.29 61.5475 292.53 59.4675 290.322 59.4355C287.602 59.4035 286.226 61.6755 285.842 64.1715ZM307.678 56.4595C306.846 54.3155 306.014 53.4835 305.278 53.1315V52.6835H311.166V53.1315C310.11 53.4835 310.526 54.3155 311.358 56.4595L317.246 71.4035L323.038 56.4595C323.87 54.3155 323.646 53.3875 322.558 53.1315V52.6835H326.27V53.1315C325.31 53.4835 324.478 54.3155 323.646 56.4595L316.414 75.0835H315.198L307.678 56.4595ZM327.052 75.0835V74.6355C328.108 74.2835 328.332 73.3235 328.332 71.0195V63.6595C328.332 61.7715 327.852 61.4515 327.052 61.0995V60.6515L331.276 58.7955L331.596 59.0515V71.0195C331.596 73.3235 331.82 74.2835 332.876 74.6355V75.0835H327.052ZM327.596 55.5315C327.596 54.2835 328.556 53.3235 329.772 53.3235C331.052 53.3235 331.948 54.2835 331.948 55.5315C331.948 56.7475 330.988 57.7075 329.772 57.7075C328.556 57.7075 327.596 56.7475 327.596 55.5315ZM334.804 75.0835V74.6355C335.86 74.2835 336.084 73.3235 336.084 71.0195V54.0595C336.084 52.1715 335.604 51.8515 334.804 51.4995V51.0515L339.028 49.1955L339.348 49.4515V71.0195C339.348 73.3235 339.572 74.2835 340.628 74.6355V75.0835H334.804ZM342.679 75.0835V74.6355C343.735 74.2835 343.959 73.3235 343.959 71.0195V54.0595C343.959 52.1715 343.479 51.8515 342.679 51.4995V51.0515L346.903 49.1955L347.223 49.4515V71.0195C347.223 73.3235 347.447 74.2835 348.503 74.6355V75.0835H342.679ZM362.714 75.0835C361.882 75.0835 361.434 74.6355 361.434 73.8035V68.5235C360.538 72.2355 358.234 75.4035 354.906 75.4035C352.538 75.4035 350.554 73.8995 350.554 71.2115C350.554 67.9155 353.914 66.6355 357.882 65.5155L361.434 64.4915C361.37 61.3235 359.642 60.1075 357.274 60.1075C355.482 60.1075 353.722 60.8755 352.09 62.8275L351.77 62.5395C353.562 60.3315 356.026 58.8595 358.938 58.8595C362.81 58.8595 364.634 60.9395 364.634 64.8435V71.0195C364.634 73.3235 364.858 74.2835 365.914 74.6355V75.0835H362.714ZM353.53 70.0915C353.53 72.2035 355.034 73.0675 356.506 73.0675C359.642 73.0675 361.402 68.6515 361.434 65.7715V64.9395L358.01 65.9315C356.506 66.3475 353.53 67.4355 353.53 70.0915ZM373.916 75.3395C371.58 75.3395 369.372 74.6355 368.156 73.8355L367.836 69.6435L368.156 69.5795C369.532 72.6515 371.836 74.7955 374.684 74.8275C376.668 74.8595 377.948 73.5475 377.948 72.0755C377.948 70.0275 376.316 69.2275 373.532 68.3635C370.172 67.3395 368.092 66.4115 368.092 63.5315C368.092 61.0995 369.98 58.8595 374.332 58.8595C376.156 58.8595 378.108 59.2115 379.196 59.6595L379.356 63.1795L378.972 63.2435C377.884 60.9715 375.9 59.3075 373.564 59.3075C371.548 59.3075 370.236 60.3635 370.236 61.7395C370.236 63.5315 371.836 64.2995 374.716 65.2595C377.276 66.1235 380.092 66.8915 380.092 70.1555C380.092 72.5875 378.556 75.3395 373.916 75.3395Z" fill="#31489E"/>
</svg>
