<svg width="482" height="200" viewBox="0 0 482 200" fill="none" xmlns="http://www.w3.org/2000/svg">
<g clip-path="url(#clip0_211_1828)">
<rect width="482" height="200" fill="#171717"/>
<g filter="url(#filter0_f_211_1828)">
<ellipse cx="240.927" cy="100.011" rx="164.927" ry="31.0111" fill="#669DF3" fill-opacity="0.75"/>
</g>
<path fill-rule="evenodd" clip-rule="evenodd" d="M175 -54H523V255H175V-54ZM175.544 -53.4482H217.956V-10.4089H175.544V-53.4482ZM219.044 -53.4482H261.456V-10.4089H219.044V-53.4482ZM304.956 -53.4482H262.544V-10.4089H304.956V-53.4482ZM306.044 -53.4482H348.456V-10.4089H306.044V-53.4482ZM391.956 -53.4482H349.544V-10.4089H391.956V-53.4482ZM393.044 -53.4482H435.456V-10.4089H393.044V-53.4482ZM478.956 -53.4482H436.544V-10.4089H478.956V-53.4482ZM480.044 -53.4482H522.456V-10.4089H480.044V-53.4482ZM217.956 -9.30536H175.544V33.7339H217.956V-9.30536ZM219.044 -9.30536H261.456V33.7339H219.044V-9.30536ZM304.956 -9.30536H262.544V33.7339H304.956V-9.30536ZM306.044 -9.30536H348.456V33.7339H306.044V-9.30536ZM391.956 -9.30536H349.544V33.7339H391.956V-9.30536ZM393.044 -9.30536H435.456V33.7339H393.044V-9.30536ZM478.956 -9.30536H436.544V33.7339H478.956V-9.30536ZM480.044 -9.30536H522.456V33.7339H480.044V-9.30536ZM217.956 34.8375H175.544V77.8768H217.956V34.8375ZM219.044 34.8375H261.456V77.8768H219.044V34.8375ZM304.956 34.8375H262.544V77.8768H304.956V34.8375ZM306.044 34.8375H348.456V77.8768H306.044V34.8375ZM391.956 34.8375H349.544V77.8768H391.956V34.8375ZM393.044 34.8375H435.456V77.8768H393.044V34.8375ZM478.956 34.8375H436.544V77.8768H478.956V34.8375ZM480.044 34.8375H522.456V77.8768H480.044V34.8375ZM217.956 78.9804H175.544V122.02H217.956V78.9804ZM219.044 78.9804H261.456V122.02H219.044V78.9804ZM304.956 78.9804H262.544V122.02H304.956V78.9804ZM306.044 78.9804H348.456V122.02H306.044V78.9804ZM391.956 78.9804H349.544V122.02H391.956V78.9804ZM393.044 78.9804H435.456V122.02H393.044V78.9804ZM478.956 78.9804H436.544V122.02H478.956V78.9804ZM480.044 78.9804H522.456V122.02H480.044V78.9804ZM217.956 123.123H175.544V166.162H217.956V123.123ZM219.044 123.123H261.456V166.162H219.044V123.123ZM304.956 123.123H262.544V166.162H304.956V123.123ZM306.044 123.123H348.456V166.162H306.044V123.123ZM391.956 123.123H349.544V166.162H391.956V123.123ZM393.044 123.123H435.456V166.162H393.044V123.123ZM478.956 123.123H436.544V166.162H478.956V123.123ZM480.044 123.123H522.456V166.162H480.044V123.123ZM217.956 167.266H175.544V210.305H217.956V167.266ZM219.044 167.266H261.456V210.305H219.044V167.266ZM304.956 167.266H262.544V210.305H304.956V167.266ZM306.044 167.266H348.456V210.305H306.044V167.266ZM391.956 167.266H349.544V210.305H391.956V167.266ZM393.044 167.266H435.456V210.305H393.044V167.266ZM478.956 167.266H436.544V210.305H478.956V167.266ZM480.044 167.266H522.456V210.305H480.044V167.266ZM217.956 211.409H175.544V254.448H217.956V211.409ZM219.044 211.409H261.456V254.448H219.044V211.409ZM304.956 211.409H262.544V254.448H304.956V211.409ZM306.044 211.409H348.456V254.448H306.044V211.409ZM391.956 211.409H349.544V254.448H391.956V211.409ZM393.044 211.409H435.456V254.448H393.044V211.409ZM478.956 211.409H436.544V254.448H478.956V211.409ZM480.044 211.409H522.456V254.448H480.044V211.409Z" fill="url(#paint0_linear_211_1828)" fill-opacity="0.1"/>
</g>
<defs>
<filter id="filter0_f_211_1828" x="-90.5928" y="-97.5928" width="663.039" height="395.208" filterUnits="userSpaceOnUse" color-interpolation-filters="sRGB">
<feFlood flood-opacity="0" result="BackgroundImageFix"/>
<feBlend mode="normal" in="SourceGraphic" in2="BackgroundImageFix" result="shape"/>
<feGaussianBlur stdDeviation="83.2964" result="effect1_foregroundBlur_211_1828"/>
</filter>
<linearGradient id="paint0_linear_211_1828" x1="-120.5" y1="-19.4408" x2="516.176" y2="196.754" gradientUnits="userSpaceOnUse">
<stop offset="0.219986" stop-color="white" stop-opacity="0.45"/>
<stop offset="0.813693" stop-color="#999999" stop-opacity="0.45"/>
</linearGradient>
<clipPath id="clip0_211_1828">
<rect width="482" height="200" rx="20" fill="white"/>
</clipPath>
</defs>
</svg>
