<svg width="149" height="120" viewBox="0 0 149 120" fill="none" xmlns="http://www.w3.org/2000/svg">
<g clip-path="url(#clip0_486_8158)">
<path d="M94.545 33.0455H99.0918L112.045 20.0823L112.682 14.5821C88.5805 -6.70656 51.788 -4.41269 30.5157 19.7073C24.6011 26.4077 20.3104 34.3768 17.9746 43.0023C19.4173 42.4085 21.0162 42.3147 22.5214 42.7273L48.4216 38.452C48.4216 38.452 49.7395 36.2707 50.4202 36.4082C61.9433 23.745 81.3357 22.27 94.6387 33.0455H94.545Z" fill="#EA4335"/>
<path d="M130.494 43.0025C127.515 32.0331 121.407 22.1701 112.907 14.626L94.7322 32.8144C102.408 39.0898 106.78 48.5465 106.592 58.4658V61.6972C115.53 61.6972 122.768 68.9476 122.768 77.8855C122.768 86.8297 115.524 94.0739 106.592 94.0739H74.2343L71.0054 97.349V116.769L74.2343 120H106.592C125.142 120.144 141.599 108.112 147.107 90.3862C152.603 72.654 145.858 53.403 130.494 43.0025Z" fill="#4285F4"/>
<path d="M41.8327 119.819H74.1908V93.8987H41.8327C39.5281 93.8987 37.2484 93.4049 35.1499 92.4424L30.6032 93.8487L17.5625 106.812L16.4258 111.362C23.7393 116.887 32.6642 119.856 41.8327 119.819Z" fill="#34A853"/>
<path d="M41.8326 35.7268C23.8579 35.8331 7.93803 47.3524 2.20462 64.397C-3.52879 81.4417 2.18588 100.255 16.432 111.218L35.1998 92.436C27.0556 88.7546 23.4395 79.1666 27.1181 71.0161C30.7967 62.8657 40.3774 59.2468 48.5216 62.9282C52.1065 64.5533 54.9795 67.4284 56.6033 71.0161L75.3712 52.2339C67.3831 41.7896 54.9732 35.683 41.8326 35.7268Z" fill="#FBBC05"/>
</g>
<defs>
<clipPath id="clip0_486_8158">
<rect width="149" height="120" fill="white"/>
</clipPath>
</defs>
</svg>
