<svg width="100" height="100" viewBox="0 0 100 100" fill="none" xmlns="http://www.w3.org/2000/svg">
<path d="M58.7037 96.2021L41.3413 78.8201L78.6373 41.145L96.3197 58.8226L58.7037 96.2021Z" fill="#8AB4F8"/>
<path d="M58.829 21.3417L41.1508 3.66016L3.66443 41.145C-1.21875 46.0239 -1.2228 53.9314 3.65633 58.8144C3.66038 58.8185 3.66443 58.8225 3.66443 58.8225L41.1508 96.3073L58.493 78.8849L30.1656 50.008L58.829 21.3417Z" fill="#4285F4"/>
<path d="M96.3154 41.1451L58.8291 3.66029C53.9459 -1.2227 46.0299 -1.2227 41.1468 3.66029C36.2636 8.54327 36.2636 16.4589 41.1468 21.3378L78.6533 58.8227C83.5365 63.7056 91.4525 63.7056 96.3316 58.8227C101.215 53.9397 101.215 46.024 96.3316 41.1451H96.3154Z" fill="#8AB4F8"/>
<path d="M49.8521 100.004C56.695 100.004 62.2423 94.4569 62.2423 87.6143C62.2423 80.7716 56.695 75.2246 49.8521 75.2246C43.0092 75.2246 37.4619 80.7716 37.4619 87.6143C37.4619 94.4569 43.0092 100.004 49.8521 100.004Z" fill="#246FDB"/>
</svg>
