<svg width="626" height="137" viewBox="0 0 626 137" fill="none" xmlns="http://www.w3.org/2000/svg">
<circle cx="68" cy="68.5" r="68" fill="#E7DEFF"/>
<path d="M68.04 104.036C61.896 104.036 56.488 102.564 51.816 99.62C47.144 96.676 43.464 92.58 40.776 87.332C38.088 82.084 36.744 75.972 36.744 68.996C36.744 62.02 38.088 55.94 40.776 50.756C43.464 45.508 47.208 41.412 52.008 38.468C56.872 35.524 62.472 34.052 68.808 34.052C75.912 34.052 82.024 35.844 87.144 39.428C92.328 42.948 96.04 47.812 98.28 54.02L86.568 58.34C85.16 54.436 82.92 51.396 79.848 49.22C76.84 47.044 73.16 45.956 68.808 45.956C64.84 45.956 61.352 46.884 58.344 48.74C55.4 50.596 53.128 53.252 51.528 56.708C49.992 60.1 49.224 64.196 49.224 68.996C49.224 73.796 49.992 77.924 51.528 81.38C53.128 84.836 55.4 87.492 58.344 89.348C61.352 91.204 64.84 92.132 68.808 92.132C70.856 92.132 72.968 91.844 75.144 91.268C77.32 90.692 79.304 89.7 81.096 88.292C82.952 86.82 84.424 84.804 85.512 82.244C86.664 79.684 87.24 76.42 87.24 72.452V68.612L90.024 77.252H70.824V66.116H98.28V102.5H87.336L85.608 91.652L87.72 93.284C86.568 95.652 85 97.636 83.016 99.236C81.032 100.836 78.76 102.02 76.2 102.788C73.704 103.62 70.984 104.036 68.04 104.036Z" fill="white"/>
<circle cx="166" cy="68.5" r="68" fill="#DACEFF"/>
<path d="M143.432 102.5V35.588H165.512C170.952 35.588 175.336 36.388 178.664 37.988C181.992 39.524 184.424 41.764 185.96 44.708C187.56 47.588 188.36 51.012 188.36 54.98C188.36 61.124 186.6 65.892 183.08 69.284C179.624 72.612 174.664 74.468 168.2 74.852C166.728 74.916 165.224 74.948 163.688 74.948C162.152 74.948 160.84 74.948 159.752 74.948H155.816V102.5H143.432ZM179.816 102.5L163.016 73.508L175.688 71.972L194.12 102.5H179.816ZM155.816 63.812H164.264C166.376 63.812 168.296 63.588 170.024 63.14C171.816 62.628 173.256 61.764 174.344 60.548C175.432 59.268 175.976 57.476 175.976 55.172C175.976 52.804 175.432 51.012 174.344 49.796C173.256 48.58 171.816 47.78 170.024 47.396C168.296 46.948 166.376 46.724 164.264 46.724H155.816V63.812Z" fill="white"/>
<circle cx="264" cy="68.5" r="68" fill="#CEBDFF"/>
<path d="M263.808 104.036C257.472 104.036 251.872 102.596 247.008 99.716C242.208 96.772 238.464 92.676 235.776 87.428C233.088 82.18 231.744 76.068 231.744 69.092C231.744 62.052 233.088 55.908 235.776 50.66C238.464 45.412 242.208 41.348 247.008 38.468C251.872 35.524 257.472 34.052 263.808 34.052C270.208 34.052 275.808 35.524 280.608 38.468C285.472 41.348 289.248 45.412 291.936 50.66C294.624 55.908 295.968 62.052 295.968 69.092C295.968 76.068 294.592 82.18 291.84 87.428C289.152 92.676 285.376 96.772 280.512 99.716C275.712 102.596 270.144 104.036 263.808 104.036ZM263.712 92.132C267.808 92.132 271.296 91.204 274.176 89.348C277.12 87.428 279.392 84.74 280.992 81.284C282.592 77.828 283.392 73.764 283.392 69.092C283.392 64.356 282.592 60.26 280.992 56.804C279.392 53.348 277.12 50.692 274.176 48.836C271.296 46.916 267.808 45.956 263.712 45.956C259.808 45.956 256.352 46.884 253.344 48.74C250.4 50.596 248.128 53.252 246.528 56.708C244.992 60.164 244.224 64.292 244.224 69.092C244.224 73.828 244.992 77.924 246.528 81.38C248.128 84.836 250.4 87.492 253.344 89.348C256.352 91.204 259.808 92.132 263.712 92.132Z" fill="white"/>
<circle cx="362" cy="68.5" r="68" fill="#B69DFF"/>
<path d="M336.408 102.5L316.248 35.588H329.304L343.128 83.492L355.896 39.428H368.184L380.856 83.492L394.776 35.588H407.736L387.576 102.5H375.576L360.984 54.308H363L348.504 102.5H336.408Z" fill="white"/>
<circle cx="460" cy="68.5" r="68" fill="#9D7CFF"/>
<path d="M453.792 102.5V46.724H433.056V35.588H487.008V46.724H466.368V102.5H453.792Z" fill="white"/>
<circle cx="558" cy="68.5" r="68" fill="#855BFF"/>
<path d="M531.432 102.5V35.588H543.816V62.372H572.712V35.588H585.096V102.5H572.712V73.796H543.816V102.5H531.432Z" fill="white"/>
</svg>
