<svg width="100" height="100" viewBox="0 0 100 100" fill="none" xmlns="http://www.w3.org/2000/svg">
<g clip-path="url(#clip0_867_387)">
<path d="M98.8664 13.8177L66.5372 16.7063C60.9601 13.4603 55.4128 12.1798 49.5375 12.1798C47.9866 12.1798 46.4059 12.3287 44.8253 12.5967L11.1241 0.0892402C9.78203 -0.417014 8.79784 1.36976 9.93115 2.23337L30.6887 18.2548C26.3045 20.9945 22.1888 24.5085 18.6099 28.5884C12.3767 35.6759 4.62247 55.1816 0.834818 65.3662C-0.805504 69.6842 -0.000255113 74.5383 2.95232 78.1119C9.81185 86.4502 24.0976 99.9999 51.5357 99.9999C76.7072 99.9999 89.4122 88.7432 95.377 80.4645C98.6875 75.8784 99.6419 70.0416 98.0314 64.6217C95.2876 55.4794 89.5912 39.6366 80.3159 28.767C79.9878 28.3799 79.6598 27.9928 79.3317 27.6354L99.4629 15.7235C100.447 15.1875 99.9699 13.7283 98.8664 13.8177Z" fill="#FF4C46"/>
<path d="M65.1638 72.6624C62.7481 73.526 57.3201 74.8065 51.3255 71.7094C51.0272 71.5605 50.729 71.9477 50.9676 72.1859C52.8763 74.2407 56.2762 77.8143 58.3341 79.5712C58.7516 79.9286 59.4078 79.8988 59.7955 79.4819L65.5217 73.1686C65.7305 72.9304 65.4919 72.5433 65.1638 72.6624Z" fill="white"/>
<path d="M87.473 46.3969C84.4012 39.7858 79.8381 33.5916 72.9189 32.7876C71.6663 32.6387 70.4137 32.9365 69.3102 33.5618L61.7647 38.0288C59.8858 39.1306 57.4999 38.9817 55.7999 37.6416L49.2386 32.5791C47.0316 30.8817 44.5264 29.6309 41.8124 29.0056C30.5389 26.3552 22.904 32.2515 17.148 43.3296C11.6305 53.9013 14.7024 69.0889 28.3021 72.7221C42.6475 76.5338 52.1316 60.6315 55.9192 55.3307C56.635 54.3182 58.156 54.3182 58.9016 55.3307C64.7769 63.3117 72.7101 71.8584 81.1802 70.161C92.2449 67.9275 90.9624 53.8715 87.473 46.3969ZM45.9878 54.8245C43.244 56.6708 39.6949 56.2539 37.6072 53.1271C35.4897 50.0002 36.4441 46.5755 39.1879 44.7292C41.9317 42.8829 45.4808 43.2998 47.5685 46.4266C49.686 49.5535 48.7316 52.9782 45.9878 54.8245ZM75.3048 55.3903C72.561 57.2366 69.012 56.8197 66.9243 53.6929C64.8068 50.566 65.7611 47.1414 68.505 45.295C71.2488 43.4487 74.7978 43.8656 76.8855 46.9925C79.003 50.0895 78.0785 53.5142 75.3048 55.3903Z" fill="white"/>
<path d="M58.6924 59.4401C58.1257 58.785 57.1117 58.8147 56.5451 59.4699L50.5206 66.617C50.2522 66.9446 50.3118 67.4508 50.6399 67.7188C52.0118 68.7016 55.4416 70.8755 58.752 70.8755C61.8239 70.8755 64.5976 69.6843 65.9396 68.9994C66.387 68.7909 66.4765 68.1953 66.1484 67.838L58.6924 59.4401Z" fill="white"/>
</g>
<defs>
<clipPath id="clip0_867_387">
<rect width="100" height="100" fill="white"/>
</clipPath>
</defs>
</svg>
