<svg width="119" height="120" viewBox="0 0 119 120" fill="none" xmlns="http://www.w3.org/2000/svg">
<g clip-path="url(#clip0_486_8308)">
<path d="M118.827 16.5399C118.827 7.88544 111.817 0.869629 103.169 0.869629C95.2721 0.869629 88.7444 6.71986 87.6689 14.325L87.5104 14.2413C74.7045 8.46126 63.9176 18.6989 63.9176 18.6989L35.3848 47.3929L46.6588 58.258L69.6246 35.6785C80.3487 24.9459 86.1881 32.2101 86.1881 32.2101C94.2612 39.0352 86.4661 47.1143 86.4661 47.1143L98.0189 58.258C107.453 48.0613 108 39.1622 105.132 32.0831C112.853 31.1157 118.827 24.5282 118.827 16.5399Z" fill="#F9AE41"/>
<path d="M105.278 88.6079C105.331 88.5079 105.361 88.4498 105.361 88.4498C111.137 75.6339 100.907 64.8391 100.907 64.8391L72.2336 36.2842L61.377 47.5674L83.9398 70.5498C94.664 81.2823 87.4051 87.1265 87.4051 87.1265C80.5855 95.2056 72.5124 87.4046 72.5124 87.4046L61.377 98.9656C71.5657 108.407 80.4587 108.954 87.532 106.084C88.4988 113.811 95.0818 119.79 103.064 119.79C111.712 119.79 118.722 112.774 118.722 104.12C118.722 96.2172 112.877 89.6846 105.278 88.6079Z" fill="#EE4035"/>
<path d="M72.478 61.8789L49.5122 84.458C38.7876 95.191 32.9482 87.9273 32.9482 87.9273C24.8751 81.1017 32.6698 73.0231 32.6698 73.0231L21.1179 61.8789C11.6839 72.0752 11.1364 80.9743 14.0036 88.0533C6.28278 89.0212 0.308594 95.6082 0.308594 103.597C0.308594 112.251 7.31922 119.267 15.9677 119.267C23.8642 119.267 30.3919 113.418 31.4674 105.812C31.5678 105.866 31.6259 105.896 31.6259 105.896C44.4322 111.677 55.2187 101.438 55.2187 101.438L83.752 72.7436L72.478 61.8789Z" fill="#4F91CD"/>
<path d="M35.1962 49.5877C24.4716 38.8551 31.7295 33.0109 31.7295 33.0109C38.5505 24.9318 46.6231 32.7328 46.6231 32.7328L57.7586 21.1723C47.5698 11.7314 38.6773 11.1839 31.6035 14.0532C30.6368 6.32626 24.0547 0.347656 16.0708 0.347656C7.42418 0.347656 0.414015 7.36347 0.413086 16.0179C0.413086 23.9207 6.25853 30.4532 13.8585 31.5295C13.805 31.63 13.7753 31.6886 13.7753 31.6886C7.99817 44.5035 18.2292 55.2979 18.2292 55.2979L46.9029 83.8528L57.7595 72.5704L35.1962 49.5877Z" fill="#7AC043"/>
</g>
<defs>
<clipPath id="clip0_486_8308">
<rect width="119" height="120" fill="white"/>
</clipPath>
</defs>
</svg>
