<svg width="77" height="65" viewBox="0 0 77 65" fill="none" xmlns="http://www.w3.org/2000/svg">
<g clip-path="url(#clip0_105_712)">
<path d="M73.2215 60.8038C73.3867 60.8055 73.5506 60.7735 73.7028 60.7098C73.855 60.6462 73.9923 60.5522 74.1063 60.4338C74.2204 60.3154 74.3086 60.1751 74.3656 60.0215C74.4225 59.868 74.4469 59.7045 74.4374 59.5412C74.4374 58.6456 73.8918 58.2178 72.7723 58.2178H70.9636V62.9063H71.6439V60.8625H72.4799L72.499 60.8874L73.7964 62.9063H74.5239L73.1281 60.8168L73.2215 60.8038ZM72.4347 60.3342H71.6458V58.7491H72.6457C73.1622 58.7491 73.7511 58.8327 73.7511 59.5023C73.7511 60.2725 73.1552 60.3342 72.4307 60.3342" fill="#0A66C2"/>
<path d="M55.4749 54.9289H45.8278V39.97C45.8278 36.4028 45.7635 31.8109 40.8103 31.8109C35.7858 31.8109 35.017 35.6974 35.017 39.7103V54.9279H25.3699V24.1662H34.6311V28.3701H34.7607C35.6876 26.801 37.0269 25.5102 38.636 24.6352C40.2451 23.7601 42.0638 23.3336 43.8984 23.401C53.6761 23.401 55.4789 29.7691 55.4789 38.0536L55.4749 54.9289ZM14.4847 19.9613C13.3775 19.9615 12.295 19.6366 11.3743 19.0277C10.4535 18.4187 9.73586 17.5531 9.31196 16.5403C8.88805 15.5275 8.77695 14.413 8.99277 13.3377C9.20859 12.2623 9.74162 11.2745 10.5244 10.4992C11.3072 9.7238 12.3047 9.19569 13.3906 8.98161C14.4765 8.76753 15.6022 8.8771 16.6252 9.29647C17.6482 9.71584 18.5227 10.4262 19.138 11.3376C19.7533 12.2491 20.0819 13.3208 20.0821 14.4171C20.0822 15.1451 19.9375 15.8659 19.6563 16.5385C19.3751 17.2111 18.9629 17.8222 18.4431 18.337C17.9233 18.8519 17.3062 19.2603 16.627 19.539C15.9479 19.8177 15.2199 19.9612 14.4847 19.9613ZM19.3083 54.9289H9.65114V24.1662H19.3083V54.9289ZM60.2844 0.00439214H4.80349C3.54423 -0.00967865 2.33078 0.471843 1.4299 1.34314C0.529015 2.21445 0.014392 3.40424 -0.000976562 4.65109V59.8134C0.013866 61.0609 0.528188 62.2515 1.42904 63.1237C2.32989 63.9959 3.54361 64.4784 4.80349 64.4651H60.2844C61.5468 64.4808 62.7639 63.9997 63.6683 63.1275C64.5727 62.2553 65.0904 61.0634 65.1079 59.8134V4.64711C65.0899 3.39779 64.5718 2.20664 63.6673 1.33536C62.7629 0.464079 61.5461 -0.0160665 60.2844 0.000410489" fill="#0A66C2"/>
<path d="M72.5172 56.1299C71.3435 56.1411 70.2219 56.612 69.398 57.4397C68.574 58.2674 68.1146 59.3846 68.1202 60.5468C68.1259 61.709 68.5962 62.8217 69.4281 63.6415C70.2601 64.4613 71.3861 64.9216 72.5599 64.9216C73.7337 64.9216 74.8596 64.4613 75.6916 63.6415C76.5236 62.8217 76.9939 61.709 76.9995 60.5468C77.0052 59.3846 76.5458 58.2674 75.7218 57.4397C74.8978 56.612 73.7763 56.1411 72.6026 56.1299H72.5172ZM72.5172 64.4183C71.7473 64.431 70.991 64.2174 70.3437 63.8044C69.6965 63.3915 69.1875 62.7978 68.881 62.0984C68.5746 61.399 68.4844 60.6253 68.6221 59.8752C68.7597 59.1251 69.1189 58.4323 69.6542 57.8843C70.1895 57.3363 70.8769 56.9578 71.6294 56.7966C72.382 56.6355 73.166 56.6989 73.8821 56.9789C74.5983 57.2588 75.2145 57.7428 75.6529 58.3696C76.0912 58.9963 76.332 59.7377 76.3448 60.5C76.3448 60.5219 76.3448 60.5428 76.3448 60.5646C76.3664 61.5646 75.9859 62.5321 75.2872 63.2544C74.5884 63.9767 73.6286 64.3947 72.6186 64.4163H72.5182" fill="#0A66C2"/>
</g>
<defs>
<clipPath id="clip0_105_712">
<rect width="77" height="65" fill="white"/>
</clipPath>
</defs>
</svg>
