<svg width="151" height="100" viewBox="0 0 151 100" fill="none" xmlns="http://www.w3.org/2000/svg">
<g clip-path="url(#clip0_867_897)">
<path d="M16.4766 65.9686C16.4766 71.7278 17.7384 76.1309 19.3876 78.801C20.2665 80.3212 21.5321 81.5817 23.0558 82.4544C24.5795 83.327 26.3071 83.7808 28.063 83.7696C32.3038 83.7696 36.1834 82.7225 43.6599 72.377C49.6494 64.089 56.707 52.4817 61.4609 45.1518L69.5028 32.7958C75.0892 24.2147 81.5447 14.6754 88.9688 8.18848C95.0159 2.93194 101.545 0 108.115 0C119.147 0 129.655 6.39267 137.697 18.3822C146.498 31.5131 150.786 48.0524 150.786 65.1204C150.786 75.267 148.786 82.7225 145.382 88.6126C142.1 94.3089 135.67 100 124.89 100V83.7696C134.121 83.7696 136.409 75.288 136.409 65.5812C136.409 51.7487 133.183 36.3979 126.079 25.4293C121.037 17.6492 114.503 12.8953 107.314 12.8953C99.5395 12.8953 93.2829 18.7592 86.2515 29.2147C82.5133 34.7696 78.6756 41.5393 74.3667 49.178L69.6232 57.555C60.0944 74.4503 57.6808 78.2984 52.9164 84.6492C44.5813 95.8115 37.4504 100 28.063 100C16.9269 100 9.885 95.178 5.54992 87.911C1.96353 81.9895 0.214844 74.2199 0.214844 65.3665L16.4766 65.9686Z" fill="#0081FB"/>
<path d="M13.0371 19.5288C20.4926 8.03665 31.2518 0 43.5921 0C50.7387 0 57.8434 2.09424 65.2622 8.17278C73.3774 14.7958 82.0162 25.7016 92.8172 43.6754L96.6863 50.1257C106.027 65.6859 111.346 73.6859 114.451 77.466C118.451 82.3141 121.257 83.7487 124.891 83.7487C134.121 83.7487 136.409 75.267 136.409 65.5602L150.754 65.1099C150.754 75.2565 148.754 82.712 145.351 88.6021C142.1 94.3089 135.671 100 124.891 100C118.189 100 112.252 98.5445 105.686 92.3508C100.639 87.5969 94.7387 79.1518 90.1994 71.5602L76.6968 49.0052C69.9219 37.6859 63.7073 29.2461 60.1104 25.445C56.2361 21.3141 51.2675 16.3508 43.3303 16.3508C36.9062 16.3508 31.4507 20.8586 26.8853 27.7539L13.0371 19.5288Z" fill="url(#paint0_linear_867_897)"/>
<path d="M43.33 16.3508C36.9059 16.3508 31.4504 20.8586 26.885 27.7539C20.4295 37.4974 16.4766 52.0105 16.4766 65.9686C16.4766 71.7278 17.7384 76.1309 19.3876 78.801L5.52375 87.911C1.96354 81.9895 0.214844 74.2199 0.214844 65.3665C0.214844 49.267 4.63369 32.4869 13.0368 19.5288C20.4923 8.03665 31.2515 0 43.5918 0L43.33 16.3508Z" fill="url(#paint1_linear_867_897)"/>
</g>
<defs>
<linearGradient id="paint0_linear_867_897" x1="32.8539" y1="47.4084" x2="136.519" y2="52.644" gradientUnits="userSpaceOnUse">
<stop stop-color="#0064E1"/>
<stop offset="0.4" stop-color="#0064E1"/>
<stop offset="0.83" stop-color="#0073EE"/>
<stop offset="1" stop-color="#0082FB"/>
</linearGradient>
<linearGradient id="paint1_linear_867_897" x1="21.9007" y1="72.7749" x2="21.9007" y2="34.555" gradientUnits="userSpaceOnUse">
<stop stop-color="#0082FB"/>
<stop offset="1" stop-color="#0064E0"/>
</linearGradient>
<clipPath id="clip0_867_897">
<rect width="150.602" height="100" fill="white" transform="translate(0.199219)"/>
</clipPath>
</defs>
</svg>
