<svg width="33" height="33" viewBox="0 0 33 33" fill="none" xmlns="http://www.w3.org/2000/svg">
<path d="M10.3125 13.75H14.4375C14.8175 13.75 15.125 13.4425 15.125 13.0625V8.93752C15.125 8.55751 14.8175 8.25 14.4375 8.25H10.3125C9.93251 8.25 9.625 8.55751 9.625 8.93752V13.0625C9.625 13.4426 9.93251 13.75 10.3125 13.75Z" fill="white"/>
<path d="M17.875 13.0625C17.875 13.4425 18.1825 13.75 18.5625 13.75H22.6875C23.0675 13.75 23.375 13.4425 23.375 13.0625V8.93752C23.375 8.55751 23.0675 8.25 22.6875 8.25H18.5625C18.1825 8.25 17.875 8.55751 17.875 8.93752V13.0625Z" fill="white"/>
<path d="M10.3125 22H14.4375C14.8175 22 15.125 21.6925 15.125 21.3125V17.1875C15.125 16.8075 14.8175 16.5 14.4375 16.5H10.3125C9.93251 16.5 9.625 16.8075 9.625 17.1875V21.3125C9.625 21.6926 9.93251 22 10.3125 22Z" fill="white"/>
<path d="M22.6875 16.5H18.5625C18.1825 16.5 17.875 16.8075 17.875 17.1875V21.3125C17.875 21.6925 18.1825 22 18.5625 22H22.6875C23.0675 22 23.375 21.6925 23.375 21.3125V17.1875C23.375 16.8075 23.0675 16.5 22.6875 16.5Z" fill="white"/>
<path d="M15.8125 5.50004H17.1875C17.5675 5.50004 17.875 5.19254 17.875 4.81252C17.875 4.43251 17.5675 4.125 17.1875 4.125H15.8125C15.4325 4.125 15.125 4.43251 15.125 4.81252C15.1251 5.1926 15.4326 5.50004 15.8125 5.50004Z" fill="white"/>
<path d="M24.75 0H8.25002C6.73337 0 5.5 1.23331 5.5 2.75002V30.25C5.5 31.7667 6.73337 33 8.25002 33H24.75C26.2667 33 27.5 31.7667 27.5 30.25V2.75002C27.5 1.23331 26.2667 0 24.75 0ZM18.5625 30.25H14.4375C14.0575 30.25 13.75 29.9425 13.75 29.5625C13.75 29.1824 14.0575 28.875 14.4375 28.875H18.5625C18.9425 28.875 19.25 29.1825 19.25 29.5625C19.25 29.9425 18.9425 30.25 18.5625 30.25ZM24.75 26.125H8.25002V2.75002H24.75V26.125Z" fill="white"/>
<path d="M22.6875 5.50004C23.0672 5.50004 23.375 5.19223 23.375 4.81252C23.375 4.43281 23.0672 4.125 22.6875 4.125C22.3078 4.125 22 4.43281 22 4.81252C22 5.19223 22.3078 5.50004 22.6875 5.50004Z" fill="white"/>
</svg>
