<svg width="247" height="150" viewBox="0 0 247 150" fill="none" xmlns="http://www.w3.org/2000/svg">
<path d="M58.399 39.1583H104.887V42.8566H62.6614V70.6883H102.368V74.3866H62.6614V104.943H105.371V108.642H58.399V39.1583ZM109.051 39.1583H113.991L135.879 69.715L158.25 39.1583L188.68 0.344971L138.687 72.9266L164.449 108.642H159.315L135.879 76.1383L112.345 108.642H107.308L133.263 72.9266L109.051 39.1583ZM166.29 42.8566V39.1583H219.264V42.8566H194.86V108.64H190.597V42.8566H166.29ZM0.242188 39.1583H5.56938L79.0202 149.163L48.6659 108.642L4.69653 44.4133L4.50294 108.642H0.242188V39.1583ZM218.837 103.827C217.964 103.827 217.312 103.152 217.312 102.28C217.312 101.407 217.964 100.732 218.836 100.732C219.717 100.732 220.359 101.407 220.359 102.28C220.359 103.152 219.717 103.827 218.836 103.827H218.837ZM223.023 99.755H225.304C225.336 100.992 226.239 101.822 227.564 101.822C229.046 101.822 229.885 100.93 229.885 99.2566V88.6633H232.207V99.2666C232.207 102.28 230.466 104.015 227.584 104.015C224.88 104.015 223.025 102.332 223.025 99.755H223.023ZM235.243 99.6216H237.544C237.741 101.043 239.13 101.947 241.131 101.947C242.995 101.947 244.363 100.98 244.363 99.6516C244.363 98.51 243.494 97.8233 241.513 97.3566L239.585 96.89C236.882 96.2566 235.647 94.9466 235.647 92.745C235.647 90.075 237.823 88.2983 241.087 88.2983C244.125 88.2983 246.344 90.075 246.478 92.5983H244.218C244.001 91.2183 242.8 90.355 241.057 90.355C239.221 90.355 238 91.2383 238 92.5883C238 93.6583 238.787 94.2716 240.737 94.7283L242.384 95.1333C245.451 95.85 246.716 97.0966 246.716 99.35C246.716 102.217 244.497 104.015 240.954 104.015C237.638 104.015 235.408 102.302 235.243 99.6216Z" fill="white"/>
</svg>
