<svg width="120" height="120" viewBox="0 0 120 120" fill="none" xmlns="http://www.w3.org/2000/svg">
<g clip-path="url(#clip0_486_7936)">
<path d="M59.4862 0.0336914C29.099 0.0336914 30.9964 13.2643 30.9964 13.2643L31.0301 26.9716H60.028V31.0869H19.5126C19.5126 31.0869 0.0678711 28.8727 0.0678711 59.6563C0.0678711 90.4408 17.0397 89.349 17.0397 89.349H27.1684V75.0638C27.1684 75.0638 26.6224 58.0238 43.8694 58.0238H72.6301C72.6301 58.0238 88.7887 58.2859 88.7887 42.3443V15.9857C88.7887 15.9857 91.2429 0.0336914 59.4862 0.0336914ZM43.4968 9.25157C44.182 9.25095 44.8606 9.38601 45.4938 9.649C46.127 9.912 46.7024 10.2978 47.1869 10.7843C47.6714 11.2707 48.0557 11.8484 48.3176 12.4841C48.5796 13.1199 48.7141 13.8012 48.7134 14.4892C48.7141 15.1772 48.5796 15.8586 48.3176 16.4943C48.0557 17.1301 47.6714 17.7077 47.1869 18.1942C46.7024 18.6807 46.127 19.0664 45.4938 19.3294C44.8606 19.5924 44.182 19.7275 43.4968 19.7269C42.8115 19.7275 42.1329 19.5924 41.4997 19.3294C40.8665 19.0664 40.2912 18.6807 39.8066 18.1942C39.3221 17.7077 38.9378 17.1301 38.6759 16.4943C38.414 15.8586 38.2794 15.1772 38.2801 14.4892C38.2794 13.8012 38.414 13.1199 38.6759 12.4841C38.9378 11.8484 39.3221 11.2707 39.8066 10.7843C40.2912 10.2978 40.8665 9.912 41.4997 9.649C42.1329 9.38601 42.8115 9.25095 43.4968 9.25157Z" fill="url(#paint0_linear_486_7936)"/>
<path d="M60.3489 119.589C90.7361 119.589 88.8388 106.358 88.8388 106.358L88.805 92.6512H59.8066V88.5359H100.322C100.322 88.5359 119.767 90.75 119.767 59.9656C119.767 29.1816 102.795 30.2733 102.795 30.2733H92.6662V44.558C92.6662 44.558 93.2122 61.598 75.9653 61.598H47.2045C47.2045 61.598 31.0459 61.3359 31.0459 77.278V103.637C31.0459 103.637 28.5922 119.589 60.3485 119.589H60.3489ZM76.3384 110.372C75.6531 110.372 74.9745 110.237 74.3413 109.974C73.7081 109.711 73.1328 109.325 72.6482 108.839C72.1637 108.353 71.7795 107.775 71.5175 107.139C71.2556 106.503 71.1211 105.822 71.1217 105.134C71.121 104.446 71.2555 103.765 71.5174 103.129C71.7793 102.493 72.1635 101.915 72.6481 101.429C73.1326 100.942 73.708 100.556 74.3412 100.293C74.9744 100.03 75.6531 99.8953 76.3384 99.8959C77.0236 99.8953 77.7022 100.03 78.3354 100.293C78.9686 100.556 79.544 100.942 80.0285 101.429C80.513 101.915 80.8973 102.493 81.1592 103.128C81.4212 103.764 81.5557 104.446 81.5551 105.134C81.5557 105.822 81.4212 106.503 81.1592 107.139C80.8973 107.774 80.513 108.352 80.0285 108.839C79.544 109.325 78.9686 109.711 78.3354 109.974C77.7022 110.237 77.0236 110.372 76.3384 110.372Z" fill="url(#paint1_linear_486_7936)"/>
</g>
<defs>
<linearGradient id="paint0_linear_486_7936" x1="1150.37" y1="1075.36" x2="7105.83" y2="6947.82" gradientUnits="userSpaceOnUse">
<stop stop-color="#387EB8"/>
<stop offset="1" stop-color="#366994"/>
</linearGradient>
<linearGradient id="paint1_linear_486_7936" x1="1728.9" y1="1868.39" x2="8123.19" y2="7888.94" gradientUnits="userSpaceOnUse">
<stop stop-color="#FFE052"/>
<stop offset="1" stop-color="#FFC331"/>
</linearGradient>
<clipPath id="clip0_486_7936">
<rect width="120" height="120" fill="white"/>
</clipPath>
</defs>
</svg>
