<svg width="94" height="94" viewBox="0 0 94 94" fill="none" xmlns="http://www.w3.org/2000/svg">
<mask id="mask0_243_231" style="mask-type:luminance" maskUnits="userSpaceOnUse" x="0" y="0" width="94" height="94">
<path d="M93.3859 0.540039H0.783936V93.142H93.3859V0.540039Z" fill="white"/>
</mask>
<g mask="url(#mask0_243_231)">
<mask id="mask1_243_231" style="mask-type:luminance" maskUnits="userSpaceOnUse" x="1" y="-1" width="92" height="96">
<path d="M92.2999 -0.98584H1.86987V94.6642H92.2999V-0.98584Z" fill="white"/>
</mask>
<g mask="url(#mask1_243_231)">
<path d="M41.7678 89.2223C37.2698 89.2523 32.7718 89.3883 28.3578 88.2003C19.0838 85.7043 12.1558 80.0963 7.01781 72.1403C3.51781 66.7203 1.96181 60.7023 1.91581 54.2903C1.86781 47.4603 1.84781 40.6283 1.91181 33.7983C2.00381 23.9143 6.00781 15.7503 13.0458 8.9603C18.0578 4.1243 23.8978 0.858303 30.7938 -0.407697C32.7498 -0.769697 34.7358 -0.957697 36.7258 -0.965697C43.6498 -0.985697 50.5718 -0.985697 57.4958 -0.967697C66.6998 -0.939697 74.6458 2.2423 81.3378 8.5743C87.4718 14.3723 91.1438 21.3943 92.0818 29.8023C92.2218 31.0803 92.2898 32.3663 92.2898 33.6523C92.3078 42.1363 92.3098 50.6223 92.2978 59.1063C92.2958 64.8803 88.0358 69.1523 82.2518 69.1643C75.4818 69.1783 68.7118 69.1603 61.9418 69.1763C60.9598 69.1783 60.0038 68.8663 59.0158 68.9863C57.8698 68.2383 56.7298 67.4823 55.5778 66.7463C55.2498 66.5363 54.8478 66.4323 54.6778 66.0283C53.6158 64.0403 52.6778 62.0023 52.3318 59.7263C51.9358 61.0263 51.6838 62.3443 51.0038 63.5163C48.9858 62.0843 47.0678 60.5183 45.2578 58.8303C45.4198 58.7583 45.5778 58.6763 45.7438 58.6143C49.1738 57.3343 51.2918 54.8843 52.0658 51.3343C52.5258 49.2243 52.2358 47.0643 52.2358 44.9263C53.5198 41.9623 54.8898 39.0383 56.4538 36.2083C56.7578 35.6423 57.1418 35.1223 57.5958 34.6683C58.8238 33.4703 60.3678 33.5983 61.3558 35.0003C61.7678 35.6043 62.0958 36.2623 62.3278 36.9543C62.1118 37.1003 62.1498 37.3263 62.1498 37.5363C62.1538 43.1083 62.1198 48.6803 62.1778 54.2523C62.2118 57.6423 63.8538 59.1863 67.2798 59.2083C70.5558 59.2303 73.8318 59.2243 77.1078 59.2143C80.4878 59.2043 82.1858 57.5203 82.2078 54.1243C82.2278 51.0323 82.2078 47.9403 82.2058 44.8483C83.9678 43.9303 85.8778 43.3263 87.8458 43.0663C88.2778 43.0123 88.6118 42.9263 88.7498 42.4583C88.9938 41.6323 88.9998 40.8343 88.5398 40.0723C87.9078 39.0323 86.9458 38.8483 85.9398 39.5363C84.8178 40.3023 83.6058 40.8623 82.2358 41.0223L82.1858 35.7103C82.3758 35.3283 82.7758 35.1943 83.0898 34.9623C83.9718 34.3123 84.1298 33.4303 83.5198 32.5063C83.1598 31.9603 82.6178 31.7143 82.0238 31.5403C81.8278 28.3383 80.8358 25.3723 79.3598 22.5503C77.9978 19.9483 76.1098 17.7463 74.0838 15.6523C74.9358 12.6083 73.9298 11.0443 70.7718 10.5163C70.4138 10.4423 70.0518 10.3883 69.6878 10.3543C67.1458 10.2143 64.8918 9.4743 63.2818 7.3463C63.1438 7.1823 62.9918 7.0303 62.8278 6.8943C61.9638 6.0883 60.9678 5.8383 59.7878 6.0103C57.8878 6.2883 56.7998 7.5123 55.9458 9.0663L39.0298 9.0363C38.9778 8.2503 39.1578 7.4703 39.0378 6.6763C38.9018 5.7683 38.3638 5.4023 37.2818 5.5903C36.2658 5.7663 35.8898 6.3043 36.1478 7.2363C36.3078 7.8183 36.4898 8.3943 36.6618 8.9743L35.4638 9.0723C34.2778 6.6143 33.1738 4.1383 33.2758 1.3103C33.3078 0.432303 32.4558 -0.177697 31.4138 -0.103697C30.3178 -0.0256972 29.2998 0.874303 29.4258 1.6743C29.4638 1.8523 29.5458 2.0183 29.6618 2.1563C31.1858 4.1083 31.9278 6.4023 32.5398 8.7503C32.6018 8.9863 32.8358 9.3163 32.5398 9.5063C32.3898 9.6103 32.2118 9.6723 32.0278 9.6803C31.8438 9.6883 31.6618 9.6463 31.5018 9.5563C30.9698 9.2463 30.5178 8.8183 30.1778 8.3043C29.5878 7.4463 29.0198 6.5743 28.4458 5.7063C28.0298 5.0263 27.5278 4.4043 26.9538 3.8503C26.7018 3.5983 26.3778 3.4343 26.0258 3.3803C25.6738 3.3263 25.3138 3.3883 24.9998 3.5543C24.2758 3.8843 23.9698 4.4843 23.9638 5.2463C23.9578 6.3263 24.6338 7.1983 25.7378 7.5503C25.9918 7.6303 26.3438 7.5723 26.4358 7.8943C26.7538 8.9943 27.6558 9.7003 28.2398 10.6183C28.0438 10.9323 27.6858 10.9763 27.3898 11.1183C21.5578 13.9163 16.8698 17.8963 14.1758 23.9263C12.7558 27.1043 12.1958 30.4643 12.1258 33.9203C10.8078 33.1443 9.66381 32.1243 8.42181 31.2423C7.76581 30.7763 7.11181 30.7523 6.47581 31.2283C5.78581 31.7443 5.60181 32.4603 5.83181 33.2683C6.05381 34.0543 6.44381 34.6663 7.40981 34.6243C9.52381 34.5323 10.9278 35.7563 12.1858 37.2383C12.1678 38.0263 12.1498 38.8123 12.1298 39.6003C11.3258 39.5403 10.6118 39.1703 9.86181 38.9243C8.99381 38.6403 8.14781 38.2803 7.21381 38.2563C6.13781 38.2303 5.64181 38.6843 5.57381 39.7523C5.47381 41.2883 5.70381 41.6163 6.92981 41.7503C8.68581 41.9423 10.4478 42.1123 12.1718 42.5263C12.1698 46.5683 12.1698 50.6123 12.1678 54.6563C12.1838 57.1383 12.5858 59.6043 13.3578 61.9623C14.6598 66.0283 17.1138 69.3403 20.1118 72.3083C24.0578 76.2163 28.7318 78.5703 34.2858 79.1243C37.2198 79.4183 40.1598 79.2123 43.0978 79.2683C45.3618 79.3123 47.6258 79.3143 49.8918 79.3363C49.8578 79.5843 49.6298 79.6603 49.4758 79.8003C46.4718 82.5863 43.3118 85.2423 41.7678 89.2223Z" fill="#72B52D"/>
<path d="M36.6659 8.96851C36.4939 8.39051 36.3119 7.81251 36.1519 7.23051C35.8939 6.29851 36.2699 5.76051 37.2859 5.58451C38.3679 5.39651 38.9059 5.76451 39.0419 6.67051C39.1619 7.46451 38.9819 8.24451 39.0339 9.03051C38.7859 10.7825 38.3499 12.5125 38.4559 14.3045C38.5539 15.9965 39.2019 17.3085 40.8999 17.9225C41.5979 18.1625 42.2079 18.6085 42.6459 19.2025C42.6339 19.6565 43.1099 20.1365 42.5759 20.5625C42.0279 21.0005 41.4839 20.8005 40.9399 20.5525C40.7739 20.4765 40.6179 20.3705 40.4459 20.3105C40.2139 20.2285 39.9539 20.1685 39.7379 20.3205C39.4559 20.5165 39.6679 20.7665 39.7279 20.9845C40.0919 22.2985 41.0499 23.1545 42.0499 23.9765C42.3799 24.2485 42.4559 23.9685 42.5739 23.7565C43.4199 22.2345 44.2679 20.7125 45.1139 19.1905C45.6359 18.5945 46.1399 17.9785 46.6839 17.4045C48.1819 15.8205 50.1279 14.8825 51.9679 13.7965C53.8559 12.6845 55.2359 11.1545 55.9459 9.06051C56.7979 7.50451 57.8879 6.28251 59.7879 6.00451C60.9679 5.83251 61.9639 6.08251 62.8279 6.88851C62.9919 7.02651 63.1439 7.17851 63.2819 7.34051C64.8899 9.46851 67.1459 10.2065 69.6879 10.3485C70.0519 10.3825 70.4139 10.4365 70.7719 10.5105C73.9279 11.0385 74.9359 12.6025 74.0839 15.6465C73.5279 16.4465 73.0139 17.2785 72.4079 18.0405C69.8459 21.2585 67.0439 24.2405 63.6999 26.6725C63.3879 26.8985 63.0679 27.0765 63.0799 27.5865C63.1419 30.5305 63.6359 33.3705 65.1259 35.9485C66.6119 38.5205 68.7319 40.1365 71.8559 40.1365C72.4899 40.1365 72.7659 39.9525 72.8799 39.2965C73.1179 37.9365 72.8479 36.6145 72.7239 35.2785C72.6879 34.8925 72.5099 34.4825 72.7759 34.1265C73.1519 33.6205 74.5799 33.4225 75.2759 33.7585C76.0879 34.1525 76.2279 34.7825 75.9439 35.5905C75.7599 36.1065 75.6079 36.6345 75.4879 37.1705C75.3319 37.7665 75.3519 38.3925 75.5439 38.9785C75.7459 39.5445 75.9419 39.6805 76.4879 39.2505C78.5639 37.6085 79.6039 35.3845 80.2099 32.8925C80.5499 31.4945 80.5559 31.4925 82.0239 31.5365C82.6179 31.7105 83.1599 31.9585 83.5199 32.5025C84.1279 33.4245 83.9699 34.3085 83.0899 34.9585C82.7759 35.1905 82.3779 35.3245 82.1859 35.7065C81.6699 36.0005 81.5119 36.5425 81.2839 37.0285C80.6539 38.3765 80.4139 39.8525 79.8599 41.2965C80.7079 41.3125 81.4839 41.2945 82.2339 41.0185C83.6039 40.8605 84.8159 40.3005 85.9379 39.5345C86.9459 38.8465 87.9079 39.0305 88.5379 40.0705C88.9999 40.8305 88.9919 41.6285 88.7479 42.4565C88.6099 42.9245 88.2759 43.0085 87.8439 43.0645C85.8739 43.3265 83.9659 43.9305 82.2039 44.8465C81.5019 45.1365 80.7939 45.4145 80.0999 45.7205C78.0339 46.6285 75.9479 47.4225 73.6879 47.7805C70.3019 48.3165 64.7119 45.4005 63.8039 41.8385C63.3839 40.1905 62.8219 38.5805 62.3239 36.9525C62.0919 36.2605 61.7639 35.6025 61.3519 34.9985C60.3639 33.5945 58.8199 33.4685 57.5899 34.6665C57.1359 35.1205 56.7499 35.6405 56.4479 36.2065C54.8839 39.0345 53.5139 41.9585 52.2299 44.9245C50.7799 48.1645 48.5739 50.8645 46.1739 53.4285C45.4959 54.1345 44.9379 54.9465 44.5219 55.8325C43.4999 58.0825 43.5179 57.4085 45.2539 58.8305C47.0639 60.5185 48.9819 62.0845 50.9999 63.5165C52.1499 64.4625 53.2559 65.4745 54.6739 66.0305C54.8439 66.4345 55.2459 66.5385 55.5739 66.7485C56.7259 67.4865 57.8679 68.2405 59.0119 68.9885C59.6299 69.5705 60.2899 70.1145 60.8579 70.7425C62.6039 72.6765 62.7019 75.0945 61.1439 77.1845C60.6159 77.8965 60.0179 78.5525 59.3559 79.1405C59.1599 79.3265 58.9559 79.5065 58.7699 79.7025C57.4419 81.1005 55.9399 82.3285 54.7139 83.8245C54.4639 84.1285 54.1159 84.4605 54.2559 84.8785C54.6299 86.0845 55.3859 87.1385 56.4099 87.8765C56.5079 87.9545 56.6319 87.9945 56.7559 87.9905C56.8819 87.9865 57.0019 87.9385 57.0939 87.8545C57.2879 87.6785 57.1719 87.4585 57.1139 87.2565C56.9219 86.5885 56.3399 86.2565 55.8799 85.8145C55.5519 85.5005 55.1059 85.1265 55.3379 84.6605C55.4759 84.3485 55.6919 84.0805 55.9659 83.8785C56.2399 83.6785 56.5619 83.5525 56.8999 83.5145C57.5559 83.4485 57.7259 83.9445 57.9099 84.3925C58.2339 85.1825 58.4959 86.0005 58.8399 86.7825C59.1859 87.5665 59.7879 87.7225 60.5839 87.4185C61.4959 87.0705 61.8299 86.3965 61.8239 85.4865C61.8179 84.5385 61.7579 83.5865 61.8019 82.6405C61.8439 81.7665 62.6359 80.9585 63.2979 81.0905C64.1879 81.2685 64.2699 81.9945 64.2499 82.7345C64.2359 83.2845 64.1619 83.8365 64.1819 84.3845C64.2099 85.2025 64.5739 85.4725 65.3779 85.3305C66.3259 85.1625 66.8459 84.5225 67.1759 83.6765C67.7219 82.2745 67.9019 80.7765 68.2979 79.3365C68.6979 78.7445 69.0019 78.0645 69.7759 77.8385C70.9399 77.5005 71.6439 77.9025 72.2779 79.2845C72.2819 80.1165 72.0239 80.9265 71.5399 81.6025C70.9639 82.4645 70.3439 83.3005 69.7319 84.1365C68.9559 85.1945 68.1039 86.2165 67.6719 87.4745C67.4819 88.0305 67.0219 88.6245 67.5779 89.2425C67.7679 89.4265 68.0119 89.5485 68.2739 89.5885C69.6199 89.8925 70.9059 89.6265 72.1879 89.2525L72.4519 89.2065C73.1459 89.1025 73.8419 89.0185 74.5299 88.8905C75.1799 88.7705 75.5979 88.9885 75.7779 89.6265C75.9179 90.0285 76.0219 90.4405 76.0919 90.8605C76.2139 92.0185 75.8699 92.4505 74.7219 92.6785C73.1479 92.9905 71.5539 92.9825 69.9699 92.8745C67.3739 92.6925 64.7699 93.0425 62.3139 93.9025C59.6959 94.8045 56.8719 94.9205 54.1899 94.2405C51.1459 93.5105 48.0259 93.3965 44.9299 93.0745C44.4439 93.0245 43.9639 92.9345 43.4939 92.8085C41.7179 92.3325 41.2939 91.5925 41.7019 89.7705C41.7319 89.5905 41.7519 89.4105 41.7599 89.2285C43.3059 85.2505 46.4639 82.5925 49.4719 79.8105C49.6239 79.6685 49.8539 79.5945 49.8879 79.3465C51.7779 77.8525 53.5119 76.1705 55.0639 74.3265C55.3899 73.9425 55.1679 73.8565 54.8259 73.7125C51.0339 72.1245 47.2479 70.5265 43.4639 68.9185C41.2879 67.8045 39.2439 66.4645 37.1319 65.2405C35.7019 64.4105 34.2319 63.6585 32.6199 63.2365C31.0679 62.8285 29.5079 62.6225 27.9319 63.1345C27.6559 63.0925 27.3739 63.1545 27.1419 63.3105C26.5119 63.6505 26.2719 63.4765 26.1619 62.7865C25.9539 61.4785 25.4339 60.2725 24.7879 59.1185C23.6839 57.1465 22.5859 55.1705 21.4939 53.1925C19.6659 49.8645 17.7799 46.5845 15.0699 43.8565C14.2439 43.0245 13.3299 42.5525 12.1679 42.5385C10.4439 42.1245 8.68389 41.9545 6.92589 41.7625C5.69989 41.6285 5.46989 41.3005 5.56989 39.7645C5.63989 38.6965 6.13589 38.2425 7.20989 38.2685C8.14189 38.2905 8.98989 38.6505 9.85789 38.9365C10.6079 39.1825 11.3219 39.5505 12.1259 39.6125C12.8119 39.9205 13.5039 39.9385 14.3359 39.6565C13.5619 38.8305 13.0039 37.9305 12.1799 37.2505C10.9219 35.7685 9.51789 34.5445 7.40389 34.6365C6.43789 34.6785 6.04789 34.0665 5.82589 33.2805C5.59789 32.4725 5.77989 31.7565 6.46989 31.2405C7.10789 30.7645 7.75989 30.7865 8.41589 31.2545C9.65789 32.1385 10.8019 33.1565 12.1199 33.9325C13.9879 35.4785 15.9619 36.8965 18.0239 38.1745C18.1019 37.5465 17.8179 37.1485 17.5579 36.7425C17.2439 36.2565 16.7719 35.8945 16.5139 35.3585C16.1079 34.5165 16.6399 34.0525 17.1899 33.6025C17.7359 33.1565 18.1299 33.4905 18.5239 33.8825C19.3059 34.6645 19.6739 35.6685 20.0439 36.6665C20.6459 38.2905 21.1119 39.9685 21.9419 41.5025C22.2499 41.9525 22.4779 42.4865 23.1339 42.6965C23.2179 41.7425 23.2939 40.8665 23.3739 39.9905C23.4799 38.8285 23.6639 37.6885 24.4099 36.7305C25.1999 35.7165 26.3419 35.2985 27.5279 35.2325C28.3379 35.1885 28.7039 36.0885 29.1739 36.6585C29.5379 37.1085 29.8659 37.5885 30.1519 38.0925C30.7899 39.1965 31.3959 40.3185 32.0139 41.4345C32.7899 43.3545 33.8039 45.1705 35.0359 46.8365C35.8019 41.4685 37.2619 36.5385 38.9379 31.6665C39.3619 30.4325 39.3559 30.4305 38.0899 29.9725C36.2779 28.7145 35.2899 26.8865 34.6079 24.8625C34.1919 23.6245 33.8319 22.3665 33.4479 21.1185C32.9419 18.7085 32.2899 16.3405 31.2439 14.1045C30.5739 12.6725 29.4979 11.5605 28.2319 10.6265C27.6499 9.70651 26.7479 9.00251 26.4299 7.90251C26.3359 7.57851 25.9859 7.63851 25.7319 7.55851C24.6259 7.20651 23.9519 6.33451 23.9579 5.25451C23.9619 4.49051 24.2699 3.89251 24.9939 3.56251C25.3079 3.39651 25.6679 3.33451 26.0199 3.38851C26.3719 3.44251 26.6979 3.60651 26.9479 3.85851C27.5219 4.41251 28.0239 5.03451 28.4399 5.71451C29.0139 6.58251 29.5819 7.45651 30.1719 8.31251C30.5119 8.82651 30.9639 9.25451 31.4959 9.56451C31.6559 9.65451 31.8379 9.69651 32.0219 9.68851C32.2059 9.68051 32.3819 9.61851 32.5339 9.51451C32.8299 9.32451 32.5959 8.99451 32.5339 8.75851C31.9219 6.41051 31.1799 4.11651 29.6559 2.16451C29.5399 2.02451 29.4579 1.85851 29.4199 1.68251C29.2939 0.882509 30.3119 -0.0174906 31.4079 -0.0954906C32.4499 -0.169491 33.3019 0.440509 33.2699 1.31851C33.1659 4.14651 34.2719 6.62251 35.4579 9.08051C35.7339 9.78851 36.0119 10.4965 36.3399 11.3405C36.9239 10.4785 37.0419 9.75451 36.6659 8.96851ZM52.6179 89.2085C52.8419 89.1865 53.0619 89.1505 53.2799 89.0965C54.2199 88.8285 54.2979 88.5165 53.6199 87.7885C53.4479 87.5945 53.2379 87.4385 53.0039 87.3265C52.7699 87.2145 52.5159 87.1505 52.2559 87.1365C51.9979 87.1225 51.7379 87.1625 51.4939 87.2505C51.2499 87.3385 51.0259 87.4745 50.8339 87.6485C50.1979 88.2205 50.2519 88.5285 51.0579 88.8685C51.5519 89.0845 52.0819 89.1985 52.6179 89.2085Z" fill="white"/>
<path d="M68.3039 79.3283C67.9079 80.7703 67.7259 82.2663 67.1819 83.6683C66.8519 84.5143 66.3319 85.1563 65.3839 85.3223C64.5779 85.4643 64.2159 85.1943 64.1859 84.3763C64.1659 83.8283 64.2419 83.2763 64.2539 82.7263C64.2719 81.9883 64.1919 81.2603 63.3019 81.0823C62.6379 80.9503 61.8459 81.7583 61.8059 82.6323C61.7619 83.5783 61.8199 84.5303 61.8279 85.4783C61.8339 86.3883 61.4999 87.0623 60.5879 87.4103C59.7919 87.7123 59.1879 87.5583 58.8439 86.7743C58.4999 85.9923 58.2379 85.1763 57.9139 84.3843C57.7299 83.9363 57.5599 83.4403 56.9039 83.5063C56.5659 83.5443 56.2439 83.6703 55.9699 83.8703C55.6959 84.0723 55.4799 84.3403 55.3419 84.6523C55.1099 85.1183 55.5559 85.4923 55.8839 85.8063C56.3439 86.2483 56.9259 86.5803 57.1179 87.2483C57.1759 87.4503 57.2919 87.6703 57.0979 87.8463C57.0039 87.9303 56.8839 87.9783 56.7599 87.9823C56.6339 87.9863 56.5119 87.9463 56.4139 87.8683C55.3899 87.1283 54.6339 86.0763 54.2599 84.8703C54.1199 84.4523 54.4679 84.1223 54.7179 83.8163C55.9439 82.3203 57.4459 81.0923 58.7739 79.6943C58.9599 79.4983 59.1639 79.3183 59.3599 79.1323C59.6879 79.3823 60.0679 79.2623 60.4219 79.2663C63.0479 79.2983 65.6759 79.3103 68.3039 79.3283Z" fill="#72B52D"/>
<path d="M67.5839 89.2344C67.0279 88.6184 67.4879 88.0224 67.6779 87.4664C68.1099 86.2084 68.9619 85.1884 69.7379 84.1284C70.3519 83.2924 70.9699 82.4564 71.5459 81.5944C72.0299 80.9184 72.2879 80.1064 72.2839 79.2764C72.6079 79.5004 72.4599 79.8384 72.4619 80.1184C72.4719 83.1444 72.4639 86.1704 72.4599 89.1964C72.3719 89.2124 72.2839 89.2264 72.1959 89.2424C70.6599 89.2424 69.1219 89.2384 67.5839 89.2344Z" fill="#72B52D"/>
<path d="M21.9519 41.4924C22.3179 40.8644 22.1079 40.1803 22.1099 39.5303C22.1219 35.8583 22.8019 32.3524 24.7179 29.1764C26.8459 25.6504 29.6459 22.8264 33.4579 21.1104C33.8419 22.3584 34.2019 23.6164 34.6179 24.8544C35.2999 26.8784 36.2859 28.7064 38.0999 29.9644C35.1779 31.5464 33.3219 33.9543 32.4539 37.1583C32.0739 38.5644 32.1619 40.0023 32.0239 41.4244C31.4059 40.3083 30.7999 39.1864 30.1619 38.0824C29.8759 37.5784 29.5499 37.0984 29.1839 36.6484C28.7139 36.0784 28.3459 35.1784 27.5379 35.2224C26.3519 35.2884 25.2099 35.7064 24.4199 36.7204C23.6739 37.6784 23.4899 38.8183 23.3839 39.9804C23.3039 40.8563 23.2279 41.7323 23.1439 42.6863C22.4879 42.4763 22.2599 41.9424 21.9519 41.4924Z" fill="#72B52D"/>
<path d="M43.4677 68.9102C37.1677 69.9982 32.1737 67.5802 27.9377 63.1242C29.5117 62.6122 31.0717 62.8182 32.6237 63.2262C34.2357 63.6502 35.7057 64.4022 37.1357 65.2302C39.2477 66.4562 41.2937 67.7962 43.4677 68.9102Z" fill="#72B52D"/>
<path d="M42.6438 19.2021C43.4638 19.1061 44.2918 19.1021 45.1138 19.1901C44.2678 20.7121 43.4198 22.2341 42.5738 23.7561C42.4558 23.9681 42.3798 24.2481 42.0498 23.9761C41.0498 23.1521 40.0898 22.2981 39.7278 20.9841C39.6678 20.7661 39.4578 20.5181 39.7378 20.3201C39.9558 20.1681 40.2138 20.2281 40.4458 20.3101C40.6178 20.3701 40.7718 20.4761 40.9398 20.5521C41.4818 20.8021 42.0278 21.0001 42.5758 20.5621C43.1078 20.1361 42.6318 19.6561 42.6438 19.2021Z" fill="#72B52D"/>
<path d="M52.6179 89.2084C52.0819 89.1984 51.5519 89.0844 51.0579 88.8704C50.2519 88.5304 50.1979 88.2224 50.8339 87.6504C51.0259 87.4744 51.2499 87.3404 51.4939 87.2524C51.7379 87.1644 51.9979 87.1264 52.2559 87.1384C52.5139 87.1524 52.7699 87.2164 53.0039 87.3284C53.2379 87.4404 53.4479 87.5984 53.6199 87.7904C54.2979 88.5164 54.2199 88.8304 53.2799 89.0984C53.0639 89.1504 52.8419 89.1864 52.6179 89.2084Z" fill="#72B52D"/>
</g>
</g>
</svg>
