<svg width="101" height="100" viewBox="0 0 101 100" fill="none" xmlns="http://www.w3.org/2000/svg">
<path fill-rule="evenodd" clip-rule="evenodd" d="M100.24 23.1638C100.24 10.371 89.9095 0 77.1566 0H23.8434C11.0991 0 0.76001 10.371 0.76001 23.1638V59.9505L2.60287 59.383C6.68658 58.1221 8.73709 57.4917 9.9051 55.8956C11.0818 54.2995 11.0818 52.1533 11.0818 47.8619V23.1638C11.0818 16.0914 16.8007 10.3579 23.8434 10.3579H77.1566C84.1906 10.3579 89.9009 16.0707 89.9182 23.1259V32.4541L100.24 29.2705V23.1638ZM100.24 40.0875L98.4058 40.6549C96.3725 41.2821 94.8498 41.753 93.6817 42.2641C92.4964 42.7817 91.6832 43.3393 91.0948 44.1423C90.8526 44.4711 90.6536 44.8237 90.4978 45.2133C90.3248 45.6689 90.2037 46.1757 90.1172 46.7573C89.9182 48.0876 89.9182 49.8041 89.9182 52.175V76.8362C89.9182 83.9085 84.208 89.642 77.1566 89.642H23.8434C16.8094 89.642 11.1077 83.9292 11.0818 76.8742V67.5839L0.76001 70.7674V76.8362C0.76001 89.629 11.0991 100 23.8434 100H77.1566C89.9095 100 100.24 89.629 100.24 76.8362V40.0875ZM28.576 65.6969V46.3569C28.576 41.2593 29.6401 40.1959 34.7189 40.1959H36.6136C41.701 40.1959 42.7565 41.2593 42.7565 46.3569V65.6969C42.7565 70.7946 41.701 71.8579 36.6136 71.8579H34.7189C29.6401 71.8579 28.576 70.7934 28.576 65.6969ZM58.2434 34.3139C58.2434 29.2174 59.3077 28.1529 64.3863 28.1529H66.2812C71.3684 28.1529 72.4239 29.2162 72.4239 34.3139V65.6958C72.4239 70.7934 71.3684 71.8569 66.2812 71.8569H64.3863C59.3077 71.8569 58.2434 70.7934 58.2434 65.6958V34.3139Z" fill="#FF5B49"/>
</svg>
