<svg width="120" height="120" viewBox="0 0 120 120" fill="none" xmlns="http://www.w3.org/2000/svg">
<g clip-path="url(#clip0_486_8031)">
<path d="M26.6721 0H93.1408C96.3752 0 99.5158 0.515625 102.563 1.59375C106.969 3.1875 110.953 6 113.953 9.65625C117 13.3125 119.016 17.8125 119.719 22.5C120 24.2344 120.047 25.9688 120.047 27.7031V92.5312C120.047 94.5938 119.953 96.7031 119.531 98.7188C118.594 103.359 116.391 107.719 113.203 111.234C110.063 114.75 105.938 117.375 101.485 118.781C98.7658 119.625 95.9533 120 93.0939 120C91.8283 120 26.4846 120 25.5002 119.953C20.719 119.719 15.9846 118.172 12.0002 115.5C8.10958 112.875 4.92208 109.219 2.85958 105C1.07833 101.391 0.187701 97.3594 0.187701 93.3281V26.6719C0.0939512 22.6875 0.937701 18.75 2.67208 15.1875C4.6877 10.9688 7.82833 7.26562 11.719 4.64062C15.7033 1.92187 20.3908 0.328125 25.1721 0.09375C25.6408 0 26.1565 0 26.6721 0Z" fill="url(#paint0_linear_486_8031)"/>
<path d="M101.25 98.1562C100.828 97.5 100.359 96.8438 99.8438 96.2344C98.6719 94.8281 97.3125 93.6094 95.8125 92.5781C93.9375 91.3125 91.7344 90.5156 89.4844 90.4219C87.8906 90.3281 86.2969 90.6094 84.7969 91.1719C83.2969 91.6875 81.8438 92.4375 80.4375 93.1875C78.7969 94.0312 77.1562 94.875 75.4219 95.5781C73.3594 96.4219 71.2031 97.0781 69 97.5469C66.2344 98.0625 63.4219 98.25 60.6562 98.2031C55.6406 98.1094 50.625 97.3594 45.8438 95.9531C41.625 94.6875 37.5938 92.9531 33.7969 90.75C30.4688 88.8281 27.375 86.625 24.4688 84.1406C22.0781 82.0781 19.875 79.875 17.8125 77.5312C16.4063 75.8906 15.0469 74.1562 13.7813 72.375C13.2656 71.6719 12.7969 70.9219 12.375 70.1719L0 56.8125V26.5781C0 11.9063 11.8594 0 26.5313 0H50.2031L67.7344 17.8125C107.297 44.7188 94.5 74.3906 94.5 74.3906C94.5 74.3906 105.75 87.0469 101.25 98.1562Z" fill="url(#paint1_linear_486_8031)"/>
<path d="M67.8281 17.8125C107.391 44.7188 94.5938 74.3906 94.5938 74.3906C94.5938 74.3906 105.844 87.0938 101.297 98.2031C101.297 98.2031 96.6563 90.4219 88.875 90.4219C81.375 90.4219 76.9688 98.2031 61.875 98.2031C28.2656 98.2031 12.375 70.125 12.375 70.125C42.6563 90.0469 63.3281 75.9375 63.3281 75.9375C49.6875 68.0156 20.6719 30.1406 20.6719 30.1406C45.9375 51.6563 56.8594 57.3281 56.8594 57.3281C50.3438 51.9375 32.0625 25.5937 32.0625 25.5937C46.6875 40.4062 75.75 61.0781 75.75 61.0781C84 38.2031 67.8281 17.8125 67.8281 17.8125Z" fill="white"/>
</g>
<defs>
<linearGradient id="paint0_linear_486_8031" x1="71.3866" y1="-4.28203" x2="48.7146" y2="124.297" gradientUnits="userSpaceOnUse">
<stop stop-color="#FAAE42"/>
<stop offset="1" stop-color="#EF3E31"/>
</linearGradient>
<linearGradient id="paint1_linear_486_8031" x1="61.2244" y1="1.93875" x2="44.6311" y2="96.0436" gradientUnits="userSpaceOnUse">
<stop stop-color="#E39F3A"/>
<stop offset="1" stop-color="#D33929"/>
</linearGradient>
<clipPath id="clip0_486_8031">
<rect width="120" height="120" fill="white"/>
</clipPath>
</defs>
</svg>
