<svg width="200" height="78" viewBox="0 0 200 78" fill="none" xmlns="http://www.w3.org/2000/svg">
<path d="M113.988 2.92805C110.258 4.79706 108.642 8.28587 108.642 17.7555C108.642 17.7555 110.507 15.8865 113.491 14.7651C115.667 13.9552 117.221 12.8961 118.341 12.0862C121.573 9.65648 122.071 6.72837 122.071 1.61974C122.009 1.61974 116.911 1.30824 113.988 2.92805Z" fill="#FBBD71"/>
<path d="M91.1711 5.10868C87.9381 7.7876 87.1298 12.3978 87.1298 12.3978L76.6849 52.5192L68.1051 19.687C67.2968 16.1981 65.6803 11.8994 63.2556 8.909C60.2713 5.10868 54.0541 4.85948 53.308 4.85948C52.7484 4.85948 46.5934 5.10868 43.3604 8.909C40.9357 11.8994 39.3192 16.1981 38.5109 19.687L30.4285 52.5192L19.9835 12.3978C19.9835 12.3978 19.1753 8.0991 15.9423 5.10868C10.8442 0.498461 3.32129 1.61987 3.32129 1.61987L23.2165 76.6917C23.2165 76.6917 29.6824 77.2524 32.9154 75.6326C37.2053 73.4521 39.3814 71.8946 41.8061 61.6151C44.2308 52.4569 50.6968 25.7924 51.1941 23.9234C51.4428 23.1135 52.0024 20.6838 53.6189 20.6838C55.2353 20.6838 55.7949 22.8643 56.0436 23.9234C56.6031 25.7924 63.0069 52.4569 65.4316 61.6151C68.1051 71.8323 69.9702 73.4521 74.3223 75.6326C77.5553 77.2524 84.0212 76.6917 84.0212 76.6917L103.792 1.61987C103.792 1.61987 96.2692 0.560762 91.1711 5.10868ZM122.009 13.7061C122.009 13.7061 120.641 15.5751 117.967 17.1949C116.102 18.2541 114.486 18.8148 112.621 19.8739C109.388 21.4937 108.579 23.1135 108.579 25.5432V76.4425C108.579 76.4425 113.678 77.0032 116.91 75.3834C121.2 73.2029 122.009 71.0847 122.009 61.9266V16.6965V13.7061ZM171.436 39.3116L196.678 1.86907C196.678 1.86907 186.233 5.8651e-05 180.824 4.85948C177.342 7.8499 173.861 13.4569 173.861 13.4569L164.721 26.9138C164.162 27.7237 163.664 28.2844 162.856 28.2844C162.048 28.2844 161.239 27.4745 160.991 26.9138L151.851 13.4569C151.851 13.4569 148.121 8.0991 144.888 4.85948C139.541 5.8651e-05 129.034 1.86907 129.034 1.86907L153.468 39.2493L128.475 76.6294C128.475 76.6294 139.479 78 144.888 73.1406C148.37 70.1502 151.603 65.0416 151.603 65.0416L160.742 51.5847C161.302 50.7748 161.799 50.2141 162.607 50.2141C163.416 50.2141 164.224 51.024 164.472 51.5847L173.612 65.0416C173.612 65.0416 177.093 70.1502 180.326 73.1406C185.673 78 196.429 76.6294 196.429 76.6294L171.436 39.3116Z" fill="white"/>
</svg>
