<svg width="150" height="150" viewBox="0 0 150 150" fill="none" xmlns="http://www.w3.org/2000/svg">
<g clip-path="url(#clip0_453_7937)">
<path d="M75.0027 150C33.4392 150 -0.310822 116.874 0.00265447 74.9997C0.316131 33.1257 31.8777 -0.000244141 75.0027 -0.000244141C118.131 -0.000244141 150.003 33.7498 150.003 74.9997C150.003 116.25 116.566 150 75.0027 150ZM97.1892 138.436L75.9401 81.2488L55.9392 139.687C70.6286 143.127 80.6276 144.061 97.1892 138.436ZM45.3161 135.313L13.4411 48.1257C9.06418 57.5007 8.12961 65.3142 7.50266 74.9997C7.81613 100.623 22.1892 124.06 45.3161 135.313ZM142.192 74.9997C142.503 58.4382 135.006 45.3132 134.379 43.4382C135.006 56.2527 133.128 62.8122 130.942 70.0017L109.066 132.814C136.567 116.25 141.876 91.5613 142.503 74.9997H142.192ZM72.8171 72.1873L62.1911 43.1248L54.3777 42.5007C51.2546 40.3123 53.1267 36.8757 55.3152 36.8757C69.3777 37.8132 77.1882 37.8132 91.2536 36.8757C94.6931 36.8757 95.6276 41.8767 91.5642 42.5007L84.0642 43.1248L108.436 114.999L119.997 75.6238C120.624 58.4382 115.933 56.5632 109.684 44.0623C104.683 34.3738 109.998 24.9988 119.686 24.6882C111.87 17.1882 95.9353 7.81323 74.9968 7.49976C54.0583 7.18628 31.8718 17.8123 18.7468 37.8132L41.8737 37.1892C44.6862 38.4402 43.4353 42.5007 41.8737 42.8142L33.7497 43.4382L58.1247 116.563L72.8171 72.1873Z" fill="#21759B"/>
</g>
<defs>
<clipPath id="clip0_453_7937">
<rect width="150" height="150" fill="white"/>
</clipPath>
</defs>
</svg>
