<svg width="148" height="36" viewBox="0 0 148 36" fill="none" xmlns="http://www.w3.org/2000/svg">
<path d="M44 36V12H36V36H28V0H36V8H48V12H52V36H44ZM64 16V36H56V8H64V12H68V8H76V16H64ZM104 28V32H100V28H104ZM84 36V32H80V12H84V8H100V12H104V24H88V32H100V36H84ZM96 20V12H88V20H96ZM120 4V8H124V12H120V36H112V12H108V8H112V4H116V0H128V4H120ZM140 16V20H144V24H148V32H144V36H132V32H140V28H136V24H132V20H128V12H132V8H144V12H136V16H140ZM128 28H132V32H128V28ZM148 16H144V12H148V16Z" fill="white"/>
<path fill-rule="evenodd" clip-rule="evenodd" d="M4 36V32H0V24H4V20H16V12H4V8H20V12H24V36H4ZM8 24V32H16V24H8ZM0 16V12H4V16H0Z" fill="#FF8800"/>
</svg>
