<svg width="205" height="120" viewBox="0 0 205 120" fill="none" xmlns="http://www.w3.org/2000/svg">
<g clip-path="url(#clip0_486_8148)">
<path d="M58.4368 43.5818C58.4368 46.0512 58.704 48.0534 59.1717 49.5217C59.7062 50.99 60.3743 52.5918 61.3097 54.327C61.6438 54.861 61.7774 55.3949 61.7774 55.8621C61.7774 56.5295 61.3765 57.1969 60.508 57.8643L56.2987 60.6674C55.6974 61.0679 55.0961 61.2681 54.5616 61.2681C53.8935 61.2681 53.2253 60.9344 52.5572 60.3337C51.6218 59.3326 50.8201 58.2647 50.1519 57.1969C49.4838 56.0623 48.8157 54.7942 48.0807 53.2592C42.8693 59.3993 36.3216 62.4694 28.4377 62.4694C22.8254 62.4694 18.3489 60.8676 15.075 57.6641C11.8012 54.4605 10.1309 50.1891 10.1309 44.8498C10.1309 39.1769 12.1353 34.5718 16.2109 31.1012C20.2865 27.6307 25.6983 25.8954 32.5801 25.8954C34.8517 25.8954 37.1902 26.0957 39.6623 26.4294C42.1343 26.7631 44.6733 27.297 47.3458 27.8977V23.0256C47.3458 17.9533 46.2768 14.416 44.2056 12.3471C42.0675 10.2781 38.4596 9.27697 33.315 9.27697C30.9766 9.27697 28.5713 9.54394 26.0992 10.1446C23.6271 10.7453 21.2218 11.4794 18.8834 12.4138C17.8144 12.881 17.0126 13.1479 16.5449 13.2814C16.0772 13.4149 15.7432 13.4816 15.4759 13.4816C14.5405 13.4816 14.0728 12.8142 14.0728 11.4127V8.14238C14.0728 7.07453 14.2065 6.27364 14.5405 5.80645C14.8746 5.33927 15.4759 4.87208 16.4113 4.40489C18.7498 3.20356 21.5559 2.20245 24.8297 1.40156C28.1036 0.533927 31.5779 0.133482 35.2526 0.133482C43.2034 0.133482 49.0161 1.93548 52.7576 5.53949C56.4324 9.14349 58.3031 14.6162 58.3031 21.9577V43.5818H58.4368ZM31.3106 53.7264C33.5155 53.7264 35.7871 53.3259 38.1924 52.525C40.5976 51.7241 42.7357 50.2558 44.5396 48.2536C45.6086 46.9855 46.4104 45.584 46.8113 43.9822C47.2121 42.3804 47.4794 40.4449 47.4794 38.1758V35.3726C45.5418 34.9055 43.4706 34.505 41.3326 34.238C39.1946 33.9711 37.1234 33.8376 35.0522 33.8376C30.5757 33.8376 27.3018 34.7052 25.097 36.5072C22.8922 38.3092 21.8232 40.8454 21.8232 44.1824C21.8232 47.3193 22.6249 49.6552 24.2952 51.257C25.8988 52.9255 28.2372 53.7264 31.3106 53.7264ZM84.9616 60.9344C83.7589 60.9344 82.9572 60.7342 82.4227 60.267C81.8882 59.8665 81.4205 58.9322 81.0196 57.6641L65.3185 6.07341C64.9176 4.7386 64.7172 3.87097 64.7172 3.40378C64.7172 2.33593 65.2517 1.73526 66.3207 1.73526H72.8684C74.1378 1.73526 75.0064 1.93548 75.4741 2.40267C76.0086 2.80311 76.4095 3.73749 76.8104 5.00556L88.035 49.188L98.4578 5.00556C98.7919 3.67075 99.1928 2.80311 99.7273 2.40267C100.262 2.00222 101.197 1.73526 102.4 1.73526H107.745C109.014 1.73526 109.883 1.93548 110.417 2.40267C110.952 2.80311 111.42 3.73749 111.687 5.00556L122.243 49.7219L133.802 5.00556C134.203 3.67075 134.671 2.80311 135.138 2.40267C135.673 2.00222 136.541 1.73526 137.744 1.73526H143.958C145.027 1.73526 145.628 2.26919 145.628 3.40378C145.628 3.73749 145.561 4.07119 145.494 4.47164C145.427 4.87208 145.294 5.40601 145.027 6.14016L128.925 57.7308C128.524 59.0656 128.056 59.9333 127.522 60.3337C126.987 60.7342 126.118 61.0011 124.983 61.0011H119.237C117.967 61.0011 117.099 60.8009 116.564 60.3337C116.03 59.8665 115.562 58.9989 115.295 57.6641L104.939 14.6162L94.6495 57.5973C94.3154 58.9322 93.9145 59.7998 93.38 60.267C92.8455 60.7342 91.9101 60.9344 90.7075 60.9344H84.9616ZM170.816 62.7364C167.342 62.7364 163.868 62.3359 160.527 61.535C157.187 60.7342 154.581 59.8665 152.844 58.8654C151.775 58.2647 151.04 57.5973 150.772 56.9967C150.505 56.396 150.372 55.7286 150.372 55.1279V51.7241C150.372 50.3226 150.906 49.6552 151.908 49.6552C152.309 49.6552 152.71 49.7219 153.111 49.8554C153.512 49.9889 154.113 50.2558 154.781 50.5228C157.053 51.5239 159.525 52.3248 162.131 52.8587C164.803 53.3927 167.409 53.6596 170.081 53.6596C174.291 53.6596 177.565 52.9255 179.836 51.4572C182.108 49.9889 183.31 47.8532 183.31 45.1168C183.31 43.2481 182.709 41.713 181.507 40.4449C180.304 39.1769 178.032 38.0423 174.758 36.9744L165.07 33.9711C160.193 32.436 156.585 30.1669 154.38 27.1635C152.176 24.2269 151.04 20.9566 151.04 17.4861C151.04 14.683 151.641 12.2136 152.844 10.0779C154.046 7.94216 155.65 6.07342 157.654 4.60512C159.659 3.07008 161.93 1.93548 164.603 1.13459C167.275 0.333704 170.081 0 173.021 0C174.491 0 176.028 0.0667408 177.498 0.266963C179.034 0.467186 180.438 0.734149 181.841 1.00111C183.177 1.33482 184.446 1.66852 185.649 2.06897C186.852 2.46941 187.787 2.86986 188.455 3.2703C189.39 3.80423 190.059 4.33815 190.459 4.93882C190.86 5.47275 191.061 6.2069 191.061 7.14127V10.2781C191.061 11.6796 190.526 12.4138 189.524 12.4138C188.99 12.4138 188.121 12.1468 186.985 11.6129C183.177 9.87764 178.901 9.01001 174.157 9.01001C170.349 9.01001 167.342 9.61068 165.271 10.8788C163.2 12.1468 162.131 14.0823 162.131 16.8187C162.131 18.6874 162.799 20.2892 164.135 21.5573C165.471 22.8254 167.943 24.0934 171.485 25.228L180.972 28.2314C185.783 29.7664 189.257 31.9021 191.328 34.6385C193.399 37.3749 194.401 40.5117 194.401 43.9822C194.401 46.8521 193.8 49.455 192.664 51.7241C191.462 53.9933 189.858 55.9956 187.787 57.5973C185.716 59.2659 183.244 60.4672 180.371 61.3348C177.364 62.2692 174.224 62.7364 170.816 62.7364Z" fill="#252F3E"/>
<path fill-rule="evenodd" clip-rule="evenodd" d="M183.444 95.1728C161.463 111.391 129.526 120 102.066 120C63.5814 120 28.9054 105.785 2.71467 82.1583C0.643462 80.2896 2.51423 77.7534 4.98632 79.2217C33.3151 95.64 68.2583 105.584 104.404 105.584C128.791 105.584 155.583 100.512 180.237 90.1005C183.912 88.432 187.052 92.5031 183.444 95.1728Z" fill="#FF9900"/>
<path fill-rule="evenodd" clip-rule="evenodd" d="M192.597 84.7611C189.791 81.1571 174.023 83.0258 166.874 83.8934C164.736 84.1604 164.402 82.2917 166.34 80.8901C178.901 72.0803 199.546 74.6165 201.951 77.5531C204.357 80.5564 201.283 101.179 189.524 111.057C187.72 112.592 185.983 111.791 186.785 109.789C189.457 103.182 195.404 88.2983 192.597 84.7611Z" fill="#FF9900"/>
</g>
<defs>
<clipPath id="clip0_486_8148">
<rect width="205" height="120" fill="white"/>
</clipPath>
</defs>
</svg>
