<svg width="127" height="120" viewBox="0 0 127 120" fill="none" xmlns="http://www.w3.org/2000/svg">
<g clip-path="url(#clip0_486_8153)">
<path d="M42.3648 0.12134H79.9008L40.9345 115.799C40.7352 116.39 40.4452 116.946 40.075 117.448C39.7055 117.949 39.2599 118.389 38.7541 118.753C38.2482 119.116 37.69 119.399 37.097 119.59C36.5039 119.78 35.8855 119.879 35.2639 119.879H6.05141C5.10314 119.879 4.16755 119.653 3.32394 119.218C2.47943 118.784 1.75044 118.155 1.19746 117.382C0.644131 116.61 0.282143 115.717 0.141362 114.777C0.000231646 113.837 0.0858615 112.876 0.388737 111.976L36.6926 4.19746C36.8908 3.60676 37.181 3.051 37.5521 2.54923C37.9216 2.04745 38.3687 1.60761 38.873 1.24398C39.3789 0.880352 39.937 0.597707 40.5301 0.40716C41.1232 0.216613 41.7416 0.118164 42.3632 0.118164V0.119752L42.3648 0.12134Z" fill="url(#paint0_linear_486_8153)"/>
<path d="M111.56 119.878H77.8547C77.4789 119.878 77.1031 119.843 76.732 119.772C76.3626 119.702 75.9994 119.597 75.649 119.459C75.2985 119.321 74.9623 119.15 74.6436 118.949C74.3253 118.748 74.0264 118.517 73.7508 118.26L35.5029 82.4915C35.0983 82.1132 34.8166 81.6219 34.6941 81.0814C34.5718 80.5409 34.6148 79.9759 34.8176 79.4602C35.0204 78.9445 35.3736 78.5018 35.8311 78.1899C36.2894 77.8786 36.8301 77.7119 37.3835 77.7119H96.9058L111.556 119.88L111.56 119.878Z" fill="#0078D4"/>
<path d="M80.0352 0.121168L53.7596 77.7199L96.6918 77.7103L111.419 119.878H77.8406C77.4933 119.875 77.146 119.843 76.8035 119.782C76.461 119.72 76.1248 119.629 75.7981 119.508C75.1431 119.269 74.5338 118.92 73.9967 118.475L48.1778 94.3451L40.95 115.69C40.7628 116.223 40.506 116.73 40.1856 117.195C39.5436 118.131 38.6655 118.88 37.6405 119.366C37.1302 119.607 36.59 119.78 36.0342 119.878H6.06849C5.1107 119.882 4.1656 119.653 3.31406 119.211C2.46239 118.77 1.72929 118.131 1.17671 117.346C0.624143 116.561 0.268352 115.655 0.139416 114.703C0.0109474 113.752 0.112644 112.783 0.435949 111.879L36.6812 4.27827C36.8699 3.67646 37.1537 3.10958 37.5216 2.59828C37.8879 2.08698 38.3351 1.63602 38.8425 1.26445C39.35 0.892884 39.9145 0.603887 40.5123 0.410165C41.1101 0.216442 41.7365 0.117992 42.366 0.121168H80.0368H80.0352Z" fill="url(#paint1_linear_486_8153)"/>
<path d="M126.612 111.976C126.915 112.877 127 113.837 126.861 114.777C126.72 115.717 126.358 116.61 125.806 117.383C125.253 118.155 124.524 118.784 123.68 119.218C122.836 119.652 121.901 119.878 120.952 119.879H79.1172C80.0655 119.879 81.0011 119.652 81.8463 119.218C82.6899 118.785 83.4193 118.154 83.9728 117.383C84.5262 116.611 84.8877 115.717 85.0289 114.777C85.17 113.837 85.0844 112.876 84.7815 111.976L48.476 4.19452C48.0764 3.00723 47.3149 1.97537 46.2988 1.24422C45.7945 0.880594 45.2364 0.599537 44.6449 0.40899C44.0534 0.218443 43.435 0.121582 42.8149 0.121582H84.6483C85.2699 0.121582 85.8867 0.218443 86.4798 0.40899C87.0713 0.599537 87.6295 0.882182 88.1353 1.24422C88.6396 1.60785 89.0852 2.04769 89.4547 2.54788C89.8241 3.04807 90.1127 3.60383 90.3125 4.19452L126.618 111.976H126.612Z" fill="url(#paint2_linear_486_8153)"/>
</g>
<defs>
<linearGradient id="paint0_linear_486_8153" x1="56.064" y1="8.99766" x2="16.9597" y2="124.358" gradientUnits="userSpaceOnUse">
<stop stop-color="#114A8B"/>
<stop offset="1" stop-color="#0669BC"/>
</linearGradient>
<linearGradient id="paint1_linear_486_8153" x1="68.2262" y1="62.7635" x2="59.2009" y2="65.8207" gradientUnits="userSpaceOnUse">
<stop stop-opacity="0.3"/>
<stop offset="0.1" stop-opacity="0.2"/>
<stop offset="0.3" stop-opacity="0.1"/>
<stop offset="0.6" stop-opacity="0.1"/>
<stop offset="1" stop-opacity="0"/>
</linearGradient>
<linearGradient id="paint2_linear_486_8153" x1="63.2472" y1="5.63157" x2="106.164" y2="119.81" gradientUnits="userSpaceOnUse">
<stop stop-color="#3CCBF4"/>
<stop offset="1" stop-color="#2892DF"/>
</linearGradient>
<clipPath id="clip0_486_8153">
<rect width="127" height="120" fill="white"/>
</clipPath>
</defs>
</svg>
