<svg width="33" height="30" viewBox="0 0 33 30" fill="none" xmlns="http://www.w3.org/2000/svg">
<path fill-rule="evenodd" clip-rule="evenodd" d="M10.1603 29.0937H22.8408V27.57H10.1588L10.1603 29.0937ZM19.4163 23.9991H13.5848L12.686 26.8675H20.3134L19.4163 23.9991ZM0.00154125 19.6142H32.9999V1.29158C32.9999 0.937512 32.8551 0.613532 32.62 0.379884C32.3864 0.146229 32.0624 0 31.7083 0H1.29158C0.937512 0 0.613532 0.144779 0.379884 0.379884C0.146229 0.613539 0 0.93749 0 1.29158L0.00154125 19.6142ZM14.7991 2.47284C15.7122 2.85988 16.277 3.3616 16.277 3.88482C16.277 4.40804 15.7122 4.90976 14.7991 5.2968C13.7942 5.72255 12.398 5.98629 10.8469 5.98629C9.29571 5.98629 7.89969 5.72253 6.89464 5.2968C5.98152 4.90976 5.41676 4.40804 5.41676 3.88482C5.41676 3.3616 5.98156 2.85988 6.89464 2.47284C7.89951 2.04709 9.29571 1.78335 10.8469 1.78335C12.3979 1.78191 13.7955 2.04567 14.7991 2.47284ZM12.7349 9.44521C12.4683 9.48535 12.1916 9.51688 11.9049 9.53981C11.5652 9.56705 11.2112 9.58139 10.8471 9.58139C9.29604 9.58139 7.89987 9.31763 6.89483 8.89189C5.9817 8.50485 5.41694 8.00314 5.41694 7.47992V5.21646C5.72943 5.49025 6.13796 5.73396 6.6225 5.93895C7.71048 6.40052 9.20418 6.6858 10.8456 6.6858C12.4869 6.6858 13.9805 6.40054 15.0686 5.93895C15.5531 5.73396 15.9617 5.49026 16.2756 5.21646V6.04786H15.9502C15.7868 6.04786 15.6492 6.15968 15.6105 6.31306L15.318 7.21183C15.2048 7.24767 15.093 7.28924 14.9812 7.33511C14.8694 7.38098 14.7604 7.43115 14.6558 7.48562L13.7914 7.04556C13.6523 6.97532 13.4889 7.00542 13.3843 7.11006L12.3952 8.09915C12.2819 8.21239 12.2619 8.38584 12.3364 8.51914L12.7693 9.37062C12.7593 9.39642 12.7478 9.42084 12.7349 9.44521ZM12.6317 13.0576C12.4282 13.0862 12.216 13.1106 11.9981 13.1292C11.6268 13.1622 11.2427 13.1794 10.8485 13.1794C9.29745 13.1794 7.90129 12.9156 6.89624 12.4899C5.98312 12.1029 5.41835 11.6011 5.41835 11.0779V8.81448C5.73085 9.08827 6.13937 9.33197 6.62391 9.53696C7.7119 9.99853 9.2056 10.2838 10.847 10.2838C11.181 10.2838 11.5107 10.2723 11.8346 10.248L11.5766 10.3326C11.429 10.3813 11.3343 10.5175 11.3343 10.6665V12.0642C11.3343 12.2276 11.4462 12.3652 11.5995 12.4039L12.4983 12.6963C12.5356 12.8096 12.5757 12.9228 12.623 13.0332L12.6317 13.0576ZM15.404 15.7811C14.9439 16.0607 14.3347 16.2957 13.6208 16.4678C12.808 16.6642 11.8605 16.776 10.847 16.776C9.29602 16.776 7.89986 16.5122 6.89481 16.0865C5.98168 15.6994 5.41692 15.1977 5.41692 14.6745V12.411C5.72942 12.6848 6.13794 12.9285 6.62248 13.1335C7.71046 13.5951 9.20417 13.8804 10.8455 13.8804C11.2598 13.8804 11.6641 13.8617 12.0554 13.8273C12.2245 13.813 12.3923 13.7944 12.5585 13.7729L12.3306 14.2216C12.2604 14.3606 12.2905 14.524 12.3951 14.6287L13.3842 15.6178C13.4974 15.731 13.6709 15.7511 13.8042 15.6765L14.6557 15.2436C14.7617 15.2981 14.8693 15.3483 14.9811 15.3941C15.0929 15.44 15.2047 15.4816 15.3179 15.5174L15.404 15.7811ZM18.3183 15.3941C18.2064 15.44 18.0946 15.4815 17.9814 15.5174L17.689 16.4162C17.6503 16.5681 17.5126 16.6813 17.3492 16.6813H15.9516C15.8111 16.6813 15.6807 16.5968 15.6262 16.462C15.1245 16.7416 14.4995 16.9766 13.7857 17.1487C12.9141 17.3594 11.9121 17.4798 10.8471 17.4798C9.20572 17.4798 7.71206 17.1945 6.624 16.7329C5.45001 16.2341 4.7218 15.5131 4.71607 14.686V3.87916C4.72181 3.05205 5.45001 2.32957 6.624 1.83218C7.71199 1.37061 9.20569 1.08533 10.8471 1.08533C12.4884 1.08533 13.9821 1.37059 15.0701 1.83218C16.2441 2.33104 16.9723 3.05205 16.978 3.87916V6.05373H17.3479V6.05516C17.4955 6.05516 17.6331 6.14977 17.6819 6.29742L17.9815 7.2177C18.0947 7.25354 18.2065 7.29511 18.3183 7.34098C18.4301 7.38685 18.5391 7.43702 18.6437 7.49149L19.4952 7.05715C19.6285 6.98261 19.802 7.00125 19.9152 7.11593L20.9028 8.10501C21.0075 8.20966 21.0376 8.37307 20.9674 8.51212L20.5273 9.37508C20.5818 9.48116 20.6319 9.58867 20.6778 9.70048C20.7237 9.81229 20.7652 9.9241 20.8025 10.0373L21.7013 10.3298C21.8532 10.3685 21.9665 10.5061 21.9665 10.6695V12.0671H21.965C21.965 12.2148 21.8704 12.3524 21.7228 12.4011L20.8025 12.7007C20.7667 12.814 20.7251 12.9258 20.6792 13.0376C20.6334 13.1494 20.5832 13.2583 20.5287 13.363L20.9631 14.2145C21.0376 14.3478 21.019 14.5212 20.9043 14.6344L19.9166 15.6235C19.812 15.7282 19.6486 15.7583 19.5095 15.688L18.6466 15.248C18.539 15.2981 18.4301 15.3482 18.3183 15.3941ZM17.613 14.8953C17.5026 14.9254 17.4094 15.0085 17.3707 15.1246L17.0926 15.9775H16.2039L15.933 15.1432C15.9029 15.0271 15.8125 14.9297 15.6864 14.8953C15.5345 14.8537 15.3897 14.805 15.2506 14.7476C15.1116 14.6903 14.974 14.6229 14.8421 14.5469C14.7417 14.4867 14.6142 14.4781 14.5024 14.534L13.701 14.9426L13.0732 14.3147L13.4817 13.5148C13.5333 13.4131 13.5348 13.2884 13.4731 13.1808C13.3957 13.0461 13.3269 12.9071 13.2696 12.7651C13.2123 12.6261 13.1621 12.4813 13.1205 12.3279C13.0904 12.2176 13.0073 12.1244 12.8912 12.0857L12.0354 11.8105V10.9217L12.8697 10.6508C12.9872 10.6207 13.0861 10.5289 13.1191 10.4028C13.1606 10.2508 13.2094 10.1061 13.2682 9.96702C13.3255 9.82797 13.3929 9.6918 13.4688 9.55848C13.529 9.45813 13.5376 9.33056 13.4817 9.21875L13.0732 8.41744L13.701 7.7896L14.5024 8.19814C14.6041 8.24974 14.7288 8.25118 14.8364 8.18954C14.9711 8.11213 15.1101 8.04332 15.252 7.98455C15.3911 7.92722 15.5359 7.87704 15.6878 7.83691C15.7982 7.80681 15.8914 7.72367 15.9301 7.60612L16.2082 6.75179H17.0984L17.3693 7.58605C17.4008 7.70359 17.4911 7.8025 17.6173 7.8369C17.7692 7.87847 17.914 7.92721 18.053 7.98455C18.1921 8.04189 18.3283 8.10926 18.4616 8.18523C18.5619 8.24543 18.6895 8.25404 18.8013 8.19813L19.6026 7.78959L20.2305 8.41743L19.8219 9.21731C19.7703 9.31908 19.7689 9.4438 19.8305 9.55131C19.9079 9.68605 19.9767 9.8251 20.0341 9.96701C20.0914 10.1061 20.1416 10.2508 20.1832 10.4042C20.2133 10.5146 20.2964 10.6078 20.4125 10.6465L21.2654 10.9231V11.8119L20.4312 12.0828C20.3136 12.1143 20.2147 12.2047 20.1817 12.3308C20.1402 12.4827 20.0914 12.6275 20.0327 12.7666C19.9753 12.9056 19.9079 13.0418 19.832 13.1751C19.7718 13.2755 19.7632 13.403 19.8191 13.5148L20.2276 14.3162L19.5998 14.944L18.7999 14.5355C18.6981 14.4838 18.5734 14.4824 18.4659 14.5441C18.3311 14.6215 18.1921 14.6903 18.0502 14.7476C17.9111 14.8035 17.7649 14.8537 17.613 14.8953ZM18.4945 13.2095C18.0229 13.6811 17.3707 13.9735 16.6497 13.9735C15.9301 13.9735 15.2779 13.6811 14.8048 13.2095C14.3332 12.7379 14.0408 12.0856 14.0408 11.3646C14.0408 10.645 14.3333 9.9928 14.8048 9.51978C15.2765 9.04815 15.9287 8.75575 16.6497 8.75575C17.3693 8.75575 18.0215 9.04818 18.4945 9.51978C18.9662 9.9914 19.2586 10.6436 19.2586 11.3646C19.2586 12.0856 18.9661 12.7379 18.4945 13.2095ZM16.6497 13.2711C16.1236 13.2711 15.6463 13.0575 15.3022 12.7121C14.9568 12.3666 14.7432 11.8907 14.7432 11.3646C14.7432 10.8385 14.9568 10.3612 15.3022 10.0172C15.6477 9.67169 16.1236 9.45955 16.6497 9.45955C17.1758 9.45955 17.6531 9.67313 17.9972 10.0172C18.3426 10.3626 18.5562 10.8385 18.5562 11.3646C18.5562 11.8907 18.3426 12.368 17.9972 12.7121C17.6531 13.059 17.1758 13.2711 16.6497 13.2711ZM25.4011 3.19972C25.5387 3.06354 25.7609 3.06354 25.8971 3.19972C26.0347 3.33733 26.0347 3.55952 25.8971 3.69571L24.0537 5.53913L25.8971 7.38255C26.0347 7.51873 26.0347 7.74235 25.8971 7.87854C25.7595 8.01474 25.5373 8.01472 25.4011 7.87854L23.3097 5.78713C23.1721 5.65095 23.1721 5.42733 23.3097 5.29113L25.4011 3.19972ZM28.7067 3.69571C28.5691 3.5581 28.5691 3.33591 28.7067 3.19972C28.8429 3.06354 29.0665 3.06354 29.2027 3.19972L31.2941 5.29113C31.4317 5.42875 31.4317 5.65093 31.2941 5.78713L29.2027 7.87854C29.0651 8.01472 28.8429 8.01472 28.7067 7.87854C28.5691 7.74093 28.5691 7.51874 28.7067 7.38255L30.5501 5.53913L28.7067 3.69571ZM24.2646 12.497C24.071 12.497 23.9134 12.3394 23.9134 12.1458C23.9134 11.9523 24.071 11.7946 24.2646 11.7946H30.3382C30.5317 11.7946 30.6894 11.9523 30.6894 12.1458C30.6894 12.3394 30.5317 12.497 30.3382 12.497H24.2646ZM24.3979 15.2048C24.2043 15.2048 24.0467 15.0472 24.0467 14.8537C24.0467 14.6601 24.2043 14.5025 24.3979 14.5025H29.3864C29.5799 14.5025 29.7376 14.6601 29.7376 14.8537C29.7376 15.0472 29.5799 15.2048 29.3864 15.2048H24.3979ZM32.9999 20.3167H0.00155228V22.0068C0.00155228 22.3608 0.146332 22.6848 0.381436 22.9185C0.615091 23.1521 0.939042 23.2983 1.29313 23.2983H31.7084C32.0625 23.2983 32.3865 23.1536 32.6201 22.9185C32.8538 22.6848 33 22.3623 33 22.0068L32.9999 20.3167Z" fill="white"/>
</svg>
