<svg width="33" height="33" viewBox="0 0 33 33" fill="none" xmlns="http://www.w3.org/2000/svg">
<path d="M28.1995 2.0625H4.80048C4.32469 2.06284 3.86848 2.252 3.53204 2.58844C3.1956 2.92487 3.00644 3.38108 3.0061 3.85688V17.8355H29.9939V3.85688C29.9936 3.38108 29.8044 2.92487 29.468 2.58844C29.1315 2.252 28.6753 2.06284 28.1995 2.0625ZM9.37923 13.5248H10.4878C10.5674 13.5259 10.6464 13.5113 10.7203 13.4818C10.7943 13.4524 10.8617 13.4086 10.9187 13.353C10.9757 13.2975 11.0211 13.2312 11.0525 13.1581C11.0838 13.0849 11.1005 13.0063 11.1014 12.9267C11.0601 12.5568 11.1882 12.1734 11.6171 12.1636C12.0483 12.1754 12.1727 12.5546 12.1326 12.9267C12.13 13.3607 11.9553 13.7759 11.647 14.0814C11.3387 14.3868 10.9218 14.5575 10.4878 14.5561H9.37923C8.94523 14.5575 8.52837 14.3868 8.22003 14.0814C7.9117 13.7759 7.73705 13.3607 7.73438 12.9267V9.10594C7.73597 8.67113 7.91011 8.25475 8.21853 7.94826C8.52695 7.64177 8.94442 7.47026 9.37923 7.47141H10.4878C10.9226 7.47027 11.3401 7.64178 11.6485 7.94827C11.9569 8.25475 12.1311 8.67114 12.1327 9.10594C12.13 9.24095 12.0745 9.36954 11.9781 9.46409C11.8817 9.55864 11.7521 9.6116 11.617 9.61159C11.482 9.61159 11.3523 9.55862 11.2559 9.46407C11.1595 9.36951 11.104 9.24092 11.1014 9.10591C11.101 9.02593 11.0848 8.94682 11.0537 8.87313C11.0226 8.79945 10.9772 8.73265 10.9202 8.67658C10.8631 8.6205 10.7956 8.57627 10.7214 8.54642C10.6472 8.51657 10.5678 8.5017 10.4878 8.50266H9.37923C9.29925 8.5017 9.21988 8.51658 9.14568 8.54643C9.07147 8.57629 9.00391 8.62052 8.94688 8.6766C8.88985 8.73267 8.84447 8.79948 8.81336 8.87316C8.78226 8.94685 8.76604 9.02596 8.76563 9.10594V12.9267C8.76658 13.0063 8.7832 13.0849 8.81456 13.1581C8.84592 13.2312 8.8914 13.2975 8.94839 13.353C9.00538 13.4086 9.07277 13.4524 9.1467 13.4818C9.22063 13.5113 9.29965 13.5259 9.37923 13.5248ZM19.2277 14.0405C19.2252 14.1756 19.1699 14.3044 19.0734 14.3991C18.977 14.4939 18.8472 14.5469 18.712 14.5469C18.5768 14.5469 18.4471 14.4939 18.3506 14.3991C18.2542 14.3044 18.1988 14.1756 18.1964 14.0404V9.1575L17.1858 10.7044C17.116 10.8085 17.0216 10.8938 16.911 10.9528C16.8004 11.0118 16.6769 11.0426 16.5516 11.0426C16.4262 11.0426 16.3028 11.0118 16.1922 10.9528C16.0816 10.8938 15.9872 10.8085 15.9174 10.7044L14.9119 9.1575V14.0405C14.9119 14.1772 14.8576 14.3084 14.7609 14.4051C14.6642 14.5018 14.533 14.5561 14.3963 14.5561C14.2595 14.5561 14.1284 14.5018 14.0317 14.4051C13.935 14.3084 13.8806 14.1772 13.8806 14.0405V8.22937C13.8789 8.06651 13.9302 7.90751 14.0268 7.77639C14.1234 7.64527 14.2601 7.54915 14.4162 7.50257C14.5722 7.45598 14.7392 7.46145 14.8919 7.51815C15.0446 7.57486 15.1747 7.67971 15.2625 7.81687L16.5516 9.78656L17.8406 7.81687C17.9307 7.68266 18.0613 7.58075 18.2134 7.52603C18.3654 7.47131 18.531 7.46665 18.686 7.51273C18.8409 7.5588 18.977 7.65321 19.0745 7.78214C19.1719 7.91108 19.2256 8.0678 19.2277 8.22941V14.0405ZM24.7809 9.52875C24.7793 9.60008 24.763 9.67031 24.7331 9.73506C24.7031 9.79981 24.6601 9.85769 24.6068 9.90509C24.5535 9.95249 24.491 9.9884 24.4231 10.0106C24.3553 10.0327 24.2837 10.0407 24.2127 10.034C24.1416 10.0272 24.0728 10.0059 24.0103 9.97134C23.9479 9.9368 23.8933 9.88976 23.8498 9.83316C23.8064 9.77656 23.7751 9.71162 23.7579 9.64239C23.7406 9.57315 23.7379 9.50111 23.7497 9.43076C23.751 9.29629 23.7231 9.16315 23.6679 9.04052C23.6127 8.91789 23.5316 8.80869 23.4301 8.72046C23.3287 8.63223 23.2093 8.56706 23.0802 8.52946C22.9511 8.49185 22.8153 8.48271 22.6824 8.50266C21.5096 8.50122 21.5049 10.5501 22.6824 10.5496C25.4697 10.4289 25.4694 14.6769 22.6823 14.5561C22.1704 14.5492 21.6821 14.3397 21.3245 13.9734C20.9668 13.607 20.7691 13.1138 20.7745 12.6019C20.7772 12.4669 20.8327 12.3383 20.9291 12.2437C21.0255 12.1492 21.1551 12.0962 21.2902 12.0962C21.4252 12.0962 21.5549 12.1492 21.6513 12.2437C21.7477 12.3383 21.8032 12.4669 21.8058 12.6019C21.8027 12.7201 21.823 12.8377 21.8653 12.948C21.9077 13.0584 21.9715 13.1593 22.0529 13.245C22.1343 13.3307 22.2318 13.3995 22.3398 13.4475C22.4478 13.4956 22.5642 13.5218 22.6824 13.5248C23.9851 13.6953 24.1529 11.6459 22.8731 11.5809C22.5879 11.601 22.3017 11.5588 22.0344 11.4571C21.7672 11.3555 21.5253 11.1968 21.3256 10.9922C21.1258 10.7875 20.9731 10.5418 20.8779 10.2722C20.7828 10.0025 20.7475 9.71541 20.7746 9.43075C20.8337 6.7583 24.848 6.85156 24.7809 9.52875Z" fill="white"/>
<path d="M3.0061 18.8667V21.6872C3.00624 22.1635 3.19518 22.6204 3.53151 22.9577C3.86784 23.295 4.32415 23.4852 4.80048 23.4867H27.9314C28.2023 23.4868 28.4705 23.4335 28.7208 23.3299C28.9711 23.2262 29.1985 23.0743 29.39 22.8828C29.5815 22.6912 29.7334 22.4638 29.8371 22.2136C29.9407 21.9633 29.994 21.6951 29.9939 21.4242V18.8667H3.0061ZM15.0253 20.6611H17.9799C18.1153 20.6631 18.2445 20.7183 18.3395 20.8148C18.4346 20.9113 18.4879 21.0413 18.4879 21.1767C18.4879 21.3121 18.4346 21.4421 18.3395 21.5386C18.2445 21.6351 18.1153 21.6903 17.9799 21.6923H15.0253C14.8902 21.6898 14.7615 21.6344 14.6668 21.538C14.5722 21.4416 14.5191 21.3118 14.5191 21.1767C14.5191 21.0416 14.5722 20.9118 14.6668 20.8154C14.7615 20.719 14.8902 20.6636 15.0253 20.6611Z" fill="white"/>
<path d="M19.4545 26.6682L19.0575 24.5181C18.3768 24.5181 14.489 24.5181 14.489 24.5181L14.0972 26.6682C15.4194 26.6684 18.1323 26.6681 19.4545 26.6682Z" fill="white"/>
<path d="M20.5168 27.6992H12.4834C12.1431 27.7001 11.8171 27.8357 11.5765 28.0763C11.3359 28.3169 11.2004 28.6429 11.1995 28.9831V30.4217C11.1999 30.5583 11.2543 30.6893 11.3509 30.7859C11.4475 30.8825 11.5785 30.9369 11.7151 30.9373H21.2851C21.3529 30.9376 21.42 30.9244 21.4827 30.8986C21.5454 30.8727 21.6023 30.8348 21.6502 30.7868C21.6981 30.7389 21.7361 30.682 21.7619 30.6193C21.7878 30.5567 21.8009 30.4895 21.8007 30.4217V28.9831C21.7998 28.6429 21.6642 28.3169 21.4237 28.0763C21.1831 27.8357 20.857 27.7001 20.5168 27.6992Z" fill="white"/>
</svg>
