<svg width="150" height="150" viewBox="0 0 150 150" fill="none" xmlns="http://www.w3.org/2000/svg">
<path d="M8.08138 79.4186L33.0814 104.419C33.6579 105.016 34.3476 105.492 35.1101 105.819C35.8726 106.147 36.6928 106.319 37.5226 106.326C38.3525 106.334 39.1755 106.176 39.9436 105.861C40.7117 105.547 41.4095 105.083 41.9964 104.496C42.5832 103.909 43.0473 103.211 43.3615 102.443C43.6758 101.675 43.8339 100.852 43.8267 100.022C43.8195 99.1925 43.6471 98.3724 43.3195 97.6099C42.992 96.8473 42.5158 96.1577 41.9189 95.5812L21.3376 74.9999L41.9189 54.4186C42.5158 53.8421 42.992 53.1524 43.3195 52.3899C43.6471 51.6274 43.8195 50.8073 43.8267 49.9774C43.8339 49.1475 43.6758 48.3245 43.3615 47.5564C43.0473 46.7883 42.5832 46.0905 41.9964 45.5037C41.4095 44.9168 40.7117 44.4528 39.9436 44.1385C39.1755 43.8243 38.3525 43.6661 37.5226 43.6733C36.6928 43.6805 35.8726 43.853 35.1101 44.1805C34.3476 44.5081 33.6579 44.9842 33.0814 45.5811L8.08138 70.5812C6.90969 71.7532 6.25146 73.3426 6.25146 74.9999C6.25146 76.6572 6.90969 78.2466 8.08138 79.4186Z" fill="#855BFF"/>
<path d="M116.919 45.5811C116.342 44.9842 115.653 44.5081 114.89 44.1805C114.128 43.853 113.308 43.6805 112.478 43.6733C111.648 43.6661 110.825 43.8243 110.057 44.1385C109.289 44.4528 108.591 44.9168 108.004 45.5037C107.417 46.0905 106.953 46.7883 106.639 47.5564C106.324 48.3245 106.166 49.1475 106.174 49.9774C106.181 50.8073 106.353 51.6274 106.681 52.3899C107.008 53.1524 107.484 53.8421 108.081 54.4186L128.663 74.9999L108.081 95.5812C107.484 96.1577 107.008 96.8473 106.681 97.6099C106.353 98.3724 106.181 99.1925 106.174 100.022C106.166 100.852 106.324 101.675 106.639 102.443C106.953 103.211 107.417 103.909 108.004 104.496C108.591 105.083 109.289 105.547 110.057 105.861C110.825 106.176 111.648 106.334 112.478 106.326C113.308 106.319 114.128 106.147 114.89 105.819C115.653 105.492 116.342 105.016 116.919 104.419L141.919 79.4186C143.091 78.2466 143.749 76.6572 143.749 74.9999C143.749 73.3426 143.091 71.7532 141.919 70.5812L116.919 45.5811Z" fill="#855BFF"/>
<path d="M81.4939 29.5375L56.4939 117.038C56.0388 118.63 56.2347 120.339 57.0387 121.787C57.8427 123.236 59.1888 124.306 60.7814 124.763C61.3413 124.917 61.9192 124.997 62.5001 125C63.8583 124.999 65.1793 124.556 66.263 123.737C67.3467 122.918 68.1342 121.769 68.5064 120.463L93.5064 32.9625C93.767 32.1635 93.8637 31.3201 93.7908 30.4828C93.7179 29.6455 93.4768 28.8315 93.0821 28.0895C92.6874 27.3475 92.147 26.6927 91.4934 26.1643C90.8398 25.636 90.0863 25.2449 89.278 25.0144C88.4698 24.784 87.6233 24.7189 86.7894 24.8231C85.9554 24.9273 85.151 25.1987 84.4243 25.621C83.6976 26.0432 83.0635 26.6077 82.56 27.2807C82.0565 27.9536 81.6939 28.7212 81.4939 29.5375Z" fill="#855BFF"/>
</svg>
