<svg width="45" height="45" viewBox="0 0 45 45" fill="none" xmlns="http://www.w3.org/2000/svg">
<circle cx="22.5" cy="22.5" r="22.5" transform="matrix(1 0 0 -1 0 45)" fill="#171717"/>
<path d="M22.4938 33.9521C22.2223 33.9478 21.9631 33.8376 21.7716 33.645L16.5653 28.4386C16.4616 28.3437 16.3782 28.2289 16.32 28.101C16.2619 27.973 16.2302 27.8346 16.227 27.6941C16.2237 27.5537 16.2489 27.414 16.301 27.2835C16.3531 27.153 16.4311 27.0344 16.5303 26.9348C16.6295 26.8352 16.7477 26.7568 16.878 26.7041C17.0083 26.6515 17.1479 26.6256 17.2884 26.6283C17.4289 26.631 17.5674 26.6621 17.6956 26.7197C17.8237 26.7774 17.9389 26.8604 18.0342 26.9636L21.4563 30.3857L21.4646 12.0914C21.4706 11.8191 21.583 11.5601 21.7777 11.3696C21.9724 11.1792 22.2339 11.0725 22.5063 11.0725C22.7786 11.0725 23.0401 11.1792 23.2348 11.3696C23.4295 11.5601 23.5419 11.8191 23.5479 12.0914L23.5396 30.406L26.9759 26.9636C27.1729 26.7748 27.436 26.6707 27.7089 26.6735C27.9818 26.6763 28.2427 26.7858 28.4358 26.9787C28.629 27.1715 28.7389 27.4323 28.7421 27.7052C28.7452 27.9781 28.6415 28.2413 28.4529 28.4386L23.2466 33.645C23.1481 33.744 23.0307 33.8222 22.9014 33.8749C22.7721 33.9277 22.6335 33.9539 22.4938 33.9521Z" fill="white"/>
</svg>
