<svg width="33" height="35" viewBox="0 0 33 35" fill="none" xmlns="http://www.w3.org/2000/svg">
<path fill-rule="evenodd" clip-rule="evenodd" d="M24.3271 35C24.1103 34.0825 23.3448 33.3351 22.3746 33.3351H10.6228C9.65253 33.3351 8.88846 34.0825 8.6702 35H24.3271ZM0 25.9007V27.8376C0 27.9303 0.0773156 28.0093 0.171307 28.0093H32.8284C32.9209 28.0093 32.9997 27.9318 32.9997 27.8376V25.9007H0ZM19.5105 29.1395H13.4831C13.3861 30.2241 13.1298 31.2556 12.6675 32.208H20.3276C19.8652 31.2586 19.609 30.2287 19.512 29.1395H19.5105ZM20.461 10.0263C20.2397 9.80449 20.2397 9.44749 20.461 9.22874C20.6824 9.00696 21.0386 9.00696 21.2569 9.22874L24.4814 12.4599C24.7028 12.6817 24.7028 13.0387 24.4814 13.2574L21.2569 16.4885C21.0356 16.7103 20.6793 16.7103 20.461 16.4885C20.2397 16.2668 20.2397 15.9098 20.461 15.691L23.2899 12.8563L20.461 10.0217V10.0263ZM11.7367 9.22874C11.9581 9.00696 12.3143 9.00696 12.5326 9.22874C12.7494 9.45053 12.754 9.80753 12.5326 10.0263L9.7038 12.8609L12.5326 15.6956C12.754 15.9174 12.754 16.2744 12.5326 16.4931C12.3113 16.7149 11.955 16.7149 11.7367 16.4931L8.51224 13.262C8.29091 13.0402 8.29091 12.6832 8.51224 12.4645L11.7367 9.23333V9.22874ZM17.1731 8.1593C17.255 7.86003 17.5612 7.68077 17.8599 7.75827C18.1585 7.8403 18.3374 8.14716 18.2601 8.44641L15.8224 17.5624C15.7405 17.8617 15.4343 18.0409 15.1356 17.9634C14.837 17.8814 14.6581 17.5745 14.7354 17.2753L17.1731 8.1593ZM6.19906 2.43833C5.88829 2.43833 5.63664 2.18616 5.63664 1.87475C5.63664 1.56333 5.8883 1.31117 6.19906 1.31117H6.35824C6.66902 1.31117 6.92067 1.56334 6.92067 1.87475C6.92067 2.18617 6.66901 2.43833 6.35824 2.43833H6.19906ZM8.50336 2.43833C8.19258 2.43833 7.94093 2.18616 7.94093 1.87475C7.94093 1.56333 8.19259 1.31117 8.50336 1.31117H8.66254C8.97331 1.31117 9.22496 1.56334 9.22496 1.87475C9.22496 2.18617 8.9733 2.43833 8.66254 2.43833H8.50336ZM10.8137 2.43833C10.5029 2.43833 10.2513 2.18616 10.2513 1.87475C10.2513 1.56333 10.5029 1.31117 10.8137 1.31117H10.9729C11.2837 1.31117 11.5353 1.56334 11.5353 1.87475C11.5353 2.18617 11.2837 2.43833 10.9729 2.43833H10.8137ZM29.512 2.44593V20.1556C29.512 21.1552 28.6963 21.9725 27.6988 21.9725H5.29857C4.30106 21.9725 3.48545 21.1552 3.48545 20.1556V2.44593H0.171498C0.0790233 2.44593 0.000190238 2.5234 0.000190238 2.61759V24.7723H33V2.61759C33 2.52492 32.9227 2.44593 32.8287 2.44593H29.512ZM4.612 4.87649V20.1556C4.612 20.5323 4.92278 20.8437 5.29873 20.8437H27.699C28.0749 20.8437 28.3857 20.5323 28.3857 20.1556V4.87649H4.612ZM28.3857 0.688141C28.3857 0.311404 28.0749 0 27.699 0H5.29873C4.92277 0 4.612 0.311416 4.612 0.688141V3.74914H28.3873V0.688141H28.3857Z" fill="white"/>
</svg>
