<svg width="108" height="100" viewBox="0 0 108 100" fill="none" xmlns="http://www.w3.org/2000/svg">
<path d="M94.3224 72.7153H55.2856C45.8468 72.7153 40.5576 79.3247 40.5576 86.3554C40.5576 92.8443 45.0427 99.9955 55.2856 99.9955H94.3224V72.7153Z" fill="#669DF3"/>
<path d="M94.3224 99.974C101.739 99.974 107.752 93.8671 107.752 86.3339C107.752 78.8007 101.739 72.6938 94.3224 72.6938C86.9056 72.6938 80.8931 78.8007 80.8931 86.3339C80.8931 93.8671 86.9056 99.974 94.3224 99.974Z" fill="#1A73E8"/>
<path d="M54.0128 36.3447H14.9761C5.53723 36.3447 0.248047 42.9541 0.248047 49.9891C0.248047 56.478 4.7331 63.6292 14.9761 63.6292H54.0128V36.3447Z" fill="#669DF3"/>
<path d="M54.0129 63.6293C61.4297 63.6293 67.4422 57.5224 67.4422 49.9892C67.4422 42.456 61.4297 36.3491 54.0129 36.3491C46.596 36.3491 40.5835 42.456 40.5835 49.9892C40.5835 57.5224 46.596 63.6293 54.0129 63.6293Z" fill="#1A73E8"/>
<path d="M94.3224 0H55.2856C45.8468 0 40.5576 6.60933 40.5576 13.6401C40.5576 20.129 45.0427 27.2802 55.2856 27.2802H94.3224V0Z" fill="#669DF3"/>
<path d="M94.3224 27.2802C101.739 27.2802 107.752 21.1733 107.752 13.6401C107.752 6.10687 101.739 0 94.3224 0C86.9056 0 80.8931 6.10687 80.8931 13.6401C80.8931 21.1733 86.9056 27.2802 94.3224 27.2802Z" fill="#1A73E8"/>
</svg>
