<svg width="92" height="100" viewBox="0 0 92 100" fill="none" xmlns="http://www.w3.org/2000/svg">
<path d="M91.1662 87.4862C91.2032 94.352 85.6662 99.9425 78.8045 99.9795C78.2944 99.9836 77.7802 99.9548 77.2742 99.8931C70.9062 98.9511 66.2413 93.4099 66.3976 86.9761V13.0035C66.2454 6.56143 70.9227 1.02028 77.2948 0.0864656C84.1112 -0.711593 90.2859 4.16726 91.0839 10.9837C91.1415 11.4855 91.1703 11.9874 91.1662 12.4934V87.4862Z" fill="#F9AB00"/>
<path d="M13.2199 75.2272C20.0609 75.2272 25.6062 80.7725 25.6062 87.6136C25.6062 94.4547 20.0609 99.9999 13.2199 99.9999C6.37877 99.9999 0.833496 94.4547 0.833496 87.6136C0.833496 80.7725 6.37877 75.2272 13.2199 75.2272ZM45.8086 37.6897C38.9346 38.0681 33.6033 43.8314 33.7637 50.7136V83.9812C33.7637 93.0107 37.7375 98.4902 43.5584 99.6585C50.2761 101.02 56.821 96.6802 58.1826 89.9625C58.3513 89.1397 58.4336 88.3047 58.4294 87.4655V50.1377C58.4418 43.272 52.8883 37.6979 46.0225 37.6855C45.9526 37.6855 45.8785 37.6855 45.8086 37.6897Z" fill="#E37400"/>
</svg>
