<svg width="111" height="100" viewBox="0 0 111 100" fill="none" xmlns="http://www.w3.org/2000/svg">
<path d="M3.16211 72.8028L39.4652 9.91943L70.9225 28.0822L34.6239 90.9655L3.16211 72.8028Z" fill="#FBBC04"/>
<path d="M107.529 72.584L71.204 9.67828C66.5147 0.809259 55.5268 -2.57921 46.6578 2.11011C37.7887 6.79942 34.4047 17.7874 39.0896 26.6564C39.2952 27.0453 39.5143 27.4253 39.7467 27.8008L76.0722 90.7064C80.9716 99.4592 92.04 102.584 100.793 97.6845C109.546 92.7851 112.67 81.7167 107.771 72.9639C107.69 72.8209 107.61 72.6823 107.529 72.5437V72.584Z" fill="#4285F4"/>
<path d="M19.0719 99.9065C29.1029 99.9065 37.2346 91.7748 37.2346 81.7438C37.2346 71.7128 29.1029 63.5811 19.0719 63.5811C9.0409 63.5811 0.90918 71.7128 0.90918 81.7438C0.90918 91.7748 9.0409 99.9065 19.0719 99.9065Z" fill="#34A853"/>
</svg>
