<svg width="100" height="100" viewBox="0 0 100 100" fill="none" xmlns="http://www.w3.org/2000/svg">
<path d="M75.0916 33.8509V22.1071C76.6435 21.3818 77.9576 20.2306 78.8807 18.7875C79.8038 17.3444 80.2981 15.6688 80.306 13.9558V13.6863C80.306 8.69163 76.257 4.64262 71.2627 4.64262H70.9928C65.9982 4.64262 61.9492 8.69163 61.9492 13.6863V13.9558C61.957 15.6688 62.4513 17.3444 63.3745 18.7875C64.2976 20.2306 65.6116 21.3818 67.1635 22.1071V33.8509C62.7031 34.534 58.5024 36.3835 54.9867 39.2122L22.7785 14.1253C23.0082 13.2963 23.128 12.4437 23.1415 11.588C23.1455 9.57247 22.5515 7.60106 21.4349 5.92313C20.3183 4.2452 18.7291 2.93613 16.8684 2.1615C15.0077 1.38687 12.959 1.18148 10.9816 1.57132C9.00413 1.96116 7.18672 2.92871 5.75922 4.35158C4.33173 5.77445 3.35829 7.58872 2.96204 9.5649C2.56579 11.5411 2.76453 13.5904 3.53312 15.4536C4.30172 17.3168 5.60563 18.9102 7.27993 20.0323C8.95423 21.1544 10.9237 21.7547 12.9392 21.7573C14.7024 21.7489 16.4326 21.2782 17.957 20.3921L49.6728 45.0718C43.8419 53.8802 43.9979 65.3602 50.0656 74.0074L40.4193 83.6565C39.6392 83.4073 38.8273 83.2748 38.0086 83.2637C33.3888 83.2676 29.6463 87.0142 29.6475 91.6339C29.6487 96.2533 33.3936 99.9978 38.0129 99.999C42.6327 100 46.3792 96.2576 46.3832 91.6379C46.3723 90.8194 46.2398 90.007 45.99 89.2275L55.5328 79.6811C64.0594 86.2452 75.7702 86.8108 84.8899 81.0989C94.0092 75.3866 98.6115 64.6027 96.4264 54.0665C94.2413 43.5299 85.7305 35.4661 75.0916 33.8509ZM71.1361 72.4755C69.3731 72.5229 67.6185 72.2166 65.9759 71.5747C64.3332 70.9328 62.8358 69.9683 61.5721 68.7381C60.3084 67.508 59.3039 66.037 58.6181 64.4123C57.9322 62.7875 57.5789 61.0417 57.5789 59.2781C57.5789 57.5145 57.9322 55.7687 58.6181 54.1439C59.3039 52.5192 60.3084 51.0482 61.5721 49.8181C62.8358 48.5879 64.3332 47.6234 65.9759 46.9815C67.6185 46.3396 69.3731 46.0333 71.1361 46.0807C78.2407 46.3295 83.8726 52.1592 83.8766 59.2685C83.8798 66.3771 78.2538 72.2128 71.1493 72.4687" fill="#FF7A59"/>
</svg>
