<svg width="145" height="150" viewBox="0 0 145 150" fill="none" xmlns="http://www.w3.org/2000/svg">
<g clip-path="url(#clip0_453_7786)">
<path d="M144.661 34.2231C144.714 34.4218 144.742 34.6268 144.742 34.8326V66.8338C144.742 67.2446 144.634 67.648 144.428 68.0034C144.222 68.3588 143.926 68.6536 143.57 68.858L116.726 84.3219V114.973C116.726 115.807 116.283 116.577 115.56 116.997L59.5246 149.272C59.3963 149.345 59.2564 149.392 59.1165 149.441C59.064 149.459 59.0145 149.491 58.9591 149.506C58.5674 149.609 58.1556 149.609 57.7639 149.506C57.6998 149.488 57.6415 149.453 57.5803 149.43C57.452 149.383 57.3179 149.342 57.1955 149.272L1.17184 116.997C0.815934 116.792 0.520216 116.497 0.314485 116.142C0.108755 115.787 0.000281997 115.383 0 114.973L0 18.9691C0 18.7591 0.0291502 18.555 0.0816204 18.3566C0.0991105 18.2895 0.139921 18.2283 0.163241 18.1612C0.206966 18.0387 0.247776 17.9133 0.311907 17.7996C0.355632 17.7237 0.419762 17.6625 0.472232 17.5925C0.539278 17.4991 0.600493 17.4029 0.679198 17.3212C0.746244 17.2541 0.833694 17.2046 0.909485 17.1462C0.99402 17.0762 1.06981 17.0004 1.16601 16.945L29.1822 0.807309C29.5369 0.603088 29.939 0.495605 30.3482 0.495605C30.7575 0.495605 31.1595 0.603088 31.5142 0.807309L59.5275 16.945H59.5333C59.6266 17.0033 59.7053 17.0762 59.7899 17.1433C59.8657 17.2016 59.9502 17.2541 60.0172 17.3183C60.0989 17.4029 60.1572 17.4991 60.2271 17.5925C60.2767 17.6625 60.3437 17.7237 60.3845 17.7996C60.4516 17.9162 60.4895 18.0387 60.5361 18.1612C60.5594 18.2283 60.6002 18.2895 60.6177 18.3595C60.6714 18.5583 60.6988 18.7632 60.6994 18.9691V78.932L84.0428 65.4834V34.8297C84.0428 34.6256 84.0719 34.4185 84.1244 34.2231C84.1448 34.1531 84.1827 34.0918 84.206 34.0247C84.2527 33.9022 84.2935 33.7768 84.3576 33.6631C84.4013 33.5872 84.4655 33.526 84.515 33.456C84.585 33.3627 84.6433 33.2664 84.7249 33.1847C84.792 33.1177 84.8765 33.0681 84.9523 33.0097C85.0397 32.9397 85.1155 32.8639 85.2088 32.8085L113.228 16.6708C113.583 16.4663 113.985 16.3587 114.394 16.3587C114.803 16.3587 115.205 16.4663 115.56 16.6708L143.573 32.8085C143.672 32.8668 143.748 32.9397 143.836 33.0068C143.908 33.0652 143.993 33.1177 144.06 33.1818C144.142 33.2664 144.2 33.3627 144.27 33.456C144.322 33.526 144.387 33.5872 144.427 33.6631C144.494 33.7768 144.532 33.9022 144.579 34.0247C144.605 34.0918 144.643 34.1531 144.661 34.2231ZM140.072 65.4834V38.8722L130.269 44.5187L116.726 52.3207V78.932L140.075 65.4834H140.072ZM112.059 113.622V86.9935L98.7374 94.6059L60.6964 116.329V143.209L112.059 113.622ZM4.66985 23.0086V113.622L56.0266 143.206V116.332L29.1968 101.139L29.188 101.133L29.1764 101.127C29.086 101.075 29.0102 100.999 28.9257 100.935C28.8528 100.877 28.7683 100.83 28.7042 100.766L28.6983 100.757C28.6225 100.684 28.5701 100.594 28.5059 100.512C28.4476 100.433 28.3777 100.366 28.331 100.285L28.3281 100.276C28.2756 100.188 28.2436 100.083 28.2057 99.9842C28.1678 99.8967 28.1182 99.815 28.0949 99.7217C28.0658 99.6108 28.0599 99.4912 28.0483 99.3775C28.0366 99.29 28.0133 99.2025 28.0133 99.115V36.4572L14.473 28.6523L4.66985 23.0086ZM30.3511 5.5264L7.01061 18.9691L30.3453 32.4118L53.6829 18.9662L30.3453 5.5264H30.3511ZM42.4893 89.4202L56.0295 81.6211V23.0086L46.2263 28.6552L32.6831 36.4572V95.0696L42.4893 89.4202ZM114.394 21.3899L91.0563 34.8326L114.394 48.2753L137.729 34.8297L114.394 21.3899ZM112.059 52.3207L98.5158 44.5187L88.7126 38.8722V65.4834L102.253 73.2825L112.059 78.932V52.3207ZM58.3586 112.289L92.5896 92.7364L109.701 82.9657L86.3806 69.5317L59.5304 84.9986L35.0589 99.0946L58.3586 112.289Z" fill="#FF2D20"/>
</g>
<defs>
<clipPath id="clip0_453_7786">
<rect width="145" height="150" fill="white"/>
</clipPath>
</defs>
</svg>
