<svg width="95" height="100" viewBox="0 0 95 100" fill="none" xmlns="http://www.w3.org/2000/svg">
<path d="M90.5019 63.3098C90.458 63.1558 90.1741 62.1178 89.7842 60.8678L88.9905 58.7378C90.5539 56.3958 90.5819 54.3018 90.374 53.1158C90.1521 51.6458 89.5403 50.3918 88.3068 49.0978C87.0733 47.8018 84.5523 46.4758 81.0077 45.4818L79.1484 44.9658C79.1384 44.8898 79.0504 40.5798 78.9705 38.7299C78.9125 37.3919 78.7965 35.3059 78.1488 33.2479C77.3771 30.4639 76.0336 28.0299 74.3543 26.4719C78.9865 21.6699 81.8773 16.3779 81.8693 11.84C81.8553 3.11198 71.1416 0.469994 57.9368 5.93997L55.1399 7.12797C55.1279 7.11597 50.0818 2.16399 50.0059 2.09799C34.9518 -11.038 -12.1197 41.3018 2.9304 54.0138L6.21911 56.8018C5.36544 59.0118 5.03158 61.5458 5.30547 64.2698C5.65733 67.7677 7.46062 71.1217 10.3855 73.7137C13.1604 76.1737 16.8109 77.7317 20.3515 77.7277C26.2072 91.2297 39.588 99.5116 55.2778 99.9776C72.1072 100.478 86.2356 92.5777 92.1553 78.3857C92.5431 77.3897 94.1865 72.9017 94.1865 68.9397C94.1865 64.9578 91.9374 63.3078 90.5039 63.3078L90.5019 63.3098ZM21.645 73.9357C21.1332 74.0237 20.6114 74.0577 20.0856 74.0457C15.0017 73.9097 9.51181 69.3317 8.96603 63.9018C8.36227 57.9018 11.4271 53.2818 16.8549 52.1878C17.5027 52.0578 18.2884 51.9818 19.134 52.0258C22.1748 52.1918 26.6551 54.5278 27.6787 61.1538C28.5843 67.0218 27.1449 72.9977 21.645 73.9357ZM15.9693 48.5978C12.5906 49.2558 9.61377 51.1698 7.79249 53.8158C6.70492 52.9078 4.67572 51.1498 4.31786 50.4658C1.411 44.9438 7.49061 34.2079 11.7369 28.1459C22.2328 13.1619 38.6703 1.82199 46.2813 3.87798C47.5189 4.22798 51.6152 8.97996 51.6152 8.97996C51.6152 8.97996 44.0082 13.2019 36.955 19.0879C27.4508 26.4099 20.2696 37.0499 15.9693 48.5978ZM69.3243 71.6917C69.4342 71.6457 69.5102 71.5177 69.4982 71.3937C69.4822 71.2397 69.3443 71.1277 69.1903 71.1437C69.1903 71.1437 61.2275 72.3237 53.7044 69.5677C54.5241 66.9037 56.7032 67.8658 59.9959 68.1318C65.9316 68.4857 71.2515 67.6177 75.182 66.4897C78.5886 65.5117 83.0629 63.5838 86.5395 60.8398C87.711 63.4158 88.1249 66.2497 88.1249 66.2497C88.1249 66.2497 89.0325 66.0878 89.7902 66.5537C90.5059 66.9958 91.0317 67.9117 90.6739 70.2837C89.9422 74.7137 88.0609 78.3077 84.8981 81.6157C82.9729 83.6897 80.6358 85.4917 77.9609 86.8017C76.5414 87.5477 75.028 88.1937 73.4307 88.7157C61.5073 92.6117 49.3002 88.3277 45.3657 79.1297C45.0518 78.4377 44.7859 77.7137 44.576 76.9577C42.8987 70.8957 44.3221 63.6238 48.7724 59.0458C49.0463 58.7538 49.3261 58.4098 49.3261 57.9778C49.3261 57.6158 49.0962 57.2358 48.8983 56.9658C47.3409 54.7078 41.949 50.8578 43.0326 43.4078C43.8103 38.0559 48.4885 34.2879 52.8508 34.5119L53.9563 34.5759C55.8456 34.6879 57.4949 34.9299 59.0523 34.9959C61.6573 35.1079 63.9984 34.7299 66.7713 32.4179C67.7069 31.6379 68.4566 30.9619 69.7261 30.7459C69.8601 30.7239 70.1919 30.6039 70.8537 30.6359C71.5314 30.6719 72.1751 30.8579 72.7549 31.2439C74.978 32.7239 75.2939 36.3099 75.4099 38.9319C75.4759 40.4298 75.6558 44.0518 75.7178 45.0898C75.8597 47.4678 76.4835 47.8018 77.747 48.2198C78.4587 48.4538 79.1184 48.6278 80.09 48.9018C83.0329 49.7278 84.7782 50.5678 85.8798 51.6438C86.5355 52.3178 86.8414 53.0318 86.9353 53.7158C87.2832 56.2498 84.9701 59.3778 78.8465 62.2218C72.1532 65.3298 64.0344 66.1157 58.4246 65.4918L56.4593 65.2698C51.9711 64.6658 49.4121 70.4677 52.105 74.4417C53.8404 77.0037 58.5685 78.6697 63.2986 78.6717C74.1444 78.6737 82.4811 74.0397 85.5819 70.0377L85.8298 69.6837C85.9817 69.4537 85.8558 69.3277 85.6658 69.4577C83.1328 71.1917 71.8793 78.0777 59.842 76.0057C59.842 76.0057 58.3786 75.7657 57.0451 75.2457C55.9835 74.8337 53.7644 73.8117 53.4945 71.5317C63.2087 74.5377 69.3243 71.6957 69.3243 71.6957V71.6917ZM53.9363 69.8737L53.9383 69.8757L53.9403 69.8797L53.9363 69.8737ZM35.3536 28.0819C39.0842 23.7679 43.6784 20.0179 47.7927 17.9119C47.9347 17.8399 48.0866 17.9939 48.0087 18.1339C47.6828 18.7259 47.053 19.9939 46.8531 20.9539C46.8211 21.1039 46.9851 21.2159 47.111 21.1299C49.67 19.3839 54.1243 17.5139 58.0307 17.2739C58.1987 17.2639 58.2786 17.4779 58.1467 17.5819C57.5529 18.0379 56.9032 18.6679 56.4293 19.3059C56.3494 19.4139 56.4254 19.5699 56.5593 19.5719C59.3022 19.5919 63.1687 20.5519 65.6877 21.9659C65.8576 22.0619 65.7377 22.3919 65.5458 22.3479C61.7333 21.4739 55.4917 20.8099 49.0083 22.3919C43.2205 23.8039 38.8023 25.9839 35.5796 28.3299C35.4176 28.4479 35.2217 28.2359 35.3536 28.0819Z" fill="#FFE002"/>
</svg>
