<svg width="150" height="44" viewBox="0 0 150 44" fill="none" xmlns="http://www.w3.org/2000/svg">
<path d="M128.311 28.971L150 5.394H104.627C103.759 5.394 103.065 6.09 102.979 6.96V11.919C98.9011 4.872 90.3123 0 80.4222 0C68.7102 0 58.9069 6.786 56.044 16.095V5.394H48.1492C46.2406 5.394 44.5923 6.264 43.3777 7.569L28.022 24.447L12.6663 7.569C11.4517 6.264 9.80336 5.481 7.89474 5.394H0V39.846H9.28282C10.1504 39.846 10.8444 39.063 10.8444 38.193V21.75L28.022 40.803L45.1995 21.75V38.193C45.1995 39.063 45.9803 39.759 46.8479 39.846H56.044V27.405C58.9069 36.714 68.7102 43.5 80.4222 43.5C94.3898 43.5 105.755 33.756 105.755 21.75C105.755 19.836 105.408 18.096 104.887 16.356H124.667L102.979 39.933H148.352C149.219 39.933 149.913 39.237 150 38.367V28.971H128.311ZM80.509 32.538C73.7421 32.538 68.1897 27.666 68.1897 21.75C68.1897 15.747 73.7421 10.962 80.509 10.962C87.3626 10.962 92.8282 15.834 92.8282 21.75C92.8282 27.666 87.3626 32.538 80.509 32.538Z" fill="#4DBDEB"/>
</svg>
