<svg width="106" height="120" viewBox="0 0 106 120" fill="none" xmlns="http://www.w3.org/2000/svg">
<path d="M53 119.777C51.354 119.777 49.8178 119.337 48.3913 118.567L33.7971 109.874C31.6025 108.663 32.6998 108.223 33.3582 108.003C36.3209 107.013 36.8696 106.793 39.942 105.032C40.2712 104.812 40.7101 104.922 41.0393 105.142L52.2319 111.855C52.6708 112.075 53.2195 112.075 53.5487 111.855L97.3313 86.4356C97.7702 86.2155 97.9897 85.7753 97.9897 85.2251V34.4972C97.9897 33.947 97.7702 33.5068 97.3313 33.2868L53.5487 7.97782C53.1097 7.75774 52.5611 7.75774 52.2319 7.97782L8.44928 33.2868C8.01035 33.5068 7.79089 34.057 7.79089 34.4972V85.2251C7.79089 85.6653 8.01035 86.2155 8.44928 86.4356L20.4099 93.368C26.8841 96.6692 30.9441 92.8178 30.9441 88.9664V38.8988C30.9441 38.2385 31.4928 37.5783 32.2609 37.5783H37.8571C38.5155 37.5783 39.1739 38.1285 39.1739 38.8988V88.9664C39.1739 97.6595 34.4555 102.721 26.2257 102.721C23.7019 102.721 21.7267 102.721 16.1304 99.9703L4.6087 93.368C1.75569 91.7174 0 88.6363 0 85.3352V34.6072C0 31.3061 1.75569 28.225 4.6087 26.5744L48.3913 1.15541C51.1346 -0.385136 54.8654 -0.385136 57.6087 1.15541L101.391 26.5744C104.244 28.225 106 31.3061 106 34.6072V85.3352C106 88.6363 104.244 91.7174 101.391 93.368L57.6087 118.787C56.1822 119.447 54.5362 119.777 53 119.777ZM66.4969 84.895C47.294 84.895 43.3437 76.0919 43.3437 68.6093C43.3437 67.949 43.8923 67.2888 44.6605 67.2888H50.3665C51.0248 67.2888 51.5735 67.7289 51.5735 68.3892C52.4513 74.2212 54.9752 77.0823 66.6066 77.0823C75.824 77.0823 79.7743 74.9915 79.7743 70.0398C79.7743 67.1787 78.677 65.088 64.3023 63.6575C52.3416 62.4471 44.8799 59.8061 44.8799 50.2328C44.8799 41.3196 52.3416 36.0377 64.8509 36.0377C78.8965 36.0377 85.8095 40.8795 86.6874 51.4432C86.6874 51.7733 86.5776 52.1034 86.3582 52.4335C86.1387 52.6536 85.8095 52.8737 85.4803 52.8737H79.7743C79.2257 52.8737 78.677 52.4335 78.5673 51.8833C77.2505 45.8312 73.8489 43.8505 64.8509 43.8505C54.7557 43.8505 53.5487 47.3717 53.5487 50.0127C53.5487 53.2038 54.9752 54.1942 68.5818 55.9548C82.0787 57.7154 88.4431 60.2463 88.4431 69.7096C88.3333 79.3931 80.4327 84.895 66.4969 84.895Z" fill="#539E43"/>
</svg>
