<svg width="180" height="92" viewBox="0 0 180 92" fill="none" xmlns="http://www.w3.org/2000/svg">
<path fill-rule="evenodd" clip-rule="evenodd" d="M90 91.2189C139.706 91.2189 180 70.7981 180 45.6094C180 20.4208 139.706 0 90 0C40.2953 0 0 20.4208 0 45.6094C0 70.7981 40.2953 91.2189 90 91.2189Z" fill="#6E81B6"/>
<path fill-rule="evenodd" clip-rule="evenodd" d="M108.232 60.3516L112.696 37.3754C113.704 32.1897 112.866 28.3219 110.207 25.8776C107.631 23.5127 103.259 22.3624 96.8399 22.3624H89.1086L91.32 10.9788C91.3615 10.7669 91.3555 10.5485 91.3025 10.3392C91.2496 10.1299 91.1509 9.93497 91.0137 9.76831C90.8765 9.60165 90.7041 9.46743 90.5089 9.37529C90.3136 9.28314 90.1004 9.23535 89.8845 9.23535H79.2138C78.5129 9.23535 77.9111 9.7327 77.7772 10.4205L73.0355 34.8125C72.6046 32.0678 71.5424 29.7084 69.8425 27.7614C66.7125 24.1788 61.7619 22.3624 55.1265 22.3624H34.4445C33.7436 22.3624 33.1418 22.8597 33.0079 23.5465L23.4124 72.9203C23.3286 73.3502 23.4407 73.7921 23.7193 74.1294C23.9968 74.4679 24.4104 74.6627 24.849 74.6627H35.6035C36.3044 74.6627 36.9062 74.1653 37.0401 73.4764L39.3614 61.5346H47.3669C51.5678 61.5346 55.0982 61.0797 57.8538 60.1829C60.6714 59.2665 63.2648 57.7125 65.5502 55.5729C67.3971 53.8762 68.9228 51.976 70.0971 49.9268L68.1806 59.7911C68.0968 60.221 68.2089 60.665 68.4875 61.0002C68.765 61.3387 69.1797 61.5335 69.6172 61.5335H80.2879C80.9888 61.5335 81.5906 61.0361 81.7245 60.3494L86.9908 33.2475H94.3128C97.433 33.2475 98.3471 33.869 98.5964 34.1356C98.8216 34.3794 99.2896 35.238 98.764 37.9446L94.5196 59.79C94.4789 60.0018 94.4855 60.22 94.5388 60.429C94.5922 60.638 94.691 60.8326 94.8282 60.999C94.9654 61.1654 95.1376 61.2995 95.3326 61.3917C95.5276 61.4839 95.7405 61.5319 95.9562 61.5324H106.797C107.136 61.5331 107.465 61.4156 107.727 61.2001C107.989 60.9846 108.167 60.6846 108.232 60.3516ZM58.7603 41.3673C58.0899 44.8118 56.8275 47.2681 55.0057 48.6687C53.1556 50.0955 50.1965 50.8181 46.2101 50.8181H41.4433L44.89 33.081H51.053C55.5803 33.081 57.4043 34.0485 58.1367 34.8593C59.1521 35.9846 59.3676 38.2363 58.7603 41.3673ZM153.18 27.7614C150.051 24.1788 145.1 22.3624 138.465 22.3624H117.783C117.081 22.3624 116.48 22.8597 116.346 23.5465L106.752 72.9203C106.667 73.3502 106.779 73.7921 107.058 74.1294C107.336 74.4668 107.751 74.6627 108.186 74.6627H118.942C119.644 74.6627 120.245 74.1653 120.379 73.4764L122.7 61.5346H130.707C134.908 61.5346 138.436 61.0797 141.192 60.1829C144.011 59.2665 146.604 57.7125 148.889 55.5729C150.795 53.8218 152.364 51.8531 153.552 49.7276C154.741 47.6022 155.593 45.2319 156.09 42.6809C157.312 36.3895 156.334 31.3702 153.18 27.7614ZM142.709 41.3673C142.038 44.8118 140.775 47.2681 138.956 48.6687C137.105 50.0955 134.146 50.8181 130.16 50.8181H125.392L128.838 33.081H135.002C139.529 33.081 141.353 34.0485 142.087 34.8593C143.1 35.9846 143.317 38.2363 142.709 41.3673Z" fill="white"/>
<path fill-rule="evenodd" clip-rule="evenodd" d="M51.0533 31.6174C55.1387 31.6174 57.8627 32.3716 59.2242 33.8799C60.5846 35.3883 60.9089 37.9785 60.1971 41.6471C59.4527 45.4681 58.0205 48.1954 55.8984 49.83C53.7762 51.4646 50.5461 52.2809 46.2103 52.2809H39.6675L43.6833 31.6174H51.0533ZM24.8481 73.199H35.6027L38.1548 60.0731H47.3672C51.432 60.0731 54.7763 59.6454 57.4013 58.7911C60.0263 57.9367 62.4129 56.5056 64.5601 54.4956C66.3623 52.8403 67.8207 51.0119 68.9372 49.0138C70.0527 47.0157 70.845 44.8119 71.3141 42.4013C72.4524 36.5484 71.5938 31.9896 68.7403 28.7247C65.8878 25.4587 61.3485 23.8263 55.1267 23.8263H34.4448L24.8481 73.199ZM79.2129 10.6992H89.8837L87.3327 23.8263H96.8401C102.819 23.8263 106.947 24.8688 109.217 26.9551C111.487 29.0414 112.168 32.4227 111.26 37.097L106.796 60.0731H95.9553L100.2 38.2266C100.682 35.7409 100.505 34.0464 99.6664 33.1421C98.8273 32.2388 97.0414 31.7861 94.312 31.7861H85.7841L80.2871 60.0731H69.6163L79.2129 10.6992ZM135.002 31.6174C139.088 31.6174 141.811 32.3716 143.173 33.8799C144.534 35.3883 144.857 37.9785 144.145 41.6471C143.403 45.4681 141.971 48.1954 139.847 49.83C137.726 51.4646 134.495 52.2809 130.162 52.2809H123.619L127.633 31.6174H135.002ZM108.795 73.199H119.551L122.102 60.0731H131.314C135.38 60.0731 138.724 59.6454 141.349 58.7911C143.974 57.9367 146.361 56.5056 148.508 54.4956C150.31 52.8403 151.769 51.0119 152.884 49.0138C154 47.0157 154.793 44.8119 155.263 42.4013C156.4 36.5484 155.542 31.9896 152.689 28.7247C149.835 25.4587 145.297 23.8263 139.075 23.8263H118.393L108.795 73.199Z" fill="black"/>
</svg>
