<svg width="107" height="120" viewBox="0 0 107 120" fill="none" xmlns="http://www.w3.org/2000/svg">
<g clip-path="url(#clip0_486_7819)">
<path d="M106.156 60.0105C106.156 53.0341 97.4193 46.4226 84.0246 42.3226C87.1157 28.6702 85.7419 17.8085 79.6885 14.331C78.2932 13.5153 76.6618 13.1289 74.8801 13.1289V17.9158C75.8675 17.9158 76.6618 18.109 77.3272 18.4739C80.2466 20.1483 81.5131 26.5236 80.5256 34.7236C80.2895 36.7414 79.9031 38.8666 79.4309 41.0346C75.2235 40.0043 70.6298 39.21 65.8 38.6948C62.9021 34.7236 59.8969 31.1174 56.8702 27.9619C63.8681 21.4577 70.4366 17.8943 74.9016 17.8943V13.1074C68.9984 13.1074 61.2707 17.3148 53.4571 24.6132C45.6435 17.3577 37.9157 13.1933 32.0126 13.1933V17.9802C36.456 17.9802 43.0461 21.5221 50.044 27.9833C47.0387 31.1388 44.0335 34.7236 41.1785 38.6948C36.3272 39.21 31.7335 40.0043 27.5262 41.0561C27.0325 38.9095 26.6675 36.8273 26.41 34.831C25.4011 26.631 26.6461 20.2556 29.544 18.5598C30.188 18.1734 31.0251 18.0017 32.0126 18.0017V13.2148C30.2094 13.2148 28.578 13.6011 27.1613 14.4168C21.1293 17.8943 19.777 28.7346 22.8895 42.3441C9.53771 46.4655 0.843994 53.0556 0.843994 60.0105C0.843994 66.987 9.58064 73.5985 22.9754 77.6985C19.8843 91.3508 21.2581 102.213 27.3115 105.69C28.7068 106.506 30.3382 106.892 32.1414 106.892C38.0445 106.892 45.7722 102.685 53.5859 95.3864C61.3995 102.642 69.1272 106.806 75.0303 106.806C76.8335 106.806 78.4649 106.42 79.8817 105.604C85.9136 102.127 87.2659 91.2864 84.1534 77.677C97.4623 73.577 106.156 66.9655 106.156 60.0105ZM78.2073 45.6927C77.4131 48.4619 76.4256 51.3168 75.3094 54.1718C74.4293 52.4545 73.5063 50.7372 72.4974 49.02C71.5099 47.3027 70.4581 45.6283 69.4063 43.9969C72.4544 44.4477 75.3953 45.0058 78.2073 45.6927ZM68.3759 68.554C66.7016 71.4519 64.9843 74.1995 63.2026 76.754C60.0042 77.033 56.7628 77.1833 53.5 77.1833C50.2586 77.1833 47.0173 77.033 43.8403 76.7755C42.0586 74.221 40.3199 71.4948 38.6455 68.6184C37.0141 65.8063 35.533 62.9514 34.1806 60.0749C35.5115 57.1985 37.0141 54.3221 38.6241 51.51C40.2984 48.6121 42.0157 45.8645 43.7974 43.31C46.9958 43.031 50.2372 42.8807 53.5 42.8807C56.7414 42.8807 59.9827 43.031 63.1597 43.2886C64.9413 45.843 66.6801 48.5692 68.3544 51.4456C69.9859 54.2577 71.467 57.1126 72.8194 59.9891C71.467 62.8655 69.9858 65.7419 68.3759 68.554ZM75.3094 65.7634C76.4686 68.6399 77.456 71.5163 78.2717 74.3069C75.4597 74.9938 72.4974 75.5734 69.4277 76.0241C70.4796 74.3713 71.5314 72.6755 72.5188 70.9367C73.5063 69.2194 74.4293 67.4807 75.3094 65.7634ZM53.5429 88.6676C51.5466 86.6069 49.5503 84.31 47.5754 81.7985C49.5073 81.8843 51.4822 81.9487 53.4785 81.9487C55.4963 81.9487 57.4927 81.9058 59.4461 81.7985C57.5141 84.31 55.5178 86.6069 53.5429 88.6676ZM37.5723 76.0241C34.5241 75.5734 31.5832 75.0152 28.7712 74.3283C29.5654 71.5592 30.5529 68.7043 31.6691 65.8493C32.5492 67.5666 33.4723 69.2838 34.4812 71.0011C35.4901 72.7184 36.5204 74.3927 37.5723 76.0241ZM53.4356 31.3535C55.4319 33.4142 57.4283 35.7111 59.4031 38.2226C57.4712 38.1367 55.4963 38.0723 53.5 38.0723C51.4822 38.0723 49.4859 38.1153 47.5325 38.2226C49.4644 35.7111 51.4607 33.4142 53.4356 31.3535ZM37.5508 43.9969C36.499 45.6498 35.4471 47.3456 34.4597 49.0844C33.4723 50.8016 32.5492 52.5189 31.6691 54.2362C30.5099 51.3598 29.5225 48.4833 28.7068 45.6927C31.5189 45.0273 34.4812 44.4477 37.5508 43.9969ZM18.1241 70.8723C10.5251 67.631 5.60944 63.3807 5.60944 60.0105C5.60944 56.6404 10.5251 52.3687 18.1241 49.1488C19.9702 48.3545 21.988 47.6461 24.0702 46.9807C25.2937 51.188 26.9037 55.5671 28.9 60.0535C26.9251 64.5184 25.3367 68.876 24.1346 73.0618C22.0094 72.3964 19.9916 71.6666 18.1241 70.8723ZM29.6728 101.547C26.7534 99.8728 25.4869 93.4974 26.4744 85.2974C26.7105 83.2796 27.0969 81.1545 27.5691 78.9864C31.7764 80.0168 36.3702 80.8111 41.2 81.3262C44.0979 85.2974 47.1031 88.9037 50.1298 92.0592C43.1319 98.5634 36.5634 102.127 32.0984 102.127C31.1325 102.105 30.3168 101.912 29.6728 101.547ZM80.59 85.1901C81.5989 93.3901 80.3539 99.7655 77.456 101.461C76.812 101.848 75.9748 102.019 74.9874 102.019C70.544 102.019 63.9539 98.4775 56.956 92.0163C59.9613 88.8608 62.9665 85.276 65.8215 81.3048C70.6728 80.7896 75.2665 79.9953 79.4738 78.9435C79.9675 81.1116 80.3539 83.1938 80.59 85.1901ZM88.8544 70.8723C87.0084 71.6666 84.9906 72.3749 82.9084 73.0404C81.6848 68.833 80.0749 64.454 78.0785 59.9676C80.0534 55.5027 81.6419 51.1451 82.844 46.9592C84.9691 47.6247 86.9869 48.3545 88.8759 49.1488C96.4748 52.3901 101.391 56.6404 101.391 60.0105C101.369 63.3807 96.4534 67.6524 88.8544 70.8723Z" fill="#61DAFB"/>
<path d="M53.4786 69.8206C58.8965 69.8206 63.2886 65.4285 63.2886 60.0106C63.2886 54.5927 58.8965 50.2007 53.4786 50.2007C48.0608 50.2007 43.6687 54.5927 43.6687 60.0106C43.6687 65.4285 48.0608 69.8206 53.4786 69.8206Z" fill="#61DAFB"/>
</g>
<defs>
<clipPath id="clip0_486_7819">
<rect width="105.312" height="120" fill="white" transform="translate(0.843994)"/>
</clipPath>
</defs>
</svg>
