<svg width="130" height="79" viewBox="0 0 130 79" fill="none" xmlns="http://www.w3.org/2000/svg">
<path d="M112.123 38.5512C112.123 40.9606 110.895 41.354 107.85 41.354C104.609 41.354 104.02 40.8131 103.676 38.3545C103.037 32.1096 98.8137 26.799 91.7416 26.2089C89.4824 26.0122 88.9422 25.1763 88.9422 22.3735C88.9422 19.7673 89.3351 18.538 91.3487 18.538C103.627 18.5872 112.123 28.4708 112.123 38.5512ZM130 38.5512C130 19.8165 117.329 0 88.0582 0H29.9093C28.7306 0 27.994 0.59007 27.994 1.67186C27.994 2.26193 28.436 2.80283 28.8289 3.09786C30.9407 4.76973 34.0839 6.63828 38.2093 8.70352C42.2365 10.7196 45.3797 12.0472 48.5229 13.3257C49.8489 13.8666 50.34 14.4567 50.34 15.1943C50.34 16.2269 49.6033 16.8661 48.1791 16.8661H2.0136C0.638458 16.8661 0 17.7512 0 18.6364C0 19.3739 0.245559 20.0132 0.884017 20.6524C4.61654 24.5862 10.6082 29.3068 19.3011 34.7649C26.9135 39.5346 36.343 44.6977 43.8572 48.2873C45.1341 48.8774 45.527 49.5658 45.527 50.3034C45.4779 51.1393 44.8394 51.8277 43.3661 51.8277H22.1987C21.02 51.8277 20.3325 52.467 20.3325 53.4504C20.3325 53.9913 20.7745 54.6797 21.3638 55.2206C26.1768 59.597 33.8874 64.3667 44.1519 68.743C57.8542 74.5946 71.7529 78.0858 87.3706 78.0858C116.985 78.0858 130 55.9091 130 38.5512ZM91.3487 65.1535C76.8115 65.1535 64.6808 53.3029 64.6808 38.5512C64.6808 23.9961 76.8115 12.3423 91.3487 12.3423C106.279 12.3423 117.918 23.9961 117.918 38.5512C117.869 53.3029 106.23 65.1535 91.3487 65.1535Z" fill="#FF642D"/>
</svg>
