<svg width="132" height="150" viewBox="0 0 132 150" fill="none" xmlns="http://www.w3.org/2000/svg">
<g clip-path="url(#clip0_453_8056)">
<path d="M115.379 29.4555C115.275 28.7055 114.616 28.2904 114.071 28.2447C113.527 28.1995 102.015 27.3493 102.015 27.3493C102.015 27.3493 94.02 19.4409 93.1425 18.5656C92.2645 17.6907 90.5497 17.9568 89.8841 18.152C89.7861 18.1808 88.1373 18.6878 85.41 19.5287C82.7393 11.8715 78.0259 4.83491 69.734 4.83491C69.505 4.83491 69.2694 4.84415 69.0338 4.85751C66.6756 1.75015 63.7543 0.400146 61.2311 0.400146C41.9152 0.400146 32.6869 24.4592 29.7935 36.6852C22.2878 39.0025 16.9557 40.65 16.2747 40.8632C12.0851 42.1726 11.9526 42.3041 11.4025 46.2375C10.9885 49.2154 0.0263672 133.682 0.0263672 133.682L85.4455 149.629L131.729 139.653C131.729 139.653 115.481 30.2055 115.379 29.4555ZM80.6889 20.9835L73.461 23.2125C73.4636 22.7049 73.4662 22.2056 73.4662 21.6596C73.4662 16.9007 72.8032 13.069 71.7395 10.0315C76.0121 10.5657 78.8575 15.4094 80.6889 20.9835ZM66.4394 10.9751C67.6273 13.9407 68.3997 18.1967 68.3997 23.9399C68.3997 24.2337 68.3971 24.5024 68.3945 24.7741C63.694 26.2248 58.5862 27.7998 53.4671 29.3799C56.3414 18.3272 61.7292 12.9888 66.4394 10.9751ZM60.7006 5.5623C61.5343 5.5623 62.3741 5.84432 63.1779 6.39552C56.9874 9.29792 50.352 16.6079 47.5499 31.2056L35.7504 34.8467C39.0326 23.7123 46.8265 5.5623 60.7006 5.5623Z" fill="#95BF46"/>
<path d="M114.07 28.2446C113.526 28.1994 102.015 27.3493 102.015 27.3493C102.015 27.3493 94.0196 19.4409 93.1421 18.5655C92.8137 18.2398 92.3708 18.0729 91.9078 18.001L85.4492 149.628L131.728 139.653C131.728 139.653 115.48 30.2054 115.378 29.4554C115.275 28.7054 114.615 28.2904 114.07 28.2446Z" fill="#5E8E3E"/>
<path d="M69.7339 53.7252L64.027 70.6393C64.027 70.6393 59.027 67.9804 52.8979 67.9804C43.9124 67.9804 43.4603 73.5987 43.4603 75.0145C43.4603 82.7395 63.6708 85.6994 63.6708 103.794C63.6708 118.03 54.6085 127.197 42.3894 127.197C27.7265 127.197 20.228 118.105 20.228 118.105L24.1541 105.18C24.1541 105.18 31.8619 111.773 38.3659 111.773C42.6158 111.773 44.3445 108.439 44.3445 106.003C44.3445 95.9266 27.7636 95.4771 27.7636 78.9191C27.7636 64.983 37.8029 51.4968 58.068 51.4968C65.8764 51.4968 69.7339 53.7252 69.7339 53.7252Z" fill="white"/>
</g>
<defs>
<clipPath id="clip0_453_8056">
<rect width="132" height="150" fill="white"/>
</clipPath>
</defs>
</svg>
