<svg width="45" height="45" viewBox="0 0 45 45" fill="none" xmlns="http://www.w3.org/2000/svg">
<circle cx="22.5" cy="22.5" r="22.5" fill="#171717"/>
<path d="M22.4938 11.0479C22.2223 11.0522 21.9631 11.1624 21.7716 11.355L16.5653 16.5614C16.4616 16.6563 16.3782 16.7711 16.32 16.899C16.2619 17.027 16.2302 17.1654 16.227 17.3059C16.2237 17.4463 16.2489 17.586 16.301 17.7165C16.3531 17.847 16.4311 17.9656 16.5303 18.0652C16.6295 18.1648 16.7477 18.2432 16.878 18.2959C17.0083 18.3485 17.1479 18.3744 17.2884 18.3717C17.4289 18.369 17.5674 18.3379 17.6956 18.2803C17.8237 18.2226 17.9389 18.1396 18.0342 18.0364L21.4563 14.6143L21.4646 32.9086C21.4706 33.1809 21.583 33.4399 21.7777 33.6304C21.9724 33.8208 22.2339 33.9275 22.5063 33.9275C22.7786 33.9275 23.0401 33.8208 23.2348 33.6304C23.4295 33.4399 23.5419 33.1809 23.5479 32.9086L23.5396 14.594L26.9759 18.0364C27.1729 18.2252 27.436 18.3293 27.7089 18.3265C27.9818 18.3237 28.2427 18.2142 28.4358 18.0213C28.629 17.8285 28.7389 17.5677 28.7421 17.2948C28.7452 17.0219 28.6415 16.7587 28.4529 16.5614L23.2466 11.355C23.1481 11.256 23.0307 11.1778 22.9014 11.1251C22.7721 11.0723 22.6335 11.0461 22.4938 11.0479Z" fill="white"/>
</svg>
