<svg width="64" height="64" viewBox="0 0 64 64" fill="none" xmlns="http://www.w3.org/2000/svg">
<g clip-path="url(#clip0_453_7790)">
<path d="M45.7201 15.9541L26.2599 15.9541C25.7445 15.963 25.2533 16.174 24.892 16.5417C24.5307 16.9093 24.3283 17.4041 24.3283 17.9196C24.3283 18.435 24.5307 18.9298 24.892 19.2974C25.2533 19.6651 25.7445 19.8761 26.2599 19.885L40.9746 19.885L16.5298 44.3298C16.1611 44.6985 15.954 45.1985 15.954 45.7199C15.954 46.2412 16.1611 46.7412 16.5298 47.1099C16.8985 47.4785 17.3985 47.6856 17.9198 47.6856C18.4412 47.6856 18.9412 47.4785 19.3098 47.1099L43.7546 22.6651L43.7546 37.3798C43.7501 37.6408 43.7976 37.9 43.8943 38.1425C43.9911 38.3849 44.1351 38.6056 44.3181 38.7918C44.501 38.978 44.7193 39.1258 44.96 39.2268C45.2007 39.3277 45.4591 39.3797 45.7201 39.3797C45.9812 39.3797 46.2396 39.3277 46.4803 39.2268C46.721 39.1259 46.9392 38.978 47.1222 38.7918C47.3051 38.6057 47.4492 38.3849 47.5459 38.1425C47.6427 37.9 47.6901 37.6408 47.6856 37.3798V17.9196C47.6855 17.3983 47.4784 16.8984 47.1098 16.5298C46.7413 16.1613 46.2414 15.9542 45.7201 15.9541Z" fill="white"/>
</g>
<defs>
<clipPath id="clip0_453_7790">
<rect width="47.1787" height="47.1787" fill="white" transform="translate(-1.54053 31.8198) rotate(-45)"/>
</clipPath>
</defs>
</svg>
