<svg width="96" height="96" viewBox="0 0 96 96" fill="none" xmlns="http://www.w3.org/2000/svg">
<circle cx="48" cy="48" r="48" fill="#0A0B0F"/>
<path d="M53.8857 34.1262C52.4495 34.8451 51.8271 36.1869 51.8271 39.8291C51.8271 39.8291 52.5452 39.1102 53.6942 38.6789C54.532 38.3674 55.1304 37.9601 55.5612 37.6486C56.8059 36.7141 56.9974 35.5879 56.9974 33.623C56.9735 33.623 55.0107 33.5032 53.8857 34.1262Z" fill="#FBBD71"/>
<path d="M45.101 34.965C43.8563 35.9953 43.5451 37.7685 43.5451 37.7685L39.5238 53.1998L36.2206 40.572C35.9094 39.2301 35.287 37.5768 34.3535 36.4266C33.2046 34.965 30.8109 34.8691 30.5237 34.8691C30.3083 34.8691 27.9386 34.965 26.6939 36.4266C25.7603 37.5768 25.138 39.2301 24.8268 40.572L21.7151 53.1998L17.6938 37.7685C17.6938 37.7685 17.3826 36.1151 16.1379 34.965C14.1751 33.1918 11.2788 33.6231 11.2788 33.6231L18.9385 62.4969C18.9385 62.4969 21.4279 62.7126 22.6725 62.0896C24.3242 61.2509 25.1619 60.6519 26.0955 56.6982C27.029 53.1758 29.5184 42.9202 29.7099 42.2014C29.8056 41.8899 30.021 40.9554 30.6434 40.9554C31.2657 40.9554 31.4811 41.794 31.5769 42.2014C31.7923 42.9202 34.2578 53.1758 35.1913 56.6982C36.2206 60.6279 36.9387 61.2509 38.6142 62.0896C39.8589 62.7126 42.3483 62.4969 42.3483 62.4969L49.9601 33.6231C49.9601 33.6231 47.0638 33.2158 45.101 34.965ZM56.9734 38.2717C56.9734 38.2717 56.4468 38.9905 55.4176 39.6135C54.6995 40.0209 54.0771 40.2365 53.359 40.6439C52.1143 41.2669 51.8032 41.8899 51.8032 42.8244V62.4011C51.8032 62.4011 53.766 62.6167 55.0106 61.9937C56.6623 61.155 56.9734 60.3404 56.9734 56.818V39.4218V38.2717ZM76.0029 48.1199L85.7211 33.7189C85.7211 33.7189 81.6998 33.0001 79.6173 34.8691C78.2768 36.0193 76.9364 38.1758 76.9364 38.1758L73.4178 43.3515C73.2023 43.663 73.0108 43.8787 72.6997 43.8787C72.3885 43.8787 72.0773 43.5672 71.9816 43.3515L68.4629 38.1758C68.4629 38.1758 67.0267 36.1151 65.782 34.8691C63.7235 33.0001 59.6782 33.7189 59.6782 33.7189L69.0853 48.0959L59.4628 62.4729C59.4628 62.4729 63.6996 63.0001 65.782 61.1311C67.1225 59.9809 68.3672 58.0161 68.3672 58.0161L71.8858 52.8404C72.1013 52.5289 72.2927 52.3132 72.6039 52.3132C72.9151 52.3132 73.2263 52.6247 73.322 52.8404L76.8407 58.0161C76.8407 58.0161 78.1811 59.9809 79.4258 61.1311C81.4843 63.0001 85.6253 62.4729 85.6253 62.4729L76.0029 48.1199Z" fill="white"/>
</svg>
