<svg width="96" height="96" viewBox="0 0 96 96" fill="none" xmlns="http://www.w3.org/2000/svg">
<circle cx="48" cy="48" r="48" fill="#0A0B0F"/>
<g clip-path="url(#clip0_27_347)">
<path d="M68.3262 29.7823C68.2846 29.4823 68.0198 29.3163 67.801 29.298C67.5826 29.2799 62.9605 28.9398 62.9605 28.9398C62.9605 28.9398 59.7504 25.7765 59.3981 25.4263C59.0455 25.0764 58.357 25.1828 58.0897 25.2609C58.0504 25.2724 57.3884 25.4752 56.2933 25.8116C55.221 22.7487 53.3285 19.9341 49.9992 19.9341C49.9072 19.9341 49.8126 19.9378 49.718 19.9431C48.7712 18.7002 47.5982 18.1602 46.5851 18.1602C38.8295 18.1602 35.1242 27.7838 33.9625 32.6742C30.9488 33.6011 28.8079 34.2601 28.5344 34.3454C26.8523 34.8691 26.7991 34.9217 26.5782 36.4951C26.412 37.6863 22.0105 71.473 22.0105 71.473L56.3076 77.8515L74.8909 73.8611C74.8909 73.8611 68.3672 30.0823 68.3262 29.7823ZM54.3977 26.3935L51.4956 27.2851C51.4967 27.0821 51.4977 26.8823 51.4977 26.6639C51.4977 24.7604 51.2315 23.2277 50.8044 22.0127C52.5199 22.2264 53.6624 24.1639 54.3977 26.3935ZM48.6764 22.3902C49.1533 23.5764 49.4634 25.2788 49.4634 27.576C49.4634 27.6936 49.4624 27.801 49.4613 27.9097C47.574 28.49 45.5232 29.12 43.4678 29.7521C44.6218 25.331 46.7851 23.1956 48.6764 22.3902ZM46.3721 20.225C46.7069 20.225 47.0441 20.3378 47.3668 20.5583C44.8812 21.7193 42.217 24.6432 41.0919 30.4823L36.3543 31.9388C37.6721 27.485 40.8015 20.225 46.3721 20.225Z" fill="#95BF46"/>
<path d="M67.8011 29.2979C67.5827 29.2798 62.9606 28.9398 62.9606 28.9398C62.9606 28.9398 59.7505 25.7764 59.3981 25.4263C59.2663 25.296 59.0884 25.2292 58.9025 25.2004L56.3093 77.8511L74.891 73.8611C74.891 73.8611 68.3673 30.0822 68.3263 29.7822C68.2847 29.4822 68.0199 29.3162 67.8011 29.2979Z" fill="#5E8E3E"/>
<path d="M49.9992 39.49L47.7078 46.2556C47.7078 46.2556 45.7002 45.1921 43.2393 45.1921C39.6315 45.1921 39.4499 47.4394 39.4499 48.0057C39.4499 51.0957 47.5647 52.2797 47.5647 59.5175C47.5647 65.2119 43.9261 68.8787 39.02 68.8787C33.1326 68.8787 30.1218 65.2417 30.1218 65.2417L31.6982 60.0718C31.6982 60.0718 34.793 62.7092 37.4045 62.7092C39.1108 62.7092 39.805 61.3756 39.805 60.4012C39.805 56.3705 33.1475 56.1908 33.1475 49.5675C33.1475 43.9931 37.1784 38.5986 45.3152 38.5986C48.4503 38.5986 49.9992 39.49 49.9992 39.49Z" fill="white"/>
</g>
<defs>
<clipPath id="clip0_27_347">
<rect width="53" height="60" fill="white" transform="translate(22 18)"/>
</clipPath>
</defs>
</svg>
