<svg width="96" height="96" viewBox="0 0 96 96" fill="none" xmlns="http://www.w3.org/2000/svg">
<circle cx="48" cy="48" r="48" fill="#0A0B0F"/>
<path fill-rule="evenodd" clip-rule="evenodd" d="M61.8773 29.8795C63.0489 28.708 64.9481 28.708 66.1196 29.8795L82.1192 45.879C83.2908 47.0506 83.2908 48.9501 82.1192 50.1217L66.1196 66.1213C64.9481 67.2928 63.0489 67.2928 61.8773 66.1213C60.7058 64.9497 60.7058 63.0502 61.8773 61.8786L75.7554 48.0002L61.8773 34.122C60.7058 32.9505 60.7058 31.0511 61.8773 29.8795Z" fill="white"/>
<path fill-rule="evenodd" clip-rule="evenodd" d="M34.1207 29.8795C32.9492 28.708 31.0497 28.708 29.8782 29.8795L13.8786 45.879C12.7071 47.0506 12.7071 48.9501 13.8786 50.1217L29.8782 66.1213C31.0497 67.2928 32.9492 67.2928 34.1207 66.1213C35.2923 64.9497 35.2923 63.0502 34.1207 61.8786L20.2424 48.0002L34.1207 34.122C35.2923 32.9505 35.2923 31.0511 34.1207 29.8795Z" fill="white"/>
<path fill-rule="evenodd" clip-rule="evenodd" d="M52.6634 23.0753C54.2789 23.4424 55.2909 25.0498 54.9237 26.6654L44.924 70.6644C44.5572 72.28 42.9496 73.2919 41.3341 72.9247C39.7184 72.5575 38.7064 70.95 39.0735 69.3344L49.0735 25.3358C49.4403 23.7201 51.0478 22.7081 52.6634 23.0753Z" fill="white"/>
</svg>
