<svg width="96" height="96" viewBox="0 0 96 96" fill="none" xmlns="http://www.w3.org/2000/svg">
<circle cx="48" cy="48" r="48" fill="#0A0B0F"/>
<g clip-path="url(#clip0_27_325)">
<path d="M46.0373 18.0469C45.9084 18.0586 45.4983 18.0996 45.1292 18.1289C36.6163 18.8964 28.6425 23.4897 23.5922 30.5496C20.78 34.475 18.9814 38.9277 18.3017 43.644C18.0615 45.2903 18.0322 45.7766 18.0322 48.0088C18.0322 50.241 18.0615 50.7273 18.3017 52.3736C19.9305 63.6284 27.9395 73.0845 38.8017 76.5881C40.7468 77.2149 42.7974 77.6426 45.1292 77.9004C46.0373 78 49.9627 78 50.8708 77.9004C54.8958 77.4552 58.3056 76.4592 61.6686 74.7425C62.1842 74.4789 62.2838 74.4086 62.2135 74.35C62.1666 74.3148 59.9695 71.3679 57.3331 67.8057L52.5406 61.3317L46.5353 52.4439C43.2309 47.5577 40.5125 43.562 40.489 43.562C40.4656 43.5561 40.4421 47.505 40.4304 52.3268C40.4129 60.7693 40.407 61.1091 40.3015 61.3083C40.1492 61.5954 40.032 61.7126 39.786 61.8414C39.5985 61.9352 39.4344 61.9528 38.5498 61.9528H37.5362L37.2667 61.7829C37.0909 61.6715 36.962 61.5251 36.8741 61.3552L36.7511 61.0915L36.7628 49.3446L36.7804 37.5919L36.962 37.3634C37.0558 37.2403 37.255 37.0821 37.3956 37.006C37.6358 36.8888 37.7295 36.8771 38.7431 36.8771C39.9383 36.8771 40.1375 36.924 40.448 37.2638C40.5359 37.3575 43.7875 42.2555 47.6778 48.1553C51.568 54.0551 56.8878 62.111 59.5008 66.0656L64.2465 73.2544L64.4867 73.0962C66.6134 71.7135 68.8632 69.745 70.6443 67.6944C74.4349 63.3413 76.878 58.0332 77.6983 52.3736C77.9385 50.7273 77.9678 50.241 77.9678 48.0088C77.9678 45.7766 77.9385 45.2903 77.6983 43.644C76.0695 32.3892 68.0605 22.9331 57.1983 19.4296C55.2825 18.8085 53.2436 18.3808 50.9587 18.1231C50.3963 18.0645 46.5236 18 46.0373 18.0469ZM58.3056 36.174C58.5869 36.3146 58.8153 36.5841 58.8974 36.8654C58.9442 37.0177 58.956 40.2752 58.9442 47.6163L58.9267 58.1504L57.0694 55.303L55.2063 52.4556V44.7982C55.2063 39.8475 55.2298 37.0646 55.2649 36.9298C55.3587 36.6017 55.5637 36.3439 55.8449 36.1916C56.0851 36.0686 56.173 36.0569 57.0929 36.0569C57.96 36.0569 58.1123 36.0686 58.3056 36.174Z" fill="white"/>
<path d="M63.9536 73.3833C63.7485 73.5122 63.6841 73.6001 63.8657 73.5005C63.9946 73.4243 64.2055 73.2661 64.1703 73.2603C64.1528 73.2603 64.0532 73.3188 63.9536 73.3833ZM63.5493 73.6469C63.4439 73.729 63.4439 73.7348 63.5728 73.6704C63.6431 73.6352 63.7016 73.5942 63.7016 73.5825C63.7016 73.5356 63.6724 73.5473 63.5493 73.6469ZM63.2564 73.8227C63.1509 73.9047 63.1509 73.9106 63.2798 73.8461C63.3501 73.811 63.4087 73.77 63.4087 73.7583C63.4087 73.7114 63.3794 73.7231 63.2564 73.8227ZM62.9634 73.9985C62.858 74.0805 62.858 74.0863 62.9869 74.0219C63.0572 73.9867 63.1158 73.9457 63.1158 73.934C63.1158 73.8871 63.0865 73.8989 62.9634 73.9985ZM62.5182 74.2328C62.2955 74.35 62.3072 74.3969 62.5299 74.2855C62.6295 74.2328 62.7056 74.1801 62.7056 74.1684C62.7056 74.1274 62.6998 74.1332 62.5182 74.2328Z" fill="white"/>
</g>
<defs>
<clipPath id="clip0_27_325">
<rect width="60" height="60" fill="white" transform="translate(18 18)"/>
</clipPath>
</defs>
</svg>
