<svg width="96" height="96" viewBox="0 0 96 96" fill="none" xmlns="http://www.w3.org/2000/svg">
<circle cx="48" cy="48" r="48" fill="#0A0B0F"/>
<g clip-path="url(#clip0_27_302)">
<path d="M76.8642 31.6893C76.8857 31.7688 76.8966 31.8508 76.8969 31.9332V44.7337C76.8969 44.8979 76.8535 45.0593 76.7712 45.2015C76.6889 45.3437 76.5706 45.4616 76.4281 45.5433L65.6904 51.7289V63.9892C65.6904 64.3229 65.5131 64.6309 65.224 64.7989L42.8098 77.709C42.7585 77.7382 42.7026 77.7568 42.6466 77.7767C42.6256 77.7837 42.6058 77.7965 42.5836 77.8023C42.427 77.8436 42.2623 77.8436 42.1056 77.8023C42.0799 77.7953 42.0566 77.7813 42.0321 77.772C41.9808 77.7533 41.9272 77.737 41.8782 77.709L19.4687 64.7989C19.3264 64.717 19.2081 64.5991 19.1258 64.4569C19.0435 64.3148 19.0001 64.1535 19 63.9892V25.5878C19 25.5038 19.0117 25.4221 19.0326 25.3428C19.0396 25.3159 19.056 25.2914 19.0653 25.2646C19.0828 25.2156 19.0991 25.1654 19.1248 25.1199C19.1423 25.0896 19.1679 25.0651 19.1889 25.0371C19.2157 24.9998 19.2402 24.9613 19.2717 24.9286C19.2985 24.9018 19.3335 24.8819 19.3638 24.8586C19.3976 24.8306 19.4279 24.8003 19.4664 24.7781L30.6729 18.323C30.8148 18.2414 30.9756 18.1984 31.1393 18.1984C31.303 18.1984 31.4638 18.2414 31.6057 18.323L42.811 24.7781H42.8133C42.8507 24.8014 42.8821 24.8306 42.9159 24.8574C42.9463 24.8808 42.9801 24.9018 43.0069 24.9274C43.0395 24.9613 43.0629 24.9998 43.0908 25.0371C43.1107 25.0651 43.1375 25.0896 43.1538 25.1199C43.1806 25.1666 43.1958 25.2156 43.2144 25.2646C43.2238 25.2914 43.2401 25.3159 43.2471 25.3439C43.2686 25.4234 43.2795 25.5054 43.2797 25.5878V49.5729L52.6171 44.1935V31.932C52.6171 31.8503 52.6288 31.7675 52.6498 31.6893C52.6579 31.6613 52.6731 31.6368 52.6824 31.61C52.7011 31.561 52.7174 31.5108 52.743 31.4653C52.7605 31.435 52.7862 31.4105 52.806 31.3825C52.834 31.3452 52.8573 31.3067 52.89 31.274C52.9168 31.2472 52.9506 31.2274 52.9809 31.204C53.0159 31.176 53.0462 31.1457 53.0835 31.1235L64.2912 24.6685C64.433 24.5866 64.5938 24.5436 64.7576 24.5436C64.9213 24.5436 65.0821 24.5866 65.224 24.6685L76.4293 31.1235C76.4689 31.1469 76.4992 31.176 76.5342 31.2029C76.5634 31.2262 76.5972 31.2472 76.624 31.2729C76.6567 31.3067 76.68 31.3452 76.708 31.3825C76.729 31.4105 76.7546 31.435 76.7709 31.4653C76.7977 31.5108 76.8129 31.561 76.8316 31.61C76.8421 31.6368 76.8572 31.6613 76.8642 31.6893ZM75.0289 44.1935V33.549L71.1076 35.8076L65.6904 38.9284V49.5729L75.0301 44.1935H75.0289ZM63.8236 63.449V52.7975L58.495 55.8425L43.2786 64.5317V75.2835L63.8236 63.449ZM20.8679 27.2036V63.449L41.4106 75.2824V64.5329L30.6787 58.4558L30.6752 58.4534L30.6706 58.4511C30.6344 58.4301 30.6041 58.3998 30.5703 58.3741C30.5411 58.3508 30.5073 58.3321 30.4817 58.3064L30.4793 58.3029C30.449 58.2738 30.428 58.2376 30.4024 58.2049C30.3791 58.1734 30.3511 58.1466 30.3324 58.1139L30.3312 58.1104C30.3103 58.0754 30.2974 58.0335 30.2823 57.9938C30.2671 57.9588 30.2473 57.9261 30.238 57.8888C30.2263 57.8445 30.224 57.7966 30.2193 57.7511C30.2146 57.7161 30.2053 57.6811 30.2053 57.6461V32.583L24.7892 29.461L20.8679 27.2036ZM31.1405 20.2107L21.8042 25.5878L31.1381 30.9649L40.4732 25.5866L31.1381 20.2107H31.1405ZM35.9957 53.7682L41.4118 50.6486V27.2036L37.4905 29.4622L32.0733 32.583V56.028L35.9957 53.7682ZM64.7576 26.5561L55.4225 31.9332L64.7576 37.3103L74.0914 31.932L64.7576 26.5561ZM63.8236 38.9284L58.4063 35.8076L54.4851 33.549V44.1935L59.9012 47.3131L63.8236 49.5729V38.9284ZM42.3434 62.9159L56.0358 55.0947L62.8803 51.1864L53.5522 45.8128L42.8122 51.9995L33.0236 57.638L42.3434 62.9159Z" fill="#FF2D20"/>
</g>
<defs>
<clipPath id="clip0_27_302">
<rect width="58" height="60" fill="white" transform="translate(19 18)"/>
</clipPath>
</defs>
</svg>
