<svg width="96" height="96" viewBox="0 0 96 96" fill="none" xmlns="http://www.w3.org/2000/svg">
<circle cx="48" cy="48" r="48" fill="#0A0B0F"/>
<g clip-path="url(#clip0_27_337)">
<path d="M48.0011 77.9997C31.3757 77.9997 17.8757 64.7494 18.0011 47.9998C18.1265 31.2501 30.7511 17.9998 48.0011 17.9998C65.2523 17.9998 78.0011 31.4998 78.0011 47.9998C78.0011 64.4998 64.6265 77.9997 48.0011 77.9997ZM56.8757 73.3744L48.3761 50.4994L40.3757 73.8748C46.2515 75.2505 50.2511 75.6244 56.8757 73.3744ZM36.1265 72.1251L23.3765 37.2501C21.6257 41.0001 21.2519 44.1255 21.0011 47.9998C21.1265 58.249 26.8757 67.624 36.1265 72.1251ZM74.8769 47.9998C75.0011 41.3751 72.0023 36.1251 71.7515 35.3751C72.0023 40.5009 71.2511 43.1248 70.3769 46.0005L61.6265 71.1255C72.6269 64.4998 74.7503 54.6244 75.0011 47.9998H74.8769ZM47.1269 46.8748L42.8765 35.2498L39.7511 35.0001C38.5019 34.1248 39.2507 32.7501 40.1261 32.7501C45.7511 33.1251 48.8753 33.1251 54.5015 32.7501C55.8773 32.7501 56.2511 34.7505 54.6257 35.0001L51.6257 35.2498L61.3745 63.9994L65.9988 48.2494C66.2495 41.3751 64.3734 40.6251 61.8738 35.6248C59.8734 31.7494 61.9992 27.9994 65.8745 27.8751C62.748 24.8751 56.3742 21.1251 47.9988 20.9998C39.6234 20.8744 30.7488 25.1248 25.4988 33.1251L34.7495 32.8755C35.8745 33.3759 35.3742 35.0001 34.7495 35.1255L31.4999 35.3751L41.2499 64.6251L47.1269 46.8748Z" fill="#21759B"/>
</g>
<defs>
<clipPath id="clip0_27_337">
<rect width="60" height="60" fill="white" transform="translate(18 18)"/>
</clipPath>
</defs>
</svg>
