<svg width="96" height="96" viewBox="0 0 96 96" fill="none" xmlns="http://www.w3.org/2000/svg">
<circle cx="48" cy="48" r="48" fill="#0A0B0F"/>
<path d="M51.7491 35.9956V70.1736L48.3879 72.2276L45.0267 70.1651V36.0229L36.3151 41.3852V70.6128L48.3862 78L60.5615 70.5598V41.3664L51.7491 35.9956ZM48.3879 18L23 33.3828V62.6138L29.5943 66.4962V37.2652L48.3947 25.8332L67.2139 37.2481L67.2926 37.2925L67.2823 66.4552L73.8117 62.6138V33.3828L48.3879 18Z" fill="#F37B20"/>
<path d="M73.8117 33.3811L48.3913 18L23 33.3811L29.5909 37.2652L48.3947 25.8332L67.2926 37.2926L73.8117 33.3811ZM51.7491 35.9938V46.7714L60.5632 41.3647L51.7491 35.9938ZM36.3168 41.3869L45.025 46.7047V36.0229L36.3168 41.3869Z" fill="#FAB37C"/>
</svg>
