<svg width="101" height="101" viewBox="0 0 101 101" fill="none" xmlns="http://www.w3.org/2000/svg">
<path d="M100.235 94.8562C100.468 95.357 100.251 95.9517 99.7502 96.1846L91.589 99.9785C91.0882 100.211 90.4935 99.9941 90.2606 99.4933C90.0278 98.9925 90.2451 98.3977 90.7459 98.1649L98.0003 94.7925L94.6279 87.5381C94.3951 87.0373 94.6124 86.4425 95.1132 86.2097C95.614 85.9769 96.2087 86.1942 96.4415 86.695L100.235 94.8562ZM44.1286 21.9231L44.382 22.8904L44.1286 21.9231ZM69.8886 79.5764L69.2331 80.3316L69.8886 79.5764ZM20.8219 30.5097L20.1308 31.2325L20.8219 30.5097ZM71.606 52.8351L70.6775 52.4637L71.606 52.8351ZM99.3287 95.2778C98.9856 96.2171 98.9855 96.217 98.9855 96.217C98.9855 96.217 98.9855 96.217 98.9854 96.217C98.9854 96.217 98.9853 96.217 98.9853 96.2169C98.9851 96.2169 98.9849 96.2168 98.9847 96.2167C98.9843 96.2166 98.9836 96.2163 98.9828 96.2161C98.9812 96.2155 98.9789 96.2146 98.9759 96.2135C98.9699 96.2113 98.9612 96.2081 98.9497 96.2039C98.9268 96.1954 98.893 96.183 98.8488 96.1665C98.7603 96.1337 98.6301 96.085 98.4613 96.0211C98.1237 95.8934 97.6319 95.705 97.0115 95.4608L97.3777 94.5303L97.7439 93.5998C98.3554 93.8404 98.839 94.0257 99.169 94.1505C99.334 94.2129 99.4605 94.2602 99.5454 94.2918C99.5878 94.3075 99.6198 94.3194 99.6411 94.3272C99.6517 94.3311 99.6596 94.334 99.6647 94.3359C99.6673 94.3368 99.6692 94.3375 99.6703 94.3379C99.6709 94.3382 99.6714 94.3383 99.6716 94.3384C99.6717 94.3384 99.6718 94.3385 99.6718 94.3385C99.6719 94.3385 99.6719 94.3385 99.6719 94.3385C99.6719 94.3385 99.6718 94.3385 99.6718 94.3385C99.6718 94.3385 99.6718 94.3385 99.3287 95.2778ZM93.4989 92.9428L93.1083 93.8634C91.9352 93.3657 90.6343 92.798 89.2515 92.1695L89.6653 91.2592L90.0791 90.3488C91.4448 90.9695 92.7301 91.5304 93.8894 92.0222L93.4989 92.9428ZM85.8737 89.4729L85.4346 90.3713C84.2007 89.7683 82.9377 89.1286 81.6718 88.4575L82.1403 87.574L82.6087 86.6905C83.853 87.3502 85.0962 87.9799 86.3128 88.5744L85.8737 89.4729ZM78.4786 85.5392L77.9743 86.4027C76.7426 85.6834 75.5314 84.9371 74.3663 84.1689L74.9168 83.334L75.4674 82.4992C76.5979 83.2447 77.7778 83.9719 78.9829 84.6756L78.4786 85.5392ZM71.5052 80.9019L70.8914 81.6914C70.316 81.2439 69.7617 80.7904 69.2331 80.3316L69.8886 79.5764L70.5441 78.8213C71.0429 79.2542 71.5691 79.6849 72.119 80.1125L71.5052 80.9019ZM69.8886 79.5764L69.2331 80.3316C68.7237 79.8895 68.2055 79.4333 67.6797 78.964L68.3455 78.2179L69.0114 77.4719C69.5305 77.9352 70.0419 78.3853 70.5441 78.8213L69.8886 79.5764ZM65.3059 75.436L64.6219 76.1656C63.6358 75.241 62.6331 74.28 61.6218 73.2882L62.322 72.5743L63.0222 71.8603C64.0229 72.8417 65.0146 73.7923 65.9898 74.7065L65.3059 75.436ZM59.411 69.6566L58.6954 70.3551C57.7386 69.375 56.7805 68.3723 55.8273 67.3516L56.5582 66.6691L57.2891 65.9866C58.2318 66.9962 59.1798 67.9882 60.1266 68.958L59.411 69.6566ZM53.778 63.6222L53.0314 64.2874C52.111 63.2544 51.2013 62.2082 50.3084 61.1532L51.0717 60.5072L51.835 59.8612C52.7164 60.9026 53.6149 61.9359 54.5246 62.9569L53.778 63.6222ZM48.449 57.3187L47.6675 57.9426C46.7944 56.8489 45.9451 55.7503 45.1261 54.6513L45.9279 54.0538L46.7297 53.4562C47.5346 54.5362 48.3703 55.6172 49.2305 56.6948L48.449 57.3187ZM43.5247 50.6958L42.6997 51.2609C41.8972 50.0891 41.1365 48.9216 40.4259 47.7642L41.2781 47.241L42.1303 46.7178C42.8218 47.8441 43.5642 48.9837 44.3498 50.1308L43.5247 50.6958ZM39.2264 43.6525L38.3416 44.1185C37.661 42.8265 37.0558 41.5527 36.5393 40.3062L37.4631 39.9234L38.387 39.5406C38.8768 40.7227 39.4549 41.9406 40.1111 43.1864L39.2264 43.6525ZM36.1341 36.0206L35.1659 36.2707C34.7818 34.7834 34.5593 33.3414 34.5341 31.9666L35.5339 31.9483L36.5338 31.93C36.5555 33.1177 36.7488 34.4018 37.1024 35.7705L36.1341 36.0206ZM36.2064 27.9134L35.2774 27.5435C35.8355 26.1419 36.7157 24.8968 37.9443 23.8448L38.5947 24.6044L39.2451 25.364C38.2594 26.208 37.5722 27.1868 37.1355 28.2834L36.2064 27.9134ZM42.1583 22.5523L41.7992 21.619C42.4465 21.37 43.1382 21.1487 43.8753 20.9557L44.1286 21.9231L44.382 22.8904C43.7103 23.0663 43.0897 23.2654 42.5174 23.4856L42.1583 22.5523ZM44.1286 21.9231L43.8753 20.9557C44.6003 20.7658 45.317 20.6079 46.0249 20.4808L46.2016 21.465L46.3784 22.4493C45.723 22.567 45.0574 22.7136 44.382 22.8904L44.1286 21.9231ZM50.4233 21.076L50.4211 20.076C51.9453 20.0727 53.4157 20.2164 54.8263 20.4914L54.6349 21.4729L54.4436 22.4544C53.1614 22.2044 51.8206 22.073 50.4254 22.076L50.4233 21.076ZM58.6878 22.7003L59.0734 21.7776C60.4554 22.3553 61.7567 23.0658 62.9705 23.8876L62.4099 24.7157L61.8493 25.5437C60.742 24.7941 59.5576 24.1477 58.3022 23.623L58.6878 22.7003ZM65.6758 27.4113L66.3811 26.7023C67.4269 27.7426 68.3758 28.8749 69.2213 30.0767L68.4034 30.6521L67.5855 31.2275C66.8049 30.1179 65.9309 29.0755 64.9706 28.1203L65.6758 27.4113ZM70.543 34.3086L71.4448 33.8765C72.081 35.2043 72.6068 36.5817 73.0153 37.9869L72.055 38.266L71.0947 38.5451C70.7169 37.2451 70.2301 35.9699 69.6412 34.7407L70.543 34.3086ZM72.8924 42.4184L73.886 42.3051C74.054 43.7775 74.0917 45.2577 73.9905 46.7219L72.9929 46.653L71.9953 46.5841C72.0877 45.2462 72.0536 43.8881 71.8989 42.5318L72.8924 42.4184ZM72.2837 50.8269L73.2471 51.0948C73.0481 51.8102 72.811 52.5151 72.5344 53.2065L71.606 52.8351L70.6775 52.4637C70.9263 51.8416 71.1403 51.2057 71.3202 50.5589L72.2837 50.8269ZM71.606 52.8351L72.5344 53.2065C72.2574 53.899 71.944 54.5352 71.5944 55.1157L70.7377 54.5998L69.8811 54.0838C70.1701 53.6039 70.4368 53.0655 70.6775 52.4637L71.606 52.8351ZM68.0677 57.4016L68.6008 58.2477C67.358 59.0308 65.961 59.4558 64.4645 59.5882L64.3764 58.592L64.2883 57.5959C65.5147 57.4875 66.5971 57.1463 67.5346 56.5556L68.0677 57.4016ZM60.494 58.3228L60.2971 59.3032C59.0348 59.0496 57.7251 58.6573 56.3829 58.1511L56.7357 57.2154L57.0886 56.2798C58.3506 56.7557 59.5549 57.1142 60.691 57.3424L60.494 58.3228ZM53.1547 55.6397L52.7095 56.5352C51.5616 55.9646 50.394 55.3279 49.2138 54.6364L49.7194 53.7736L50.2249 52.9108C51.3711 53.5824 52.4983 54.1967 53.5998 54.7443L53.1547 55.6397ZM46.3994 51.7093L45.8512 52.5456C44.7685 51.8359 43.6796 51.089 42.5896 50.3127L43.1697 49.4981L43.7498 48.6836C44.821 49.4466 45.8887 50.1788 46.9476 50.8729L46.3994 51.7093ZM40.016 47.1752L39.411 47.9714C38.3719 47.1818 37.3359 46.372 36.3075 45.5485L36.9325 44.7679L37.5576 43.9873C38.5739 44.8011 39.5966 45.6005 40.621 46.3789L40.016 47.1752ZM33.9038 42.2877L33.2622 43.0547C32.2518 42.2096 31.2532 41.3572 30.2708 40.5044L30.9263 39.7493L31.5819 38.9941C32.5558 39.8396 33.5451 40.6839 34.5454 41.5206L33.9038 42.2877ZM27.9896 37.1575L27.322 37.9021C26.3289 37.0117 25.3587 36.1282 24.4166 35.2594L25.0945 34.5243L25.7724 33.7891C26.7082 34.6521 27.6715 35.5293 28.6571 36.4129L27.9896 37.1575ZM22.238 31.8562L21.551 32.5829C21.0671 32.1254 20.5934 31.6748 20.1308 31.2325L20.8219 30.5097L21.513 29.787C21.9731 30.2269 22.444 30.6748 22.925 31.1296L22.238 31.8562ZM20.8219 30.5097L20.1308 31.2325C19.5807 30.7065 19.0438 30.1775 18.5199 29.6465L19.2317 28.9441L19.9435 28.2418C20.4541 28.7593 20.9772 29.2746 21.513 29.787L20.8219 30.5097ZM16.1919 25.6829L15.4415 26.3439C14.4204 25.1848 13.458 24.0258 12.5523 22.877L13.3376 22.2578L14.1229 21.6387C15.0071 22.7603 15.9462 23.8913 16.9422 25.0219L16.1919 25.6829ZM10.6728 18.6864L9.85586 19.2631C8.95033 17.9804 8.11657 16.725 7.35143 15.5121L8.19719 14.9785L9.04296 14.445C9.7906 15.6301 10.6052 16.8567 11.4898 18.1097L10.6728 18.6864ZM5.91552 11.1454L5.04321 11.6343C4.23303 10.189 3.53517 8.84608 2.94252 7.64021L3.83998 7.19913L4.73745 6.75805C5.31527 7.93374 5.99643 9.24456 6.78782 10.6564L5.91552 11.1454ZM1.99923 3.14824L1.07548 3.53126C0.796388 2.85815 0.591099 2.32752 0.454798 1.96286C0.386633 1.78052 0.335724 1.63965 0.301447 1.54318C0.284313 1.49495 0.271326 1.45781 0.262441 1.43214C0.257993 1.41931 0.254563 1.40934 0.252148 1.40228C0.250935 1.39874 0.249982 1.39594 0.249282 1.39388C0.248932 1.39285 0.248642 1.392 0.24842 1.39133C0.248303 1.391 0.248204 1.39071 0.248122 1.39047C0.248085 1.39035 0.248046 1.39024 0.248014 1.39014C0.247998 1.39009 0.247976 1.39003 0.247963 1.39C0.24794 1.38994 0.247926 1.38988 1.19528 1.06969C2.14264 0.749507 2.14261 0.749447 2.14259 0.749398C2.14259 0.749383 2.14257 0.749335 2.14257 0.749316C2.14255 0.749266 2.14254 0.74922 2.14252 0.749189C2.14251 0.749139 2.1425 0.749124 2.14251 0.749157C2.14254 0.749235 2.14262 0.74948 2.14277 0.749915C2.14308 0.750795 2.14361 0.752392 2.14441 0.754721C2.146 0.759369 2.1486 0.766918 2.1522 0.777319C2.15941 0.798121 2.17066 0.83033 2.18602 0.873576C2.21676 0.960078 2.26396 1.09073 2.32821 1.26263C2.4567 1.60641 2.65339 2.11507 2.92296 2.76522L1.99923 3.14824Z" fill="white"/>
</svg>
