<svg width="72" height="72" viewBox="0 0 72 72" fill="none" xmlns="http://www.w3.org/2000/svg">
<path d="M15.8182 57.0545C19.4331 57.0545 22.3636 54.124 22.3636 50.5091C22.3636 46.8941 19.4331 43.9636 15.8182 43.9636C12.2032 43.9636 9.27271 46.8941 9.27271 50.5091C9.27271 54.124 12.2032 57.0545 15.8182 57.0545Z" fill="#FF800B"/>
<path d="M19.4181 42.1089C18.9817 41.6726 18.9817 41.018 19.4181 40.5817C19.6363 40.3635 19.8545 40.2544 20.1817 40.2544C20.509 40.2544 20.7272 40.3635 20.9454 40.5817C21.1635 40.7998 21.2726 41.1271 21.2726 41.3453C21.2726 41.6726 21.1635 41.8908 20.9454 42.1089C20.7272 42.3271 20.3999 42.4362 20.1817 42.4362C19.8545 42.4362 19.6363 42.3271 19.4181 42.1089Z" fill="#FF800B"/>
<path d="M19.2001 70.3637C19.2001 70.8001 19.3092 71.1274 19.4182 71.4546H3.92733C3.38188 71.4546 2.83643 71.0183 2.83643 70.3637V67.5274C2.83643 62.0728 7.30915 57.6001 12.7637 57.6001C13.2001 57.6001 13.6364 57.8183 13.7455 58.1456L15.8182 62.291L17.891 58.1456C18.1092 57.8183 18.4364 57.6001 18.8728 57.6001C20.1819 57.6001 21.3819 57.8183 22.4728 58.2546C20.4001 60.5456 19.091 63.6001 19.091 66.9819V70.3637H19.2001Z" fill="#FF800B"/>
<path d="M22.4726 37.9636C22.7999 37.9636 23.0181 38.0727 23.2363 38.2909C23.4544 38.5091 23.5635 38.8364 23.5635 39.0545C23.5635 39.3818 23.4544 39.6 23.2363 39.8182C23.0181 40.0364 22.7999 40.1454 22.4726 40.1454C22.1454 40.1454 21.9272 40.0364 21.709 39.8182C21.2726 39.3818 21.2726 38.7273 21.709 38.2909C21.9272 38.0727 22.2544 37.9636 22.4726 37.9636Z" fill="#FF800B"/>
<path d="M24.8728 35.6729C25.2 35.6729 25.4182 35.7819 25.6364 36.0001C25.8546 36.2183 25.9637 36.4365 25.9637 36.7638C25.9637 37.091 25.8546 37.3092 25.6364 37.5274C25.4182 37.7456 25.091 37.8547 24.8728 37.8547C24.5455 37.8547 24.3273 37.7456 24.1091 37.5274C23.6728 37.091 23.6728 36.4365 24.1091 36.0001C24.2182 35.7819 24.5455 35.6729 24.8728 35.6729Z" fill="#FF800B"/>
<path d="M27.1637 33.3818C27.4909 33.3818 27.7091 33.4909 27.9273 33.7091C28.1455 33.9273 28.2546 34.1455 28.2546 34.4727C28.2546 34.8 28.1455 35.0182 27.9273 35.2364C27.7091 35.4546 27.3818 35.5637 27.1637 35.5637C26.8364 35.5637 26.6182 35.4546 26.4 35.2364C25.9637 34.8 25.9637 34.1455 26.4 33.7091C26.6182 33.4909 26.8364 33.3818 27.1637 33.3818Z" fill="#FF800B"/>
<path d="M42.6546 48.3272C42.6546 52.2545 39.491 55.4181 35.5637 55.4181C31.6364 55.4181 28.4728 52.2545 28.4728 48.3272C28.4728 44.4 31.6364 41.2363 35.5637 41.2363C39.491 41.2363 42.6546 44.5091 42.6546 48.3272Z" fill="#FF800B"/>
<path d="M44.0726 33.3818C44.3999 33.3818 44.6181 33.4909 44.8362 33.7091C45.0544 33.9273 45.1635 34.2546 45.1635 34.4727C45.1635 34.8 45.0544 35.0182 44.8362 35.2364C44.6181 35.4546 44.2908 35.5637 44.0726 35.5637C43.7453 35.5637 43.5271 35.4546 43.309 35.2364C42.8726 34.8 42.8726 34.1455 43.309 33.7091C43.5271 33.4909 43.7453 33.3818 44.0726 33.3818Z" fill="#FF800B"/>
<path d="M47.1273 36.0001C47.3454 36.2183 47.4545 36.5456 47.4545 36.7638C47.4545 37.091 47.3454 37.3092 47.1273 37.5274C46.9091 37.7456 46.5818 37.8547 46.3636 37.8547C46.0363 37.8547 45.8182 37.7456 45.6 37.5274C45.1636 37.091 45.1636 36.4365 45.6 36.0001C45.8182 35.7819 46.1454 35.6729 46.3636 35.6729C46.6909 35.6729 46.9091 35.7819 47.1273 36.0001Z" fill="#FF800B"/>
<path d="M49.5273 38.2909C49.7455 38.5091 49.8545 38.8364 49.8545 39.0545C49.8545 39.3818 49.7455 39.6 49.5273 39.8182C49.3091 40.0364 48.9818 40.1454 48.7636 40.1454C48.4364 40.1454 48.2182 40.0364 48 39.8182C47.5636 39.3818 47.5636 38.7273 48 38.2909C48.2182 38.0727 48.5455 37.9636 48.7636 37.9636C48.9818 37.9636 49.3091 38.0727 49.5273 38.2909Z" fill="#FF800B"/>
<path d="M49.8544 66.9817V70.3635C49.8544 71.018 49.4181 71.4544 48.7635 71.4544H22.4726C21.8181 71.4544 21.3817 71.018 21.3817 70.3635V66.9817C21.3817 61.0908 26.1817 56.2908 32.1817 56.2908C32.6181 56.2908 33.0544 56.509 33.2726 56.8362L35.6726 61.5271L38.0726 56.8362C38.2908 56.509 38.6181 56.2908 39.0544 56.2908C45.0544 56.2908 49.8544 61.0908 49.8544 66.9817Z" fill="#FF800B"/>
<path d="M51.0545 40.2544C51.3818 40.2544 51.6 40.3635 51.8182 40.5817C52.0364 40.7998 52.1454 41.1271 52.1454 41.3453C52.1454 41.6726 52.0364 41.8908 51.8182 42.1089C51.6 42.3271 51.3818 42.4362 51.0545 42.4362C50.7273 42.4362 50.5091 42.3271 50.2909 42.1089C49.8545 41.6726 49.8545 41.018 50.2909 40.5817C50.5091 40.3635 50.7273 40.2544 51.0545 40.2544Z" fill="#FF800B"/>
<path d="M19.6363 20.7272C18.9818 15.1636 20.6181 9.70905 24.109 5.78177C27.1636 2.39996 31.1999 0.54541 35.5636 0.54541C39.9272 0.54541 44.0727 2.39996 47.0181 5.78177C50.509 9.70905 52.1454 15.1636 51.4909 20.7272C51.1636 23.8909 49.9636 27.709 48.2181 31.2C47.9999 31.5272 47.6727 31.8545 47.2363 31.8545H42.6545C42.3272 31.8545 41.8909 31.6363 41.6727 31.309C41.4545 30.9818 41.4545 30.5454 41.6727 30.2181C43.5272 26.9454 44.9454 23.0181 45.2727 20.0727C45.709 16.3636 44.6181 12.5454 42.3272 9.92723C40.4727 7.8545 38.0727 6.76359 35.4545 6.76359C32.8363 6.76359 30.4363 7.8545 28.5818 9.92723C26.2909 12.5454 25.1999 16.2545 25.6363 20.0727C25.9636 23.0181 27.3818 27.0545 29.2363 30.2181C29.4545 30.5454 29.4545 30.9818 29.2363 31.309C29.0181 31.6363 28.6909 31.8545 28.2545 31.8545H23.6727C23.2363 31.8545 22.909 31.6363 22.6909 31.2C21.1636 27.709 19.9636 23.8909 19.6363 20.7272Z" fill="#FF800B"/>
<path d="M56.1818 57.0545C59.7968 57.0545 62.7273 54.124 62.7273 50.5091C62.7273 46.8941 59.7968 43.9636 56.1818 43.9636C52.5669 43.9636 49.6364 46.8941 49.6364 50.5091C49.6364 54.124 52.5669 57.0545 56.1818 57.0545Z" fill="#FF800B"/>
<path d="M69.1637 67.5274V70.3637C69.1637 71.0183 68.7273 71.4546 68.0728 71.4546H51.8183C51.9273 71.1274 52.0364 70.8001 52.0364 70.3637V66.9819C52.0364 63.7092 50.8364 60.7637 48.8728 58.5819C50.1819 57.9274 51.6001 57.6001 53.0183 57.6001C53.4546 57.6001 53.891 57.8183 54.0001 58.1456L56.0728 62.291L58.1455 58.1456C58.3637 57.8183 58.691 57.6001 59.1273 57.6001H59.2364C64.691 57.6001 69.1637 62.0728 69.1637 67.5274Z" fill="#FF800B"/>
</svg>
