<svg width="72" height="72" viewBox="0 0 72 72" fill="none" xmlns="http://www.w3.org/2000/svg">
<path d="M36.4093 28.4088C37.5977 28.4088 38.7302 28.6572 39.7599 29.1041C39.837 27.424 40.4162 25.8703 41.3451 24.5842C40.691 24.4475 40.0164 24.3748 39.3255 24.3748H32.7802C32.0908 24.3748 31.4162 24.4468 30.7672 24.582C31.7572 25.9556 32.3488 27.632 32.3583 29.4473C33.5614 28.7858 34.9416 28.4088 36.4093 28.4088Z" fill="#076856"/>
<path d="M36.0515 23.8486C40.3118 23.8486 43.7654 20.395 43.7654 16.1348C43.7654 11.8745 40.3118 8.4209 36.0515 8.4209C31.7913 8.4209 28.3376 11.8745 28.3376 16.1348C28.3376 20.395 31.7913 23.8486 36.0515 23.8486Z" fill="#076856"/>
<path d="M48.1669 37.0112C52.0929 37.0112 55.2737 33.829 55.2737 29.9044C55.2737 25.9784 52.0929 22.7976 48.1669 22.7976C44.2776 22.7976 41.124 25.9218 41.0652 29.7971C43.306 31.2023 44.8773 33.5791 45.1639 36.338C46.0767 36.7658 47.0916 37.0112 48.1669 37.0112Z" fill="#076856"/>
<path d="M23.9375 22.7969C20.0107 22.7969 16.83 25.9784 16.83 29.9037C16.83 33.829 20.0107 37.0098 23.9375 37.0098C25.328 37.0098 26.6207 36.6033 27.7173 35.9132C28.0664 33.6416 29.2841 31.655 31.0237 30.3028C31.0311 30.1697 31.0436 30.0382 31.0436 29.9037C31.0436 25.9784 27.8613 22.7969 23.9375 22.7969Z" fill="#076856"/>
<path d="M52.783 22.6455C55.0238 24.0507 56.5951 26.4275 56.881 29.1872C57.793 29.6141 58.8087 29.8603 59.8839 29.8603C63.8099 29.8603 66.9907 26.6788 66.9907 22.7535C66.9907 18.8283 63.8099 15.6467 59.8839 15.6467C55.9954 15.646 52.8418 18.7709 52.783 22.6455Z" fill="#076856"/>
<path d="M36.4093 44.3489C40.3347 44.3489 43.5169 41.1667 43.5169 37.2413C43.5169 33.3159 40.3347 30.1338 36.4093 30.1338C32.4839 30.1338 29.3018 33.3159 29.3018 37.2413C29.3018 41.1667 32.4839 44.3489 36.4093 44.3489Z" fill="#076856"/>
<path d="M51.183 37.4956H45.1977C45.1323 39.89 44.1108 42.0463 42.4939 43.5963C46.9535 44.9236 50.2173 49.0598 50.2173 53.9456V56.218C56.1262 55.9998 59.5319 54.3271 59.756 54.2124L60.2308 53.9713H60.28V46.5956C60.2815 41.5774 56.1997 37.4956 51.183 37.4956Z" fill="#076856"/>
<path d="M62.8993 30.3447H56.9155C56.8508 32.7391 55.8285 34.8954 54.2124 36.4454C58.672 37.7727 61.9351 41.9082 61.9351 46.794V49.0664C67.8432 48.8489 71.2496 47.1762 71.4738 47.0608L71.9486 46.8205H71.9993V39.4447C71.9993 34.4273 67.9174 30.3447 62.8993 30.3447Z" fill="#076856"/>
<path d="M30.3206 43.5956C28.7118 42.0529 27.6932 39.9084 27.6182 37.5294C27.397 37.5132 27.1772 37.4949 26.9509 37.4949H20.9222C15.9041 37.4949 11.8215 41.5774 11.8215 46.5956V53.9721L11.8399 54.086L12.3477 54.2462C16.1892 55.4464 19.6184 55.9976 22.5957 56.1725V53.9449C22.5971 49.0598 25.8595 44.9236 30.3206 43.5956Z" fill="#076856"/>
<path d="M39.424 44.8333H33.3932C28.375 44.8333 24.2925 48.9173 24.2925 53.9332V61.3097L24.3116 61.4251L24.8187 61.5839C29.6075 63.0795 33.768 63.5792 37.1913 63.5792C43.8799 63.5792 47.756 61.6721 47.9956 61.5508L48.4703 61.3097H48.5203V53.9332C48.5225 48.9158 44.4407 44.8333 39.424 44.8333Z" fill="#076856"/>
<path d="M12.1161 30.0867C13.1913 30.0867 14.2062 29.8405 15.119 29.4135C15.4057 26.6538 16.9762 24.2763 19.217 22.8711C19.1582 18.9973 16.0046 15.8723 12.1161 15.8723C8.18934 15.8723 5.00854 19.0538 5.00854 22.9799C5.00854 26.9051 8.18934 30.0867 12.1161 30.0867Z" fill="#076856"/>
<path d="M17.7869 36.6725C16.1715 35.1225 15.1492 32.9655 15.0845 30.5703H9.09995C4.08182 30.571 0 34.6536 0 39.671V47.0475H0.0507104L0.525478 47.2879C0.750367 47.401 4.15532 49.0759 10.0642 49.2928V47.0203C10.0642 42.1352 13.3266 37.999 17.7869 36.6725Z" fill="#076856"/>
<path d="M20.4281 22.0943C21.2807 21.7489 22.5815 21.3249 23.8235 21.3249C25.2692 21.3249 26.6832 21.6968 27.9443 22.4045C28.2251 22.1289 28.4823 21.829 28.716 21.5079C27.5181 19.9344 26.864 18.0059 26.864 16.0223C26.864 14.6862 27.1623 13.3604 27.7312 12.1558C26.4362 10.9858 24.7841 10.3472 23.0283 10.3472C19.8328 10.3472 17.0511 12.5101 16.2368 15.5564C18.6239 16.9454 20.179 19.3736 20.4281 22.0943Z" fill="#076856"/>
<path d="M43.447 21.1059C43.694 21.4983 43.9828 21.868 44.3106 22.2119C45.4776 21.6299 46.7608 21.3241 48.0529 21.3241C49.3236 21.3241 50.5413 21.649 51.3395 21.9209C51.5894 18.9716 53.373 16.3685 56.043 15.0493C55.0641 12.2529 52.4139 10.3442 49.4132 10.3442C47.473 10.3442 45.6357 11.1409 44.3091 12.5432C44.775 13.6544 45.011 14.8222 45.011 16.0194C45.0102 17.8531 44.4708 19.6007 43.447 21.1059Z" fill="#076856"/>
</svg>
