<svg width="72" height="72" viewBox="0 0 72 72" fill="none" xmlns="http://www.w3.org/2000/svg">
<path d="M8.78168 46.7019H3.82895C3.75259 46.7019 3.68713 46.7674 3.68713 46.8437V68.0401C3.68713 68.1164 3.75259 68.1819 3.82895 68.1819H8.78168C8.85804 68.1819 8.9235 68.1164 8.9235 68.0401V66.1855V50.0728V46.8437C8.93441 46.7674 8.86895 46.7019 8.78168 46.7019Z" fill="#C33DAB"/>
<path d="M62.3781 55.1347C61.6036 54.7201 60.709 54.6547 59.9127 54.9383L43.6363 60.7747C42.8399 61.211 41.9236 61.462 40.9636 61.462H27.6218C27.0218 61.462 26.5308 60.971 26.5308 60.371C26.5308 59.771 27.0218 59.2801 27.6218 59.2801H40.9636C41.5308 59.2801 42.0763 59.1383 42.5454 58.8874C42.5999 58.8438 42.6654 58.811 42.7308 58.7892C43.4508 58.3529 43.9636 57.6438 44.0945 56.8256C44.2363 55.942 44.0072 55.0801 43.429 54.4038C42.8618 53.7383 42.0436 53.3565 41.1708 53.3565H33.829C31.7018 53.3565 29.5745 52.5929 27.8399 51.2074C24.949 48.9056 18.9818 45.8183 11.0945 50.662V65.0292C13.0581 65.0292 17.269 65.3674 23.1927 67.691C28.6908 69.8401 34.5381 70.342 40.1018 69.1201C45.8181 67.8765 54.3381 65.3456 62.5199 60.3383C63.1854 59.9347 63.6763 59.2365 63.8618 58.451C64.1999 57.142 63.5781 55.7783 62.3781 55.1347Z" fill="#C33DAB"/>
<path d="M22.0363 30.262H28.5817V43.3529H22.0363V30.262Z" fill="#C33DAB"/>
<path d="M32.9563 35.7163H39.5018V43.3418H32.9563V35.7163Z" fill="#C33DAB"/>
<path d="M43.8654 24.7964H50.4108V43.3418H43.8654V24.7964Z" fill="#C33DAB"/>
<path d="M54.7854 19.3418H61.3309V43.3418H54.7854V19.3418Z" fill="#C33DAB"/>
<path d="M67.9963 2.531C67.5708 2.10555 66.8835 2.10555 66.4581 2.531L61.1126 7.87646C60.5344 7.52737 59.869 7.3201 59.1599 7.3201C57.349 7.3201 55.8326 8.58555 55.4508 10.2874H51.4035C51.0108 8.59646 49.5053 7.3201 47.6944 7.3201C45.589 7.3201 43.8763 9.03282 43.8763 11.1383C43.8763 11.7165 44.0181 12.2619 44.2472 12.7528L37.8544 19.1455C37.3635 18.9165 36.8181 18.7746 36.2399 18.7746C35.509 18.7746 34.8326 18.9928 34.2435 19.3528L28.6799 13.7892C28.9635 13.2546 29.1381 12.6546 29.1381 12.011C29.1381 9.90555 27.4253 8.19282 25.3199 8.19282C23.2144 8.19282 21.5017 9.90555 21.5017 12.011C21.5017 14.1165 23.2144 15.8292 25.3199 15.8292C25.9853 15.8292 26.6072 15.6437 27.1526 15.3383L32.7926 20.9783C32.5635 21.4692 32.4217 22.0146 32.4217 22.5928C32.4217 24.6983 34.1344 26.411 36.2399 26.411C38.3453 26.411 40.0581 24.6983 40.0581 22.5928C40.0581 21.8619 39.8399 21.1856 39.4799 20.5965L45.6981 14.3783C46.2763 14.7383 46.9635 14.9565 47.6944 14.9565C49.3308 14.9565 50.7163 13.9201 51.2617 12.4692H55.6035C56.149 13.9201 57.5344 14.9565 59.1708 14.9565C61.2763 14.9565 62.989 13.2437 62.989 11.1383C62.989 10.5492 62.8363 9.99282 62.5963 9.491L68.0072 4.0801C68.4217 3.64373 68.4217 2.95646 67.9963 2.531Z" fill="#C33DAB"/>
</svg>
