<svg width="72" height="72" viewBox="0 0 72 72" fill="none" xmlns="http://www.w3.org/2000/svg">
<path d="M68.0158 49.2411V51.5399C68.0158 52.1612 67.5121 52.6649 66.8908 52.6649C66.2695 52.6649 65.7658 52.1612 65.7658 51.5399V49.2411C65.7658 48.6198 66.2695 48.1161 66.8908 48.1161C67.5122 48.1161 68.0158 48.6198 68.0158 49.2411ZM45.7985 65.766H43.4997C42.8784 65.766 42.3747 66.2697 42.3747 66.891C42.3747 67.5122 42.8784 68.016 43.4997 68.016H45.7985C46.4198 68.016 46.9235 67.5122 46.9235 66.891C46.9235 66.2697 46.4198 65.766 45.7985 65.766ZM22.7589 65.766H20.4601C19.8388 65.766 19.3351 66.2697 19.3351 66.891C19.3351 67.5122 19.8388 68.016 20.4601 68.016H22.7589C23.3802 68.016 23.8839 67.5122 23.8839 66.891C23.8839 66.2697 23.3802 65.766 22.7589 65.766ZM28.5003 65.766H26.2015C25.5803 65.766 25.0765 66.2697 25.0765 66.891C25.0765 67.5122 25.5803 68.016 26.2015 68.016H28.5003C29.1216 68.016 29.6253 67.5122 29.6253 66.891C29.6253 66.2697 29.1216 65.766 28.5003 65.766ZM51.5399 65.766H49.2412C48.62 65.766 48.1162 66.2697 48.1162 66.891C48.1162 67.5122 48.62 68.016 49.2412 68.016H51.54C52.1613 68.016 52.665 67.5122 52.665 66.891C52.6649 66.2697 52.1612 65.766 51.5399 65.766ZM26.2015 6.23405H28.5003C29.1216 6.23405 29.6253 5.73033 29.6253 5.10905C29.6253 4.48777 29.1216 3.98405 28.5003 3.98405H26.2015C25.5803 3.98405 25.0765 4.48777 25.0765 5.10905C25.0765 5.73047 25.5803 6.23405 26.2015 6.23405ZM43.4997 6.23405H45.7985C46.4198 6.23405 46.9235 5.73033 46.9235 5.10905C46.9235 4.48777 46.4198 3.98405 45.7985 3.98405H43.4997C42.8784 3.98405 42.3747 4.48777 42.3747 5.10905C42.3747 5.73047 42.8784 6.23405 43.4997 6.23405ZM20.4601 6.23405H22.7589C23.3802 6.23405 23.8839 5.73033 23.8839 5.10905C23.8839 4.48777 23.3802 3.98405 22.7589 3.98405H20.4601C19.8388 3.98405 19.3351 4.48777 19.3351 5.10905C19.3351 5.73047 19.8388 6.23405 20.4601 6.23405ZM68.0158 43.4997C68.0158 42.8784 67.5121 42.3747 66.8908 42.3747C66.2695 42.3747 65.7658 42.8784 65.7658 43.4997V45.7983C65.7658 46.4196 66.2695 46.9233 66.8908 46.9233C67.5121 46.9233 68.0158 46.4196 68.0158 45.7983V43.4997ZM66.8908 25.0765C66.2695 25.0765 65.7658 25.5803 65.7658 26.2015V28.5003C65.7658 29.1216 66.2695 29.6253 66.8908 29.6253C67.5121 29.6253 68.0158 29.1216 68.0158 28.5003V26.2015C68.0158 25.5803 67.5122 25.0765 66.8908 25.0765ZM68.0158 20.4601C68.0158 19.8388 67.5121 19.3351 66.8908 19.3351C66.2695 19.3351 65.7658 19.8388 65.7658 20.4601V22.7587C65.7658 23.38 66.2695 23.8837 66.8908 23.8837C67.5121 23.8837 68.0158 23.38 68.0158 22.7587V20.4601ZM5.10905 23.8837C5.73033 23.8837 6.23405 23.38 6.23405 22.7587V20.4601C6.23405 19.8388 5.73033 19.3351 5.10905 19.3351C4.48777 19.3351 3.98405 19.8388 3.98405 20.4601V22.7587C3.98405 23.3802 4.48777 23.8837 5.10905 23.8837ZM3.98405 28.5003C3.98405 29.1216 4.48777 29.6253 5.10905 29.6253C5.73033 29.6253 6.23405 29.1216 6.23405 28.5003V26.2015C6.23405 25.5803 5.73033 25.0765 5.10905 25.0765C4.48777 25.0765 3.98405 25.5803 3.98405 26.2015V28.5003ZM3.98405 51.5399C3.98405 52.1612 4.48777 52.6649 5.10905 52.6649C5.73033 52.6649 6.23405 52.1612 6.23405 51.5399V49.2411C6.23405 48.6198 5.73033 48.1161 5.10905 48.1161C4.48777 48.1161 3.98405 48.6198 3.98405 49.2411V51.5399ZM5.10905 46.9233C5.73033 46.9233 6.23405 46.4196 6.23405 45.7983V43.4997C6.23405 42.8784 5.73033 42.3747 5.10905 42.3747C4.48777 42.3747 3.98405 42.8784 3.98405 43.4997V45.7983C3.98405 46.4198 4.48777 46.9233 5.10905 46.9233ZM66.8908 39.8434C65.1596 39.8434 63.6958 38.6987 63.2147 37.125H59.4568C59.1909 42.7622 56.9371 47.8789 53.3813 51.7906L57.6222 56.0315C58.9936 54.9928 60.7023 54.3763 62.5553 54.3763C67.0724 54.3763 70.7342 58.0382 70.7342 62.5552C70.7344 67.0725 67.0725 70.7344 62.5555 70.7344C58.0383 70.7344 54.3765 67.0725 54.3765 62.5555C54.3765 60.7026 54.9928 58.9937 56.0316 57.6225L51.7908 53.3817C47.8792 56.9378 42.7624 59.1916 37.125 59.4575V63.215C38.6987 63.6961 39.8436 65.1597 39.8436 66.891C39.8436 69.0135 38.1227 70.7344 36 70.7344C33.8773 70.7344 32.1564 69.0135 32.1564 66.8908C32.1564 65.1596 33.3013 63.6958 34.875 63.2149V59.4578C29.2376 59.1919 24.1208 56.9379 20.2091 53.3817L15.9684 57.6224C17.007 58.9936 17.6235 60.7025 17.6235 62.5553C17.6235 67.0724 13.9617 70.7342 9.44466 70.7342C4.9275 70.7344 1.26562 67.0725 1.26562 62.5555C1.26562 58.0383 4.9275 54.3766 9.44466 54.3766C11.2975 54.3766 13.0063 54.9931 14.3776 56.0317L18.618 51.7913C15.0623 47.8793 12.809 42.7622 12.543 37.125H8.78512C8.30419 38.6987 6.84042 39.8434 5.10919 39.8434C2.98631 39.8434 1.26562 38.1227 1.26562 36C1.26562 33.8773 2.98631 32.1566 5.10919 32.1566C6.84042 32.1566 8.30419 33.3013 8.78512 34.8751H12.543C12.809 29.2379 15.0626 24.1213 18.6185 20.2095L14.3776 15.9685C13.0064 17.0072 11.2975 17.6237 9.44466 17.6237C4.9275 17.6235 1.26562 13.9617 1.26562 9.44466C1.26562 4.9275 4.9275 1.26562 9.44466 1.26562C13.9617 1.26562 17.6235 4.9275 17.6235 9.44466C17.6235 11.2975 17.007 13.0063 15.9684 14.3776L20.2092 18.6185C24.121 15.0625 29.2376 12.8085 34.875 12.5426V8.78512C33.3013 8.30405 32.1564 6.84042 32.1564 5.10905C32.1564 2.98645 33.8773 1.26562 36 1.26562C38.1227 1.26562 39.8436 2.98645 39.8436 5.10905C39.8436 6.84028 38.6987 8.30405 37.125 8.78512V12.5422C42.7624 12.8081 47.8792 15.0621 51.7911 18.6183L56.0316 14.3776C54.993 13.0063 54.3765 11.2975 54.3765 9.44466C54.3765 4.9275 58.0383 1.26562 62.5555 1.26562C67.0725 1.26562 70.7344 4.9275 70.7344 9.44466C70.7344 13.9617 67.0725 17.6235 62.5555 17.6235C60.7026 17.6235 58.9937 17.0072 57.6224 15.9684L53.382 20.2088C56.9378 24.1207 59.191 29.2378 59.457 34.875H63.2149C63.696 33.3013 65.1597 32.1564 66.891 32.1564C69.0137 32.1566 70.7344 33.8773 70.7344 36C70.7344 38.1227 69.0137 39.8434 66.8908 39.8434ZM21.2026 41.4371L19.4479 34.8885C18.4177 35.8163 17.9283 37.2783 18.3101 38.7028C18.6917 40.1272 19.8465 41.1486 21.2026 41.4371ZM25.7418 42.6327L29.7162 41.5678L26.7555 30.5183L22.7811 31.5833C21.8101 31.8434 21.2303 32.8476 21.4905 33.8186L23.5063 41.3421C23.7666 42.3132 24.7708 42.893 25.7418 42.6327ZM31.8399 49.0908L30.3992 43.7141L26.9318 44.6432L28.3725 50.02C28.4979 50.4882 28.9821 50.7677 29.4504 50.6423L31.2176 50.1688C31.6859 50.0432 31.9655 49.5591 31.8399 49.0908ZM40.337 41.7026L35.8861 25.0912L28.834 29.5934L31.9787 41.3295L40.337 41.7026ZM46.6985 40.5852L41.9539 22.8781C41.6561 21.7668 40.5032 21.1011 39.3917 21.3989C38.2804 21.6968 37.6147 22.8496 37.9125 23.961L42.657 41.668C42.9549 42.7794 44.1077 43.4451 45.2192 43.1473C46.3306 42.8496 46.9962 41.6966 46.6985 40.5852ZM45.4333 27.9702L47.166 34.4367C47.5515 33.9895 47.8447 33.4506 48.0077 32.8421C48.5603 30.7796 47.4173 28.6625 45.4333 27.9702ZM50.177 27.4717L52.0709 25.5779C52.5102 25.1385 52.5102 24.4263 52.0709 23.9871C51.6316 23.5478 50.9193 23.5478 50.4802 23.9871L48.5862 25.8809C48.1469 26.3202 48.1469 27.0325 48.5862 27.4717C49.0255 27.9108 49.7378 27.9108 50.177 27.4717ZM54.1091 33.19L51.522 32.4967C50.9226 32.3366 50.3068 32.6928 50.1466 33.2921C49.9864 33.8915 50.3426 34.5074 50.942 34.6676L53.529 35.3609C54.1285 35.521 54.7443 35.1648 54.9045 34.5655C55.0647 33.966 54.7086 33.3501 54.1091 33.19ZM54.9046 28.898C54.7445 28.2985 54.1285 27.9425 53.5292 28.1026L50.9423 28.7958C50.3428 28.956 49.9867 29.5719 50.1469 30.1712C50.307 30.7707 50.9228 31.1268 51.5223 30.9666L54.1093 30.2735C54.7086 30.1134 55.0647 29.4975 54.9046 28.898ZM49.2412 6.23405H51.5399C52.1612 6.23405 52.6649 5.73033 52.6649 5.10905C52.6649 4.48777 52.1612 3.98405 51.5399 3.98405H49.2412C48.62 3.98405 48.1162 4.48777 48.1162 5.10905C48.1162 5.73047 48.62 6.23405 49.2412 6.23405Z" fill="#FFC700"/>
</svg>
