<svg width="72" height="72" viewBox="0 0 72 72" fill="none" xmlns="http://www.w3.org/2000/svg">
<path d="M63.5674 64.838C66.1805 61.5762 67.7461 57.4404 67.7461 52.9453C67.7461 42.4385 59.1982 33.8906 48.6914 33.8906C38.1846 33.8906 29.6367 42.4385 29.6367 52.9453C29.6367 59.9211 33.4056 66.0317 39.013 69.3528C39.1042 69.416 39.2009 69.4715 39.3014 69.5204C42.0743 71.098 45.2796 72 48.6914 72C52.1049 72 55.3101 71.0969 58.0842 69.5193C58.1825 69.4715 58.277 69.4166 58.3676 69.3539C59.1432 68.8947 59.8843 68.3822 60.5847 67.8214L64.1453 71.382C64.5573 71.794 65.0973 72 65.6367 72C66.1767 72 66.7167 71.794 67.1281 71.382C67.9521 70.5586 67.9521 69.2227 67.1281 68.3992L63.5674 64.838ZM33.8555 52.9453C33.8555 44.7649 40.511 38.1094 48.6914 38.1094C56.8724 38.1094 63.5273 44.7649 63.5273 52.9453C63.5273 57.241 61.6915 61.1153 58.7648 63.8267C58.0073 61.4789 56.451 59.4882 54.4169 58.1743C55.6787 56.7938 56.4494 54.958 56.4494 52.9453C56.4494 48.6678 52.9695 45.1879 48.6914 45.1879C44.4139 45.1879 40.934 48.6678 40.934 52.9453C40.934 54.958 41.7047 56.7938 42.9659 58.1743C40.9323 59.4882 39.3755 61.4789 38.6186 63.8267C35.6913 61.1153 33.8555 57.241 33.8555 52.9453Z" fill="#DC3545"/>
<path d="M20.5263 12.9869C21.7881 11.6065 22.5588 9.77069 22.5588 7.758C22.5588 3.47992 19.0789 0 14.8008 0C10.5233 0 7.04333 3.47992 7.04333 7.758C7.04333 9.77069 7.81403 11.6065 9.07526 12.9869C6.15619 14.8727 4.21875 18.1527 4.21875 21.8787V24.7033C4.21875 25.8679 5.16302 26.8127 6.32812 26.8127H23.2734C24.4385 26.8127 25.3828 25.8679 25.3828 24.7033V21.8787C25.3828 18.1527 23.4454 14.8727 20.5263 12.9869Z" fill="#DC3545"/>
<path d="M20.5263 46.8776C21.7881 45.4971 22.5588 43.6613 22.5588 41.6481C22.5588 37.3705 19.0789 33.8906 14.8008 33.8906C10.5233 33.8906 7.04333 37.3705 7.04333 41.6481C7.04333 43.6613 7.81403 45.4971 9.07526 46.8776C6.15674 48.7634 4.21875 52.0433 4.21875 55.7693V58.5934C4.21875 59.7585 5.16357 60.7028 6.32812 60.7028H23.2734C24.4385 60.7028 25.3828 59.7585 25.3828 58.5934V55.7693C25.3828 52.0433 23.4454 48.7634 20.5263 46.8776Z" fill="#DC3545"/>
<path d="M40.2188 26.8127H57.1641C58.3292 26.8127 59.2734 25.8679 59.2734 24.7033V21.8787C59.2734 18.1527 57.336 14.8727 54.4169 12.9864C55.6787 11.6065 56.4494 9.77069 56.4494 7.758C56.4494 3.47992 52.9695 0 48.6914 0C44.4139 0 40.934 3.47992 40.934 7.758C40.934 9.77069 41.7047 11.6065 42.9659 12.9864C40.0474 14.8727 38.1094 18.1527 38.1094 21.8787V24.7033C38.1094 25.8679 39.0542 26.8127 40.2188 26.8127Z" fill="#DC3545"/>
</svg>
