<svg width="72" height="72" viewBox="0 0 72 72" fill="none" xmlns="http://www.w3.org/2000/svg">
<path fill-rule="evenodd" clip-rule="evenodd" d="M31.5 51.75V58.5H21.375C20.4795 58.5 19.6222 58.8555 18.9877 59.4877C18.3555 60.1222 18 60.9795 18 61.875V64.0935C18 65.151 19.125 65.25 19.125 65.25H52.875L52.9222 65.2432C53.1382 65.2095 54 65.0182 54 64.0935V61.875C54 60.9795 53.6445 60.1222 53.0123 59.4877C52.3778 58.8555 51.5205 58.5 50.625 58.5H40.5V51.75H64.125C65.988 51.75 67.5 50.238 67.5 48.375V42.75H4.5V48.375C4.5 50.238 6.012 51.75 7.875 51.75H31.5ZM20.25 64.107V64.125C20.25 64.746 19.746 65.25 19.125 65.25C19.125 65.25 20.241 65.151 20.25 64.107ZM51.75 63H20.25V61.875C20.25 61.5757 20.3692 61.29 20.5785 61.0785C20.79 60.8692 21.0758 60.75 21.375 60.75H50.625C50.9243 60.75 51.21 60.8692 51.4215 61.0785C51.6308 61.29 51.75 61.5757 51.75 61.875V63ZM33.75 58.5H38.25V51.75H36.306H33.75V58.5ZM31.5 48.375H40.5C41.121 48.375 41.625 47.871 41.625 47.25C41.625 46.629 41.121 46.125 40.5 46.125H31.5C30.879 46.125 30.375 46.629 30.375 47.25C30.375 47.871 30.879 48.375 31.5 48.375ZM4.5 40.5H67.5V10.125C67.5 8.262 65.988 6.75 64.125 6.75H7.875C6.012 6.75 4.5 8.262 4.5 10.125V40.5ZM23.625 28.125C23.625 27.504 23.121 27 22.5 27H15.75C15.129 27 14.625 27.504 14.625 28.125V37.125C14.625 37.746 15.129 38.25 15.75 38.25H22.5C23.121 38.25 23.625 37.746 23.625 37.125V28.125ZM46.125 28.125C46.125 27.504 45.621 27 45 27H38.25C37.629 27 37.125 27.504 37.125 28.125V37.125C37.125 37.746 37.629 38.25 38.25 38.25H45C45.621 38.25 46.125 37.746 46.125 37.125V28.125ZM34.875 24.75C34.875 24.129 34.371 23.625 33.75 23.625H27C26.379 23.625 25.875 24.129 25.875 24.75V37.125C25.875 37.746 26.379 38.25 27 38.25H33.75C34.371 38.25 34.875 37.746 34.875 37.125V24.75ZM57.375 22.5C57.375 21.879 56.871 21.375 56.25 21.375H49.5C48.879 21.375 48.375 21.879 48.375 22.5V37.125C48.375 37.746 48.879 38.25 49.5 38.25H56.25C56.871 38.25 57.375 37.746 57.375 37.125V22.5ZM43.875 29.25V36H39.375V29.25H43.875ZM21.375 29.25V36H16.875V29.25H21.375ZM55.125 23.625V36H50.625V23.625H55.125ZM32.625 25.875V36H28.125V25.875H32.625ZM51.1898 15.5992L50.6587 17.7277C50.508 18.3285 50.8747 18.9405 51.4777 19.0913C52.0785 19.242 52.6905 18.8753 52.8413 18.2723L53.9663 13.7723C54.117 13.1693 53.7503 12.5595 53.1473 12.4087L48.6473 11.2837C48.0465 11.133 47.4345 11.4997 47.2837 12.1027C47.133 12.7035 47.4997 13.3155 48.1027 13.4663L49.6508 13.8532L41.5733 17.892L30.7935 13.581C30.5235 13.473 30.2265 13.473 29.9565 13.581L18.7065 18.081C18.1305 18.3105 17.8492 18.9653 18.081 19.5435C18.3105 20.1195 18.9653 20.4008 19.5435 20.169L30.375 15.8378L41.2065 20.169C41.5057 20.2883 41.841 20.2748 42.129 20.1308L51.1898 15.5992Z" fill="#0084FF"/>
</svg>
