<svg width="64" height="64" viewBox="0 0 64 64" fill="none" xmlns="http://www.w3.org/2000/svg">
<path d="M15 34C15.2652 34 15.5196 33.8946 15.7071 33.7071C15.8946 33.5196 16 33.2652 16 33C16 32.7348 15.8946 32.4804 15.7071 32.2929C15.5196 32.1054 15.2652 32 15 32H11C10.7348 32 10.4804 32.1054 10.2929 32.2929C10.1054 32.4804 10 32.7348 10 33V39C10 39.2652 10.1054 39.5196 10.2929 39.7071C10.4804 39.8946 10.7348 40 11 40H15C15.2652 40 15.5196 39.8946 15.7071 39.7071C15.8946 39.5196 16 39.2652 16 39C16 38.7348 15.8946 38.4804 15.7071 38.2929C15.5196 38.1054 15.2652 38 15 38H12V34H15Z" fill="#0084FF"/>
<path d="M49 38C48.7348 38 48.4804 38.1054 48.2929 38.2929C48.1054 38.4804 48 38.7348 48 39C48 39.2652 48.1054 39.5196 48.2929 39.7071C48.4804 39.8946 48.7348 40 49 40H53C53.2652 40 53.5196 39.8946 53.7071 39.7071C53.8946 39.5196 54 39.2652 54 39V33C54 32.7348 53.8946 32.4804 53.7071 32.2929C53.5196 32.1054 53.2652 32 53 32H49C48.7348 32 48.4804 32.1054 48.2929 32.2929C48.1054 32.4804 48 32.7348 48 33C48 33.2652 48.1054 33.5196 48.2929 33.7071C48.4804 33.8946 48.7348 34 49 34H52V38H49Z" fill="#0084FF"/>
<path d="M26 31H38C38.2652 31 38.5196 30.8946 38.7071 30.7071C38.8946 30.5196 39 30.2652 39 30C39 29.7348 38.8946 29.4804 38.7071 29.2929C38.5196 29.1054 38.2652 29 38 29H26C25.7348 29 25.4804 29.1054 25.2929 29.2929C25.1054 29.4804 25 29.7348 25 30C25 30.2652 25.1054 30.5196 25.2929 30.7071C25.4804 30.8946 25.7348 31 26 31Z" fill="#0084FF"/>
<path d="M29 38C29 37.7348 28.8946 37.4804 28.7071 37.2929C28.5196 37.1054 28.2652 37 28 37H24C23.7348 37 23.4804 37.1054 23.2929 37.2929C23.1054 37.4804 23 37.7348 23 38C23 38.2652 23.1054 38.5196 23.2929 38.7071C23.4804 38.8946 23.7348 39 24 39H28C28.2652 39 28.5196 38.8946 28.7071 38.7071C28.8946 38.5196 29 38.2652 29 38Z" fill="#0084FF"/>
<path d="M32 41H26C25.7348 41 25.4804 41.1054 25.2929 41.2929C25.1054 41.4804 25 41.7348 25 42C25 42.2652 25.1054 42.5196 25.2929 42.7071C25.4804 42.8946 25.7348 43 26 43H32C32.2652 43 32.5196 42.8946 32.7071 42.7071C32.8946 42.5196 33 42.2652 33 42C33 41.7348 32.8946 41.4804 32.7071 41.2929C32.5196 41.1054 32.2652 41 32 41Z" fill="#0084FF"/>
<path d="M38 41H36C35.7348 41 35.4804 41.1054 35.2929 41.2929C35.1054 41.4804 35 41.7348 35 42C35 42.2652 35.1054 42.5196 35.2929 42.7071C35.4804 42.8946 35.7348 43 36 43H38C38.2652 43 38.5196 42.8946 38.7071 42.7071C38.8946 42.5196 39 42.2652 39 42C39 41.7348 38.8946 41.4804 38.7071 41.2929C38.5196 41.1054 38.2652 41 38 41Z" fill="#0084FF"/>
<path d="M41 38C41 37.7348 40.8946 37.4804 40.7071 37.2929C40.5196 37.1054 40.2652 37 40 37H32C31.7348 37 31.4804 37.1054 31.2929 37.2929C31.1054 37.4804 31 37.7348 31 38C31 38.2652 31.1054 38.5196 31.2929 38.7071C31.4804 38.8946 31.7348 39 32 39H40C40.2652 39 40.5196 38.8946 40.7071 38.7071C40.8946 38.5196 41 38.2652 41 38Z" fill="#0084FF"/>
<path d="M35 34C35 34.2652 35.1054 34.5196 35.2929 34.7071C35.4804 34.8946 35.7348 35 36 35H40C40.2652 35 40.5196 34.8946 40.7071 34.7071C40.8946 34.5196 41 34.2652 41 34C41 33.7348 40.8946 33.4804 40.7071 33.2929C40.5196 33.1054 40.2652 33 40 33H36C35.7348 33 35.4804 33.1054 35.2929 33.2929C35.1054 33.4804 35 33.7348 35 34Z" fill="#0084FF"/>
<path d="M24 35H32C32.2652 35 32.5196 34.8946 32.7071 34.7071C32.8946 34.5196 33 34.2652 33 34C33 33.7348 32.8946 33.4804 32.7071 33.2929C32.5196 33.1054 32.2652 33 32 33H24C23.7348 33 23.4804 33.1054 23.2929 33.2929C23.1054 33.4804 23 33.7348 23 34C23 34.2652 23.1054 34.5196 23.2929 34.7071C23.4804 34.8946 23.7348 35 24 35Z" fill="#0084FF"/>
<path d="M45.71 45.29C45.5572 45.1426 45.3615 45.0476 45.1511 45.0188C44.9408 44.9901 44.7267 45.029 44.54 45.13L43.45 44C45.4564 41.1308 46.3149 37.6141 45.8563 34.1432C45.3978 30.6723 43.6553 27.4992 40.9727 25.2496C38.29 22.9999 34.8618 21.8371 31.3641 21.9904C27.8664 22.1436 24.5531 23.6018 22.0774 26.0774C19.6018 28.5531 18.1436 31.8664 17.9904 35.3641C17.8371 38.8618 18.9999 42.29 21.2496 44.9727C23.4992 47.6553 26.6723 49.3977 30.1432 49.8563C33.6141 50.3149 37.1309 49.4564 40 47.45L41.1 48.54C40.999 48.7267 40.9601 48.9408 40.9888 49.1511C41.0176 49.3615 41.1126 49.5572 41.26 49.71L50.64 59.09C51.0766 59.5333 51.6355 59.8364 52.2452 59.9607C52.8549 60.0849 53.4879 60.0245 54.0631 59.7873C54.6384 59.5501 55.1299 59.1469 55.4749 58.629C55.8199 58.1112 56.0027 57.5022 56 56.88C56.0027 56.4696 55.9236 56.0629 55.7673 55.6834C55.6111 55.304 55.3808 54.9595 55.09 54.67L45.71 45.29ZM20 36C20 33.6266 20.7038 31.3065 22.0224 29.3331C23.3409 27.3597 25.2151 25.8217 27.4078 24.9134C29.6005 24.0052 32.0133 23.7675 34.3411 24.2306C36.6688 24.6936 38.807 25.8365 40.4853 27.5147C42.1635 29.1929 43.3064 31.3311 43.7694 33.6589C44.2324 35.9867 43.9948 38.3995 43.0865 40.5922C42.1783 42.7849 40.6402 44.659 38.6668 45.9776C36.6934 47.2962 34.3734 48 32 48C28.8174 48 25.7651 46.7357 23.5147 44.4853C21.2643 42.2348 20 39.1826 20 36ZM42.17 45.59L43.09 46.5L42.5 47.09L41.59 46.17L42.17 45.59ZM52.88 58C52.7329 58.0006 52.5873 57.9717 52.4516 57.915C52.3159 57.8583 52.1929 57.775 52.09 57.67L43.41 49L45 47.41L53.67 56.09C53.8258 56.2466 53.9319 56.4458 53.9748 56.6626C54.0177 56.8793 53.9955 57.1039 53.911 57.3081C53.8266 57.5122 53.6837 57.6869 53.5002 57.81C53.3167 57.9331 53.1009 57.9992 52.88 58Z" fill="#0084FF"/>
<path d="M59 8H5C4.73478 8 4.48043 8.10536 4.29289 8.29289C4.10536 8.48043 4 8.73478 4 9V55C4 55.2652 4.10536 55.5196 4.29289 55.7071C4.48043 55.8946 4.73478 56 5 56H42C42.2652 56 42.5196 55.8946 42.7071 55.7071C42.8946 55.5196 43 55.2652 43 55C43 54.7348 42.8946 54.4804 42.7071 54.2929C42.5196 54.1054 42.2652 54 42 54H6V18H58V55C58 55.2652 58.1054 55.5196 58.2929 55.7071C58.4804 55.8946 58.7348 56 59 56C59.2652 56 59.5196 55.8946 59.7071 55.7071C59.8946 55.5196 60 55.2652 60 55V9C60 8.73478 59.8946 8.48043 59.7071 8.29289C59.5196 8.10536 59.2652 8 59 8ZM6 10H20V16H6V10ZM22 16V10H58V16H22Z" fill="#0084FF"/>
<path d="M9 12C8.80222 12 8.60888 12.0586 8.44443 12.1685C8.27998 12.2784 8.15181 12.4346 8.07612 12.6173C8.00043 12.8 7.98063 13.0011 8.01922 13.1951C8.0578 13.3891 8.15304 13.5673 8.29289 13.7071C8.43275 13.847 8.61093 13.9422 8.80491 13.9808C8.99889 14.0194 9.19996 13.9996 9.38268 13.9239C9.56541 13.8482 9.72159 13.72 9.83147 13.5556C9.94135 13.3911 10 13.1978 10 13C10 12.7348 9.89464 12.4804 9.70711 12.2929C9.51957 12.1054 9.26522 12 9 12Z" fill="#0084FF"/>
<path d="M13 12C12.8022 12 12.6089 12.0586 12.4444 12.1685C12.28 12.2784 12.1518 12.4346 12.0761 12.6173C12.0004 12.8 11.9806 13.0011 12.0192 13.1951C12.0578 13.3891 12.153 13.5673 12.2929 13.7071C12.4327 13.847 12.6109 13.9422 12.8049 13.9808C12.9989 14.0194 13.2 13.9996 13.3827 13.9239C13.5654 13.8482 13.7216 13.72 13.8315 13.5556C13.9414 13.3911 14 13.1978 14 13C14 12.7348 13.8946 12.4804 13.7071 12.2929C13.5196 12.1054 13.2652 12 13 12Z" fill="#0084FF"/>
<path d="M17 12C16.8022 12 16.6089 12.0586 16.4444 12.1685C16.28 12.2784 16.1518 12.4346 16.0761 12.6173C16.0004 12.8 15.9806 13.0011 16.0192 13.1951C16.0578 13.3891 16.153 13.5673 16.2929 13.7071C16.4327 13.847 16.6109 13.9422 16.8049 13.9808C16.9989 14.0194 17.2 13.9996 17.3827 13.9239C17.5654 13.8482 17.7216 13.72 17.8315 13.5556C17.9414 13.3911 18 13.1978 18 13C18 12.7348 17.8946 12.4804 17.7071 12.2929C17.5196 12.1054 17.2652 12 17 12Z" fill="#0084FF"/>
<path d="M55 12H25C24.7348 12 24.4804 12.1054 24.2929 12.2929C24.1054 12.4804 24 12.7348 24 13C24 13.2652 24.1054 13.5196 24.2929 13.7071C24.4804 13.8946 24.7348 14 25 14H55C55.2652 14 55.5196 13.8946 55.7071 13.7071C55.8946 13.5196 56 13.2652 56 13C56 12.7348 55.8946 12.4804 55.7071 12.2929C55.5196 12.1054 55.2652 12 55 12Z" fill="#0084FF"/>
</svg>
