<svg width="64" height="64" viewBox="0 0 64 64" fill="none" xmlns="http://www.w3.org/2000/svg">
<path d="M46.8705 41.1087C43.6987 41.1087 41.1199 43.6875 41.1199 46.8593C41.1199 49.997 43.6822 52.6005 46.8705 52.6005C50.0328 52.6005 52.6022 50.0217 52.6022 46.8593C52.6022 43.6753 50.007 41.1087 46.8705 41.1087ZM43.0022 46.8593C43.0022 44.7887 44.6304 43.104 46.6728 43.0005C45.7222 44.8264 44.5458 46.5016 43.1622 47.9793C43.0587 47.6216 43.0022 47.2452 43.0022 46.8593ZM46.8705 50.7181C45.8258 50.7181 44.8846 50.304 44.1881 49.6358C45.9575 47.8193 47.4446 45.7205 48.5834 43.3958C49.8446 44.0264 50.7199 45.344 50.7199 46.8593C50.7199 48.9864 48.9881 50.7181 46.8705 50.7181Z" fill="#C33DAB"/>
<path d="M61.28 43.4993L58.4282 43.1699C58.2024 42.464 57.9106 41.777 57.5529 41.1087L59.2282 38.7558C59.4918 38.3793 59.4447 37.8711 59.1247 37.5417L55.9341 34.3511C55.5953 34.0123 55.0588 33.984 54.6823 34.2852L52.4329 36.0734C51.7741 35.7346 51.0776 35.4522 50.3623 35.2358L49.8823 32.384C49.807 31.9228 49.4117 31.5934 48.9506 31.5934H45.4306C45.2141 27.0758 43.3976 22.9722 40.5459 19.8193C40.5451 19.8185 40.5443 19.8178 40.5436 19.817L43.226 17.1346C43.2267 17.1354 43.2275 17.1362 43.2282 17.137C46.4188 20.5911 48.5553 25.0522 49.0917 30.0593C49.1482 30.5769 49.6188 30.9534 50.127 30.897C50.6447 30.8405 51.0212 30.3699 50.9647 29.8616C50.3718 24.4122 48.047 19.5558 44.5647 15.8004C44.564 15.7997 44.5631 15.7989 44.5624 15.7982L45.4261 14.9346H45.4306L50.6258 14.9157C50.88 14.9157 51.1153 14.8122 51.2941 14.6428L56.8658 9.07107C57.1105 8.82635 57.2047 8.45928 57.1011 8.12047C56.9976 7.79109 56.7153 7.54638 56.367 7.48049L52.3011 6.71813L51.5482 2.65224C51.4917 2.30401 51.2376 2.03104 50.9082 1.92752C50.5694 1.824 50.2117 1.90873 49.9576 2.15339L44.3765 7.73456C44.207 7.91338 44.1035 8.14868 44.1035 8.40281L44.0941 13.5981V13.6048L43.2315 14.4673C43.2304 14.4663 43.2293 14.465 43.2282 14.464C38.8235 10.3793 32.9223 7.92281 26.4941 7.92281C12.9223 7.92281 1.88232 18.9628 1.88232 32.5346C1.88232 46.1064 12.9223 57.1463 26.4941 57.1463C29.2329 57.1463 31.8965 56.6946 34.3905 55.8381C34.4282 55.9605 34.5035 56.064 34.5976 56.1675L37.7882 59.3581C38.127 59.6969 38.6635 59.7252 39.0399 59.4334L41.2988 57.6358C41.9576 57.9746 42.6447 58.257 43.36 58.4734L43.84 61.3346C43.9152 61.7864 44.3106 62.1158 44.7717 62.1158H49.2894C49.7694 62.1158 50.1741 61.7581 50.2211 61.2781L50.5506 58.417C51.2658 58.1911 51.9529 57.8993 52.6023 57.5417L54.9647 59.2264C55.3411 59.4899 55.8588 59.4428 56.1788 59.1228L59.36 55.9322C59.6988 55.5934 59.727 55.057 59.4353 54.6805L57.647 52.4311C57.9953 51.7628 58.2682 51.0664 58.4847 50.3511L61.3364 49.8711C61.7882 49.7957 62.1176 49.4005 62.1176 48.9393V44.4311C62.1176 43.9511 61.76 43.5464 61.28 43.4993ZM45.9858 8.7981L50.0235 4.75106L50.5694 7.69694C50.6353 8.08285 50.9364 8.38398 51.3224 8.44987L54.2682 9.00519L50.24 13.0334L45.9764 13.0522L45.9858 8.7981ZM39.2188 21.1463C41.8447 24.0922 43.4823 27.9417 43.567 32.177C43.5294 32.2523 43.5105 32.3369 43.5011 32.4311L43.1717 35.3017C42.4564 35.5275 41.7694 35.8193 41.12 36.1675L39.567 35.0664C39.7271 34.2381 39.8117 33.391 39.8117 32.5346C39.8117 29.2029 38.5788 26.1534 36.5459 23.8193C36.5452 23.8184 36.5443 23.8177 36.5436 23.8168L39.2165 21.144C39.2172 21.1448 39.218 21.1455 39.2188 21.1463ZM3.76468 32.5346C3.76468 19.9981 13.9576 9.80518 26.4941 9.80518C32.4141 9.80518 37.8353 12.0546 41.8917 15.8005C41.8929 15.8015 41.894 15.8027 41.8952 15.8037L39.2126 18.4861C39.2115 18.4851 39.2105 18.4839 39.2094 18.4829C35.84 15.4335 31.3788 13.5699 26.4941 13.5699C16.0376 13.5699 7.52938 22.0781 7.52938 32.5346C7.52938 42.9911 16.0376 51.4993 26.4941 51.4993C27.0117 51.4993 27.4353 51.0758 27.4353 50.5581C27.4353 50.0405 27.0117 49.6169 26.4941 49.6169C17.0729 49.6169 9.41174 41.9558 9.41174 32.5346C9.41174 23.1134 17.0729 15.4522 26.4941 15.4522C30.8705 15.4522 34.8611 17.1087 37.8823 19.8099C37.8835 19.8109 37.8844 19.8121 37.8856 19.8132L35.2128 22.4859C35.2116 22.485 35.2105 22.4838 35.2094 22.4828C32.8753 20.4499 29.8259 19.2169 26.4941 19.2169C19.1529 19.2169 13.1764 25.1934 13.1764 32.5346C13.1764 39.8758 19.1529 45.8522 26.4941 45.8522C27.727 45.8522 28.9506 45.6828 30.127 45.3534C30.6258 45.2122 30.9176 44.6852 30.7764 44.1864C30.6353 43.6875 30.1176 43.3958 29.6094 43.537C28.6023 43.8287 27.5576 43.9699 26.4941 43.9699C20.1882 43.9699 15.0588 38.8405 15.0588 32.5346C15.0588 26.2287 20.1882 21.0993 26.4941 21.0993C29.3082 21.0993 31.887 22.1158 33.8823 23.8099C33.8835 23.8109 33.8846 23.812 33.8857 23.813L31.2034 26.4953C31.2022 26.4943 31.2012 26.4932 31.2 26.4923C29.9012 25.4758 28.2729 24.864 26.4941 24.864C22.2682 24.864 18.8235 28.3087 18.8235 32.5346C18.8235 36.7605 22.2682 40.2052 26.4941 40.2052C30.72 40.2052 34.1647 36.7605 34.1647 32.5346C34.1647 30.7558 33.5529 29.1275 32.5364 27.8287C32.5358 27.8278 32.5349 27.8271 32.5342 27.8262L35.2165 25.1439C35.2172 25.1448 35.2181 25.1455 35.2188 25.1463C36.9129 27.1417 37.9294 29.7205 37.9294 32.5346C37.9294 33.1652 37.8729 33.7958 37.7694 34.417C37.6847 34.464 37.6094 34.5205 37.5435 34.5864L34.3623 37.777C34.0235 38.1158 33.9953 38.6523 34.2964 39.0287L36.0847 41.2875C35.7364 41.9464 35.4541 42.6428 35.2376 43.3581L32.3952 43.8381C31.9341 43.9134 31.6047 44.3087 31.6047 44.7699V49.2781C31.6047 49.7581 31.9623 50.1628 32.4423 50.2099L35.2941 50.5393C35.52 51.264 35.8117 51.9511 36.1694 52.6099L35.6517 53.3346C32.8282 54.5769 29.7223 55.264 26.4941 55.264C13.9576 55.264 3.76468 45.0711 3.76468 32.5346ZM31.2 29.1652C31.8776 30.1158 32.2823 31.2828 32.2823 32.5346C32.2823 35.7252 29.6847 38.3228 26.4941 38.3228C23.3035 38.3228 20.7059 35.7252 20.7059 32.5346C20.7059 29.344 23.3035 26.7464 26.4941 26.7464C27.7458 26.7464 28.9129 27.151 29.8635 27.8287C29.8647 27.8296 29.8657 27.8307 29.8669 27.8317L25.8281 31.8704C25.4604 32.238 25.4604 32.8336 25.8281 33.2013C26.1957 33.5689 26.7913 33.5689 27.159 33.2013L31.1978 29.1626C31.1984 29.1635 31.1993 29.1643 31.2 29.1652ZM60.2353 48.1487L57.5717 48.5911C57.1953 48.657 56.9035 48.9393 56.8094 49.3064C56.5835 50.257 56.2164 51.1887 55.7082 52.0546C55.5105 52.384 55.5388 52.8075 55.7835 53.1087L57.44 55.1981L55.407 57.2311L53.2047 55.6593C52.8941 55.4428 52.48 55.424 52.16 55.6311C51.3317 56.1393 50.4188 56.5252 49.4588 56.7605C49.0729 56.864 48.7906 57.184 48.7435 57.5699L48.4517 60.2334H45.5623L45.12 57.5605C45.0541 57.1934 44.7717 56.8923 44.4047 56.7981C43.4541 56.5722 42.5317 56.1958 41.6847 55.6969C41.3458 55.4993 40.9223 55.5275 40.6211 55.7723L38.5317 57.4287L36.4894 55.3958C36.557 55.3013 38.1534 53.0701 38.0517 53.2122C38.2582 52.9197 38.2822 52.4888 38.0894 52.1675C38.0257 52.0395 37.3453 51.0447 36.9317 49.4382C36.8406 49.0936 36.5626 48.8037 36.1317 48.7323C36.0375 48.7219 33.3133 48.4213 33.487 48.4405V45.5605L36.1505 45.1181C36.527 45.0522 36.8188 44.7699 36.9129 44.4028C37.1388 43.4334 37.5152 42.5205 38.0235 41.6735C38.2211 41.344 38.1929 40.911 37.9482 40.6099L36.2917 38.5111C36.3861 38.4163 38.4459 36.3469 38.3153 36.4781C38.4099 36.5456 40.6613 38.1524 40.5176 38.0499C40.8282 38.2663 41.2329 38.2852 41.5529 38.0875C42.4745 37.5346 43.4286 37.1504 44.2729 36.9393C44.6588 36.8452 44.9317 36.5252 44.9788 36.1393L45.2705 33.4758H45.4306H48.16L48.6118 36.1487C48.6682 36.5252 48.9506 36.8169 49.3176 36.911C50.2776 37.137 51.2 37.5134 52.047 38.0123C52.3858 38.2099 52.8094 38.1817 53.12 37.9369L55.2 36.2805L57.2329 38.3134L55.6706 40.5063C55.5576 40.6664 55.5011 40.8734 55.5011 41.0617C55.5011 41.2405 55.5482 41.4099 55.6329 41.5511C56.16 42.4075 56.5365 43.3205 56.7812 44.271C56.8753 44.6475 57.1953 44.9299 57.5812 44.9769L60.2353 45.2687V48.1487Z" fill="#C33DAB"/>
</svg>
