<svg width="64" height="64" viewBox="0 0 64 64" fill="none" xmlns="http://www.w3.org/2000/svg">
<path d="M18.1152 49.6941C16.1553 49.6941 14.5609 51.2884 14.5609 53.2477C14.5609 55.1994 16.1553 56.7867 18.1152 56.7867C20.0739 56.7867 21.6682 55.1994 21.6682 53.2477C21.6682 51.2884 20.0739 49.6941 18.1152 49.6941ZM18.1152 54.3716C17.4866 54.3716 16.976 53.8674 16.976 53.2477C16.976 52.6092 17.476 52.1092 18.1152 52.1092C18.7425 52.1092 19.2531 52.6198 19.2531 53.2477C19.2531 53.8674 18.7425 54.3716 18.1152 54.3716Z" fill="#005EB5"/>
<path d="M56.6214 3.01889C51.6755 3.01842 37.7896 3.01887 35.1391 3.01889C32.7429 3.01889 30.7924 4.96877 30.7924 7.36559V10.8256C30.2043 10.5305 29.55 10.3485 28.8478 10.3485C24.6605 10.3479 10.1423 10.3485 7.3655 10.3485C4.96927 10.3485 3.0188 12.299 3.0188 14.6958V56.6215C3.0188 59.0254 4.96927 60.9812 7.3655 60.9812H28.8478C31.2523 60.9812 33.2075 59.0254 33.2075 56.6215V53.1776C33.792 53.4705 34.442 53.651 35.1391 53.651H56.6214C59.0259 53.651 60.9811 51.7011 60.9811 49.3043V7.36559C60.9811 4.96877 59.0259 3.01889 56.6214 3.01889ZM51.2317 5.43398L50.7287 7.02655C50.6108 7.39861 50.27 7.64861 49.8797 7.64861H41.8891C41.4999 7.64861 41.1591 7.39861 41.0412 7.02714L40.5383 5.43398H51.2317ZM23.4579 12.7636L22.9551 14.3556C22.8372 14.727 22.4964 14.977 22.1061 14.977H14.1155C13.7263 14.977 13.3855 14.727 13.2676 14.3556L12.7648 12.7636H23.4579ZM58.566 49.3043C58.566 50.3691 57.6933 51.2359 56.6214 51.2359H35.1391C34.0742 51.2359 33.2075 50.3691 33.2075 49.3043V44.9812C33.2075 44.3143 32.6674 43.7736 31.9999 43.7736C31.3325 43.7736 30.7924 44.3143 30.7924 44.9812C30.7924 45.2066 30.7924 57.0709 30.7924 56.6215C30.7924 57.694 29.9197 58.5661 28.8478 58.5661H7.3655C6.30064 58.5661 5.43389 57.694 5.43389 56.6215V14.6958C5.43389 13.6303 6.30064 12.7636 7.3655 12.7636H10.233L10.9657 15.0832C11.4021 16.4641 12.6674 17.3921 14.1155 17.3921H22.1061C23.5542 17.3921 24.8207 16.4641 25.257 15.0832L25.9898 12.7636H28.8478C29.9386 12.7636 30.7924 13.6121 30.7924 14.6958V18.9464C30.7924 19.6132 31.3325 20.1539 31.9999 20.1539C32.6674 20.1539 33.2075 19.6132 33.2075 18.9464V14.6958V7.36559C33.2075 6.30073 34.0742 5.43398 35.1391 5.43398H38.0063L38.7393 7.75533C39.1756 9.13622 40.4422 10.0637 41.8891 10.0637H49.8797C51.3278 10.0637 52.5943 9.13622 53.0306 7.75474L53.7636 5.43398H56.6214C57.7122 5.43398 58.566 6.28245 58.566 7.36559V49.3043Z" fill="#005EB5"/>
<path d="M45.8888 42.3657C43.9289 42.3657 42.3346 43.9601 42.3346 45.9194C42.3346 47.8704 43.9289 49.4577 45.8888 49.4577C47.8476 49.4577 49.4419 47.8704 49.4419 45.9194C49.4419 43.9601 47.8476 42.3657 45.8888 42.3657ZM45.8888 47.0426C45.2603 47.0426 44.7497 46.5385 44.7497 45.9194C44.7497 45.2808 45.2497 44.7808 45.8888 44.7808C46.5162 44.7808 47.0268 45.2914 47.0268 45.9194C47.0268 46.5385 46.5162 47.0426 45.8888 47.0426Z" fill="#005EB5"/>
<path d="M18.4112 32.4205C18.2838 32.1381 18.1046 31.9034 17.8782 31.7236C17.6411 31.5355 17.351 31.4406 17.0126 31.4406H16.7944C16.456 31.4406 16.1659 31.5355 15.93 31.723C15.7001 31.9046 15.5208 32.1398 15.3947 32.4235L9.85222 45.5089C9.77203 45.6988 9.73193 45.8645 9.73193 46.0019C9.73193 46.3173 9.83687 46.5868 10.0456 46.8026C10.2555 47.0207 10.5303 47.131 10.8605 47.131C11.311 47.131 11.7255 46.882 11.9348 46.4294L13.3086 43.1316H20.4984L21.8746 46.4347C21.9737 46.6493 22.1199 46.8203 22.3086 46.9441C22.5008 47.0679 22.7142 47.131 22.9454 47.131C23.2767 47.131 23.5515 47.0207 23.7614 46.802C23.9701 46.5856 24.0751 46.3161 24.0751 46.0019C24.0751 45.8657 24.0362 45.7047 23.9548 45.5084L18.4112 32.4205ZM19.6117 41.026H14.1954L16.9029 34.506L19.6117 41.026Z" fill="#005EB5"/>
<path d="M52.8288 21.9677C53.3299 21.6894 53.7557 21.3079 54.0965 20.8303C54.5116 20.249 54.7226 19.5137 54.7226 18.6446C54.7226 17.4017 54.2769 16.3975 53.3972 15.6599C52.5257 14.93 51.2828 14.5597 49.7026 14.5597H44.5729C44.2568 14.5597 43.9856 14.6741 43.7686 14.8993C43.554 15.1222 43.4443 15.3946 43.4443 15.7106V28.904C43.4443 29.2207 43.554 29.4907 43.771 29.7065C43.988 29.9235 44.258 30.0332 44.5729 30.0332H49.8335C51.7875 30.0332 53.2462 29.6411 54.1684 28.8675C55.0988 28.088 55.5705 26.996 55.5705 25.6222C55.5705 24.6605 55.2757 23.851 54.6932 23.2159C54.1955 22.6729 53.5693 22.2537 52.8288 21.9677ZM53.3559 25.5349C53.3559 26.2879 53.0882 26.8527 52.5363 27.2613C51.9774 27.6747 51.0033 27.884 49.6377 27.884H45.7238V23.2083H49.659C52.1472 23.2083 53.3559 23.9695 53.3559 25.5349ZM45.7238 21.124V16.7089H49.5505C50.4833 16.7089 51.225 16.904 51.7557 17.2891C52.2757 17.6688 52.5292 18.1617 52.5292 18.7967C52.5292 19.5391 52.291 20.0986 51.8016 20.5066C51.3099 20.9164 50.4278 21.124 49.1814 21.124H45.7238Z" fill="#005EB5"/>
<path d="M31.9997 22.5691C26.8192 22.5691 22.6046 26.7837 22.6046 31.9635C22.6046 37.144 26.8192 41.3586 31.9997 41.3586C37.1789 41.3586 41.3935 37.144 41.3935 31.9635C41.3935 26.7837 37.1789 22.5691 31.9997 22.5691ZM31.9997 38.9435C28.1506 38.9435 25.0197 35.8126 25.0197 31.9635C25.0197 28.1151 28.1506 24.9842 31.9997 24.9842C35.8475 24.9842 38.9784 28.1151 38.9784 31.9635C38.9784 35.8126 35.8475 38.9435 31.9997 38.9435Z" fill="#005EB5"/>
<path d="M34.2155 28.7312L30.311 32.6351L29.2651 31.5885C28.7934 31.1168 28.0292 31.1168 27.5575 31.5885C27.0858 32.0596 27.0858 32.8244 27.5575 33.2961L29.0304 34.7695C29.383 35.1227 29.8476 35.299 30.311 35.299C30.7745 35.299 31.2391 35.1227 31.5917 34.7695L35.9231 30.4388C36.3948 29.9677 36.3948 29.2029 35.9231 28.7312C35.4514 28.2595 34.6872 28.2595 34.2155 28.7312Z" fill="#005EB5"/>
</svg>
