<svg width="64" height="64" viewBox="0 0 64 64" fill="none" xmlns="http://www.w3.org/2000/svg">
<path d="M24.9598 44.5911C33.3617 44.5911 40.1727 37.7815 40.1727 29.3815C40.1727 20.9815 33.3617 14.1719 24.9598 14.1719C16.558 14.1719 9.74695 20.9815 9.74695 29.3815C9.74695 37.7815 16.558 44.5911 24.9598 44.5911Z" stroke="#9C2631" stroke-width="1.875" stroke-miterlimit="10" stroke-linecap="round" stroke-linejoin="round"/>
<path d="M22.737 40.615C20.5815 40.192 18.525 39.1474 16.8584 37.4811C12.3913 33.0149 12.3913 25.7479 16.8584 21.2818C21.3255 16.8156 28.5942 16.8155 33.0613 21.2818C37.5284 25.748 37.5284 33.015 33.0613 37.4813C31.3834 39.1588 29.3103 40.2063 27.1388 40.6236" stroke="#9C2631" stroke-width="1.875" stroke-miterlimit="10" stroke-linecap="round" stroke-linejoin="round"/>
<path d="M35.7169 40.1362L40.2109 44.6295" stroke="#9C2631" stroke-width="1.875" stroke-miterlimit="10" stroke-linecap="round" stroke-linejoin="round"/>
<path d="M53.0942 52.2971L54.8097 54.0122C55.4566 54.659 55.4566 55.7077 54.8097 56.3544L51.9379 59.2255C51.2913 59.872 50.2429 59.872 49.5963 59.2255L38.7754 48.4069C38.1286 47.7601 38.1286 46.7114 38.7754 46.0647L41.6472 43.1936C42.2938 42.5471 43.3422 42.5471 43.9888 43.1936L50.0003 49.2039" stroke="#9C2631" stroke-width="1.875" stroke-miterlimit="10" stroke-linecap="round" stroke-linejoin="round"/>
<path d="M5.55525 13.5232C8.10556 13.5232 10.173 11.4562 10.173 8.90642C10.173 6.35666 8.10556 4.28967 5.55525 4.28967C3.00494 4.28967 0.9375 6.35666 0.9375 8.90642C0.9375 11.4562 3.00494 13.5232 5.55525 13.5232Z" stroke="#9C2631" stroke-width="1.875" stroke-miterlimit="10" stroke-linecap="round" stroke-linejoin="round"/>
<path d="M39.0769 13.5232C41.6272 13.5232 43.6946 11.4562 43.6946 8.90642C43.6946 6.35666 41.6272 4.28967 39.0769 4.28967C36.5265 4.28967 34.4591 6.35666 34.4591 8.90642C34.4591 11.4562 36.5265 13.5232 39.0769 13.5232Z" stroke="#9C2631" stroke-width="1.875" stroke-miterlimit="10" stroke-linecap="round" stroke-linejoin="round"/>
<path d="M24.923 30.766C27.4734 30.766 29.5408 28.699 29.5408 26.1492C29.5408 23.5995 27.4734 21.5325 24.923 21.5325C22.3727 21.5325 20.3053 23.5995 20.3053 26.1492C20.3053 28.699 22.3727 30.766 24.923 30.766Z" stroke="#9C2631" stroke-width="1.875" stroke-miterlimit="10" stroke-linecap="round" stroke-linejoin="round"/>
<path d="M58.4447 30.766C60.995 30.766 63.0624 28.699 63.0624 26.1492C63.0624 23.5995 60.995 21.5325 58.4447 21.5325C55.8943 21.5325 53.8269 23.5995 53.8269 26.1492C53.8269 28.699 55.8943 30.766 58.4447 30.766Z" stroke="#9C2631" stroke-width="1.875" stroke-miterlimit="10" stroke-linecap="round" stroke-linejoin="round"/>
<path d="M15.3274 17.6075L9.00366 11.9775" stroke="#9C2631" stroke-width="1.875" stroke-miterlimit="10" stroke-linecap="round" stroke-linejoin="round"/>
<path d="M21.4749 23.0788L18.1799 20.145" stroke="#9C2631" stroke-width="1.875" stroke-miterlimit="10" stroke-linecap="round" stroke-linejoin="round"/>
<path d="M54.9964 23.0791L42.5249 11.9769" stroke="#9C2631" stroke-width="1.875" stroke-miterlimit="10" stroke-linecap="round" stroke-linejoin="round"/>
<path d="M30.5012 19.3538L27.8524 22.5813" stroke="#9C2631" stroke-width="1.875" stroke-miterlimit="10" stroke-linecap="round" stroke-linejoin="round"/>
<path d="M36.1474 12.475L32.9149 16.4137" stroke="#9C2631" stroke-width="1.875" stroke-miterlimit="10" stroke-linecap="round" stroke-linejoin="round"/>
<path d="M57.1614 4.28967V5.1138" stroke="#9C2631" stroke-width="1.875" stroke-miterlimit="10" stroke-linecap="round" stroke-linejoin="round"/>
<path d="M57.1615 9.67493V10.4991" stroke="#9C2631" stroke-width="1.875" stroke-miterlimit="10" stroke-linecap="round" stroke-linejoin="round"/>
<path d="M60.2663 7.39429H59.442" stroke="#9C2631" stroke-width="1.875" stroke-miterlimit="10" stroke-linecap="round" stroke-linejoin="round"/>
<path d="M54.8808 7.39429H54.0566" stroke="#9C2631" stroke-width="1.875" stroke-miterlimit="10" stroke-linecap="round" stroke-linejoin="round"/>
<path d="M54.9964 19.849V23.079H51.7664" stroke="#9C2631" stroke-width="1.875" stroke-miterlimit="10" stroke-linecap="round" stroke-linejoin="round"/>
</svg>
