<svg width="64" height="64" viewBox="0 0 64 64" fill="none" xmlns="http://www.w3.org/2000/svg">
<g clip-path="url(#clip0_16_3855)">
<path d="M7.67969 8.125H7.69141C8.38135 8.125 8.93506 7.56543 8.93506 6.875C8.93506 6.18457 8.36963 5.625 7.67969 5.625C6.98926 5.625 6.42969 6.18457 6.42969 6.875C6.42969 7.56543 6.98926 8.125 7.67969 8.125Z" fill="#6B225E"/>
<path d="M13.3672 8.125H13.3789C14.0693 8.125 14.623 7.56543 14.623 6.875C14.623 6.18457 14.0576 5.625 13.3672 5.625C12.6768 5.625 12.1172 6.18457 12.1172 6.875C12.1172 7.56543 12.6768 8.125 13.3672 8.125Z" fill="#6B225E"/>
<path d="M19.0552 8.125H19.0669C19.7568 8.125 20.311 7.56543 20.311 6.875C20.311 6.18457 19.7451 5.625 19.0552 5.625C18.3647 5.625 17.8052 6.18457 17.8052 6.875C17.8052 7.56543 18.3647 8.125 19.0552 8.125Z" fill="#6B225E"/>
<path d="M28.8433 8.12451H46.2481C46.9385 8.12451 47.4981 7.56494 47.4981 6.87451C47.4981 6.18457 46.9385 5.625 46.2481 5.625H28.8433C28.1533 5.625 27.5933 6.18457 27.5933 6.87451C27.5933 7.56494 28.1528 8.12451 28.8433 8.12451Z" fill="#6B225E"/>
<path d="M52.873 33.624C52.5444 33.624 52.2217 33.7573 51.9893 33.9902C51.7568 34.2227 51.623 34.5449 51.623 34.8735C51.623 35.2026 51.7568 35.5249 51.9893 35.7573C52.2217 35.9897 52.5444 36.1235 52.873 36.1235C53.2017 36.1235 53.5239 35.9897 53.7563 35.7573C53.9888 35.5249 54.123 35.2026 54.123 34.8735C54.123 34.5449 53.9893 34.2227 53.7563 33.9902C53.5239 33.7573 53.2017 33.624 52.873 33.624Z" fill="#6B225E"/>
<path d="M26.7056 22.124H25.1489C24.4585 22.124 23.8989 22.6836 23.8989 23.374V32.3735C23.8989 33.064 24.4585 33.6235 25.1489 33.6235H26.7056C29.8755 33.6235 32.4551 31.0444 32.4551 27.874C32.4551 24.7036 29.876 22.124 26.7056 22.124ZM26.7056 31.1235H26.3989V24.624H26.7056C28.4976 24.624 29.9551 26.082 29.9551 27.874C29.9551 29.666 28.4976 31.1235 26.7056 31.1235Z" fill="#6B225E"/>
<path d="M18.2559 22.9756C18.085 22.4668 17.6079 22.124 17.0713 22.124C16.5347 22.124 16.0576 22.4668 15.8867 22.9756L12.8584 31.9751C12.6382 32.6294 12.9897 33.3384 13.644 33.5586C14.2988 33.7788 15.0073 33.4268 15.2275 32.7725L15.3198 32.4985H18.8228L18.9146 32.7725C19.0903 33.2944 19.5772 33.624 20.0991 33.624C20.2315 33.624 20.3657 33.603 20.4981 33.5586C21.1524 33.3384 21.5044 32.6294 21.2837 31.9751L18.2559 22.9756ZM16.1606 29.999L17.0713 27.2935L17.9815 29.999H16.1606Z" fill="#6B225E"/>
<path d="M63.5088 53.5235L55.0098 45.0244L58.0054 42.0293C58.3179 41.7163 58.4424 41.2613 58.3316 40.833C58.2212 40.4048 57.8926 40.0664 57.4673 39.9444L39.3736 34.7334V18.374C39.3736 17.6841 38.814 17.1245 38.1236 17.1245H7.12452C6.43458 17.1245 5.875 17.6841 5.875 18.374V37.3736C5.875 38.064 6.43458 38.6236 7.12452 38.6236H34.1983L36.3584 46.1231H3.625C2.93555 46.1231 2.375 45.5625 2.375 44.8731V13.6245H51.6231V29.874C51.6231 30.564 52.1827 31.1236 52.8731 31.1236C53.563 31.1236 54.1231 30.564 54.1231 29.874V3.875C54.1231 1.80713 52.441 0.125 50.3731 0.125H3.625C1.55713 0.125 -0.125 1.80713 -0.125 3.875V44.8731C-0.125 46.941 1.55713 48.6231 3.625 48.6231H37.0782L39.6963 57.7149C39.8189 58.1402 40.1568 58.4688 40.585 58.5791C41.0127 58.6895 41.4683 58.566 41.7813 58.253L44.7764 55.2579L53.2754 63.7569C53.5098 63.9913 53.8277 64.1226 54.1592 64.1226C54.4908 64.1226 54.8086 63.9913 55.043 63.7569L63.5088 55.2911C63.9971 54.8028 63.9971 54.0113 63.5088 53.5235ZM3.625 2.625H50.3731C51.062 2.625 51.6231 3.18555 51.6231 3.875V11.1245H2.375V3.875C2.375 3.18555 2.93555 2.625 3.625 2.625ZM8.37452 36.1236V19.624H36.8736V34.0132L34.6817 33.3819C34.2442 33.2564 33.7735 33.3775 33.4517 33.6992C33.1299 34.021 33.0088 34.4922 33.1343 34.9292L33.4785 36.1236H8.37452ZM54.1592 61.105L45.6607 52.606C45.4165 52.3619 45.0967 52.2398 44.7769 52.2398C44.4566 52.2398 44.1367 52.3619 43.8926 52.606L41.5122 54.9869L36.1621 36.4102L54.7388 41.7598L52.3584 44.1407C52.1241 44.3745 51.9922 44.6929 51.9922 45.0244C51.9922 45.3555 52.1241 45.6739 52.3584 45.9082L60.8575 54.4068L54.1592 61.105Z" fill="#6B225E"/>
<path d="M15.8457 43.623C16.5361 43.623 17.0957 43.0635 17.0957 42.3735C17.0957 41.6831 16.5361 41.1235 15.8457 41.1235H7.30322C6.61279 41.1235 6.05322 41.6831 6.05322 42.3735C6.05322 43.0635 6.61279 43.623 7.30322 43.623H15.8457Z" fill="#6B225E"/>
<path d="M21.6665 43.2573C21.8989 43.0249 22.0327 42.7021 22.0327 42.3735C22.0327 42.0449 21.8994 41.7222 21.6665 41.4897C21.4341 41.2573 21.1118 41.1235 20.7827 41.1235C20.4541 41.1235 20.1318 41.2573 19.8994 41.4897C19.667 41.7222 19.5332 42.0449 19.5332 42.3735C19.5332 42.7021 19.6665 43.0249 19.8994 43.2573C20.1318 43.4897 20.4541 43.6235 20.7827 43.6235C21.1118 43.6235 21.4341 43.4897 21.6665 43.2573Z" fill="#6B225E"/>
</g>
<defs>
<clipPath id="clip0_16_3855">
<rect width="64" height="64" fill="white"/>
</clipPath>
</defs>
</svg>
