<svg width="64" height="64" viewBox="0 0 64 64" fill="none" xmlns="http://www.w3.org/2000/svg">
<path d="M63 32V4C63 2.346 61.654 1 60 1H28C26.346 1 25 2.346 25 4V31H10C7.243 31 5 33.243 5 36V55H1V58C1 60.757 3.243 63 6 63H34C36.757 63 39 60.757 39 58V55H35V35H44.029L40.561 38.468L41.911 40.835C41.807 41.062 41.711 41.29 41.625 41.519L39 42.236V47.763L41.625 48.481C41.711 48.71 41.806 48.938 41.911 49.165L40.561 51.532L44.469 55.439L46.834 54.088C47.06 54.192 47.289 54.288 47.519 54.374L48.237 57H53.763L54.481 54.375C54.711 54.289 54.94 54.193 55.166 54.089L57.531 55.44L61.439 51.533L60.089 49.166C60.193 48.939 60.289 48.711 60.375 48.482L63 47.764V42.237L60.375 41.519C60.289 41.29 60.194 41.062 60.089 40.835L61.439 38.468L57.971 35H60C61.654 35 63 33.654 63 32ZM60 33H28C27.449 33 27 32.552 27 32V11H61V32C61 32.552 60.551 33 60 33ZM28 3H60C60.551 3 61 3.448 61 4V9H27V4C27 3.448 27.449 3 28 3ZM37 58C37 59.654 35.654 61 34 61H6C4.346 61 3 59.654 3 58V57H37V58ZM33 55H7V36C7 34.346 8.346 33 10 33H25.184C25.598 34.161 26.698 35 28 35H11C9.897 35 9 35.897 9 37V51C9 52.103 9.897 53 11 53H29C30.103 53 31 52.103 31 51V37C31 35.897 30.103 35 29 35H33V55ZM29 37L29.001 51H11V37H29ZM47.69 35L47.519 35.625C47.289 35.711 47.06 35.807 46.834 35.911L45.238 35H47.69ZM58.073 41.268C58.311 41.718 58.503 42.18 58.645 42.639L58.807 43.163L61 43.764V46.237L58.807 46.838L58.645 47.362C58.503 47.821 58.311 48.283 58.073 48.733L57.817 49.218L58.946 51.197L57.196 52.946L55.217 51.816L54.731 52.074C54.286 52.31 53.825 52.503 53.362 52.646L52.837 52.807L52.237 55H49.763L49.163 52.807L48.638 52.646C48.175 52.502 47.714 52.31 47.269 52.074L46.783 51.816L44.804 52.946L43.054 51.197L44.183 49.218L43.927 48.733C43.689 48.283 43.497 47.821 43.355 47.362L43.193 46.838L41 46.236V43.763L43.193 43.162L43.355 42.638C43.497 42.179 43.689 41.717 43.927 41.267L44.183 40.782L43.054 38.803L44.804 37.054L46.783 38.184L47.269 37.926C47.714 37.69 48.175 37.497 48.638 37.354L49.163 37.193L49.763 35H52.237L52.837 37.193L53.362 37.354C53.825 37.498 54.286 37.69 54.731 37.926L55.217 38.184L57.196 37.054L58.946 38.803L57.817 40.782L58.073 41.268ZM55.166 35.911C54.94 35.807 54.711 35.711 54.481 35.625L54.31 35H56.762L55.166 35.911Z" fill="#076856"/>
<path d="M37 5H39V7H37V5Z" fill="#076856"/>
<path d="M29 5H31V7H29V5Z" fill="#076856"/>
<path d="M33 5H35V7H33V5Z" fill="#076856"/>
<path d="M29 31H45V13H29V31ZM31 15H43V29H31V15Z" fill="#076856"/>
<path d="M47 19H59V13H47V19ZM49 15H57V17H49V15Z" fill="#076856"/>
<path d="M47 21H59V23H47V21Z" fill="#076856"/>
<path d="M47 25H59V27H47V25Z" fill="#076856"/>
<path d="M47 29H55V31H47V29Z" fill="#076856"/>
<path d="M57 29H59V31H57V29Z" fill="#076856"/>
<path d="M8 31C11.519 31 14.432 28.386 14.92 25H23V23H14.92C14.432 19.614 11.519 17 8 17C4.14 17 1 20.141 1 24C1 27.859 4.14 31 8 31ZM8 19C10.757 19 13 21.243 13 24C13 26.757 10.757 29 8 29C5.243 29 3 26.757 3 24C3 21.243 5.243 19 8 19Z" fill="#076856"/>
<path d="M11.707 22.707L10.293 21.293L6.99997 24.586L5.70697 23.293L4.29297 24.707L6.99997 27.414L11.707 22.707Z" fill="#076856"/>
<path d="M8 15C11.519 15 14.432 12.386 14.92 9H23V7H14.92C14.432 3.614 11.519 1 8 1C4.14 1 1 4.141 1 8C1 11.859 4.14 15 8 15ZM8 3C10.757 3 13 5.243 13 8C13 10.757 10.757 13 8 13C5.243 13 3 10.757 3 8C3 5.243 5.243 3 8 3Z" fill="#076856"/>
<path d="M11.707 6.70697L10.293 5.29297L6.99997 8.58597L5.70697 7.29297L4.29297 8.70697L6.99997 11.414L11.707 6.70697Z" fill="#076856"/>
<path d="M21 39H13V49H21V39ZM19 47H15V41H19V47Z" fill="#076856"/>
<path d="M23 39H27V41H23V39Z" fill="#076856"/>
<path d="M23 43H27V45H23V43Z" fill="#076856"/>
<path d="M23 47H27V49H23V47Z" fill="#076856"/>
<path d="M51 39C47.691 39 45 41.691 45 45C45 48.309 47.691 51 51 51C54.309 51 57 48.309 57 45C57 41.691 54.309 39 51 39ZM51 49C48.794 49 47 47.206 47 45C47 42.794 48.794 41 51 41C53.206 41 55 42.794 55 45C55 47.206 53.206 49 51 49Z" fill="#076856"/>
</svg>
