<svg width="64" height="64" viewBox="0 0 64 64" fill="none" xmlns="http://www.w3.org/2000/svg">
<g clip-path="url(#clip0_16_3562)">
<path d="M13.6666 9.8125H20.9941" stroke="#DC3545" stroke-width="1.875" stroke-miterlimit="10" stroke-linecap="round" stroke-linejoin="round"/>
<path d="M63.0625 40.875V47.3125C63.0625 48.9694 61.7194 50.3125 60.0625 50.3125H3.9375C2.28062 50.3125 0.9375 48.9694 0.9375 47.3125V12.8125C0.9375 11.1556 2.28062 9.8125 3.9375 9.8125H9.25" stroke="#DC3545" stroke-width="1.875" stroke-miterlimit="10" stroke-linecap="round" stroke-linejoin="round"/>
<path d="M35.6945 9.8125H60.0625C61.7193 9.8125 63.0625 11.1556 63.0625 12.8125V36.4166" stroke="#DC3545" stroke-width="1.875" stroke-miterlimit="10" stroke-linecap="round" stroke-linejoin="round"/>
<path d="M33.7084 13.5625H58.8438C59.1026 13.5625 59.3125 13.7724 59.3125 14.0312V46.0938C59.3125 46.3526 59.1026 46.5625 58.8438 46.5625H5.15625C4.89737 46.5625 4.6875 46.3526 4.6875 46.0938V14.0312C4.6875 13.7724 4.89737 13.5625 5.15625 13.5625H23.0209" stroke="#DC3545" stroke-width="1.875" stroke-miterlimit="10" stroke-linecap="round" stroke-linejoin="round"/>
<path d="M45.25 63.0625H18.75C17.7145 63.0625 16.875 62.223 16.875 61.1875C16.875 60.152 17.7145 59.3125 18.75 59.3125H45.25C46.2855 59.3125 47.125 60.152 47.125 61.1875C47.125 62.223 46.2855 63.0625 45.25 63.0625Z" stroke="#DC3545" stroke-width="1.875" stroke-miterlimit="10" stroke-linecap="round" stroke-linejoin="round"/>
<path d="M42 50.3125H22V59.3125H42V50.3125Z" stroke="#DC3545" stroke-width="1.875" stroke-miterlimit="10" stroke-linecap="round" stroke-linejoin="round"/>
<path d="M34.5 59.3125H29.5V56.5625C29.5 55.1818 30.6193 54.0625 32 54.0625C33.3807 54.0625 34.5 55.1818 34.5 56.5625V59.3125Z" stroke="#DC3545" stroke-width="1.875" stroke-miterlimit="10" stroke-linecap="round" stroke-linejoin="round"/>
<path d="M28.2443 15.4375C32.2483 15.4375 35.4943 12.1916 35.4943 8.1875C35.4943 4.18344 32.2483 0.9375 28.2443 0.9375C24.2402 0.9375 20.9943 4.18344 20.9943 8.1875C20.9943 12.1916 24.2402 15.4375 28.2443 15.4375Z" stroke="#DC3545" stroke-width="1.875" stroke-miterlimit="10" stroke-linecap="round" stroke-linejoin="round"/>
<path d="M16.2917 25.809H15.6856C13.9127 25.809 12.4755 27.2563 12.4755 29.0415V30.5215C12.4755 30.8424 12.7338 31.1025 13.0525 31.1025H25.8985C26.2171 31.1025 26.4755 30.8424 26.4755 30.5215V29.0415C26.4755 27.2563 25.0382 25.809 23.2653 25.809H22.7293" stroke="#DC3545" stroke-width="1.875" stroke-miterlimit="10" stroke-linecap="round" stroke-linejoin="round"/>
<path d="M15.6002 23.413V20.7915C15.6002 18.6514 17.3351 16.9165 19.4752 16.9165C21.6153 16.9165 23.3502 18.6514 23.3502 20.7915V23.3984C23.3502 25.5425 21.6121 27.2806 19.468 27.2806C17.3318 27.2808 15.6002 25.5491 15.6002 23.413Z" stroke="#DC3545" stroke-width="1.875" stroke-miterlimit="10" stroke-linecap="round" stroke-linejoin="round"/>
<path d="M15.7894 21.5088H23.1613" stroke="#DC3545" stroke-width="1.875" stroke-miterlimit="10" stroke-linecap="round" stroke-linejoin="round"/>
<path d="M15.8502 42.8541C14.8492 42.8541 14.0377 42.0426 14.0377 41.0416V39.1666C14.0377 38.1656 14.8492 37.3541 15.8502 37.3541C16.8512 37.3541 17.6627 38.1656 17.6627 39.1666V41.0416C17.6627 42.0426 16.8513 42.8541 15.8502 42.8541Z" stroke="#DC3545" stroke-width="1.875" stroke-miterlimit="10" stroke-linecap="round" stroke-linejoin="round"/>
<path d="M19.4752 42.8541C18.4742 42.8541 17.6627 42.0426 17.6627 41.0416V36.7916C17.6627 35.7906 18.4742 34.9791 19.4752 34.9791C20.4762 34.9791 21.2877 35.7906 21.2877 36.7916V41.0416C21.2877 42.0426 20.4763 42.8541 19.4752 42.8541Z" stroke="#DC3545" stroke-width="1.875" stroke-miterlimit="10" stroke-linecap="round" stroke-linejoin="round"/>
<path d="M23.1002 42.8541C22.0992 42.8541 21.2877 42.0426 21.2877 41.0416V40.1458C21.2877 39.1448 22.0992 38.3333 23.1002 38.3333C24.1012 38.3333 24.9127 39.1448 24.9127 40.1458V41.0416C24.9127 42.0426 24.1013 42.8541 23.1002 42.8541Z" stroke="#DC3545" stroke-width="1.875" stroke-miterlimit="10" stroke-linecap="round" stroke-linejoin="round"/>
<path d="M40.4942 25.809H39.7481C37.9752 25.809 36.538 27.2563 36.538 29.0415V30.5215C36.538 30.8424 36.7963 31.1025 37.115 31.1025H49.961C50.2796 31.1025 50.538 30.8424 50.538 30.5215V29.0415C50.538 27.2563 49.1007 25.809 47.3278 25.809H46.7501" stroke="#DC3545" stroke-width="1.875" stroke-miterlimit="10" stroke-linecap="round" stroke-linejoin="round"/>
<path d="M39.6627 23.413V20.7915C39.6627 18.6514 41.3976 16.9165 43.5377 16.9165C45.6778 16.9165 47.4127 18.6514 47.4127 20.7915V23.3984C47.4127 25.5425 45.6746 27.2806 43.5305 27.2806C41.3943 27.2808 39.6627 25.5491 39.6627 23.413Z" stroke="#DC3545" stroke-width="1.875" stroke-miterlimit="10" stroke-linecap="round" stroke-linejoin="round"/>
<path d="M39.8519 21.5088H47.2238" stroke="#DC3545" stroke-width="1.875" stroke-miterlimit="10" stroke-linecap="round" stroke-linejoin="round"/>
<path d="M43.6036 42.8541C42.6026 42.8541 41.7911 42.0426 41.7911 41.0416V39.1666C41.7911 38.1656 42.6026 37.3541 43.6036 37.3541C44.6046 37.3541 45.4161 38.1656 45.4161 39.1666V41.0416C45.4161 42.0426 44.6046 42.8541 43.6036 42.8541Z" stroke="#DC3545" stroke-width="1.875" stroke-miterlimit="10" stroke-linecap="round" stroke-linejoin="round"/>
<path d="M47.2286 42.8541C46.2276 42.8541 45.4161 42.0426 45.4161 41.0416V36.7916C45.4161 35.7906 46.2276 34.9791 47.2286 34.9791C48.2296 34.9791 49.0411 35.7906 49.0411 36.7916V41.0416C49.0411 42.0426 48.2296 42.8541 47.2286 42.8541Z" stroke="#DC3545" stroke-width="1.875" stroke-miterlimit="10" stroke-linecap="round" stroke-linejoin="round"/>
<path d="M39.9786 42.8541C38.9776 42.8541 38.1661 42.0426 38.1661 41.0416V40.1458C38.1661 39.1448 38.9776 38.3333 39.9786 38.3333C40.9796 38.3333 41.7911 39.1448 41.7911 40.1458V41.0416C41.7911 42.0426 40.9796 42.8541 39.9786 42.8541Z" stroke="#DC3545" stroke-width="1.875" stroke-miterlimit="10" stroke-linecap="round" stroke-linejoin="round"/>
<path d="M33.5283 13.4716L37.4807 17.424" stroke="#DC3545" stroke-width="1.875" stroke-miterlimit="10" stroke-linecap="round" stroke-linejoin="round"/>
</g>
<defs>
<clipPath id="clip0_16_3562">
<rect width="64" height="64" fill="white"/>
</clipPath>
</defs>
</svg>
