<svg width="98" height="99" viewBox="0 0 98 99" fill="none" xmlns="http://www.w3.org/2000/svg">
<rect y="0.649414" width="98" height="98" rx="5" fill="#DC3545"/>
<g clip-path="url(#clip0_1_620)">
<path d="M25.9597 27.3633H25.9703C26.5956 27.3633 27.0974 26.8562 27.0974 26.2305C27.0974 25.6048 26.585 25.0977 25.9597 25.0977C25.334 25.0977 24.8269 25.6048 24.8269 26.2305C24.8269 26.8562 25.334 27.3633 25.9597 27.3633Z" fill="white"/>
<path d="M31.114 27.3633H31.1246C31.7503 27.3633 32.2521 26.8562 32.2521 26.2305C32.2521 25.6048 31.7397 25.0977 31.114 25.0977C30.4883 25.0977 29.9812 25.6048 29.9812 26.2305C29.9812 26.8562 30.4883 27.3633 31.114 27.3633Z" fill="white"/>
<path d="M36.2688 27.3633H36.2794C36.9047 27.3633 37.4069 26.8562 37.4069 26.2305C37.4069 25.6048 36.8941 25.0977 36.2688 25.0977C35.6431 25.0977 35.136 25.6048 35.136 26.2305C35.136 26.8562 35.6431 27.3633 36.2688 27.3633Z" fill="white"/>
<path d="M45.1392 27.3628H60.9123C61.538 27.3628 62.0451 26.8557 62.0451 26.23C62.0451 25.6048 61.538 25.0977 60.9123 25.0977H45.1392C44.5139 25.0977 44.0063 25.6048 44.0063 26.23C44.0063 26.8557 44.5135 27.3628 45.1392 27.3628Z" fill="white"/>
<path d="M66.9163 50.4718C66.6185 50.4718 66.326 50.5926 66.1153 50.8037C65.9047 51.0143 65.7834 51.3064 65.7834 51.6042C65.7834 51.9024 65.9047 52.1945 66.1153 52.4051C66.326 52.6157 66.6185 52.737 66.9163 52.737C67.2141 52.737 67.5061 52.6157 67.7168 52.4051C67.9274 52.1945 68.0491 51.9024 68.0491 51.6042C68.0491 51.3064 67.9278 51.0143 67.7168 50.8037C67.5061 50.5926 67.2141 50.4718 66.9163 50.4718Z" fill="white"/>
<path d="M43.202 40.0499H41.7913C41.1656 40.0499 40.6584 40.557 40.6584 41.1827V49.3386C40.6584 49.9643 41.1656 50.4714 41.7913 50.4714H43.202C46.0747 50.4714 48.4125 48.1341 48.4125 45.2609C48.4125 42.3877 46.0752 40.0499 43.202 40.0499ZM43.202 48.2057H42.9241V42.3156H43.202C44.826 42.3156 46.1468 43.6369 46.1468 45.2609C46.1468 46.8849 44.826 48.2057 43.202 48.2057Z" fill="white"/>
<path d="M35.5442 40.8217C35.3894 40.3606 34.957 40.0499 34.4707 40.0499C33.9844 40.0499 33.5521 40.3606 33.3972 40.8217L30.6528 48.9775C30.4532 49.5704 30.7718 50.2129 31.3648 50.4125C31.9582 50.6121 32.6002 50.293 32.7998 49.7001L32.8834 49.4518H36.058L36.1412 49.7001C36.3005 50.1731 36.7417 50.4718 37.2147 50.4718C37.3346 50.4718 37.4563 50.4528 37.5762 50.4125C38.1692 50.2129 38.4882 49.5704 38.2882 48.9775L35.5442 40.8217ZM33.6454 47.1867L34.4707 44.7347L35.2955 47.1867H33.6454Z" fill="white"/>
<path d="M76.5549 68.5057L68.8526 60.8034L71.5674 58.0891C71.8506 57.8054 71.9635 57.393 71.863 57.0049C71.763 56.6169 71.4652 56.3102 71.0798 56.1996L54.6823 51.4772V36.6515C54.6823 36.0262 54.1752 35.5191 53.5495 35.5191H25.4566C24.8313 35.5191 24.3242 36.0262 24.3242 36.6515V53.8698C24.3242 54.4955 24.8313 55.0026 25.4566 55.0026H49.9922L51.9498 61.799H22.2852C21.6603 61.799 21.1523 61.291 21.1523 60.6662V32.3472H65.7834V47.0734C65.7834 47.6986 66.2905 48.2057 66.9162 48.2057C67.5415 48.2057 68.049 47.6986 68.049 47.0734V23.5117C68.049 21.6377 66.5246 20.1133 64.6506 20.1133H22.2852C20.4111 20.1133 18.8867 21.6377 18.8867 23.5117V60.6662C18.8867 62.5402 20.4111 64.0647 22.2852 64.0647H52.6021L54.9748 72.3041C55.0859 72.6895 55.3921 72.9873 55.7802 73.0874C56.1678 73.1874 56.5806 73.0754 56.8643 72.7918L59.5786 70.0774L67.2809 77.7797C67.4933 77.9921 67.7813 78.1111 68.0818 78.1111C68.3823 78.1111 68.6703 77.9921 68.8827 77.7797L76.5549 70.1075C76.9974 69.665 76.9974 68.9477 76.5549 68.5057ZM22.2852 22.3789H64.6506C65.275 22.3789 65.7834 22.8869 65.7834 23.5117V30.0816H21.1523V23.5117C21.1523 22.8869 21.6603 22.3789 22.2852 22.3789ZM26.5894 52.737V37.7843H52.4167V50.8245L50.4303 50.2523C50.0338 50.1386 49.6072 50.2483 49.3156 50.5399C49.024 50.8316 48.9142 51.2586 49.028 51.6546L49.3399 52.737H26.5894ZM68.0818 75.3764L60.38 67.6742C60.1587 67.4529 59.8689 67.3423 59.5791 67.3423C59.2888 67.3423 58.9989 67.4529 58.7777 67.6742L56.6205 69.8318L51.7719 52.9967L68.607 57.8448L66.4498 60.0025C66.2374 60.2144 66.118 60.5029 66.118 60.8034C66.118 61.1034 66.2374 61.3919 66.4498 61.6043L74.1521 69.3061L68.0818 75.3764Z" fill="white"/>
<path d="M33.3603 59.5334C33.986 59.5334 34.4931 59.0263 34.4931 58.401C34.4931 57.7753 33.986 57.2682 33.3603 57.2682H25.6187C24.993 57.2682 24.4858 57.7753 24.4858 58.401C24.4858 59.0263 24.993 59.5334 25.6187 59.5334H33.3603Z" fill="white"/>
<path d="M38.6352 59.2019C38.8458 58.9913 38.9671 58.6988 38.9671 58.401C38.9671 58.1032 38.8463 57.8107 38.6352 57.6001C38.4246 57.3894 38.1325 57.2682 37.8343 57.2682C37.5365 57.2682 37.2444 57.3894 37.0338 57.6001C36.8232 57.8107 36.7019 58.1032 36.7019 58.401C36.7019 58.6988 36.8227 58.9913 37.0338 59.2019C37.2444 59.4126 37.5365 59.5338 37.8343 59.5338C38.1325 59.5338 38.4246 59.4126 38.6352 59.2019Z" fill="white"/>
</g>
<defs>
<clipPath id="clip0_1_620">
<rect width="58" height="58" fill="white" transform="translate(19 20)"/>
</clipPath>
</defs>
</svg>
