<svg width="98" height="99" viewBox="0 0 98 99" fill="none" xmlns="http://www.w3.org/2000/svg">
<rect y="0.297424" width="98" height="98.704" rx="5" fill="#FF800B"/>
<g clip-path="url(#clip0_1_687)">
<path d="M67.9968 55.885L57.784 61.8335C57.272 62.1316 56.7513 62.3422 56.2079 62.4678C56.4092 62.1449 56.567 61.7797 56.6753 61.3752C57.1973 59.4267 56.0393 57.3923 54.0387 56.7437C53.9998 56.7312 53.9603 56.7212 53.9201 56.714C50.9849 56.1846 48.0878 55.1372 45.76 54.2956C44.9513 54.0032 44.1875 53.7271 43.5381 53.5166C40.9237 52.6683 38.5598 53.7185 36.5925 54.8574L28.9943 59.2566L28.2779 57.9907C27.9617 57.4319 27.4452 57.0294 26.8238 56.8571C26.2026 56.6848 25.5524 56.7641 24.9936 57.0804L22.1282 58.7023C21.5692 59.0185 21.1666 59.5349 20.9943 60.1563C20.822 60.7778 20.9014 61.4278 21.2177 61.9865L29.6421 76.8719C29.9583 77.4306 30.4747 77.8332 31.0962 78.0055C31.3111 78.0651 31.5294 78.0945 31.7462 78.0945C32.1563 78.0945 32.5608 77.9891 32.9264 77.7822L35.7919 76.1605C36.3507 75.8442 36.7532 75.3279 36.9255 74.7064C37.0978 74.085 37.0184 73.4349 36.7021 72.8762L35.8336 71.3415L37.5657 70.3415L50.6463 73.8464C51.385 74.0445 52.1102 74.1433 52.8198 74.1433C54.2345 74.1433 55.5868 73.7503 56.8595 72.9668L75.3935 61.5543C77.0829 60.5142 77.619 57.8925 76.5179 56.0542C75.9833 55.1618 73.7894 52.5116 67.9968 55.885ZM35.179 74.2223C35.1359 74.3771 35.0367 74.5053 34.8992 74.583L32.0336 76.2048C31.7521 76.3644 31.3792 76.2612 31.2193 75.9791L22.7951 61.0939C22.7172 60.9565 22.6982 60.7955 22.741 60.6405C22.784 60.4857 22.8833 60.3574 23.0208 60.2797L25.8863 58.658C25.9758 58.6073 26.0752 58.5816 26.1765 58.5816C26.2308 58.5816 26.2856 58.589 26.3396 58.604C26.4945 58.647 26.6227 58.7463 26.7005 58.8837L35.1249 73.7691C35.2026 73.9064 35.2219 74.0674 35.179 74.2223ZM74.4431 60.011L55.9092 71.4234C54.4395 72.3283 52.8266 72.5545 51.1155 72.0957L37.6723 68.4936C37.4404 68.4317 37.1929 68.4641 36.9847 68.5841L34.941 69.7641L29.887 60.8341L37.5007 56.426C39.2037 55.4398 41.0465 54.6137 42.9788 55.2406C43.5996 55.4419 44.3152 55.7007 45.1436 56.0002C47.5187 56.8588 50.4703 57.9259 53.5329 58.4858C54.6001 58.8587 55.1969 59.8897 54.9246 60.9062C54.5661 62.2435 53.4515 62.4096 52.5656 62.3079C51.0612 61.9985 49.6316 61.5906 48.1191 61.1587C47.4019 60.9537 46.6601 60.742 45.8979 60.5378C45.4148 60.4085 44.9175 60.6952 44.7879 61.1786C44.6583 61.662 44.9454 62.1589 45.4288 62.2885C46.1768 62.4889 46.9112 62.6987 47.6213 62.9015C49.1802 63.3467 50.6526 63.7672 52.2382 64.0913C52.2442 64.0925 52.2502 64.093 52.2563 64.094C52.2625 64.095 52.2681 64.0968 52.2742 64.0979L53.5442 64.3044C55.4433 64.6083 57.1289 64.3124 58.6961 63.3996L68.909 57.4511C71.8487 55.7388 74.112 55.5647 74.9629 56.9854C75.5492 57.9646 75.287 59.4915 74.4431 60.011ZM26.7176 61.5328C26.7994 62.0919 26.4125 62.6114 25.8533 62.6932C25.2943 62.7748 24.7748 62.3879 24.693 61.8288C24.6113 61.2698 24.9981 60.7503 25.5573 60.6685C26.1165 60.5867 26.636 60.9737 26.7176 61.5328ZM77.0937 28.0204V26.2952C77.0937 24.4998 75.6329 23.0391 73.8377 23.0391H59.0682C57.2728 23.0391 55.8121 24.4998 55.8121 26.2952V28.0204C55.8121 28.9433 56.1987 29.7771 56.8177 30.3703C56.1987 30.9633 55.8121 31.7972 55.8121 32.7201V34.4452C55.8121 34.5744 55.8203 34.7033 55.8357 34.8313C51.0936 35.9028 47.5415 40.1496 47.5415 45.2109C47.5415 51.0783 52.315 55.8518 58.1824 55.8518C62.1049 55.8518 65.538 53.7181 67.3832 50.5509H73.8377C75.6331 50.5509 77.0937 49.0902 77.0937 47.2948V45.5696C77.0937 44.6467 76.7071 43.8128 76.0881 43.2198C76.7071 42.6268 77.0937 41.7929 77.0937 40.87V39.1448C77.0937 38.2219 76.7071 37.3882 76.0881 36.795C76.7071 36.202 77.0937 35.3681 77.0937 34.4452V32.7201C77.0937 31.7972 76.7071 30.9634 76.0881 30.3703C76.7071 29.7771 77.0937 28.9433 77.0937 28.0204ZM58.1824 54.0392C53.3144 54.0392 49.354 50.0788 49.354 45.2108C49.354 40.3428 53.3144 36.3825 58.1824 36.3825C63.0505 36.3825 67.0108 40.3428 67.0108 45.2108C67.0108 50.0788 63.0503 54.0392 58.1824 54.0392ZM75.2812 45.5696V47.2947C75.2812 48.0906 74.6336 48.7383 73.8377 48.7383H68.2214C68.6106 47.6338 68.8232 46.4468 68.8232 45.2108C68.8232 44.8447 68.8046 44.4827 68.7682 44.1259H73.8375C74.6336 44.1259 75.2812 44.7735 75.2812 45.5696ZM75.2812 39.1447V40.8699C75.2812 41.6658 74.6336 42.3134 73.8377 42.3134H68.4221C67.9218 40.5474 66.9758 38.9667 65.7139 37.7012H73.8377C74.6336 37.7013 75.2812 38.3488 75.2812 39.1447ZM75.2812 32.72V34.4451C75.2812 35.2412 74.6336 35.8887 73.8377 35.8887H63.3085C61.7871 35.0487 60.0398 34.5698 58.1824 34.5698C57.9982 34.5698 57.8149 34.5746 57.633 34.5839C57.6286 34.538 57.6246 34.4919 57.6246 34.4451V32.72C57.6246 31.9241 58.2722 31.2764 59.0682 31.2764H73.8377C74.6336 31.2764 75.2812 31.9241 75.2812 32.72ZM59.0682 29.4639C58.2722 29.4639 57.6246 28.8163 57.6246 28.0203V26.2952C57.6246 25.4992 58.2722 24.8516 59.0682 24.8516H73.8377C74.6336 24.8516 75.2812 25.4992 75.2812 26.2952V28.0204C75.2812 28.8164 74.6336 29.464 73.8377 29.464L59.0682 29.4639ZM62.1878 47.3803C62.2887 48.2116 62.0646 48.9717 61.5396 49.5786C60.9857 50.219 60.1011 50.6638 59.0886 50.8297V51.3708C59.0886 51.8713 58.6828 52.2771 58.1823 52.2771C57.6818 52.2771 57.2761 51.8713 57.2761 51.3708V50.8152C55.729 50.5202 54.5393 49.4896 54.1801 48.0485C54.0591 47.5629 54.3546 47.0711 54.8403 46.95C55.3263 46.8291 55.8177 47.1246 55.9388 47.6102C56.2194 48.7357 57.3797 49.1075 58.2877 49.088C59.0815 49.0691 59.8198 48.7962 60.1686 48.3929C60.3578 48.1741 60.4275 47.9219 60.3883 47.5987C60.3223 47.0554 59.9962 46.3904 58.0442 46.07C55.1992 45.6028 54.5349 44.1236 54.4787 42.965C54.4008 41.3621 55.512 40.0212 57.2437 39.6283C57.2544 39.6259 57.2651 39.6236 57.2758 39.6212V39.0507C57.2758 38.5502 57.6816 38.1444 58.1821 38.1444C58.6826 38.1444 59.0883 38.5502 59.0883 39.0507V39.6131C60.227 39.8483 61.3186 40.5571 61.8835 41.9027C62.0774 42.3642 61.8603 42.8953 61.3989 43.0891C60.9376 43.2828 60.4064 43.0659 60.2124 42.6043C59.738 41.4747 58.5812 41.1837 57.6446 41.3958C56.962 41.5507 56.2475 42.0211 56.2889 42.877C56.3032 43.1714 56.3413 43.9535 58.3377 44.2813C60.6897 44.6675 61.9849 45.71 62.1878 47.3803ZM39.0809 30.5157H40.8264V41.7239C40.8264 42.2244 41.2321 42.6301 41.7326 42.6301H45.4021C45.9026 42.6301 46.3084 42.2244 46.3084 41.7239V30.5157H48.0538C48.3872 30.5157 48.6938 30.3326 48.8519 30.0389C49.0099 29.7453 48.9938 29.3886 48.8102 29.1103L44.3238 22.3133C44.156 22.0592 43.8718 21.9062 43.5674 21.9062C43.2631 21.9062 42.9788 22.0592 42.8111 22.3133L38.3247 29.1103C38.141 29.3886 38.125 29.7453 38.283 30.0389C38.441 30.3327 38.7475 30.5157 39.0809 30.5157ZM43.5674 24.4576L46.3698 28.7032H45.4021C44.9017 28.7032 44.4959 29.109 44.4959 29.6095V40.8176H42.6389V29.6095C42.6389 29.109 42.2331 28.7032 41.7326 28.7032H40.765L43.5674 24.4576Z" fill="white"/>
</g>
<defs>
<clipPath id="clip0_1_687">
<rect width="58" height="58" fill="white" transform="translate(20 21)"/>
</clipPath>
</defs>
</svg>
