<svg width="98" height="99" viewBox="0 0 98 99" fill="none" xmlns="http://www.w3.org/2000/svg">
<rect y="0.649414" width="98" height="98" rx="5" fill="#0085FF"/>
<g clip-path="url(#clip0_1_631)">
<path d="M71.7302 56.8837C72.4612 54.6273 72.8324 52.2741 72.8324 49.8761C72.8324 47.487 72.4638 45.1422 71.7372 42.893C73.3351 42.2929 74.7879 41.3322 75.9941 40.0547C78.0788 37.848 79.1789 34.961 79.0921 31.9268C78.9125 25.6622 73.6705 20.7128 67.4051 20.8916C64.3704 20.9783 61.5516 22.2417 59.467 24.4489C58.4143 25.5636 57.6133 26.8517 57.089 28.2447C54.8393 27.5185 52.4944 27.1499 50.1045 27.1499C47.7132 27.1499 45.3666 27.5194 43.1155 28.2465C41.492 23.9502 37.3369 20.8867 32.479 20.8867C26.2118 20.8867 21.1133 25.9853 21.1133 32.252C21.1133 37.1094 24.1772 41.2641 28.4735 42.8872C27.746 45.1387 27.3769 47.4853 27.3769 49.8761C27.3769 52.2741 27.7482 54.6273 28.4792 56.8837C24.1798 58.5054 21.1133 62.6619 21.1133 67.5215C21.1133 69.2322 21.4841 70.877 22.2156 72.4098C22.4178 72.8333 22.9249 73.013 23.3484 72.8107C23.7714 72.6085 23.9511 72.1014 23.7493 71.6779C23.1276 70.3752 22.8125 68.9769 22.8125 67.5215C22.8125 62.1919 27.1491 57.8558 32.479 57.8558C37.8095 57.8558 42.146 62.1919 42.146 67.5215C42.146 72.8515 37.8095 77.1876 32.479 77.1876C30.0479 77.1876 27.7243 76.2818 25.9366 74.637C25.591 74.3193 25.0534 74.3418 24.7361 74.687C24.4184 75.0326 24.4405 75.5698 24.7861 75.8875C26.8884 77.8217 29.6204 78.8868 32.479 78.8868C37.3439 78.8868 41.5044 75.814 43.1226 71.508C45.371 72.2337 47.7154 72.6023 50.1045 72.6023C52.494 72.6023 54.8388 72.2337 57.0872 71.5085C58.7055 75.8145 62.8659 78.8868 67.7308 78.8868C73.998 78.8868 79.0965 73.7882 79.0965 67.5215C79.0965 62.6619 76.03 58.505 71.7302 56.8837ZM60.7025 25.6153C62.4752 23.7382 64.8731 22.6638 67.4542 22.5899C67.548 22.5873 67.641 22.5859 67.7348 22.5859C72.9378 22.5859 77.2438 26.7415 77.3933 31.975C77.4672 34.5557 76.5318 37.0107 74.7591 38.8883C72.9864 40.7654 70.5885 41.8398 68.0074 41.9137C67.9135 41.9163 67.8202 41.9177 67.7268 41.9177C62.5238 41.9177 58.2178 37.7621 58.0682 32.5286C57.9939 29.9479 58.9298 27.4924 60.7025 25.6153ZM56.6106 69.8765C54.5171 70.5571 52.3325 70.9031 50.1045 70.9031C47.8773 70.9031 45.6927 70.5571 43.5992 69.8765C43.7598 69.1163 43.8452 68.3286 43.8452 67.5215C43.8452 61.2547 38.7462 56.1566 32.479 56.1566C31.667 56.1566 30.875 56.2429 30.1107 56.4053C29.4244 54.3043 29.0762 52.1117 29.0762 49.8761C29.0762 47.6477 29.4226 45.4621 30.1046 43.3664C30.8705 43.5302 31.6648 43.6169 32.479 43.6169C34.4261 43.6169 36.347 43.116 38.0351 42.1686C38.444 41.9389 38.5896 41.4212 38.3599 41.0119C38.1303 40.6025 37.6125 40.4574 37.2032 40.6871C35.7686 41.492 34.1349 41.9177 32.479 41.9177C27.1486 41.9177 22.8125 37.5816 22.8125 32.2516C22.8125 26.9221 27.1491 22.5859 32.479 22.5859C37.8095 22.5859 42.146 26.9221 42.146 32.252C42.146 34.4818 41.3685 36.6572 39.9569 38.3781C39.6591 38.7405 39.7122 39.2759 40.0751 39.5737C40.4375 39.8711 40.9729 39.8184 41.2707 39.4556C42.9306 37.432 43.8452 34.8734 43.8452 32.2516C43.8452 31.4378 43.7581 30.6435 43.5948 29.8775C45.69 29.1956 47.876 28.8492 50.1045 28.8492C52.3325 28.8492 54.5176 29.1952 56.612 29.8762C56.4265 30.7533 56.3434 31.6582 56.3695 32.5773C56.546 38.7312 61.6083 43.6173 67.7264 43.6169C67.8357 43.6169 67.9459 43.6156 68.056 43.612C68.7525 43.5921 69.4375 43.5094 70.1053 43.3682C70.7867 45.463 71.1332 47.6486 71.1332 49.8761C71.1332 52.1117 70.7845 54.3043 70.0986 56.4053C69.3344 56.2425 68.5423 56.1566 67.7308 56.1566C61.4636 56.1566 56.365 61.2547 56.365 67.5215C56.365 68.3291 56.45 69.1167 56.6106 69.8765ZM67.7308 77.1876C62.4004 77.1876 58.0643 72.8515 58.0643 67.5219C58.0643 62.1919 62.4004 57.8558 67.7308 57.8558C73.0612 57.8558 77.3973 62.1919 77.3973 67.5219C77.3973 72.8515 73.0612 77.1876 67.7308 77.1876Z" fill="white"/>
<path d="M38.2643 27.2366C37.9714 27.0375 37.586 27.0406 37.2966 27.245C37.0072 27.449 36.6974 27.6194 36.3717 27.7544C35.2044 26.841 33.5127 26.8517 32.3538 27.8592C31.7515 28.3832 31.375 29.1076 31.2873 29.8899C30.0408 29.7045 28.9142 29.0182 28.1752 27.9659C27.9991 27.7154 27.7017 27.5796 27.3977 27.6088C27.0928 27.6384 26.8278 27.8296 26.7034 28.1093C26.6791 28.1641 26.1074 29.4704 26.1804 31.0692C26.2361 32.2927 26.6738 33.8698 28.2699 35.0876C27.6951 35.273 27.088 35.3588 26.4831 35.3345C26.0892 35.319 25.7374 35.5752 25.6312 35.954C25.525 36.3328 25.6928 36.735 26.0366 36.9262C27.3694 37.6665 28.7974 38.0373 30.1926 38.0373C31.5329 38.0373 32.8428 37.6948 34.0083 37.0094C35.4699 36.1496 36.5319 34.8331 37.1085 33.2255C37.1267 33.1848 37.1417 33.1423 37.1536 33.0985C37.4501 32.2254 37.6054 31.2692 37.6054 30.255C37.6054 30.2107 37.6041 30.166 37.6023 30.1218C38.0873 29.5501 38.4334 28.8726 38.6121 28.1402C38.6953 27.796 38.5573 27.4358 38.2643 27.2366ZM35.8801 29.9899C35.8969 30.0784 35.9058 30.17 35.9058 30.2576C35.9058 31.0904 35.7819 31.8617 35.546 32.5587C35.5332 32.5905 35.5226 32.6237 35.5137 32.6578C35.0725 33.8924 34.2694 34.884 33.1468 35.5447C32.1193 36.1496 30.94 36.4071 29.7381 36.32C30.0134 36.1837 30.2793 36.0288 30.5338 35.8562C30.7886 35.6827 30.9302 35.3849 30.9028 35.0774C30.8754 34.7699 30.6833 34.5017 30.4015 34.3765C28.8151 33.6716 27.9668 32.5502 27.8805 31.0444C27.8628 30.736 27.8783 30.4399 27.9115 30.1687C29.0801 31.1453 30.5771 31.6781 32.1396 31.6378C32.6003 31.6259 32.9675 31.2493 32.9675 30.7886V30.2731C32.9675 30.2696 32.9675 30.2656 32.9675 30.2616C32.9618 29.8319 33.1441 29.4235 33.4689 29.1416C34.076 28.6137 34.9991 28.6779 35.527 29.285C35.6332 29.4067 35.7686 29.493 35.9164 29.5386C35.8646 29.681 35.8509 29.8364 35.8801 29.9899Z" fill="white"/>
<path d="M64.9351 32.922H66.1396V37.9883C66.1396 38.4573 66.5201 38.8379 66.9892 38.8379C67.4587 38.8379 67.8388 38.4573 67.8388 37.9883V32.922H69.1508C69.6199 32.922 70.0004 32.5415 70.0004 32.0724C70.0004 31.6034 69.6199 31.2228 69.1508 31.2228H67.8388V28.8457C67.8388 28.0297 68.503 27.3655 69.3194 27.3655H70.4195C70.8885 27.3655 71.2691 26.9849 71.2691 26.5159C71.2691 26.0464 70.8885 25.6663 70.4195 25.6663H69.3194C67.5662 25.6663 66.1396 27.0925 66.1396 28.8457V31.2228H64.9351C64.466 31.2228 64.0854 31.6034 64.0854 32.0724C64.0854 32.5415 64.466 32.922 64.9351 32.922Z" fill="white"/>
<path d="M30.5514 71.9155C30.7536 71.9155 30.9559 71.8633 31.136 71.7593L36.9191 68.4188C37.2797 68.2109 37.5036 67.8228 37.5036 67.4064C37.5036 66.9904 37.2797 66.6023 36.9191 66.3944L31.136 63.0539C30.7758 62.8455 30.328 62.8455 29.9673 63.0539C29.6067 63.2619 29.3823 63.65 29.3823 64.0664V70.7469C29.3823 71.1633 29.6067 71.5513 29.9673 71.7593C30.1474 71.8637 30.3492 71.9155 30.5514 71.9155ZM31.0815 64.985L35.2747 67.4068L31.0815 69.8287V64.985Z" fill="white"/>
<path d="M71.4226 61.5043H64.0389C62.7566 61.5043 61.7131 62.5477 61.7131 63.8305V71.2128C61.7131 72.4957 62.7566 73.5391 64.0389 73.5391H71.4226C72.705 73.5391 73.7484 72.4957 73.7484 71.2128V63.8305C73.7484 62.5477 72.705 61.5043 71.4226 61.5043ZM72.0492 71.2128C72.0492 71.5589 71.7682 71.8399 71.4226 71.8399H64.0389C63.6933 71.8399 63.4124 71.5589 63.4124 71.2128V63.8305C63.4124 63.4849 63.6933 63.2035 64.0389 63.2035H71.4226C71.7682 63.2035 72.0492 63.4849 72.0492 63.8305V71.2128Z" fill="white"/>
<path d="M67.7308 64.9536C66.3148 64.9536 65.1625 66.1059 65.1625 67.5219C65.1625 68.9379 66.3148 70.0898 67.7308 70.0898C69.1468 70.0898 70.2991 68.9379 70.2991 67.5219C70.2991 66.1059 69.1468 64.9536 67.7308 64.9536ZM67.7308 68.3906C67.2515 68.3906 66.8617 68.0007 66.8617 67.5219C66.8617 67.0427 67.2515 66.6528 67.7308 66.6528C68.21 66.6528 68.5999 67.0427 68.5999 67.5219C68.5999 68.0007 68.21 68.3906 67.7308 68.3906Z" fill="white"/>
<path d="M56.2534 41.0614C55.7839 41.0614 55.4038 41.442 55.4038 41.911V42.292C54.2064 42.9978 52.9475 43.6071 51.6531 44.1058C50.6168 44.505 49.5464 44.8369 48.4636 45.0966C48.2972 44.9687 48.0901 44.8913 47.8644 44.8913H43.9744C43.0345 44.8913 42.2703 45.6559 42.2703 46.5954V51.0572C42.2703 51.997 43.0345 52.7612 43.9744 52.7612H44.7518L45.0465 58.4262C45.07 58.8798 45.4452 59.2316 45.8944 59.2316C45.909 59.2316 45.924 59.2311 45.9391 59.2302C46.4077 59.2059 46.7679 58.8063 46.7436 58.3377L46.4533 52.7612H47.8644C48.0897 52.7612 48.2972 52.6842 48.4631 52.5564C49.1526 52.7227 49.8384 52.9183 50.5088 53.1409C50.9544 53.2883 51.435 53.0471 51.5828 52.6019C51.7306 52.1563 51.489 51.6753 51.0438 51.528C50.3239 51.289 49.5875 51.0788 48.8468 50.9005V46.7529C50.007 46.475 51.1536 46.1188 52.2638 45.6913C53.3373 45.2776 54.3887 44.793 55.4034 44.2443V53.4104C55.0299 53.2086 54.6525 53.0161 54.2723 52.8334C53.8493 52.6298 53.3418 52.8077 53.1386 53.2307C52.9351 53.6538 53.113 54.1613 53.536 54.3649C54.1688 54.6693 54.7945 55.0047 55.4034 55.3623V55.7415C55.4034 56.211 55.7839 56.5911 56.253 56.5911C56.722 56.5911 57.1026 56.211 57.1026 55.7415V41.911C57.103 41.442 56.7225 41.0614 56.2534 41.0614ZM47.148 51.0616L43.9695 51.0572L43.9744 46.5905H47.148V51.0616Z" fill="white"/>
</g>
<defs>
<clipPath id="clip0_1_631">
<rect width="58" height="58" fill="white" transform="translate(21 21)"/>
</clipPath>
</defs>
</svg>
