<svg width="98" height="99" viewBox="0 0 98 99" fill="none" xmlns="http://www.w3.org/2000/svg">
<rect y="0.649414" width="98" height="98" rx="5" fill="#076856"/>
<path d="M34.7277 40.2039L28.4995 26.4368" stroke="white" stroke-width="1.69922" stroke-miterlimit="10" stroke-linecap="round" stroke-linejoin="round"/>
<path d="M72.7088 62.7685L72.1851 65.4279C72.1093 65.8127 71.7722 66.0903 71.3804 66.0903H44.897L34.3513 39.3117H40.701" stroke="white" stroke-width="1.69922" stroke-miterlimit="10" stroke-linecap="round" stroke-linejoin="round"/>
<path d="M44.6658 39.3118H76.3298C76.8465 39.3118 77.2345 39.7843 77.1346 40.2916L73.4762 58.8709" stroke="white" stroke-width="1.69922" stroke-miterlimit="10" stroke-linecap="round" stroke-linejoin="round"/>
<path d="M74.0374 56.0225H68.5614" stroke="white" stroke-width="1.69922" stroke-miterlimit="10" stroke-linecap="round" stroke-linejoin="round"/>
<path d="M47.1773 56.0225H40.9321" stroke="white" stroke-width="1.69922" stroke-miterlimit="10" stroke-linecap="round" stroke-linejoin="round"/>
<path d="M47.1774 47.6204H37.6233" stroke="white" stroke-width="1.69922" stroke-miterlimit="10" stroke-linecap="round" stroke-linejoin="round"/>
<path d="M75.6913 47.6204H68.5614" stroke="white" stroke-width="1.69922" stroke-miterlimit="10" stroke-linecap="round" stroke-linejoin="round"/>
<path d="M51.7993 66.0898L51.6101 60.0712" stroke="white" stroke-width="1.69922" stroke-miterlimit="10" stroke-linecap="round" stroke-linejoin="round"/>
<path d="M51.1489 45.331L50.9597 39.3112" stroke="white" stroke-width="1.69922" stroke-miterlimit="10" stroke-linecap="round" stroke-linejoin="round"/>
<path d="M63.7072 39.3112L63.5181 45.331" stroke="white" stroke-width="1.69922" stroke-miterlimit="10" stroke-linecap="round" stroke-linejoin="round"/>
<path d="M63.0571 60.0712L62.8679 66.0898" stroke="white" stroke-width="1.69922" stroke-miterlimit="10" stroke-linecap="round" stroke-linejoin="round"/>
<path d="M27.2037 27.0086H22.6082C21.6369 27.0086 20.8496 26.2212 20.8496 25.25V25.2481C20.8496 24.2768 21.6369 23.4895 22.6082 23.4895H27.2037C28.1749 23.4895 28.9622 24.2768 28.9622 25.2481V25.25C28.9622 26.2212 28.1749 27.0086 27.2037 27.0086Z" stroke="white" stroke-width="1.69922" stroke-miterlimit="10" stroke-linecap="round" stroke-linejoin="round"/>
<path d="M46.919 71.3687H44.6534C43.1977 71.3687 42.0173 70.1872 42.0173 68.7292C42.0173 68.0008 42.3119 67.3415 42.7899 66.8635C43.2668 66.3854 43.925 66.0898 44.6534 66.0898H71.381" stroke="white" stroke-width="1.69922" stroke-miterlimit="10" stroke-linecap="round" stroke-linejoin="round"/>
<path d="M66.2528 71.3687H52.5469" stroke="white" stroke-width="1.69922" stroke-miterlimit="10" stroke-linecap="round" stroke-linejoin="round"/>
<path d="M49.733 76.5105C51.5773 76.5105 53.0724 75.0137 53.0724 73.1674C53.0724 71.321 51.5773 69.8242 49.733 69.8242C47.8887 69.8242 46.3936 71.321 46.3936 73.1674C46.3936 75.0137 47.8887 76.5105 49.733 76.5105Z" stroke="white" stroke-width="1.69922" stroke-miterlimit="10" stroke-linecap="round" stroke-linejoin="round"/>
<path d="M69.0668 76.5105C70.9111 76.5105 72.4063 75.0137 72.4063 73.1674C72.4063 71.321 70.9111 69.8242 69.0668 69.8242C67.2225 69.8242 65.7274 71.321 65.7274 73.1674C65.7274 75.0137 67.2225 76.5105 69.0668 76.5105Z" stroke="white" stroke-width="1.69922" stroke-miterlimit="10" stroke-linecap="round" stroke-linejoin="round"/>
<path d="M67.2724 60.071H48.4673C47.7551 60.071 47.1777 59.4937 47.1777 58.7815V46.6207C47.1777 45.9085 47.7551 45.3311 48.4673 45.3311H67.2724C67.9846 45.3311 68.5619 45.9085 68.5619 46.6207V58.7813C68.5619 59.4937 67.9846 60.071 67.2724 60.071Z" stroke="white" stroke-width="1.69922" stroke-miterlimit="10" stroke-linecap="round" stroke-linejoin="round"/>
<path d="M51.2312 56.1344L53.8068 49.3644C53.8594 49.2356 54.0416 49.2353 54.0944 49.364L56.6466 56.1344" stroke="white" stroke-width="1.69922" stroke-miterlimit="10" stroke-linecap="round" stroke-linejoin="round"/>
<path d="M52.0342 54.4482H55.8562" stroke="white" stroke-width="1.69922" stroke-miterlimit="10" stroke-linecap="round" stroke-linejoin="round"/>
<path d="M59.9354 49.3762V55.9247" stroke="white" stroke-width="1.69922" stroke-miterlimit="10" stroke-linecap="round" stroke-linejoin="round"/>
<path d="M64.5084 52.701C64.5084 54.5371 63.4905 55.9899 61.8756 56.0181C61.338 56.0275 59.9487 56.0329 59.9487 56.0329C59.9487 56.0329 59.9399 53.6192 59.9399 52.6937C59.9399 51.9335 59.9351 49.3692 59.9351 49.3692C59.9351 49.3692 61.185 49.3692 61.8203 49.3692C63.5918 49.3692 64.5084 50.865 64.5084 52.701Z" stroke="white" stroke-width="1.69922" stroke-miterlimit="10" stroke-linecap="round" stroke-linejoin="round"/>
</svg>
