<svg width="98" height="100" viewBox="0 0 98 100" fill="none" xmlns="http://www.w3.org/2000/svg">
<rect y="0.222778" width="98" height="98.8533" rx="5" fill="#FFC700"/>
<g clip-path="url(#clip0_1_668)">
<path d="M58.3966 48.5591L44.8028 40.063C44.2789 39.7356 43.6187 39.7183 43.0784 40.0177C42.5381 40.3171 42.2029 40.8862 42.2029 41.5039V58.4961C42.2029 59.1138 42.5381 59.6828 43.0784 59.9823C43.3351 60.1246 43.6188 60.1953 43.9021 60.1953C44.2151 60.1953 44.5276 60.1089 44.8027 59.937L58.3964 51.4409C58.8933 51.1304 59.1951 50.5859 59.1951 50C59.1951 49.4141 58.8934 48.8696 58.3966 48.5591ZM45.6014 55.4303V44.5696L54.2899 50L45.6014 55.4303Z" fill="white"/>
<path d="M69.5039 27.9102H28.4961C23.8113 27.9102 20 31.7215 20 36.4062V63.5938C20 68.2785 23.8113 72.0898 28.4961 72.0898H69.5039C74.1887 72.0898 78 68.2785 78 63.5938V36.4062C78 31.7215 74.1887 27.9102 69.5039 27.9102ZM74.6016 63.5938C74.6016 66.4046 72.3148 68.6914 69.5039 68.6914H28.4961C25.6852 68.6914 23.3984 66.4046 23.3984 63.5938V36.4062C23.3984 33.5954 25.6852 31.3086 28.4961 31.3086H69.5039C72.3148 31.3086 74.6016 33.5954 74.6016 36.4062V63.5938Z" fill="white"/>
</g>
<defs>
<clipPath id="clip0_1_668">
<rect width="58" height="58" fill="white" transform="translate(20 21)"/>
</clipPath>
</defs>
</svg>
