<svg width="98" height="99" viewBox="0 0 98 99" fill="none" xmlns="http://www.w3.org/2000/svg">
<rect y="0.649414" width="98" height="98" rx="5" fill="#C33DAB"/>
<path d="M72.5625 44.0312C72.3221 44.0312 72.0916 43.9358 71.9217 43.7658C71.7517 43.5959 71.6562 43.3654 71.6562 43.125V38.5938C71.6548 37.3924 71.1769 36.2407 70.3275 35.3913C69.478 34.5418 68.3263 34.0639 67.125 34.0625H30.875C29.6737 34.0639 28.522 34.5418 27.6725 35.3913C26.823 36.2407 26.3452 37.3924 26.3438 38.5938V43.125C26.3438 43.3654 26.2483 43.5959 26.0783 43.7658C25.9084 43.9358 25.6779 44.0312 25.4375 44.0312C25.1971 44.0312 24.9666 43.9358 24.7967 43.7658C24.6267 43.5959 24.5312 43.3654 24.5312 43.125V38.5938C24.5332 36.9119 25.2021 35.2994 26.3914 34.1102C27.5807 32.9209 29.1931 32.2519 30.875 32.25H67.125C68.8069 32.2519 70.4193 32.9209 71.6086 34.1102C72.7979 35.2994 73.4668 36.9119 73.4688 38.5938V43.125C73.4688 43.3654 73.3733 43.5959 73.2033 43.7658C73.0334 43.9358 72.8029 44.0312 72.5625 44.0312Z" fill="white"/>
<path d="M67.125 75.75H30.875C29.1931 75.7481 27.5807 75.0791 26.3914 73.8898C25.2021 72.7006 24.5332 71.0881 24.5312 69.4062V59.4375C24.5312 59.1971 24.6267 58.9666 24.7967 58.7967C24.9666 58.6267 25.1971 58.5312 25.4375 58.5312C25.6779 58.5312 25.9084 58.6267 26.0783 58.7967C26.2483 58.9666 26.3438 59.1971 26.3438 59.4375V69.4062C26.3452 70.6076 26.823 71.7593 27.6725 72.6087C28.522 73.4582 29.6737 73.9361 30.875 73.9375H67.125C68.3263 73.9361 69.478 73.4582 70.3275 72.6087C71.1769 71.7593 71.6548 70.6076 71.6562 69.4062V59.4375C71.6562 59.1971 71.7517 58.9666 71.9217 58.7967C72.0916 58.6267 72.3221 58.5312 72.5625 58.5312C72.8029 58.5312 73.0334 58.6267 73.2033 58.7967C73.3733 58.9666 73.4688 59.1971 73.4688 59.4375V69.4062C73.4668 71.0881 72.7979 72.7006 71.6086 73.8898C70.4193 75.0791 68.8069 75.7481 67.125 75.75Z" fill="white"/>
<path d="M68.0312 42.2188H29.9688C29.7284 42.2188 29.4979 42.1233 29.3279 41.9533C29.158 41.7834 29.0625 41.5529 29.0625 41.3125C29.0625 41.0721 29.158 40.8416 29.3279 40.6717C29.4979 40.5017 29.7284 40.4062 29.9688 40.4062H68.0312C68.2716 40.4062 68.5021 40.5017 68.6721 40.6717C68.842 40.8416 68.9375 41.0721 68.9375 41.3125C68.9375 41.5529 68.842 41.7834 68.6721 41.9533C68.5021 42.1233 68.2716 42.2188 68.0312 42.2188Z" fill="white"/>
<path d="M67.125 38.5938H63.5C63.2596 38.5938 63.0291 38.4983 62.8592 38.3283C62.6892 38.1584 62.5938 37.9279 62.5938 37.6875C62.5938 37.4471 62.6892 37.2166 62.8592 37.0467C63.0291 36.8767 63.2596 36.7812 63.5 36.7812H67.125C67.3654 36.7812 67.5959 36.8767 67.7658 37.0467C67.9358 37.2166 68.0312 37.4471 68.0312 37.6875C68.0312 37.9279 67.9358 38.1584 67.7658 38.3283C67.5959 38.4983 67.3654 38.5938 67.125 38.5938Z" fill="white"/>
<path d="M58.0625 38.5938H54.4375C54.1971 38.5938 53.9666 38.4983 53.7967 38.3283C53.6267 38.1584 53.5312 37.9279 53.5312 37.6875C53.5312 37.4471 53.6267 37.2166 53.7967 37.0467C53.9666 36.8767 54.1971 36.7812 54.4375 36.7812H58.0625C58.3029 36.7812 58.5334 36.8767 58.7033 37.0467C58.8733 37.2166 58.9688 37.4471 58.9688 37.6875C58.9688 37.9279 58.8733 38.1584 58.7033 38.3283C58.5334 38.4983 58.3029 38.5938 58.0625 38.5938Z" fill="white"/>
<path d="M32.6875 38.5938C33.188 38.5938 33.5938 38.188 33.5938 37.6875C33.5938 37.187 33.188 36.7812 32.6875 36.7812C32.187 36.7812 31.7812 37.187 31.7812 37.6875C31.7812 38.188 32.187 38.5938 32.6875 38.5938Z" fill="white"/>
<path d="M37.2188 38.5938C37.7193 38.5938 38.125 38.188 38.125 37.6875C38.125 37.187 37.7193 36.7812 37.2188 36.7812C36.7182 36.7812 36.3125 37.187 36.3125 37.6875C36.3125 38.188 36.7182 38.5938 37.2188 38.5938Z" fill="white"/>
<path d="M41.75 38.5938C42.2505 38.5938 42.6562 38.188 42.6562 37.6875C42.6562 37.187 42.2505 36.7812 41.75 36.7812C41.2495 36.7812 40.8438 37.187 40.8438 37.6875C40.8438 38.188 41.2495 38.5938 41.75 38.5938Z" fill="white"/>
<path d="M75.2812 57.625H22.7188C22.4784 57.625 22.2479 57.5295 22.0779 57.3596C21.908 57.1896 21.8125 56.9591 21.8125 56.7188V45.8438C21.8125 45.6034 21.908 45.3729 22.0779 45.2029C22.2479 45.033 22.4784 44.9375 22.7188 44.9375H75.2812C75.5216 44.9375 75.7521 45.033 75.9221 45.2029C76.092 45.3729 76.1875 45.6034 76.1875 45.8438V56.7188C76.1875 56.9591 76.092 57.1896 75.9221 57.3596C75.7521 57.5295 75.5216 57.625 75.2812 57.625ZM23.625 55.8125H74.375V46.75H23.625V55.8125Z" fill="white"/>
<path d="M63.5 53.0938C62.9623 53.0938 62.4366 52.9343 61.9895 52.6356C61.5424 52.3368 61.194 51.9122 60.9882 51.4154C60.7824 50.9186 60.7286 50.372 60.8335 49.8446C60.9384 49.3172 61.1973 48.8328 61.5776 48.4526C61.9578 48.0723 62.4422 47.8134 62.9696 47.7085C63.497 47.6036 64.0436 47.6574 64.5404 47.8632C65.0372 48.069 65.4618 48.4174 65.7606 48.8645C66.0593 49.3116 66.2188 49.8373 66.2188 50.375C66.2188 51.0961 65.9323 51.7876 65.4224 52.2974C64.9126 52.8073 64.2211 53.0938 63.5 53.0938ZM63.5 49.4688C63.3208 49.4688 63.1455 49.5219 62.9965 49.6215C62.8475 49.7211 62.7313 49.8626 62.6627 50.0282C62.5941 50.1938 62.5762 50.376 62.6112 50.5518C62.6461 50.7276 62.7324 50.8891 62.8592 51.0158C62.9859 51.1426 63.1474 51.2289 63.3232 51.2638C63.499 51.2988 63.6812 51.2809 63.8468 51.2123C64.0124 51.1437 64.1539 51.0275 64.2535 50.8785C64.3531 50.7295 64.4063 50.5542 64.4063 50.375C64.4063 50.1346 64.3108 49.9041 64.1408 49.7342C63.9709 49.5642 63.7404 49.4688 63.5 49.4688Z" fill="white"/>
<path d="M67.1251 54.9063C66.8848 54.9063 66.6543 54.8108 66.4844 54.6408L64.6719 52.8283C64.5068 52.6574 64.4154 52.4285 64.4175 52.1909C64.4196 51.9532 64.5149 51.7259 64.6829 51.5579C64.8509 51.3899 65.0782 51.2946 65.3159 51.2925C65.5535 51.2904 65.7824 51.3818 65.9533 51.5469L67.7658 53.3594C67.8925 53.4861 67.9788 53.6476 68.0137 53.8233C68.0487 53.9991 68.0308 54.1813 67.9622 54.3469C67.8936 54.5124 67.7775 54.654 67.6285 54.7536C67.4795 54.8531 67.3043 54.9063 67.1251 54.9063Z" fill="white"/>
<path d="M56.25 54.9062H29.9688C29.7284 54.9062 29.4979 54.8108 29.3279 54.6408C29.158 54.4709 29.0625 54.2404 29.0625 54V48.5625C29.0625 48.3221 29.158 48.0916 29.3279 47.9217C29.4979 47.7517 29.7284 47.6562 29.9688 47.6562H56.25C56.4904 47.6562 56.7209 47.7517 56.8908 47.9217C57.0608 48.0916 57.1562 48.3221 57.1562 48.5625V54C57.1562 54.2404 57.0608 54.4709 56.8908 54.6408C56.7209 54.8108 56.4904 54.9062 56.25 54.9062ZM30.875 53.0938H55.3438V49.4688H30.875V53.0938Z" fill="white"/>
<path d="M45.1647 62.1562H32.6875C32.4471 62.1562 32.2166 62.0608 32.0467 61.8908C31.8767 61.7209 31.7812 61.4904 31.7812 61.25C31.7812 61.0096 31.8767 60.7791 32.0467 60.6092C32.2166 60.4392 32.4471 60.3438 32.6875 60.3438H45.1647C45.4051 60.3438 45.6356 60.4392 45.8056 60.6092C45.9755 60.7791 46.071 61.0096 46.071 61.25C46.071 61.4904 45.9755 61.7209 45.8056 61.8908C45.6356 62.0608 45.4051 62.1562 45.1647 62.1562Z" fill="white"/>
<path d="M66.2188 65.7812H32.6875C32.4471 65.7812 32.2166 65.6858 32.0467 65.5158C31.8767 65.3459 31.7812 65.1154 31.7812 64.875C31.7812 64.6346 31.8767 64.4041 32.0467 64.2342C32.2166 64.0642 32.4471 63.9688 32.6875 63.9688H66.2188C66.4591 63.9688 66.6896 64.0642 66.8596 64.2342C67.0295 64.4041 67.125 64.6346 67.125 64.875C67.125 65.1154 67.0295 65.3459 66.8596 65.5158C66.6896 65.6858 66.4591 65.7812 66.2188 65.7812Z" fill="white"/>
<path d="M66.2188 69.4062H32.6875C32.4471 69.4062 32.2166 69.3108 32.0467 69.1408C31.8767 68.9709 31.7812 68.7404 31.7812 68.5C31.7812 68.2596 31.8767 68.0291 32.0467 67.8592C32.2166 67.6892 32.4471 67.5938 32.6875 67.5938H66.2188C66.4591 67.5938 66.6896 67.6892 66.8596 67.8592C67.0295 68.0291 67.125 68.2596 67.125 68.5C67.125 68.7404 67.0295 68.9709 66.8596 69.1408C66.6896 69.3108 66.4591 69.4062 66.2188 69.4062Z" fill="white"/>
</svg>
