<svg width="11" height="7" viewBox="0 0 11 7" fill="none" xmlns="http://www.w3.org/2000/svg">
<path fill-rule="evenodd" clip-rule="evenodd" d="M8.41465 1.09943C8.286 0.961771 8.07011 0.954465 7.93244 1.08312C7.79478 1.21177 7.78747 1.42766 7.91612 1.56532L9.86561 3.65137H1.33335C1.14493 3.65137 0.992188 3.80411 0.992188 3.99254C0.992188 4.18096 1.14493 4.3337 1.33335 4.3337H9.86479L7.91612 6.41887C7.78747 6.55654 7.79478 6.77243 7.93244 6.90108C8.07011 7.02973 8.286 7.02243 8.41465 6.88476L10.8711 4.25629C10.9472 4.19372 10.9958 4.0988 10.9958 3.99254C10.9958 3.88799 10.9488 3.79444 10.8747 3.73185L8.41465 1.09943Z" fill="black"/>
</svg>
