<svg width="15" height="15" viewBox="0 0 15 15" fill="none" xmlns="http://www.w3.org/2000/svg">
<path d="M7.998 15C7.79938 15.0012 7.60491 14.9432 7.43939 14.8334C7.27387 14.7236 7.1448 14.5669 7.06863 14.3835C6.99247 14.2001 6.97265 13.9981 7.01172 13.8033C7.05079 13.6086 7.14697 13.4299 7.288 13.29L12.588 8.00002L7.288 2.71003C7.12418 2.51873 7.03857 2.27265 7.04829 2.02097C7.05801 1.7693 7.16235 1.53056 7.34044 1.35246C7.51853 1.17437 7.75727 1.07004 8.00895 1.06032C8.26063 1.05059 8.5067 1.1362 8.698 1.30003L14.698 7.30002C14.8843 7.48739 14.9888 7.74084 14.9888 8.00502C14.9888 8.26921 14.8843 8.52266 14.698 8.71002L8.698 14.71C8.51174 14.8948 8.26034 14.9989 7.998 15Z" fill="#FFC700"/>
<path d="M1.998 15.0002C1.79938 15.0013 1.60491 14.9433 1.43939 14.8335C1.27387 14.7237 1.1448 14.5671 1.06863 14.3837C0.992466 14.2002 0.972654 13.9983 1.01172 13.8035C1.05079 13.6088 1.14697 13.4301 1.288 13.2902L6.58801 8.00018L1.288 2.71019C1.0997 2.52188 0.993912 2.26649 0.993912 2.00019C0.993912 1.73388 1.0997 1.47849 1.288 1.29019C1.47631 1.10188 1.7317 0.996094 1.998 0.996094C2.26431 0.996094 2.5197 1.10188 2.70801 1.29019L8.70801 7.29018C8.89426 7.47755 8.9988 7.731 8.9988 7.99518C8.9988 8.25937 8.89426 8.51282 8.70801 8.70018L2.70801 14.7002C2.61539 14.7947 2.50495 14.8698 2.38307 14.9213C2.26119 14.9728 2.13031 14.9996 1.998 15.0002Z" fill="#FFC700"/>
</svg>
