<svg width="69" height="54" viewBox="0 0 69 54" fill="none" xmlns="http://www.w3.org/2000/svg">
<path d="M56.9043 26.5898C56.9043 28.5071 58.4569 30.0669 60.3655 30.0669C60.9527 30.0669 61.5059 29.9188 61.9908 29.6586L62.9179 30.5901C63.1152 30.7883 63.374 30.8875 63.6326 30.8875C63.8912 30.8875 64.15 30.7884 64.3473 30.5901C64.742 30.1935 64.742 29.5506 64.3473 29.1542L63.4201 28.2227C63.6791 27.7356 63.8265 27.1798 63.8265 26.5899C63.8265 24.6726 62.2739 23.1128 60.3653 23.1128C58.4568 23.1128 56.9043 24.6726 56.9043 26.5898V26.5898ZM61.8052 26.5898C61.8052 26.9683 61.6586 27.3124 61.4207 27.5704C61.4068 27.5829 61.3925 27.5948 61.3792 27.6082C61.3658 27.6216 61.3541 27.6359 61.3416 27.65C61.0847 27.8888 60.7423 28.0363 60.3655 28.0363C59.5716 28.0363 58.9258 27.3875 58.9258 26.5899C58.9258 25.7924 59.5716 25.1436 60.3655 25.1436C61.1594 25.1436 61.8052 25.7924 61.8052 26.5898V26.5898Z" fill="#0053FF"/>
<path d="M67.9893 18.7359H65.2225C64.6643 18.7359 64.2118 19.1905 64.2118 19.7513C64.2118 20.3121 64.6643 20.7667 65.2225 20.7667H66.9785V33.2331H59.3318C59.3287 33.2331 59.3256 33.2331 59.3225 33.2331H54.5693V20.7667H59.3416C59.3427 20.7667 59.3438 20.767 59.3448 20.767C59.3461 20.767 59.3474 20.7667 59.3486 20.7667H60.5057C61.0639 20.7667 61.5165 20.3121 61.5165 19.7513C61.5165 19.1905 61.0639 18.7359 60.5057 18.7359H60.0917C58.4298 13.5495 55.166 8.89287 50.8382 5.55965C46.1613 1.95754 40.5676 0.0355917 34.6617 0.00120344C34.5469 -0.0015043 34.6621 0.00120344 34.3384 0.00120344C29.5208 0.0301762 24.8028 1.35399 20.6937 3.82954C20.215 4.11791 20.0596 4.74164 20.3466 5.22267C20.6337 5.70356 21.2544 5.8598 21.7334 5.57129C23.6224 4.43323 25.651 3.55903 27.761 2.96387C25.7334 4.87757 23.9788 7.65016 22.6406 11.0775H15.3567C16.1859 10.0736 17.0934 9.12885 18.0795 8.25709C18.4986 7.88654 18.5393 7.24494 18.1706 6.82402C17.8019 6.40311 17.1631 6.36195 16.7441 6.7325C13.0847 9.96771 10.3871 14.1053 8.9076 18.7359H1.01074C0.452543 18.7359 0 19.1905 0 19.7513V34.2485C0 34.8093 0.452543 35.2639 1.01074 35.2639H8.90828C10.5702 40.4503 13.834 45.107 18.1618 48.4402C22.8387 52.0423 28.4323 53.9642 34.3384 53.9986C34.3908 53.999 34.417 54.0015 34.6617 53.9986C40.5677 53.9642 46.1614 52.0423 50.8383 48.4402C55.1662 45.107 58.4299 40.4503 60.0919 35.2639H67.9893C68.5475 35.2639 69 34.8093 69 34.2485V19.7513C69 19.1905 68.5475 18.7359 67.9893 18.7359ZM53.5586 18.7359H48.4357C48.0939 16.7353 47.6367 14.8521 47.0789 13.1081H55.1419C56.3028 14.8355 57.2557 16.7222 57.9596 18.7359H53.5586ZM22.617 18.7359C22.9786 16.7232 23.4661 14.8364 24.0588 13.1081H33.4893V18.7359H22.617ZM35.5107 13.1083H44.9414C45.5339 14.8365 46.0214 16.7234 46.383 18.736H35.5107V13.1083ZM35.5107 2.11432C38.9031 2.67063 42.0203 6.00493 44.1663 11.0775H35.5107V2.11432ZM53.6215 11.0775H46.3596C45.0269 7.66356 43.2815 4.89977 41.2651 2.98676C46.1047 4.3784 50.4204 7.22477 53.6215 11.0775ZM33.4893 2.1154V11.0775H24.8339C26.979 6.00859 30.0948 2.67536 33.4893 2.1154ZM13.8451 13.1083H21.9212C21.3633 14.8521 20.9062 16.7354 20.5643 18.736H11.0427C11.7381 16.7418 12.68 14.8529 13.8451 13.1083ZM12.11 33.2333H2.02148V20.7668H52.5478V33.2333H16.8268C16.2686 33.2333 15.8161 33.6879 15.8161 34.2487C15.8161 34.8094 16.2686 35.2641 16.8268 35.2641H20.5643C20.9061 37.2647 21.3633 39.1479 21.9211 40.8918H13.8581C12.6972 39.1644 11.7443 37.2778 11.0404 35.2641H12.1099C12.6681 35.2641 13.1206 34.8094 13.1206 34.2487C13.1206 33.6879 12.6682 33.2333 12.11 33.2333V33.2333ZM33.4893 42.9225V51.8857C30.0969 51.3294 26.9797 47.995 24.8337 42.9225H33.4893ZM24.0586 40.8917C23.4661 39.1635 22.9786 37.2766 22.617 35.2639H33.4893V40.8917H24.0586ZM35.5107 51.8846V42.9225H44.1661C42.021 47.9914 38.9052 51.3246 35.5107 51.8846ZM35.5107 40.8917V35.2641H46.383C46.0214 37.2767 45.5339 39.1636 44.9412 40.8918H35.5107V40.8917ZM15.3785 42.9225H22.6404C23.9731 46.3364 25.7185 49.1002 27.7349 51.0132C22.8953 49.6216 18.5796 46.7752 15.3785 42.9225V42.9225ZM41.2617 51.0142C43.2797 49.1012 45.0261 46.337 46.3594 42.9225H53.6215C50.4197 46.7762 46.1028 49.6228 41.2617 51.0142ZM55.1418 40.8917H47.0788C47.6367 39.1479 48.0938 37.2645 48.4357 35.2639H53.5586H57.9596C57.2556 37.2778 56.3027 39.1643 55.1418 40.8917Z" fill="#0053FF"/>
</svg>
