<svg width="54" height="54" viewBox="0 0 54 54" fill="none" xmlns="http://www.w3.org/2000/svg">
<path d="M50.4808 5.39102H32.4519V3.59401C32.4519 1.6173 30.8293 0 28.8462 0H3.60577C1.6226 0 0 1.6173 0 3.59401V23.3611C0 33.2446 9.46515 33.2446 12.6202 33.2446C13.1611 33.2446 13.5216 32.8852 13.5216 32.3461C13.5216 31.807 13.1611 31.4476 12.6202 31.4476C10.637 31.4476 9.01443 29.8303 9.01443 27.8536C9.01443 27.7637 9.01443 27.584 9.01443 27.4942C9.28486 25.6073 10.9075 24.2596 12.8005 24.2596H25.2404V26.0566H17.1274C16.5865 26.0566 16.226 26.416 16.226 26.9551C16.226 29.0216 17.0373 30.9983 18.3894 32.4359C18.119 33.3344 18.0289 34.1431 18.0289 35.0416C18.0289 38.6356 20.1923 41.8702 23.4375 43.3078C23.4375 43.8469 23.1671 44.9251 20.7332 44.9251C18.2091 44.9251 16.226 46.9018 16.226 49.4176V53.9102H18.0289V49.4176C18.0289 47.98 19.1106 46.812 20.5529 46.7221L24.97 48.8785C25.3305 49.0582 25.7813 49.2379 26.1418 49.3278V53.9102H27.9447V49.3278C28.3954 49.2379 28.756 49.1481 29.1166 48.9684L33.5337 46.812C34.976 46.9018 36.0577 48.0699 36.0577 49.5075V54H37.8606V49.5075C37.8606 46.9917 35.8774 45.015 33.3534 45.015C30.9195 45.015 30.649 43.9368 30.649 43.3977C34.0745 41.9601 36.1479 38.5458 36.0577 34.8619C36.0577 34.6822 36.0577 34.3228 36.0577 34.2329C36.0577 32.975 35.7873 31.7171 35.1563 30.6389H41.1959C43.089 30.6389 44.7116 31.9867 44.982 33.8735C45.1623 35.8503 43.72 37.6473 41.7368 37.827C41.6466 37.827 41.4664 37.827 41.3762 37.827C40.8354 37.827 40.4748 38.1864 40.4748 38.7255C40.4748 39.2646 40.8354 39.624 41.3762 39.624C44.5313 39.624 53.9964 39.624 53.9964 29.7404V8.98503C54.0866 7.00832 52.464 5.39102 50.4808 5.39102ZM12.8005 22.4626C10.006 22.4626 7.57212 24.5291 7.21154 27.3145C7.1214 28.6622 7.48197 30.01 8.29327 31.0882C3.8762 30.1897 1.80289 27.7637 1.80289 23.3611V3.59401C1.80289 2.60566 2.61418 1.79701 3.60577 1.79701H28.8462C29.8378 1.79701 30.649 2.60566 30.649 3.59401V20.6656C30.649 21.6539 29.8378 22.4626 28.8462 22.4626H12.8005ZM18.119 27.8536H27.9447C31.0998 27.8536 33.714 30.1897 34.1647 33.2446H24.339C21.1839 33.2446 18.5697 30.9085 18.119 27.8536ZM29.4772 41.7804C29.1166 41.8702 28.8462 42.2296 28.8462 42.589V43.1281C28.756 44.386 29.4772 45.6439 30.649 46.183L28.3053 47.3511C27.494 47.7105 26.5024 47.7105 25.6911 47.3511L23.4375 46.183C24.6094 45.6439 25.3305 44.386 25.2404 43.1281V42.6789C25.2404 42.3195 24.97 41.9601 24.6094 41.8702C21.7248 40.792 19.8317 38.0965 19.8317 35.0416C19.8317 34.5923 19.8317 34.1431 19.9219 33.7837C21.1839 34.5923 22.7164 35.0416 24.339 35.0416H34.2548C34.2548 38.0965 32.3618 40.792 29.4772 41.7804ZM52.2837 29.6506C52.2837 34.0532 50.2104 36.4792 45.7933 37.3777C46.6046 36.2995 46.9652 34.9517 46.875 33.604C46.5144 30.8186 44.1707 28.7521 41.2861 28.7521H33.9844C32.4519 27.0449 30.2885 26.0566 27.9447 26.0566H27.0433V24.2596H28.8462C30.8293 24.2596 32.4519 22.6423 32.4519 20.6656V7.18802H50.4808C51.4724 7.18802 52.2837 7.99667 52.2837 8.98503V29.6506Z" fill="#00E3BA"/>
<path d="M20.7336 9.88424H19.8321C19.2912 9.88424 18.9307 9.52484 18.9307 8.98574V6.29023C18.9307 4.76278 17.7588 3.59473 16.2263 3.59473C14.6939 3.59473 13.522 4.76278 13.522 6.29023V8.98574C13.522 9.52484 13.1614 9.88424 12.6206 9.88424C12.6206 9.34514 12.26 8.98574 11.7191 8.98574H8.11336C7.57249 8.98574 7.21191 9.34514 7.21191 9.88424V19.7678C7.21191 20.3069 7.57249 20.6663 8.11336 20.6663H11.7191C12.26 20.6663 12.6206 20.3069 12.6206 19.7678H20.7336C22.266 19.7678 23.4379 18.5997 23.4379 17.0723V12.5798C23.4379 11.0523 22.266 9.88424 20.7336 9.88424ZM10.8177 18.8693H9.0148V10.7827H10.8177V18.8693ZM21.635 17.0723C21.635 17.6114 21.2744 17.9708 20.7336 17.9708H12.6206V11.6812C14.153 11.6812 15.3249 10.5132 15.3249 8.98574V6.29023C15.3249 5.75113 15.6855 5.39173 16.2263 5.39173C16.7672 5.39173 17.1278 5.75113 17.1278 6.29023V8.98574C17.1278 10.5132 18.2997 11.6812 19.8321 11.6812H20.7336C21.2744 11.6812 21.635 12.0407 21.635 12.5798V17.0723Z" fill="#00E3BA"/>
<path d="M49.5794 8.98438H45.9736C45.4328 8.98438 45.0722 9.34378 45.0722 9.88288H36.9592C35.4268 9.88288 34.2549 11.0509 34.2549 12.5784V17.0709C34.2549 18.5984 35.4268 19.7664 36.9592 19.7664H37.8607C38.4015 19.7664 38.7621 20.1258 38.7621 20.6649V23.3604C38.7621 24.8879 39.934 26.0559 41.4664 26.0559C42.9989 26.0559 44.1708 24.8879 44.1708 23.3604V20.6649C44.1708 20.1258 44.5313 19.7664 45.0722 19.7664C45.0722 20.3055 45.4328 20.6649 45.9736 20.6649H49.5794C50.1203 20.6649 50.4809 20.3055 50.4809 19.7664V9.88288C50.4809 9.34378 50.1203 8.98438 49.5794 8.98438ZM45.0722 17.9694C43.5397 17.9694 42.3679 19.1375 42.3679 20.6649V23.3604C42.3679 23.8995 42.0073 24.2589 41.4664 24.2589C40.9256 24.2589 40.565 23.8995 40.565 23.3604V20.6649C40.565 19.1375 39.3931 17.9694 37.8607 17.9694H36.9592C36.4183 17.9694 36.0578 17.61 36.0578 17.0709V12.5784C36.0578 12.0393 36.4183 11.6799 36.9592 11.6799H45.0722V17.9694ZM48.678 18.8679H46.8751V10.7814H48.678V18.8679Z" fill="#00E3BA"/>
<path d="M36.9593 23.3604H33.3535V25.1574H36.9593V23.3604Z" fill="#00E3BA"/>
<path d="M24.3391 4.49323V3.59473H22.5362V4.49323H21.6348V6.29023H22.5362V7.18874H24.3391V6.29023H25.2405V4.49323H24.3391Z" fill="#00E3BA"/>
</svg>
