<svg width="54" height="54" viewBox="0 0 54 54" fill="none" xmlns="http://www.w3.org/2000/svg">
<path d="M51.32 29.6482L43.5484 26.4078V24.0814C44.6181 23.4671 45.5445 22.6314 46.2655 21.6302C46.9864 20.629 47.4854 19.4854 47.729 18.2757H47.9032C48.5962 18.2852 49.2646 18.0189 49.7613 17.5354C50.258 17.0519 50.5424 16.3907 50.5518 15.6975C50.5613 15.0042 50.2951 14.3356 49.8118 13.8387C49.3285 13.3417 48.6676 13.0573 47.9746 13.0478L48.8282 11.0681C49.5575 9.3765 49.5948 7.46623 48.932 5.74741C48.2693 4.02858 46.9593 2.63822 45.2833 1.87479L42.8516 0.768214C41.4127 0.129108 39.8305 -0.117891 38.2653 0.0522732C36.7002 0.222438 35.2079 0.803712 33.9399 1.73713L32.5846 2.76006C31.2009 3.11659 30.0124 4.00238 29.275 5.22678C28.8677 5.90314 28.6136 6.6606 28.5305 7.44582C28.4474 8.23105 28.5375 9.02494 28.7942 9.7716C27.4793 9.50848 26.1223 9.54152 24.8217 9.86832C25.194 8.28741 25.0062 6.62623 24.2902 5.1685C23.5743 3.71076 22.3747 2.54689 20.8963 1.87567L18.4645 0.768214C17.0256 0.129108 15.4434 -0.117891 13.8782 0.0522732C12.3131 0.222438 10.8208 0.803712 9.55278 1.73713L8.19755 2.76006C7.41262 2.96071 6.68256 3.33466 6.06097 3.85445C5.43937 4.37423 4.942 5.02667 4.60537 5.76388C4.26875 6.50108 4.1014 7.30434 4.11562 8.1147C4.12984 8.92506 4.32527 9.72195 4.68755 10.4469L5.98878 13.0478C5.29579 13.0621 4.63688 13.3512 4.15699 13.8516C3.67711 14.3519 3.41555 15.0225 3.42988 15.7158C3.4442 16.409 3.73322 17.0682 4.23336 17.5483C4.7335 18.0284 5.40379 18.2901 6.09678 18.2757H6.27097C6.51557 19.4848 7.01495 20.6278 7.73583 21.6286C8.45672 22.6294 9.38255 23.4649 10.4516 24.0796V26.4078L2.67997 29.6482C1.88551 29.9778 1.20671 30.5358 0.729613 31.2517C0.252511 31.9676 -0.00141776 32.809 5.9541e-06 33.6694V45.2868C5.9541e-06 45.5179 0.0917683 45.7395 0.255106 45.9029C0.418444 46.0663 0.639978 46.1581 0.870973 46.1581H6.96775V53.1287C6.96775 53.3598 7.05951 53.5814 7.22285 53.7448C7.38618 53.9082 7.60772 54 7.83871 54H46.1613C46.3923 54 46.6138 53.9082 46.7772 53.7448C46.9405 53.5814 47.0323 53.3598 47.0323 53.1287V46.1581H53.129C53.36 46.1581 53.5816 46.0663 53.7449 45.9029C53.9082 45.7395 54 45.5179 54 45.2868V33.6694C54.0014 32.809 53.7475 31.9676 53.2704 31.2517C52.7933 30.5358 52.1145 29.9778 51.32 29.6482ZM29.9378 11.9386L32.3686 13.0478C33.6295 13.6224 34.6149 14.6687 35.1134 15.962C35.6118 17.2553 35.5836 18.6925 35.0347 19.9652L34.7734 20.5621L33.8806 18.7576C33.8237 18.6426 33.7421 18.5417 33.6417 18.462C33.5413 18.3822 33.4245 18.3257 33.2998 18.2963C33.175 18.2669 33.0452 18.2654 32.9198 18.292C32.7944 18.3186 32.6764 18.3725 32.5742 18.45L31.1806 19.4956C29.9746 20.4005 28.5076 20.8897 27 20.8897C25.4924 20.8897 24.0254 20.4005 22.8194 19.4956L21.4258 18.45C21.3241 18.3729 21.2066 18.3195 21.0817 18.2934C20.9569 18.2673 20.8278 18.2693 20.7038 18.2992C20.5794 18.3284 20.463 18.3846 20.3627 18.4638C20.2625 18.543 20.1809 18.6433 20.1237 18.7576L19.1613 20.6902L18.4419 19.2516C18.1612 18.69 18.0287 18.0659 18.0568 17.4387C18.085 16.8114 18.2729 16.2018 18.6027 15.6676C18.9325 15.1334 19.3933 14.6923 19.9413 14.3863C20.4894 14.0803 21.1065 13.9195 21.7341 13.9191C22.4051 13.9185 23.0658 14.0838 23.6574 14.4005C24.2489 14.7172 24.7531 15.1753 25.1248 15.7341L25.3983 16.1453L26.8476 15.1782L26.5741 14.7678C25.8 13.6074 24.634 12.7649 23.2897 12.3943C24.2777 11.7843 25.3992 11.4241 26.5574 11.3447C27.7157 11.2653 28.8759 11.4691 29.9378 11.9386ZM35.7097 24.375H36.5806C36.8116 24.375 37.0332 24.4668 37.1965 24.6302C37.3598 24.7936 37.4516 25.0152 37.4516 25.2463C37.4516 25.4774 37.3598 25.699 37.1965 25.8624C37.0332 26.0258 36.8116 26.1176 36.5806 26.1176H35.7097V24.375ZM24.3871 34.4292C26.0879 34.9648 27.9121 34.9648 29.6129 34.4292V36.2128L27 38.8268L24.3871 36.2128V34.4292ZM27 33.0882C25.1527 33.0862 23.3816 32.3511 22.0754 31.0443C20.7691 29.7375 20.0343 27.9657 20.0323 26.1176V22.838L21.215 20.4706L21.7742 20.8897C23.2818 22.0209 25.1155 22.6323 27 22.6323C28.8845 22.6323 30.7182 22.0209 32.2258 20.8897L32.785 20.4706L33.9677 22.838V26.1176C33.9657 27.9657 33.2309 29.7375 31.9246 31.0443C30.6184 32.3511 28.8473 33.0862 27 33.0882ZM18.2903 26.1176H17.4194C17.1884 26.1176 16.9668 26.0258 16.8035 25.8624C16.6402 25.699 16.5484 25.4774 16.5484 25.2463C16.5484 25.0152 16.6402 24.7936 16.8035 24.6302C16.9668 24.4668 17.1884 24.375 17.4194 24.375H18.2903V26.1176ZM6.96775 43.579V44.4154H1.74194V33.6694C1.74162 33.1535 1.8942 32.6491 2.18038 32.22C2.46656 31.7909 2.8735 31.4563 3.34975 31.2584L11.6579 27.7958C11.817 27.7294 11.9528 27.6173 12.0481 27.4737C12.1435 27.3301 12.1941 27.1614 12.1936 26.989V23.5594C12.1889 23.3944 12.1396 23.2336 12.0508 23.0944C11.962 22.9552 11.837 22.8428 11.6893 22.7691C10.6481 22.251 9.75369 21.4794 9.08833 20.5253C8.42297 19.5711 8.00795 18.465 7.88139 17.3086C7.8578 17.0954 7.75644 16.8983 7.59669 16.7553C7.43695 16.6122 7.23007 16.5331 7.01565 16.5331H6.09678C5.86578 16.5331 5.64425 16.4413 5.48091 16.2779C5.31757 16.1145 5.22581 15.8928 5.22581 15.6618C5.22581 15.4307 5.31757 15.209 5.48091 15.0456C5.64425 14.8822 5.86578 14.7904 6.09678 14.7904H6.96775C7.08264 14.7904 7.19639 14.7677 7.30246 14.7235C7.40853 14.6794 7.50482 14.6146 7.58578 14.5331C7.66674 14.4515 7.73076 14.3547 7.77417 14.2483C7.81758 14.1419 7.83952 14.0279 7.83871 13.913L7.83262 13.0417C7.8318 12.9086 7.80052 12.7774 7.74116 12.6583L6.24571 9.66704C5.99521 9.16484 5.86272 8.61202 5.85835 8.05078C5.85399 7.48954 5.97787 6.93472 6.22053 6.42868C6.4632 5.92264 6.81824 5.47876 7.25853 5.13092C7.69883 4.78309 8.21276 4.5405 8.76107 4.42167C8.88433 4.39436 9.0004 4.3412 9.10162 4.26571L10.5997 3.13299C11.6162 2.38553 12.8122 1.92014 14.0664 1.78396C15.3206 1.64778 16.5885 1.84564 17.7416 2.35751L20.1751 3.46322C21.436 4.03784 22.4214 5.0841 22.9198 6.3774C23.4183 7.67071 23.39 9.10796 22.8411 10.3807L22.7 10.7074C22.3693 10.8906 22.0513 11.0958 21.7481 11.3217L20.3745 12.3507C19.5912 12.552 18.8629 12.9263 18.2429 13.4459C17.623 13.9655 17.1272 14.6174 16.7919 15.3538C16.4567 16.0901 16.2904 16.8921 16.3054 17.7011C16.3204 18.5101 16.5162 19.3054 16.8785 20.0288L18.1815 22.6323H17.4194C16.7264 22.6323 16.0618 22.9077 15.5718 23.398C15.0817 23.8882 14.8065 24.553 14.8065 25.2463C14.8065 25.9396 15.0817 26.6045 15.5718 27.0947C16.0618 27.5849 16.7264 27.8603 17.4194 27.8603H18.4645C18.714 29.0659 19.2154 30.2052 19.9359 31.2033C20.6564 32.2014 21.5796 33.0359 22.6452 33.652V35.9113L10.1572 39.3818C9.2412 39.6384 8.43398 40.1872 7.85828 40.9448C7.28258 41.7024 6.96989 42.6273 6.96775 43.579ZM45.2903 52.2574H40.0645V45.2868H38.3226V52.2574H15.6774V45.2868H13.9355V52.2574H8.70968V43.579C8.71095 43.0076 8.89886 42.4524 9.24478 41.9978C9.5907 41.5432 10.0757 41.2142 10.6258 41.0608L23.2627 37.5494L26.3868 40.6748C26.5502 40.8382 26.7717 40.93 27.0026 40.93C27.2336 40.93 27.4551 40.8382 27.6184 40.6748L30.7425 37.5494L43.3742 41.0608C43.9243 41.2142 44.4093 41.5432 44.7552 41.9978C45.1011 42.4524 45.289 43.0076 45.2903 43.579V52.2574ZM52.2581 44.4154H47.0323V43.579C47.0301 42.6273 46.7174 41.7024 46.1417 40.9448C45.566 40.1872 44.7588 39.6384 43.8428 39.3818L31.3548 35.9113V33.652C32.4204 33.0359 33.3436 32.2014 34.0641 31.2033C34.7846 30.2052 35.286 29.0659 35.5355 27.8603H36.5806C37.2736 27.8603 37.9382 27.5849 38.4282 27.0947C38.9183 26.6045 39.1935 25.9396 39.1935 25.2463C39.1935 24.553 38.9183 23.8882 38.4282 23.398C37.9382 22.9077 37.2736 22.6323 36.5806 22.6323H35.7811L36.6346 20.6536C37.364 18.9619 37.4012 17.0517 36.7385 15.3328C36.0757 13.614 34.7658 12.2237 33.0898 11.4602L31.0692 10.5392L30.6337 9.66792C30.383 9.16574 30.2503 8.61289 30.2458 8.05159C30.2413 7.4903 30.3651 6.93539 30.6077 6.42926C30.8503 5.92312 31.2053 5.47913 31.6456 5.13119C32.0859 4.78326 32.5998 4.54057 33.1482 4.42167C33.2714 4.39436 33.3875 4.3412 33.4887 4.26571L34.9868 3.13299C36.0033 2.38553 37.1992 1.92014 38.4534 1.78396C39.7076 1.64778 40.9756 1.84564 42.1287 2.35751L44.5622 3.46322C45.8231 4.03784 46.8085 5.0841 47.3069 6.3774C47.8054 7.67071 47.7771 9.10796 47.2282 10.3807L46.2266 12.6993C46.1791 12.8093 46.1548 12.9279 46.1552 13.0478L46.1613 13.9191C46.1613 14.1502 46.253 14.3718 46.4164 14.5352C46.5797 14.6986 46.8013 14.7904 47.0323 14.7904H47.9032C48.1342 14.7904 48.3558 14.8822 48.5191 15.0456C48.6824 15.209 48.7742 15.4307 48.7742 15.6618C48.7742 15.8928 48.6824 16.1145 48.5191 16.2779C48.3558 16.4413 48.1342 16.5331 47.9032 16.5331H46.9843C46.7699 16.5331 46.563 16.6122 46.4033 16.7553C46.2436 16.8983 46.1422 17.0954 46.1186 17.3086C45.9916 18.4694 45.5738 19.5794 44.9039 20.5358C44.234 21.4922 43.3337 22.2639 42.2864 22.7796C42.1412 22.8517 42.0191 22.9629 41.9337 23.1007C41.8483 23.2385 41.803 23.3973 41.803 23.5594V26.989C41.8029 27.1609 41.8538 27.3291 41.9491 27.4722C42.0444 27.6153 42.18 27.727 42.3386 27.7932L50.6502 31.2584C51.1265 31.4563 51.5334 31.7909 51.8196 32.22C52.1058 32.6491 52.2584 33.1535 52.2581 33.6694V44.4154Z" fill="#FF7500"/>
</svg>
