<svg width="45" height="54" viewBox="0 0 45 54" fill="none" xmlns="http://www.w3.org/2000/svg">
<path d="M31.1064 35.6433C31.1064 35.0587 30.6322 34.5845 30.0476 34.5845H8.76389C8.17928 34.5845 7.70508 35.0587 7.70508 35.6433C7.70508 36.2279 8.17928 36.7021 8.76389 36.7021H30.0476C30.6322 36.7021 31.1064 36.2279 31.1064 35.6433Z" fill="#1900FF"/>
<path d="M43.7658 44.6907H39.1969V27.6394C39.1969 27.0548 38.7227 26.5806 38.1381 26.5806C37.5535 26.5806 37.0793 27.0548 37.0793 27.6394V44.6907H15.438C14.8534 44.6907 14.3792 45.1649 14.3792 45.7495C14.3792 49.1303 11.6288 51.8811 8.24881 51.8824C4.86804 51.8811 2.11761 49.1303 2.11761 45.7495V11.314H3.31361V12.7819C3.31361 13.3665 3.78781 13.8407 4.37242 13.8407H10.2997C10.8843 13.8407 11.3585 13.3665 11.3585 12.7819V11.314H27.8384V12.7819C27.8384 13.3665 28.3126 13.8407 28.8976 13.8407H34.8245C35.4091 13.8407 35.8833 13.3665 35.8833 12.7819V11.314H37.0793V19.1689C37.0793 19.7536 37.5535 20.2278 38.1381 20.2278C38.7227 20.2278 39.1969 19.7536 39.1969 19.1689V10.2552C39.1969 9.67058 38.7227 9.19638 38.1381 9.19638H35.8833V7.72847C35.8833 7.14386 35.4091 6.66966 34.8245 6.66966H32.9198V1.05881C32.9198 0.474197 32.4456 0 31.861 0C31.2764 0 30.8022 0.474197 30.8022 1.05881V6.66966H28.8976C28.313 6.66966 27.8388 7.14386 27.8388 7.72847V9.19638H11.3585V7.72847C11.3585 7.14386 10.8843 6.66966 10.2997 6.66966H8.39507V1.05881C8.39507 0.474197 7.92087 0 7.33626 0C6.75124 0 6.27704 0.474197 6.27704 1.05881V6.66966H4.37242C3.78781 6.66966 3.31361 7.14386 3.31361 7.72847V9.19638H1.05881C0.474197 9.19638 0 9.67058 0 10.2552V45.7495C0 50.2942 3.69511 53.9946 8.23975 53.9996C8.24181 53.9996 8.24387 54 8.24634 54H36.5738C41.1233 54 44.8246 50.2987 44.8246 45.7495C44.8246 45.1649 44.3504 44.6907 43.7658 44.6907ZM29.956 8.78728H33.7657V11.7231H29.956V8.78728ZM5.43123 8.78728H9.24088V11.7231H5.43123V8.78728ZM36.5738 51.8824H13.7637C15.1953 50.5941 16.1754 48.8123 16.4333 46.8083H42.6151C42.1121 49.6873 39.5945 51.8824 36.5738 51.8824Z" fill="#1900FF"/>
<path d="M8.76405 31.9262H30.0477C30.4296 31.9262 30.7823 31.7206 30.9698 31.3877C31.1576 31.0548 31.1514 30.6469 30.9541 30.3198L21.9365 15.3931C21.7445 15.0759 21.4009 14.8818 21.0302 14.8818C20.6594 14.8818 20.3154 15.0759 20.1238 15.3931L16.53 21.3418L15.8119 20.1536C15.6203 19.8364 15.2763 19.6423 14.9055 19.6423C14.5348 19.6423 14.1912 19.8364 13.9992 20.1536L7.85768 30.3198C7.65993 30.6469 7.65416 31.0548 7.84161 31.3877C8.02948 31.7206 8.38214 31.9262 8.76405 31.9262ZM21.0302 17.9886L28.1707 29.809H21.6448L17.7668 23.3898L21.0302 17.9886ZM14.906 22.7487L19.1709 29.809H10.6407L14.906 22.7487Z" fill="#1900FF"/>
<path d="M12.2473 38.3936C11.6623 38.3936 11.1885 38.8678 11.1885 39.4524C11.1885 40.037 11.6623 40.5112 12.2473 40.5112H22.3212C22.9058 40.5112 23.38 40.037 23.38 39.4524C23.38 38.8678 22.9058 38.3936 22.3212 38.3936H12.2473Z" fill="#1900FF"/>
<path d="M27.4445 38.8647C27.1928 38.4881 26.7095 38.306 26.2728 38.4345C25.853 38.5581 25.5465 38.9285 25.5086 39.3656C25.4707 39.8052 25.7253 40.2357 26.127 40.4158C26.5258 40.5946 27.0016 40.5101 27.3119 40.2007C27.6654 39.8485 27.7214 39.2787 27.4445 38.8647Z" fill="#1900FF"/>
<path d="M39.12 22.9994C38.9507 22.5894 38.5284 22.3233 38.0855 22.3472C37.6451 22.3711 37.2583 22.6751 37.1297 23.097C37.0028 23.5131 37.152 23.9795 37.498 24.244C37.854 24.5167 38.357 24.5336 38.7307 24.2848C39.1452 24.0087 39.3104 23.4596 39.12 22.9994Z" fill="#1900FF"/>
</svg>
