<svg width="52" height="54" viewBox="0 0 52 54" fill="none" xmlns="http://www.w3.org/2000/svg">
<path d="M43.3485 29.5312V0.84375C43.3485 0.378 42.9685 0 42.4985 0H8.49844C8.02839 0 7.64844 0.378 7.64844 0.84375V29.5312C7.64844 29.997 8.02839 30.375 8.49844 30.375H15.2984H25.4984H35.6985H42.4985C42.9685 30.375 43.3485 29.997 43.3485 29.5312ZM41.6485 1.6875V6.75H9.34844V1.6875H41.6485ZM9.34844 28.6875V8.4375H41.6485V28.6875H9.34844Z" fill="#0085FF"/>
<path d="M11.0508 3.375H12.7508V5.0625H11.0508V3.375Z" fill="#0085FF"/>
<path d="M14.4492 3.375H16.1492V5.0625H14.4492V3.375Z" fill="#0085FF"/>
<path d="M17.8516 3.375H19.5516V5.0625H17.8516V3.375Z" fill="#0085FF"/>
<path d="M27.1992 3.375H39.9492V5.0625H27.1992V3.375Z" fill="#0085FF"/>
<path d="M25.5 10.125C20.8131 10.125 17 13.9101 17 18.5625C17 23.2149 20.8131 27 25.5 27C30.1869 27 34 23.2149 34 18.5625C34 13.9101 30.1869 10.125 25.5 10.125ZM23.8349 22.6041C24.9416 22.4809 26.0585 22.4809 27.1652 22.6041C26.6246 23.7524 25.9548 24.5616 25.5 25.0206C25.0444 24.5616 24.3755 23.7516 23.8349 22.6041ZM23.2535 20.9883C23.1294 20.5031 23.0478 19.9707 23.001 19.4062H27.9999C27.9523 19.9707 27.8715 20.5031 27.7474 20.9883C26.2548 20.7858 24.7452 20.7858 23.2535 20.9883ZM27.1652 14.5209C26.0585 14.6441 24.9416 14.6441 23.8349 14.5209C24.3755 13.3726 25.0453 12.5634 25.5 12.1044C25.9556 12.5634 26.6246 13.3734 27.1652 14.5209ZM25.5 16.3072C26.2514 16.3072 27.0011 16.238 27.7466 16.1367C27.8707 16.6219 27.9523 17.1543 27.999 17.7188H23.001C23.0486 17.1543 23.1294 16.6219 23.2535 16.1367C23.9989 16.238 24.7486 16.3072 25.5 16.3072ZM21.2849 17.7188H18.7595C18.8743 16.8151 19.1675 15.9671 19.6061 15.2103C20.2521 15.455 20.9092 15.66 21.5773 15.8212C21.4328 16.4059 21.3325 17.0404 21.2849 17.7188ZM21.2849 19.4062C21.3333 20.0846 21.4328 20.7191 21.5773 21.3038C20.91 21.465 20.253 21.6692 19.6061 21.9147C19.1675 21.1579 18.8734 20.3108 18.7595 19.4062H21.2849ZM29.7152 19.4062H32.2405C32.1258 20.3099 31.8325 21.1579 31.3939 21.9147C30.7479 21.67 30.0909 21.465 29.4228 21.3038C29.5673 20.7191 29.6676 20.0846 29.7152 19.4062ZM29.7152 17.7188C29.6667 17.0404 29.5673 16.4059 29.4228 15.8212C30.09 15.66 30.7471 15.4558 31.3939 15.2103C31.8325 15.9671 32.1266 16.8142 32.2405 17.7188H29.7152ZM30.3221 13.8088C29.8512 13.9691 29.3743 14.105 28.8915 14.2172C28.5583 13.4258 28.1648 12.7609 27.7763 12.2091C28.7428 12.5525 29.6123 13.1001 30.3221 13.8088ZM23.2237 12.2099C22.8353 12.7609 22.4417 13.4266 22.1085 14.218C21.6257 14.1058 21.1489 13.97 20.678 13.8097C21.3877 13.1001 22.2573 12.5525 23.2237 12.2099ZM20.678 23.3162C21.1489 23.1559 21.6257 23.02 22.1085 22.9078C22.4417 23.6992 22.8353 24.3641 23.2237 24.9159C22.2573 24.5725 21.3877 24.0249 20.678 23.3162ZM27.7763 24.9151C28.1648 24.3641 28.5583 23.6984 28.8915 22.907C29.3743 23.0192 29.8512 23.155 30.3221 23.3153C29.6123 24.0249 28.7428 24.5725 27.7763 24.9151Z" fill="#0085FF"/>
<path d="M22.3483 33.1535L23.5502 34.3465L24.6492 33.2556V38.8977C22.7121 39.2901 21.2492 40.9936 21.2492 43.0312C21.2492 44.1788 21.7159 45.2182 22.4673 45.9793C20.2641 46.8458 18.6992 48.9772 18.6992 51.4688V53.1562C18.6992 53.622 19.0792 54 19.5492 54H31.4492C31.9193 54 32.2992 53.622 32.2992 53.1562V51.4688C32.2992 48.9772 30.7344 46.8458 28.5312 45.9793C29.2826 45.2182 29.7492 44.1788 29.7492 43.0312C29.7492 40.9944 28.2864 39.2901 26.3492 38.8977V33.2556L27.4483 34.3465L28.6502 33.1535L26.1002 30.6222C25.9344 30.4577 25.7168 30.375 25.4992 30.375C25.2816 30.375 25.064 30.4577 24.8983 30.6222L22.3483 33.1535ZM30.5992 51.4688V52.3125H20.3992V51.4688C20.3992 49.1425 22.3058 47.25 24.6492 47.25H26.3492C28.6927 47.25 30.5992 49.1425 30.5992 51.4688ZM28.0492 43.0312C28.0492 44.4268 26.9051 45.5625 25.4992 45.5625C24.0933 45.5625 22.9492 44.4268 22.9492 43.0312C22.9492 41.6357 24.0933 40.5 25.4992 40.5C26.9051 40.5 28.0492 41.6357 28.0492 43.0312Z" fill="#0085FF"/>
<path d="M47.2337 45.9793C47.9851 45.2182 48.4517 44.1788 48.4517 43.0312C48.4517 40.9944 46.9889 39.2901 45.0517 38.8977V37.9688C45.0517 36.5732 43.9076 35.4375 42.5017 35.4375H37.4017C36.9325 35.4375 36.5517 35.0587 36.5517 34.5938V33.2556L37.6508 34.3465L38.8527 33.1535L36.3027 30.6222C36.1369 30.4577 35.9193 30.375 35.7017 30.375C35.4841 30.375 35.2665 30.4577 35.1008 30.6222L32.5508 33.1535L33.7527 34.3465L34.8517 33.2556V34.5938C34.8517 35.9893 35.9958 37.125 37.4017 37.125H42.5017C42.9709 37.125 43.3517 37.5038 43.3517 37.9688V38.8977C41.4146 39.2901 39.9517 40.9936 39.9517 43.0312C39.9517 44.1788 40.4184 45.2182 41.1698 45.9793C38.9666 46.8458 37.4017 48.9772 37.4017 51.4688V53.1562C37.4017 53.622 37.7817 54 38.2517 54H50.1517C50.6218 54 51.0017 53.622 51.0017 53.1562V51.4688C51.0017 48.9772 49.4369 46.8458 47.2337 45.9793ZM44.2017 40.5C45.6076 40.5 46.7517 41.6357 46.7517 43.0312C46.7517 44.4268 45.6076 45.5625 44.2017 45.5625C42.7958 45.5625 41.6517 44.4268 41.6517 43.0312C41.6517 41.6357 42.7958 40.5 44.2017 40.5ZM49.3017 52.3125H39.1017V51.4688C39.1017 49.1425 41.0083 47.25 43.3517 47.25H45.0517C47.3952 47.25 49.3017 49.1425 49.3017 51.4688V52.3125Z" fill="#0085FF"/>
<path d="M12.1491 33.1535L13.351 34.3465L14.45 33.2556V34.5938C14.45 35.0587 14.0692 35.4375 13.6 35.4375H8.5C7.0941 35.4375 5.95 36.5732 5.95 37.9688V38.8977C4.01285 39.2901 2.55 40.9944 2.55 43.0312C2.55 44.1788 3.01665 45.2182 3.76805 45.9793C1.56485 46.8458 0 48.9772 0 51.4688V53.1562C0 53.622 0.37995 54 0.850001 54H12.75C13.2201 54 13.6 53.622 13.6 53.1562V51.4688C13.6 48.9772 12.0352 46.8458 9.83196 45.9793C10.5834 45.2182 11.05 44.1788 11.05 43.0312C11.05 40.9944 9.58716 39.2901 7.65 38.8977V37.9688C7.65 37.5038 8.0308 37.125 8.5 37.125H13.6C15.0059 37.125 16.15 35.9893 16.15 34.5938V33.2556L17.2491 34.3465L18.451 33.1535L15.901 30.6222C15.7352 30.4577 15.5176 30.375 15.3 30.375C15.0824 30.375 14.8648 30.4577 14.6991 30.6222L12.1491 33.1535ZM11.9 51.4688V52.3125H1.7V51.4688C1.7 49.1425 3.60655 47.25 5.95 47.25H7.65C9.99346 47.25 11.9 49.1425 11.9 51.4688ZM9.35001 43.0312C9.35001 44.4268 8.2059 45.5625 6.8 45.5625C5.3941 45.5625 4.25 44.4268 4.25 43.0312C4.25 41.6357 5.3941 40.5 6.8 40.5C8.2059 40.5 9.35001 41.6357 9.35001 43.0312Z" fill="#0085FF"/>
</svg>
