<svg width="35" height="54" viewBox="0 0 35 54" fill="none" xmlns="http://www.w3.org/2000/svg">
<path d="M28.634 30.9353C32.5197 27.7287 35 22.8822 35 17.4683C35 7.83622 27.1495 0 17.5 0C7.85046 0 0 7.83622 0 17.4683C0 22.8822 2.48027 27.7287 6.36604 30.9353V36.6172H1.47925V41.0264L17.5 54L33.5208 41.0263V36.6171H28.634V30.9353ZM3.16981 17.4683C3.16981 9.58089 9.5983 3.16406 17.5 3.16406C25.4017 3.16406 31.8302 9.58089 31.8302 17.4683C31.8302 25.3556 25.4017 31.7725 17.5 31.7725C9.5983 31.7725 3.16981 25.3556 3.16981 17.4683ZM30.0271 39.7812L17.5 49.9256L4.97291 39.7811H9.53585V33.0205C11.9261 34.2451 14.6336 34.9365 17.5 34.9365C20.3664 34.9365 23.0739 34.2451 25.4642 33.0205V39.7811H30.0271V39.7812Z" fill="#64DF00"/>
<path d="M16.5941 19.0501H18.4068C19.3526 19.0501 20.122 19.8181 20.122 20.7622C20.122 21.7062 19.3526 22.4743 18.4068 22.4743H16.5619C15.6483 22.4743 14.9051 21.7324 14.9051 20.8205H11.7353C11.7353 23.2582 13.5588 25.2774 15.9154 25.5938V27.8463H19.0852V25.5901C21.4587 25.2593 23.2917 23.2209 23.2917 20.7621C23.2917 18.0734 21.1003 15.8859 18.4067 15.8859H16.594C15.6482 15.8859 14.8788 15.1179 14.8788 14.1739C14.8788 13.2298 15.6482 12.4618 16.594 12.4618H18.3652C19.3121 12.4618 20.0825 13.2307 20.0825 14.1759H23.2523C23.2523 11.7303 21.4398 9.69977 19.0852 9.35109V7.08984H15.9154V9.34603C13.542 9.67689 11.709 11.7153 11.709 14.1741C11.7091 16.8627 13.9005 19.0501 16.5941 19.0501Z" fill="#64DF00"/>
</svg>
