<svg width="54" height="54" viewBox="0 0 54 54" fill="none" xmlns="http://www.w3.org/2000/svg">
<path d="M1.8 46.8V43.2H3.6V41.4H1.8V37.8H5.4V36H1.8V32.4H3.6V30.6H1.8V27H5.4V25.2H1.8V21.6H3.6V19.8H1.8V16.2H5.4V14.4H1.8V10.8H3.6V9H1.8V5.4H5.4V3.6H1.8V0H0V47.7C0 48.197 0.402975 48.6 0.9 48.6H54V46.8H1.8Z" fill="#FF00D8"/>
<path d="M10.8 50.3999H9V53.9999H10.8V50.3999Z" fill="#FF00D8"/>
<path d="M14.3996 50.3999H12.5996V53.9999H14.3996V50.3999Z" fill="#FF00D8"/>
<path d="M23.3996 50.3999H21.5996V53.9999H23.3996V50.3999Z" fill="#FF00D8"/>
<path d="M27.0002 50.3999H25.2002V53.9999H27.0002V50.3999Z" fill="#FF00D8"/>
<path d="M36.0002 50.3999H34.2002V53.9999H36.0002V50.3999Z" fill="#FF00D8"/>
<path d="M39.5998 50.3999H37.7998V53.9999H39.5998V50.3999Z" fill="#FF00D8"/>
<path d="M48.5998 50.3999H46.7998V53.9999H48.5998V50.3999Z" fill="#FF00D8"/>
<path d="M52.2004 50.3999H50.4004V53.9999H52.2004V50.3999Z" fill="#FF00D8"/>
<path d="M9.73397 44.4258C10.3199 44.8034 11.0029 45.0029 11.6999 44.9999C13.6881 44.9999 15.2999 43.3881 15.2999 41.3999C15.296 40.8072 15.1438 40.2249 14.8571 39.7061L22.0625 34.3016C23.6051 35.5352 25.8559 35.2848 27.0896 33.7422C27.1985 33.6061 27.2972 33.4621 27.3851 33.3116L33.3062 35.0099C33.3062 35.0396 33.2999 35.0693 33.2999 35.0999C33.2999 37.0881 34.9117 38.6999 36.8999 38.6999C38.8881 38.6999 40.4999 37.0881 40.4999 35.0999V35.0936C40.4927 34.3199 40.2364 33.5691 39.7691 32.9525L47.7791 22.9427C48.3048 23.2382 48.8969 23.3955 49.4999 23.3999C51.503 23.4148 53.1389 21.8031 53.1538 19.8C53.1686 17.7969 51.557 16.1609 49.5539 16.1461C47.5508 16.1311 45.9149 17.7429 45.9 19.746C45.8948 20.4403 46.0891 21.1216 46.4597 21.7088L38.3597 31.8338C38.2139 31.766 38.0635 31.7087 37.9097 31.6619C36.3356 31.2076 34.6534 31.8734 33.8165 33.2819L27.8936 31.5899C27.8936 31.5602 27.8999 31.5305 27.8999 31.4999C27.9025 29.8949 26.847 28.4804 25.3079 28.0259C23.4142 27.459 21.4193 28.5347 20.8525 30.4284C20.6129 31.2286 20.6608 32.0875 20.9878 32.8562L13.6348 38.3741C11.9637 37.2969 9.73566 37.7783 8.65847 39.4495C7.5814 41.1205 8.0629 43.3485 9.73397 44.4258ZM49.4999 17.9999C50.4941 17.9999 51.2999 18.8057 51.2999 19.7999C51.2999 20.794 50.4941 21.5999 49.4999 21.5999C48.5057 21.5999 47.6999 20.794 47.6999 19.7999C47.6999 18.8057 48.5057 17.9999 49.4999 17.9999ZM35.1719 34.6139C35.4492 33.6685 36.4405 33.1271 37.3857 33.4044C38.331 33.6817 38.8725 34.6729 38.5952 35.6182C38.3179 36.5635 37.3266 37.105 36.3814 36.8277C35.6137 36.6024 35.0898 35.8936 35.0999 35.0936C35.0991 34.9309 35.1234 34.7691 35.1719 34.6139ZM22.5717 30.9788C22.5718 30.9784 22.5719 30.9781 22.572 30.9779C22.7041 30.5188 23.0146 30.1318 23.4342 29.9033C24.3058 29.425 25.3999 29.744 25.8782 30.6155C26.0258 30.8845 26.1022 31.1868 26.1 31.4936V31.5062C26.1008 31.6688 26.0765 31.8306 26.028 31.9859C25.7499 32.9403 24.7508 33.4885 23.7964 33.2104C22.8418 32.9324 22.2936 31.9332 22.5717 30.9788ZM11.6999 39.5999C12.6941 39.5999 13.4999 40.4057 13.4999 41.3999C13.4999 42.394 12.6941 43.1999 11.6999 43.1999C10.7057 43.1999 9.89991 42.394 9.89991 41.3999C9.89991 40.4057 10.7057 39.5999 11.6999 39.5999Z" fill="#FF00D8"/>
<path d="M11.6996 31.5002C13.6788 31.5093 15.2907 29.9121 15.2998 27.9328C15.304 27.0366 14.9722 26.1715 14.3699 25.508L23.1998 11.5103C24.3155 11.8969 25.5514 11.6853 26.4749 10.9496L33.6074 16.5602C32.8031 18.3724 33.6203 20.4936 35.4327 21.2979C35.8945 21.5029 36.3944 21.6079 36.8996 21.6065H36.9077C38.8952 21.602 40.5031 19.9877 40.4996 18.0002C40.4988 17.6767 40.4539 17.3549 40.3664 17.0435L46.8518 13.2419C47.5321 13.9845 48.4924 14.4082 49.4996 14.4101H49.5131C51.5044 14.4056 53.1149 12.7878 53.1104 10.7966C53.1059 8.80533 51.4882 7.19478 49.4969 7.19928C47.5068 7.20378 45.8967 8.81996 45.8996 10.8101C45.9029 11.094 45.9388 11.3767 46.0067 11.6525L39.4646 15.4802C38.7875 14.7938 37.8637 14.4072 36.8996 14.4065H36.8897C36.1072 14.4114 35.3481 14.6739 34.7297 15.1535L27.5945 9.54018C28.3974 7.72128 27.5738 5.59593 25.755 4.79291C23.9362 3.98988 21.8108 4.81361 21.0077 6.6324C20.4241 7.9545 20.6877 9.49743 21.677 10.5508L12.8696 24.5117C12.4942 24.376 12.0988 24.3046 11.6996 24.3002C9.7114 24.3002 8.09961 25.912 8.09961 27.9002C8.09961 29.8884 9.7114 31.5002 11.6996 31.5002ZM49.4996 9.00018C50.4938 9.00018 51.2996 9.80602 51.2996 10.8002C51.3031 11.7942 50.5001 12.603 49.5059 12.6065H49.4996C48.8555 12.6074 48.2601 12.2643 47.9381 11.7065C47.7854 11.4285 47.7035 11.1173 47.6996 10.8002C47.6996 9.80602 48.5054 9.00018 49.4996 9.00018ZM36.8996 16.2065C37.8938 16.2065 38.6996 17.0123 38.6996 18.0065C38.6996 19.0006 37.8938 19.8065 36.8996 19.8065C35.9054 19.8065 35.0996 19.0006 35.0996 18.0065C35.0996 17.0123 35.9054 16.2065 36.8996 16.2065ZM24.2996 6.30018C25.2938 6.30018 26.0996 7.10602 26.0996 8.10018C26.0996 9.09435 25.2938 9.90018 24.2996 9.90018C23.3054 9.90018 22.4996 9.09435 22.4996 8.10018C22.4996 7.10602 23.3054 6.30018 24.2996 6.30018ZM11.6996 26.1002C12.6938 26.1002 13.4996 26.906 13.4996 27.9002C13.4996 28.8943 12.6938 29.7002 11.6996 29.7002C10.7054 29.7002 9.89961 28.8943 9.89961 27.9002C9.89961 26.906 10.7054 26.1002 11.6996 26.1002Z" fill="#FF00D8"/>
</svg>
