<svg width="54" height="55" viewBox="0 0 54 55" fill="none" xmlns="http://www.w3.org/2000/svg">
<path d="M27 23.8403C29.9078 23.8403 32.2734 21.4747 32.2734 18.5669C32.2734 15.6591 29.9078 13.2935 27 13.2935C24.0922 13.2935 21.7266 15.6591 21.7266 18.5669C21.7266 21.4747 24.0922 23.8403 27 23.8403ZM27 15.4028C28.7447 15.4028 30.1641 16.8222 30.1641 18.5669C30.1641 20.3116 28.7447 21.731 27 21.731C25.2553 21.731 23.8359 20.3116 23.8359 18.5669C23.8359 16.8222 25.2553 15.4028 27 15.4028Z" fill="#00E7BD"/>
<path d="M19.2721 47.5461C18.7557 45.3057 16.808 43.6064 14.4476 43.4668C13.071 40.6212 9.85458 38.8446 6.52778 39.3145C3.05037 39.8053 0 43.2198 0 46.6216C0 50.4426 3.32902 54.0044 7.59375 54.0044H22.2539C22.8363 54.0044 23.3086 53.5322 23.3086 52.9497C23.3086 52.3672 22.8363 51.895 22.2539 51.895H7.59375C4.67216 51.895 2.10937 49.4308 2.10937 46.6216C2.10937 44.2811 4.39995 41.7451 6.82256 41.4032C8.96463 41.1005 11.1034 42.1028 12.226 43.8158C11.5477 44.0791 10.9248 44.4813 10.4038 45.0031C9.99221 45.4153 9.99274 46.0831 10.4049 46.4948C10.6108 46.7003 10.8805 46.8031 11.15 46.8031C11.4203 46.8031 11.6904 46.6998 11.8963 46.4936C12.4283 45.9608 13.1237 45.6025 14.1327 45.567C15.8774 45.567 17.2968 46.9864 17.2968 48.731C17.2968 49.3135 17.7691 49.7857 18.3515 49.7857C21.3243 49.7857 23.8358 47.3708 23.8358 44.5123V40.7154H30.164V44.5123C30.164 47.3708 32.6755 49.7857 35.6483 49.7857C36.2307 49.7857 36.703 49.3135 36.703 48.731C36.703 46.9864 38.1224 45.567 39.8651 45.567C40.8162 45.5965 41.542 45.9314 42.1034 46.4936C42.5133 46.9041 43.1809 46.908 43.595 46.4948C44.0071 46.0832 44.0077 45.4154 43.5961 45.0031C43.0751 44.4813 42.4522 44.0791 41.7737 43.8158C42.8961 42.1031 45.0345 41.1008 47.1775 41.4032C49.6457 41.7512 51.9362 44.3287 51.8907 46.7066C51.836 49.519 49.3245 51.895 46.4061 51.895H31.7461C31.1637 51.895 30.6914 52.3672 30.6914 52.9497C30.6914 53.5322 31.1637 54.0044 31.7461 54.0044H46.4062C50.446 54.0044 53.9233 50.6811 53.9998 46.7472C54.0659 43.2874 51.0156 39.8142 47.4723 39.3145C44.1439 38.8447 40.9286 40.6222 39.5524 43.4668C37.192 43.6063 35.2443 45.3057 34.7279 47.5461C33.3448 47.1498 32.2734 45.9013 32.2734 44.5122V40.7153H33.3281C33.8568 40.7153 34.3037 40.3239 34.3735 39.7999L34.8141 36.4966H39.4559C41.3111 36.4966 42.8203 34.9873 42.8203 33.1321C42.8203 32.33 42.5328 31.5526 42.0106 30.9428L36.4237 24.4249L36.9669 20.3514C38.0405 12.2937 34.1201 4.10236 27.5427 0.154767C27.2086 -0.0457295 26.7913 -0.0457295 26.4571 0.154767C19.8783 4.1032 15.9597 12.2954 17.033 20.3517L17.5762 24.425L11.9891 30.9432C11.4672 31.5527 11.1797 32.33 11.1797 33.1321C11.1797 34.9873 12.689 36.4966 14.5441 36.4966H19.1859L19.6265 39.7999C19.6963 40.3239 20.1432 40.7153 20.6719 40.7153H21.7266V44.5122C21.7266 45.9013 20.6552 47.1498 19.2721 47.5461ZM40.4088 32.3152C40.6037 32.5428 40.7109 32.8329 40.7109 33.1322C40.7109 33.8243 40.1478 34.3873 39.4559 34.3873H35.0954L36.0497 27.23L40.4088 32.3152ZM27 2.30454C28.6066 3.36059 30.0475 4.72916 31.2491 6.33249H22.7509C23.9524 4.72916 25.3934 3.36059 27 2.30454ZM21.3857 8.44187H32.6144C34.6001 12.0111 35.403 16.1178 34.8762 20.0727L32.967 34.3872H21.0328L19.1239 20.073C18.597 16.1179 19.3999 12.0114 21.3857 8.44187ZM14.5441 34.3872C13.8521 34.3872 13.2891 33.8242 13.2891 33.1321C13.2891 32.8329 13.3964 32.5427 13.5909 32.3156L17.9503 27.23L18.9046 34.3872H14.5441ZM21.3141 36.4966H32.6858L32.4047 38.6059H21.5954L21.3141 36.4966Z" fill="#00E7BD"/>
<path d="M27 54.0044C27.5825 54.0044 28.0547 53.5322 28.0547 52.9497C28.0547 52.3672 27.5825 51.895 27 51.895C26.4175 51.895 25.9453 52.3672 25.9453 52.9497C25.9453 53.5322 26.4175 54.0044 27 54.0044Z" fill="#00E7BD"/>
</svg>
