<svg width="54" height="54" viewBox="0 0 54 54" fill="none" xmlns="http://www.w3.org/2000/svg">
<path d="M53.4948 16.6186C53.1799 16.4274 52.7881 16.4142 52.461 16.5841L40.0819 23.0127C39.6525 23.2357 39.4299 23.7222 39.5418 24.1928L39.8108 25.3233L31.381 23.2725C29.7992 22.8874 28.1398 23.2202 26.8285 24.185L26.2866 24.5838C24.3443 23.4302 22.0254 23.0803 19.8102 23.6288L14.2676 25.001L14.4599 24.1928C14.5719 23.7221 14.3492 23.2356 13.9198 23.0127L1.54085 16.5841C1.21378 16.4142 0.822052 16.4273 0.507112 16.6186C0.192276 16.8099 0 17.1516 0 17.52V36.4816C0 36.9415 0.297854 37.3483 0.736198 37.4871L9.47449 40.2548C9.57848 40.2877 9.68585 40.3041 9.79291 40.3041C9.97326 40.3041 10.1526 40.2578 10.3127 40.1672C10.5677 40.0228 10.7512 39.7787 10.819 39.4935L10.9623 38.8914L11.7967 39.2877C11.3272 40.5126 11.5844 41.9545 12.5702 42.9404C13.2203 43.5905 14.0691 43.9233 14.9229 43.9403C14.9401 44.7942 15.2727 45.6429 15.9229 46.293C16.573 46.9431 17.4217 47.2759 18.2755 47.293C18.2927 48.1469 18.6254 48.9955 19.2755 49.6457C19.9256 50.2958 20.7744 50.6286 21.6282 50.6456C21.6454 51.4996 21.978 52.3482 22.6282 52.9983C23.296 53.6661 24.1731 54 25.0503 54C25.9276 54 26.8048 53.6661 27.4725 52.9983L29.0618 51.4091C29.5002 50.9706 29.7938 50.4416 29.9444 49.8818C30.2809 49.988 30.6305 50.042 30.9803 50.042C31.8575 50.042 32.7347 49.7081 33.4025 49.0404C34.0526 48.3902 34.3853 47.5416 34.4025 46.6877C35.2564 46.6705 36.105 46.3377 36.7551 45.6876C37.4049 45.0379 37.7375 44.1898 37.7551 43.3364C38.6441 43.3188 39.4773 42.9654 40.1079 42.3348C40.7549 41.6879 41.1112 40.8276 41.1112 39.9127C41.1112 39.8952 41.1101 39.8779 41.1099 39.8603L43.0437 38.9107L43.1823 39.4932C43.2502 39.7784 43.4337 40.0225 43.6887 40.1669C43.8488 40.2576 44.028 40.3038 44.2085 40.3038C44.3154 40.3038 44.4229 40.2875 44.5269 40.2545L53.2652 37.4868C53.7035 37.348 54.0014 36.9412 54.0014 36.4813V17.52C54.0019 17.1516 53.8096 16.8099 53.4948 16.6186ZM2.10945 35.7094V19.2562L12.2172 24.5053L9.0296 37.9012L2.10945 35.7094ZM14.0619 39.5876L15.6512 37.9983C15.9077 37.7417 16.2447 37.6135 16.5817 37.6135C16.9187 37.6135 17.2557 37.7417 17.5122 37.9983C17.7607 38.2468 17.8977 38.5774 17.8977 38.9288C17.8977 39.2804 17.7608 39.6108 17.5122 39.8594L15.923 41.4487C15.4098 41.9619 14.5749 41.9618 14.0619 41.4487C13.5488 40.9356 13.5488 40.1007 14.0619 39.5876ZM17.4147 42.9404L19.0039 41.3511C19.2605 41.0945 19.5975 40.9663 19.9345 40.9663C20.2715 40.9663 20.6086 41.0946 20.8651 41.3511C21.3782 41.8642 21.3782 42.699 20.8651 43.2122L19.2757 44.8015C18.7627 45.3146 17.9278 45.3148 17.4147 44.8015C16.9015 44.2884 16.9015 43.4535 17.4147 42.9404ZM20.7673 46.2931L22.3567 44.7038C22.6132 44.4471 22.9502 44.3189 23.2873 44.3189C23.6242 44.3189 23.9612 44.4471 24.2177 44.7038C24.7309 45.2169 24.7309 46.0517 24.2177 46.5648L22.6284 48.1542C22.1154 48.6673 21.2804 48.6674 20.7673 48.1542C20.2542 47.6411 20.2542 46.8062 20.7673 46.2931ZM27.5705 49.9176L25.9812 51.5068C25.4682 52.02 24.6332 52.02 24.1201 51.5068C23.607 50.9937 23.607 50.1589 24.1201 49.6458L25.7094 48.0564C25.9579 47.8078 26.2885 47.6709 26.6399 47.6709C26.9915 47.6709 27.3219 47.8078 27.5705 48.0564C28.0836 48.5696 28.0836 49.4046 27.5705 49.9176ZM38.6166 40.8436C38.3681 41.0921 38.0376 41.229 37.6862 41.229C37.3348 41.229 37.0045 41.0922 36.7559 40.8438C36.7558 40.8437 36.7557 40.8436 36.7556 40.8435L31.0629 35.1508C30.651 34.7389 29.9832 34.7389 29.5712 35.1508C29.1593 35.5627 29.1593 36.2305 29.5712 36.6425L35.2639 42.3352C35.777 42.8483 35.777 43.6832 35.2639 44.1963C34.7509 44.7096 33.9158 44.7094 33.4028 44.1963L27.7101 38.5037C27.2983 38.0918 26.6304 38.0918 26.2184 38.5037C25.8065 38.9155 25.8066 39.5834 26.2184 39.9954L31.9111 45.688C32.1597 45.9365 32.2966 46.2671 32.2966 46.6186C32.2966 46.9701 32.1597 47.3006 31.9112 47.5491C31.3981 48.0622 30.5632 48.0621 30.0501 47.5491C30.0501 47.5491 25.7768 43.2797 25.7093 43.2122C25.0592 42.562 24.2105 42.2294 23.3567 42.2123C23.3395 41.3584 23.0068 40.5096 22.3567 39.8595C21.707 39.2098 20.859 38.8771 20.0056 38.8596C19.988 37.9707 19.6345 37.1374 19.0039 36.5069C17.6683 35.1714 15.4952 35.1714 14.1596 36.5069L13.0964 37.57L11.4616 36.7934L13.7182 27.3104L20.3172 25.6766C21.6865 25.3376 23.1077 25.4543 24.3832 25.9846L22.494 27.3746C20.8997 28.5476 20.4932 30.7682 21.5686 32.43C22.2735 33.5192 23.4815 34.1395 24.7262 34.1395C25.1752 34.1395 25.6292 34.0587 26.0657 33.8902L31.6909 31.7177C31.6909 31.7177 38.6107 38.9767 38.6166 38.9827C39.1299 39.4955 39.1299 40.3303 38.6166 40.8436ZM40.4201 37.8495C40.3278 37.7277 32.7316 29.7519 32.7316 29.7519C32.4283 29.4339 31.9741 29.347 31.5882 29.4958V29.4957L25.3057 31.9221C24.5856 32.2002 23.7588 31.9317 23.3395 31.2838C22.8693 30.5572 23.047 29.5863 23.7441 29.0735L28.0788 25.8842C28.8865 25.2901 29.9084 25.0851 30.8825 25.3221L40.3187 27.6178C40.3321 27.6211 40.3454 27.6228 40.3588 27.6254L42.5436 36.8068L40.4201 37.8495ZM51.8924 35.7094L44.9723 37.9012L41.7846 24.5053L51.8924 19.2562V35.7094Z" fill="#BFA100"/>
<path d="M8.31362 17.5153H17.4665V18.0219C17.4665 18.6044 17.9387 19.0766 18.5212 19.0766H22.2549C22.8374 19.0766 23.3096 18.6044 23.3096 18.0219C23.3096 17.4393 22.8374 16.9671 22.2549 16.9671H19.5761V16.7704C19.5761 13.3657 22.3461 10.5958 25.7507 10.5958H25.9464V12.0363C25.9464 12.6188 26.4186 13.091 27.0011 13.091C27.5836 13.091 28.0558 12.6188 28.0558 12.0363V10.5958H28.2515C31.6563 10.5958 34.4262 13.3657 34.4262 16.7704V16.9671H31.7474C31.1649 16.9671 30.6927 17.4393 30.6927 18.0219C30.6927 18.6044 31.1649 19.0766 31.7474 19.0766H35.4809C36.0634 19.0766 36.5356 18.6044 36.5356 18.0219V17.5153H45.6885C46.271 17.5153 46.7432 17.0431 46.7432 16.4606V15.3243C46.7432 11.9262 44.5067 9.04141 41.4287 8.06252C41.9427 7.35892 42.247 6.49299 42.247 5.55692V4.25792C42.247 1.91011 40.3369 0 37.989 0C35.6412 0 33.731 1.91011 33.731 4.25792V5.55682C33.731 6.49204 34.0348 7.35723 34.5479 8.06042C33.642 8.34688 32.7957 8.80189 32.0484 9.41141C31.5921 9.17505 31.1117 8.97961 30.6111 8.83058C31.2195 8.05272 31.5836 7.07488 31.5836 6.01309V4.58257C31.5836 2.05566 29.5278 0 27.001 0C24.4742 0 22.4185 2.05576 22.4185 4.58257V6.01309C22.4185 7.07488 22.7824 8.05272 23.3909 8.83058C22.8903 8.97961 22.4099 9.17505 21.9536 9.41141C21.2064 8.80189 20.3601 8.34688 19.4541 8.06042C19.9673 7.35723 20.271 6.49194 20.271 5.55682V4.25792C20.271 1.91011 18.3609 0 16.013 0C13.6651 0 11.7551 1.91011 11.7551 4.25792V5.55682C11.7551 6.49288 12.0594 7.35881 12.5733 8.06242C9.49533 9.04141 7.25879 11.9262 7.25879 15.3242V16.4605C7.25889 17.043 7.73109 17.5153 8.31362 17.5153ZM35.8406 4.25792C35.8406 3.07326 36.8044 2.10945 37.9891 2.10945C39.1738 2.10945 40.1376 3.07326 40.1376 4.25792V5.55682C40.1376 6.74148 39.1738 7.7054 37.9891 7.7054C36.8045 7.7054 35.8406 6.74159 35.8406 5.55682V4.25792ZM36.8538 9.81474H36.9344V10.7886C36.9344 11.3711 37.4066 11.8433 37.9891 11.8433C38.5717 11.8433 39.0439 11.3711 39.0439 10.7886V9.81474H39.1244C42.1624 9.81474 44.6339 12.2863 44.6339 15.3242V15.4057H36.4213C36.1133 13.5562 35.1914 11.9122 33.8715 10.6911C34.7528 10.1215 35.7795 9.81474 36.8538 9.81474ZM24.528 4.58257C24.528 3.21891 25.6375 2.10945 27.0011 2.10945C28.3648 2.10945 29.4742 3.21891 29.4742 4.58257V6.01309C29.4742 7.37674 28.3648 8.48621 27.0011 8.48621C25.6375 8.48621 24.528 7.37674 24.528 6.01309V4.58257ZM13.8646 4.25792C13.8646 3.07326 14.8284 2.10945 16.0131 2.10945C17.1978 2.10945 18.1617 3.07326 18.1617 4.25792V5.55682C18.1617 6.74148 17.1979 7.7054 16.0131 7.7054C14.8284 7.7054 13.8646 6.74159 13.8646 5.55682V4.25792ZM9.36834 15.3242C9.36834 12.2863 11.8399 9.81474 14.8778 9.81474H14.9584V10.7886C14.9584 11.3711 15.4306 11.8433 16.0131 11.8433C16.5956 11.8433 17.0678 11.3711 17.0678 10.7886V9.81474H17.1484C18.2228 9.81474 19.2494 10.1215 20.1308 10.6912C18.8109 11.9123 17.8889 13.5563 17.581 15.4058H9.36834V15.3242Z" fill="#BFA100"/>
<path d="M27.001 19.0767C27.5835 19.0767 28.0557 18.6045 28.0557 18.022C28.0557 17.4395 27.5835 16.9673 27.001 16.9673C26.4185 16.9673 25.9463 17.4395 25.9463 18.022C25.9463 18.6045 26.4185 19.0767 27.001 19.0767Z" fill="#BFA100"/>
</svg>
