<svg width="54" height="54" viewBox="0 0 54 54" fill="none" xmlns="http://www.w3.org/2000/svg">
<path d="M36 4.5H18V6.3H36V4.5Z" fill="#FF0000"/>
<path d="M44.5492 33.75C44.5492 32.0132 43.1359 30.6 41.3992 30.6H39.5992V18H37.7992V30.6H35.5492C33.8124 30.6 32.3992 32.0133 32.3992 33.75C32.3992 34.6318 32.7657 35.4276 33.3516 36C32.7657 36.5724 32.3992 37.3682 32.3992 38.25C32.3992 38.8567 32.5798 39.4189 32.8784 39.9001C31.8017 40.4016 31.0492 41.4864 31.0492 42.75C31.0492 43.235 31.1686 43.6893 31.3652 44.1H24.2992C24.2992 41.3481 22.9202 38.9127 20.817 37.4484C22.8508 36.6732 24.2992 34.7028 24.2992 32.4C24.2992 31.903 23.8967 31.5 23.3992 31.5H16.1992V22.5H14.3992V31.5C12.9104 31.5 11.6992 32.7112 11.6992 34.2V54H13.4992V34.2C13.4992 33.7039 13.9026 33.3 14.3992 33.3H22.3849C21.985 34.8508 20.5734 36 18.8992 36H16.1992C15.7017 36 15.2992 36.403 15.2992 36.9C15.2992 37.397 15.7017 37.8 16.1992 37.8C19.6727 37.8 22.4992 40.6261 22.4992 44.1V45C22.4992 45.497 22.9017 45.9 23.3992 45.9H28.6652C28.4686 46.3107 28.3492 46.765 28.3492 47.25C28.3492 48.9868 29.7626 50.4 31.4992 50.4V54H33.2992V50.4H36.8992H37.3492C39.086 50.4 40.4992 48.9867 40.4992 47.25C40.4992 46.7598 40.3769 46.3013 40.1762 45.8872C41.853 45.8188 43.1992 44.4432 43.1992 42.75C43.1992 42.1433 43.0187 41.5811 42.7201 41.0998C43.7967 40.5984 44.5492 39.5136 44.5492 38.25C44.5492 37.3682 44.1827 36.5724 43.5968 36C44.1827 35.4276 44.5492 34.6318 44.5492 33.75ZM37.3492 48.6H36.8992H32.3992H31.4992C30.7548 48.6 30.1492 47.9944 30.1492 47.25C30.1492 46.5056 30.7548 45.9 31.4992 45.9H34.1992H37.3492C38.0936 45.9 38.6992 46.5056 38.6992 47.25C38.6992 47.9944 38.0936 48.6 37.3492 48.6ZM40.0492 44.1H37.3492H34.1992C33.4548 44.1 32.8492 43.4944 32.8492 42.75C32.8492 42.0056 33.4548 41.4 34.1992 41.4H35.5492H40.0492C40.7936 41.4 41.3992 42.0056 41.3992 42.75C41.3992 43.4944 40.7936 44.1 40.0492 44.1ZM41.3992 39.6H40.0492H35.5492C34.8048 39.6 34.1992 38.9944 34.1992 38.25C34.1992 37.5056 34.8048 36.9 35.5492 36.9H41.3992C42.1436 36.9 42.7492 37.5056 42.7492 38.25C42.7492 38.9944 42.1436 39.6 41.3992 39.6ZM41.3992 35.1H35.5492C34.8048 35.1 34.1992 34.4944 34.1992 33.75C34.1992 33.0056 34.8048 32.4 35.5492 32.4H41.3992C42.1436 32.4 42.7492 33.0056 42.7492 33.75C42.7492 34.4944 42.1436 35.1 41.3992 35.1Z" fill="#FF0000"/>
<path d="M13.498 11.4562C13.4796 11.1978 13.3512 10.9597 13.1446 10.8032L12.2077 10.093C11.9837 8.9584 10.9878 8.10059 9.79687 8.10059C8.45306 8.10059 7.35697 9.19307 7.33942 10.5426C6.62044 10.417 5.93317 10.141 5.31791 9.72655L5.00415 9.51471C4.72909 9.32886 4.37224 9.30861 4.07782 9.46589C3.78431 9.62192 3.6006 9.92781 3.6006 10.2605V10.9988C3.6006 12.0834 3.92752 13.1179 4.53401 13.9867L3.86081 14.6679C3.6051 14.9258 3.53029 15.3122 3.67012 15.6474C3.80974 15.9822 4.13756 16.2006 4.5006 16.2006H8.86177C10.6011 16.2006 12.039 14.8748 12.2324 13.1732L13.2405 12.1533C13.4224 11.9691 13.5165 11.7151 13.498 11.4562ZM10.7144 12.148C10.5475 12.3163 10.4542 12.544 10.4542 12.7808C10.4542 13.6738 9.73961 14.4006 8.86166 14.4006H6.57217C6.7146 14.0728 6.65306 13.6772 6.38677 13.4079C5.9667 12.9825 5.6661 12.4472 5.514 11.8702C6.37271 12.2324 7.29555 12.4205 8.23954 12.4205C8.73701 12.4205 9.13954 12.0175 9.13954 11.5205V10.5756C9.13954 10.2033 9.43485 9.90059 9.79699 9.90059C10.1591 9.90059 10.4544 10.2033 10.4544 10.5756C10.4544 10.8573 10.5863 11.1227 10.8104 11.2928L11.2393 11.6176L10.7144 12.148Z" fill="#FF0000"/>
<path d="M29.7008 15.3V13.5H27.0008C26.5033 13.5 26.1008 13.903 26.1008 14.4V17.1H24.3008V18.9H26.1008V22.5H27.9008V18.9H29.7008V17.1H27.9008V15.3H29.7008Z" fill="#FF0000"/>
<path d="M32.3994 9.89941H21.5994C20.1106 9.89941 18.8994 11.1106 18.8994 12.5994V23.3994C18.8994 24.8882 20.1106 26.0994 21.5994 26.0994H32.3994C33.8882 26.0994 35.0994 24.8882 35.0994 23.3994V12.5994C35.0994 11.1106 33.8882 9.89941 32.3994 9.89941ZM33.2994 23.3994C33.2994 23.8955 32.896 24.2994 32.3994 24.2994H21.5994C21.1028 24.2994 20.6994 23.8955 20.6994 23.3994V12.5994C20.6994 12.1033 21.1028 11.6994 21.5994 11.6994H32.3994C32.896 11.6994 33.2994 12.1033 33.2994 12.5994V23.3994Z" fill="#FF0000"/>
<path d="M13.5 4.5H2.7C1.21118 4.5 0 5.71118 0 7.2V18C0 19.4888 1.21118 20.7 2.7 20.7H13.5C14.9888 20.7 16.2 19.4888 16.2 18V7.2C16.2 5.71118 14.9888 4.5 13.5 4.5ZM14.4 18C14.4 18.4961 13.9966 18.9 13.5 18.9H2.7C2.20343 18.9 1.8 18.4961 1.8 18V7.2C1.8 6.70388 2.20343 6.3 2.7 6.3H13.5C13.9966 6.3 14.4 6.70388 14.4 7.2V18Z" fill="#FF0000"/>
<path d="M51.3008 0H40.5008C39.012 0 37.8008 1.21118 37.8008 2.7V13.5C37.8008 14.9888 39.012 16.2 40.5008 16.2H51.3008C52.7896 16.2 54.0008 14.9888 54.0008 13.5V2.7C54.0008 1.21118 52.7896 0 51.3008 0ZM52.2008 13.5C52.2008 13.9961 51.7974 14.4 51.3008 14.4H40.5008C40.0042 14.4 39.6008 13.9961 39.6008 13.5V9H41.4918C41.91 11.0513 43.7278 12.6 45.9008 12.6C48.0737 12.6 49.8916 11.0513 50.3098 9H52.2008V13.5ZM43.2008 8.1C43.2008 6.61118 44.412 5.4 45.9008 5.4C47.3896 5.4 48.6008 6.61118 48.6008 8.1C48.6008 9.58883 47.3896 10.8 45.9008 10.8C44.412 10.8 43.2008 9.58883 43.2008 8.1ZM52.2008 7.2H50.3098C49.8916 5.14868 48.0737 3.6 45.9008 3.6C43.7278 3.6 41.91 5.14868 41.4918 7.2H39.6008V2.7C39.6008 2.20388 40.0042 1.8 40.5008 1.8H51.3008C51.7974 1.8 52.2008 2.20388 52.2008 2.7V7.2Z" fill="#FF0000"/>
<path d="M27.9006 36.8994H26.1006V38.6994H27.9006V36.8994Z" fill="#FF0000"/>
</svg>
