<svg width="54" height="54" viewBox="0 0 54 54" fill="none" xmlns="http://www.w3.org/2000/svg">
<path d="M47.496 34.0276C47.5944 34.0636 47.6984 34.0821 47.8032 34.0825C47.9309 34.0824 48.0571 34.0546 48.1731 34.0011C48.289 33.9477 48.3921 33.8697 48.4751 33.7726L53.7867 27.5758C53.9238 27.4155 53.9992 27.2114 53.9992 27.0004C53.9992 26.7894 53.9238 26.5853 53.7867 26.425L48.4751 20.2282C48.3574 20.091 48.2005 19.9931 48.0255 19.9477C47.8506 19.9023 47.6659 19.9115 47.4963 19.9742C47.3268 20.0368 47.1805 20.1499 47.0771 20.2982C46.9737 20.4465 46.9181 20.6228 46.9179 20.8036V22.5741H42.165C41.7828 21.3932 41.2622 20.2616 40.614 19.203L49.865 9.95209L52.0462 12.1343C52.17 12.258 52.3278 12.3423 52.4995 12.3764C52.6712 12.4106 52.8491 12.3931 53.0109 12.3261C53.1726 12.2591 53.3108 12.1456 53.4081 12.0001C53.5054 11.8546 53.5573 11.6834 53.5574 11.5084V0.885259C53.5574 0.650474 53.4641 0.425305 53.2981 0.259286C53.1321 0.0932681 52.9069 0 52.6721 0H50.0163C49.7815 0 49.5564 0.0932681 49.3904 0.259286C49.2243 0.425305 49.1311 0.650474 49.1311 0.885259C49.1311 1.12004 49.2243 1.34521 49.3904 1.51123C49.5564 1.67725 49.7815 1.77052 50.0163 1.77052H51.7868V9.37136L50.4908 8.07445C50.3248 7.90849 50.0997 7.81526 49.865 7.81526C49.6302 7.81526 49.4051 7.90849 49.2391 8.07445L39.5986 17.7149C39.5658 17.6733 39.5384 17.6264 39.5101 17.5875C39.3626 17.4097 39.1515 17.2966 38.9218 17.2723C38.6921 17.248 38.462 17.3145 38.2806 17.4575C38.0992 17.6005 37.9809 17.8088 37.9509 18.0378C37.921 18.2669 37.9817 18.4985 38.1202 18.6834C40.0994 21.1733 41.1727 24.2624 41.1637 27.443C41.1637 30.2444 40.333 32.9829 38.7766 35.3122C37.2203 37.6415 35.0081 39.457 32.42 40.529C29.8318 41.6011 26.9839 41.8816 24.2363 41.335C21.4887 40.7885 18.9649 39.4395 16.984 37.4586C15.0031 35.4777 13.6541 32.9539 13.1076 30.2063C12.5611 27.4588 12.8416 24.6108 13.9136 22.0227C14.9857 19.4345 16.8011 17.2224 19.1304 15.666C21.4597 14.1096 24.1982 13.2789 26.9996 13.2789C30.1806 13.2709 33.2695 14.3458 35.7583 16.3268C35.8496 16.3989 35.9542 16.4522 36.066 16.4838C36.1779 16.5154 36.2949 16.5247 36.4104 16.5111C36.5258 16.4975 36.6375 16.4613 36.7389 16.4045C36.8404 16.3478 36.9297 16.2716 37.0017 16.1803C37.0737 16.0891 37.127 15.9845 37.1587 15.8726C37.1903 15.7608 37.1995 15.6438 37.1859 15.5283C37.1723 15.4129 37.1361 15.3012 37.0794 15.1998C37.0226 15.0983 36.9464 15.009 36.8552 14.937C36.4789 14.6404 36.0912 14.3642 35.6964 14.1048L45.482 4.31918C45.648 4.15317 45.7412 3.92804 45.7412 3.6933C45.7412 3.45856 45.648 3.23343 45.482 3.06742L44.186 1.77052H46.4753C46.7101 1.77052 46.9352 1.67725 47.1013 1.51123C47.2673 1.34521 47.3606 1.12004 47.3606 0.885259C47.3606 0.650474 47.2673 0.425305 47.1013 0.259286C46.9352 0.0932681 46.7101 0 46.4753 0H42.049C41.8739 3.73795e-05 41.7028 0.0519772 41.5573 0.149253C41.4117 0.246529 41.2983 0.384774 41.2313 0.546511C41.1643 0.708248 41.1468 0.886214 41.1809 1.05791C41.2151 1.22961 41.2994 1.38733 41.4231 1.51114L43.6044 3.6933L34.102 13.1957C33.2441 12.7639 32.3483 12.4119 31.4259 12.144V7.08208H33.1964C33.3772 7.08206 33.5537 7.02666 33.7022 6.92332C33.8506 6.81999 33.9638 6.67368 34.0265 6.50408C34.0893 6.33448 34.0986 6.14972 34.0533 5.97467C34.0079 5.79961 33.91 5.64265 33.7727 5.5249L27.5759 0.213347C27.4155 0.0761948 27.2115 0.000826942 27.0005 0.000826942C26.7895 0.000826942 26.5854 0.0761948 26.4251 0.213347L20.2282 5.5249C20.0911 5.64255 19.9932 5.79935 19.9478 5.97424C19.9024 6.14913 19.9115 6.33373 19.9741 6.50325C20.0366 6.67277 20.1496 6.8191 20.2977 6.92257C20.4458 7.02604 20.6221 7.0817 20.8028 7.08208H22.5733V9.28903C22.5733 9.52381 22.6666 9.74898 22.8326 9.915C22.9986 10.081 23.2238 10.1743 23.4585 10.1743C23.6933 10.1743 23.9185 10.081 24.0845 9.915C24.2505 9.74898 24.3438 9.52381 24.3438 9.28903V6.19682C24.3438 5.96203 24.2505 5.73686 24.0845 5.57084C23.9185 5.40483 23.6933 5.31156 23.4585 5.31156H23.193L26.9996 2.05115L30.8062 5.31156H30.5406C30.3058 5.31156 30.0807 5.40483 29.9146 5.57084C29.7486 5.73686 29.6554 5.96203 29.6554 6.19682V11.7279C28.7777 11.5815 27.8894 11.5081 26.9996 11.5084C24.5336 11.5102 22.1022 12.089 19.8998 13.1983L10.3948 3.6933L12.5761 1.51114C12.6998 1.38733 12.7841 1.22961 12.8182 1.05791C12.8524 0.886214 12.8349 0.708248 12.7679 0.546511C12.7009 0.384774 12.5874 0.246529 12.4419 0.149253C12.2964 0.0519772 12.1252 3.73795e-05 11.9502 0H1.32706C1.09228 0 0.867107 0.0932681 0.701089 0.259286C0.535071 0.425305 0.441803 0.650474 0.441803 0.885259V11.5084C0.44184 11.6834 0.49378 11.8546 0.591056 12.0001C0.688332 12.1456 0.826577 12.2591 0.988313 12.3261C1.15005 12.3931 1.32802 12.4106 1.49972 12.3764C1.67141 12.3423 1.82914 12.258 1.95294 12.1343L4.13422 9.95209L6.24025 12.0581C6.32191 12.1427 6.4196 12.2101 6.5276 12.2565C6.63561 12.3029 6.75177 12.3273 6.86932 12.3283C6.98686 12.3294 7.10343 12.307 7.21223 12.2625C7.32102 12.2179 7.41986 12.1522 7.50298 12.0691C7.5861 11.986 7.65183 11.8871 7.69635 11.7783C7.74086 11.6695 7.76326 11.553 7.76223 11.4354C7.76121 11.3179 7.73679 11.2017 7.6904 11.0937C7.644 10.9857 7.57656 10.888 7.49201 10.8064L4.7601 8.07445C4.59096 7.91451 4.36701 7.82539 4.13422 7.82539C3.90143 7.82539 3.67748 7.91451 3.50834 8.07445L2.21232 9.37136V1.77052H9.81316L8.51714 3.06742C8.35118 3.23343 8.25795 3.45856 8.25795 3.6933C8.25795 3.92804 8.35118 4.15317 8.51714 4.31918L18.3046 14.1066C16.8129 15.0853 15.4949 16.306 14.405 17.7185L9.99641 13.3099C9.91475 13.2253 9.81706 13.1579 9.70906 13.1115C9.60105 13.0651 9.48489 13.0407 9.36734 13.0396C9.2498 13.0386 9.13323 13.061 9.02443 13.1055C8.91564 13.1501 8.8168 13.2158 8.73368 13.2989C8.65056 13.382 8.58483 13.4809 8.54031 13.5897C8.4958 13.6985 8.4734 13.815 8.47443 13.9326C8.47545 14.0501 8.49987 14.1663 8.54626 14.2743C8.59266 14.3823 8.6601 14.48 8.74465 14.5616L13.3861 19.2039C12.7381 20.2627 12.2166 21.3938 11.8324 22.5741H7.08125V20.8036C7.08105 20.6228 7.02552 20.4465 6.92212 20.2982C6.81872 20.1499 6.6724 20.0368 6.50284 19.9742C6.33328 19.9115 6.1486 19.9023 5.97362 19.9477C5.79865 19.9931 5.64177 20.091 5.52408 20.2282L0.212521 26.425C0.0753678 26.5853 0 26.7894 0 27.0004C0 27.2114 0.0753678 27.4155 0.212521 27.5758L5.52408 33.7726C5.60709 33.8697 5.71013 33.9477 5.82611 34.0011C5.94209 34.0546 6.06827 34.0824 6.19599 34.0825C6.30079 34.0821 6.40474 34.0636 6.50317 34.0276C6.67283 33.9648 6.81918 33.8516 6.92253 33.7031C7.02588 33.5547 7.08127 33.3781 7.08125 33.1972V31.4267H11.589C11.8673 32.5034 12.2581 33.5479 12.7549 34.5428L4.13422 43.1635L1.95294 40.9813C1.82914 40.8575 1.67141 40.7733 1.49972 40.7391C1.32802 40.705 1.15005 40.7225 0.988313 40.7895C0.826577 40.8565 0.688332 40.9699 0.591056 41.1155C0.49378 41.261 0.44184 41.4321 0.441803 41.6072V52.2303C0.441803 52.4651 0.535071 52.6903 0.701089 52.8563C0.867107 53.0223 1.09228 53.1156 1.32706 53.1156H11.9502C12.1252 53.1155 12.2964 53.0636 12.4419 52.9663C12.5874 52.869 12.7009 52.7308 12.7679 52.5691C12.8349 52.4073 12.8524 52.2294 12.8182 52.0577C12.7841 51.886 12.6998 51.7282 12.5761 51.6044L10.3948 49.4223L17.0024 42.8147C17.0869 42.733 17.1543 42.6353 17.2007 42.5273C17.2471 42.4193 17.2716 42.3032 17.2726 42.1856C17.2736 42.0681 17.2512 41.9515 17.2067 41.8427C17.1622 41.7339 17.0964 41.6351 17.0133 41.552C16.9302 41.4688 16.8314 41.4031 16.7226 41.3586C16.6138 41.3141 16.4972 41.2917 16.3797 41.2927C16.2621 41.2937 16.146 41.3181 16.0379 41.3645C15.9299 41.4109 15.8323 41.4784 15.7506 41.5629L8.51714 48.7964C8.35118 48.9624 8.25795 49.1875 8.25795 49.4223C8.25795 49.657 8.35118 49.8821 8.51714 50.0481L9.81316 51.345H2.21232V43.7442L3.50834 45.0411C3.67435 45.2071 3.89948 45.3003 4.13422 45.3003C4.36896 45.3003 4.59409 45.2071 4.7601 45.0411L13.6632 36.1381C15.7505 39.3311 18.9108 41.6725 22.5733 42.7394V46.9188H20.8028C20.6219 46.9188 20.4454 46.9742 20.297 47.0775C20.1486 47.1808 20.0354 47.3271 19.9726 47.4967C19.9099 47.6663 19.9005 47.8511 19.9459 48.0262C19.9913 48.2012 20.0892 48.3582 20.2265 48.4759L26.4233 53.7875C26.5836 53.9246 26.7877 54 26.9987 54C27.2097 54 27.4138 53.9246 27.5741 53.7875L33.7709 48.4759C33.9081 48.3583 34.0059 48.2015 34.0514 48.0266C34.0968 47.8517 34.0876 47.6671 34.0251 47.4976C33.9625 47.3281 33.8496 47.1817 33.7015 47.0783C33.5533 46.9748 33.3771 46.9191 33.1964 46.9188H31.4259V42.7394C32.7654 42.3492 34.0474 41.7837 35.2387 41.0574L43.6053 49.4231L41.4231 51.6053C41.2997 51.7292 41.2156 51.8868 41.1817 52.0584C41.1477 52.2299 41.1653 52.4077 41.2323 52.5692C41.2992 52.7308 41.4125 52.8689 41.5579 52.9661C41.7032 53.0634 41.8741 53.1154 42.049 53.1156H52.6721C52.9069 53.1156 53.1321 53.0223 53.2981 52.8563C53.4641 52.6903 53.5574 52.4651 53.5574 52.2303V41.6072C53.5573 41.4321 53.5054 41.261 53.4081 41.1155C53.3108 40.9699 53.1726 40.8565 53.0109 40.7895C52.8491 40.7225 52.6712 40.705 52.4995 40.7391C52.3278 40.7733 52.17 40.8575 52.0462 40.9813L49.865 43.1635L47.7589 41.0574C47.592 40.8962 47.3683 40.807 47.1362 40.809C46.9041 40.811 46.6821 40.9041 46.5179 41.0682C46.3538 41.2324 46.2607 41.4544 46.2587 41.6865C46.2567 41.9186 46.3459 42.1422 46.5072 42.3092L49.2391 45.0411C49.4082 45.2011 49.6322 45.2902 49.865 45.2902C50.0977 45.2902 50.3217 45.2011 50.4908 45.0411L51.7868 43.7442V51.345H44.186L45.4829 50.0481C45.6489 49.8821 45.7421 49.657 45.7421 49.4223C45.7421 49.1875 45.6489 48.9624 45.4829 48.7964L36.7233 40.0385C38.136 38.9483 39.357 37.6301 40.336 36.1381L44.0028 39.8048C44.1697 39.9661 44.3933 40.0553 44.6255 40.0533C44.8576 40.0513 45.0796 39.9582 45.2437 39.794C45.4079 39.6299 45.501 39.4079 45.503 39.1757C45.505 38.9436 45.4158 38.72 45.2545 38.553L41.2443 34.5428C41.7411 33.5479 42.1319 32.5034 42.4102 31.4267H46.9179V33.1972C46.9179 33.3781 46.9733 33.5547 47.0766 33.7031C47.18 33.8516 47.3263 33.9648 47.496 34.0276ZM6.19599 29.6562C5.9612 29.6562 5.73603 29.7495 5.57002 29.9155C5.404 30.0815 5.31073 30.3067 5.31073 30.5415V30.807L2.05032 27.0004L5.31073 23.1938V23.4594C5.31073 23.6942 5.404 23.9193 5.57002 24.0853C5.73603 24.2514 5.9612 24.3446 6.19599 24.3446H11.373C11.0145 26.0932 10.9684 27.8915 11.2367 29.6562H6.19599ZM30.5406 48.6893H30.8062L26.9996 51.9497L23.193 48.6893H23.4585C23.6933 48.6893 23.9185 48.596 24.0845 48.43C24.2505 48.264 24.3438 48.0388 24.3438 47.804V43.1378C26.0999 43.4577 27.8993 43.4577 29.6554 43.1378V47.804C29.6554 48.0388 29.7486 48.264 29.9146 48.43C30.0807 48.596 30.3058 48.6893 30.5406 48.6893ZM42.7625 29.6562C43.0319 27.8914 42.9842 26.0927 42.6218 24.3446H47.8032C48.038 24.3446 48.2631 24.2514 48.4292 24.0853C48.5952 23.9193 48.6884 23.6942 48.6884 23.4594V23.1938L51.9489 27.0004L48.6884 30.807V30.5415C48.6884 30.3067 48.5952 30.0815 48.4292 29.9155C48.2631 29.7495 48.038 29.6562 47.8032 29.6562H42.7625Z" fill="#FF7500"/>
<path d="M30.5401 17.7051C30.5401 17.4703 30.4468 17.2451 30.2808 17.0791C30.1148 16.9131 29.8896 16.8198 29.6549 16.8198H22.5728C22.338 16.8198 22.1128 16.9131 21.9468 17.0791C21.7808 17.2451 21.6875 17.4703 21.6875 17.7051V20.3609H19.0317C18.797 20.3609 18.5718 20.4541 18.4058 20.6201C18.2398 20.7862 18.1465 21.0113 18.1465 21.2461V35.4103C18.1465 35.6451 18.2398 35.8702 18.4058 36.0362C18.5718 36.2023 18.797 36.2955 19.0317 36.2955H22.5728C22.8076 36.2955 23.0327 36.2023 23.1988 36.0362C23.3648 35.8702 23.458 35.6451 23.458 35.4103V32.7545H25.2994C25.534 34.2951 26.3405 35.6908 27.5582 36.6634C28.7758 37.636 30.3152 38.1141 31.8696 38.0024C33.424 37.8907 34.8792 37.1975 35.9454 36.0609C37.0115 34.9242 37.6102 33.4276 37.6222 31.8692C37.6226 30.9456 37.4144 30.0339 37.0131 29.2019C36.903 29.0059 36.7225 28.8592 36.5081 28.7914C36.2938 28.7236 36.0617 28.74 35.8589 28.837C35.6562 28.9341 35.498 29.1047 35.4164 29.3142C35.3348 29.5237 35.336 29.7564 35.4197 29.965C35.8051 30.7628 35.9391 31.6587 35.8041 32.5343C35.6691 33.4099 35.2714 34.2239 34.6637 34.8685C34.4149 34.3122 34.0267 33.8295 33.5367 33.4671C33.8888 33.0088 34.0801 32.4472 34.0812 31.8692C34.0812 31.1649 33.8013 30.4894 33.3033 29.9913C32.8052 29.4933 32.1297 29.2135 31.4254 29.2135C30.721 29.2135 30.0455 29.4933 29.5475 29.9913C29.0494 30.4894 28.7696 31.1649 28.7696 31.8692C28.7726 32.4461 28.9652 33.006 29.3176 33.4627C28.8276 33.8251 28.4394 34.3078 28.1906 34.8641C27.4877 34.1122 27.0697 33.1384 27.0087 32.111C26.9478 31.0835 27.2478 30.0671 27.8569 29.2375C28.466 28.4078 29.3459 27.8171 30.3444 27.5675C31.3429 27.3179 32.3973 27.4251 33.3251 27.8705C33.4307 27.9294 33.5472 27.966 33.6674 27.9782C33.7877 27.9903 33.9091 27.9777 34.0243 27.9411C34.1395 27.9046 34.246 27.8448 34.3372 27.7655C34.4284 27.6862 34.5024 27.5891 34.5546 27.4801C34.6069 27.3711 34.6363 27.2526 34.641 27.1319C34.6457 27.0111 34.6256 26.8906 34.582 26.7779C34.5384 26.6652 34.4722 26.5626 34.3874 26.4765C34.3026 26.3904 34.2011 26.3225 34.0891 26.2771L34.0812 26.2762V23.0166C34.0812 22.7819 33.9879 22.5567 33.8219 22.3907C33.6559 22.2246 33.4307 22.1314 33.1959 22.1314H30.5401V17.7051ZM29.6912 35.9414C29.7733 35.5421 29.9907 35.1834 30.3066 34.9258C30.6226 34.6682 31.0177 34.5276 31.4254 34.5276C31.833 34.5276 32.2282 34.6682 32.5441 34.9258C32.8601 35.1834 33.0775 35.5421 33.1596 35.9414C32.6116 36.1762 32.0216 36.2973 31.4254 36.2973C30.8292 36.2973 30.2392 36.1762 29.6912 35.9414ZM30.5401 31.8692C30.5401 31.6941 30.592 31.523 30.6893 31.3774C30.7866 31.2318 30.9248 31.1184 31.0866 31.0514C31.2484 30.9844 31.4264 30.9668 31.5981 31.001C31.7698 31.0351 31.9275 31.1195 32.0513 31.2433C32.1752 31.3671 32.2595 31.5248 32.2936 31.6965C32.3278 31.8683 32.3103 32.0462 32.2432 32.208C32.1762 32.3698 32.0628 32.508 31.9172 32.6053C31.7716 32.7026 31.6005 32.7545 31.4254 32.7545C31.1906 32.7545 30.9654 32.6612 30.7994 32.4952C30.6334 32.3292 30.5401 32.104 30.5401 31.8692ZM28.7696 20.3609H26.9991V18.5903H28.7696V20.3609ZM27.0973 27.4429H19.917V25.6724H28.7696V26.2788C28.1521 26.5725 27.5871 26.9658 27.0973 27.4429ZM23.458 18.5903H25.2286V20.3609H23.458V18.5903ZM28.7696 22.1314V23.9019H19.917V22.1314H28.7696ZM22.5728 30.984C22.338 30.984 22.1128 31.0772 21.9468 31.2433C21.7808 31.4093 21.6875 31.6344 21.6875 31.8692V34.525H19.917V29.2135H25.835C25.5681 29.7732 25.3875 30.3701 25.2994 30.984H22.5728ZM32.3106 23.9019V25.7441C32.0177 25.6989 31.7218 25.6749 31.4254 25.6724C31.129 25.6749 30.8331 25.6986 30.5401 25.7432V23.9019H32.3106Z" fill="#FF7500"/>
</svg>
