<svg width="54" height="54" viewBox="0 0 54 54" fill="none" xmlns="http://www.w3.org/2000/svg">
<path d="M36.0746 36.7426L30.2052 40.9354H23.7948L17.9254 36.7426C17.7777 36.6372 17.6008 36.5805 17.4194 36.5806H0V38.3225H17.1406L23.0101 42.5153C23.1578 42.6207 23.3347 42.6774 23.5161 42.6773H30.4839C30.6653 42.6774 30.8422 42.6207 30.9899 42.5153L36.8594 38.3225H54V36.5806H36.5806C36.3992 36.5805 36.2223 36.6372 36.0746 36.7426Z" fill="#BF00FF"/>
<path d="M30.9899 48.0653C30.8422 47.9599 30.6653 47.9033 30.4839 47.9033H23.5161C23.3347 47.9033 23.1578 47.9599 23.0101 48.0653L17.1406 52.2582H0V54.0001H17.4194C17.6008 54.0001 17.7777 53.9435 17.9254 53.8381L23.7948 49.6453H30.2052L36.0746 53.8381C36.2223 53.9435 36.3992 54.0001 36.5806 54.0001H54V52.2582H36.8594L30.9899 48.0653Z" fill="#BF00FF"/>
<path d="M29.6126 2.02152V1.30645C29.6126 0.959959 29.4749 0.627658 29.2299 0.382651C28.9849 0.137644 28.6526 0 28.3061 0H25.6932C25.3467 0 25.0144 0.137644 24.7694 0.382651C24.5244 0.627658 24.3868 0.959959 24.3868 1.30645V2.02065C23.6072 2.19319 22.8464 2.44174 22.1153 2.76271L21.6798 2.15826C21.4732 1.88536 21.1677 1.70446 20.8291 1.65446C20.4905 1.60446 20.1457 1.68935 19.8691 1.89087L17.7509 3.43335C17.4726 3.63609 17.286 3.94086 17.2319 4.28091C17.1779 4.62096 17.2608 4.96857 17.4626 5.24758L17.885 5.83374C17.3539 6.43177 16.8833 7.0809 16.4801 7.77165L15.8147 7.55652C15.6512 7.5002 15.4781 7.47705 15.3055 7.48842C15.1329 7.49979 14.9643 7.54546 14.8096 7.62274C14.6549 7.70002 14.5171 7.80738 14.4043 7.93852C14.2916 8.06967 14.2061 8.22198 14.1529 8.38655L13.4796 10.4516H11.0932C10.5078 9.60964 9.71911 8.92924 8.80042 8.47358C7.88172 8.01793 6.86279 7.80178 5.83822 7.84523C4.81365 7.88867 3.81667 8.19029 2.93985 8.72208C2.06302 9.25387 1.33478 9.99859 0.822743 10.8871C0.746337 11.0194 0.706094 11.1695 0.706055 11.3224C0.706015 11.4752 0.746181 11.6253 0.822519 11.7577C0.898857 11.8901 1.00868 12 1.14096 12.0765C1.27324 12.153 1.42332 12.1934 1.57613 12.1935H5.22548V15.6774H1.57613C1.42332 15.6776 1.27324 15.7179 1.14096 15.7944C1.00868 15.8709 0.898857 15.9809 0.822519 16.1133C0.746181 16.2457 0.706015 16.3958 0.706055 16.5486C0.706094 16.7014 0.746337 16.8515 0.822743 16.9839C1.33478 17.8724 2.06302 18.6171 2.93985 19.1489C3.81667 19.6807 4.81365 19.9823 5.83822 20.0257C6.86279 20.0692 7.88172 19.853 8.80042 19.3974C9.71911 18.9417 10.5078 18.2613 11.0932 17.4194H13.4788L14.1477 19.4696C14.1994 19.6344 14.2833 19.7872 14.3945 19.9193C14.5057 20.0515 14.6419 20.1602 14.7954 20.2394C14.9489 20.3185 15.1165 20.3664 15.2887 20.3803C15.4608 20.3943 15.6339 20.374 15.7982 20.3205L16.481 20.0993C16.8844 20.7894 17.3549 21.438 17.8859 22.0355L17.4643 22.619C17.2624 22.8986 17.1792 23.2467 17.2329 23.5874C17.2865 23.928 17.4727 24.2337 17.7509 24.4376L19.8682 25.9784C20.1494 26.1819 20.4998 26.2656 20.8426 26.2112C21.1855 26.1569 21.4928 25.9688 21.6972 25.6883L22.1162 25.1065C22.8467 25.4284 23.6073 25.6772 24.3868 25.8495V26.5645C24.3868 26.911 24.5244 27.2433 24.7694 27.4883C25.0144 27.7333 25.3467 27.871 25.6932 27.871H28.3061C28.6526 27.871 28.9849 27.7333 29.2299 27.4883C29.4749 27.2433 29.6126 26.911 29.6126 26.5645V25.8503C30.3922 25.6778 31.153 25.4292 31.8841 25.1083L32.3196 25.7127C32.5262 25.9856 32.8316 26.1665 33.1703 26.2165C33.5089 26.2665 33.8536 26.1816 34.1303 25.9801L36.2476 24.4376C36.5259 24.2349 36.7125 23.9301 36.7666 23.5901C36.8206 23.25 36.7377 22.9024 36.5359 22.6234L36.1135 22.0372C36.6446 21.4392 37.1152 20.7901 37.5184 20.0993L38.1838 20.3145C38.3473 20.3708 38.5204 20.3939 38.693 20.3825C38.8656 20.3712 39.0342 20.3255 39.1889 20.2482C39.3436 20.1709 39.4814 20.0636 39.5941 19.9324C39.7069 19.8013 39.7924 19.649 39.8456 19.4844L40.5197 17.4194H42.9062C43.4916 18.2613 44.2802 18.9417 45.1989 19.3974C46.1176 19.853 47.1366 20.0692 48.1611 20.0257C49.1857 19.9823 50.1827 19.6807 51.0595 19.1489C51.9363 18.6171 52.6646 17.8724 53.1766 16.9839C53.253 16.8515 53.2933 16.7014 53.2933 16.5486C53.2933 16.3958 53.2532 16.2457 53.1768 16.1133C53.1005 15.9809 52.9907 15.8709 52.8584 15.7944C52.7261 15.7179 52.576 15.6776 52.4232 15.6774H48.7739V12.1935H52.4232C52.576 12.1934 52.7261 12.153 52.8584 12.0765C52.9907 12 53.1005 11.8901 53.1768 11.7577C53.2532 11.6253 53.2933 11.4752 53.2933 11.3224C53.2933 11.1695 53.253 11.0194 53.1766 10.8871C52.6646 9.99859 51.9363 9.25387 51.0595 8.72208C50.1827 8.19029 49.1857 7.88867 48.1611 7.84523C47.1366 7.80178 46.1176 8.01793 45.1989 8.47358C44.2802 8.92924 43.4916 9.60964 42.9062 10.4516H40.5206L39.8517 8.40135C39.8 8.23611 39.7159 8.0828 39.6044 7.95033C39.493 7.81785 39.3563 7.70886 39.2023 7.62968C39.0483 7.5505 38.8801 7.50272 38.7075 7.48911C38.5349 7.47551 38.3613 7.49635 38.1968 7.55042L37.514 7.77165C37.112 7.08174 36.6429 6.43321 36.1135 5.83548L36.535 5.25194C36.737 4.97236 36.8202 4.62428 36.7665 4.2836C36.7128 3.94292 36.5266 3.63728 36.2485 3.43335L34.1312 1.89174C33.85 1.68801 33.4996 1.60412 33.1567 1.65849C32.8138 1.71287 32.5064 1.90106 32.3021 2.18177L31.8832 2.76358C31.1526 2.44201 30.3921 2.19345 29.6126 2.02152ZM10.6168 15.6774C10.4642 15.6777 10.3144 15.7181 10.1823 15.7945C10.0502 15.871 9.94055 15.9808 9.86426 16.1129C9.55814 16.6461 9.14216 17.1082 8.64389 17.4684C8.14563 17.8286 7.57647 18.0788 6.97416 18.2024C6.37185 18.3259 5.75016 18.32 5.15032 18.185C4.55047 18.05 3.98618 17.789 3.49487 17.4194H6.09645C6.32745 17.4194 6.54898 17.3276 6.71232 17.1643C6.87566 17.0009 6.96742 16.7794 6.96742 16.5484V11.3226C6.96742 11.0916 6.87566 10.8701 6.71232 10.7067C6.54898 10.5434 6.32745 10.4516 6.09645 10.4516H3.49487C3.98618 10.082 4.55047 9.82097 5.15032 9.68597C5.75016 9.55098 6.37185 9.54506 6.97416 9.6686C7.57647 9.79214 8.14563 10.0423 8.64389 10.4026C9.14216 10.7628 9.55814 11.2248 9.86426 11.7581C9.94055 11.8902 10.0502 12 10.1823 12.0764C10.3144 12.1528 10.4642 12.1932 10.6168 12.1935H31.3998C31.1352 11.5295 30.7237 10.934 30.1961 10.4516H21.5579C22.2017 9.43843 23.1151 8.62462 24.1955 8.10139C25.2759 7.57816 26.4807 7.3662 27.6748 7.48927C28.869 7.61235 30.0052 8.06559 30.9562 8.79819C31.9072 9.53079 32.6353 10.5138 33.059 11.637C33.6211 13.1196 33.6211 14.7566 33.059 16.2392C32.6348 17.3621 31.9062 18.3446 30.9549 19.0767C30.0036 19.8087 28.8673 20.2614 27.6732 20.3839C26.4791 20.5065 25.2745 20.294 24.1944 19.7704C23.1143 19.2468 22.2013 18.4327 21.5579 17.4194H30.1996C30.7274 16.9376 31.1384 16.3418 31.4016 15.6774H10.6168ZM39.1314 12.7379L39.7716 12.5306C39.9851 12.4712 40.1784 12.3546 40.3307 12.1935H43.3791C43.5317 12.1932 43.6815 12.1528 43.8136 12.0764C43.9456 12 44.0553 11.8902 44.1316 11.7581C44.4377 11.2243 44.8538 10.7618 45.3524 10.4012C45.8509 10.0406 46.4205 9.79024 47.0232 9.66667C47.626 9.54311 48.2481 9.54919 48.8483 9.68453C49.4485 9.81986 50.0131 10.0813 50.5045 10.4516H47.9029C47.6719 10.4516 47.4504 10.5434 47.287 10.7067C47.1237 10.8701 47.0319 11.0916 47.0319 11.3226V16.5484C47.0319 16.7794 47.1237 17.0009 47.287 17.1643C47.4504 17.3276 47.6719 17.4194 47.9029 17.4194H50.5045C50.0132 17.789 49.4489 18.05 48.849 18.185C48.2492 18.32 47.6275 18.3259 47.0252 18.2024C46.4229 18.0788 45.8537 17.8286 45.3555 17.4684C44.8572 17.1082 44.4412 16.6461 44.1351 16.1129C44.0588 15.9808 43.9491 15.871 43.8171 15.7945C43.685 15.7181 43.5352 15.6777 43.3826 15.6774H40.3342C40.1935 15.523 40.0125 15.4108 39.8116 15.3534L39.1253 15.1331C39.1662 14.7263 39.1871 14.3248 39.1871 13.9355C39.1886 13.5356 39.17 13.1359 39.1314 12.7379ZM33.0886 4.0709L33.4588 3.55616L34.8689 4.58303L34.4952 5.09952C34.3146 5.34501 34.2263 5.64638 34.2461 5.95054C34.2659 6.25471 34.3923 6.54214 34.6032 6.76219C35.217 7.41392 35.744 8.14229 36.171 8.92916C36.3197 9.19348 36.5551 9.39844 36.8373 9.50949C37.1195 9.62055 37.4314 9.63091 37.7204 9.53884L38.3301 9.342L38.8701 10.9968L38.2404 11.1989C37.9562 11.3008 37.7152 11.4964 37.5569 11.7534C37.3986 12.0105 37.3325 12.3137 37.3694 12.6134C37.4884 13.4948 37.4884 14.3883 37.3694 15.2698C37.3347 15.5721 37.4045 15.8773 37.5672 16.1344C37.73 16.3916 37.9758 16.5853 38.2639 16.6834L38.8736 16.8785L38.3336 18.5333L37.7117 18.3313C37.4218 18.243 37.1104 18.2572 36.8298 18.3716C36.5492 18.4859 36.3165 18.6935 36.171 18.9592C35.7507 19.733 35.2332 20.4498 34.6311 21.0922C34.414 21.3101 34.2813 21.5981 34.2569 21.9047C34.2325 22.2114 34.3179 22.5167 34.4978 22.7662L34.8758 23.2888L33.4675 24.3148L33.0965 23.8105C32.9181 23.5597 32.6573 23.3795 32.3596 23.3013C32.062 23.2232 31.7463 23.252 31.4677 23.3829C30.6671 23.7642 29.8209 24.0414 28.9498 24.2077C28.6471 24.2601 28.3727 24.4179 28.1752 24.6532C27.9777 24.8885 27.8698 25.186 27.8706 25.4932V26.129H26.1287V25.4932C26.1295 25.1885 26.023 24.8932 25.8279 24.6592C25.6329 24.4251 25.3616 24.2671 25.0618 24.2129C24.1814 24.0451 23.3264 23.7647 22.5177 23.3785C22.2422 23.2517 21.9313 23.2247 21.6381 23.3021C21.3449 23.3795 21.0877 23.5565 20.9107 23.8027L20.5406 24.3174L19.1305 23.2905L19.5041 22.7741C19.6848 22.5286 19.773 22.2272 19.7533 21.923C19.7335 21.6189 19.607 21.3314 19.3961 21.1114C18.7823 20.4597 18.2554 19.7313 17.8284 18.9444C17.6798 18.68 17.4444 18.4749 17.1622 18.3639C16.8799 18.2528 16.5679 18.2425 16.2789 18.3347L15.6693 18.5316L15.3104 17.4194H19.5529C20.2372 18.882 21.337 20.1108 22.7151 20.9524C24.0933 21.794 25.6887 22.2112 27.3024 22.1518C28.9162 22.0924 30.4767 21.5592 31.7893 20.6186C33.1018 19.6781 34.1084 18.3718 34.6834 16.8628C35.3999 14.9788 35.3999 12.8974 34.6834 11.0134C34.109 9.50415 33.1029 8.19747 31.7906 7.2564C30.4783 6.31533 28.9179 5.78153 27.3042 5.72161C25.6904 5.6617 24.0948 6.07832 22.7163 6.91949C21.3379 7.76065 20.2376 8.98913 19.5529 10.4516H15.3104L15.6771 9.34113L16.299 9.54319C16.5888 9.63165 16.9003 9.6175 17.181 9.50311C17.4616 9.38873 17.6943 9.18111 17.8397 8.91523C18.26 8.1415 18.7775 7.42468 19.3796 6.78223C19.5962 6.5639 19.7282 6.27569 19.7519 5.96906C19.7757 5.66243 19.6897 5.35733 19.5094 5.10823L19.1314 4.58565L20.5397 3.55965L20.9029 4.06045C21.0813 4.31126 21.342 4.49147 21.6397 4.56963C21.9374 4.64779 22.253 4.61893 22.5316 4.4881C23.3323 4.10678 24.1785 3.82959 25.0496 3.66329C25.3523 3.61086 25.6266 3.45304 25.8241 3.21776C26.0216 2.98249 26.1295 2.68492 26.1287 2.37774V1.74194H27.8706V2.37774C27.8699 2.68245 27.9764 2.97772 28.1714 3.21181C28.3665 3.44589 28.6377 3.60387 28.9376 3.65806C29.8179 3.82584 30.673 4.10628 31.4817 4.49245C31.7568 4.61949 32.0676 4.6469 32.3608 4.56999C32.6539 4.49309 32.9112 4.31665 33.0886 4.0709Z" fill="#BF00FF"/>
<path d="M19.1611 44.4194H20.9031V46.1614H19.1611V44.4194Z" fill="#BF00FF"/>
<path d="M26.1289 44.4194H27.8708V46.1614H26.1289V44.4194Z" fill="#BF00FF"/>
<path d="M1.74219 40.9355H3.48412V42.6775H1.74219V40.9355Z" fill="#BF00FF"/>
<path d="M13.0645 40.9355H14.8064V42.6775H13.0645V40.9355Z" fill="#BF00FF"/>
<path d="M7.83887 43.5483H9.5808V45.2903H7.83887V43.5483Z" fill="#BF00FF"/>
<path d="M3.4834 47.0322H5.22533V48.7742H3.4834V47.0322Z" fill="#BF00FF"/>
<path d="M12.1934 47.9033H13.9353V49.6453H12.1934V47.9033Z" fill="#BF00FF"/>
<path d="M33.0967 46.1611H48.7741L47.3806 47.2063L48.4257 48.5998L51.9096 45.9869C52.0178 45.9058 52.1056 45.8006 52.166 45.6797C52.2265 45.5587 52.258 45.4254 52.258 45.2901C52.258 45.1549 52.2265 45.0216 52.166 44.9006C52.1056 44.7797 52.0178 44.6745 51.9096 44.5934L48.4257 41.9805L47.3806 43.374L48.7741 44.4192H33.0967V46.1611Z" fill="#BF00FF"/>
<path d="M30.4843 30.9194H23.5166C23.3589 30.9194 23.2042 30.9622 23.0689 31.0432C22.9336 31.1242 22.8229 31.2405 22.7485 31.3795C22.6741 31.5185 22.6389 31.6752 22.6465 31.8327C22.6542 31.9902 22.7044 32.1426 22.792 32.2738L26.2758 37.4996C26.3554 37.6189 26.4631 37.7167 26.5895 37.7843C26.716 37.852 26.8571 37.8874 27.0005 37.8874C27.1438 37.8874 27.285 37.852 27.4114 37.7843C27.5378 37.7167 27.6456 37.6189 27.7251 37.4996L31.209 32.2738C31.2965 32.1426 31.3468 31.9902 31.3544 31.8327C31.3621 31.6752 31.3268 31.5185 31.2524 31.3795C31.178 31.2405 31.0673 31.1242 30.932 31.0432C30.7968 30.9622 30.642 30.9194 30.4843 30.9194ZM27.0005 35.4485L25.1436 32.6614H28.8574L27.0005 35.4485Z" fill="#BF00FF"/>
</svg>
