<svg width="52" height="54" viewBox="0 0 52 54" fill="none" xmlns="http://www.w3.org/2000/svg">
<path d="M42.258 19.6724C42.4046 19.7436 42.5645 19.7792 42.7247 19.7792C42.8924 19.7792 43.0601 19.7402 43.2123 19.6622C44.0671 19.2241 46.8581 17.6234 46.8902 15.421C46.9359 14.101 45.7177 12.7432 44.2071 12.7674C43.6771 12.7674 43.1664 12.9168 42.7298 13.1946C42.2965 12.9165 41.7918 12.7674 41.2681 12.7674C39.8729 12.7529 38.5976 13.9577 38.566 15.3936C38.519 17.6792 41.3801 19.2466 42.258 19.6724V19.6724ZM41.2604 14.3494H41.2679C41.5418 14.3494 41.804 14.4527 42.0068 14.6407C42.0069 14.6409 42.007 14.641 42.0071 14.6411C42.4095 15.0137 43.0429 15.0139 43.4486 14.6417C43.6543 14.4532 43.9236 14.3494 44.2069 14.3494C44.6378 14.3565 45.2534 14.6939 45.2814 15.3982C45.2662 16.4407 43.7642 17.5447 42.7181 18.126C41.6608 17.5663 40.1525 16.4883 40.1743 15.4255C40.1861 14.8562 40.6936 14.3533 41.2604 14.3494V14.3494Z" fill="#FFC400"/>
<path d="M8.77989 19.6726C8.92651 19.7436 9.08632 19.7792 9.24634 19.7792C9.41409 19.7792 9.58184 19.7402 9.73404 19.6622C10.5887 19.2241 13.3797 17.6234 13.4119 15.4209C13.4574 14.1011 12.2392 12.7432 10.7287 12.7674C10.1987 12.7674 9.68813 12.9168 9.25138 13.1946C8.81292 12.9132 8.29981 12.7635 7.77071 12.7674C6.32071 12.7775 5.11698 13.9557 5.08748 15.3936C5.04072 17.6792 7.90167 19.2466 8.77989 19.6726V19.6726ZM7.78219 14.3494H7.7897C8.06363 14.3494 8.32576 14.4527 8.52848 14.6407C8.52858 14.6409 8.52869 14.641 8.5288 14.6411C8.93112 15.0136 9.56436 15.014 9.97032 14.6417C10.1759 14.4532 10.4453 14.3494 10.7286 14.3494C11.1595 14.3565 11.7751 14.6939 11.8031 15.3982C11.7879 16.4407 10.2859 17.5447 9.23969 18.126C8.18247 17.5663 6.67423 16.4883 6.69611 15.4255C6.7078 14.8561 7.21534 14.3533 7.78219 14.3494Z" fill="#FFC400"/>
<path d="M3.69271 22.1135H6.2808C6.37304 22.1135 6.45992 22.1489 6.52524 22.2129L8.27717 23.9322C8.5452 24.1952 8.89839 24.3268 9.2517 24.3268C9.60178 24.3268 9.95187 24.1976 10.2191 23.9389L12.005 22.2112C12.0701 22.1481 12.1563 22.1134 12.2477 22.1134H14.8048C16.3902 22.1134 17.6801 20.8452 17.6801 19.286V16.3202C18.0703 16.459 18.4908 16.5351 18.929 16.5351H22.3972C22.6618 16.5351 22.9139 16.6472 23.0887 16.8423L24.8423 18.8012C25.1461 19.1407 25.5843 19.3363 26.0442 19.3381H26.0506C26.5082 19.3381 26.9451 19.1462 27.2504 18.8107L29.0462 16.8369C29.2207 16.6451 29.4709 16.5351 29.7327 16.5351H33.1625C33.558 16.5351 33.9388 16.4726 34.2962 16.3586V19.2861C34.2962 20.8452 35.5859 22.1135 37.1715 22.1135H39.7596C39.8518 22.1135 39.9387 22.1489 40.004 22.2129L41.7559 23.9322C42.024 24.1952 42.3773 24.3268 42.7306 24.3268C43.0805 24.3268 43.4306 24.1976 43.698 23.9389L45.4839 22.2111C45.5491 22.1481 45.6353 22.1134 45.7267 22.1134H48.2838C49.8691 22.1134 51.159 20.8452 51.159 19.286V11.9459C51.159 10.3869 49.8692 9.11851 48.2838 9.11851H36.843V3.61916C36.843 1.62359 35.1918 0 33.1623 0H26.609C26.1646 0 25.8046 0.354059 25.8046 0.791016C25.8046 1.22797 26.1646 1.58203 26.609 1.58203H33.1623C34.3046 1.58203 35.234 2.49592 35.234 3.61916V12.9158C35.234 14.0392 34.3046 14.953 33.1623 14.953H29.7326C29.0137 14.953 28.3264 15.2552 27.8469 15.782L26.0499 17.7559L24.2964 15.797C23.8162 15.2607 23.124 14.953 22.3972 14.953H18.929C17.7866 14.953 16.8572 14.0392 16.8572 12.9158V3.61916C16.8572 2.49592 17.7866 1.58203 18.929 1.58203H22.855C23.2993 1.58203 23.6594 1.22797 23.6594 0.791016C23.6594 0.354059 23.2993 0 22.855 0H18.929C16.8995 0 15.2484 1.62359 15.2484 3.61916V9.11872H3.69271C2.10725 9.11872 0.817383 10.387 0.817383 11.9461V19.2862C0.817383 20.8453 2.10725 22.1135 3.69271 22.1135V22.1135ZM48.2837 10.7008C48.9819 10.7008 49.55 11.2594 49.55 11.9461V19.2862C49.55 19.9729 48.9819 20.5316 48.2837 20.5316H45.7266C45.2103 20.5316 44.7234 20.7276 44.3556 21.0835L42.7314 22.6546L41.1404 21.0931C40.7714 20.7309 40.2809 20.5315 39.7595 20.5315H37.1714C36.473 20.5315 35.9049 19.9728 35.9049 19.2861V15.3261C36.4876 14.6856 36.8428 13.8408 36.8428 12.9157V10.7006H48.2837V10.7008ZM2.42623 11.9461C2.42623 11.2594 2.99436 10.7008 3.69271 10.7008H15.2484V12.9158C15.2484 13.7783 15.5573 14.5709 16.0713 15.1934V19.2861C16.0713 19.9728 15.5031 20.5315 14.8048 20.5315H12.2477C11.7316 20.5315 11.2447 20.7275 10.8767 21.0834L9.25266 22.6545L7.66162 21.093C7.29255 20.7308 6.80218 20.5314 6.2807 20.5314H3.6926C2.99426 20.5314 2.42612 19.9727 2.42612 19.286V11.9461H2.42623Z" fill="#FFC400"/>
<path d="M20.0906 7.46042C20.0238 10.7179 24.226 13.0121 25.5151 13.6374C25.6804 13.7177 25.8608 13.7578 26.0412 13.7578C26.2303 13.7578 26.4192 13.7138 26.5908 13.6259C27.8487 12.9813 31.9563 10.6331 32.0023 7.48774C32.0704 5.6394 30.3558 3.80519 28.3155 3.84537C27.4886 3.84537 26.6965 4.10915 26.048 4.59484C25.3972 4.10346 24.6062 3.84232 23.7806 3.84537C21.7866 3.85919 20.1313 5.48088 20.0906 7.46042V7.46042ZM23.7922 5.42741C23.7971 5.4273 23.802 5.4273 23.807 5.4273C24.3371 5.4273 24.8438 5.62664 25.235 5.98924V5.98934C25.6878 6.409 26.4013 6.4089 26.8593 5.98913C27.2546 5.62664 27.7715 5.42741 28.3155 5.42741C29.3032 5.41053 30.4209 6.28982 30.3937 7.46506C30.368 9.21616 28.0726 11.043 26.0363 12.1244C23.9698 11.0829 21.6624 9.28577 21.699 7.49238C21.722 6.38074 22.6803 5.43511 23.7922 5.42741V5.42741Z" fill="#FFC400"/>
<path d="M51.5145 47.9132V36.3913C51.5145 31.6491 47.591 27.791 42.7684 27.791C41.3824 27.791 40.0022 28.1182 38.7771 28.7371C38.3819 28.9367 38.2261 29.4135 38.4292 29.8021C38.6322 30.1907 39.1172 30.3439 39.5123 30.1442C40.5252 29.6325 41.6207 29.373 42.7684 29.373C46.7039 29.373 49.9056 32.5214 49.9056 36.3913V46.5178C49.8836 46.5085 49.8627 46.4976 49.8405 46.4886H49.8406L45.7893 44.847V43.3006C47.3375 41.7806 48.5278 39.343 48.5278 37.1006C48.5278 34.2127 47.2203 31.9435 45.0302 31.0304C44.8312 30.9475 44.6066 30.9471 44.4067 31.0287C44.2681 31.0937 44.0149 31.2437 43.9301 31.5898C43.4452 33.766 41.7005 35.4734 39.4851 35.9395L37.644 36.327C37.3347 36.3858 37.0117 36.7507 37.0099 37.2588C37.0655 39.4795 38.236 41.8333 39.7478 43.3104V44.847L36.5475 46.1437C36.2894 45.8305 35.9813 45.556 35.6315 45.3303V36.3911C35.6315 34.9412 36.0772 33.5497 36.9203 32.3672C37.1754 32.0095 37.0873 31.5163 36.7235 31.2655C36.3596 31.0147 35.8581 31.1014 35.6031 31.459C34.5691 32.909 34.0228 34.6145 34.0228 36.3913V44.5981L29.6205 42.8144V39.8095C31.6359 38.2043 32.83 35.3163 33.0521 32.4752C34.1068 31.731 34.7226 30.2259 35.063 29.021C35.2961 28.196 35.1535 27.3154 34.6715 26.6048C34.3668 26.1556 33.9461 25.8046 33.4599 25.5826C33.5082 25.3189 33.5205 25.0482 33.4959 24.7762C33.3644 23.3258 32.1984 22.1812 30.7234 22.0547C30.1722 22.0075 29.6268 22.1078 29.1413 22.3341C28.5482 21.2124 27.3565 20.4609 26.0001 20.4609C25.3996 20.4609 24.8135 20.6111 24.2946 20.892C23.7627 20.4781 23.1045 20.25 22.407 20.25C21.0501 20.25 19.8971 21.1061 19.4991 22.3249C17.6274 22.6726 16.2398 24.2723 16.2398 26.209C16.2398 27.0914 16.5366 27.9389 17.0819 28.6301C17.0675 29.0743 17.069 29.8932 17.2188 30.679C17.5005 32.1559 18.4971 32.93 19.097 33.2713C19.1686 33.7874 19.2703 34.3014 19.4042 34.8033C19.4984 35.1015 19.8901 35.5004 20.3862 35.368C20.816 35.2573 21.0731 34.8249 20.9605 34.4023C20.8174 33.8652 20.7136 33.3123 20.6521 32.7591C20.6166 32.4533 20.7328 32.3188 21.4381 31.9803C21.9153 31.7558 22.5245 31.4692 22.9033 30.8796C24.506 31.0552 26.2967 30.1779 27.1669 28.8327C27.7153 29.1837 28.545 29.4984 29.4053 29.4135C29.8156 30.2756 30.3947 30.6682 30.8404 30.9703C31.3196 31.295 31.4672 31.396 31.47 31.993C31.3034 35.6898 29.2235 39.5072 26.0234 39.5072C24.2549 39.5072 23.0676 38.4022 22.383 37.4754C22.1218 37.1218 21.6188 37.0433 21.2594 37.3002C20.9 37.557 20.8202 38.0515 21.0812 38.4051C21.4911 38.9598 21.9422 39.4315 22.4284 39.8178V42.8145C21.1032 43.3513 18.3981 44.4475 17.0975 44.9744C16.452 45.2359 15.9053 45.6479 15.4889 46.1584L12.2525 44.8471V42.4149C13.3862 41.4256 14.3537 39.9782 14.864 38.3917C15.0942 38.3591 15.3005 38.2308 15.4272 38.0361C16.2635 36.7515 17.8699 32.856 15.2945 30.2917C14.2824 29.2839 12.8584 29.072 11.6835 29.2931C11.6342 29.1874 11.5782 29.0856 11.515 28.9885C10.4286 27.3195 7.62077 27.0854 5.12256 28.4559C4.73461 28.6687 4.5955 29.1505 4.81195 29.532C5.02839 29.9136 5.51834 30.0505 5.90639 29.8374C7.78016 28.8098 9.61864 29.0096 10.1601 29.8413C10.3842 30.1857 10.3986 30.7149 10.1995 31.2937C9.90394 32.1531 9.05683 33.2616 7.56575 33.7952C5.8474 34.4102 4.65964 35.3761 3.93019 36.1353C3.62762 35.0921 3.45344 33.6014 3.86884 32.2468C3.99712 31.8285 3.75622 31.3872 3.33084 31.261C2.90525 31.135 2.45671 31.3717 2.32843 31.7901C1.58621 34.2108 2.31341 36.987 3.03879 38.1012C3.16953 38.302 3.38415 38.4321 3.62119 38.4598C4.13752 40.0145 5.09478 41.4326 6.21089 42.4084V44.847C6.13721 44.8789 2.19264 46.4713 2.11445 46.5089C0.828769 47.0506 0 48.2815 0 49.6604V52.1531C0 53.1714 0.842499 54 1.87806 54H50.1219C51.1575 54 52 53.1716 52 52.1532V49.6603C52.0001 49.0296 51.8255 48.4304 51.5145 47.9132V47.9132ZM30.6968 28.2954C30.6377 28.0879 30.4951 27.9131 30.3021 27.8114C30.109 27.7096 29.8821 27.6898 29.6739 27.7562C29.4917 27.8143 29.3022 27.8438 29.1105 27.8438C28.505 27.8438 27.9402 27.5489 27.5996 27.0548C27.4276 26.8053 27.1265 26.6736 26.8221 26.7152C26.5183 26.7571 26.2651 26.9653 26.1695 27.2521C25.7566 28.4891 24.5895 29.3203 23.2651 29.3203C23.1159 29.3203 22.7547 29.2657 22.5579 29.2289C22.1301 29.1487 21.7153 29.4176 21.6215 29.8356C21.5521 30.1453 21.3132 30.2852 20.7437 30.5531C20.3188 30.753 19.7589 31.0164 19.3962 31.521C19.1435 31.2675 18.8979 30.9003 18.8001 30.3875C18.6244 29.4663 18.702 28.4292 18.7027 28.4195C18.7202 28.1995 18.6434 27.9823 18.491 27.8204C18.0768 27.3805 17.8485 26.8082 17.8485 26.2091C17.8485 24.9177 18.8766 23.8762 20.189 23.8382C20.5949 23.8263 20.9283 23.5188 20.9661 23.1211C21.0361 22.3862 21.6555 21.832 22.407 21.832C22.8615 21.832 23.2813 22.0379 23.5588 22.3968C23.6938 22.5714 23.8964 22.6831 24.1183 22.7051C24.3401 22.7271 24.5614 22.6576 24.7292 22.5131C25.0812 22.2099 25.5326 22.043 26.0001 22.043C26.983 22.043 27.8075 22.766 27.9177 23.7247C27.954 24.0397 28.1781 24.3031 28.4871 24.3938C28.7967 24.4849 29.1304 24.3848 29.3362 24.1408C29.6447 23.7751 30.0986 23.5889 30.5835 23.6307C31.2691 23.6895 31.8322 24.2423 31.8932 24.9167C31.9192 25.2027 31.8596 25.4848 31.7212 25.7327C31.5914 25.9648 31.5884 26.2455 31.7132 26.4803C31.8381 26.715 32.0741 26.8728 32.3421 26.9003C32.6959 26.9299 33.0521 27.1026 33.3328 27.4825C33.5548 27.8099 33.6205 28.2163 33.5127 28.5974C33.2869 29.3969 33.0036 30.0641 32.6964 30.5417C32.426 30.1234 32.0589 29.8745 31.7533 29.6675C31.2924 29.355 30.9281 29.1081 30.6968 28.2954V28.2954ZM39.8216 37.4868C42.2971 36.9658 44.3126 35.2324 45.1941 32.9458C46.288 33.7854 46.9188 35.273 46.9188 37.1007C46.9188 39.9393 44.4067 43.2233 42.7677 43.2233C41.2488 43.2233 38.9806 40.4278 38.6558 37.7322L39.8216 37.4868ZM24.5956 52.418C24.3003 49.6939 23.256 47.0628 21.6007 44.8609L23.0434 44.2764C23.8606 44.9885 24.9177 45.3893 26.0235 45.3894H26.0242C27.1324 45.3894 28.192 44.9871 29.006 44.2766L30.4258 44.852C28.7609 47.0533 27.7068 49.6897 27.4059 52.418H24.5956ZM31.9672 45.4764L34.3382 46.4372C35.2471 46.8053 35.8342 47.6678 35.8342 48.6343V52.418H29.0276C29.3384 49.8959 30.3638 47.4695 31.9672 45.4764V45.4764ZM26.0234 41.0891C26.7355 41.0891 27.3988 40.9622 28.0115 40.7317V43.0282C27.4775 43.5263 26.7676 43.8073 26.0243 43.8073C26.0242 43.8073 26.024 43.8073 26.0239 43.8073C25.2794 43.8072 24.5686 43.5252 24.0373 43.0288V40.7336C24.6646 40.9678 25.329 41.0891 26.0234 41.0891ZM14.6056 52.418H13.2027L14.6056 50.8164V52.418ZM14.6152 48.3815L11.0793 52.418H7.4186L3.7308 47.5631L6.83212 46.3066C7.49968 46.857 8.34701 47.1646 9.23112 47.1648H9.23176C10.1157 47.1648 10.9628 46.8574 11.6312 46.3065L14.7544 47.5719C14.6807 47.8333 14.633 48.104 14.6152 48.3815V48.3815ZM14.1499 31.4034C15.5501 32.7977 15.1092 34.9124 14.557 36.2375C14.0293 35.7229 13.2716 35.0632 12.3539 34.4856C11.7775 34.1228 11.311 33.6412 11.0296 33.1274C11.3257 32.7163 11.5619 32.2708 11.7235 31.8008C11.8323 31.4845 11.9003 31.1694 11.929 30.8627C12.5981 30.728 13.5247 30.7811 14.1499 31.4034V31.4034ZM4.97562 37.3513C5.54644 36.7258 6.56741 35.8364 8.11598 35.2821C8.76627 35.0494 9.36315 34.7185 9.88345 34.3128C10.2863 34.8897 10.8327 35.4064 11.4865 35.818C12.3169 36.3407 13.0068 36.9509 13.472 37.4093C12.8516 40.0066 10.6886 42.1686 9.23091 42.1686C7.77244 42.1685 5.5784 39.9697 4.97562 37.3513V37.3513ZM9.23101 43.7505C9.69554 43.7505 10.1721 43.6428 10.6437 43.4455V45.0555C10.2569 45.3932 9.7556 45.5826 9.23176 45.5826C9.23166 45.5826 9.23155 45.5826 9.23134 45.5826C8.70857 45.5825 8.20822 45.3937 7.81984 45.055V43.4431C8.29166 43.6416 8.76788 43.7505 9.23101 43.7505ZM1.60895 52.1531V49.6604C1.60895 49.1131 1.85178 48.6096 2.25603 48.2652L5.41044 52.418H1.87817C1.72972 52.418 1.60895 52.2992 1.60895 52.1531ZM16.2145 48.6343C16.2145 47.6678 16.8017 46.8052 17.7105 46.4372L20.0615 45.4846C21.6548 47.479 22.6697 49.9006 22.9744 52.418H16.2146V48.6343H16.2145ZM37.4431 52.418V48.6343C37.4431 48.2621 37.3886 47.8999 37.2895 47.5543L39.754 46.5556C39.7852 48.5485 39.9729 50.6428 41.1004 52.418H37.4431ZM41.3565 45.3751V44.4621C41.8262 44.6817 42.3024 44.8053 42.7677 44.8053C43.2333 44.8053 43.7101 44.6824 44.1804 44.4607C44.1805 44.4627 44.1802 45.2966 44.1805 45.3788C44.1805 47.7527 44.1797 50.2023 42.7686 52.0074C41.3572 50.2052 41.3565 47.753 41.3565 45.3768C41.3566 45.3761 41.3565 45.3756 41.3565 45.3751V45.3751ZM50.3913 52.1532C50.3913 52.2992 50.2705 52.418 50.122 52.418H44.436C45.564 50.6411 45.7517 48.5477 45.783 46.5557L49.2275 47.9514H49.2276C49.9345 48.2377 50.3913 48.9085 50.3913 49.6603V52.1532Z" fill="#FFC400"/>
</svg>
