<svg width="54" height="54" viewBox="0 0 54 54" fill="none" xmlns="http://www.w3.org/2000/svg">
<path d="M53.9998 6.72117C53.9998 6.28406 53.6462 5.92969 53.2098 5.92969H43.2284C42.7921 5.92969 42.4385 6.28406 42.4385 6.72117V9.36369C42.4385 10.387 44.0184 10.387 44.0184 9.36369V7.51266H52.4198V15.0581H49.4665C49.0302 15.0581 48.6766 15.4124 48.6766 15.8496V18.8855H44.0184V13.5802C44.0184 12.5569 42.4385 12.5569 42.4385 13.5802V19.677C42.4385 20.1141 42.7921 20.4685 43.2284 20.4685H49.4665C49.6783 20.4685 49.8832 20.3817 50.0307 20.2309L53.7739 16.4035C53.9175 16.2572 53.9998 16.0539 53.9998 15.8496V6.72117ZM50.2565 16.641H51.3297L50.2565 17.7384V16.641Z" fill="#FFC400"/>
<path d="M32.2483 11.5087C33.1083 11.8478 34.0491 11.8294 34.8977 11.4576C36.6436 10.6926 37.4502 8.64929 36.6957 6.90253C36.3306 6.05701 35.6582 5.40546 34.8027 5.06797C33.9429 4.72889 33.0021 4.74694 32.1532 5.11894C30.4074 5.88394 29.6008 7.92735 30.3552 9.674C30.7203 10.5195 31.3926 11.1711 32.2483 11.5087ZM32.7862 6.56936C33.2467 6.36759 33.7574 6.35693 34.2238 6.54087C34.6857 6.72312 35.0486 7.07476 35.2458 7.53118C35.6555 8.47991 35.2153 9.59063 34.2646 10.0072C33.8033 10.2093 33.2927 10.2193 32.8271 10.0357C32.3651 9.8534 32.0023 9.50177 31.8051 9.04535C31.3954 8.09672 31.8356 6.986 32.7862 6.56936Z" fill="#FFC400"/>
<path d="M50.1913 21.4011H31.6507C32.8247 19.7132 33.2436 17.4696 32.7687 15.4522L33.1993 15.015C33.4299 15.0193 33.6609 15.0118 33.8908 14.9927L34.8498 15.8999C35.1212 16.1236 35.4075 16.1734 35.7086 16.0494L37.4957 15.2663C37.7843 15.1399 37.9703 14.8537 37.9692 14.5382L37.9641 13.2093C38.1359 13.0521 38.2998 12.8861 38.4546 12.7122L39.7689 12.6707C40.0836 12.6608 40.3625 12.4644 40.4784 12.171L41.1964 10.3543C41.3131 10.0591 41.2426 9.72256 41.0169 9.49947L40.1594 8.65163C40.1775 8.36521 40.1767 8.07806 40.1571 7.79239L40.9816 6.91774C41.1985 6.68768 41.2577 6.35041 41.1323 6.05998L40.3609 4.27375C40.2348 3.98164 39.9468 3.78915 39.6285 3.79665L38.4347 3.80783C38.2413 3.59983 38.0341 3.40449 37.8147 3.22329L37.7835 2.01274C37.7753 1.69446 37.5775 1.41216 37.2817 1.29607L35.4724 0.58669C35.1782 0.471344 34.8441 0.542684 34.6223 0.767783L33.6957 1.70849C33.4651 1.70406 33.2342 1.71166 33.0043 1.73076L32.0452 0.823609C31.8147 0.605792 31.4769 0.546588 31.1864 0.674071L29.3993 1.45701C29.1107 1.58344 28.9247 1.86964 28.9258 2.18518L28.9309 3.51403C28.7591 3.67127 28.5952 3.83728 28.4405 4.01109L27.1261 4.05256C26.8114 4.06248 26.5325 4.25887 26.4166 4.55225L25.6986 6.36887C25.5819 6.66415 25.6524 7.00059 25.8781 7.22368L26.7358 8.07163C26.7176 8.35814 26.7184 8.6453 26.7379 8.93086L26.0792 9.62959C19.7992 9.06014 15.6382 16.2172 19.211 21.4009H4.183C0.170823 21.5671 0.170718 27.2963 4.183 27.4624H5.31844L14.0272 36.4529C14.7409 37.1896 15.8708 36.0832 15.161 35.3504L7.52023 27.4626H46.839L37.5435 36.9485C36.7362 35.8409 34.8559 35.8857 34.2299 37.1642L31.5992 42.5532C29.8468 40.7088 26.8316 42.1116 26.8446 44.5511H24.0734L18.1084 38.3932C17.3971 37.6588 16.2632 38.7613 16.9746 39.4956L22.9492 45.6634V49.2432C22.9492 49.5246 23.0982 49.7847 23.3407 49.9266L26.9657 52.0485C27.6448 54.2615 30.74 54.6523 31.9514 52.6838C32.8792 53.5116 34.0634 53.9995 35.3137 53.9995C37.1435 53.9995 38.9733 53.9902 40.8029 53.9968C41.7812 53.9558 42.5694 53.3422 42.8458 52.4017C43.0574 51.5734 44.7052 45.1248 44.8534 44.5455C45.199 43.23 44.1916 41.9001 42.8282 41.9001C41.1879 41.9059 39.5475 41.905 37.9072 41.9056V38.8364C37.9113 38.8324 37.9153 38.8284 37.9193 38.8244L49.053 27.4626H50.1913C54.2044 27.2961 54.2027 21.5668 50.1913 21.4011ZM24.5291 46.1341H26.8445V50.1444L24.5291 48.7891V46.1341ZM29.6023 52.418C28.9528 52.418 28.4244 51.8887 28.4244 51.238V44.457C28.4244 42.9393 30.7668 42.9366 30.7668 44.4415V51.2505C30.7669 51.8877 30.2505 52.418 29.6023 52.418ZM42.8282 43.4831C43.2242 43.4831 43.3724 43.821 43.3227 44.1528C43.1746 44.7321 41.5266 51.181 41.3149 52.0098C41.2407 52.263 41.0711 52.3984 40.8084 52.4139C39.8494 52.4105 36.1234 52.4166 35.3136 52.4166C34.1163 52.4166 33.1668 51.7266 32.3599 50.9137V44.5978L35.6364 37.8856C35.816 37.5939 36.3272 37.7262 36.3272 38.0763V42.6974C36.3272 43.1345 36.6808 43.4889 37.1172 43.4889C38.1023 43.4889 42.495 43.4831 42.8282 43.4831ZM24.1979 18.1702C22.8839 17.001 23.8065 14.8227 25.5504 14.9239C26.4725 14.9811 27.2341 15.7505 27.2842 16.6754C27.3151 17.2462 27.0889 17.7911 26.6635 18.1703C26.2041 18.5797 26.4024 19.3133 26.9134 19.5034C27.8518 19.8528 28.6423 20.5371 29.1349 21.4011H21.7238C22.2142 20.5315 22.9958 19.8577 23.9478 19.5034C24.4591 19.3132 24.6573 18.5798 24.1979 18.1702ZM28.3424 9.11227C28.2899 8.70165 28.2894 8.28364 28.3408 7.86974C28.3711 7.62565 28.2864 7.38134 28.1118 7.20848L27.3599 6.46512L27.6945 5.61865L28.8416 5.58245C29.073 5.57517 29.2897 5.46647 29.4342 5.28517C29.6667 4.99306 29.9316 4.72511 30.2212 4.48893C30.4062 4.33792 30.5132 4.11124 30.5123 3.87221L30.5079 2.69933L31.3408 2.3344L32.1859 3.1337C32.3605 3.29885 32.6005 3.37547 32.8387 3.3418C33.2074 3.28957 33.5822 3.27722 33.9524 3.30476C34.1842 3.32196 34.4106 3.23659 34.5734 3.07143L35.3814 2.25103L36.2178 2.57892L36.2452 3.6394C36.2516 3.88561 36.372 4.11482 36.5708 4.2594C36.9061 4.50318 37.2089 4.78812 37.471 5.1064C37.6226 5.29066 37.8517 5.39661 38.0877 5.39418L39.1192 5.38447L39.4758 6.20994L38.7621 6.96713C38.5994 7.13957 38.5228 7.37596 38.5528 7.6113C38.6053 8.02224 38.606 8.44014 38.5545 8.85361C38.524 9.09771 38.6087 9.34212 38.7835 9.51498L39.5353 10.2583L39.2008 11.1048L38.0537 11.141C37.8223 11.1483 37.6058 11.257 37.4613 11.4383C37.2284 11.7305 36.9636 11.9985 36.674 12.2346C36.4891 12.3855 36.3821 12.6122 36.3829 12.8514L36.3873 14.0242L35.5544 14.3892L34.7093 13.5899C34.5347 13.4247 34.2942 13.3483 34.0565 13.3818C33.688 13.4341 33.313 13.4465 32.9428 13.4188C32.6532 13.3978 32.3592 13.5827 32.1776 13.7986C31.3039 12.0378 29.7634 10.6654 27.8894 10.0149C28.1343 9.80678 28.3839 9.43731 28.3424 9.11227ZM25.4306 11.185C30.1177 11.1427 33.0104 16.5462 30.3996 20.4279C29.9077 19.6276 29.231 18.9595 28.4213 18.4777C28.7421 17.9119 28.898 17.2604 28.8619 16.5897C28.7675 14.8471 27.3858 13.4517 25.6481 13.3439C22.9752 13.1651 21.0849 16.1479 22.4417 18.4774C21.6329 18.959 20.9551 19.6279 20.4624 20.4284C17.8501 16.5456 20.7448 11.1424 25.4306 11.185ZM50.1913 25.8797H4.183C2.26581 25.8 2.26707 23.063 4.183 22.9841H50.1914C52.1086 23.0639 52.1072 25.8007 50.1913 25.8797Z" fill="#FFC400"/>
<path d="M5.0504 17.9092L7.91344 20.0447C8.42966 20.4297 9.17518 20.047 9.17518 19.4098V17.9092H10.6054C12.0741 17.9092 13.269 16.712 13.269 15.2404V13.1779C13.6195 13.229 13.9709 13.2522 14.3233 13.2477C23.0769 12.7678 22.903 0.246416 14.1524 6.52909e-08C9.72499 -0.000633124 6.51068 4.60435 7.9936 8.77601H2.66355C1.19485 8.77601 0 9.97327 0 11.4449V15.2405C0 16.7121 1.19485 17.9094 2.66355 17.9094H5.0504V17.9092ZM14.1727 1.58287C16.9328 1.54456 19.2224 3.77835 19.2563 6.55879C19.2921 9.33839 17.0701 11.629 14.303 11.6648C13.7768 11.6725 13.2621 11.5987 12.773 11.4493C12.7374 11.435 12.7004 11.4233 12.6625 11.4142C11.9478 11.1775 11.2908 10.7779 10.7359 10.235C10.4192 9.92514 10.1484 9.58048 9.92701 9.20953C9.913 9.18188 9.89741 9.15508 9.88025 9.12944C9.45988 8.3943 9.23058 7.55997 9.21931 6.68891C9.18339 3.90931 11.4055 1.61875 14.1727 1.58287ZM1.57993 15.2404V11.4448C1.57993 10.846 2.06602 10.3589 2.66355 10.3589H8.78567C9.49222 11.4009 10.5395 12.2606 11.6891 12.7379V15.2404C11.6891 15.8391 11.203 16.3263 10.6054 16.3263H8.38511C7.94873 16.3263 7.59514 16.6806 7.59514 17.1178V17.8339L5.78391 16.4829C5.64761 16.3813 5.48214 16.3263 5.31214 16.3263H2.66355C2.06602 16.3263 1.57993 15.8391 1.57993 15.2404Z" fill="#FFC400"/>
<path d="M14.2394 10.1779C14.2562 10.1779 14.2731 10.1778 14.2899 10.1775C15.3085 10.1643 16.2615 9.7532 16.9731 9.01996C17.6851 8.28631 16.5522 7.18255 15.8404 7.91642C15.4234 8.34604 14.8655 8.58697 14.2695 8.59467C13.6761 8.60396 13.1095 8.37612 12.6817 7.95737C11.9508 7.24239 10.8471 8.37485 11.5778 9.08983C12.296 9.79267 13.2395 10.1779 14.2394 10.1779Z" fill="#FFC400"/>
<path d="M12.3119 6.1445C13.3286 6.1445 13.3303 4.56152 12.3119 4.56152C11.2953 4.56152 11.2936 6.1445 12.3119 6.1445Z" fill="#FFC400"/>
<path d="M16.1352 6.09469C17.1518 6.09469 17.1535 4.51172 16.1352 4.51172C15.1185 4.51172 15.1169 6.09469 16.1352 6.09469Z" fill="#FFC400"/>
</svg>
