<svg width="70" height="70" viewBox="0 0 70 70" fill="none" xmlns="http://www.w3.org/2000/svg">
<path d="M60.5023 10.8723H68.6328C69.388 10.8723 70 10.2603 70 9.50516V1.36719C70 0.61203 69.388 0 68.6328 0H60.5023C59.7472 0 59.1351 0.61203 59.1351 1.36719V4.06898H40.4324V1.36719C40.4324 0.61203 39.8204 0 39.0652 0H30.9348C30.1796 0 29.5676 0.61203 29.5676 1.36719V4.06898H10.8649V1.36719C10.8649 0.61203 10.2528 0 9.49768 0H1.36719C0.61203 0 0 0.61203 0 1.36719V9.50516C0 10.2603 0.61203 10.8723 1.36719 10.8723H9.49768C10.2528 10.8723 10.8649 10.2603 10.8649 9.50516V6.80336H22.2382C18.2333 8.61916 14.6225 11.2862 11.6804 14.6588C7.06718 19.9471 4.4001 26.6388 4.09195 33.6328H1.36719C0.61203 33.6328 0 34.2448 0 35V43.138C0 43.8931 0.61203 44.5052 1.36719 44.5052H9.49768C10.2528 44.5052 10.8649 43.8931 10.8649 43.138V35C10.8649 34.2448 10.2528 33.6328 9.49768 33.6328H6.82953C7.45972 20.7487 16.9376 9.77753 29.5676 7.31125V9.50569C29.5676 10.2608 30.1796 10.8729 30.9348 10.8729H39.0652C39.8204 10.8729 40.4324 10.2608 40.4324 9.50569V7.31125C53.0624 9.77753 62.5403 20.7487 63.1705 33.6328H60.5023C59.7472 33.6328 59.1351 34.2448 59.1351 35V43.138C59.1351 43.8931 59.7472 44.5052 60.5023 44.5052H68.6328C69.388 44.5052 70 43.8931 70 43.138V35C70 34.2448 69.388 33.6328 68.6328 33.6328H65.9081C65.5999 26.6388 62.9328 19.9471 58.3196 14.6588C55.3775 11.2862 51.7667 8.61916 47.7618 6.80336H59.1351V9.50569C59.1351 10.2603 59.7472 10.8723 60.5023 10.8723ZM8.13049 8.13797H2.73438V2.73438H8.13049V8.13797ZM8.13049 41.7708H2.73438V36.3672H8.13049V41.7708ZM67.2656 41.7708H61.8695V36.3672H67.2656V41.7708ZM37.6981 8.13797H32.3019V2.73438H37.6981V8.13797ZM61.8695 2.73438H67.2656V8.13797H61.8695V2.73438Z" fill="#FFC700"/>
<path d="M36.198 15.0631C35.9577 14.6268 35.4989 14.3555 35.0006 14.3555C34.5024 14.3555 34.0436 14.6268 33.8033 15.0631L28.1247 25.3725C27.7604 26.0342 28.0013 26.8658 28.663 27.2295C29.3236 27.5937 30.1557 27.3534 30.5199 26.6917L33.6335 21.0387V31.1211C31.7354 31.7065 30.3522 33.4769 30.3522 35.5645C30.3522 38.1274 32.4377 40.2129 35.0006 40.2129C37.5636 40.2129 39.6491 38.1274 39.6491 35.5645C39.6491 33.4769 38.2659 31.7065 36.3678 31.1211V21.0387L45.7475 38.0687C42.666 41.1855 40.5655 45.1834 39.7495 49.4922H30.2518C29.4352 45.1834 27.3348 41.1855 24.2538 38.0687L25.8207 35.2238C26.185 34.5626 25.9441 33.7311 25.2829 33.3669C24.6218 33.0026 23.7897 33.243 23.4255 33.9046L21.3533 37.6676C21.0489 38.2198 21.1621 38.9093 21.6273 39.3355C24.5716 42.0319 26.6159 45.6037 27.4619 49.4922H26.1887C23.927 49.4922 22.0871 51.3326 22.0871 53.5938C22.0871 55.1895 23.003 56.5738 24.3366 57.2515V68.6328C24.3366 69.388 24.9486 70 25.7038 70C26.4589 70 27.071 69.388 27.071 68.6328V57.6953H42.9303V68.6328C42.9303 69.388 43.5424 70 44.2975 70C45.0527 70 45.6647 69.388 45.6647 68.6328V57.2515C46.9982 56.5738 47.9142 55.189 47.9142 53.5938C47.9142 51.332 46.0743 49.4922 43.8126 49.4922H42.5394C43.3853 45.6032 45.4297 42.0319 48.374 39.3349C48.8391 38.9088 48.9524 38.2198 48.648 37.6671L36.198 15.0631ZM35.0006 37.4786C33.9453 37.4786 33.0866 36.6198 33.0866 35.5645C33.0866 34.5087 33.9453 33.6504 35.0006 33.6504C36.0559 33.6504 36.9147 34.5087 36.9147 35.5645C36.9147 36.6198 36.0559 37.4786 35.0006 37.4786ZM45.1798 53.5938C45.1798 54.3478 44.5667 54.9609 43.8126 54.9609H26.1887C25.4346 54.9609 24.8215 54.3478 24.8215 53.5938C24.8215 52.8397 25.4346 52.2266 26.1887 52.2266H43.8126C44.5667 52.2266 45.1798 52.8397 45.1798 53.5938Z" fill="#FFC700"/>
<path d="M26.8828 31.7354C27.2428 31.7354 27.5952 31.5901 27.8495 31.3359C28.1037 31.0801 28.25 30.7292 28.25 30.3682C28.25 30.0082 28.1037 29.6573 27.8495 29.4015C27.5952 29.1473 27.2428 29.001 26.8828 29.001C26.5218 29.001 26.1693 29.1473 25.9151 29.4015C25.6609 29.6573 25.5156 30.0082 25.5156 30.3682C25.5156 30.7292 25.6609 31.0801 25.9151 31.3359C26.1693 31.5901 26.5218 31.7354 26.8828 31.7354Z" fill="#FFC700"/>
</svg>
