<svg width="68" height="68" viewBox="0 0 68 68" fill="none" xmlns="http://www.w3.org/2000/svg">
<path d="M62.7728 21.9355H61.4194V5.48387C61.4194 2.46006 58.9593 0 55.9355 0H51.5484C48.5246 0 46.0645 2.46006 46.0645 5.48387V8.77419H30.7097V3.29032C30.7097 1.47626 29.2334 0 27.4194 0H9.87097C8.0569 0 6.58065 1.47626 6.58065 3.29032V16.4516C6.58065 18.2657 8.0569 19.7419 9.87097 19.7419H17.5484V21.9355H5.22723C2.3449 21.9355 0 24.2804 0 27.1627C0 27.3799 0.014258 27.597 0.0405806 27.8109L3.944 59.035C4.26974 61.6453 6.49948 63.6129 9.12955 63.6129H15.0225L20.9034 67.5339C21.363 67.8388 21.896 68 22.4455 68C23.9777 68 25.2258 66.7519 25.2258 65.2186V63.6129H58.8705C61.5005 63.6129 63.7314 61.6453 64.0571 59.035L67.9605 27.812C67.9857 27.5959 68 27.3799 68 27.1627C68 24.2804 65.6551 21.9355 62.7728 21.9355V21.9355ZM48.2581 5.48387C48.2581 3.66981 49.7343 2.19355 51.5484 2.19355H55.9355C57.7495 2.19355 59.2258 3.66981 59.2258 5.48387V10.9677H48.2581V5.48387ZM48.2581 13.1613H59.2258V15.3548H48.2581V13.1613ZM54.8387 32.9032V17.5484H59.2258V32.9032H54.8387ZM58.548 35.0968L54.3485 43.4959C54.117 43.9598 53.3668 43.9587 53.1365 43.4959L48.9359 35.0968H58.548ZM48.2581 17.5484H52.6452V32.9032H48.2581V17.5484ZM30.7097 16.4516V10.9677H46.0645V21.9355H19.7419V19.7419H27.4194C29.2334 19.7419 30.7097 18.2657 30.7097 16.4516ZM9.87097 17.5484C9.26555 17.5484 8.77419 17.0559 8.77419 16.4516V3.29032C8.77419 2.686 9.26555 2.19355 9.87097 2.19355H27.4194C28.0248 2.19355 28.5161 2.686 28.5161 3.29032V16.4516C28.5161 17.0559 28.0248 17.5484 27.4194 17.5484H9.87097ZM65.7834 27.5378L61.88 58.7619C61.6903 60.2765 60.3961 61.4194 58.8705 61.4194H23.0323V65.2186C23.0323 65.6584 22.4828 65.949 22.1186 65.7077L15.6872 61.4194H9.12955C7.60284 61.4194 6.30974 60.2765 6.12 58.763L2.21658 27.5378C2.20123 27.4128 2.19355 27.2877 2.19355 27.1627C2.19355 25.4901 3.55355 24.129 5.22723 24.129H46.0645V34.2588L50.8706 43.871H44.9677V46.0645H53.7419C54.8365 46.0645 55.8203 45.4558 56.3106 44.4775L61.4194 34.2588V24.129H62.7728C64.4465 24.129 65.8065 25.4901 65.8065 27.1627C65.8065 27.2877 65.7988 27.4128 65.7834 27.5378V27.5378Z" fill="#0085FF"/>
<path d="M37.2917 36.304V29.6126C37.2917 27.7985 35.8155 26.3223 34.0014 26.3223C32.388 26.3223 31.0489 27.4914 30.7703 29.0247C26.7758 32.2284 21.7888 33.9997 16.6603 33.9997H12.0659C9.0421 33.9997 6.58203 36.4597 6.58203 39.4836V43.8707C6.58203 46.8945 9.0421 49.3545 12.0659 49.3545H13.3798L15.5745 59.2255H21.9369V49.9994C25.1471 50.7738 28.1698 52.2423 30.7703 54.3284C31.0489 55.8628 32.388 57.0319 34.0014 57.0319C35.8155 57.0319 37.2917 55.5557 37.2917 53.7416V47.0502C39.7913 46.5402 41.6788 44.3258 41.6788 41.6771C41.6788 39.0284 39.7913 36.814 37.2917 36.304ZM15.3562 47.161H12.0659C10.6379 47.161 9.43145 46.2408 8.97739 44.9674H13.1627V42.7739H8.77558V40.5803H13.1627V38.3868H8.97739C9.43145 37.1134 10.6379 36.1932 12.0659 36.1932H15.3562V47.161ZM19.7433 57.0319H17.3326L15.6271 49.3545H16.6614C17.6978 49.3545 18.7255 49.4467 19.7444 49.5881V57.0319H19.7433ZM30.7111 51.5393C26.8395 48.873 22.2626 47.3705 17.5498 47.2005V36.1538C22.2626 35.9827 26.8395 34.4812 30.7111 31.8149V51.5393ZM35.0982 53.7416C35.0982 54.3459 34.6068 54.8384 34.0014 54.8384C33.396 54.8384 32.9046 54.3459 32.9046 53.7416V29.6126C32.9046 29.0083 33.396 28.5158 34.0014 28.5158C34.6068 28.5158 35.0982 29.0083 35.0982 29.6126V53.7416ZM37.2917 44.7656V38.5897C38.5651 39.0438 39.4853 40.2502 39.4853 41.6782C39.4853 43.1062 38.5651 44.3116 37.2917 44.7656Z" fill="#0085FF"/>
<path d="M22.5448 7.30194L17.3197 4.68943C16.9238 4.49201 16.4785 4.38672 16.0354 4.38672C14.4528 4.38672 13.1641 5.67433 13.1641 7.25807V12.4831C13.1641 14.0668 14.4528 15.3545 16.0354 15.3545C16.4785 15.3545 16.9238 15.2492 17.3197 15.0518L22.5448 12.4392C23.5231 11.9501 24.1318 10.9652 24.1318 9.87059C24.1318 8.77601 23.5231 7.79111 22.5448 7.30194V7.30194ZM21.5632 10.4771L16.3381 13.0896C15.9148 13.3046 15.3576 12.9624 15.3565 12.4831V7.25807C15.3576 6.88407 15.6614 6.58027 16.0354 6.58027C16.1407 6.58027 16.2449 6.6044 16.3381 6.65156L21.5632 9.26407C21.7946 9.38033 21.9383 9.61175 21.9383 9.87059C21.9383 10.1294 21.7946 10.3608 21.5632 10.4771Z" fill="#0085FF"/>
<path d="M44.9688 48.2578H60.3236V50.4514H44.9688V48.2578Z" fill="#0085FF"/>
<path d="M44.9688 52.6455H60.3236V54.8391H44.9688V52.6455Z" fill="#0085FF"/>
<path d="M53.7422 57.0322H55.9357V59.2258H53.7422V57.0322Z" fill="#0085FF"/>
<path d="M58.1289 57.0322H60.3225V59.2258H58.1289V57.0322Z" fill="#0085FF"/>
<path d="M44.9688 57.0322H47.1623V59.2258H44.9688V57.0322Z" fill="#0085FF"/>
<path d="M49.3555 57.0322H51.549V59.2258H49.3555V57.0322Z" fill="#0085FF"/>
</svg>
