<svg width="70" height="70" viewBox="0 0 70 70" fill="none" xmlns="http://www.w3.org/2000/svg">
<path d="M28.0369 8.05684C27.7826 7.80254 27.4299 7.65625 27.0703 7.65625C26.7107 7.65625 26.358 7.8024 26.1037 8.05684C25.8494 8.31113 25.7031 8.66387 25.7031 9.02344C25.7031 9.38301 25.8494 9.73574 26.1037 9.9899C26.358 10.2443 26.7107 10.3906 27.0703 10.3906C27.4299 10.3906 27.7826 10.2443 28.0369 9.9899C28.2912 9.73574 28.4375 9.38301 28.4375 9.02344C28.4375 8.66387 28.2912 8.31113 28.0369 8.05684Z" fill="#FF800B"/>
<path d="M22.0197 7.65625H16.5273C15.7722 7.65625 15.1602 8.26848 15.1602 9.02344C15.1602 9.7784 15.7722 10.3906 16.5273 10.3906H22.0197C22.7748 10.3906 23.3869 9.7784 23.3869 9.02344C23.3869 8.26848 22.7748 7.65625 22.0197 7.65625Z" fill="#FF800B"/>
<path d="M23.1164 15.3125H16.5273C15.7722 15.3125 15.1602 15.9247 15.1602 16.6797C15.1602 17.4346 15.7722 18.0469 16.5273 18.0469H23.1164C23.8715 18.0469 24.4836 17.4346 24.4836 16.6797C24.4836 15.9247 23.8715 15.3125 23.1164 15.3125Z" fill="#FF800B"/>
<path d="M69.4723 28.4536C69.4724 28.4532 69.4727 28.4529 69.4728 28.4525L60.4494 21.4256C60.443 21.4207 60.4361 21.4167 60.4297 21.4118V19.9609C60.4297 19.206 59.8176 18.5938 59.0625 18.5938C58.3074 18.5938 57.6953 19.206 57.6953 19.9609V38.5092C57.6953 38.5175 57.6964 38.5256 57.6965 38.5339L46.3838 49.8467L45.0738 48.6568C43.0266 46.7969 40.5319 45.557 37.8584 45.039L41.4081 41.4892C41.942 40.9553 41.942 40.0896 41.4081 39.5556L36.8158 34.9631L56.8292 26.4307C57.2469 26.2526 57.549 25.8787 57.6353 25.4328C57.7216 24.987 57.5809 24.5273 57.2597 24.2062L50.7247 17.671C51.2779 16.7683 51.5744 15.7287 51.5744 14.6431C51.5744 13.0908 50.97 11.6316 49.8724 10.5339C48.7748 9.43633 47.3155 8.83189 45.7632 8.83189C44.6776 8.83189 43.638 9.12844 42.7353 9.6816L36.2001 3.14645C35.8788 2.82516 35.4195 2.68406 34.9732 2.77102C34.5272 2.85742 34.1534 3.15971 33.9754 3.57752L24.7618 25.2167L19.8028 30.1756C18.4093 31.569 17.6418 33.4219 17.6418 35.3925C17.6418 37.3632 18.4093 39.2159 19.8028 40.6093C21.1962 42.0027 23.049 42.7703 25.0197 42.7703C26.9903 42.7703 28.843 42.0029 30.2364 40.6093L30.7579 40.0878L35.4411 44.771C35.2942 44.7668 35.1471 44.7638 34.9997 44.7638C31.2666 44.7638 27.689 46.1461 24.9257 48.6564L23.6158 49.8463L12.303 38.5335C12.3032 38.5252 12.3043 38.5171 12.3043 38.5086V2.73438H27.615C28.3701 2.73438 28.9822 2.12215 28.9822 1.36719C28.9822 0.612227 28.3701 0 27.615 0H10.9375C10.1824 0 9.57031 0.612227 9.57031 1.36719V21.1933C9.55855 21.2022 9.54611 21.2099 9.53463 21.2192L0.511191 28.4653C0.511328 28.4655 0.511328 28.4657 0.511465 28.4659C0.199883 28.7165 0 29.1003 0 29.5312V63.0273C0 66.872 3.12785 70 6.97266 70H63.0273C66.8721 70 70 66.872 70 63.0273V29.5312C70 29.0929 69.793 28.7038 69.4723 28.4536ZM60.4297 24.8758L66.5716 29.6588L60.4297 35.8008V24.8758ZM45.7633 11.5665C46.5851 11.5665 47.3579 11.8866 47.9391 12.4678C48.5201 13.0488 48.8402 13.8214 48.8402 14.6434C48.8402 14.9825 48.7828 15.3121 48.6779 15.6245L44.7822 11.7287C45.0946 11.6238 45.4243 11.5665 45.7633 11.5665ZM35.6984 6.51178L41.6525 12.4659C41.653 12.4664 41.6536 12.4671 41.6541 12.4678C41.6547 12.4685 41.6553 12.4689 41.656 12.4694L47.9389 18.7523C47.9389 18.7525 47.9391 18.7525 47.9391 18.7526C47.9391 18.7528 47.9392 18.7528 47.9393 18.7528L53.8956 24.709L50.9931 25.9465L34.462 9.41541L35.6984 6.51178ZM33.3071 12.1278L48.2817 27.1023L34.7323 32.8789L27.5358 25.6825L33.3071 12.1278ZM28.3032 38.6761C27.4263 39.5531 26.2603 40.0362 25.0199 40.0362C23.7796 40.0362 22.6136 39.5531 21.7365 38.6761C20.8595 37.7992 20.3764 36.6331 20.3764 35.3928C20.3764 34.1525 20.8595 32.9864 21.7365 32.1094L25.9161 27.9297L32.4826 34.4969L28.3032 38.6761ZM32.6916 38.1546L34.4159 36.4305L38.5079 40.5225L36.7836 42.2466L32.6916 38.1546ZM9.57031 24.6973V35.8009L3.41209 29.6427L9.57031 24.6973ZM5.10385 66.6639C5.06516 66.6991 5.02947 66.7364 4.9957 66.7747C3.65217 66.063 2.73438 64.6507 2.73438 63.0273V32.8321L21.5899 51.6875L5.10385 66.6639ZM8.50801 67.2656L13.023 63.1641H23.0586C23.8137 63.1641 24.4258 62.5518 24.4258 61.7969C24.4258 61.0419 23.8137 60.4297 23.0586 60.4297H16.033L26.7647 50.6805C31.4597 46.4156 38.5405 46.4156 43.2354 50.6805L61.492 67.2656H8.50801ZM67.2656 63.0273C67.2656 64.6507 66.3478 66.063 65.0043 66.7747C64.9705 66.7363 64.9348 66.6991 64.8962 66.6639L48.4102 51.6875L67.2656 32.8321V63.0273Z" fill="#FF800B"/>
<path d="M60.0833 0.454023C59.5495 -0.0797266 58.6838 -0.0797266 58.1499 0.454023L52.627 5.97691C52.0931 6.5108 52.0931 7.3765 52.627 7.91053C52.894 8.1774 53.2439 8.31098 53.5937 8.31098C53.9436 8.31098 54.2936 8.1774 54.5605 7.91053L60.0833 2.38764C60.6172 1.85375 60.6172 0.988047 60.0833 0.454023Z" fill="#FF800B"/>
<path d="M48.4531 0C47.698 0 47.0859 0.612227 47.0859 1.36719V4.11346C47.0859 4.86842 47.698 5.48064 48.4531 5.48064C49.2082 5.48064 49.8203 4.86842 49.8203 4.11346V1.36719C49.8203 0.612227 49.2082 0 48.4531 0Z" fill="#FF800B"/>
<path d="M59.1585 10.5986H56.3203C55.5652 10.5986 54.9531 11.2109 54.9531 11.9658C54.9531 12.7208 55.5652 13.333 56.3203 13.333H59.1585C59.9136 13.333 60.5256 12.7208 60.5256 11.9658C60.5256 11.2109 59.9136 10.5986 59.1585 10.5986Z" fill="#FF800B"/>
<path d="M29.6307 60.8303C29.375 60.576 29.0236 60.4297 28.6641 60.4297C28.3031 60.4297 27.9518 60.5758 27.6961 60.8303C27.4418 61.0846 27.2969 61.4373 27.2969 61.7969C27.2969 62.1564 27.4418 62.5092 27.6961 62.7633C27.9518 63.0178 28.3045 63.1641 28.6641 63.1641C29.0236 63.1641 29.375 63.0178 29.6307 62.7633C29.885 62.5092 30.0312 62.1564 30.0312 61.7969C30.0312 61.4373 29.885 61.0846 29.6307 60.8303Z" fill="#FF800B"/>
</svg>
