<svg width="65" height="70" viewBox="0 0 65 70" fill="none" xmlns="http://www.w3.org/2000/svg">
<path d="M57.3937 0H54.4161C53.1072 0 53.1072 2.05108 54.4161 2.05108H57.3937C60.4688 2.05108 62.9706 4.57062 62.9706 7.66747V31.4014C62.9706 34.4984 60.4689 37.0179 57.3937 37.0179H54.0166C53.7938 37.0179 53.5772 37.0921 53.4001 37.2289L47.2032 42.02V38.0435C47.2032 37.4771 46.7491 37.0179 46.1886 37.0179H33.8397C32.8285 37.0179 31.8566 36.7482 30.9994 36.2353V24.723C30.9994 22.5666 29.9128 20.6614 28.2627 19.5343V7.66747C28.2627 4.57062 30.7646 2.05108 33.8397 2.05108H48.0577C49.3664 2.05108 49.3664 0 48.0577 0H33.8397C29.6456 0 26.2334 3.43965 26.2334 7.66747V18.6329C25.7689 18.5208 25.2848 18.4597 24.7867 18.4597H6.21257C2.78701 18.4597 0 21.2694 0 24.723V26.9375C0 28.2603 2.02928 28.2603 2.02928 26.9375V24.723C2.02928 22.4003 3.90582 20.5108 6.21257 20.5108H24.7868C27.0936 20.5108 28.9703 22.4003 28.9703 24.723V36.6436C28.9581 36.7341 28.9586 36.8253 28.9703 36.9151V43.4392C28.9703 43.5681 28.9626 43.6965 28.9511 43.8242H26.8586C24.5529 43.8242 22.6308 45.5063 22.2323 47.7169C22.14 47.752 22.0514 47.8011 21.9693 47.8651L17.4311 51.4068V48.6769C17.4311 48.1106 16.977 47.6514 16.4165 47.6514H6.21257C3.90582 47.6514 2.02928 45.7618 2.02928 43.4392V33.0907C2.02928 31.7679 0 31.7679 0 33.0907V43.4393C0 46.8929 2.78701 49.7026 6.21257 49.7026H15.402V53.4944C15.402 54.317 16.3902 54.8105 17.0368 54.3062L22.1553 50.3116V61.8489C22.1553 64.4641 24.2653 66.5914 26.8587 66.5914H33.0852V68.9845C33.0852 69.8068 34.0735 70.3009 34.7199 69.7963L38.8266 66.5914H40.0399C42.6333 66.5914 44.7433 64.4639 44.7433 61.8489V60.0281C44.7433 58.7053 42.714 58.7053 42.714 60.0281V61.8489C42.714 63.3331 41.5145 64.5404 40.0399 64.5404H38.4804C38.256 64.5404 38.0379 64.6156 37.8604 64.7541L35.1144 66.8969V65.5658C35.1144 64.9994 34.6602 64.5402 34.0998 64.5402H26.8586C25.3841 64.5402 24.1844 63.3328 24.1844 61.8488V48.5669C24.1844 47.0827 25.384 45.8754 26.8586 45.8754H40.0399C41.5143 45.8754 42.714 47.0828 42.714 48.5669V53.6014C42.714 54.9242 44.7433 54.9242 44.7433 53.6014V48.567C44.7433 45.9519 42.6333 43.8245 40.0399 43.8245H30.9879C30.9956 43.6964 30.9996 38.5166 30.9996 38.5166C31.8942 38.8802 32.8534 39.0692 33.8399 39.0692H45.1741V44.0957C45.1741 44.9162 46.1581 45.4103 46.8052 44.9102L54.3604 39.0692H57.3939C61.5878 39.0692 65 35.6295 65 31.4016V7.66747C64.9999 3.43965 61.5877 0 57.3937 0V0Z" fill="#C33DAB"/>
<path d="M48.1519 7.57677C46.8636 7.24436 45.5508 8.27318 45.5508 9.61868C45.5508 11.0888 45.0207 12.5055 44.059 13.6072L41.2635 16.8046C41.0824 16.5238 40.7697 16.338 40.4135 16.338H34.956C34.3956 16.338 33.9414 16.7972 33.9414 17.3635V29.7746C33.9414 30.341 34.3956 30.8001 34.956 30.8001H40.4135C40.8235 30.8001 41.1758 30.5539 41.3358 30.2003C42.4407 30.8826 43.721 31.2515 45.0237 31.2515H54.6685C56.1423 31.2515 57.3581 29.9589 57.2889 28.4731C57.2582 27.8151 57.2918 18.9801 57.2918 18.7838C57.2918 17.3218 56.1149 16.1322 54.6714 16.1322L49.656 16.117L49.8637 15.62C50.8127 13.3484 50.6564 10.7142 49.4462 8.57332C49.1637 8.07313 48.7039 7.71939 48.1519 7.57677C48.7039 7.71939 47.5997 7.43429 48.1519 7.57677C48.7039 7.71939 46.8637 7.24436 48.1519 7.57677ZM39.3988 28.7491H35.9707V18.3891H39.3988V28.7491ZM54.6685 18.1832C54.9961 18.1832 55.2626 18.4525 55.2626 18.7837C55.2626 18.9788 55.2606 19.5084 55.2579 20.2264C55.2429 24.1908 55.2329 27.9453 55.2618 28.5694C55.2724 28.7946 55.164 28.9447 55.0985 29.0142C54.9852 29.1343 54.8324 29.2003 54.6685 29.2003H45.0237C43.8741 29.2003 42.7489 28.7976 41.8552 28.0665L41.4281 27.717V19.7135L45.5801 14.9647C46.8698 13.4874 47.5801 11.5888 47.5801 9.61855C47.5801 9.56057 47.6584 9.54553 47.6844 9.59065C48.5829 11.18 48.6987 13.1355 47.9943 14.8219L47.1936 16.7388C47.0614 17.0551 47.0947 17.417 47.2818 17.7033C47.4691 17.9897 47.7857 18.1622 48.1251 18.1633L54.6685 18.1832Z" fill="#C33DAB"/>
<path d="M8.68651 35.6203C8.12603 35.6203 7.67188 36.0795 7.67188 36.6459C7.67188 37.2122 8.12603 37.6714 8.68651 37.6714H11.6774L11.1187 41.087C11.0272 41.6457 11.4014 42.1737 11.9542 42.2661C12.0103 42.2755 12.0659 42.28 12.1209 42.28C12.6084 42.28 13.0385 41.9238 13.1208 41.4216L13.7341 37.6716H16.1819L15.6231 41.0871C15.5317 41.6459 15.9059 42.1738 16.4587 42.2662C16.5148 42.2757 16.5704 42.2802 16.6253 42.2802C17.1129 42.2802 17.543 41.924 17.6252 41.4217L18.2386 37.6717H22.3097C22.8702 37.6717 23.3244 37.2125 23.3244 36.6462C23.3244 36.0798 22.8702 35.6206 22.3097 35.6206H18.5741L18.9834 33.1188H22.3097C22.8702 33.1188 23.3244 32.6597 23.3244 32.0933C23.3244 31.5269 22.8702 31.0678 22.3097 31.0678H19.3189L19.8776 27.6522C19.969 27.0935 19.5948 26.5655 19.0421 26.4731C18.4886 26.3804 17.967 26.7589 17.8755 27.3176L17.2621 31.0676H14.8144L15.3731 27.6521C15.4646 27.0933 15.0904 26.5654 14.5376 26.473C13.9835 26.3802 13.4626 26.7587 13.371 27.3175L12.7577 31.0675H8.68651C8.12603 31.0675 7.67188 31.5267 7.67188 32.093C7.67188 32.6594 8.12603 33.1186 8.68651 33.1186H12.4221L12.0129 35.6203H8.68651ZM14.479 33.1186H16.9267L16.5175 35.6203H14.0698L14.479 33.1186Z" fill="#C33DAB"/>
<path d="M33.4388 51.1666C32.6195 50.4849 31.5295 50.2159 30.4361 50.4846C29.035 50.8285 27.6211 52.1524 27.6211 54.3346C27.6211 55.6928 28.1115 56.8718 29.1203 57.9389C29.9443 58.8106 31.1335 59.6395 32.9758 60.6267C33.1245 60.7065 33.2878 60.7462 33.4511 60.7462C33.6144 60.7462 33.7777 60.7065 33.9263 60.6267C37.1404 58.9045 39.2809 57.1755 39.2809 54.3346C39.2809 52.1405 37.8169 50.8301 36.3658 50.5048C35.2757 50.2603 34.2188 50.5199 33.4388 51.1666ZM37.2515 54.3346C37.2515 55.8669 36.2459 57 33.4509 58.5552C30.656 56.9999 29.6502 55.8667 29.6502 54.3346C29.6502 53.1945 30.3034 52.6278 30.9148 52.4777C31.0274 52.4501 31.1481 52.4345 31.2722 52.4345C31.732 52.4345 32.2376 52.6491 32.5493 53.26C32.7269 53.6075 33.0859 53.823 33.4711 53.815C33.8579 53.8072 34.2068 53.5777 34.3703 53.2233C34.6987 52.512 35.3892 52.3869 35.926 52.5074C36.567 52.6508 37.2515 53.2064 37.2515 54.3346Z" fill="#C33DAB"/>
</svg>
