<svg width="68" height="68" viewBox="0 0 68 68" fill="none" xmlns="http://www.w3.org/2000/svg">
<path d="M67.4165 14.3085C67.8827 13.8423 68.088 13.1755 67.965 12.5276C67.8422 11.8798 67.4068 11.3346 66.8025 11.0716L60.0874 8.14939L57.7309 1.3408C57.5063 0.691985 56.9637 0.20448 56.295 0.0506151C55.6263 -0.102984 54.9254 0.0981831 54.44 0.583695L50.6415 4.38435C45.5305 1.55512 39.6726 0.00902639 33.9768 0.00902639C24.9012 0.00902639 16.369 3.54513 9.95149 9.96615C3.53402 16.3872 0 24.924 0 34.0044C0 43.0849 3.53416 51.622 9.95162 58.0429C16.369 64.4638 24.9014 68 33.9769 68C43.0525 68 51.5847 64.4639 58.0022 58.0429C64.4195 51.622 67.9538 43.085 67.9538 34.0044C67.9538 28.3477 66.5475 22.7966 63.8756 17.8517L67.4165 14.3085ZM53.4641 22.6316L49.3474 21.5262L58.9362 11.9952L62.531 13.5597L53.4641 22.6316ZM52.7139 34.0044C52.7139 44.3418 44.3085 52.7519 33.9768 52.7519C23.6451 52.7519 15.2396 44.3418 15.2396 34.0044C15.2396 23.6671 23.6451 15.257 33.9768 15.257C37.0878 15.257 39.7393 15.8711 42.2777 17.1825L43.3049 21.9133L40.779 24.424C38.858 23.0546 36.5098 22.2485 33.9767 22.2485C27.4978 22.2485 22.2271 27.5222 22.2271 34.0046C22.2271 40.487 27.4978 45.7606 33.9767 45.7606C40.4555 45.7606 45.7262 40.487 45.7262 34.0046C45.7262 31.4929 44.9345 29.1629 43.5882 27.2506L46.0781 24.7756L50.9772 26.091C52.1599 28.5143 52.7139 31.0415 52.7139 34.0044V34.0044ZM41.7424 34.0044C41.7424 38.2888 38.2587 41.7744 33.9768 41.7744C29.6948 41.7744 26.2112 38.2888 26.2112 34.0044C26.2112 29.7201 29.6948 26.2345 33.9768 26.2345C35.4028 26.2345 36.7391 26.6228 37.8889 27.2967L32.5034 32.6497C31.7229 33.4254 31.7188 34.6874 32.4941 35.4683C32.8835 35.8604 33.3953 36.0566 33.9073 36.0566C34.4149 36.0566 34.9227 35.8637 35.3111 35.4776L40.6992 30.1221C41.3613 31.2654 41.7424 32.5908 41.7424 34.0044V34.0044ZM55.0074 5.65314L56.1992 9.09663L46.6582 18.5802L45.8424 14.8233L55.0074 5.65314ZM63.9696 34.0044C63.9696 42.0203 60.8498 49.5562 55.1849 55.2243C49.52 60.8923 41.9881 64.0137 33.9768 64.0137C25.9655 64.0137 18.4336 60.8922 12.7687 55.2243C7.10377 49.5562 3.98394 42.0203 3.98394 34.0044C3.98394 25.9886 7.10377 18.4526 12.7687 12.7847C18.4336 7.11672 25.9655 3.99517 33.9768 3.99517C38.6336 3.99517 43.419 5.16909 47.695 7.33237L42.2563 12.774C42.251 12.7793 42.2464 12.7849 42.2411 12.7902C39.6854 11.7709 36.96 11.2708 33.9767 11.2708C21.4482 11.2708 11.2556 21.4691 11.2556 34.0044C11.2556 46.5398 21.4482 56.7381 33.9767 56.7381C46.5051 56.7381 56.6977 46.5398 56.6977 34.0044C56.6977 31.1977 56.281 28.7011 55.4046 26.321C55.4254 26.3019 55.4473 26.2842 55.4675 26.264L60.9186 20.8099C62.9207 24.8994 63.9696 29.4123 63.9696 34.0044V34.0044Z" fill="#C33DAB"/>
</svg>
