<svg width="71" height="70" viewBox="0 0 71 70" fill="none" xmlns="http://www.w3.org/2000/svg">
<path d="M8.16667 57.166C7.85725 57.166 7.5605 57.2889 7.34171 57.5077C7.12292 57.7265 7 58.0233 7 58.3327V62.9993C7 63.3088 7.12292 63.6055 7.34171 63.8243C7.5605 64.0431 7.85725 64.166 8.16667 64.166H12.8333C13.1428 64.166 13.4395 64.0431 13.6583 63.8243C13.8771 63.6055 14 63.3088 14 62.9993V58.3327C14 58.0233 13.8771 57.7265 13.6583 57.5077C13.4395 57.2889 13.1428 57.166 12.8333 57.166H8.16667ZM11.6667 61.8327H9.33333V59.4993H11.6667V61.8327Z" fill="#DE8787"/>
<path d="M18.6667 57.166C18.3572 57.166 18.0605 57.2889 17.8417 57.5077C17.6229 57.7265 17.5 58.0233 17.5 58.3327V62.9993C17.5 63.3088 17.6229 63.6055 17.8417 63.8243C18.0605 64.0431 18.3572 64.166 18.6667 64.166H23.3333C23.6428 64.166 23.9395 64.0431 24.1583 63.8243C24.3771 63.6055 24.5 63.3088 24.5 62.9993V58.3327C24.5 58.0233 24.3771 57.7265 24.1583 57.5077C23.9395 57.2889 23.6428 57.166 23.3333 57.166H18.6667ZM22.1667 61.8327H19.8333V59.4993H22.1667V61.8327Z" fill="#DE8787"/>
<path d="M68.835 7H65.335V3.5C65.335 3.19058 65.2121 2.89383 64.9933 2.67504C64.7745 2.45625 64.4777 2.33333 64.1683 2.33333H60.6683V1.16667C60.6683 0.857247 60.5454 0.560501 60.3266 0.341709C60.1078 0.122916 59.8111 0 59.5017 0H54.835C54.5256 0 54.2288 0.122916 54.01 0.341709C53.7912 0.560501 53.6683 0.857247 53.6683 1.16667V11.6667H50.1683C49.8589 11.6667 49.5622 11.7896 49.3434 12.0084C49.1246 12.2272 49.0017 12.5239 49.0017 12.8333V22.6952C45.8946 19.1357 41.5483 16.8936 36.8468 16.4248C32.1454 15.956 27.4419 17.2958 23.6932 20.1717C23.5713 20.2647 23.4691 20.3807 23.3921 20.5133C23.3152 20.6458 23.2651 20.7922 23.2447 20.9441C23.2244 21.096 23.2341 21.2504 23.2734 21.3985C23.3127 21.5466 23.3808 21.6855 23.4738 21.8073C23.5668 21.9291 23.6829 22.0314 23.8154 22.1084C23.948 22.1853 24.0943 22.2354 24.2462 22.2558C24.3981 22.2761 24.5525 22.2664 24.7006 22.2271C24.8488 22.1878 24.9877 22.1197 25.1095 22.0267C27.9444 19.8433 31.4234 18.6616 35.0017 18.6667C39.3321 18.6713 43.4839 20.3936 46.5459 23.4557C49.608 26.5178 51.3304 30.6696 51.335 35C51.3406 38.5784 50.1589 42.0575 47.975 44.8922C47.787 45.1382 47.7045 45.4487 47.7455 45.7556C47.7865 46.0625 47.9477 46.3404 48.1937 46.5284C48.4397 46.7164 48.7503 46.7989 49.0572 46.7579C49.364 46.7169 49.642 46.5557 49.83 46.3097C51.3169 44.393 52.4076 42.1997 53.0387 39.8575C53.6699 37.5153 53.8287 35.0709 53.5062 32.6667H68.835C69.1444 32.6667 69.4412 32.5438 69.66 32.325C69.8787 32.1062 70.0017 31.8094 70.0017 31.5V26.8333C70.0017 26.5239 69.8787 26.2272 69.66 26.0084C69.4412 25.7896 69.1444 25.6667 68.835 25.6667C68.5256 25.6667 68.2288 25.7896 68.01 26.0084C67.7912 26.2272 67.6683 26.5239 67.6683 26.8333V30.3333H65.335V26.8333C65.335 26.5239 65.2121 26.2272 64.9933 26.0084C64.7745 25.7896 64.4777 25.6667 64.1683 25.6667H54.835C54.5256 25.6667 54.2288 25.7896 54.01 26.0084C53.7912 26.2272 53.6683 26.5239 53.6683 26.8333V30.3333H53.0535C52.6669 28.8164 52.0894 27.3545 51.335 25.9828V23.3333H68.835C69.1444 23.3333 69.4412 23.2104 69.66 22.9916C69.8787 22.7728 70.0017 22.4761 70.0017 22.1667V8.16667C70.0017 7.85725 69.8787 7.5605 69.66 7.34171C69.4412 7.12292 69.1444 7 68.835 7ZM63.0017 30.3333H60.6683V28H63.0017V30.3333ZM56.0017 28H58.335V30.3333H56.0017V28ZM60.6683 16.3333V14H67.6683V16.3333H60.6683ZM56.0017 9.33333H58.335V11.6667H56.0017V9.33333ZM63.0017 11.6667H60.6683V9.33333H63.0017V11.6667ZM56.0017 14H58.335V16.3333H56.0017V14ZM67.6683 11.6667H65.335V9.33333H67.6683V11.6667ZM63.0017 4.66667V7H60.6683V4.66667H63.0017ZM56.0017 2.33333H58.335V7H56.0017V2.33333ZM51.335 14H53.6683V16.3333H51.335V14ZM51.335 18.6667H53.6683V21H51.335V18.6667ZM56.0017 18.6667H58.335V21H56.0017V18.6667ZM60.6683 18.6667H63.0017V21H60.6683V18.6667ZM67.6683 21H65.335V18.6667H67.6683V21Z" fill="#DE8787"/>
<path d="M46.3085 49.828C46.5545 49.6402 46.7158 49.3623 46.7569 49.0556C46.7981 48.7488 46.7157 48.4383 46.5278 48.1923C46.34 47.9463 46.0622 47.785 45.7554 47.7439C45.4487 47.7028 45.1382 47.7852 44.8922 47.973C42.0572 50.1564 38.5783 51.338 35 51.333C30.6696 51.3284 26.5178 49.606 23.4557 46.544C20.3936 43.4819 18.6713 39.3301 18.6667 34.9997C18.661 31.4213 19.8427 27.9421 22.0267 25.1075C22.1197 24.9857 22.1879 24.8467 22.2273 24.6986C22.2667 24.5505 22.2765 24.396 22.2562 24.2441C22.2359 24.0921 22.1858 23.9457 22.1089 23.8131C22.032 23.6805 21.9297 23.5643 21.8079 23.4712C21.6861 23.3782 21.5472 23.31 21.399 23.2706C21.2509 23.2312 21.0964 23.2214 20.9445 23.2417C20.7925 23.2621 20.6461 23.3121 20.5135 23.389C20.3809 23.4659 20.2647 23.5682 20.1717 23.69C17.7417 26.8552 16.3965 30.7192 16.3355 34.7091C16.2746 38.6991 17.5011 42.6024 19.8333 45.8403V51.333H17.5V43.1663C17.5 42.8569 17.3771 42.5602 17.1583 42.3414C16.9395 42.1226 16.6428 41.9997 16.3333 41.9997H11.6667C11.3572 41.9997 11.0605 42.1226 10.8417 42.3414C10.6229 42.5602 10.5 42.8569 10.5 43.1663V51.333H7C6.69061 51.3331 6.39391 51.456 6.17517 51.6748L0.341833 57.5082C0.123026 57.7269 6.6077e-05 58.0236 0 58.333V68.833C0 69.1424 0.122916 69.4392 0.341709 69.6579C0.560501 69.8767 0.857247 69.9997 1.16667 69.9997H29.1667C29.4761 69.9997 29.7728 69.8767 29.9916 69.6579C30.2104 69.4392 30.3333 69.1424 30.3333 68.833V65.333C30.3333 65.0236 30.2104 64.7268 29.9916 64.508C29.7728 64.2892 29.4761 64.1663 29.1667 64.1663C28.8573 64.1663 28.5605 64.2892 28.3417 64.508C28.1229 64.7268 28 65.0236 28 65.333V67.6663H2.33333V58.816L7.483 53.6663H28V60.6663C28 60.9757 28.1229 61.2725 28.3417 61.4913C28.5605 61.7101 28.8573 61.833 29.1667 61.833C29.4761 61.833 29.7728 61.7101 29.9916 61.4913C30.2104 61.2725 30.3333 60.9757 30.3333 60.6663V53.0515C33.065 53.7755 35.9266 53.8614 38.6968 53.3024C41.4669 52.7434 44.0713 51.5546 46.3085 49.828ZM15.1667 44.333V46.6663H12.8333V44.333H15.1667ZM12.8333 51.333V48.9997H15.1667V51.333H12.8333ZM22.1667 51.333V48.5202C23.3148 49.6152 24.5971 50.5603 25.9828 51.333H22.1667Z" fill="#DE8787"/>
<path d="M42.0027 35.0005C42.3121 35.0005 42.6089 34.8776 42.8277 34.6588C43.0464 34.44 43.1694 34.1433 43.1694 33.8339V28.0005C43.1693 27.8075 43.1214 27.6174 43.0299 27.4474C42.9383 27.2775 42.806 27.1329 42.6448 27.0266C42.4837 26.9203 42.2986 26.8557 42.1063 26.8386C41.914 26.8214 41.7205 26.8523 41.543 26.9284L33.5257 30.3642L26.8734 30.3339C26.864 30.3339 26.8559 30.3339 26.8454 30.3339H25.6974H25.6694C24.4317 30.3311 23.2436 30.8201 22.3665 31.6933C21.4893 32.5665 20.995 33.7523 20.9922 34.99C20.9894 36.2277 21.4784 37.4158 22.3516 38.2929C23.2248 39.1701 24.4107 39.6644 25.6484 39.6672H25.9925L27.5325 44.3572C27.753 45.0318 28.1804 45.6197 28.754 46.0375C29.3277 46.4553 30.0184 46.6818 30.728 46.6847H30.7455C31.2794 46.6838 31.8054 46.5566 32.2807 46.3135C32.756 46.0704 33.167 45.7182 33.4801 45.2859C33.7933 44.8535 33.9996 44.3531 34.0824 43.8257C34.1651 43.2983 34.1219 42.7588 33.9562 42.2514L33.1057 39.6672H33.6739L41.536 43.0715C41.7137 43.1491 41.9079 43.1811 42.1011 43.1648C42.2943 43.1484 42.4803 43.0842 42.6424 42.9779C42.8046 42.8716 42.9376 42.7266 43.0296 42.5559C43.1216 42.3853 43.1697 42.1944 43.1694 42.0005V38.5005C43.1694 38.1911 43.0464 37.8944 42.8277 37.6756C42.6089 37.4568 42.3121 37.3339 42.0027 37.3339C41.6933 37.3339 41.3965 37.4568 41.1777 37.6756C40.9589 37.8944 40.836 38.1911 40.836 38.5005V40.2249L34.9887 37.6932L35.0027 32.2705L40.836 29.7704V33.8339C40.836 34.1433 40.9589 34.44 41.1777 34.6588C41.3965 34.8776 41.6933 35.0005 42.0027 35.0005ZM25.6425 37.3339C25.0237 37.3303 24.4316 37.0811 23.9965 36.641C23.5615 36.2009 23.3191 35.6059 23.3226 34.9871C23.3262 34.3683 23.5754 33.7762 24.0155 33.3411C24.4556 32.9061 25.0505 32.6636 25.6694 32.6672L25.6425 37.3339ZM28.0295 32.6672L32.6694 32.6929L32.6472 37.328L28.0027 37.3082L28.0295 32.6672ZM31.5902 43.915C31.4936 44.0492 31.3663 44.1584 31.219 44.2335C31.0717 44.3086 30.9086 44.3474 30.7432 44.3467C30.5244 44.3459 30.3113 44.2767 30.1338 44.1489C29.9562 44.0211 29.823 43.8411 29.7527 43.6339L28.453 39.6777L30.6592 39.6882L31.7407 42.9817C31.7924 43.1389 31.8058 43.3062 31.7796 43.4696C31.7534 43.633 31.6885 43.7877 31.5902 43.9209V43.915Z" fill="#DE8787"/>
<path d="M47.8307 36.1663C48.4751 36.1663 48.9974 35.644 48.9974 34.9997C48.9974 34.3553 48.4751 33.833 47.8307 33.833C47.1864 33.833 46.6641 34.3553 46.6641 34.9997C46.6641 35.644 47.1864 36.1663 47.8307 36.1663Z" fill="#DE8787"/>
<path d="M46.6667 40.8333C47.311 40.8333 47.8333 40.311 47.8333 39.6667C47.8333 39.0223 47.311 38.5 46.6667 38.5C46.0223 38.5 45.5 39.0223 45.5 39.6667C45.5 40.311 46.0223 40.8333 46.6667 40.8333Z" fill="#DE8787"/>
<path d="M46.6667 31.4993C47.311 31.4993 47.8333 30.977 47.8333 30.3327C47.8333 29.6884 47.311 29.166 46.6667 29.166C46.0223 29.166 45.5 29.6884 45.5 30.3327C45.5 30.977 46.0223 31.4993 46.6667 31.4993Z" fill="#DE8787"/>
<path d="M62.7693 35.4661C62.6559 35.3283 62.5134 35.2173 62.352 35.1411C62.1906 35.0649 62.0144 35.0254 61.8359 35.0254C61.6575 35.0254 61.4812 35.0649 61.3199 35.1411C61.1585 35.2173 61.016 35.3283 60.9026 35.4661L53.9026 44.7994C53.7726 44.9728 53.6934 45.1789 53.674 45.3947C53.6545 45.6104 53.6955 45.8274 53.7924 46.0212C53.8893 46.215 54.0383 46.378 54.2226 46.4919C54.4069 46.6058 54.6193 46.6661 54.8359 46.6661H58.3359V50.1661C58.3319 53.5685 56.9786 56.8304 54.5727 59.2362C52.1669 61.6421 48.905 62.9954 45.5026 62.9994H38.5026C38.1932 62.9994 37.8964 63.1223 37.6776 63.3411C37.4589 63.5599 37.3359 63.8567 37.3359 64.1661V68.8328C37.3359 69.1422 37.4589 69.4389 37.6776 69.6577C37.8964 69.8765 38.1932 69.9994 38.5026 69.9994H45.5026C50.7609 69.9936 55.8022 67.9021 59.5204 64.1839C63.2386 60.4657 65.3301 55.4244 65.3359 50.1661C65.3359 49.8567 65.213 49.5599 64.9942 49.3411C64.7754 49.1223 64.4787 48.9994 64.1693 48.9994C63.8598 48.9994 63.5631 49.1223 63.3443 49.3411C63.1255 49.5599 63.0026 49.8567 63.0026 50.1661C62.9974 54.8058 61.1519 59.2539 57.8712 62.5347C54.5904 65.8154 50.1423 67.6609 45.5026 67.6661H39.6693V65.3328H45.5026C49.5236 65.3281 53.3786 63.7287 56.2219 60.8854C59.0652 58.0421 60.6646 54.1871 60.6693 50.1661V45.4994C60.6693 45.19 60.5464 44.8933 60.3276 44.6745C60.1088 44.4557 59.812 44.3328 59.5026 44.3328H57.1693L61.8359 38.1109L66.5026 44.3328H64.1693C63.8598 44.3328 63.5631 44.4557 63.3443 44.6745C63.1255 44.8933 63.0026 45.19 63.0026 45.4994C63.0026 45.8089 63.1255 46.1056 63.3443 46.3244C63.5631 46.5432 63.8598 46.6661 64.1693 46.6661H68.8359C69.0526 46.6661 69.265 46.6058 69.4493 46.4919C69.6336 46.378 69.7825 46.215 69.8794 46.0212C69.9763 45.8274 70.0173 45.6104 69.9979 45.3947C69.9784 45.1789 69.8993 44.9728 69.7693 44.7994L62.7693 35.4661Z" fill="#DE8787"/>
<path d="M7.23333 34.5333C7.34201 34.6782 7.48292 34.7958 7.64492 34.8768C7.80692 34.9578 7.98555 35 8.16667 35C8.34779 35 8.52642 34.9578 8.68842 34.8768C8.85041 34.7958 8.99133 34.6782 9.1 34.5333L16.1 25.2C16.23 25.0267 16.3092 24.8206 16.3286 24.6048C16.3481 24.389 16.3071 24.172 16.2102 23.9782C16.1133 23.7845 15.9643 23.6215 15.78 23.5076C15.5957 23.3937 15.3833 23.3333 15.1667 23.3333H11.6667V19.8333C11.6707 16.431 13.024 13.1691 15.4299 10.7632C17.8357 8.35738 21.0976 7.00401 24.5 7H31.5C31.8094 7 32.1062 6.87708 32.325 6.65829C32.5438 6.4395 32.6667 6.14275 32.6667 5.83333V1.16667C32.6667 0.857247 32.5438 0.560501 32.325 0.341709C32.1062 0.122916 31.8094 0 31.5 0H24.5C19.2417 0.00586712 14.2004 2.09733 10.4822 5.81553C6.764 9.53373 4.67253 14.575 4.66667 19.8333C4.66667 20.1428 4.78958 20.4395 5.00838 20.6583C5.22717 20.8771 5.52391 21 5.83333 21C6.14275 21 6.4395 20.8771 6.65829 20.6583C6.87708 20.4395 7 20.1428 7 19.8333C7.00525 15.1937 8.85068 10.7455 12.1314 7.46476C15.4122 4.18401 19.8603 2.33858 24.5 2.33333H30.3333V4.66667H24.5C20.479 4.6713 16.624 6.2707 13.7807 9.114C10.9374 11.9573 9.33797 15.8123 9.33333 19.8333V24.5C9.33333 24.8094 9.45625 25.1062 9.67504 25.325C9.89384 25.5438 10.1906 25.6667 10.5 25.6667H12.8333L8.16667 31.8885L3.5 25.6667H5.83333C6.14275 25.6667 6.4395 25.5438 6.65829 25.325C6.87708 25.1062 7 24.8094 7 24.5C7 24.1906 6.87708 23.8938 6.65829 23.675C6.4395 23.4562 6.14275 23.3333 5.83333 23.3333H1.16667C0.950003 23.3333 0.73762 23.3937 0.553314 23.5076C0.369009 23.6215 0.220064 23.7845 0.123169 23.9782C0.0262736 24.172 -0.0147429 24.389 0.0047147 24.6048C0.0241723 24.8206 0.103336 25.0267 0.233334 25.2L7.23333 34.5333Z" fill="#DE8787"/>
</svg>
