<svg width="69" height="70" viewBox="0 0 69 70" fill="none" xmlns="http://www.w3.org/2000/svg">
<path d="M40.25 60.8201H37.95V49.5742C37.95 49.2699 37.8288 48.978 37.6132 48.7628C37.3975 48.5476 37.105 48.4267 36.8 48.4267C36.495 48.4267 36.2025 48.5476 35.9868 48.7628C35.7712 48.978 35.65 49.2699 35.65 49.5742V60.8201H5.75V37.8693H15.318C15.623 37.8693 15.9155 37.7484 16.1312 37.5332C16.3468 37.318 16.468 37.0261 16.468 36.7218C16.468 36.4174 16.3468 36.1255 16.1312 35.9103C15.9155 35.6951 15.623 35.5742 15.318 35.5742H4.6C4.295 35.5742 4.00249 35.6951 3.78683 35.9103C3.57116 36.1255 3.45 36.4174 3.45 36.7218V60.8201H1.15C0.845001 60.8201 0.552494 60.941 0.336827 61.1562C0.12116 61.3714 0 61.6633 0 61.9677V64.2627C0 65.7845 0.605802 67.2439 1.68414 68.3199C2.76247 69.3959 4.22501 70.0005 5.75 70.0005H35.65C37.175 70.0005 38.6375 69.3959 39.7159 68.3199C40.7942 67.2439 41.4 65.7845 41.4 64.2627V61.9677C41.4 61.6633 41.2788 61.3714 41.0632 61.1562C40.8475 60.941 40.555 60.8201 40.25 60.8201ZM39.1 64.2627C39.1 65.1758 38.7365 66.0514 38.0895 66.697C37.4425 67.3427 36.565 67.7054 35.65 67.7054H33.35V66.5578C33.35 66.2535 33.2288 65.9616 33.0132 65.7464C32.7975 65.5312 32.505 65.4103 32.2 65.4103C31.895 65.4103 31.6025 65.5312 31.3868 65.7464C31.1712 65.9616 31.05 66.2535 31.05 66.5578V67.7054H10.35V66.5578C10.35 66.2535 10.2288 65.9616 10.0132 65.7464C9.79751 65.5312 9.505 65.4103 9.2 65.4103C8.895 65.4103 8.6025 65.5312 8.38683 65.7464C8.17116 65.9616 8.05 66.2535 8.05 66.5578V67.7054H5.75C4.835 67.7054 3.95748 67.3427 3.31048 66.697C2.66348 66.0514 2.3 65.1758 2.3 64.2627V63.1152H39.1V64.2627Z" fill="#0085FF"/>
<path d="M59.7969 8.03336H62.0969C62.4019 8.03336 62.6944 7.91246 62.91 7.69726C63.1257 7.48205 63.2469 7.19017 63.2469 6.88582C63.2469 6.58148 63.1257 6.28959 62.91 6.07439C62.6944 5.85918 62.4019 5.73828 62.0969 5.73828H59.7969C58.8819 5.73828 58.0044 6.10099 57.3574 6.7466C56.7104 7.39222 56.3469 8.26786 56.3469 9.1809V10.3284H55.1969C54.8919 10.3284 54.5994 10.4493 54.3837 10.6646C54.168 10.8798 54.0469 11.1716 54.0469 11.476C54.0469 11.7803 54.168 12.0722 54.3837 12.2874C54.5994 12.5026 54.8919 12.6235 55.1969 12.6235H56.3469V16.0662C56.3469 16.3705 56.468 16.6624 56.6837 16.8776C56.8994 17.0928 57.1919 17.2137 57.4969 17.2137C57.8019 17.2137 58.0944 17.0928 58.31 16.8776C58.5257 16.6624 58.6469 16.3705 58.6469 16.0662V12.6235H59.7969C60.1019 12.6235 60.3944 12.5026 60.61 12.2874C60.8257 12.0722 60.9469 11.7803 60.9469 11.476C60.9469 11.1716 60.8257 10.8798 60.61 10.6646C60.3944 10.4493 60.1019 10.3284 59.7969 10.3284H58.6469V9.1809C58.6469 8.87656 58.768 8.58468 58.9837 8.36947C59.1994 8.15426 59.4919 8.03336 59.7969 8.03336Z" fill="#0085FF"/>
<path d="M65.5508 1.14746H51.7508C50.8358 1.14746 49.9583 1.51016 49.3113 2.15578C48.6643 2.8014 48.3008 3.67704 48.3008 4.59008V6.88517C48.3008 7.18951 48.4219 7.48139 48.6376 7.6966C48.8533 7.91181 49.1458 8.03271 49.4508 8.03271C49.7558 8.03271 50.0483 7.91181 50.264 7.6966C50.4796 7.48139 50.6008 7.18951 50.6008 6.88517V4.59008C50.6008 4.28574 50.7219 3.99386 50.9376 3.77865C51.1533 3.56344 51.4458 3.44254 51.7508 3.44254H65.5508C65.8558 3.44254 66.1483 3.56344 66.364 3.77865C66.5796 3.99386 66.7008 4.28574 66.7008 4.59008V18.3606C66.7008 18.6649 66.5796 18.9568 66.364 19.172C66.1483 19.3872 65.8558 19.5081 65.5508 19.5081H51.7508C51.4458 19.5081 51.1533 19.3872 50.9376 19.172C50.7219 18.9568 50.6008 18.6649 50.6008 18.3606V11.4753C50.6008 11.171 50.4796 10.8791 50.264 10.6639C50.0483 10.4487 49.7558 10.3278 49.4508 10.3278C49.1458 10.3278 48.8533 10.4487 48.6376 10.6639C48.4219 10.8791 48.3008 11.171 48.3008 11.4753V18.3606C48.3008 19.2736 48.6643 20.1493 49.3113 20.7949C49.9583 21.4405 50.8358 21.8032 51.7508 21.8032H65.5508C66.4658 21.8032 67.3433 21.4405 67.9903 20.7949C68.6373 20.1493 69.0008 19.2736 69.0008 18.3606V4.59008C69.0008 3.67704 68.6373 2.8014 67.9903 2.15578C67.3433 1.51016 66.4658 1.14746 65.5508 1.14746Z" fill="#0085FF"/>
<path d="M54.0469 47.0491C54.0469 47.957 54.3167 48.8445 54.8221 49.5993C55.3276 50.3542 56.046 50.9425 56.8865 51.2899C57.7271 51.6373 58.652 51.7282 59.5443 51.5511C60.4366 51.374 61.2562 50.9368 61.8996 50.2949C62.5429 49.6529 62.981 48.835 63.1585 47.9446C63.336 47.0542 63.2449 46.1313 62.8967 45.2926C62.5486 44.4538 61.959 43.7369 61.2025 43.2326C60.446 42.7282 59.5567 42.459 58.6469 42.459C57.4269 42.459 56.2569 42.9426 55.3942 43.8034C54.5315 44.6642 54.0469 45.8318 54.0469 47.0491ZM60.9469 47.0491C60.9469 47.5031 60.812 47.9468 60.5593 48.3242C60.3065 48.7017 59.9473 48.9958 59.527 49.1695C59.1068 49.3432 58.6443 49.3887 58.1982 49.3001C57.752 49.2116 57.3422 48.993 57.0205 48.672C56.6989 48.351 56.4798 47.9421 56.3911 47.4969C56.3023 47.0517 56.3479 46.5902 56.522 46.1709C56.696 45.7515 56.9908 45.393 57.3691 45.1409C57.7473 44.8887 58.192 44.7541 58.6469 44.7541C59.2569 44.7541 59.8419 44.9959 60.2732 45.4263C60.7046 45.8567 60.9469 46.4405 60.9469 47.0491Z" fill="#0085FF"/>
<path d="M65.5508 36.7207H51.7508C50.8358 36.7207 49.9583 37.0834 49.3113 37.729C48.6643 38.3746 48.3008 39.2503 48.3008 40.1633V53.9338C48.3008 54.8469 48.6643 55.7225 49.3113 56.3681C49.9583 57.0137 50.8358 57.3764 51.7508 57.3764H65.5508C66.4658 57.3764 67.3433 57.0137 67.9903 56.3681C68.6373 55.7225 69.0008 54.8469 69.0008 53.9338V51.6387C69.0008 51.3344 68.8796 51.0425 68.664 50.8273C68.4483 50.6121 68.1558 50.4912 67.8508 50.4912C67.5458 50.4912 67.2533 50.6121 67.0376 50.8273C66.8219 51.0425 66.7008 51.3344 66.7008 51.6387V53.9338C66.7008 54.2382 66.5796 54.53 66.364 54.7453C66.1483 54.9605 65.8558 55.0814 65.5508 55.0814H51.7508C51.4458 55.0814 51.1533 54.9605 50.9376 54.7453C50.7219 54.53 50.6008 54.2382 50.6008 53.9338V40.1633C50.6008 39.859 50.7219 39.5671 50.9376 39.3519C51.1533 39.1367 51.4458 39.0158 51.7508 39.0158H65.5508C65.8558 39.0158 66.1483 39.1367 66.364 39.3519C66.5796 39.5671 66.7008 39.859 66.7008 40.1633V47.0486C66.7008 47.3529 66.8219 47.6448 67.0376 47.86C67.2533 48.0752 67.5458 48.1961 67.8508 48.1961C68.1558 48.1961 68.4483 48.0752 68.664 47.86C68.8796 47.6448 69.0008 47.3529 69.0008 47.0486V40.1633C69.0008 39.2503 68.6373 38.3746 67.9903 37.729C67.3433 37.0834 66.4658 36.7207 65.5508 36.7207Z" fill="#0085FF"/>
<path d="M25.8413 14.7459C26.0243 14.8591 26.2355 14.9188 26.4508 14.9181C26.6308 14.917 26.8081 14.8738 26.9683 14.7918L33.8683 11.3492C34.0567 11.2529 34.2147 11.1066 34.3251 10.9264C34.4355 10.7462 34.4939 10.5391 34.4939 10.3279C34.4939 10.1167 34.4355 9.9096 34.3251 9.7294C34.2147 9.5492 34.0567 9.40289 33.8683 9.30659L26.9683 5.86397C26.7932 5.77594 26.5985 5.73403 26.4026 5.74222C26.2068 5.7504 26.0163 5.80842 25.8492 5.91075C25.6821 6.01307 25.544 6.15632 25.4481 6.32689C25.3521 6.49745 25.3014 6.68966 25.3008 6.88528V13.7705C25.3004 13.9655 25.3498 14.1574 25.4444 14.3281C25.539 14.4988 25.6756 14.6426 25.8413 14.7459ZM27.6008 8.7443L30.7748 10.3279L27.6008 11.9115V8.7443Z" fill="#0085FF"/>
<path d="M28.7484 20.6557C30.7955 20.6557 32.7965 20.05 34.4986 18.9152C36.2006 17.7803 37.5272 16.1673 38.3106 14.2802C39.094 12.393 39.2989 10.3164 38.8996 8.31301C38.5002 6.3096 37.5145 4.46935 36.067 3.02497C34.6195 1.58059 32.7753 0.596955 30.7676 0.198452C28.7599 -0.200051 26.6789 0.00447485 24.7877 0.786167C22.8964 1.56786 21.28 2.89161 20.1427 4.59002C19.0055 6.28843 18.3984 8.28521 18.3984 10.3279C18.3984 13.067 19.4889 15.6939 21.4299 17.6308C23.3709 19.5676 26.0034 20.6557 28.7484 20.6557ZM28.7484 2.29509C30.3406 2.29509 31.897 2.7662 33.2208 3.64886C34.5446 4.53151 35.5764 5.78606 36.1857 7.25386C36.795 8.72166 36.9544 10.3368 36.6438 11.895C36.3331 13.4532 35.5665 14.8845 34.4406 16.0079C33.3148 17.1313 31.8805 17.8964 30.3189 18.2063C28.7574 18.5163 27.1388 18.3572 25.6678 17.7492C24.1969 17.1412 22.9397 16.1116 22.0551 14.7907C21.1706 13.4697 20.6984 11.9166 20.6984 10.3279C20.6984 8.19745 21.5466 6.15427 23.0562 4.64784C24.5659 3.1414 26.6134 2.29509 28.7484 2.29509Z" fill="#0085FF"/>
<path d="M40.2516 25.2456C40.4301 25.2456 40.6062 25.2041 40.7659 25.1245C40.9255 25.0448 41.0644 24.9291 41.1716 24.7866L44.6216 20.1964C44.8046 19.9529 44.8831 19.6469 44.84 19.3456C44.7969 19.0443 44.6356 18.7725 44.3916 18.5899C44.1476 18.4073 43.8409 18.3288 43.5389 18.3719C43.237 18.4149 42.9646 18.5759 42.7816 18.8194L39.3316 23.4095C39.1486 23.653 39.07 23.9591 39.1131 24.2604C39.1563 24.5616 39.3176 24.8335 39.5616 25.0161C39.7606 25.1651 40.0027 25.2456 40.2516 25.2456Z" fill="#0085FF"/>
<path d="M42.7808 29.3773C42.8879 29.5198 43.0268 29.6355 43.1865 29.7152C43.3462 29.7949 43.5223 29.8363 43.7008 29.8363C43.9496 29.8363 44.1917 29.7558 44.3908 29.6068L48.9908 26.1642C49.2348 25.9816 49.3961 25.7098 49.4392 25.4085C49.4824 25.1072 49.4038 24.8011 49.2208 24.5577C49.0378 24.3142 48.7654 24.1532 48.4634 24.1102C48.1615 24.0671 47.8548 24.1455 47.6108 24.3281L43.0108 27.7708C42.7668 27.9534 42.6055 28.2252 42.5623 28.5265C42.5192 28.8278 42.5978 29.1339 42.7808 29.3773Z" fill="#0085FF"/>
<path d="M54.0496 31.9021C54.0223 31.7499 53.9645 31.6049 53.8796 31.4756C53.7947 31.3463 53.6845 31.2355 53.5556 31.1498C53.4267 31.064 53.2818 31.0052 53.1296 30.9767C52.9773 30.9482 52.8209 30.9507 52.6696 30.984L46.9196 32.1316C46.7686 32.1467 46.6221 32.1913 46.4883 32.2629C46.3546 32.3344 46.2363 32.4316 46.1402 32.5488C45.9461 32.7856 45.8541 33.0895 45.8846 33.3939C45.9151 33.6982 46.0656 33.978 46.3028 34.1717C46.54 34.3654 46.8446 34.4571 47.1496 34.4267H47.3796L53.1296 33.2791C53.2821 33.2519 53.4275 33.1941 53.557 33.1094C53.6866 33.0247 53.7977 32.9147 53.8836 32.7861C53.9695 32.6575 54.0285 32.5129 54.057 32.361C54.0856 32.2091 54.0831 32.053 54.0496 31.9021Z" fill="#0085FF"/>
<path d="M1.15 32.1313H14.95C15.255 32.1313 15.5475 32.0104 15.7632 31.7952C15.9788 31.58 16.1 31.2881 16.1 30.9838V12.6231C16.1 12.3188 15.9788 12.0269 15.7632 11.8117C15.5475 11.5965 15.255 11.4756 14.95 11.4756H1.15C0.845001 11.4756 0.552494 11.5965 0.336827 11.8117C0.12116 12.0269 0 12.3188 0 12.6231V30.9838C0 31.2881 0.12116 31.58 0.336827 31.7952C0.552494 32.0104 0.845001 32.1313 1.15 32.1313ZM2.3 13.7707H13.8V29.8362H2.3V13.7707Z" fill="#0085FF"/>
<path d="M10.3484 16.0654H8.04844C7.74344 16.0654 7.45093 16.1863 7.23526 16.4015C7.0196 16.6167 6.89844 16.9086 6.89844 17.213C6.89844 17.5173 7.0196 17.8092 7.23526 18.0244C7.45093 18.2396 7.74344 18.3605 8.04844 18.3605H10.3484C10.6534 18.3605 10.9459 18.2396 11.1616 18.0244C11.3773 17.8092 11.4984 17.5173 11.4984 17.213C11.4984 16.9086 11.3773 16.6167 11.1616 16.4015C10.9459 16.1863 10.6534 16.0654 10.3484 16.0654Z" fill="#0085FF"/>
<path d="M10.3516 20.6562H5.75156C5.44656 20.6562 5.15406 20.7772 4.93839 20.9924C4.72272 21.2076 4.60156 21.4994 4.60156 21.8038C4.60156 22.1081 4.72272 22.4 4.93839 22.6152C5.15406 22.8304 5.44656 22.9513 5.75156 22.9513H10.3516C10.6566 22.9513 10.9491 22.8304 11.1647 22.6152C11.3804 22.4 11.5016 22.1081 11.5016 21.8038C11.5016 21.4994 11.3804 21.2076 11.1647 20.9924C10.9491 20.7772 10.6566 20.6562 10.3516 20.6562Z" fill="#0085FF"/>
<path d="M10.3516 25.2461H5.75156C5.44656 25.2461 5.15406 25.367 4.93839 25.5822C4.72272 25.7974 4.60156 26.0893 4.60156 26.3936C4.60156 26.698 4.72272 26.9899 4.93839 27.2051C5.15406 27.4203 5.44656 27.5412 5.75156 27.5412H10.3516C10.6566 27.5412 10.9491 27.4203 11.1647 27.2051C11.3804 26.9899 11.5016 26.698 11.5016 26.3936C11.5016 26.0893 11.3804 25.7974 11.1647 25.5822C10.9491 25.367 10.6566 25.2461 10.3516 25.2461Z" fill="#0085FF"/>
<path d="M39.2388 31.7869C39.1633 31.6558 39.0626 31.5408 38.9426 31.4485C38.8225 31.3562 38.6855 31.2884 38.5392 31.249C38.3929 31.2096 38.2402 31.1993 38.0899 31.2187C37.9397 31.2382 37.7947 31.287 37.6633 31.3623C37.5319 31.4377 37.4167 31.5381 37.3242 31.6579C37.2317 31.7777 37.1638 31.9145 37.1242 32.0605C37.0847 32.2064 37.0744 32.3588 37.0939 32.5087C37.1134 32.6587 37.1623 32.8033 37.2378 32.9345L42.3093 41.6902L23.9093 48.5754C23.9093 48.5754 23.9093 48.5754 23.8288 48.5754H23.7368L20.7468 50.2968L18.7573 51.4443C18.4954 51.5954 18.2062 51.6934 17.9062 51.7328C17.6063 51.7722 17.3015 51.7521 17.0093 51.6738C16.4223 51.5156 15.922 51.1319 15.6178 50.6066L13.3178 46.6361C13.0472 46.1166 12.9858 45.5136 13.1461 44.9504C13.3065 44.3873 13.6764 43.9065 14.1803 43.6066L18.1593 41.3115L21.0343 46.2804C21.1356 46.4555 21.2815 46.6008 21.4572 46.7015C21.6329 46.8023 21.8322 46.8549 22.0348 46.8541C22.237 46.8549 22.4359 46.8025 22.6114 46.7021C22.7869 46.6017 22.9327 46.4569 23.0342 46.2823C23.1356 46.1078 23.1892 45.9096 23.1894 45.7077C23.1896 45.5059 23.1364 45.3076 23.0353 45.1328L20.0683 40.0148L34.5008 28.1377L34.9723 28.9525C35.0478 29.0836 35.1485 29.1986 35.2685 29.2909C35.3885 29.3832 35.5256 29.451 35.6719 29.4904C35.8182 29.5298 35.9709 29.5401 36.1211 29.5207C36.2714 29.5012 36.4164 29.4524 36.5478 29.3771C36.6792 29.3017 36.7944 29.2013 36.8869 29.0815C36.9794 28.9617 37.0473 28.8249 37.0868 28.6789C37.1264 28.533 37.1367 28.3806 37.1172 28.2307C37.0977 28.0807 37.0488 27.9361 36.9733 27.8049L35.8233 25.8197C35.739 25.6759 35.6244 25.5522 35.4874 25.4571C35.3503 25.3619 35.1942 25.2977 35.0298 25.2689C34.8645 25.2378 34.6944 25.2433 34.5315 25.2849C34.3685 25.3265 34.2168 25.4033 34.0868 25.5099L17.9868 38.7525L13.0878 41.5754C12.2086 42.0864 11.524 42.8738 11.1412 43.8144C10.7583 44.7551 10.6987 45.7958 10.9718 46.7738L9.82179 47.4279C9.22926 47.7674 8.75111 48.2749 8.44797 48.8859C8.14483 49.497 8.03034 50.1841 8.11903 50.8601C8.20772 51.5362 8.4956 52.1707 8.94615 52.6833C9.3967 53.1959 9.98964 53.5635 10.6498 53.7394C10.9425 53.8167 11.244 53.8553 11.5468 53.8541C12.1518 53.8516 12.7459 53.6935 13.2718 53.3951L14.4218 52.741C14.9742 53.3105 15.669 53.7225 16.4343 53.9345C16.8273 54.0441 17.2337 54.0982 17.6418 54.0951C18.4501 54.097 19.2442 53.883 19.9418 53.4754L20.9423 52.9017L23.2423 56.8836C23.6994 57.6722 24.4511 58.2479 25.3327 58.4845C26.2143 58.7211 27.154 58.5993 27.9458 58.1459C28.3386 57.9201 28.683 57.6192 28.9592 57.2604C29.2354 56.9016 29.4381 56.4921 29.5556 56.0551C29.6731 55.6181 29.7031 55.1624 29.6439 54.7138C29.5848 54.2653 29.4376 53.8328 29.2108 53.441L27.1178 49.8033L44.3678 43.3427C44.5242 43.284 44.666 43.192 44.7831 43.0731C44.9003 42.9542 44.9901 42.8112 45.0463 42.6541C45.1023 42.4989 45.124 42.3335 45.1102 42.1691C45.0963 42.0048 45.047 41.8453 44.9658 41.7017L39.2388 31.7869ZM12.0758 51.3984C11.9448 51.4739 11.8002 51.523 11.6502 51.5427C11.5003 51.5623 11.3479 51.5523 11.2018 51.5131C10.9072 51.4368 10.6549 51.2469 10.5003 50.9853C10.4246 50.8546 10.3755 50.7103 10.3557 50.5606C10.336 50.411 10.346 50.2589 10.3853 50.1131C10.4246 49.9666 10.4925 49.8293 10.5853 49.7091C10.6781 49.589 10.7938 49.4884 10.9258 49.4131L11.9263 48.8394L13.0763 50.8246L12.0758 51.3984ZM27.2098 54.6115C27.2855 54.7422 27.3346 54.8865 27.3544 55.0361C27.3741 55.1858 27.364 55.3379 27.3248 55.4836C27.2428 55.7753 27.0485 56.0229 26.7843 56.1722C26.5216 56.3227 26.21 56.3638 25.9172 56.2864C25.6243 56.2091 25.3739 56.0196 25.2203 55.759L22.9203 51.7771L24.8293 50.6869H24.9213L27.2098 54.6115Z" fill="#0085FF"/>
</svg>
