<svg width="71" height="70" viewBox="0 0 71 70" fill="none" xmlns="http://www.w3.org/2000/svg">
<path d="M66.3491 26.6205C69.2429 23.0819 70.5085 18.4863 69.8346 13.9652C68.5268 5.0412 60.2325 -1.13305 51.3083 0.174738C47.285 0.764401 43.6261 2.83376 41.0479 5.97819C39.0126 8.57772 35.6388 9.73707 32.4356 8.93758C29.7422 8.18928 26.9262 7.98776 24.1535 8.345C14.7798 9.61065 7.38258 16.9403 6.03091 26.302C5.45072 30.4814 6.15106 34.7385 8.03961 38.5117C3.5349 38.5767 -0.0641644 42.2812 0.000867599 46.7858C0.0593381 50.8395 3.0861 54.2351 7.10641 54.7574L8.36506 67.667C8.36506 68.9556 9.40951 70 10.698 70H17.5045C18.1856 69.9994 18.8326 69.7011 19.2753 69.1835C19.736 68.6333 19.9246 67.905 19.7885 67.2004L16.6693 54.8356H17.2526C18.5427 54.8426 19.8311 54.9353 21.109 55.1132C25.2957 64.1897 34.3792 70.0019 44.3747 70C45.1446 70 45.9222 69.9654 46.7077 69.8962C59.0829 68.6744 68.8348 58.8152 69.9209 46.4275C70.3782 40.9303 69.0385 35.433 66.103 30.7627C65.2883 29.4721 65.3873 27.8056 66.3491 26.6205ZM7.0061 52.386C3.84927 51.745 1.80995 48.6663 2.45094 45.5095C2.91695 43.2143 4.71088 41.4203 7.0061 40.9543V52.386ZM17.5045 67.667L10.6922 67.5504L9.45573 54.8356H14.2605L17.5045 67.667ZM9.33908 52.5026V40.8377H11.6721V52.5026H9.33908ZM17.2491 52.5026H14.0051V40.8377H17.2491C20.6344 40.8388 23.9975 40.2929 27.2086 39.2209L32.6689 37.4012V55.9391L27.2086 54.1194C23.9975 53.0475 20.6344 52.5014 17.2491 52.5026ZM67.5879 46.2397C66.5575 59.0625 55.3273 68.6221 42.5045 67.5918C34.7135 66.9657 27.756 62.4738 23.9786 55.6311C24.8161 55.8306 25.649 56.0581 26.4714 56.331L39.3028 60.6074C39.4205 60.6468 39.5438 60.6672 39.6679 60.6681C40.3121 60.6681 40.8344 60.1458 40.8344 59.5016V53.6691C43.4113 53.6691 45.5004 51.5801 45.5004 49.0031V44.3372C45.5004 41.7602 43.4113 39.6712 40.8344 39.6712V33.8387C40.8345 33.1945 40.3124 32.6721 39.6682 32.6719C39.5428 32.6719 39.4183 32.692 39.2993 32.7317L26.4679 37.0081C23.4955 37.9996 20.3826 38.505 17.2491 38.5047H10.698C8.60084 34.9149 7.77132 30.7245 8.3429 26.6065C9.7526 16.4021 19.1677 9.27251 29.372 10.6821C30.1935 10.7955 31.0065 10.9638 31.8057 11.1854C35.9 12.2354 40.2285 10.7752 42.8501 7.45963C47.7338 1.47217 56.5465 0.577324 62.5341 5.46085C68.5217 10.3444 69.4165 19.1572 64.5329 25.1448C62.9408 27.105 62.7742 29.8616 64.1188 31.9992C66.7865 36.2452 68.0039 41.2424 67.5879 46.2397ZM35.0019 56.7171V36.6231L38.5014 35.4566V57.8836L35.0019 56.7171ZM40.8344 51.3361V42.0042C42.1229 42.0042 43.1674 43.0486 43.1674 44.3372V49.0031C43.1674 50.2917 42.1228 51.3361 40.8344 51.3361Z" fill="#6AD7C3"/>
<path d="M21.0019 47.8369H16.3359V50.1699H21.0019V47.8369Z" fill="#6AD7C3"/>
<path d="M21.0019 43.1709H16.3359V45.5039H21.0019V43.1709Z" fill="#6AD7C3"/>
<path d="M59.3003 15.6944C59.2149 15.5664 59.1051 15.4565 58.9769 15.371L51.978 10.7051C51.4421 10.3475 50.7177 10.492 50.3602 11.028C50.2323 11.2198 50.1641 11.4451 50.1641 11.6756V21.0075C50.1639 21.4378 50.4006 21.8333 50.78 22.0364C51.1595 22.2395 51.62 22.217 51.978 21.9781L58.9769 17.3121C59.5129 16.9547 59.6577 16.2305 59.3003 15.6944ZM52.497 18.8274V13.8558L56.2298 16.3416L52.497 18.8274Z" fill="#6AD7C3"/>
<path d="M53.6625 5.84277C47.8644 5.84277 43.1641 10.543 43.1641 16.3412C43.1705 22.1366 47.8671 26.8332 53.6625 26.8397C59.4607 26.8397 64.1609 22.1393 64.1609 16.3412C64.1609 10.5432 59.4606 5.84277 53.6625 5.84277ZM53.6625 24.5067C49.1528 24.5067 45.497 20.8509 45.497 16.3412C45.5022 11.8337 49.155 8.18086 53.6625 8.17576C58.1722 8.17576 61.828 11.8315 61.828 16.3412C61.828 20.8509 58.1722 24.5067 53.6625 24.5067Z" fill="#6AD7C3"/>
<path d="M30.3372 21.0072H29.1707C28.5266 21.0072 28.0043 20.485 28.0043 19.8408V16.3413C28.0043 14.4085 26.4375 12.8418 24.5048 12.8418C22.572 12.8418 21.0053 14.4085 21.0053 16.3413V19.8408C21.0053 20.485 20.483 21.0072 19.8388 21.0072C19.8388 20.3631 19.3165 19.8408 18.6723 19.8408H14.0063C13.3621 19.8408 12.8398 20.3631 12.8398 21.0072V33.8387C12.8398 34.4829 13.3621 35.0052 14.0063 35.0052H18.6723C19.3165 35.0052 19.8388 34.4829 19.8388 33.8387H30.3372C32.27 33.8387 33.8367 32.2719 33.8367 30.3392V24.5067C33.8367 22.5741 32.27 21.0072 30.3372 21.0072ZM17.5058 32.6722H15.1728V22.1737H17.5058V32.6722ZM31.5037 30.3392C31.5037 30.9834 30.9814 31.5057 30.3372 31.5057H19.8388V23.3402C21.7715 23.3402 23.3383 21.7735 23.3383 19.8408V16.3413C23.3383 15.6971 23.8606 15.1748 24.5048 15.1748C25.149 15.1748 25.6713 15.6971 25.6713 16.3413V19.8408C25.6713 21.7735 27.238 23.3402 29.1707 23.3402H30.3372C30.9814 23.3402 31.5037 23.8625 31.5037 24.5067V30.3392Z" fill="#6AD7C3"/>
<path d="M64.3028 42.3565L63.8058 41.8572C62.6239 40.683 60.7795 40.5007 59.3907 41.4209L58.1297 42.262L56.8687 41.4209C55.48 40.4998 53.635 40.6821 52.4535 41.8572L51.9543 42.3565C50.5882 43.723 50.5882 45.9382 51.9543 47.3047L57.3038 52.6531C57.7593 53.1085 58.4977 53.1085 58.9532 52.6531L64.3028 47.3047C65.6689 45.9382 65.6689 43.723 64.3028 42.3565ZM62.6554 45.6544C62.6551 45.6547 62.6548 45.655 62.6545 45.6553L58.1297 50.179L53.606 45.66C53.1507 45.2045 53.1507 44.4661 53.606 44.0106L54.1041 43.5125C54.4974 43.1191 55.1136 43.0581 55.5762 43.3666L57.4834 44.6381C57.8754 44.8997 58.3863 44.8997 58.7783 44.6381L60.6866 43.3666C61.1489 43.0584 61.7643 43.1189 62.1576 43.5113V43.5066L62.6545 44.0047C63.1103 44.4601 63.1108 45.1986 62.6554 45.6544Z" fill="#6AD7C3"/>
<path d="M45.5349 31.224L44.3672 35.8896L46.6293 36.4558L47.797 31.7902L45.5349 31.224Z" fill="#6AD7C3"/>
<path d="M51.9782 35.1281L47.3125 37.4609L48.3558 39.5476L53.0215 37.2147L51.9782 35.1281Z" fill="#6AD7C3"/>
<path d="M46.6254 58.0517L44.3633 58.6172L45.5296 63.2828L47.7917 62.7174L46.6254 58.0517Z" fill="#6AD7C3"/>
<path d="M48.3519 54.9573L47.3086 57.0439L51.9743 59.3768L53.0176 57.2902L48.3519 54.9573Z" fill="#6AD7C3"/>
<path d="M1.17188 31.5056H3.50486C3.50486 15.6763 12.8916 5.84275 28.0012 5.84275V3.50977C11.4522 3.50977 1.17188 14.2415 1.17188 31.5056Z" fill="#6AD7C3"/>
</svg>
