<svg width="71" height="70" viewBox="0 0 71 70" fill="none" xmlns="http://www.w3.org/2000/svg">
<path d="M49.834 0C46.3878 0.000507768 43.0757 1.33564 40.5926 3.72528C38.1095 6.11493 36.6484 9.37337 36.5157 12.817C36.3831 16.2606 37.5893 19.6218 39.8812 22.1954C42.1731 24.769 45.3727 26.3549 48.8086 26.6205V47.3047C48.8071 48.4827 48.3385 49.612 47.5056 50.445C46.6726 51.278 45.5432 51.7466 44.3652 51.748H40.4688C39.2907 51.7466 38.1614 51.278 37.3284 50.445C36.4954 49.612 36.0268 48.4827 36.0254 47.3047V31.1035C36.0232 29.3818 35.3383 27.7313 34.1209 26.5139C32.9035 25.2964 31.2529 24.6115 29.5312 24.6094H16.0645C14.3428 24.6115 12.6922 25.2964 11.4748 26.5139C10.2574 27.7313 9.57248 29.3818 9.57031 31.1035V40.6055H6.49414C4.77245 40.6076 3.1219 41.2925 1.90449 42.51C0.68707 43.7274 0.00217065 45.3779 0 47.0996L0 52.5684C0.000122802 52.6906 0.0218774 52.8119 0.0642578 52.9266L1.36719 56.4225V66.2402C1.36863 67.2369 1.76522 68.1924 2.47 68.8972C3.17477 69.602 4.13025 69.9986 5.12695 70H16.0645C17.0612 69.9986 18.0166 69.602 18.7214 68.8972C19.4262 68.1924 19.8228 67.2369 19.8242 66.2402V56.4225L21.1271 52.9266C21.1695 52.8119 21.1913 52.6906 21.1914 52.5684V47.0996C21.1892 45.3779 20.5043 43.7274 19.2869 42.51C18.0695 41.2925 16.419 40.6076 14.6973 40.6055H11.6211V31.1035C11.6225 29.9255 12.0911 28.7962 12.9241 27.9632C13.7571 27.1302 14.8864 26.6616 16.0645 26.6602H29.5312C30.7093 26.6616 31.8386 27.1302 32.6716 27.9632C33.5046 28.7962 33.9732 29.9255 33.9746 31.1035V47.3047C33.9768 49.0264 34.6617 50.6769 35.8791 51.8943C37.0965 53.1118 38.7471 53.7967 40.4688 53.7988H44.3652C46.0869 53.7967 47.7375 53.1118 48.9549 51.8943C50.1723 50.6769 50.8572 49.0264 50.8594 47.3047V26.6205C54.2953 26.3549 57.4949 24.769 59.7868 22.1954C62.0787 19.6218 63.2849 16.2606 63.1522 12.817C63.0196 9.37337 61.5584 6.11493 59.0753 3.72528C56.5922 1.33564 53.2802 0.000507768 49.834 0V0ZM11.6211 49.1504V51.8848C11.6211 52.1567 11.5131 52.4175 11.3208 52.6098C11.1285 52.8021 10.8677 52.9102 10.5957 52.9102C10.3238 52.9102 10.0629 52.8021 9.87064 52.6098C9.67834 52.4175 9.57031 52.1567 9.57031 51.8848V49.1504C9.57031 48.8784 9.67834 48.6176 9.87064 48.4253C10.0629 48.233 10.3238 48.125 10.5957 48.125C10.8677 48.125 11.1285 48.233 11.3208 48.4253C11.5131 48.6176 11.6211 48.8784 11.6211 49.1504ZM16.0645 67.9492H5.12695C4.67392 67.9485 4.23966 67.7682 3.91932 67.4479C3.59898 67.1275 3.41869 66.6933 3.41797 66.2402V57.6188C8.11659 58.9057 13.0748 58.9057 17.7734 57.6188V66.2402C17.7727 66.6933 17.5924 67.1275 17.2721 67.4479C16.9517 67.7682 16.5175 67.9485 16.0645 67.9492ZM19.1406 47.0996V52.3838L18.0113 55.4135C13.1805 56.9078 8.0109 56.9078 3.18008 55.4135L2.05078 52.3838V47.0996C2.05223 45.9216 2.52083 44.7923 3.35381 43.9593C4.18679 43.1263 5.31613 42.6577 6.49414 42.6562H9.57031V46.2506C8.97107 46.4633 8.4523 46.8562 8.08515 47.3753C7.71799 47.8945 7.52042 48.5145 7.51953 49.1504V51.8848C7.51953 52.7006 7.84363 53.4831 8.42052 54.0599C8.99741 54.6368 9.77985 54.9609 10.5957 54.9609C11.4116 54.9609 12.194 54.6368 12.7709 54.0599C13.3478 53.4831 13.6719 52.7006 13.6719 51.8848V49.1504C13.671 48.5145 13.4734 47.8945 13.1063 47.3753C12.7391 46.8562 12.2203 46.4633 11.6211 46.2506V42.6562H14.6973C15.8753 42.6577 17.0046 43.1263 17.8376 43.9593C18.6706 44.7923 19.1392 45.9216 19.1406 47.0996ZM49.834 24.6094C47.6031 24.6094 45.4224 23.9479 43.5675 22.7085C41.7127 21.4691 40.267 19.7075 39.4133 17.6465C38.5596 15.5855 38.3362 13.3176 38.7714 11.1296C39.2066 8.94163 40.2809 6.93185 41.8583 5.35441C43.4358 3.77697 45.4455 2.70272 47.6335 2.26751C49.8215 1.8323 52.0894 2.05566 54.1504 2.90937C56.2114 3.76307 57.973 5.20877 59.2124 7.06364C60.4518 8.91851 61.1133 11.0992 61.1133 13.3301C61.11 16.3205 59.9206 19.1876 57.8061 21.3021C55.6915 23.4167 52.8244 24.6061 49.834 24.6094Z" fill="#F181D8"/>
<path d="M68.9766 12.3047H66.9941C66.7222 12.3047 66.4614 12.4127 66.2691 12.605C66.0768 12.7973 65.9688 13.0581 65.9688 13.3301C65.9688 13.602 66.0768 13.8628 66.2691 14.0551C66.4614 14.2474 66.7222 14.3555 66.9941 14.3555H68.9766C69.2485 14.3555 69.5093 14.2474 69.7016 14.0551C69.8939 13.8628 70.002 13.602 70.002 13.3301C70.002 13.0581 69.8939 12.7973 69.7016 12.605C69.5093 12.4127 69.2485 12.3047 68.9766 12.3047Z" fill="#F181D8"/>
<path d="M66.2377 9.0588C66.4788 9.05966 66.7123 8.97487 66.8967 8.81954L68.4116 7.54806C68.6153 7.37191 68.7415 7.1227 68.763 6.85426C68.7844 6.58582 68.6995 6.31971 68.5264 6.11341C68.3533 5.9071 68.106 5.77717 67.8379 5.75168C67.5698 5.72619 67.3025 5.80718 67.0936 5.97716L65.5787 7.24591C65.4171 7.38087 65.3009 7.56241 65.2462 7.76577C65.1914 7.96914 65.2007 8.18445 65.2727 8.38235C65.3448 8.58026 65.4761 8.75113 65.6488 8.87169C65.8215 8.99225 66.0271 9.05664 66.2377 9.05607V9.0588Z" fill="#F181D8"/>
<path d="M68.4111 19.1116L66.8963 17.8401C66.6876 17.6653 66.418 17.5806 66.1469 17.6046C65.8757 17.6286 65.6252 17.7593 65.4504 17.9679C65.2757 18.1766 65.191 18.4462 65.2149 18.7173C65.2389 18.9884 65.3696 19.239 65.5783 19.4137L67.0931 20.6852C67.302 20.8552 67.5693 20.9362 67.8374 20.9107C68.1055 20.8852 68.3528 20.7553 68.5259 20.549C68.699 20.3427 68.784 20.0766 68.7625 19.8081C68.741 19.5397 68.6148 19.2905 68.4111 19.1143V19.1116Z" fill="#F181D8"/>
<path d="M30.6934 14.3555H32.6758C32.9477 14.3555 33.2085 14.2474 33.4008 14.0551C33.5931 13.8628 33.7012 13.602 33.7012 13.3301C33.7012 13.0581 33.5931 12.7973 33.4008 12.605C33.2085 12.4127 32.9477 12.3047 32.6758 12.3047H30.6934C30.4214 12.3047 30.1606 12.4127 29.9683 12.605C29.776 12.7973 29.668 13.0581 29.668 13.3301C29.668 13.602 29.776 13.8628 29.9683 14.0551C30.1606 14.2474 30.4214 14.3555 30.6934 14.3555Z" fill="#F181D8"/>
<path d="M31.2531 7.54786L32.7679 8.81935C32.8713 8.90589 32.9906 8.97123 33.1192 9.01164C33.2478 9.05205 33.3831 9.06674 33.5173 9.05487C33.6516 9.043 33.7822 9.0048 33.9017 8.94246C34.0212 8.88011 34.1272 8.79484 34.2137 8.69152C34.3003 8.58819 34.3656 8.46883 34.406 8.34025C34.4464 8.21167 34.4611 8.0764 34.4493 7.94214C34.4374 7.80789 34.3992 7.67728 34.3369 7.55779C34.2745 7.4383 34.1892 7.33225 34.0859 7.24571L32.5711 5.97423C32.3622 5.80425 32.0948 5.72326 31.8268 5.74875C31.5587 5.77424 31.3114 5.90417 31.1383 6.11048C30.9652 6.31678 30.8802 6.58289 30.9017 6.85133C30.9232 7.11977 31.0494 7.36898 31.2531 7.54513V7.54786Z" fill="#F181D8"/>
<path d="M32.7679 17.8406L31.2531 19.1121C31.0494 19.2883 30.9232 19.5375 30.9017 19.8059C30.8802 20.0743 30.9652 20.3404 31.1383 20.5468C31.3114 20.7531 31.5587 20.883 31.8268 20.9085C32.0948 20.934 32.3622 20.853 32.5711 20.683L34.0859 19.4115C34.1914 19.3257 34.2787 19.2198 34.3428 19.0999C34.4069 18.98 34.4466 18.8486 34.4595 18.7133C34.4723 18.5779 34.4582 18.4414 34.4178 18.3116C34.3774 18.1818 34.3116 18.0613 34.2242 17.9572C34.1368 17.853 34.0296 17.7673 33.9088 17.7049C33.788 17.6426 33.656 17.6049 33.5205 17.5941C33.385 17.5832 33.2486 17.5995 33.1195 17.6418C32.9903 17.6841 32.8708 17.7517 32.7679 17.8406Z" fill="#F181D8"/>
<path d="M47.9521 9.79863H53.5918C53.8637 9.79863 54.1246 9.6906 54.3169 9.4983C54.5092 9.306 54.6172 9.04519 54.6172 8.77324C54.6172 8.50129 54.5092 8.24048 54.3169 8.04818C54.1246 7.85588 53.8637 7.74785 53.5918 7.74785H50.8574V6.49414C50.8574 6.22219 50.7494 5.96138 50.5571 5.76908C50.3648 5.57678 50.104 5.46875 49.832 5.46875C49.5601 5.46875 49.2993 5.57678 49.107 5.76908C48.9147 5.96138 48.8066 6.22219 48.8066 6.49414V7.74785H47.9521C46.3498 7.74785 45.0469 9.22988 45.0469 11.051C45.0469 12.8721 46.3457 14.3555 47.9521 14.3555H51.7119C52.1672 14.3555 52.5664 14.9406 52.5664 15.6092C52.5664 16.2777 52.1672 16.8615 51.7119 16.8615H46.0723C45.8003 16.8615 45.5395 16.9696 45.3472 17.1619C45.1549 17.3542 45.0469 17.615 45.0469 17.8869C45.0469 18.1589 45.1549 18.4197 45.3472 18.612C45.5395 18.8043 45.8003 18.9123 46.0723 18.9123H48.8066V20.166C48.8066 20.438 48.9147 20.6988 49.107 20.8911C49.2993 21.0834 49.5601 21.1914 49.832 21.1914C50.104 21.1914 50.3648 21.0834 50.5571 20.8911C50.7494 20.6988 50.8574 20.438 50.8574 20.166V18.9123H51.7119C53.3143 18.9123 54.6172 17.4303 54.6172 15.6092C54.6172 13.7881 53.3184 12.3047 51.7119 12.3047H47.9521C47.4969 12.3047 47.0977 11.7195 47.0977 11.051C47.0977 10.3824 47.4969 9.79863 47.9521 9.79863Z" fill="#F181D8"/>
</svg>
