<svg width="71" height="70" viewBox="0 0 71 70" fill="none" xmlns="http://www.w3.org/2000/svg">
<path d="M68.7086 6.76057C68.7086 6.76043 68.7086 6.76043 68.7086 6.76057C66.9846 5.03669 64.1792 5.03628 62.4549 6.76043L59.0626 10.1528V6.8359C59.0626 5.0021 58.343 3.27768 57.0365 1.98022C55.7376 0.690426 54.0211 -0.00874995 52.2101 0.000136718H6.87814C6.86406 0 6.84998 0 6.8359 0C3.06658 0 0 3.06658 0 6.8359V9.57026C0 11.8318 1.83995 13.6717 4.10154 13.6717H10.9374V65.8985C10.9374 68.16 12.7774 70 15.039 70H54.9609C57.2225 70 59.0624 68.16 59.0624 65.8985V22.66L68.7086 13.014C70.4326 11.29 70.4326 8.48472 68.7086 6.76057ZM10.9374 10.9373H4.10154C3.34768 10.9373 2.73436 10.3241 2.73436 9.57026V6.8359C2.73436 4.57964 4.56556 2.74311 6.81976 2.73436C6.8251 2.7345 6.83043 2.7345 6.8359 2.7345H6.86857C9.11526 2.75213 10.9374 4.58525 10.9374 6.8359V10.9373ZM49.4975 28.3579L47.111 25.9714L59.9654 13.117L62.352 15.5035L49.4975 28.3579ZM44.6443 28.438L45.1773 27.905L47.5639 30.2915L47.0308 30.8246L43.4509 32.018L44.6443 28.438ZM56.3281 65.8985C56.3281 66.6523 55.7148 67.2656 54.9609 67.2656H15.039C14.2851 67.2656 13.6718 66.6523 13.6718 65.8985V6.8359C13.6718 5.29837 13.1616 3.87773 12.3016 2.7345H52.2197C52.2294 2.73436 52.2392 2.73436 52.2489 2.73436C53.3237 2.73436 54.3387 3.1549 55.1099 3.92066C55.8955 4.70077 56.3282 5.73614 56.3282 6.8359V12.8872L42.4826 26.7326C42.3325 26.8827 42.2195 27.0658 42.1523 27.267L39.9922 33.7473C39.643 34.7944 40.6741 35.8252 41.7214 35.4767L48.2017 33.3162C48.4031 33.2493 48.5861 33.1362 48.7361 32.9861L56.3279 25.3943V65.8985H56.3281ZM66.775 11.0806L64.2855 13.5701L61.8989 11.1835L64.3884 8.69403C64.7046 8.37767 65.1285 8.20335 65.5817 8.20335C66.0349 8.20335 66.4586 8.37753 66.7751 8.69403V8.69389C67.433 9.35192 67.433 10.4226 66.775 11.0806Z" fill="#FEC482"/>
<path d="M18.7305 13.6719H43.1959C43.9508 13.6719 44.563 13.0596 44.563 12.3047C44.563 11.5497 43.9508 10.9375 43.1959 10.9375H18.7305C17.9755 10.9375 17.3633 11.5497 17.3633 12.3047C17.3633 13.0596 17.9754 13.6719 18.7305 13.6719Z" fill="#FEC482"/>
<path d="M18.7305 19.1406H40.4614C41.2163 19.1406 41.8286 18.5284 41.8286 17.7734C41.8286 17.0185 41.2163 16.4062 40.4614 16.4062H18.7305C17.9755 16.4062 17.3633 17.0185 17.3633 17.7734C17.3633 18.5284 17.9754 19.1406 18.7305 19.1406Z" fill="#FEC482"/>
<path d="M18.7305 24.6094H37.727C38.482 24.6094 39.0942 23.9971 39.0942 23.2422C39.0942 22.4872 38.482 21.875 37.727 21.875H18.7305C17.9755 21.875 17.3633 22.4872 17.3633 23.2422C17.3633 23.9971 17.9754 24.6094 18.7305 24.6094Z" fill="#FEC482"/>
<path d="M18.7305 30.0781H34.9925C35.7475 30.0781 36.3597 29.4659 36.3597 28.7109C36.3597 27.956 35.7475 27.3438 34.9925 27.3438H18.7305C17.9755 27.3438 17.3633 27.956 17.3633 28.7109C17.3633 29.4659 17.9754 30.0781 18.7305 30.0781Z" fill="#FEC482"/>
<path d="M18.7305 35.5469H34.9925C35.7475 35.5469 36.3597 34.9346 36.3597 34.1797C36.3597 33.4247 35.7475 32.8125 34.9925 32.8125H18.7305C17.9755 32.8125 17.3633 33.4247 17.3633 34.1797C17.3633 34.9346 17.9754 35.5469 18.7305 35.5469Z" fill="#FEC482"/>
<path d="M17.3633 39.6484C17.3633 40.4034 17.9755 41.0156 18.7305 41.0156H51.2546C52.0095 41.0156 52.6217 40.4034 52.6217 39.6484C52.6217 38.8935 52.0095 38.2812 51.2546 38.2812H18.7305C17.9754 38.2812 17.3633 38.8933 17.3633 39.6484Z" fill="#FEC482"/>
<path d="M34.9925 43.75H18.7305C17.9755 43.75 17.3633 44.3622 17.3633 45.1172C17.3633 45.8721 17.9755 46.4844 18.7305 46.4844H34.9925C35.7475 46.4844 36.3597 45.8721 36.3597 45.1172C36.3597 44.3622 35.7475 43.75 34.9925 43.75Z" fill="#FEC482"/>
<path d="M51.2539 43.75H41.2891C40.5341 43.75 39.9219 44.3622 39.9219 45.1172C39.9219 45.8721 40.5341 46.4844 41.2891 46.4844H51.254C52.009 46.4844 52.6212 45.8721 52.6212 45.1172C52.6212 44.3622 52.009 43.75 51.2539 43.75Z" fill="#FEC482"/>
<path d="M34.992 49.2188H24.8828C24.1278 49.2188 23.5156 49.831 23.5156 50.5859C23.5156 51.3409 24.1278 51.9531 24.8828 51.9531H34.992C35.747 51.9531 36.3592 51.3409 36.3592 50.5859C36.3592 49.831 35.747 49.2188 34.992 49.2188Z" fill="#FEC482"/>
<path d="M51.2544 54.6875H18.7305C17.9755 54.6875 17.3633 55.2997 17.3633 56.0547C17.3633 56.8096 17.9755 57.4219 18.7305 57.4219H51.2546C52.0095 57.4219 52.6217 56.8096 52.6217 56.0547C52.6217 55.2997 52.0095 54.6875 51.2544 54.6875Z" fill="#FEC482"/>
<path d="M18.73 49.2188C17.975 49.2188 17.3633 49.831 17.3633 50.586C17.3633 51.3409 17.9759 51.9532 18.731 51.9532C19.4862 51.9532 20.0983 51.3409 20.0983 50.586C20.0983 49.831 19.486 49.2188 18.731 49.2188H18.73Z" fill="#FEC482"/>
</svg>
