<svg width="70" height="68" viewBox="0 0 70 68" fill="none" xmlns="http://www.w3.org/2000/svg">
<path d="M44.6553 17.2431C46.54 17.2431 48.0733 15.7144 48.0733 13.8355C48.0733 11.9565 46.54 10.4277 44.6553 10.4277C42.7706 10.4277 41.2373 11.9565 41.2373 13.8355C41.2373 14.6029 41.4932 15.3116 41.9243 15.8819L36.3084 23.7059C35.9733 23.5962 35.6158 23.5359 35.2442 23.5359C34.3461 23.5359 33.5282 23.8837 32.9176 24.4504L29.1743 22.3328C29.2242 22.1016 29.251 21.862 29.251 21.6162C29.251 19.7373 27.7177 18.2086 25.833 18.2086C23.9484 18.2086 22.415 19.7373 22.415 21.6162C22.415 21.862 22.4418 22.1016 22.4917 22.3328L18.7485 24.4504C18.1379 23.8837 17.32 23.5361 16.4219 23.5361C14.5372 23.5361 13.0039 25.0649 13.0039 26.9438C13.0039 28.8228 14.5372 30.3516 16.4219 30.3516C18.3066 30.3516 19.8399 28.8228 19.8399 26.9438C19.8399 26.6981 19.8131 26.4584 19.7632 26.2273L23.5065 24.1097C24.1171 24.6764 24.9349 25.0241 25.833 25.0241C26.7312 25.0241 27.5489 24.6764 28.1596 24.1098L31.9029 26.2274C31.853 26.4586 31.8262 26.6982 31.8262 26.944C31.8262 28.8229 33.3595 30.3517 35.2442 30.3517C37.129 30.3517 38.6623 28.8229 38.6623 26.944C38.6623 26.1764 38.4062 25.4675 37.9752 24.8972L43.5911 17.0732C43.926 17.1828 44.2837 17.2431 44.6553 17.2431ZM44.6553 12.4723C45.4092 12.4723 46.0225 13.0838 46.0225 13.8355C46.0225 14.587 45.4092 15.1985 44.6553 15.1985C43.9014 15.1985 43.2881 14.587 43.2881 13.8355C43.288 13.0838 43.9013 12.4723 44.6553 12.4723ZM16.4215 28.3067C15.6676 28.3067 15.0543 27.6953 15.0543 26.9435C15.0543 26.1918 15.6676 25.5804 16.4215 25.5804C17.1754 25.5804 17.7887 26.1918 17.7887 26.9435C17.7887 27.6953 17.1754 28.3067 16.4215 28.3067ZM25.8328 22.9793C25.0789 22.9793 24.4656 22.3678 24.4656 21.6161C24.4656 20.8645 25.0789 20.2531 25.8328 20.2531C26.5866 20.2531 27.2 20.8645 27.2 21.6161C27.2001 22.3678 26.5866 22.9793 25.8328 22.9793ZM35.244 28.3067C34.4902 28.3067 33.8768 27.6953 33.8768 26.9435C33.8768 26.1918 34.4902 25.5804 35.244 25.5804C35.998 25.5804 36.6114 26.1918 36.6114 26.9435C36.6114 27.6953 35.9979 28.3067 35.244 28.3067Z" fill="#FFC700"/>
<path d="M57.2578 50.4881H50.0819H10.9961H2.90052C2.43198 50.4881 2.0508 50.1081 2.0508 49.6409V7.46591C2.0508 6.99879 2.43198 6.61878 2.90052 6.61878H7.73439C8.30069 6.61878 8.75979 6.16121 8.75979 5.5965C8.75979 5.03179 8.30069 4.57422 7.73439 4.57422H2.90052C1.30117 4.57422 0 5.87142 0 7.46591V49.6409C0 51.2354 1.30117 52.5326 2.90052 52.5326H9.97073V54.7825C9.97073 56.0641 11.0166 57.1068 12.3022 57.1068H22.5663L17.7346 66.5116C17.4765 67.0141 17.6757 67.6301 18.1798 67.8875C18.3294 67.964 18.4891 68.0001 18.6464 68.0001C19.019 68.0001 19.3784 67.797 19.5599 67.4436L24.8705 57.1068H36.2076L41.5182 67.4436C41.6998 67.797 42.0591 68.0001 42.4316 68.0001C42.589 68.0001 42.7487 67.9637 42.8983 67.8875C43.4023 67.6301 43.6017 67.0141 43.3434 66.5116L38.5117 57.1068H48.7759C50.0614 57.1068 51.1073 56.0643 51.1073 54.7825V52.5326H57.2578C57.8241 52.5326 58.2832 52.0751 58.2832 51.5103C58.2832 50.9456 57.8241 50.4881 57.2578 50.4881ZM49.0565 54.7825C49.0565 54.9368 48.9306 55.0623 48.7759 55.0623H12.3022C12.1474 55.0623 12.0215 54.9368 12.0215 54.7825V52.5326H49.0565V54.7825Z" fill="#FFC700"/>
<path d="M11.8379 6.61865H25.8752H35.2065H58.1793C58.6479 6.61865 59.029 6.99866 59.029 7.46578V17.1857C59.029 17.7505 59.4881 18.208 60.0544 18.208C60.6207 18.208 61.0798 17.7505 61.0798 17.1857V7.46578C61.0798 5.87129 59.7787 4.57409 58.1793 4.57409H36.2321V2.5647C36.2321 1.15054 35.078 0 33.6594 0H27.4225C26.004 0 24.8498 1.15054 24.8498 2.5647V4.57409H11.8379C11.2716 4.57409 10.8125 5.03166 10.8125 5.59637C10.8125 6.16108 11.2716 6.61865 11.8379 6.61865ZM26.9006 2.5647C26.9006 2.27791 27.1347 2.04456 27.4225 2.04456H33.6594C33.947 2.04456 34.1812 2.27791 34.1812 2.5647V4.57409H26.9008V2.5647H26.9006Z" fill="#FFC700"/>
<path d="M14.3457 35.5781C13.7794 35.5781 13.3203 36.0357 13.3203 36.6004V45.6335C13.3203 46.1982 13.7794 46.6558 14.3457 46.6558H18.5057C19.072 46.6558 19.5311 46.1982 19.5311 45.6335V36.6004C19.5311 36.0357 19.072 35.5781 18.5057 35.5781H14.3457ZM17.4803 44.6114H15.3711V37.6228H17.4803V44.6114V44.6114Z" fill="#FFC700"/>
<path d="M23.752 30.3535C23.1857 30.3535 22.7266 30.8111 22.7266 31.3758V45.6333C22.7266 46.198 23.1857 46.6556 23.752 46.6556H27.9119C28.4782 46.6556 28.9373 46.198 28.9373 45.6333V31.3758C28.9373 30.8111 28.4782 30.3535 27.9119 30.3535H23.752ZM26.8867 44.611H24.7775V32.3981H26.8867V44.611Z" fill="#FFC700"/>
<path d="M33.166 35.5781C32.5997 35.5781 32.1406 36.0357 32.1406 36.6004V45.6335C32.1406 46.1982 32.5997 46.6558 33.166 46.6558H37.326C37.8923 46.6558 38.3514 46.1982 38.3514 45.6335V36.6004C38.3514 36.0357 37.8923 35.5781 37.326 35.5781H33.166ZM36.3006 44.6114H34.1914V37.6228H36.3006V44.6114Z" fill="#FFC700"/>
<path d="M42.5762 41.6104C42.0099 41.6104 41.5508 42.0679 41.5508 42.6326V45.6336C41.5508 46.1983 42.0099 46.6559 42.5762 46.6559H46.7362C47.3025 46.6559 47.7616 46.1983 47.7616 45.6336C47.7616 45.0689 47.3025 44.6114 46.7362 44.6114H43.6016V42.6326C43.6016 42.0679 43.1425 41.6104 42.5762 41.6104Z" fill="#FFC700"/>
<path d="M69.4748 51.4497L63.5921 41.2915C65.0825 39.7078 66.1678 37.7727 66.7475 35.6158C67.674 32.1686 67.1985 28.5678 65.4086 25.477C61.7136 19.0962 53.5007 16.9027 47.1008 20.5863C40.7008 24.2699 38.5003 32.4578 42.1953 38.8383C43.9852 41.9292 46.8754 44.14 50.3332 45.0639C51.4879 45.3723 52.6594 45.5249 53.8236 45.5249C54.8411 45.5249 55.8527 45.4082 56.842 45.1773L62.7234 55.3358C63.4443 56.5812 64.7571 57.2781 66.1055 57.278C66.7662 57.278 67.4356 57.1104 68.048 56.7582C69.2506 56.0662 69.9977 54.7758 69.9977 53.3907C69.9977 52.712 69.817 52.041 69.4748 51.4497ZM50.8639 43.089C47.9352 42.3066 45.4872 40.4339 43.9712 37.8161C40.8416 32.4119 42.7055 25.477 48.1261 22.3569C49.9093 21.3305 51.858 20.8431 53.7827 20.8431C57.7087 20.8431 61.5324 22.8731 63.6325 26.4993C65.1484 29.1171 65.5512 32.1668 64.7664 35.0867C63.9816 38.0066 62.1033 40.4469 59.4774 41.9583C56.8517 43.4698 53.7927 43.8711 50.8639 43.089ZM67.023 54.9874C66.1407 55.4952 65.0087 55.1929 64.4997 54.3138L58.8411 44.5402C59.4082 44.3094 59.9636 44.0396 60.5031 43.7291C61.043 43.4183 61.5543 43.0724 62.0384 42.6978L67.6987 52.4717C67.8611 52.7527 67.9469 53.0705 67.9469 53.3908C67.9469 54.0476 67.5928 54.6594 67.023 54.9874Z" fill="#FFC700"/>
<path d="M63.1036 35.0376C63.8275 32.7128 63.6551 30.2239 62.6181 28.0294C62.3766 27.5185 61.7658 27.2996 61.2535 27.5402C60.7411 27.7809 60.5215 28.3899 60.7629 28.9006C61.5809 30.6317 61.7167 32.5957 61.1451 34.4312C60.5703 36.2767 59.3286 37.8255 57.6487 38.7925C55.8711 39.8159 53.7999 40.0874 51.8173 39.5578C49.8346 39.0281 48.1773 37.7604 47.1511 35.9882C45.0323 32.3296 46.2943 27.6348 49.964 25.5225C52.6471 23.9783 55.9769 24.1847 58.4476 26.0482C58.8993 26.389 59.5423 26.3002 59.884 25.8499C60.2256 25.3997 60.1366 24.7585 59.6849 24.4179C56.5552 22.0569 52.3369 21.7957 48.9384 23.7517C46.6864 25.048 45.0754 27.1411 44.4023 29.6453C43.7292 32.1494 44.0747 34.7651 45.375 37.0103C46.6752 39.2556 48.7746 40.8616 51.2865 41.5327C52.1252 41.7568 52.9765 41.8676 53.8221 41.8676C55.5089 41.8676 57.174 41.4266 58.674 40.5631C60.8023 39.3382 62.3754 37.376 63.1036 35.0376Z" fill="#FFC700"/>
</svg>
