<svg width="70" height="58" viewBox="0 0 70 58" fill="none" xmlns="http://www.w3.org/2000/svg">
<path d="M65.4839 0H4.51613C3.31886 0.00157975 2.17107 0.481357 1.32448 1.33412C0.477877 2.18689 0.00156833 3.34303 0 4.54902V43.2157C0.00156833 44.4217 0.477877 45.5778 1.32448 46.4306C2.17107 47.2834 3.31886 47.7631 4.51613 47.7647H27.7883L26.2825 52.3137H22.5806C22.2812 52.3137 21.994 52.4335 21.7823 52.6468C21.5706 52.8601 21.4516 53.1494 21.4516 53.451V55.7255H11.2903C10.9909 55.7255 10.7037 55.8453 10.492 56.0586C10.2802 56.2719 10.1613 56.5611 10.1613 56.8627C10.1613 57.1644 10.2802 57.4536 10.492 57.6669C10.7037 57.8802 10.9909 58 11.2903 58H60.9677C61.2672 58 61.5544 57.8802 61.7661 57.6669C61.9778 57.4536 62.0968 57.1644 62.0968 56.8627C62.0968 56.5611 61.9778 56.2719 61.7661 56.0586C61.5544 55.8453 61.2672 55.7255 60.9677 55.7255H48.5484V53.451C48.5484 53.1494 48.4294 52.8601 48.2177 52.6468C48.006 52.4335 47.7188 52.3137 47.4194 52.3137H43.7175L42.2117 47.7647H65.4839C66.6811 47.7631 67.8289 47.2834 68.6755 46.4306C69.5221 45.5778 69.9984 44.4217 70 43.2157V4.54902C69.9984 3.34303 69.5221 2.18689 68.6755 1.33412C67.8289 0.481357 66.6811 0.00157975 65.4839 0ZM46.2903 54.5882V55.7255H23.7097V54.5882H46.2903ZM28.6633 52.3137L30.1692 47.7647H39.8308L41.3367 52.3137H28.6633ZM67.7419 43.2157C67.7411 43.8187 67.503 44.3968 67.0797 44.8231C66.6564 45.2495 66.0825 45.4894 65.4839 45.4902H4.51613C3.91749 45.4894 3.3436 45.2495 2.9203 44.8231C2.497 44.3968 2.25885 43.8187 2.25806 43.2157V40.9412H67.7419V43.2157ZM19.1456 28.4314L18.7222 38.6667H17.4069L16.9835 28.4314H19.1456ZM17.1387 26.1569L17.8923 21.6078H18.2367L18.9903 26.1569H17.1387ZM18.0645 19.3333C16.8409 19.3333 15.8065 17.771 15.8065 15.9216C15.8065 14.7545 16.9891 13.0585 18.0617 11.863C19.0284 12.9434 20.3226 14.6706 20.3226 15.9216C20.3226 17.771 19.2881 19.3333 18.0645 19.3333ZM30.3512 17.0588L30.4839 17.3275V18.1961H25.9677V17.3275L26.1004 17.0588H30.3512ZM27.2294 14.7843L28.2258 12.7785L29.2222 14.7843H27.2294ZM30.4839 20.4706V38.5245C30.4843 38.5721 30.4876 38.6195 30.4938 38.6667H25.9579C25.964 38.6195 25.9673 38.5721 25.9677 38.5245V20.4706H30.4839ZM40.6452 15.9216H44.0323V18.1961H42.9032C42.6038 18.1961 42.3166 18.3159 42.1049 18.5292C41.8931 18.7424 41.7742 19.0317 41.7742 19.3333C41.7742 19.635 41.8931 19.9242 42.1049 20.1375C42.3166 20.3508 42.6038 20.4706 42.9032 20.4706H44.0323V22.7451H40.6452C40.3457 22.7451 40.0585 22.8649 39.8468 23.0782C39.6351 23.2915 39.5161 23.5807 39.5161 23.8824C39.5161 24.184 39.6351 24.4732 39.8468 24.6865C40.0585 24.8998 40.3457 25.0196 40.6452 25.0196H44.0323V27.2941H42.9032C42.6038 27.2941 42.3166 27.4139 42.1049 27.6272C41.8931 27.8405 41.7742 28.1298 41.7742 28.4314C41.7742 28.733 41.8931 29.0223 42.1049 29.2355C42.3166 29.4488 42.6038 29.5686 42.9032 29.5686H44.0323V31.8431H40.6452C40.3457 31.8431 40.0585 31.963 39.8468 32.1762C39.6351 32.3895 39.5161 32.6788 39.5161 32.9804C39.5161 33.282 39.6351 33.5713 39.8468 33.7846C40.0585 33.9978 40.3457 34.1176 40.6452 34.1176H44.0323V38.6667H36.129V11.3725H44.0323V13.6471H40.6452C40.3457 13.6471 40.0585 13.7669 39.8468 13.9802C39.6351 14.1934 39.5161 14.4827 39.5161 14.7843C39.5161 15.0859 39.6351 15.3752 39.8468 15.5885C40.0585 15.8018 40.3457 15.9216 40.6452 15.9216ZM54.1936 29.5686V38.5245C54.194 38.5721 54.1973 38.6195 54.2034 38.6667H49.6675C49.6737 38.6195 49.677 38.5721 49.6774 38.5245V29.5686H54.1936ZM49.6774 27.2941V26.4255L51.9355 21.8765L54.1936 26.4255V27.2941H49.6774ZM67.7419 38.6667H56.4417C56.4479 38.6195 56.4512 38.5721 56.4516 38.5245V26.1569C56.4515 25.9803 56.4109 25.8062 56.3331 25.6479L52.946 18.8244C52.852 18.6356 52.7077 18.4768 52.5293 18.3658C52.3508 18.2548 52.1452 18.196 51.9355 18.196C51.7258 18.196 51.5202 18.2548 51.3417 18.3658C51.1633 18.4768 51.019 18.6356 50.925 18.8244L47.5379 25.6479C47.4601 25.8062 47.4195 25.9803 47.4194 26.1569V38.5245C47.4198 38.5721 47.4231 38.6195 47.4292 38.6667H46.2903V10.2353C46.2903 9.93368 46.1714 9.64441 45.9596 9.43113C45.7479 9.21786 45.4607 9.09804 45.1613 9.09804H35C34.7006 9.09804 34.4134 9.21786 34.2017 9.43113C33.9899 9.64441 33.871 9.93368 33.871 10.2353V38.6667H32.7321C32.7382 38.6195 32.7415 38.5721 32.7419 38.5245V17.0588C32.7418 16.8823 32.7012 16.7081 32.6234 16.5499L29.2363 9.72637C29.1423 9.53751 28.998 9.37872 28.8196 9.26774C28.6411 9.15677 28.4355 9.09799 28.2258 9.09799C28.0161 9.09799 27.8105 9.15677 27.632 9.26774C27.4536 9.37872 27.3093 9.53751 27.2153 9.72637L23.8282 16.5499C23.7504 16.7081 23.7098 16.8823 23.7097 17.0588V38.5245C23.7101 38.5721 23.7134 38.6195 23.7196 38.6667H20.9817L21.4502 27.341C21.4516 27.3154 21.4502 27.2899 21.4502 27.2628V27.2287C21.4476 27.1887 21.4429 27.1488 21.4361 27.1093V27.1065L20.3917 20.7933C21.7028 19.7968 22.5806 17.9857 22.5806 15.9216C22.5806 12.9988 19.2175 9.76191 18.8337 9.40226C18.6245 9.20693 18.3498 9.09841 18.0645 9.09841C17.7793 9.09841 17.5046 9.20693 17.2954 9.40226C16.9115 9.76191 13.5484 12.9988 13.5484 15.9216C13.5484 17.9857 14.4262 19.7968 15.7373 20.7933L14.6929 27.1065V27.1093C14.6862 27.1488 14.6814 27.1887 14.6788 27.2287V27.2628C14.6788 27.2899 14.6774 27.3154 14.6788 27.341L15.1474 38.6667H2.25806V4.54902C2.25885 3.94602 2.497 3.36795 2.9203 2.94157C3.3436 2.51519 3.91749 2.2753 4.51613 2.27451H65.4839C66.0825 2.2753 66.6564 2.51519 67.0797 2.94157C67.503 3.36795 67.7411 3.94602 67.7419 4.54902V38.6667Z" fill="#FC5271"/>
</svg>
