<svg width="76" height="70" viewBox="0 0 76 70" fill="none" xmlns="http://www.w3.org/2000/svg">
<path d="M66.6272 38.5336V35.0226C66.6272 34.4078 66.1288 33.9096 65.5141 33.9096C64.8995 33.9096 64.4011 34.4078 64.4011 35.0226V37.6165C62.7714 37.0805 61.0316 36.7894 59.2248 36.7894C59.0952 36.7894 58.9646 36.7922 58.834 36.7953V21.1922C58.834 20.5774 58.3356 20.0792 57.721 20.0792H57.2805L61.6175 15.4684L65.9545 20.0792H65.514C64.8994 20.0792 64.401 20.5774 64.401 21.1922V30.6791C64.401 31.2939 64.8992 31.7921 65.514 31.7921C66.1288 31.7921 66.627 31.2939 66.627 30.6791V22.3052H68.5293C69.4752 22.3366 70.0108 21.0971 69.34 20.4297L62.4282 13.0816C62.0107 12.6185 61.2243 12.6185 60.8069 13.0816L53.8951 20.4297C53.2242 21.0973 53.76 22.3366 54.7058 22.3052H56.6081V30.6553C55.1749 28.2404 53.1325 26.2342 50.6999 24.8423V11.3202H52.6021C53.5481 11.3516 54.0836 10.112 53.4129 9.44474L46.5011 2.09677C46.0835 1.63364 45.2971 1.63364 44.8797 2.09677L37.9679 9.44474C37.2969 10.1121 37.8329 11.3518 38.7787 11.3202H40.6809V22.8372C38.5635 23.0982 36.5654 23.7683 34.7729 24.7716V19.163H36.6751C37.6211 19.1944 38.1566 17.9548 37.4859 17.2874L30.5741 9.93941C30.1566 9.47629 29.3701 9.47629 28.9527 9.93941L22.041 17.2874C21.37 17.9549 21.9059 19.1942 22.8517 19.163H24.754V34.4247C24.2254 34.3659 23.6923 34.3348 23.1557 34.3348C21.6547 34.3348 20.207 34.5672 18.8457 34.9961V9.57108H20.748C21.6939 9.60247 22.2295 8.36298 21.5587 7.69561L14.6466 0.347345C14.2293 -0.115782 13.4427 -0.115782 13.0253 0.347345L6.11336 7.69546C5.44229 8.36298 5.97829 9.60233 6.92409 9.57093H8.82636V18.7C8.82636 19.3148 9.32474 19.813 9.93938 19.813C10.554 19.813 11.0524 19.3148 11.0524 18.7V8.45806C11.0524 7.84327 10.5542 7.34505 9.93938 7.34505H9.49891L13.8359 2.73422L18.1729 7.34505H17.7324C17.1178 7.34505 16.6194 7.84327 16.6194 8.45806V35.9101C14.3469 37.0759 12.424 38.8298 11.0521 40.9696V23.1521C11.0521 22.5373 10.5539 22.0391 9.93908 22.0391C9.32444 22.0391 8.82607 22.5373 8.82607 23.1521V47.6685C8.82251 47.719 8.81807 47.7695 8.81496 47.8201C3.72753 48.9326 0 53.4852 0 58.7791C0 64.9662 5.03367 69.9999 11.2208 69.9999H45.4465C46.0612 69.9999 46.5596 69.5016 46.5596 68.8868C46.5596 68.2721 46.0613 67.7738 45.4465 67.7738H11.2208C6.26102 67.7738 2.22588 63.7387 2.22588 58.7789C2.22588 54.2771 5.58818 50.444 10.0468 49.863C10.6027 49.7905 11.018 49.3157 11.016 48.7551C11.0158 48.7351 11.0154 48.7153 11.0145 48.6913C11.0198 42.0012 16.4642 36.5604 23.1554 36.5604C24.6309 36.5604 26.0768 36.8246 27.4526 37.3455C28.0816 37.6016 28.8437 37.166 28.9434 36.4945C30.1028 29.7989 35.8825 24.9391 42.6863 24.9391C50.0531 24.9391 56.1691 30.6945 56.6103 38.0419C56.7226 39.4262 58.2815 39.0084 59.2251 39.0154C67.154 39.0154 73.6044 45.466 73.6044 53.3947C73.6044 61.3234 67.154 67.774 59.2251 67.774H49.8983C49.2837 67.774 48.7853 68.2722 48.7853 68.887C48.7853 69.5018 49.2837 70 49.8983 70H59.2248C68.381 70 75.8301 62.5509 75.8301 53.3947C75.8301 46.8968 72.078 41.2598 66.6272 38.5336ZM45.6903 4.48364L50.0273 9.09432H49.587C48.9724 9.09432 48.474 9.59255 48.474 10.2073V23.7845C46.7385 23.1174 44.862 22.7424 42.9068 22.7161V10.2072C42.9068 9.5924 42.4085 9.09417 41.7938 9.09417H41.3533L45.6903 4.48364ZM27.0176 34.8622C27.005 34.8587 26.9921 34.8557 26.9795 34.8523V18.0498C26.9795 17.435 26.4812 16.9368 25.8665 16.9368H25.4262L29.7632 12.3261L34.1002 16.9368H33.6598C33.0452 16.9368 32.5468 17.435 32.5468 18.0498V26.2736C29.8843 28.4122 27.9031 31.3887 27.0176 34.8622Z" fill="#FC7F6C"/>
<path d="M41.9419 47.5874C42.5565 47.5874 43.0549 47.0891 43.0549 46.4743C43.0549 45.8596 42.5565 45.3613 41.9419 45.3613H36.7302C36.1156 45.3613 35.6172 45.8596 35.6172 46.4743V58.8434C35.6172 59.4582 36.1156 59.9564 36.7302 59.9564H41.9419C42.5565 59.9564 43.0549 59.4582 43.0549 58.8434C43.0549 58.2286 42.5565 57.7304 41.9419 57.7304H37.8431V53.7718H41.5576C42.1722 53.7718 42.6706 53.2736 42.6706 52.6588C42.6706 52.044 42.1723 51.5458 41.5576 51.5458H37.8431V47.5872H41.9419V47.5874Z" fill="#FC7F6C"/>
<path d="M28.7481 57.7879C27.3832 57.7879 26.0653 57.2328 25.2229 56.3032C24.8101 55.8478 24.1063 55.8132 23.6508 56.2257C23.1953 56.6385 23.1607 57.3423 23.5733 57.7979C24.8307 59.1855 26.7651 60.014 28.748 60.014C31.1227 60.014 33.1916 58.4565 33.5604 56.3912C33.9857 54.0087 32.1123 52.4127 30.2172 51.7138C28.6108 51.1213 27.1207 50.4743 26.7445 50.3092C26.3457 50.0168 26.1521 49.55 26.2247 49.045C26.3159 48.4091 26.8044 47.8989 27.5314 47.68C29.5341 47.0763 31.3438 48.5276 31.3795 48.5568C31.85 48.9488 32.5492 48.8869 32.9437 48.4177C33.3391 47.9472 33.2784 47.245 32.8078 46.8496C32.6974 46.7569 30.0706 44.5907 26.8892 45.5486C25.3346 46.0171 24.2356 47.2356 24.0212 48.7288C23.8217 50.1192 24.4237 51.456 25.5924 52.218C25.6416 52.2501 25.6933 52.2783 25.7469 52.3021C25.8186 52.3339 27.5245 53.0933 29.4466 53.8023C30.8266 54.3113 31.5273 55.1124 31.3688 56.0002C31.2144 56.8666 30.2432 57.7879 28.7481 57.7879Z" fill="#FC7F6C"/>
<path d="M58.8573 52.659C58.8573 48.6037 55.5581 45.3047 51.5029 45.3047C47.4476 45.3047 44.1484 48.6039 44.1484 52.659C44.1484 56.7143 47.4476 60.0134 51.5029 60.0134C55.5581 60.0135 58.8573 56.7143 58.8573 52.659ZM46.3743 52.659C46.3743 49.8311 48.675 47.5306 51.5028 47.5306C54.3306 47.5306 56.6312 49.8311 56.6312 52.659C56.6312 55.487 54.3306 57.7875 51.5028 57.7875C48.675 57.7876 46.3743 55.487 46.3743 52.659Z" fill="#FC7F6C"/>
</svg>
