<svg width="58" height="64" viewBox="0 0 58 64" fill="none" xmlns="http://www.w3.org/2000/svg">
<path d="M56.6543 33.4348C53.7066 30.507 50.299 33.2473 50.299 33.2473V17.8346C50.299 17.317 49.8786 16.897 49.3598 16.897C48.8406 16.897 48.4202 17.317 48.4202 17.8346V34.5661C48.4202 34.5661 43.9398 38.0901 42.014 38.9514V11.2002C42.014 9.91018 43.0657 8.86085 44.3587 8.86085H46.0755C47.3685 8.86085 48.4202 9.91018 48.4202 11.2002V13.9966C48.4202 14.5147 48.8406 14.9341 49.3598 14.9341C49.8786 14.9341 50.299 14.5147 50.299 13.9966V11.2002C50.299 8.87648 48.4045 6.98633 46.0755 6.98633H44.3587C42.0297 6.98633 40.1347 8.87648 40.1347 11.2002V39.6946C39.5744 39.8513 38.9993 39.9578 38.415 40.0139V20.2496C38.415 17.9141 36.5108 16.0142 34.1705 16.0142H32.4953C30.155 16.0142 28.2508 17.9141 28.2508 20.2496V29.8014L26.5305 30.7126V27.5338C26.5305 25.4313 24.8162 23.7208 22.7093 23.7208H20.188C18.0806 23.7208 16.3668 25.4313 16.3668 27.5338V36.0954L13.2988 37.72L4.68346 40.1765C3.18445 40.6038 1.93257 41.5833 1.15933 42.9339C0.385597 44.285 0.175647 45.8582 0.568141 47.3636L1.53176 51.0628C1.66194 51.5638 2.17482 51.8641 2.67743 51.7342C3.17955 51.6039 3.48102 51.0921 3.35035 50.5907L2.38673 46.8919C1.82784 44.7464 3.06357 42.5882 5.20026 41.9793L13.0771 39.7332L18.9973 55.4979C19.3937 56.5536 19.331 59.5653 16.1994 60.6752L10.2469 62.0244C8.17236 62.4941 6.12816 61.2533 5.59276 59.1986L4.38444 54.5595C4.25377 54.0585 3.74089 53.7577 3.23877 53.8876C2.73616 54.0179 2.43518 54.5297 2.56536 55.0311L3.77417 59.6708C4.45345 62.2773 6.77416 63.9995 9.35767 63.9995C11.256 63.9995 16.6159 62.5034 16.6159 62.5034C18.247 62.1342 19.6379 61.0795 20.4312 59.6108C21.086 58.3988 21.2803 57.0043 20.9994 55.6757L41.5931 50.6454C43.2962 50.2289 44.9132 49.4217 46.2678 48.3109L56.2896 40.095C59.3449 37.3913 57.5528 34.3269 56.6543 33.4348ZM32.4953 17.8892H34.1705C35.4747 17.8892 36.5357 18.9483 36.5357 20.2496V40.0608L30.6067 40.0584C30.062 40.0535 30.4388 39.6946 30.4687 39.6702L32.1762 38.2903C33.7692 37.0027 34.8096 35.2126 35.2682 32.969C35.5594 31.5456 35.0152 30.1208 33.8489 29.2507C32.7596 28.4382 31.3584 28.2819 30.13 28.819V20.2496C30.13 18.9483 31.191 17.8892 32.4953 17.8892ZM18.2461 27.5338C18.2461 26.4655 19.1172 25.5958 20.188 25.5958H22.7093C23.7801 25.5958 24.6517 26.4655 24.6517 27.5338V31.7077L18.2456 35.1003V27.5338H18.2461ZM55.097 38.6467L45.0747 46.8626C43.9363 47.7962 42.5778 48.4744 41.1463 48.8241L20.4009 53.892L14.8218 39.0369L30.7516 30.6003C31.399 30.257 32.1366 30.3141 32.7233 30.7521C33.3101 31.1901 33.5734 31.8786 33.4271 32.5944C33.0576 34.4006 32.2388 35.8269 30.9933 36.8332L29.2858 38.2136C28.586 38.7791 28.3281 39.6917 28.6286 40.5388C28.9291 41.3855 29.7052 41.9334 30.6057 41.9334L37.4519 41.9363H37.4568C39.8939 41.9363 42.2362 41.197 44.23 39.7981L51.8812 34.4299C52.9525 33.6779 54.3947 33.8108 55.3099 34.7453C55.837 35.2824 56.8686 36.8786 55.097 38.6467Z" fill="#FC7F6C"/>
<path d="M15.3997 56.0991C15.3997 54.0625 13.7391 52.4053 11.6979 52.4053C9.65661 52.4053 7.99609 54.0625 7.99609 56.0991C7.99609 58.1353 9.65661 59.7925 11.6979 59.7925C13.7391 59.7925 15.3997 58.1353 15.3997 56.0991ZM9.87537 56.0991C9.87537 55.0962 10.6927 54.2803 11.6979 54.2803C12.7026 54.2803 13.5204 55.0962 13.5204 56.0991C13.5204 57.1016 12.7031 57.9175 11.6979 57.9175C10.6927 57.9175 9.87537 57.1016 9.87537 56.0991Z" fill="#FC7F6C"/>
<path d="M4.94058 29.4353L18.5996 15.7023L21.672 17.2877C22.7727 17.8556 24.1121 17.6613 25.0048 16.8038L32.4397 9.66316C32.4397 9.66316 32.2351 13.3307 35.3305 13.3307C36.924 13.3307 38.2209 12.0367 38.2209 10.4464V2.88381C38.2209 2.87502 38.2204 2.86574 38.2204 2.85647C38.2101 0.883308 36.764 0 35.3305 0H27.8169C26.2229 0 24.9265 1.29396 24.9265 2.88381C24.9265 6.05376 28.1599 5.76762 28.1599 5.76762L22.4878 11.2149L19.3709 9.60652C18.2438 9.02448 16.8857 9.23786 15.9911 10.1363L0.837498 25.3723C-0.285174 26.5012 -0.278322 28.3308 0.853159 29.4509C1.39834 29.9905 3.26 31.1121 4.94058 29.4353ZM2.1711 26.6931L17.3247 11.4571C17.5205 11.2608 17.8347 10.9171 18.5076 11.2721L22.2226 13.1891C22.5803 13.3736 23.0159 13.3106 23.3061 13.0318L31.1423 5.5059C31.4183 5.24076 31.5054 4.83451 31.362 4.48002C31.2186 4.12503 30.8741 3.8931 30.4904 3.8931H27.8169C27.2594 3.8931 26.8058 3.44046 26.8058 2.88381C26.8058 2.32765 27.2594 1.87501 27.8169 1.87501H35.3305C35.607 1.87501 36.3411 1.87501 36.3411 2.87795C36.3411 2.88625 36.3416 2.89455 36.3416 2.90334V10.4464C36.3416 11.0025 35.888 11.4552 35.3305 11.4552C34.7726 11.4552 34.319 11.0025 34.319 10.4464V7.45953C34.319 7.08355 34.0938 6.7437 33.7473 6.59673C33.4008 6.44927 32.9995 6.52349 32.7279 6.78423L23.7015 15.4532C23.3893 15.7531 22.9205 15.8214 22.5358 15.6227L18.8507 13.7208C18.4861 13.5328 18.0412 13.6026 17.752 13.8932L3.60698 28.1145C2.99035 28.7297 2.36735 28.3088 2.17648 28.1198C1.78105 27.7278 1.7786 27.0876 2.1711 26.6931Z" fill="#FC7F6C"/>
</svg>
