<svg width="64" height="64" viewBox="0 0 64 64" fill="none" xmlns="http://www.w3.org/2000/svg">
<path d="M22.715 45.8513C22.6246 45.8256 22.5321 45.8111 22.439 45.8061C23.8082 44.367 24.6515 42.4228 24.6515 40.2843V33.708C24.6515 33.6478 24.6457 33.5892 24.6376 33.5315C24.6459 33.4127 24.6515 33.2932 24.6515 33.1725V29.0117C24.6515 28.3213 24.0919 27.7617 23.4015 27.7617H15.0174C11.4867 27.7617 8.6145 30.6341 8.6145 34.1646V40.2843C8.6145 42.4228 9.45762 44.367 10.827 45.8061C10.734 45.8111 10.6415 45.8256 10.5512 45.8513C4.64412 46.3862 0 51.3651 0 57.4091V62.7496C0 63.44 0.559625 63.9996 1.25 63.9996H32.0159C32.7062 63.9996 33.2659 63.44 33.2659 62.7496V57.4091C33.2659 51.3652 28.622 46.3863 22.715 45.8513ZM11.1145 35.7497V34.1645C11.1145 32.0125 12.8654 30.2616 15.0174 30.2616H22.1515V33.1723C22.1515 34.6377 20.9594 35.8298 19.494 35.8298H11.1145V35.7497ZM11.1145 38.3298H19.494C20.4655 38.3298 21.3749 38.0596 22.1515 37.5906V40.2842C22.1515 43.3271 19.6759 45.8027 16.633 45.8027C13.5901 45.8027 11.1145 43.3271 11.1145 40.2842V38.3298ZM19.3536 48.3028L16.633 51.0236L13.9124 48.3028H19.3536ZM30.766 61.4996H2.5V58.9996H7.6875C8.37787 58.9996 8.9375 58.44 8.9375 57.7496C8.9375 57.0592 8.37787 56.4996 7.6875 56.4996H2.54562C2.9655 52.2851 6.27137 48.91 10.4525 48.3785L15.7491 53.6751C15.9835 53.9095 16.3015 54.0412 16.633 54.0412C16.9645 54.0412 17.2825 53.9095 17.5169 53.6751L22.8135 48.3785C27.2915 48.9476 30.766 52.779 30.766 57.4091V61.4996Z" fill="#C33DAB"/>
<path d="M53.4497 18.0897C53.3594 18.064 53.2667 18.0495 53.1735 18.0445C54.5427 16.6054 55.3859 14.6612 55.3859 12.5227V5.94625C55.3859 5.88612 55.3801 5.8275 55.372 5.76975C55.3802 5.651 55.3859 5.5315 55.3859 5.41075V1.25C55.3859 0.559625 54.8262 0 54.1359 0H45.7517C42.2211 0 39.3489 2.87237 39.3489 6.40287V12.5226C39.3489 14.6611 40.192 16.6052 41.5612 18.0444C41.4681 18.0494 41.3754 18.0639 41.285 18.0896C35.3781 18.6247 30.7344 23.6036 30.7344 29.6474V34.9877C30.7344 35.6781 31.294 36.2377 31.9844 36.2377H42.0419C42.7322 36.2377 43.2919 35.6781 43.2919 34.9877C43.2919 34.2974 42.7322 33.7377 42.0419 33.7377H33.2344V29.6475C33.2344 25.0174 36.7087 21.186 41.1867 20.6169L46.4834 25.9135C46.7275 26.1576 47.0474 26.2796 47.3672 26.2796C47.6871 26.2796 48.0071 26.1576 48.2511 25.9135L53.5477 20.6169C58.026 21.1861 61.5004 25.0174 61.5004 29.6475V33.7379H52.292C51.6016 33.7379 51.042 34.2975 51.042 34.9879C51.042 35.6782 51.6016 36.2379 52.292 36.2379H62.7504C63.4407 36.2379 64.0004 35.6782 64.0004 34.9879V29.6475C64.0004 23.6037 59.3565 18.6249 53.4497 18.0897ZM47.3675 23.2619L44.6469 20.5412H50.0881L47.3675 23.2619ZM52.886 12.5226C52.886 15.5655 50.4104 18.0411 47.3675 18.0411C44.3246 18.0411 41.849 15.5656 41.849 12.5227V10.5682H50.2285C51.2 10.5682 52.1094 10.2979 52.886 9.829V12.5226ZM52.886 5.41075C52.886 6.87612 51.6939 8.06825 50.2285 8.06825H41.849V7.98812V6.40287C41.849 4.25087 43.5999 2.5 45.7519 2.5H52.886V5.41075Z" fill="#C33DAB"/>
<path d="M48.2509 34.1045C48.0184 33.872 47.6959 33.7383 47.3672 33.7383C47.0372 33.7383 46.7159 33.872 46.4834 34.1045C46.2497 34.337 46.1172 34.6595 46.1172 34.9883C46.1172 35.3183 46.2497 35.6395 46.4834 35.872C46.7159 36.1058 47.0372 36.2383 47.3672 36.2383C47.6959 36.2383 48.0184 36.1058 48.2509 35.872C48.4834 35.6395 48.6172 35.3183 48.6172 34.9883C48.6172 34.6595 48.4834 34.337 48.2509 34.1045Z" fill="#C33DAB"/>
<path d="M33.4256 17.4911L28.198 12.2635V6.25C28.198 2.80375 25.3942 0 21.948 0H6.25C2.80375 0 0 2.80375 0 6.25V17.25C0 20.6962 2.80375 23.5 6.25 23.5H21.9479C24.5321 23.5 26.7856 21.9491 27.7311 19.625H32.5416C33.0471 19.625 33.503 19.3204 33.6965 18.8534C33.89 18.3864 33.783 17.8486 33.4256 17.4911ZM26.8192 17.125C26.2369 17.125 25.7316 17.5271 25.601 18.0947C25.2075 19.8052 23.7054 21 21.9479 21H6.25C4.18225 21 2.5 19.3177 2.5 17.25V6.25C2.5 4.18225 4.18225 2.5 6.25 2.5H21.9479C24.0156 2.5 25.6979 4.18225 25.6979 6.25V12.7812C25.6979 13.1127 25.8296 13.4307 26.064 13.6651L29.5239 17.125H26.8192Z" fill="#C33DAB"/>
<path d="M57.7487 40.5H42.0508C39.4666 40.5 37.2131 42.0509 36.2676 44.375H31.4571C30.9516 44.375 30.4957 44.6796 30.3022 45.1466C30.1087 45.6136 30.2157 46.1514 30.5731 46.5089L35.8007 51.7365V57.75C35.8007 61.1962 38.6045 64 42.0507 64H57.7487C61.195 64 63.9987 61.1962 63.9987 57.75V46.75C63.9987 43.3037 61.195 40.5 57.7487 40.5ZM61.4987 57.75C61.4987 59.8177 59.8165 61.5 57.7487 61.5H42.0508C39.9831 61.5 38.3008 59.8177 38.3008 57.75V51.2187C38.3008 50.8872 38.1691 50.5692 37.9347 50.3349L34.4748 46.875H37.1795C37.7618 46.875 38.2671 46.4729 38.3977 45.9052C38.7912 44.1947 40.2933 43 42.0508 43H57.7487C59.8165 43 61.4987 44.6822 61.4987 46.75V57.75Z" fill="#C33DAB"/>
<path d="M55.5196 48.9237C55.0316 48.4356 54.2401 48.4356 53.752 48.9237L50.4291 52.2466L48.884 50.7015C48.3958 50.2133 47.6043 50.2133 47.1161 50.7015C46.628 51.1896 46.628 51.9811 47.1161 52.4693L49.5451 54.8983C49.7892 55.1425 50.1091 55.2645 50.429 55.2645C50.7488 55.2645 51.0688 55.1425 51.3128 54.8983L55.5196 50.6916C56.0077 50.2035 56.0077 49.412 55.5196 48.9237Z" fill="#C33DAB"/>
<path d="M19.7785 8.28345C19.6307 6.14008 17.903 4.41233 15.7596 4.26458C14.5442 4.18095 13.3857 4.59095 12.4982 5.41945C11.6231 6.23633 11.1211 7.39133 11.1211 8.58808C11.1212 9.27858 11.6808 9.8382 12.3712 9.8382C13.0616 9.8382 13.6212 9.27858 13.6212 8.5882C13.6212 8.07433 13.8282 7.59808 14.2042 7.24708C14.5796 6.89658 15.0715 6.72258 15.5878 6.75883C16.4927 6.8212 17.2221 7.55058 17.2845 8.45545C17.3476 9.37033 16.7478 10.1788 15.8585 10.3778C14.885 10.5956 14.2051 11.4419 14.2051 12.4359V13.1028C14.2051 13.7932 14.7647 14.3528 15.4551 14.3528C16.1455 14.3528 16.7051 13.7932 16.7051 13.1028V12.7391C18.6418 12.1613 19.92 10.3354 19.7785 8.28345Z" fill="#C33DAB"/>
<path d="M16.3408 17.002C16.1083 16.7695 15.7858 16.6357 15.457 16.6357C15.127 16.6357 14.8058 16.7695 14.5733 17.002C14.3395 17.2345 14.207 17.557 14.207 17.8857C14.207 18.2145 14.3395 18.537 14.5733 18.7695C14.8058 19.002 15.127 19.1357 15.457 19.1357C15.7858 19.1357 16.1083 19.002 16.3408 18.7695C16.5733 18.537 16.707 18.2145 16.707 17.8857C16.707 17.557 16.5733 17.2345 16.3408 17.002Z" fill="#C33DAB"/>
<path d="M13.5712 56.8662C13.3387 56.6337 13.0162 56.5 12.6875 56.5C12.3587 56.5 12.0362 56.6337 11.8037 56.8662C11.5712 57.0987 11.4375 57.4212 11.4375 57.75C11.4375 58.0787 11.5712 58.4013 11.8037 58.6338C12.0362 58.8663 12.3587 59 12.6875 59C13.0162 59 13.3387 58.8663 13.5712 58.6338C13.8037 58.4013 13.9375 58.0787 13.9375 57.75C13.9375 57.4212 13.8037 57.0987 13.5712 56.8662Z" fill="#C33DAB"/>
</svg>
