<svg width="86" height="64" viewBox="0 0 86 64" fill="none" xmlns="http://www.w3.org/2000/svg">
<path d="M74.2836 60.6309H74.2383C73.3105 60.6309 72.5586 61.3848 72.5586 62.3151C72.5586 63.2453 73.3105 63.9993 74.2383 63.9993H74.2836C75.2113 63.9993 75.9632 63.2453 75.9632 62.3151C75.9632 61.3848 75.2113 60.6309 74.2836 60.6309Z" fill="#FFC700"/>
<path d="M79.7825 45.0967C80.9235 43.752 81.6151 42.0079 81.6151 40.1026C81.6151 35.8612 78.1947 32.4105 73.9902 32.4105C73.966 32.4105 73.9417 32.4125 73.9174 32.4125C72.7994 30.7974 71.2424 29.5757 69.4623 28.8796C70.5974 27.5362 71.285 25.7967 71.285 23.8974C71.285 19.6559 67.8646 16.2053 63.6595 16.2053C63.6359 16.2053 63.6123 16.2072 63.588 16.2072C62.4693 14.5921 60.9123 13.3704 59.1322 12.6743C60.2673 11.3309 60.9549 9.59145 60.9549 7.69211C60.9549 3.45066 57.5345 0 53.3301 0C49.1256 0 45.7052 3.45066 45.7052 7.69211C45.7052 9.59145 46.3922 11.3309 47.5273 12.6743C45.7472 13.3704 44.1909 14.5921 43.0722 16.2072C43.0479 16.2072 43.0243 16.2059 43 16.2059C42.9757 16.2059 42.9521 16.2072 42.9278 16.2072C41.8091 14.5921 40.2521 13.3704 38.4721 12.6743C39.6072 11.3309 40.2948 9.59145 40.2948 7.69211C40.2948 3.45066 36.8744 0 32.6699 0C28.4655 0 25.0451 3.45066 25.0451 7.69211C25.0451 9.59145 25.732 11.3309 26.8671 12.6743C25.0871 13.3704 23.5301 14.5921 22.412 16.2072C22.3877 16.2072 22.3641 16.2059 22.3398 16.2059C21.9317 16.2059 21.5197 16.2395 21.1168 16.3053C20.2009 16.4559 19.5802 17.3217 19.7304 18.2395C19.88 19.1572 20.7422 19.7796 21.6588 19.6296C21.8838 19.5928 22.1128 19.5743 22.3398 19.5743C24.6921 19.5743 26.6053 21.5138 26.6053 23.898C26.6053 26.2816 24.6921 28.2217 22.3398 28.2217C20.6136 28.2217 19.0677 27.1776 18.4031 25.5632C18.0494 24.7033 17.0665 24.2941 16.2096 24.6487C15.3521 25.0039 14.944 25.9888 15.2976 26.848C15.608 27.6013 16.0266 28.2842 16.5298 28.8829C14.753 29.5796 13.1987 30.8 12.0819 32.4125C12.0577 32.4125 12.034 32.4112 12.0091 32.4112C7.8053 32.4112 4.38425 35.8618 4.38425 40.1033C4.38425 42.0079 5.07581 43.752 6.21681 45.0974C2.58252 46.5224 0 50.0697 0 54.2132V58.9474C0 61.7336 2.26036 64 5.03906 64H67.5234C68.4512 64 69.2031 63.2461 69.2031 62.3158C69.2031 61.3855 68.4512 60.6316 67.5234 60.6316H65.3398V54.2132C65.3398 50.6743 68.2117 47.7947 71.741 47.7947H76.2394C79.7688 47.7947 82.6406 50.6743 82.6406 54.2132V58.9474C82.6406 59.8763 81.8867 60.6316 80.9609 60.6316H79.1074C78.1796 60.6316 77.4277 61.3855 77.4277 62.3158C77.4277 63.2461 78.1796 64 79.1074 64H80.9609C83.7396 64 86 61.7336 86 58.9474V54.2132C86 50.0697 83.4175 46.5224 79.7825 45.0967ZM78.2557 40.1026C78.2557 42.4868 76.3425 44.4263 73.9902 44.4263C71.638 44.4263 69.7247 42.4868 69.7247 40.1026C69.7247 37.7184 71.638 35.7789 73.9902 35.7789C76.3425 35.7789 78.2557 37.7184 78.2557 40.1026ZM67.9256 23.898C67.9256 26.2816 66.0124 28.2211 63.6602 28.2211C61.3079 28.2211 59.3947 26.2816 59.3947 23.898C59.3947 21.5138 61.3079 19.5743 63.6602 19.5743C66.0124 19.5743 67.9256 21.5138 67.9256 23.898ZM53.3301 3.36842C55.6823 3.36842 57.5956 5.3079 57.5956 7.69211C57.5956 10.0757 55.6823 12.0158 53.3301 12.0158C50.9779 12.0158 49.0646 10.0757 49.0646 7.69211C49.0646 5.3079 50.9779 3.36842 53.3301 3.36842ZM51.0185 15.3842H55.6416C57.2852 15.3842 58.8343 16.0355 59.9963 17.1539C57.6376 18.4632 56.0353 20.9947 56.0353 23.898C56.0353 25.7974 56.7223 27.5368 57.8574 28.8803C56.0773 29.5763 54.521 30.7974 53.4023 32.4125C53.378 32.4125 53.3544 32.4105 53.3301 32.4105C53.3058 32.4105 53.2815 32.4125 53.2572 32.4125C52.1392 30.7974 50.5822 29.5763 48.8021 28.8803C49.9372 27.5368 50.6249 25.7974 50.6249 23.898C50.6249 20.9947 49.0219 18.4632 46.6632 17.1539C47.8258 16.0355 49.3743 15.3842 51.0185 15.3842ZM53.3301 44.4263C50.9779 44.4263 49.0646 42.4868 49.0646 40.1026C49.0646 37.7184 50.9779 35.7789 53.3301 35.7789C55.6823 35.7789 57.5956 37.7184 57.5956 40.1026C57.5956 42.4868 55.6823 44.4263 53.3301 44.4263ZM43 48.7303C41.897 47.1013 40.3164 45.8237 38.4622 45.0967C39.6032 43.752 40.2948 42.0079 40.2948 40.1026C40.2948 37.2007 38.6925 34.6684 36.3337 33.3592C37.4957 32.2408 39.0449 31.5901 40.6885 31.5901H45.3115C46.9551 31.5901 48.5043 32.2408 49.6663 33.3592C47.3075 34.6684 45.7052 37.2 45.7052 40.1026C45.7052 42.0079 46.3968 43.752 47.5378 45.0967C45.6836 45.8237 44.103 47.1013 43 48.7303ZM28.4044 40.1026C28.4044 37.7184 30.3177 35.7789 32.6699 35.7789C35.0221 35.7789 36.9354 37.7184 36.9354 40.1026C36.9354 42.4868 35.0221 44.4263 32.6699 44.4263C30.3177 44.4263 28.4044 42.4868 28.4044 40.1026ZM43 19.5743C45.3522 19.5743 47.2655 21.5138 47.2655 23.898C47.2655 26.2816 45.3522 28.2211 43 28.2211C40.6478 28.2211 38.7345 26.2816 38.7345 23.8974C38.7345 21.5138 40.6478 19.5743 43 19.5743ZM32.6699 3.36842C35.0221 3.36842 36.9354 5.3079 36.9354 7.69211C36.9354 10.0757 35.0221 12.0158 32.6699 12.0158C30.3177 12.0158 28.4044 10.0757 28.4044 7.69211C28.4044 5.3079 30.3177 3.36842 32.6699 3.36842ZM26.003 17.1539C27.1657 16.0355 28.7141 15.3842 30.3584 15.3842H34.9815C36.6257 15.3842 38.1742 16.0355 39.3368 17.1539C36.9774 18.4632 35.3751 20.9947 35.3751 23.898C35.3751 25.7974 36.0621 27.5368 37.1972 28.8803C35.4178 29.5763 33.8608 30.7974 32.7421 32.4125C32.7178 32.4125 32.6942 32.4105 32.6699 32.4105C32.6456 32.4105 32.6214 32.4125 32.5971 32.4125C31.479 30.7974 29.9221 29.5763 28.142 28.8803C29.2771 27.5368 29.9647 25.7974 29.9647 23.898C29.9647 20.9947 28.3624 18.4632 26.003 17.1539ZM20.0283 31.5895H24.6514C26.295 31.5895 27.8441 32.2408 29.0061 33.3592C26.6473 34.6684 25.0444 37.2 25.0444 40.1026C25.0444 42.0079 25.736 43.752 26.877 45.0967C25.0234 45.8237 23.4428 47.1013 22.3392 48.7303C21.2362 47.1007 19.6556 45.8237 17.8021 45.0967C18.9431 43.752 19.6346 42.0079 19.6346 40.1026C19.6346 37.2 18.0317 34.6684 15.6729 33.3592C16.8356 32.2408 18.3847 31.5895 20.0283 31.5895ZM12.0098 35.7789C14.362 35.7789 16.2753 37.7184 16.2753 40.1026C16.2753 42.4868 14.362 44.4263 12.0098 44.4263C9.65755 44.4263 7.74428 42.4868 7.74428 40.1026C7.74428 37.7184 9.65755 35.7789 12.0098 35.7789ZM3.35938 58.9474V54.2132C3.35938 50.6743 6.23125 47.7947 9.76056 47.7947H14.259C17.7883 47.7947 20.6602 50.6743 20.6602 54.2132V60.6316H5.03906C4.11261 60.6316 3.35938 59.8763 3.35938 58.9474ZM24.0195 54.2132C24.0195 50.6743 26.8914 47.7947 30.4207 47.7947H34.9191C38.4484 47.7947 41.3203 50.6743 41.3203 54.2132V60.6316H24.0195V54.2132ZM44.6797 54.2132C44.6797 50.6743 47.5516 47.7947 51.0809 47.7947H55.5793C59.1086 47.7947 61.9805 50.6743 61.9805 54.2132V60.6316H44.6797V54.2132ZM63.6602 48.7303C62.5572 47.1013 60.9766 45.8237 59.1224 45.0967C60.2634 43.752 60.9549 42.0079 60.9549 40.1026C60.9549 37.2007 59.3527 34.6684 56.9939 33.3592C58.1559 32.2408 59.705 31.5901 61.3486 31.5901H65.9717C67.6153 31.5901 69.1644 32.2408 70.3264 33.3592C67.9676 34.6684 66.3654 37.2 66.3654 40.1026C66.3654 42.0079 67.0569 43.752 68.1979 45.0967C66.3437 45.8237 64.7631 47.1013 63.6602 48.7303Z" fill="#FFC700"/>
<path d="M16.2032 23.2351C16.4033 23.3147 16.6106 23.3515 16.814 23.3515C17.4846 23.3515 18.1204 22.945 18.3828 22.2838L18.3933 22.2575C18.7299 21.393 18.3028 20.4265 17.4419 20.0858C16.5811 19.745 15.6048 20.1746 15.2623 21.0371L15.2518 21.0634C14.9152 21.9279 15.3423 22.8943 16.2032 23.2351Z" fill="#FFC700"/>
</svg>
