<svg width="64" height="64" viewBox="0 0 64 64" fill="none" xmlns="http://www.w3.org/2000/svg">
<path d="M52.7059 37.7821V26.2179C59.0828 25.3017 64 19.803 64 13.1765C64 5.91096 58.089 0 50.8235 0C44.197 0 38.6983 4.91721 37.7821 11.2941H26.2179C25.3017 4.91721 19.8029 0 13.1765 0C5.91096 0 0 5.91096 0 13.1765C0 19.6696 4.72132 25.0802 10.911 26.1574L8.78318 36.5823L3.8592 41.5063C-1.27812 46.6437 -1.27812 55.0031 3.8592 60.1406C8.99664 65.2781 17.3559 65.2781 22.4935 60.1406L27.4175 55.2166L37.8426 53.0889C38.9198 59.2788 44.3303 64 50.8235 64C58.089 64 64 58.089 64 50.8235C64 44.197 59.0828 38.6983 52.7059 37.7821ZM37.7393 49.2677L27.1019 51.4388L21.1625 45.4996L14.5074 52.1546C13.7734 52.8887 12.5793 52.8887 11.8454 52.1546C11.1115 51.4206 11.1115 50.2266 11.8453 49.4926L18.5005 42.8375L12.5611 36.898L14.7322 26.2607C20.6474 25.5617 25.3744 20.9294 26.2178 15.0588H37.782C38.6098 20.8208 43.179 25.3901 48.9411 26.2179V37.7821C43.0707 38.6255 38.4384 43.3525 37.7393 49.2677ZM13.1765 42.8373L10.6482 45.3656L7.98607 42.7034L10.5143 40.1752L13.1765 42.8373ZM11.2941 13.1765C11.2941 12.1385 12.1385 11.2941 13.1765 11.2941C14.2144 11.2941 15.0588 12.1385 15.0588 13.1765C15.0588 14.2144 14.2144 15.0588 13.1765 15.0588C12.1385 15.0588 11.2941 14.2144 11.2941 13.1765ZM13.1765 18.8235C14.9942 18.8235 16.5151 20.1185 16.8653 21.8344C15.7318 22.3191 14.4851 22.5882 13.1765 22.5882C11.8679 22.5882 10.6211 22.3191 9.48769 21.8344C9.8378 20.1185 11.3587 18.8235 13.1765 18.8235ZM48.9412 13.1765C48.9412 12.1385 49.7855 11.2941 50.8235 11.2941C51.8615 11.2941 52.7059 12.1385 52.7059 13.1765C52.7059 14.2144 51.8615 15.0588 50.8235 15.0588C49.7855 15.0588 48.9412 14.2144 48.9412 13.1765ZM50.8235 18.8235C52.6413 18.8235 54.1622 20.1186 54.5123 21.8344C53.3789 22.3191 52.1321 22.5882 50.8235 22.5882C49.5149 22.5882 48.2682 22.3191 47.1348 21.8344C47.4849 20.1186 49.0058 18.8235 50.8235 18.8235ZM50.8235 3.76471C56.0132 3.76471 60.2353 7.98682 60.2353 13.1765C60.2353 15.6441 59.2794 17.8916 57.7202 19.5718C57.1952 18.3762 56.3693 17.3414 55.3373 16.5658C56.0484 15.621 56.4706 14.4473 56.4706 13.1765C56.4706 10.0627 53.9373 7.52941 50.8235 7.52941C47.7096 7.52941 45.1765 10.0627 45.1765 13.1765C45.1765 14.4473 45.5986 15.621 46.3098 16.5658C45.2776 17.3414 44.4518 18.3762 43.9268 19.5718C42.3676 17.8916 41.4118 15.6441 41.4118 13.1765C41.4118 7.98682 45.6339 3.76471 50.8235 3.76471ZM3.76471 13.1765C3.76471 7.98682 7.98682 3.76471 13.1765 3.76471C18.3661 3.76471 22.5882 7.98682 22.5882 13.1765C22.5882 15.6441 21.6324 17.8916 20.0732 19.5718C19.5481 18.376 18.7223 17.3414 17.6901 16.5657C18.4014 15.621 18.8235 14.4473 18.8235 13.1765C18.8235 10.0627 16.2903 7.52941 13.1765 7.52941C10.0627 7.52941 7.52941 10.0627 7.52941 13.1765C7.52941 14.4473 7.95156 15.621 8.66271 16.5657C7.63056 17.3414 6.80471 18.3762 6.27966 19.5718C4.72056 17.8916 3.76471 15.6441 3.76471 13.1765ZM6.52135 57.4787C3.26061 54.2179 2.90008 49.1412 5.4341 45.4755L8.16979 48.2113C7.06096 50.3398 7.39865 53.0318 9.18337 54.8166C11.0147 56.648 13.7168 56.9165 15.7899 55.8315L18.5245 58.566C14.8587 61.1001 9.78209 60.7394 6.52135 57.4787ZM21.2964 56.0138L18.6344 53.3518L21.1627 50.8235L23.8247 53.4856L21.2964 56.0138ZM48.9412 50.8235C48.9412 49.7856 49.7855 48.9412 50.8235 48.9412C51.8615 48.9412 52.7059 49.7856 52.7059 50.8235C52.7059 51.8616 51.8615 52.7059 50.8235 52.7059C49.7855 52.7059 48.9412 51.8616 48.9412 50.8235ZM47.1348 59.4815C47.4849 57.7657 49.0058 56.4706 50.8235 56.4706C52.6413 56.4706 54.1622 57.7657 54.5123 59.4815C53.3789 59.9661 52.1321 60.2353 50.8235 60.2353C49.5149 60.2353 48.2682 59.9661 47.1348 59.4815ZM57.7202 57.2189C57.1952 56.0232 56.3693 54.9884 55.3373 54.2128C56.0484 53.2681 56.4706 52.0944 56.4706 50.8235C56.4706 47.7097 53.9373 45.1765 50.8235 45.1765C47.7096 45.1765 45.1765 47.7097 45.1765 50.8235C45.1765 52.0944 45.5986 53.2681 46.3098 54.2128C45.2776 54.9884 44.4518 56.0232 43.9268 57.2189C42.3676 55.5387 41.4118 53.2912 41.4118 50.8235C41.4118 45.6339 45.6339 41.4118 50.8235 41.4118C56.0132 41.4118 60.2353 45.6339 60.2353 50.8235C60.2353 53.2912 59.2794 55.5387 57.7202 57.2189Z" fill="#0085FF"/>
</svg>
