<svg width="64" height="64" viewBox="0 0 64 64" fill="none" xmlns="http://www.w3.org/2000/svg">
<path d="M40.8908 39.8976L39.1123 39.4527V39.4516L34.9952 38.4194L32.9366 37.9032L30.8781 37.3871V34.9262C37.2966 33.9218 42.2001 28.2857 42.2001 21.6772C42.2001 14.2779 36.1974 8.25781 28.8196 8.25781C21.4418 8.25781 15.439 14.2779 15.439 21.6772C15.439 23.0367 15.6531 24.3528 16.0329 25.6018C13.046 27.7272 9.4312 28.903 5.76082 28.903H3.08781C1.3854 28.903 0 30.2924 0 31.9997V34.0643C0 35.7716 1.3854 37.161 3.08781 37.161H4.43307L7.20489 44.5747V49.5481H3.08781C1.3854 49.5481 0 50.9376 0 52.6449V56.7739C0 58.4813 1.3854 59.8707 3.08781 59.8707H4.72023L8.10962 63.271C8.57999 63.7406 9.2027 63.9997 9.86555 63.9997C11.2365 63.9997 12.3512 62.8818 12.3512 61.5068V59.8707H15.439C17.1415 59.8707 18.5269 58.4813 18.5269 56.7739V52.6449C18.5269 50.9376 17.1415 49.5481 15.439 49.5481H9.26343V45.4191H11.322V38.0725C13.3177 38.7332 15.1992 39.7365 16.8543 41.064L18.5269 42.4049V30.2418C20.114 32.1618 22.2322 33.64 24.7025 34.439V41.5327C23.7133 40.7213 22.4926 40.2578 21.133 40.2578C20.4351 40.2578 19.7815 40.5303 19.2885 41.0248C18.7955 41.5203 18.5248 42.1799 18.5269 42.9603C18.5269 43.3773 18.6257 43.7964 18.8109 44.169L20.0409 46.6382C20.397 47.3505 20.5854 48.1484 20.5854 48.9453V52.6449C20.5854 58.9056 25.6648 63.9997 31.9074 63.9997C38.1499 63.9997 43.2293 58.9056 43.2293 52.6449V42.9025C43.2293 41.479 42.267 40.2423 40.8908 39.8976V39.8976ZM6.17562 35.112C6.03667 35.1089 5.89978 35.0965 5.76082 35.0965H3.08781C2.51965 35.0965 2.05854 34.6341 2.05854 34.0643V31.9997C2.05854 31.4299 2.51965 30.9675 3.08781 30.9675H5.76082C5.89875 30.9675 6.03667 30.9551 6.17562 30.952V35.112ZM15.439 51.6126C16.0072 51.6126 16.4683 52.0751 16.4683 52.6449V56.7739C16.4683 57.3437 16.0072 57.8062 15.439 57.8062H10.2927V61.5068C10.2927 61.8568 9.811 62.0539 9.56398 61.8103L5.57247 57.8062H3.08781C2.51965 57.8062 2.05854 57.3437 2.05854 56.7739V52.6449C2.05854 52.0751 2.51965 51.6126 3.08781 51.6126H15.439ZM9.26343 43.3546H8.94744L6.646 37.1992C7.52808 37.2436 8.40193 37.3541 9.26343 37.5285V43.3546ZM16.4683 38.249C13.9837 36.6521 11.1593 35.6364 8.23416 35.2637V30.8013C11.1573 30.4287 13.9857 29.4119 16.4683 27.816V38.249ZM30.6887 26.8385C30.2626 25.64 29.1304 24.7739 27.7903 24.7739C26.6324 24.7739 25.6329 25.4243 25.1049 26.3729C24.8991 25.2137 24.7766 23.977 24.7303 22.7094H32.9088C32.8574 24.1505 32.6978 25.5461 32.4395 26.8385H30.6887ZM30.8781 32.8421V28.903H37.5128C35.8546 30.9066 33.5336 32.3487 30.8781 32.8421V32.8421ZM38.8868 26.8385H34.5392C34.778 25.5316 34.919 24.136 34.9674 22.7094H40.0921C39.9563 24.1783 39.5373 25.5739 38.8868 26.8385V26.8385ZM38.892 16.5159C39.5363 17.7763 39.9563 19.1688 40.0901 20.6449H34.9736C34.9262 19.1801 34.7842 17.7928 34.5526 16.5159H38.892ZM37.5467 14.4514H34.075C33.6962 13.1146 33.2135 11.9512 32.6433 11.0026C34.5711 11.7004 36.2632 12.8957 37.5467 14.4514V14.4514ZM28.8196 10.3223C29.926 10.3223 31.1045 11.8986 31.9166 14.4514H25.7215C26.5346 11.8986 27.7131 10.3223 28.8196 10.3223ZM32.4416 16.5159C32.6927 17.7639 32.8615 19.1512 32.915 20.6449H24.7241C24.7776 19.1512 24.9474 17.7639 25.1976 16.5159H32.4416ZM24.9968 11.0026C24.4277 11.9512 23.9439 13.1146 23.5651 14.4514H20.0934C21.3759 12.8957 23.068 11.7004 24.9968 11.0026V11.0026ZM18.7471 16.5159H23.0865C22.8549 17.7928 22.7129 19.1801 22.6656 20.6449H17.5491C17.6829 19.1688 18.1028 17.7763 18.7471 16.5159V16.5159ZM18.7409 26.8385C18.0966 25.5719 17.6798 24.1773 17.547 22.7094H22.6728C22.7211 24.136 22.8621 25.5316 23.1009 26.8385H18.7409ZM20.0924 28.903H24.7025V32.2485C22.8735 31.5342 21.2997 30.3708 20.0924 28.903V28.903ZM41.1708 52.6449C41.1708 57.768 37.0156 61.9352 31.9074 61.9352C26.7991 61.9352 22.6439 57.768 22.6439 52.6449V48.9453C22.6439 47.8294 22.3804 46.7115 21.8833 45.7143L20.6533 43.2452C20.608 43.1585 20.5854 43.0594 20.5854 42.8777C20.5854 42.727 20.643 42.5876 20.746 42.4823C20.8499 42.3801 20.9868 42.3223 21.2081 42.3223C22.1417 42.3223 23.0196 42.6877 23.6794 43.3484C24.3391 44.0101 24.7025 44.8875 24.7025 45.8217V47.4836V50.5804H26.761V47.4836V45.8217V27.8707C26.761 27.3009 27.2221 26.8385 27.7903 26.8385C28.3584 26.8385 28.8196 27.3009 28.8196 27.8707V36.871V50.5804H30.8781V39.5156L32.9366 40.0317V50.5804H34.9952V40.5479L37.0537 41.064V50.5804H39.1123V41.5791L40.3906 41.9001C40.8497 42.0157 41.1708 42.4276 41.1708 42.9025V52.6449Z" fill="#FFC700"/>
<path d="M63.3567 18.8366C62.9378 16.3097 60.9729 14.273 58.4656 13.7714C58.1681 13.7115 57.9335 13.5195 57.7883 13.2697C58.8269 12.4181 59.5185 11.1794 59.6493 9.76619L60.4387 8.97445C61.2889 8.12181 61.7562 6.98942 61.7562 5.78581C61.7562 2.59613 59.1676 0 55.9871 0H53.1165C49.935 0 47.3464 2.59613 47.3464 5.78581C47.3464 6.98942 47.8137 8.12181 48.6628 8.97342L49.4523 9.76516C49.584 11.1783 50.2747 12.417 51.3132 13.2686C51.1691 13.5185 50.9334 13.7105 50.6349 13.7703C48.1286 14.272 46.1638 16.3086 45.7449 18.8356L45.1016 22.7097H64L63.3567 18.8366ZM50.3097 5.8911C50.0297 6.17187 49.8136 6.50013 49.6602 6.85523C49.4986 6.5249 49.4049 6.16465 49.4049 5.78581C49.4049 3.73368 51.0693 2.06452 53.1155 2.06452H55.9861C58.0333 2.06452 59.6976 3.73368 59.6976 5.78581C59.6976 6.16361 59.604 6.52387 59.4424 6.85419C59.29 6.4991 59.0739 6.17187 58.7929 5.89006L57.3375 4.43045L55.8821 5.89006L57.3375 7.34968C57.53 7.54374 57.6391 7.80903 57.6391 8.08052V9.29032C57.6391 10.9977 56.2537 12.3871 54.5513 12.3871C52.8489 12.3871 51.4635 10.9977 51.4635 9.29032V8.08052C51.4635 7.80903 51.5726 7.54271 51.7651 7.35071L52.4927 6.6209L53.8236 7.95561L55.279 6.496L52.4927 3.70168L50.3097 5.8911ZM56.2527 14.6766L55.2955 16.1166C54.964 16.6163 54.1396 16.6163 53.8082 16.1166L52.8509 14.6766C52.9611 14.5373 53.0578 14.3876 53.1432 14.2297C53.593 14.3597 54.0593 14.4516 54.5513 14.4516C55.0433 14.4516 55.5095 14.3597 55.9604 14.2307C56.0448 14.3876 56.1415 14.5373 56.2527 14.6766ZM47.5327 20.6452L47.7766 19.1752C48.0566 17.4885 49.3679 16.1311 51.0394 15.7956C51.0631 15.7905 51.0837 15.7812 51.1063 15.776L52.0944 17.2625C52.6441 18.0872 53.5622 18.5806 54.5513 18.5806C55.5404 18.5806 56.4585 18.0872 57.0082 17.2625L57.9963 15.776C58.0189 15.7812 58.0395 15.7905 58.0632 15.7956C59.7357 16.1311 61.046 17.4895 61.327 19.1752L61.5699 20.6452H47.5327Z" fill="#FFC700"/>
<path d="M63.0687 50.1126L59.1369 46.1693L57.8266 46.7846L57.3325 45.4199H51.7724L51.2794 46.7835L49.9692 46.1683L46.0373 50.1115L46.6508 51.4256L45.2891 51.9221V57.4984L46.6487 57.9928L46.0353 59.3069L49.9671 63.2501L51.2774 62.6349L51.7724 64.0006H57.3325L57.8256 62.637L59.1358 63.2522L63.0676 59.309L62.4542 57.9949L63.8159 57.4984V51.9221L62.4563 51.4277L63.0687 50.1126ZM61.7574 56.0511L60.9103 56.3608L60.4554 56.5693L60.0159 57.6336L60.5933 58.8702L58.7015 60.7675L57.4684 60.1884L56.3568 60.6488L55.8895 61.9361H53.2155L52.9067 61.0865L52.6988 60.6302L51.6376 60.1895L50.4045 60.7686L48.5127 58.8713L49.0902 57.6346L48.6311 56.5198L47.3476 56.0511V53.3693L48.1947 53.0597L48.6496 52.8511L49.0891 51.7869L48.5117 50.5502L50.4035 48.653L51.6366 49.2321L52.7482 48.7717L53.2155 47.4844H55.8895L56.1983 48.334L56.4062 48.7902L57.4674 49.231L58.7004 48.6519L60.5922 50.5492L60.0148 51.7859L60.4739 52.9007L61.7574 53.3693V56.0511Z" fill="#FFC700"/>
<path d="M54.5526 49.5488C51.7149 49.5488 49.4062 51.8642 49.4062 54.7101C49.4062 57.5561 51.7149 59.8714 54.5526 59.8714C57.3903 59.8714 59.6989 57.5561 59.6989 54.7101C59.6989 51.8642 57.3903 49.5488 54.5526 49.5488ZM54.5526 57.8069C52.8502 57.8069 51.4648 56.4175 51.4648 54.7101C51.4648 53.0028 52.8502 51.6133 54.5526 51.6133C56.255 51.6133 57.6404 53.0028 57.6404 54.7101C57.6404 56.4175 56.255 57.8069 54.5526 57.8069Z" fill="#FFC700"/>
<path d="M4.11719 4.12891H10.2928V6.19342H4.11719V4.12891Z" fill="#FFC700"/>
<path d="M4.11719 8.25781H10.2928V10.3223H4.11719V8.25781Z" fill="#FFC700"/>
<path d="M4.11719 12.3867H10.2928V14.4512H4.11719V12.3867Z" fill="#FFC700"/>
<path d="M12.3516 53.6777H14.4101V55.7423H12.3516V53.6777Z" fill="#FFC700"/>
<path d="M4.11719 53.6777H6.17573V55.7423H4.11719V53.6777Z" fill="#FFC700"/>
<path d="M8.23438 53.6777H10.2929V55.7423H8.23438V53.6777Z" fill="#FFC700"/>
<path d="M6.17562 26.8387H8.23416V18.5806H14.4098V0H0V18.5806H6.17562V26.8387ZM2.05854 16.5161V2.06452H12.3512V16.5161H2.05854Z" fill="#FFC700"/>
<path d="M53.5234 24.7744H55.582V30.968H53.5234V24.7744Z" fill="#FFC700"/>
<path d="M53.5234 33.0322H55.582V35.0967H53.5234V33.0322Z" fill="#FFC700"/>
<path d="M53.5234 37.1611H55.582V43.3547H53.5234V37.1611Z" fill="#FFC700"/>
</svg>
