<svg width="64" height="64" viewBox="0 0 64 64" fill="none" xmlns="http://www.w3.org/2000/svg">
<path d="M45.366 35.0972H49.5476V33.0327H45.366C45.2019 30.8888 44.5309 28.8903 43.4749 27.1448L49.2452 21.3757L47.7856 19.9161L42.2631 25.4375C40.0076 22.7588 36.7272 20.9813 33.0317 20.6974V18.5193C37.6695 18.0032 41.2897 14.0631 41.2897 9.2901C41.2897 4.16818 37.1225 0 31.9995 0C26.8765 0 22.7093 4.16818 22.7093 9.29023C22.7093 14.0633 26.3293 18.0045 30.9673 18.5195V20.6975C27.2718 20.9814 23.9904 22.7589 21.7359 25.4376L16.2134 19.9151L14.7539 21.3747L20.5242 27.1449C19.4682 28.8904 18.7972 30.8889 18.6331 33.0318H16.516V35.0963H18.6331C18.917 38.7918 20.6944 42.0732 23.3731 44.3277L17.8517 49.8502L19.3113 51.3098L25.0805 45.5395C26.826 46.5955 28.8244 47.2665 30.9684 47.4306V51.6133H33.0329V47.4317C35.1758 47.2676 37.1753 46.5966 38.9208 45.5406L44.6899 51.3109L46.1495 49.8513L40.6281 44.3288C43.3046 42.0742 45.0832 38.7926 45.366 35.0972V35.0972ZM33.744 45.271L35.2056 42.3487C35.7052 41.3485 36.1098 40.3017 36.4216 39.2261H42.101C40.4721 42.4014 37.395 44.7043 33.744 45.271V45.271ZM20.6448 34.065C20.6448 32.9903 20.8048 31.954 21.0846 30.9683H27.1036C26.9302 31.9912 26.8383 33.0276 26.8383 34.065C26.8383 35.1023 26.9302 36.1387 27.1036 37.1617H21.0846C20.8048 36.1759 20.6448 35.1396 20.6448 34.065ZM28.9028 34.065C28.9028 33.0255 29.0287 31.9901 29.2249 30.9683H34.7742C34.9703 31.9901 35.0963 33.0255 35.0963 34.065C35.0963 35.1044 34.9703 36.1398 34.7742 37.1617H29.2249C29.0287 36.1398 28.9028 35.1044 28.9028 34.065V34.065ZM31.9995 23.9872L33.358 26.7051C33.712 27.4122 33.9948 28.1523 34.2426 28.9038H29.7554C30.0032 28.1523 30.286 27.4122 30.64 26.7051L31.9995 23.9872ZM43.3542 34.065C43.3542 35.1396 43.1942 36.1759 42.9145 37.1617H36.8954C37.0688 36.1387 37.1607 35.1023 37.1607 34.065C37.1607 33.0276 37.0688 31.9912 36.8954 30.9683H42.9145C43.1942 31.9541 43.3542 32.9905 43.3542 34.065ZM34.2426 39.2262C33.9948 39.9777 33.712 40.7178 33.358 41.425L31.9995 44.1428L30.641 41.425C30.2869 40.7178 30.0042 39.9777 29.7564 39.2262H34.2426ZM42.1011 28.9038H36.4217C36.1099 27.8292 35.7053 26.7814 35.2057 25.7812L33.7441 22.8589C37.395 23.4257 40.4721 25.7286 42.1011 28.9038ZM24.7739 9.29123C24.7739 5.30679 28.0162 2.06559 31.9995 2.06559C35.9828 2.06559 39.2251 5.30679 39.2251 9.29123C39.2251 13.2757 35.9828 16.5169 31.9995 16.5169C28.0162 16.5169 24.7739 13.2757 24.7739 9.29123V9.29123ZM30.255 22.859L28.7934 25.7813C28.2938 26.7816 27.8892 27.8283 27.5775 28.9039H21.898C23.5269 25.7286 26.604 23.4257 30.255 22.859V22.859ZM21.898 39.2262H27.5775C27.8892 40.3009 28.2938 41.3486 28.7934 42.3488L30.255 45.2711C26.604 44.7043 23.5269 42.4014 21.898 39.2262V39.2262Z" fill="#FC7F6C"/>
<path d="M37.1622 9.29105C37.1622 8.26082 36.5893 7.33396 35.6686 6.87359L30.751 4.41475C30.3784 4.22901 29.9593 4.12988 29.5423 4.12988C28.0528 4.12988 26.8398 5.34174 26.8398 6.83234V11.7499C26.8398 13.2405 28.0527 14.4523 29.5423 14.4523C29.9593 14.4523 30.3784 14.3532 30.751 14.1675L35.6686 11.7086C36.5893 11.2481 37.1622 10.3212 37.1622 9.29105V9.29105ZM34.7447 9.86192L29.8272 12.3208C29.4287 12.5231 28.9043 12.2 28.9043 11.7499V6.83221C28.9043 6.48022 29.1902 6.19435 29.5422 6.19435C29.6413 6.19435 29.7393 6.2171 29.827 6.26147L34.7446 8.72031C34.9623 8.82968 35.0976 9.04755 35.0976 9.29117C35.0976 9.5348 34.9626 9.75242 34.7447 9.86192Z" fill="#FC7F6C"/>
<path d="M30.9688 61.9355H33.0332V64H30.9688V61.9355Z" fill="#FC7F6C"/>
<path d="M32.0005 57.8066C29.7162 57.8066 27.5949 58.9421 26.3273 60.8425L25.9805 61.3627L27.6981 62.5074L28.0449 61.9872C28.9285 60.6628 30.4078 59.8711 32.0005 59.8711C33.5932 59.8711 35.0724 60.6628 35.9561 61.9882L36.3029 62.5084L38.0205 61.3637L37.6737 60.8435C36.4062 58.9421 34.2848 57.8066 32.0005 57.8066V57.8066Z" fill="#FC7F6C"/>
<path d="M32.0012 53.6777C29.0624 53.6777 26.3012 54.8215 24.2244 56.8993L24.0469 57.0758L25.5044 58.5374L25.683 58.3599C27.3707 56.6712 29.6148 55.7422 32.0014 55.7422C34.388 55.7422 36.632 56.6712 38.3208 58.361L38.4983 58.5375L39.9557 57.0759L39.7792 56.9004C37.7013 54.8215 34.9401 53.6777 32.0012 53.6777Z" fill="#FC7F6C"/>
<path d="M60.7788 38.1945C59.9303 38.1945 59.1003 38.5383 58.5005 39.138L58.4778 39.1607C58.0866 39.0141 57.8068 38.6364 57.8068 38.1945V37.8001L57.8904 37.7578C59.1127 37.1478 59.8713 35.9193 59.8713 34.5527C59.8713 32.577 58.263 30.9688 56.2873 30.9688C53.7099 30.9688 51.6133 33.0652 51.6133 35.6428V37.0374C51.6133 41.6598 55.3747 45.4203 59.9961 45.4203C62.2041 45.4203 64.0002 43.6242 64.0002 41.4162C64.0003 39.6396 62.5552 38.1945 60.7788 38.1945V38.1945ZM59.9963 43.3557C56.5125 43.3557 53.6779 40.5211 53.6779 37.0373V35.6427C53.6779 34.2037 54.8485 33.0332 56.2873 33.0332C57.1256 33.0332 57.8068 33.7156 57.8068 34.5527C57.8068 35.1318 57.4847 35.6521 56.9676 35.9112L55.7423 36.5243V38.1945C55.7423 39.9019 57.1317 41.2912 58.839 41.2912H59.2664L59.96 40.5976C60.1758 40.3829 60.474 40.259 60.7786 40.259C61.4165 40.259 61.9357 40.7782 61.9357 41.4161C61.9359 42.4854 61.0656 43.3557 59.9963 43.3557V43.3557Z" fill="#FC7F6C"/>
<path d="M57.7581 56.2182L58.5003 55.476C59.3839 54.5924 59.8712 53.4177 59.8712 52.1667C59.8712 49.5851 57.7716 47.4844 55.19 47.4844H52.1655C49.584 47.4844 47.4844 49.585 47.4844 52.1667C47.4844 53.4178 47.9716 54.5935 48.8552 55.4781L49.5975 56.2192C49.711 57.1957 50.1518 58.069 50.8268 58.7162C49.8627 59.3882 49.1308 60.3864 48.8295 61.593L48.2266 64.0002H59.1302L58.5273 61.593C58.2259 60.3863 57.4951 59.3882 56.53 58.7162C57.2037 58.069 57.6445 57.1947 57.7581 56.2182ZM52.1653 49.5488H55.1897C56.6317 49.5488 57.8065 50.7236 57.8065 52.1666C57.8065 52.6434 57.6712 53.0955 57.4338 53.495C57.1076 52.9685 56.5905 52.568 55.9556 52.409L53.1139 51.6988C52.8848 51.6421 52.6525 51.6132 52.4192 51.6132C51.2621 51.6132 50.267 52.3058 49.8138 53.2947C49.6466 52.9458 49.5486 52.5649 49.5486 52.1664C49.5486 50.7236 50.7233 49.5488 52.1653 49.5488V49.5488ZM56.4801 61.9358H50.8751C51.2539 60.7115 52.3842 59.8713 53.6776 59.8713C54.971 59.8713 56.1012 60.7115 56.4801 61.9358ZM51.6131 55.7424V54.484C51.6131 54.0391 51.9754 53.6778 52.4193 53.6778C52.4843 53.6778 52.5504 53.686 52.6144 53.7015L55.4551 54.4118C55.6244 54.4541 55.7421 54.6048 55.7421 54.7793V55.7424C55.7421 56.881 54.8163 57.8068 53.6776 57.8068C52.539 57.8068 51.6131 56.8808 51.6131 55.7424V55.7424Z" fill="#FC7F6C"/>
<path d="M16.1257 53.718C15.3361 52.4111 13.9342 51.6133 12.3869 51.6133C10.8395 51.6133 9.43782 52.4111 8.64808 53.718C6.10362 54.0349 4.12891 56.2108 4.12891 58.8389C4.12891 60.5463 5.51826 61.9356 7.22561 61.9356H17.5481C19.2554 61.9356 20.6448 60.5463 20.6448 58.8389C20.6448 56.2108 18.6702 54.0349 16.1257 53.718ZM17.5481 59.8712H7.22573C6.65599 59.8712 6.1935 59.4077 6.1935 58.8389C6.1935 57.1316 7.58285 55.7422 9.2902 55.7422H9.92806L10.3224 54.9536C10.7157 54.167 11.5064 53.6778 12.3869 53.6778C13.2674 53.6778 14.0581 54.167 14.4514 54.9536L14.8457 55.7422H15.4836C17.1909 55.7422 18.5803 57.1316 18.5803 58.8389C18.5803 59.4077 18.1179 59.8712 17.5481 59.8712Z" fill="#FC7F6C"/>
<path d="M12.8183 39.0069C13.8557 38.1419 14.4513 36.8702 14.4513 35.5189C14.4513 34.3071 13.9795 33.1675 13.1165 32.3035C12.2557 31.4426 11.1119 30.9688 9.89497 30.9688H9.71747C8.81936 30.9688 7.96062 31.2269 7.22563 31.7089C6.49065 31.2267 5.63191 30.9688 4.7338 30.9688H4.5563C3.33932 30.9688 2.19559 31.4425 1.32848 32.3086C0.471742 33.1663 0 34.3071 0 35.5189C0 36.8712 0.595615 38.1419 1.63297 39.0069L7.22563 43.6674L12.8183 39.0069ZM2.06434 35.5189C2.06434 34.8583 2.32246 34.2358 2.79408 33.7641C3.26482 33.2923 3.89131 33.0332 4.55618 33.0332H4.73367C5.39941 33.0332 6.02503 33.2923 6.49577 33.7641L7.22551 34.4928L7.95525 33.7641C8.42599 33.2923 9.05248 33.0332 9.71734 33.0332H9.89484C10.5606 33.0332 11.1862 33.2923 11.6611 33.7671C12.1287 34.2357 12.3867 34.8582 12.3867 35.5188C12.3867 36.2558 12.0626 36.9495 11.4958 37.4213L7.22538 40.9795L2.95495 37.4213C2.38846 36.9495 2.06434 36.2559 2.06434 35.5189V35.5189Z" fill="#FC7F6C"/>
<path d="M4.12891 10.3232H6.19341V12.3877H4.12891V10.3232Z" fill="#FC7F6C"/>
<path d="M8.25781 10.3232H10.3223V12.3877H8.25781V10.3232Z" fill="#FC7F6C"/>
<path d="M12.3867 10.3232H14.4512V12.3877H12.3867V10.3232Z" fill="#FC7F6C"/>
<path d="M2.06447 16.5167H6.42052L7.00689 18.862C7.26913 19.9129 8.20837 20.6457 9.29023 20.6457C10.3721 20.6457 11.3113 19.9129 11.5736 18.862L12.1599 16.5168H16.516C17.6546 16.5168 18.5805 15.5909 18.5805 14.4523V8.2588C18.5805 7.1202 17.6546 6.19434 16.516 6.19434H2.06447C0.92586 6.19434 0 7.1202 0 8.2588V14.4522C0 15.5908 0.925985 16.5167 2.06447 16.5167V16.5167ZM2.06447 8.2588H16.5159V14.4522H10.5496L9.5721 18.3613C9.5071 18.6204 9.0746 18.6204 9.00948 18.3613L8.03087 14.4522H2.06447V8.2588Z" fill="#FC7F6C"/>
<path d="M57.7656 7.87176C57.584 6.91803 56.7458 6.19442 55.7404 6.19442H47.4824C46.3438 6.19442 45.418 7.12028 45.418 8.25888V16.5169C45.418 17.6555 46.344 18.5813 47.4824 18.5813H55.7404C56.7458 18.5813 57.584 17.8577 57.7656 16.904L63.9983 18.9808V5.79492L57.7656 7.87176ZM47.4824 16.5167V8.25888H55.7404L55.7414 16.5169H47.4824V16.5167ZM61.9338 16.1173L57.8049 14.7403V10.0354L61.9338 8.65838V16.1173Z" fill="#FC7F6C"/>
</svg>
