<svg width="64" height="64" viewBox="0 0 64 64" fill="none" xmlns="http://www.w3.org/2000/svg">
<path d="M49.6344 34.6704L36.5297 28.6221C42.308 26.7515 46.6667 21.2985 46.6667 14.6667C46.6667 6.57947 40.0872 0 32 0C23.9128 0 17.3333 6.57947 17.3333 14.6667C17.3333 21.2873 21.6833 26.7485 27.4703 28.6221L14.3657 34.6704C6.41693 34.8313 0 41.3468 0 49.3333C0 57.4713 6.5952 64 14.6667 64C22.7401 64 29.3333 57.4696 29.3333 49.3333C29.3333 42.8237 25.07 37.2919 19.1891 35.3811L32 29.4685L44.8108 35.3812C38.93 37.2919 34.6667 42.8237 34.6667 49.3333C34.6667 57.4712 41.2616 64 49.3333 64C57.4067 64 64 57.4699 64 49.3333C64 41.3468 57.5831 34.8313 49.6344 34.6704V34.6704ZM32 2.66667C38.6168 2.66667 44 8.04987 44 14.6667C44 16.9272 43.3808 19.0875 42.2227 20.9595C41.2999 17.8624 39.0065 15.3516 36.0479 14.1333C36.8481 13.2001 37.3333 11.9893 37.3333 10.6667C37.3333 7.72587 34.9408 5.33333 32 5.33333C29.0592 5.33333 26.6667 7.72587 26.6667 10.6667C26.6667 11.9895 27.1517 13.2003 27.952 14.1333C24.9935 15.3517 22.7001 17.8624 21.7772 20.9595C20.6192 19.0875 20 16.9272 20 14.6667C20 8.04987 25.3832 2.66667 32 2.66667ZM29.3333 10.6667C29.3333 9.19627 30.5296 8 32 8C33.4704 8 34.6667 9.19627 34.6667 10.6667C34.6667 12.1371 33.4704 13.3333 32 13.3333C30.5296 13.3333 29.3333 12.1371 29.3333 10.6667ZM32 16C36.2833 16 39.7912 19.3835 39.9911 23.6183C35.4455 27.684 28.5573 27.6867 24.0091 23.6183C24.2088 19.3833 27.7167 16 32 16ZM6.67573 58.2848C6.87547 54.05 10.3833 50.6667 14.6667 50.6667C18.95 50.6667 22.4579 54.05 22.6577 58.2848C18.1121 62.3509 11.2239 62.3531 6.67573 58.2848V58.2848ZM12 45.3333C12 43.8629 13.1963 42.6667 14.6667 42.6667C16.1371 42.6667 17.3333 43.8629 17.3333 45.3333C17.3333 46.8037 16.1371 48 14.6667 48C13.1963 48 12 46.8037 12 45.3333V45.3333ZM26.6667 49.3333C26.6667 51.5939 26.0475 53.7541 24.8893 55.626C23.9665 52.5289 21.6731 50.0183 18.7145 48.8C19.5148 47.8669 20 46.6561 20 45.3333C20 42.3925 17.6075 40 14.6667 40C11.7259 40 9.33333 42.3925 9.33333 45.3333C9.33333 46.6561 9.81853 47.8669 10.6188 48.8C7.66027 50.0184 5.3668 52.5291 4.444 55.626C3.28587 53.7541 2.66667 51.5939 2.66667 49.3333C2.66667 42.7173 8.04853 37.3347 14.6643 37.3333C14.6653 37.3333 14.6664 37.3336 14.6675 37.3336C14.6687 37.3336 14.67 37.3333 14.6712 37.3333C21.286 37.336 26.6667 42.7181 26.6667 49.3333V49.3333ZM49.3288 37.3333C49.33 37.3333 49.3313 37.3336 49.3325 37.3336C49.3336 37.3336 49.3347 37.3333 49.3357 37.3333C55.9515 37.3347 61.3333 42.7173 61.3333 49.3333C61.3333 51.5939 60.7141 53.7541 59.556 55.6261C58.6332 52.5291 56.3399 50.0183 53.3812 48.8C54.1815 47.8669 54.6667 46.6561 54.6667 45.3333C54.6667 42.3925 52.2741 40 49.3333 40C46.3925 40 44 42.3925 44 45.3333C44 46.6561 44.4852 47.8669 45.2855 48.8C42.3269 50.0184 40.0335 52.5292 39.1107 55.6261C37.9525 53.7541 37.3333 51.5939 37.3333 49.3333C37.3333 42.7181 42.714 37.336 49.3288 37.3333V37.3333ZM46.6667 45.3333C46.6667 43.8629 47.8629 42.6667 49.3333 42.6667C50.8037 42.6667 52 43.8629 52 45.3333C52 46.8037 50.8037 48 49.3333 48C47.8629 48 46.6667 46.8037 46.6667 45.3333ZM41.3423 58.2849C41.5421 54.0501 45.05 50.6667 49.3333 50.6667C53.6167 50.6667 57.1245 54.0501 57.3244 58.2849C52.7789 62.3507 45.8908 62.3532 41.3423 58.2849Z" fill="#0085FF"/>
<path d="M36 36C36 33.7944 34.2056 32 32 32C29.7944 32 28 33.7944 28 36C28 38.2056 29.7944 40 32 40C34.2056 40 36 38.2056 36 36ZM32 37.3333C31.2648 37.3333 30.6667 36.7352 30.6667 36C30.6667 35.2648 31.2648 34.6667 32 34.6667C32.7352 34.6667 33.3333 35.2648 33.3333 36C33.3333 36.7352 32.7352 37.3333 32 37.3333Z" fill="#0085FF"/>
<path d="M52 30.667C54.2056 30.667 56 28.8726 56 26.667C56 24.4614 54.2056 22.667 52 22.667C49.7944 22.667 48 24.4614 48 26.667C48 28.8726 49.7944 30.667 52 30.667ZM52 25.3337C52.7352 25.3337 53.3333 25.9318 53.3333 26.667C53.3333 27.4022 52.7352 28.0003 52 28.0003C51.2648 28.0003 50.6667 27.4022 50.6667 26.667C50.6667 25.9318 51.2648 25.3337 52 25.3337Z" fill="#0085FF"/>
<path d="M56 10.667C58.2056 10.667 60 8.87259 60 6.66699C60 4.46139 58.2056 2.66699 56 2.66699C53.7944 2.66699 52 4.46139 52 6.66699C52 8.87259 53.7944 10.667 56 10.667ZM56 5.33366C56.7352 5.33366 57.3333 5.93179 57.3333 6.66699C57.3333 7.40219 56.7352 8.00033 56 8.00033C55.2648 8.00033 54.6667 7.40219 54.6667 6.66699C54.6667 5.93179 55.2648 5.33366 56 5.33366Z" fill="#0085FF"/>
<path d="M9.33203 26.667C9.33203 28.8726 11.1264 30.667 13.332 30.667C15.5376 30.667 17.332 28.8726 17.332 26.667C17.332 24.4614 15.5376 22.667 13.332 22.667C11.1264 22.667 9.33203 24.4614 9.33203 26.667ZM13.332 25.3337C14.0672 25.3337 14.6654 25.9318 14.6654 26.667C14.6654 27.4022 14.0672 28.0003 13.332 28.0003C12.5968 28.0003 11.9987 27.4022 11.9987 26.667C11.9987 25.9318 12.5968 25.3337 13.332 25.3337Z" fill="#0085FF"/>
<path d="M8 10.667C10.2056 10.667 12 8.87259 12 6.66699C12 4.46139 10.2056 2.66699 8 2.66699C5.7944 2.66699 4 4.46139 4 6.66699C4 8.87259 5.7944 10.667 8 10.667ZM8 5.33366C8.7352 5.33366 9.33333 5.93179 9.33333 6.66699C9.33333 7.40219 8.7352 8.00033 8 8.00033C7.2648 8.00033 6.66667 7.40219 6.66667 6.66699C6.66667 5.93179 7.2648 5.33366 8 5.33366Z" fill="#0085FF"/>
</svg>
