<svg width="64" height="64" viewBox="0 0 64 64" fill="none" xmlns="http://www.w3.org/2000/svg">
<path d="M31.483 14.4515C32.0377 14.4515 32.5876 14.2683 33.0314 13.9354L35.9216 11.7676C36.6973 11.1859 37.1604 10.2599 37.1604 9.2902C37.1604 8.32052 36.6973 7.39445 35.9216 6.81278L33.0314 4.64504C32.5876 4.31226 32.0377 4.12891 31.483 4.12891C30.06 4.12891 28.9023 5.28658 28.9023 6.70955V11.8708C28.9023 13.2938 30.06 14.4515 31.483 14.4515ZM30.9669 6.70955C30.9669 6.42491 31.1983 6.19342 31.483 6.19342C31.594 6.19342 31.704 6.23007 31.7927 6.29665L34.683 8.46452C34.9416 8.65833 35.0959 8.9671 35.0959 9.2902C35.0959 9.61329 34.9416 9.92207 34.683 10.116L31.7927 12.2837C31.7039 12.3503 31.594 12.387 31.483 12.387C31.1983 12.387 30.9669 12.1555 30.9669 11.8708V6.70955Z" fill="#C33DAB"/>
<path d="M24.7734 57.8066H35.096V59.8712H24.7734V57.8066Z" fill="#C33DAB"/>
<path d="M38.1924 59.8712C38.7625 59.8712 39.2247 59.409 39.2247 58.8389C39.2247 58.2688 38.7625 57.8066 38.1924 57.8066C37.6223 57.8066 37.1602 58.2688 37.1602 58.8389C37.1602 59.409 37.6223 59.8712 38.1924 59.8712Z" fill="#C33DAB"/>
<path d="M42.3213 59.8712C42.8914 59.8712 43.3536 59.409 43.3536 58.8389C43.3536 58.2688 42.8914 57.8066 42.3213 57.8066C41.7512 57.8066 41.2891 58.2688 41.2891 58.8389C41.2891 59.409 41.7512 59.8712 42.3213 59.8712Z" fill="#C33DAB"/>
<path d="M21.6768 59.8712C22.2469 59.8712 22.709 59.409 22.709 58.8389C22.709 58.2688 22.2469 57.8066 21.6768 57.8066C21.1067 57.8066 20.6445 58.2688 20.6445 58.8389C20.6445 59.409 21.1067 59.8712 21.6768 59.8712Z" fill="#C33DAB"/>
<path d="M21.6768 55.7423C22.2469 55.7423 22.709 55.2801 22.709 54.71C22.709 54.1399 22.2469 53.6777 21.6768 53.6777C21.1067 53.6777 20.6445 54.1399 20.6445 54.71C20.6445 55.2801 21.1067 55.7423 21.6768 55.7423Z" fill="#C33DAB"/>
<path d="M25.8057 55.7423C26.3758 55.7423 26.838 55.2801 26.838 54.71C26.838 54.1399 26.3758 53.6777 25.8057 53.6777C25.2356 53.6777 24.7734 54.1399 24.7734 54.71C24.7734 55.2801 25.2356 55.7423 25.8057 55.7423Z" fill="#C33DAB"/>
<path d="M29.9346 55.7423C30.5047 55.7423 30.9669 55.2801 30.9669 54.71C30.9669 54.1399 30.5047 53.6777 29.9346 53.6777C29.3645 53.6777 28.9023 54.1399 28.9023 54.71C28.9023 55.2801 29.3645 55.7423 29.9346 55.7423Z" fill="#C33DAB"/>
<path d="M34.0635 55.7423C34.6336 55.7423 35.0958 55.2801 35.0958 54.71C35.0958 54.1399 34.6336 53.6777 34.0635 53.6777C33.4934 53.6777 33.0312 54.1399 33.0312 54.71C33.0312 55.2801 33.4934 55.7423 34.0635 55.7423Z" fill="#C33DAB"/>
<path d="M38.1924 55.7423C38.7625 55.7423 39.2247 55.2801 39.2247 54.71C39.2247 54.1399 38.7625 53.6777 38.1924 53.6777C37.6223 53.6777 37.1602 54.1399 37.1602 54.71C37.1602 55.2801 37.6223 55.7423 38.1924 55.7423Z" fill="#C33DAB"/>
<path d="M42.3213 55.7423C42.8914 55.7423 43.3536 55.2801 43.3536 54.71C43.3536 54.1399 42.8914 53.6777 42.3213 53.6777C41.7512 53.6777 41.2891 54.1399 41.2891 54.71C41.2891 55.2801 41.7512 55.7423 42.3213 55.7423Z" fill="#C33DAB"/>
<path d="M61.9355 33.0323H57.7857C57.7992 32.6881 57.8064 32.3434 57.8064 32C57.8064 27.6236 56.6908 23.2999 54.58 19.4961L52.7748 20.4979C54.716 23.9959 55.7419 27.9733 55.7419 32C55.7419 32.3434 55.7342 32.6883 55.7195 33.0323H49.5484C48.4101 33.0323 47.4839 33.9585 47.4839 35.0968V43.3548C47.4839 44.4932 48.4101 45.4194 49.5484 45.4194H51.5861C50.2387 47.3775 48.5899 49.1434 46.7277 50.621C46.1595 49.9648 45.3213 49.5484 44.3871 49.5484H33.0323V48.5161C33.0323 46.8086 31.643 45.4194 29.9355 45.4194H25.8065C25.2373 45.4194 24.7742 44.9563 24.7742 44.3871C24.7742 43.8179 25.2373 43.3548 25.8065 43.3548H29.9355C31.643 43.3548 33.0323 41.9655 33.0323 40.2581V39.2258H40.2581C43.104 39.2258 45.4194 36.9105 45.4194 34.0645C45.4194 31.2186 43.104 28.9032 40.2581 28.9032C39.7068 28.9032 39.1639 28.9908 38.6472 29.1608C37.5316 26.5262 34.9505 24.7742 32 24.7742C29.0495 24.7742 26.4684 26.5262 25.3528 29.1608C24.8361 28.9908 24.2932 28.9032 23.7419 28.9032C20.896 28.9032 18.5806 31.2186 18.5806 34.0645C18.5806 36.9105 20.896 39.2258 23.7419 39.2258H30.9677V40.2581C30.9677 40.8272 30.5046 41.2903 29.9355 41.2903H25.8065C24.099 41.2903 22.7097 42.6796 22.7097 44.3871C22.7097 46.0946 24.099 47.4839 25.8065 47.4839H29.9355C30.5046 47.4839 30.9677 47.947 30.9677 48.5161V49.5484H19.6129C18.6785 49.5484 17.8401 49.965 17.2717 50.6215C15.9363 49.5644 14.721 48.3712 13.6413 47.0554C14.1329 46.6777 14.4516 46.0857 14.4516 45.4194V30.9677C14.4516 29.8294 13.5254 28.9032 12.3871 28.9032H8.46142C8.76929 26.5521 9.42877 24.2566 10.4146 22.1053L12.0343 25.3449C12.4954 26.2663 13.4215 26.8387 14.4516 26.8387C15.4817 26.8387 16.4079 26.2663 16.8688 25.3448L18.5806 21.9212V12.4157C19.8933 11.5145 21.289 10.749 22.7494 10.1306C23.1757 14.8608 27.1606 18.5806 32 18.5806C36.8404 18.5806 40.8259 14.8592 41.2507 10.1276C43.2533 10.975 45.1277 12.0938 46.8382 13.4649L48.1295 11.8542C46.0241 10.1665 43.6898 8.83058 41.183 7.87639C40.4999 3.42219 36.6421 0 32 0C27.3578 0 23.5 3.42232 22.817 7.87652C21.3445 8.43729 19.927 9.13239 18.5806 9.95368V5.16129C18.5806 3.45381 17.1914 2.06452 15.4839 2.06452H13.4194C11.7119 2.06452 10.3226 3.45381 10.3226 5.16129V17.9981C8.19935 21.28 6.84594 25.025 6.37974 28.9032H2.06452C0.926194 28.9032 0 29.8294 0 30.9677V45.4194C0 46.5577 0.926194 47.4839 2.06452 47.4839H11.3529C12.824 49.4431 14.5573 51.1756 16.5161 52.6462V60.9032C16.5161 62.6107 17.9054 64 19.6129 64H44.3871C46.0946 64 47.4839 62.6107 47.4839 60.9032V52.6455C50.0943 50.6827 52.3459 48.203 54.0458 45.4194H61.9355C63.0738 45.4194 64 44.4932 64 43.3548V35.0968C64 33.9585 63.0738 33.0323 61.9355 33.0323V33.0323ZM20.6452 34.0645C20.6452 32.357 22.0345 30.9677 23.7419 30.9677C24.3359 30.9677 24.9133 31.1372 25.4119 31.4574L26.643 32.2481L26.9751 30.8232C27.5222 28.4773 29.5884 26.8387 32 26.8387C34.4116 26.8387 36.4778 28.4773 37.0248 30.8234L37.3569 32.2483L38.588 31.4575C39.0866 31.1372 39.6641 30.9679 40.2579 30.9679C41.9654 30.9679 43.3547 32.3572 43.3547 34.0646C43.3547 35.7721 41.9654 37.1614 40.2579 37.1614H23.7419C22.0345 37.1613 20.6452 35.772 20.6452 34.0645V34.0645ZM32 2.06452C35.9844 2.06452 39.2258 5.30606 39.2258 9.29032C39.2258 13.2746 35.9844 16.5161 32 16.5161C28.0156 16.5161 24.7742 13.2746 24.7742 9.29032C24.7742 5.30606 28.0156 2.06452 32 2.06452ZM12.3871 20.6452V10.3226H16.5161V20.6452H12.3871ZM14.4516 24.7742C14.2084 24.7742 13.9897 24.6391 13.8809 24.4215L13.025 22.7097H15.8782L15.0223 24.4214C14.9135 24.6391 14.6948 24.7742 14.4516 24.7742ZM13.4194 4.12903H15.4839C16.053 4.12903 16.5161 4.59213 16.5161 5.16129V8.25806H12.3871V5.16129C12.3871 4.59213 12.8502 4.12903 13.4194 4.12903ZM2.06452 30.9677H12.3871L12.3884 45.4194C12.3884 45.4194 12.388 45.4194 12.3871 45.4194H2.06452V30.9677ZM45.4194 60.9032C45.4194 61.4724 44.9563 61.9355 44.3871 61.9355H19.6129C19.0437 61.9355 18.5806 61.4724 18.5806 60.9032V52.6452C18.5806 52.076 19.0437 51.6129 19.6129 51.6129H44.3871C44.9563 51.6129 45.4194 52.076 45.4194 52.6452V60.9032ZM56.7742 38.7982C56.4984 39.0741 56.1319 39.2258 55.7419 39.2258C55.352 39.2258 54.9854 39.0739 54.7097 38.7982L51.0083 35.0968H60.4755L56.7742 38.7982ZM52.2175 39.2258L49.5484 41.895V36.5568L52.2175 39.2258ZM53.7144 40.6486C54.304 41.065 55.0054 41.2903 55.7419 41.2903C56.4784 41.2903 57.1799 41.065 57.7694 40.6486L60.4756 43.3548H51.0084L53.7144 40.6486ZM59.2663 39.2258L61.9356 36.5565L61.9364 41.896L59.2663 39.2258Z" fill="#C33DAB"/>
<path d="M4.12891 33.0322H10.3225V35.0967H4.12891V33.0322Z" fill="#C33DAB"/>
<path d="M4.12891 37.1611H10.3225V39.2256H4.12891V37.1611Z" fill="#C33DAB"/>
<path d="M4.12891 41.291H10.3225V43.3555H4.12891V41.291Z" fill="#C33DAB"/>
<path d="M45.418 21.6779C45.418 23.3854 46.8073 24.7747 48.5147 24.7747C50.2222 24.7747 51.6115 23.3854 51.6115 21.6779V14.7419L59.8696 16.8064V10.5494L49.547 7.96875V18.5811H48.5147C46.8073 18.5811 45.418 19.9704 45.418 21.6779ZM51.6115 10.6129L57.8051 12.1613V14.1623L51.6115 12.6139V10.6129ZM48.5147 20.6457H49.547V21.6779C49.547 22.2471 49.0839 22.7102 48.5147 22.7102C47.9456 22.7102 47.4825 22.2471 47.4825 21.6779C47.4825 21.1087 47.9456 20.6457 48.5147 20.6457Z" fill="#C33DAB"/>
</svg>
