<svg width="50" height="54" viewBox="0 0 50 54" fill="none" xmlns="http://www.w3.org/2000/svg">
<path d="M13.7931 34.8387H8.62069C8.39205 34.8387 8.17278 34.9305 8.01112 35.0938C7.84945 35.2571 7.75862 35.4787 7.75862 35.7097V38.6039L3.99052 40.1264C3.83041 40.191 3.69317 40.3026 3.59651 40.4469C3.49985 40.5911 3.44821 40.7613 3.44828 40.9355V46.4156C0.618103 47.4068 0 48.7036 0 49.6452C0 52.5045 5.63793 54 11.2069 54C16.7759 54 22.4138 52.5045 22.4138 49.6452C22.4138 48.7036 21.7957 47.4068 18.9655 46.4156V43.2523L32.5629 34.8283C34.8582 35.5484 37.2521 35.8958 39.6552 35.8577C44.7957 35.8577 50 34.4642 50 31.7903C50 30.9063 49.4302 29.6948 46.8388 28.7724V23.8079C46.8387 23.6339 46.787 23.4639 46.6903 23.3198C46.5937 23.1757 46.4565 23.0642 46.2966 22.9996L42.8879 21.62V19.0158C42.8879 18.7848 42.7971 18.5633 42.6354 18.4C42.4738 18.2366 42.2545 18.1449 42.0259 18.1449H37.2845C37.0558 18.1449 36.8366 18.2366 36.6749 18.4C36.5132 18.5633 36.4224 18.7848 36.4224 19.0158V21.62L33.0172 22.9979C32.8573 23.0625 32.7201 23.174 32.6235 23.318C32.5268 23.4621 32.4751 23.6321 32.475 23.8062V24.3514L18.0474 20.8379C18.0834 20.666 18.1021 20.491 18.1034 20.3153C18.1034 18.7389 16.7112 17.4011 14.4397 16.7174V14.9806L34.5362 10.5387C35.9832 11.7073 37.8055 12.2965 39.6552 12.1935C43.0948 12.1935 45.6897 10.6397 45.6897 8.57903C45.6897 7.29087 44.6302 6.156 42.8879 5.51671V0.870968C42.8879 0.639973 42.7971 0.418439 42.6354 0.255101C42.4738 0.0917624 42.2545 0 42.0259 0H37.2845C37.0558 0 36.8366 0.0917624 36.6749 0.255101C36.5132 0.418439 36.4224 0.639973 36.4224 0.870968V5.51671C34.6802 6.156 33.6207 7.29087 33.6207 8.57903C33.6208 8.70416 33.6306 8.82909 33.65 8.95268L14.4397 13.2013V10.4516C14.4397 10.2206 14.3488 9.99908 14.1872 9.83575C14.0255 9.67241 13.8062 9.58065 13.5776 9.58065H8.83621C8.60757 9.58065 8.3883 9.67241 8.22663 9.83575C8.06496 9.99908 7.97414 10.2206 7.97414 10.4516V16.7226C5.70259 17.4054 4.31034 18.7432 4.31034 20.3197C4.31034 22.6382 7.275 24.3871 11.2069 24.3871C13.8181 24.3871 15.9957 23.6137 17.169 22.4161L32.4715 26.1438V28.7724C29.8802 29.6948 29.3103 30.9063 29.3103 31.7903C29.3438 32.238 29.4894 32.6698 29.7334 33.045C29.9774 33.4203 30.3118 33.7267 30.7052 33.9355L18.9655 41.209V40.9355C18.9656 40.7613 18.9139 40.5911 18.8173 40.4469C18.7206 40.3026 18.5834 40.191 18.4233 40.1264L14.6552 38.6039V35.7097C14.6552 35.4787 14.5643 35.2571 14.4027 35.0938C14.241 34.9305 14.0217 34.8387 13.7931 34.8387ZM38.1465 1.74194H41.1638V7.42065H38.1465V1.74194ZM36.4224 7.41194V8.29161C36.4224 8.52261 36.5132 8.74414 36.6749 8.90748C36.8366 9.07082 37.0558 9.16258 37.2845 9.16258H42.0259C42.2545 9.16258 42.4738 9.07082 42.6354 8.90748C42.7971 8.74414 42.8879 8.52261 42.8879 8.29161V7.41194C43.5931 7.78297 43.9655 8.23152 43.9655 8.57903C43.9655 9.34287 42.2862 10.4516 39.6552 10.4516C37.0241 10.4516 35.3448 9.34287 35.3448 8.57903C35.3448 8.23152 35.7172 7.78297 36.4224 7.41194ZM9.69828 11.3226H12.7155V19.4513H9.69828V11.3226ZM11.2069 22.6452C8.24655 22.6452 6.03448 21.4171 6.03448 20.3197C6.03448 19.6813 6.81034 19.0132 7.97414 18.5577V20.3223C7.97414 20.5533 8.06496 20.7748 8.22663 20.9382C8.3883 21.1015 8.60757 21.1933 8.83621 21.1933H13.5776C13.8062 21.1933 14.0255 21.1015 14.1872 20.9382C14.3488 20.7748 14.4397 20.5533 14.4397 20.3223V18.5577C15.6034 19.0089 16.3793 19.6839 16.3793 20.3197C16.3793 21.4171 14.1672 22.6452 11.2069 22.6452ZM42.8879 23.4961L45.1147 24.3958V30.9194H42.8879V23.4961ZM38.1465 19.8868H41.1638V30.9194H38.1465V19.8868ZM34.1957 24.3958L36.4224 23.4961V30.9194H34.1957V24.3958ZM32.4715 30.645V31.7903C32.4715 32.0213 32.5624 32.2429 32.724 32.4062C32.8857 32.5695 33.105 32.6613 33.3336 32.6613H45.9767C46.2054 32.6613 46.4246 32.5695 46.5863 32.4062C46.748 32.2429 46.8388 32.0213 46.8388 31.7903V30.645C47.8638 31.0988 48.2759 31.5578 48.2759 31.7903C48.2759 32.6099 45 34.1158 39.6552 34.1158C34.3103 34.1158 31.0345 32.6099 31.0345 31.7903C31.0345 31.5578 31.4466 31.0988 32.4715 30.645ZM9.48276 36.5806H12.931V48.7742H9.48276V36.5806ZM5.17241 41.5251L7.75862 40.48V48.7742H5.17241V41.5251ZM18.9655 49.6452V48.2838C20.2879 48.8404 20.6897 49.3917 20.6897 49.6452C20.6897 50.5318 17.3422 52.2581 11.2069 52.2581C5.07155 52.2581 1.72414 50.5318 1.72414 49.6452C1.72414 49.3917 2.12586 48.8404 3.44828 48.2838V49.6452C3.44828 49.8762 3.5391 50.0977 3.70077 50.261C3.86244 50.4244 4.08171 50.5161 4.31034 50.5161H18.1034C18.3321 50.5161 18.5514 50.4244 18.713 50.261C18.8747 50.0977 18.9655 49.8762 18.9655 49.6452ZM17.2414 41.5251V48.7742H14.6552V40.48L17.2414 41.5251Z" fill="#FF00D8"/>
</svg>
