<svg width="74" height="54" viewBox="0 0 74 54" fill="none" xmlns="http://www.w3.org/2000/svg">
<path d="M65.2875 24.3078C62.7695 23.0565 58.0484 23.042 57.8486 23.042C57.25 23.042 56.7646 23.5244 56.7646 24.1195C56.7646 24.7146 57.25 25.197 57.8486 25.197C59.0669 25.1972 62.604 25.3836 64.318 26.2354C64.4737 26.3129 64.639 26.3494 64.8019 26.3494C65.1995 26.3494 65.5824 26.131 65.7723 25.7536C66.0401 25.2213 65.823 24.5741 65.2875 24.3078Z" fill="#64DF00"/>
<path d="M70.692 39.6487L66.2151 38.3773C66.0219 38.3224 65.8869 38.1445 65.8869 37.9447V36.4593C66.2511 36.2085 66.5986 35.9277 66.9233 35.6144C68.4973 34.0961 69.364 32.0596 69.364 29.8799V27.8302L69.7969 26.9698C70.272 26.0251 70.523 24.9676 70.523 23.9116V18.3589C70.523 17.7638 70.0377 17.2814 69.439 17.2814H59.0078C55.2147 17.2814 52.1287 20.349 52.1287 24.1194V24.1836C52.1287 25.0617 52.3375 25.9411 52.7325 26.7264L53.2877 27.83V29.59C53.2877 32.3791 54.6704 34.8817 56.7648 36.3876L56.7651 37.9444C56.7651 38.1845 56.7651 38.2839 55.87 38.5382L53.6856 39.1585L47.3665 36.8745C47.3892 36.5781 47.2886 36.2767 47.0711 36.0496L45.0518 33.9408V30.4008C45.2653 30.226 45.4757 30.0464 45.6797 29.8565C48.227 27.4831 49.688 24.1322 49.688 20.663V17.8359C50.4572 16.1721 50.847 14.4115 50.847 12.5982V1.07751C50.847 0.482437 50.3616 0 49.763 0H33.5366C27.8262 0 23.1805 4.61806 23.1805 10.2942V12.5985C23.1805 14.4118 23.5703 16.1724 24.3395 17.8362V20.2687C24.3395 24.2965 26.1412 27.9253 28.9756 30.3176V33.941L26.9564 36.0497C26.7389 36.2768 26.6383 36.5783 26.661 36.8746L19.9916 39.2852C19.5083 39.4599 19.0592 39.6966 18.6515 39.9832L17.6042 39.4627C20.7217 38.1138 21.7093 36.2166 21.7567 36.1224C21.9093 35.8191 21.9093 35.462 21.7567 35.1587C20.9752 33.6051 20.8806 30.7574 20.8046 28.4694C20.7793 27.7076 20.7553 26.988 20.7094 26.3472C20.3399 21.1789 16.3872 17.2814 11.5151 17.2814C6.64294 17.2814 2.69016 21.1788 2.32074 26.3472C2.27492 26.9881 2.25093 27.7078 2.22564 28.4696C2.14961 30.7576 2.0548 33.6049 1.27346 35.1585C1.12084 35.4618 1.12084 35.819 1.27346 36.1223C1.32087 36.2165 2.30643 38.1098 5.43018 39.4602L2.5212 40.906C0.966047 41.6795 0 43.2332 0 44.9614V52.9219C0 53.517 0.485336 53.9994 1.08398 53.9994C1.68263 53.9994 2.16797 53.517 2.16797 52.9219V44.9614C2.16797 44.0546 2.67484 43.2393 3.49072 42.8337L7.11311 41.0334L8.37313 42.2237C9.25419 43.056 10.3844 43.4719 11.5151 43.4719C12.6455 43.4719 13.7763 43.0557 14.6571 42.2237L15.9169 41.0335L17.098 41.6206C16.5419 42.5051 16.2262 43.5424 16.2262 44.629V52.9222C16.2262 53.5173 16.7116 53.9997 17.3102 53.9997C17.9089 53.9997 18.3942 53.5173 18.3942 52.9222V44.629C18.3942 43.1498 19.3338 41.8162 20.7324 41.3107L27.7642 38.7691L30.6914 43.1338C31.0655 43.6918 31.6652 44.0497 32.3366 44.1158C32.4114 44.1231 32.4859 44.1267 32.5601 44.1267C33.1524 44.1267 33.7197 43.895 34.1438 43.4736L35.9296 41.6984V52.9223C35.9296 53.5174 36.4149 53.9999 37.0136 53.9999C37.6122 53.9999 38.0976 53.5174 38.0976 52.9223V41.6984L39.8834 43.4736C40.3073 43.8951 40.8746 44.1269 41.467 44.1269C41.5412 44.1269 41.6157 44.1233 41.6905 44.1159C42.362 44.0499 42.9616 43.692 43.3358 43.134L46.2632 38.7693L53.2947 41.311C54.6932 41.8165 55.633 43.1501 55.633 44.6293V52.9225C55.633 53.5176 56.1183 54 56.717 54C57.3156 54 57.8009 53.5176 57.8009 52.9225V44.6293C57.8009 43.1311 57.2021 41.726 56.1977 40.6869L56.4655 40.6109C56.7356 40.5342 57.1042 40.4291 57.4742 40.2488L60.2418 42.9999V52.9225C60.2418 53.5176 60.7271 54 61.3258 54C61.9244 54 62.4098 53.5176 62.4098 52.9225V42.9999L65.1582 40.2679C65.3043 40.3418 65.4578 40.4041 65.6194 40.45L70.0964 41.7214C71.1182 42.0116 71.832 42.9522 71.832 44.0088V52.9225C71.832 53.5176 72.3174 54 72.916 54C73.5147 54 74 53.5176 74 52.9225V44.0088C74 41.9948 72.6397 40.202 70.692 39.6487ZM6.95412 37.7456C4.92649 37.0203 3.90943 36.0534 3.47525 35.5255C3.77125 34.7563 3.96319 33.8753 4.09312 32.9453C4.69091 34.3701 5.69207 35.5864 6.95412 36.4541V37.7456ZM13.1639 40.6617C12.2393 41.5349 10.791 41.5348 9.86671 40.6616L8.85861 39.7094C9.02872 39.3926 9.12223 39.0334 9.12223 38.6571V37.5087C9.87842 37.7435 10.6823 37.8703 11.5154 37.8703C12.3474 37.8703 13.1509 37.743 13.9084 37.5094L13.9082 38.657C13.9082 39.0334 14.0016 39.3927 14.1719 39.7096L13.1639 40.6617ZM11.5157 35.7152C8.27875 35.7152 5.64554 33.0976 5.64554 29.8802C5.64554 29.2851 5.1602 28.8027 4.56155 28.8027C4.50085 28.8027 4.44159 28.8088 4.38363 28.8185C4.38681 28.7258 4.38985 28.633 4.39303 28.5412C4.41716 27.8003 4.44043 27.1005 4.48336 26.5002C4.62182 24.5642 5.40012 22.7801 6.67489 21.4765C7.96107 20.1611 9.68013 19.4367 11.5154 19.4367C13.3506 19.4367 15.0696 20.1611 16.3559 21.4765C17.6306 22.7801 18.4089 24.5642 18.5474 26.5002C18.5902 27.1003 18.6136 27.8 18.6382 28.5408C18.6403 28.6044 18.6425 28.6689 18.6447 28.733C17.4653 26.9268 15.6439 25.5957 13.2905 24.844C11.1163 24.1497 9.24639 24.1927 9.16747 24.1947C8.88361 24.2026 8.61421 24.3207 8.41721 24.5238L6.46141 26.54C6.04589 26.9685 6.05832 27.6506 6.48931 28.0636C6.9203 28.4767 7.60654 28.4642 8.02206 28.0359L9.64948 26.3583C11.051 26.4264 15.5599 26.9476 17.3135 30.786C16.8723 33.6145 14.4265 35.7152 11.5157 35.7152ZM16.0761 37.7492L16.0762 36.464C17.3372 35.601 18.3399 34.387 18.9381 32.9515C19.068 33.8793 19.2598 34.7583 19.5552 35.5257C19.1235 36.0487 18.1017 37.0242 16.0761 37.7492ZM26.5075 20.2685V17.5951C26.5075 17.4329 26.4706 17.2728 26.3996 17.1266C25.7021 15.6908 25.3485 14.1674 25.3485 12.5985V10.2944C25.3485 5.80634 29.0217 2.15516 33.5366 2.15516H48.679V12.5987C48.679 14.1675 48.3253 15.691 47.6278 17.1268C47.5569 17.2729 47.52 17.4331 47.52 17.5953V20.6633C47.52 23.5814 46.3399 26.2879 44.1971 28.2845C43.9296 28.5336 43.6519 28.7672 43.3649 28.9848C43.3585 28.9892 43.3524 28.9939 43.3462 28.9983C41.3388 30.5133 38.8801 31.2496 36.3123 31.0843C30.8142 30.7304 26.5075 25.9796 26.5075 20.2685ZM32.6109 41.9496C32.6034 41.957 32.5859 41.9747 32.5505 41.971C32.5152 41.9675 32.5013 41.947 32.4954 41.9381L29.1242 36.9114L30.2091 35.7783L35.3233 39.2532L32.6109 41.9496ZM37.0137 37.7914L31.1436 33.8029V31.7915C32.6625 32.6077 34.3632 33.1182 36.172 33.2345C36.4577 33.2529 36.7417 33.262 37.0249 33.262C39.0976 33.262 41.0924 32.7695 42.8839 31.8346V33.8029L37.0137 37.7914ZM41.5321 41.9384C41.5261 41.9473 41.5123 41.9678 41.477 41.9713C41.4416 41.9757 41.4242 41.9572 41.4166 41.9499L38.7042 39.2536L43.8184 35.7786L44.9034 36.9117L41.5321 41.9384ZM61.3258 41.0292L58.8658 38.5842C58.9088 38.3903 58.9331 38.1781 58.9329 37.9441L58.9328 37.4894C59.6154 37.7121 60.3349 37.8443 61.0793 37.8664C61.1629 37.869 61.2457 37.8701 61.3289 37.8701C62.1516 37.8701 62.9546 37.7466 63.7189 37.5108V37.9447C63.7189 38.1596 63.7461 38.3702 63.7972 38.5727L61.3258 41.0292ZM65.4135 34.068C64.2647 35.1762 62.7469 35.7615 61.1445 35.7124C58.0076 35.6188 55.4556 32.8723 55.4556 29.5903V27.5759C55.4556 27.4085 55.4165 27.2436 55.3412 27.094L54.6715 25.7628C54.4263 25.275 54.2966 24.7291 54.2966 24.1837V24.1195C54.2966 21.5372 56.4101 19.4365 59.0078 19.4365H68.355V23.9118C68.355 24.635 68.1831 25.3592 67.8577 26.0062L67.3105 27.094C67.2352 27.2437 67.196 27.4085 67.196 27.5759V29.88C67.196 31.4719 66.563 32.9591 65.4135 34.068Z" fill="#64DF00"/>
<path d="M68.2803 44.9326C67.6816 44.9326 67.1963 45.4151 67.1963 46.0101V52.9227C67.1963 53.5178 67.6816 54.0002 68.2803 54.0002C68.8789 54.0002 69.3643 53.5178 69.3643 52.9227V46.0101C69.3643 45.4152 68.8789 44.9326 68.2803 44.9326Z" fill="#64DF00"/>
<path d="M5.71973 46.3555C5.12108 46.3555 4.63574 46.8379 4.63574 47.433V52.9212C4.63574 53.5163 5.12108 53.9987 5.71973 53.9987C6.31838 53.9987 6.80371 53.5163 6.80371 52.9212V47.433C6.80371 46.838 6.31838 46.3555 5.71973 46.3555Z" fill="#64DF00"/>
<path d="M45.8932 12.9889C41.7934 8.91361 33.2157 9.69272 29.7177 10.2168C28.616 10.3819 27.8164 11.3087 27.8164 12.4205V14.9028C27.8164 15.4979 28.3017 15.9803 28.9004 15.9803C29.499 15.9803 29.9844 15.4979 29.9844 14.9028V12.4204C29.9844 12.3838 30.0087 12.3524 30.041 12.3476C31.4382 12.1382 34.2108 11.8153 37.0833 12.0056C40.4636 12.2293 42.912 13.0728 44.3603 14.5126C44.7837 14.9334 45.47 14.9334 45.8932 14.5126C46.3166 14.0918 46.3166 13.4096 45.8932 12.9889Z" fill="#64DF00"/>
<path d="M24.2637 47.2354C23.665 47.2354 23.1797 47.7178 23.1797 48.3129V52.9213C23.1797 53.5164 23.665 53.9988 24.2637 53.9988C24.8623 53.9988 25.3477 53.5164 25.3477 52.9213V48.3129C25.3477 47.7179 24.8623 47.2354 24.2637 47.2354Z" fill="#64DF00"/>
<path d="M49.7627 47.2354C49.164 47.2354 48.6787 47.7178 48.6787 48.3129V52.9213C48.6787 53.5164 49.164 53.9988 49.7627 53.9988C50.3613 53.9988 50.8467 53.5164 50.8467 52.9213V48.3129C50.8467 47.7179 50.3613 47.2354 49.7627 47.2354Z" fill="#64DF00"/>
</svg>
