<svg width="53" height="54" viewBox="0 0 53 54" fill="none" xmlns="http://www.w3.org/2000/svg">
<path d="M51.2331 22.5071L34.4498 5.60442L27.3832 12.7214L14.7512 0L13.5146 1.24538L27.3832 15.2125L34.4498 8.09561L49.9966 23.753H46.8165V25.5322H52.9998V19.3049H51.2331V22.5071Z" fill="#FFC400"/>
<path d="M7.95 3.29199C3.53333 3.29199 0 6.85046 0 11.2985C0 13.3445 0.794913 15.3018 2.20833 16.8139C0.794913 17.4368 0 18.3264 0 19.3051V50.4417C0 52.7544 3.975 54.0002 7.95 54.0002C11.925 54.0002 15.9 52.7544 15.9 50.4417V19.3051C15.9 18.3264 15.1051 17.4368 13.6917 16.8139C16.6949 13.6112 16.6065 8.54065 13.4264 5.51604C11.925 4.09256 9.98149 3.29199 7.95 3.29199ZM7.95 5.07123C11.3949 5.07123 14.1333 7.82869 14.1333 11.2985C14.1333 14.768 11.3949 17.5259 7.95 17.5259C4.50508 17.5259 1.76667 14.768 1.76667 11.2985C1.76667 7.82869 4.50508 5.07123 7.95 5.07123ZM7.95 52.2209C3.975 52.2209 1.76667 50.9751 1.76667 50.4417V48.3063C3.70974 49.1959 5.83008 49.6407 7.95 49.5521C10.0699 49.6407 12.1898 49.1959 14.1333 48.3063V50.4417C14.1333 50.9751 11.925 52.2209 7.95 52.2209ZM7.95 47.7729C3.975 47.7729 1.76667 46.5271 1.76667 45.9936V43.8582C3.70974 44.7478 5.83008 45.1926 7.95 45.104C10.0699 45.1926 12.1898 44.7478 14.1333 43.8582V45.9936C14.1333 46.5271 11.925 47.7729 7.95 47.7729ZM7.95 43.3248C3.975 43.3248 1.76667 42.079 1.76667 41.5455V39.4101C3.70974 40.2997 5.83008 40.7445 7.95 40.6559C10.0699 40.7445 12.1898 40.2997 14.1333 39.4101V41.5455C14.1333 42.079 11.925 43.3248 7.95 43.3248ZM7.95 38.8767C3.975 38.8767 1.76667 37.6309 1.76667 37.0975V34.962C3.70974 35.8516 5.83008 36.2965 7.95 36.2078C10.0699 36.2965 12.1898 35.8516 14.1333 34.962V37.0975C14.1333 37.6309 11.925 38.8767 7.95 38.8767ZM7.95 34.4286C3.975 34.4286 1.76667 33.1828 1.76667 32.6494V30.5139C3.70974 31.4036 5.83008 31.8484 7.95 31.7597C10.0699 31.8484 12.1898 31.4036 14.1333 30.5139V32.6494C14.1333 33.1828 11.925 34.4286 7.95 34.4286ZM7.95 29.9805C3.975 29.9805 1.76667 28.7347 1.76667 28.2013V26.0658C3.70974 26.9555 5.83008 27.4003 7.95 27.3117C10.0699 27.4003 12.1898 26.9555 14.1333 26.0658V28.2013C14.1333 28.7347 11.925 29.9805 7.95 29.9805ZM7.95 25.5324C3.975 25.5324 1.76667 24.2866 1.76667 23.7532V21.6178C3.70974 22.5074 5.83008 22.9522 7.95 22.8636C10.0699 22.9522 12.1898 22.5074 14.1333 21.6178V23.7532C14.1333 24.2866 11.925 25.5324 7.95 25.5324ZM14.1333 19.3051C14.1333 19.8385 11.925 21.0843 7.95 21.0843C3.975 21.0843 1.76667 19.8385 1.76667 19.3051C1.76667 19.127 2.29675 18.5041 3.70974 18.0593C6.27175 19.6609 9.53982 19.6609 12.1014 18.0593C13.6032 18.5041 14.1333 19.127 14.1333 19.3051Z" fill="#FFC400"/>
<path d="M26.4998 24.6426C22.5248 24.6426 18.5498 25.888 18.5498 28.201V50.4415C18.5498 52.7541 22.5248 54 26.4998 54C30.4748 54 34.4498 52.7541 34.4498 50.4415V28.201C34.4498 25.888 30.4748 24.6426 26.4998 24.6426ZM26.4998 52.2207C22.5248 52.2207 20.3165 50.9749 20.3165 50.4415V48.3061C22.2595 49.1957 24.3799 49.6405 26.4998 49.5519C28.6197 49.6405 30.7396 49.1957 32.6831 48.3061V50.4415C32.6831 50.9749 30.4748 52.2207 26.4998 52.2207ZM26.4998 47.7726C22.5248 47.7726 20.3165 46.5268 20.3165 45.9934V43.858C22.2595 44.7476 24.3799 45.1924 26.4998 45.1038C28.6197 45.1924 30.7396 44.7476 32.6831 43.858V45.9934C32.6831 46.5268 30.4748 47.7726 26.4998 47.7726ZM26.4998 43.3245C22.5248 43.3245 20.3165 42.0787 20.3165 41.5453V39.4099C22.2595 40.2995 24.3799 40.7443 26.4998 40.6557C28.6197 40.7443 30.7396 40.2995 32.6831 39.4099V41.5453C32.6831 42.0787 30.4748 43.3245 26.4998 43.3245ZM26.4998 38.8765C22.5248 38.8765 20.3165 37.6306 20.3165 37.0972V34.9618C22.2595 35.8514 24.3799 36.2962 26.4998 36.2076C28.6197 36.2962 30.7396 35.8514 32.6831 34.9618V37.0972C32.6831 37.6306 30.4748 38.8765 26.4998 38.8765ZM26.4998 34.4284C22.5248 34.4284 20.3165 33.1826 20.3165 32.6491V30.5137C22.2595 31.4033 24.3799 31.8481 26.4998 31.7595C28.6197 31.8481 30.7396 31.4033 32.6831 30.5137V32.6491C32.6831 33.1826 30.4748 34.4284 26.4998 34.4284ZM26.4998 29.9803C22.5248 29.9803 20.3165 28.7345 20.3165 28.201C20.3165 27.6672 22.5248 26.4218 26.4998 26.4218C30.4748 26.4218 32.6831 27.6672 32.6831 28.201C32.6831 28.7345 30.4748 29.9803 26.4998 29.9803Z" fill="#FFC400"/>
<path d="M45.0496 29.0908C41.0746 29.0908 37.0996 30.3362 37.0996 32.6493V50.4416C37.0996 52.7543 41.0746 54.0001 45.0496 54.0001C49.0246 54.0001 52.9996 52.7543 52.9996 50.4416V32.6493C52.9996 30.3362 49.0246 29.0908 45.0496 29.0908ZM45.0496 52.2209C41.0746 52.2209 38.8663 50.9751 38.8663 50.4416V48.3062C40.8093 49.1958 42.9297 49.6406 45.0496 49.552C47.1695 49.6406 49.2894 49.1958 51.2329 48.3062V50.4416C51.2329 50.9751 49.0246 52.2209 45.0496 52.2209ZM45.0496 47.7728C41.0746 47.7728 38.8663 46.527 38.8663 45.9936V43.8581C40.8093 44.7477 42.9297 45.1925 45.0496 45.1039C47.1695 45.1925 49.2894 44.7477 51.2329 43.8581V45.9936C51.2329 46.527 49.0246 47.7728 45.0496 47.7728ZM45.0496 43.3247C41.0746 43.3247 38.8663 42.0789 38.8663 41.5455V39.41C40.8093 40.2997 42.9297 40.7445 45.0496 40.6558C47.1695 40.7445 49.2894 40.2997 51.2329 39.41V41.5455C51.2329 42.0789 49.0246 43.3247 45.0496 43.3247ZM45.0496 38.8766C41.0746 38.8766 38.8663 37.6308 38.8663 37.0974V34.9619C40.8093 35.8516 42.9297 36.2964 45.0496 36.2078C47.1695 36.2964 49.2894 35.8516 51.2329 34.9619V37.0974C51.2329 37.6308 49.0246 38.8766 45.0496 38.8766ZM45.0496 34.4285C41.0746 34.4285 38.8663 33.1827 38.8663 32.6493C38.8663 32.1154 41.0746 30.8701 45.0496 30.8701C49.0246 30.8701 51.2329 32.1154 51.2329 32.6493C51.2329 33.1827 49.0246 34.4285 45.0496 34.4285Z" fill="#FFC400"/>
<path d="M44.7848 23.1304L34.45 12.7217L27.3833 19.8386L22.7014 15.1238L21.4648 16.3692L27.3833 22.3298L34.45 15.2129L43.5482 24.3758L44.7848 23.1304Z" fill="#FFC400"/>
<path d="M17.0547 11.9406L18.3038 10.6826L20.927 13.3245L19.6779 14.5825L17.0547 11.9406Z" fill="#FFC400"/>
</svg>
