<svg width="54" height="54" viewBox="0 0 54 54" fill="none" xmlns="http://www.w3.org/2000/svg">
<path d="M51.3 0H15.3C14.5839 0 13.8972 0.284463 13.3908 0.790812C12.8845 1.29716 12.6 1.98392 12.6 2.7V4.3326C11.8571 4.76828 11.2284 5.37443 10.766 6.10102C10.3036 6.82761 10.0206 7.65377 9.9405 8.5113C7.58103 9.71987 5.70416 11.6968 4.61967 14.1158C3.53517 16.5348 3.30788 19.2513 3.9753 21.8169C3.73049 22.3088 3.60208 22.8505 3.6 23.4C3.59762 24.2004 3.86631 24.978 4.3623 25.6062C4.8583 26.2345 5.55238 26.6762 6.3315 26.8596C6.45953 28.3005 6.93237 29.6895 7.7101 30.9093C8.48783 32.1291 9.54762 33.1438 10.8 33.8679V36.0459C7.86412 36.2743 5.12211 37.6006 3.12051 39.7605C1.11891 41.9204 0.00471115 44.7552 0 47.7L0 50.4C0 51.3548 0.379285 52.2705 1.05442 52.9456C1.72955 53.6207 2.64522 54 3.6 54H27C27.9548 54 28.8705 53.6207 29.5456 52.9456C30.2207 52.2705 30.6 51.3548 30.6 50.4V47.7C30.6004 45.8187 30.1435 43.9656 29.2689 42.3H42.3C42.7774 42.3 43.2352 42.1104 43.5728 41.7728C43.9104 41.4352 44.1 40.9774 44.1 40.5C44.0965 39.5787 43.74 38.6938 43.1038 38.0275C42.4676 37.3611 41.6001 36.9641 40.68 36.918C40.0108 36.7656 39.3969 36.431 38.906 35.9513C38.4152 35.4716 38.0667 34.8655 37.899 34.2H51.3C52.0161 34.2 52.7028 33.9155 53.2092 33.4092C53.7155 32.9028 54 32.2161 54 31.5V2.7C54 1.98392 53.7155 1.29716 53.2092 0.790812C52.7028 0.284463 52.0161 0 51.3 0V0ZM15.3 1.8H51.3C51.5387 1.8 51.7676 1.89482 51.9364 2.0636C52.1052 2.23239 52.2 2.46131 52.2 2.7V27.9H24.1515C24.2253 27.5648 24.2794 27.2255 24.3135 26.8839C24.8301 26.7502 25.3104 26.5028 25.7193 26.1597C26.1281 25.8167 26.4552 25.3868 26.6767 24.9012C26.8981 24.4157 27.0084 23.8868 26.9994 23.3532C26.9904 22.8196 26.8624 22.2947 26.6247 21.8169C27.2912 19.2543 27.0652 16.5411 25.9839 14.1241C24.9026 11.7071 23.0304 9.73036 20.6757 8.5194C20.5545 7.17674 19.9359 5.92783 18.9414 5.01771C17.9469 4.10758 16.6481 3.60195 15.3 3.6C14.9983 3.60212 14.6973 3.62921 14.4 3.681V2.7C14.4 2.46131 14.4948 2.23239 14.6636 2.0636C14.8324 1.89482 15.0613 1.8 15.3 1.8ZM13.8528 5.697C14.3101 5.501 14.8025 5.39996 15.3 5.4C16.0236 5.40166 16.7299 5.62135 17.3269 6.03041C17.9238 6.43948 18.3835 7.01894 18.6462 7.6932C16.4648 7.03562 14.1379 7.03562 11.9565 7.6932C12.3013 6.80421 12.9827 6.08697 13.8528 5.697ZM15.3 9C17.9247 9.0031 20.441 10.0471 22.2969 11.9031C24.1529 13.759 25.1969 16.2753 25.2 18.9C25.1982 19.3465 25.1666 19.7924 25.1055 20.2347C24.8264 20.0777 24.5285 19.9567 24.219 19.8747C23.7438 17.6058 21.4155 17.0847 19.5444 16.6716C17.6733 16.2585 16.5204 15.9318 16.2621 14.9382C16.1633 14.5164 15.9176 14.1436 15.569 13.8866C15.2204 13.6295 14.7916 13.5049 14.3595 13.5351C9.963 13.8555 6.7419 16.425 6.3063 19.9125C6.02367 19.9882 5.75157 20.0989 5.4963 20.2419C5.30003 18.8411 5.40706 17.4146 5.81014 16.0588C6.21322 14.703 6.90294 13.4496 7.83259 12.3836C8.76223 11.3176 9.9101 10.4638 11.1985 9.88C12.4868 9.29622 13.8856 8.99612 15.3 9ZM8.1252 26.7102C8.08813 26.3368 7.93462 25.9846 7.68639 25.7032C7.43815 25.4219 7.10774 25.2257 6.7419 25.1424C6.35537 25.042 6.01321 24.8158 5.7693 24.4996C5.52539 24.1833 5.39358 23.795 5.39461 23.3956C5.39564 22.9962 5.52946 22.6086 5.775 22.2936C6.02054 21.9786 6.36385 21.7542 6.7509 21.6558C7.10894 21.5732 7.43314 21.3831 7.67994 21.1108C7.92673 20.8386 8.08431 20.4974 8.1315 20.133C8.4339 17.4744 10.9305 15.588 14.4855 15.327C14.5031 15.3436 14.5151 15.3653 14.5197 15.3891C15.0732 17.5212 17.2413 17.9991 19.1538 18.4284C21.0663 18.8577 22.2354 19.1853 22.4568 20.2419C22.5269 20.5832 22.6933 20.8973 22.9364 21.147C23.1795 21.3966 23.489 21.5713 23.8284 21.6504C24.2185 21.7445 24.566 21.9662 24.8156 22.2804C25.0653 22.5946 25.2028 22.9832 25.2063 23.3845C25.2098 23.7857 25.0792 24.1767 24.8351 24.4952C24.5909 24.8137 24.2474 25.0415 23.859 25.1424C23.493 25.2255 23.1624 25.4216 22.914 25.703C22.6656 25.9844 22.5119 26.3367 22.4748 26.7102C22.3239 28.5092 21.5026 30.186 20.1737 31.408C18.8449 32.6301 17.1054 33.3083 15.3 33.3083C13.4946 33.3083 11.7551 32.6301 10.4263 31.408C9.09739 30.186 8.27612 28.5092 8.1252 26.7102ZM25.9371 36.9144C25.3819 36.9362 24.8394 37.0875 24.3531 37.3563C22.9415 36.6114 21.3916 36.1653 19.8 36.0459V34.2H28.6992C28.5271 34.8598 28.1794 35.4607 27.693 35.9386C27.2066 36.4166 26.5998 36.7538 25.9371 36.9144ZM15.3 35.1C16.2167 35.098 17.1275 34.9538 18 34.6725V36.9C18 37.6161 17.7155 38.3028 17.2092 38.8092C16.7028 39.3155 16.0161 39.6 15.3 39.6C14.5839 39.6 13.8972 39.3155 13.3908 38.8092C12.8845 38.3028 12.6 37.6161 12.6 36.9V34.6725C13.4725 34.9539 14.3833 35.0981 15.3 35.1ZM28.8 50.4C28.8 50.8774 28.6104 51.3352 28.2728 51.6728C27.9352 52.0104 27.4774 52.2 27 52.2H3.6C3.12261 52.2 2.66477 52.0104 2.32721 51.6728C1.98964 51.3352 1.8 50.8774 1.8 50.4V47.7C1.80376 45.2143 2.74176 42.8209 4.4279 40.9945C6.11405 39.1682 8.42512 38.0424 10.9026 37.8405C11.1208 38.8446 11.676 39.7438 12.476 40.3886C13.2759 41.0334 14.2725 41.3851 15.3 41.3851C16.3275 41.3851 17.3241 41.0334 18.124 40.3886C18.924 39.7438 19.4792 38.8446 19.6974 37.8405C22.1749 38.0424 24.486 39.1682 26.1721 40.9945C27.8582 42.8209 28.7962 45.2143 28.8 47.7V50.4ZM42.3 40.5H28.1034C27.591 39.8403 27.0099 39.2369 26.37 38.7H40.5C40.9774 38.7 41.4352 38.8896 41.7728 39.2272C42.1104 39.5648 42.3 40.0226 42.3 40.5ZM37.3104 36.9H29.2896C29.9585 36.1411 30.3893 35.2021 30.528 34.2H36.072C36.2107 35.2021 36.6415 36.1411 37.3104 36.9ZM51.3 32.4H21.7017C22.4786 31.6191 23.1082 30.7045 23.5602 29.7H52.2V31.5C52.2 31.7387 52.1052 31.9676 51.9364 32.1364C51.7676 32.3052 51.5387 32.4 51.3 32.4Z" fill="#FF7500"/>
<path d="M44.9996 14.3999C46.0676 14.3999 47.1117 14.0832 47.9997 13.4898C48.8877 12.8964 49.5798 12.0531 49.9886 11.0663C50.3973 10.0796 50.5042 8.99387 50.2959 7.94637C50.0875 6.89887 49.5732 5.93668 48.818 5.18148C48.0628 4.42628 47.1006 3.91198 46.0531 3.70362C45.0056 3.49526 43.9198 3.60219 42.9331 4.01091C41.9464 4.41962 41.103 5.11175 40.5097 5.99978C39.9163 6.8878 39.5996 7.93184 39.5996 8.99986C39.601 10.4316 40.1704 11.8043 41.1828 12.8167C42.1952 13.829 43.5679 14.3984 44.9996 14.3999ZM44.9996 12.5999C44.359 12.5967 43.7311 12.4204 43.1825 12.0896L45.3722 9.89986H48.4718C48.2729 10.6704 47.8242 11.3533 47.196 11.8418C46.5678 12.3303 45.7954 12.5969 44.9996 12.5999ZM48.4718 8.09986H45.8996V5.52766C46.5185 5.68861 47.0832 6.01188 47.5354 6.46406C47.9876 6.91625 48.3109 7.48096 48.4718 8.09986ZM44.0996 5.52766V8.62726L41.9099 10.817C41.5791 10.2684 41.4027 9.64049 41.3996 8.99986C41.4026 8.20406 41.6692 7.43169 42.1577 6.80347C42.6462 6.17525 43.3291 5.7266 44.0996 5.52766Z" fill="#FF7500"/>
<path d="M31.4996 20.7C31.2609 20.7 31.032 20.7948 30.8632 20.9636C30.6944 21.1323 30.5996 21.3613 30.5996 21.6V25.2C30.5996 25.4386 30.6944 25.6676 30.8632 25.8363C31.032 26.0051 31.2609 26.1 31.4996 26.1C31.7383 26.1 31.9672 26.0051 32.136 25.8363C32.3048 25.6676 32.3996 25.4386 32.3996 25.2V21.6C32.3996 21.3613 32.3048 21.1323 32.136 20.9636C31.9672 20.7948 31.7383 20.7 31.4996 20.7Z" fill="#FF7500"/>
<path d="M35.1002 18C34.8615 18 34.6326 18.0948 34.4638 18.2636C34.295 18.4324 34.2002 18.6613 34.2002 18.9V25.2C34.2002 25.4387 34.295 25.6676 34.4638 25.8364C34.6326 26.0052 34.8615 26.1 35.1002 26.1C35.3389 26.1 35.5678 26.0052 35.7366 25.8364C35.9054 25.6676 36.0002 25.4387 36.0002 25.2V18.9C36.0002 18.6613 35.9054 18.4324 35.7366 18.2636C35.5678 18.0948 35.3389 18 35.1002 18Z" fill="#FF7500"/>
<path d="M38.6998 26.1001C38.9385 26.1001 39.1674 26.0053 39.3362 25.8365C39.505 25.6677 39.5998 25.4388 39.5998 25.2001V22.5001C39.5998 22.2614 39.505 22.0325 39.3362 21.8637C39.1674 21.6949 38.9385 21.6001 38.6998 21.6001C38.4611 21.6001 38.2322 21.6949 38.0634 21.8637C37.8946 22.0325 37.7998 22.2614 37.7998 22.5001V25.2001C37.7998 25.4388 37.8946 25.6677 38.0634 25.8365C38.2322 26.0053 38.4611 26.1001 38.6998 26.1001Z" fill="#FF7500"/>
<path d="M42.3004 19.8C42.0617 19.8 41.8328 19.8949 41.664 20.0637C41.4952 20.2324 41.4004 20.4614 41.4004 20.7V25.2C41.4004 25.4387 41.4952 25.6677 41.664 25.8364C41.8328 26.0052 42.0617 26.1 42.3004 26.1C42.5391 26.1 42.768 26.0052 42.9368 25.8364C43.1056 25.6677 43.2004 25.4387 43.2004 25.2V20.7C43.2004 20.4614 43.1056 20.2324 42.9368 20.0637C42.768 19.8949 42.5391 19.8 42.3004 19.8Z" fill="#FF7500"/>
<path d="M45.9 18C45.6613 18 45.4324 18.0948 45.2636 18.2636C45.0948 18.4324 45 18.6613 45 18.9V25.2C45 25.4387 45.0948 25.6676 45.2636 25.8364C45.4324 26.0052 45.6613 26.1 45.9 26.1C46.1387 26.1 46.3676 26.0052 46.5364 25.8364C46.7052 25.6676 46.8 25.4387 46.8 25.2V18.9C46.8 18.6613 46.7052 18.4324 46.5364 18.2636C46.3676 18.0948 46.1387 18 45.9 18Z" fill="#FF7500"/>
<path d="M49.4996 16.2C49.2609 16.2 49.032 16.2948 48.8632 16.4636C48.6944 16.6323 48.5996 16.8613 48.5996 17.1V25.2C48.5996 25.4386 48.6944 25.6676 48.8632 25.8363C49.032 26.0051 49.2609 26.1 49.4996 26.1C49.7383 26.1 49.9672 26.0051 50.136 25.8363C50.3048 25.6676 50.3996 25.4386 50.3996 25.2V17.1C50.3996 16.8613 50.3048 16.6323 50.136 16.4636C49.9672 16.2948 49.7383 16.2 49.4996 16.2Z" fill="#FF7500"/>
<path d="M25.191 8.99995H36C36.2387 8.99995 36.4676 8.90513 36.6364 8.73635C36.8052 8.56756 36.9 8.33865 36.9 8.09995C36.9 7.86126 36.8052 7.63234 36.6364 7.46356C36.4676 7.29477 36.2387 7.19995 36 7.19995H25.191C24.9523 7.19995 24.7234 7.29477 24.5546 7.46356C24.3858 7.63234 24.291 7.86126 24.291 8.09995C24.291 8.33865 24.3858 8.56756 24.5546 8.73635C24.7234 8.90513 24.9523 8.99995 25.191 8.99995Z" fill="#FF7500"/>
<path d="M31.5 10.8H27.9C27.6613 10.8 27.4324 10.8949 27.2636 11.0637C27.0948 11.2324 27 11.4614 27 11.7C27 11.9387 27.0948 12.1677 27.2636 12.3364C27.4324 12.5052 27.6613 12.6 27.9 12.6H31.5C31.7387 12.6 31.9676 12.5052 32.1364 12.3364C32.3052 12.1677 32.4 11.9387 32.4 11.7C32.4 11.4614 32.3052 11.2324 32.1364 11.0637C31.9676 10.8949 31.7387 10.8 31.5 10.8Z" fill="#FF7500"/>
</svg>
