<svg width="54" height="54" viewBox="0 0 54 54" fill="none" xmlns="http://www.w3.org/2000/svg">
<path d="M11.3224 36.5807C7.96042 36.5807 5.22559 39.3155 5.22559 42.6775C5.22559 46.0394 7.96042 48.7742 11.3224 48.7742C14.6843 48.7742 17.4191 46.0394 17.4191 42.6775C17.4191 39.3155 14.6843 36.5807 11.3224 36.5807ZM11.3224 47.0323C8.9211 47.0323 6.96752 45.0787 6.96752 42.6775C6.96752 40.2762 8.9211 38.3226 11.3224 38.3226C13.7236 38.3226 15.6772 40.2762 15.6772 42.6775C15.6772 45.0787 13.7236 47.0323 11.3224 47.0323Z" fill="#0053FF"/>
<path d="M11.3229 40.0646C9.88228 40.0646 8.70996 41.2369 8.70996 42.6775C8.70996 44.1181 9.88228 45.2904 11.3229 45.2904C12.7634 45.2904 13.9358 44.1181 13.9358 42.6775C13.9358 41.2369 12.7634 40.0646 11.3229 40.0646ZM11.3229 43.5484C10.843 43.5484 10.4519 43.1574 10.4519 42.6775C10.4519 42.1976 10.843 41.8065 11.3229 41.8065C11.8028 41.8065 12.1938 42.1976 12.1938 42.6775C12.1938 43.1574 11.8028 43.5484 11.3229 43.5484Z" fill="#0053FF"/>
<path d="M50.5039 16.9307L52.2912 15.1487L52.2894 14.7847C52.2685 11.4349 49.5276 8.70968 46.1613 8.70968H45.8007L44.0431 10.4673C41.803 9.01452 39.2833 7.95629 36.5806 7.40584V5.22581C38.0212 5.22581 39.1936 4.05348 39.1936 2.6129C39.1936 1.17232 38.0212 0 36.5806 0H27.871C26.4304 0 25.2581 1.17232 25.2581 2.6129C25.2581 4.05348 26.4304 5.22581 27.871 5.22581V7.40584C25.1753 7.95542 22.6626 9.00842 20.4277 10.456L18.9366 8.96487L18.6648 8.70968H18.3043C14.9545 8.70968 12.2136 11.4349 12.1935 14.7847L12.1918 15.1487L13.9599 16.9125C11.7441 20.3214 10.4516 24.3819 10.4516 28.7419C10.4516 29.6112 10.5248 30.4935 10.6328 31.3749C9.58239 31.4759 8.68007 32.1779 8.34474 33.1978C8.25852 33.4608 8.06952 33.6664 7.82564 33.7605C7.71155 33.8049 7.59832 33.851 7.4851 33.9007C7.24732 34.0035 6.97035 33.9921 6.72474 33.8676C5.69003 33.3441 4.44368 33.5436 3.62323 34.364L3.01006 34.9781C2.18961 35.7976 1.99016 37.0449 2.51361 38.0796C2.63816 38.3252 2.64948 38.6022 2.54671 38.8408C2.49794 38.9532 2.4509 39.0673 2.40648 39.1805C2.31242 39.4244 2.106 39.6134 1.8421 39.6996C0.740323 40.0619 0 41.0844 0 42.2437V43.1112C0 44.2704 0.740323 45.2929 1.84297 45.6553C2.106 45.7415 2.31155 45.9305 2.40561 46.1726C2.45003 46.2876 2.49619 46.4017 2.54584 46.5149C2.64861 46.7527 2.63642 47.0296 2.51274 47.2753C1.98929 48.31 2.18874 49.5572 3.00919 50.3768L3.62235 50.9908C4.44281 51.8113 5.68916 52.0098 6.72387 51.4873C6.96861 51.3627 7.24558 51.3505 7.4851 51.4542C7.59745 51.5029 7.71155 51.55 7.82477 51.5944C8.06865 51.6884 8.25765 51.8949 8.34387 52.1588C8.70706 53.2597 9.72958 54 10.8888 54H11.7563C12.9156 54 13.9381 53.2597 14.3004 52.157C14.3866 51.894 14.5756 51.6884 14.8178 51.5944C14.9327 51.55 15.0468 51.5038 15.1601 51.4542C15.397 51.3505 15.6748 51.3627 15.9204 51.4873C16.9551 52.0098 18.2024 51.8113 19.0219 50.9908L19.636 50.3776C20.4564 49.5581 20.6559 48.3108 20.1324 47.2761C20.0514 47.1159 20.0366 46.9443 20.0523 46.7771C23.6546 49.2166 27.8353 50.5161 32.2258 50.5161C44.2321 50.5161 54 40.7482 54 28.7419C54 24.3906 52.7118 20.3362 50.5039 16.9307ZM46.5097 10.4638C48.6348 10.6249 50.348 12.3216 50.5309 14.4441L49.4849 15.4875C48.33 13.9877 46.9852 12.643 45.4863 11.4881L46.5097 10.4638ZM27 2.6129C27 2.133 27.3911 1.74194 27.871 1.74194H36.5806C37.0605 1.74194 37.4516 2.133 37.4516 2.6129C37.4516 3.09281 37.0605 3.48387 36.5806 3.48387H27.871C27.3911 3.48387 27 3.09281 27 2.6129ZM34.8387 5.22581V7.12974C33.9817 7.02697 33.1107 6.96774 32.2258 6.96774C31.3409 6.96774 30.4699 7.02697 29.6129 7.12974V5.22581H34.8387ZM13.952 14.4441C14.1341 12.3259 15.8403 10.6328 17.9742 10.4655L18.9836 11.475C17.4829 12.6282 16.1373 13.9729 14.9815 15.471L13.952 14.4441ZM20.9032 43.1112C20.9032 43.5162 20.6445 43.8733 20.2587 44.0004C19.4992 44.2495 18.9 44.8122 18.6161 45.5438C18.5795 45.637 18.5412 45.7302 18.502 45.8207C18.1919 46.5349 18.2189 47.351 18.5777 48.0609C18.7606 48.4223 18.691 48.8578 18.4044 49.1444L17.7904 49.7584C17.5038 50.0458 17.0684 50.1146 16.7069 49.9317C15.9971 49.5729 15.181 49.5467 14.4676 49.8559C14.3762 49.8951 14.283 49.9335 14.1881 49.9709C13.4573 50.2548 12.8955 50.8541 12.6456 51.6144C12.5193 51.9994 12.1613 52.2581 11.7563 52.2581H10.8888C10.4838 52.2581 10.1267 51.9994 9.99958 51.6135C9.75048 50.8541 9.18784 50.2548 8.45623 49.9709C8.36303 49.9343 8.26984 49.896 8.17926 49.8568C7.85003 49.7131 7.49903 49.6417 7.14629 49.6417C6.73432 49.6417 6.32148 49.7392 5.93913 49.9317C5.57594 50.1146 5.14219 50.0449 4.85565 49.7584L4.24161 49.1444C3.95506 48.8578 3.88539 48.4223 4.06829 48.0609C4.42713 47.351 4.45413 46.5349 4.14406 45.8216C4.10487 45.7302 4.06655 45.637 4.0291 45.542C3.74516 44.8113 3.14594 44.2495 2.38558 43.9995C2.00061 43.8741 1.74194 43.5162 1.74194 43.1112V42.2437C1.74194 41.8387 2.00061 41.4816 2.38558 41.3544C3.14594 41.1053 3.74516 40.5427 4.0291 39.8111C4.06568 39.7179 4.104 39.6247 4.14319 39.5341C4.45326 38.8199 4.42626 38.0038 4.06742 37.294C3.88452 36.9325 3.95419 36.4962 4.24074 36.2096L4.8539 35.5965C5.14045 35.309 5.57506 35.2394 5.93826 35.4231C6.6481 35.782 7.46594 35.809 8.17752 35.4989C8.26984 35.4588 8.36303 35.4205 8.45623 35.3848C9.18697 35.1 9.74961 34.5008 9.99958 33.7413C10.1259 33.3555 10.4838 33.0968 10.8888 33.0968H11.7563C12.1613 33.0968 12.5184 33.3555 12.6456 33.7413C12.8955 34.5008 13.4573 35.1 14.1881 35.3839C14.2813 35.4205 14.3745 35.4588 14.4659 35.498C15.1792 35.8081 15.9962 35.7802 16.706 35.4223C17.0675 35.2385 17.503 35.309 17.7904 35.5956L18.4035 36.2087C18.6901 36.4953 18.7598 36.9316 18.5769 37.2931C18.218 38.0029 18.191 38.819 18.5011 39.5324C18.5403 39.6238 18.5786 39.717 18.6161 39.8119C18.9 40.5427 19.4992 41.1045 20.2596 41.3544C20.6445 41.4807 20.9032 41.8387 20.9032 42.2437V43.1112ZM15.7218 27.871C15.9265 23.9655 17.4847 20.4216 19.9434 17.6911L22.3725 20.1202L23.6041 18.8887L21.175 16.4595C23.9055 13.9999 27.4494 12.4426 31.3548 12.238V15.6774H33.0968V12.238C37.0022 12.4426 40.5462 14.0008 43.2766 16.4595L40.8475 18.8887L42.0791 20.1202L44.5082 17.6911C46.9678 20.4216 48.5251 23.9655 48.7298 27.871H45.2903V29.6129H48.7298C48.5251 33.5183 46.9669 37.0623 44.5082 39.7928L42.0791 37.3636L40.8475 38.5952L43.2766 41.0243C40.5462 43.4839 37.0022 45.0412 33.0968 45.2459V41.8064H31.3548V45.2555C28.2141 45.0917 25.2267 44.044 22.6417 42.1958C22.6286 41.4833 22.3386 40.8257 21.8552 40.345L23.6041 38.5961L22.3725 37.3645L20.3685 39.3686C20.3232 39.3076 20.2683 39.2528 20.2404 39.1822C20.196 39.0673 20.1498 38.9532 20.1002 38.8399C19.9974 38.6022 20.0096 38.3252 20.1333 38.0796C20.6567 37.0449 20.4573 35.7976 19.6368 34.9781L19.4966 34.8387H45.2903V33.0968H41.8064V24.3871H36.5806V33.0968H34.8387V19.1613H29.6129V33.0968H27.871V22.6452H22.6452V33.0968H19.1613V34.5034L19.0219 34.364C18.34 33.6821 17.3654 33.4365 16.4604 33.6707C16.0397 32.3373 15.7906 30.9795 15.7166 29.612H19.1613V27.8701H15.7218V27.871ZM24.3871 33.0968V24.3871H26.129V33.0968H24.3871ZM31.3548 33.0968V20.9032H33.0968V33.0968H31.3548ZM38.3226 33.0968V26.129H40.0645V33.0968H38.3226ZM32.2258 48.7742C28.2681 48.7742 24.4942 47.6297 21.2264 45.4724C21.7698 45.1832 22.1862 44.7164 22.4231 44.1615C25.3617 46.0428 28.7219 47.0323 32.2258 47.0323C42.3116 47.0323 50.5161 38.8277 50.5161 28.7419C50.5161 18.6561 42.3116 10.4516 32.2258 10.4516C22.14 10.4516 13.9355 18.6561 13.9355 28.7419C13.9355 30.3837 14.1663 32.0185 14.6157 33.6211C14.4772 33.5122 14.3588 33.3764 14.3004 33.1961C14.0069 32.3033 13.277 31.6562 12.3956 31.4402C12.2719 30.5361 12.1935 29.6312 12.1935 28.7419C12.1935 17.6963 21.1802 8.70968 32.2258 8.70968C43.2714 8.70968 52.2581 17.6963 52.2581 28.7419C52.2581 39.7875 43.2714 48.7742 32.2258 48.7742Z" fill="#0053FF"/>
</svg>
