<svg width="54" height="54" viewBox="0 0 54 54" fill="none" xmlns="http://www.w3.org/2000/svg">
<path d="M44.4216 42.7123L43.285 42.2416C42.7523 42.0209 42.4985 41.408 42.7192 40.8751C42.8252 40.6191 43.0265 40.419 43.286 40.3114C43.5456 40.2039 43.8297 40.203 44.0855 40.3091L44.6538 40.5445C45.1922 40.7674 45.8088 40.5119 46.0318 39.9737C46.2546 39.4356 45.999 38.8187 45.4609 38.5959L44.8926 38.3605C44.7651 38.3077 44.6355 38.2637 44.5043 38.2283V37.6511C44.4524 36.2533 42.4465 36.2544 42.3951 37.6511V38.399C41.6553 38.7299 41.0803 39.3197 40.7705 40.068C40.1047 41.6752 40.8705 43.5244 42.4778 44.1903L43.6144 44.661C44.1472 44.8816 44.4011 45.4946 44.1803 46.0275C44.0743 46.2835 43.873 46.4836 43.6134 46.5912C43.3538 46.6988 43.0698 46.6995 42.814 46.5935L42.2457 46.3581C41.7079 46.1353 41.0907 46.3907 40.8678 46.9289C40.6449 47.4669 40.9004 48.0839 41.4385 48.3068L42.0069 48.5422C42.1343 48.5949 42.264 48.639 42.3951 48.6744V49.2516C42.447 50.6494 44.4529 50.6483 44.5043 49.2516V48.5037C45.2441 48.1728 45.8192 47.583 46.1291 46.8345C46.7948 45.2272 46.0288 43.3781 44.4216 42.7123Z" fill="#BF00FF"/>
<path d="M45.5588 33.1172V5.27483C45.6196 2.4463 43.1037 -0.0780897 40.273 0.00184865H5.2811C2.37073 -0.00300249 -0.000316347 2.36446 3.16581e-08 5.27483V7.38402C3.16581e-08 7.96648 0.472248 8.43862 1.0546 8.43862H8.43677V46.6151C8.43677 49.5226 10.8022 51.8881 13.7098 51.8881H37.1286C43.897 57.0959 54.0752 52.0614 53.9955 43.4512C53.9955 38.3584 50.3667 34.097 45.5588 33.1172ZM8.43677 6.32943H2.10919V5.27483C2.10919 3.53127 3.52699 2.11252 5.27024 2.11104H5.27298H5.2811C7.02192 2.11547 8.43677 3.53295 8.43677 5.27483V6.32943ZM16.8735 44.506V46.6152C16.714 50.8077 10.704 50.8045 10.546 46.6152V5.27483C10.546 4.08873 10.1523 2.993 9.48884 2.11104H40.2804C41.1169 2.10492 41.9099 2.43006 42.5098 3.02601C43.1158 3.62776 43.4496 4.42641 43.4496 5.27472V32.9053C37.6344 32.9053 32.9036 37.6362 32.9036 43.4512H17.9281C17.3458 43.4514 16.8735 43.9236 16.8735 44.506ZM18.9827 46.6151V45.5605H33.1155C33.4329 47.1181 34.0948 48.552 35.0178 49.7789H17.9257C18.5891 48.897 18.9827 47.8011 18.9827 46.6151ZM43.4496 51.8882C38.7975 51.8882 35.0128 48.1035 35.0128 43.4514C35.437 32.2742 51.4639 32.2772 51.8863 43.4515C51.8863 48.1035 48.1016 51.8882 43.4496 51.8882Z" fill="#BF00FF"/>
<path d="M14.7646 16.8755H20.0375C20.6199 16.8755 21.0921 16.4033 21.0921 15.8209V10.5479C21.0921 9.96543 20.6199 9.49329 20.0375 9.49329H14.7646C14.1822 9.49329 13.71 9.96543 13.71 10.5479V15.8209C13.71 16.4032 14.1822 16.8755 14.7646 16.8755ZM15.8192 11.6025H18.9829V14.7663H15.8192V11.6025Z" fill="#BF00FF"/>
<path d="M14.7646 27.4215H20.0375C20.6199 27.4215 21.0921 26.9493 21.0921 26.3669V21.0939C21.0921 20.5114 20.6199 20.0393 20.0375 20.0393H14.7646C14.1822 20.0393 13.71 20.5114 13.71 21.0939V26.3669C13.71 26.9492 14.1822 27.4215 14.7646 27.4215ZM15.8192 22.1484H18.9829V25.3122H15.8192V22.1484Z" fill="#BF00FF"/>
<path d="M21.0921 36.9127V31.6397C21.0921 31.0572 20.6199 30.5851 20.0375 30.5851H14.7646C14.1822 30.5851 13.71 31.0572 13.71 31.6397V36.9127C13.71 37.4951 14.1822 37.9673 14.7646 37.9673H20.0375C20.62 37.9673 21.0921 37.4951 21.0921 36.9127ZM18.9829 35.8581H15.8192V32.6943H18.9829V35.8581Z" fill="#BF00FF"/>
<path d="M25.3106 12.1297H39.2313C40.6291 12.0778 40.628 10.0719 39.2313 10.0205H25.3106C23.9129 10.0724 23.9139 12.0783 25.3106 12.1297Z" fill="#BF00FF"/>
<path d="M39.2311 20.5665H30.0557C28.658 20.6184 28.659 22.6244 30.0557 22.6757H39.2311C40.6289 22.6238 40.6279 20.6179 39.2311 20.5665Z" fill="#BF00FF"/>
<path d="M35.5403 31.1124H25.3106C23.9129 31.1643 23.9139 33.1703 25.3106 33.2216H35.5403C36.9381 33.1697 36.937 31.1638 35.5403 31.1124Z" fill="#BF00FF"/>
<path d="M25.3106 16.3482H35.5403C36.9381 16.2963 36.937 14.2904 35.5403 14.239H25.3106C23.9129 14.2909 23.9139 16.2968 25.3106 16.3482Z" fill="#BF00FF"/>
<path d="M25.3106 26.8941H31.2692C32.667 26.8422 32.6659 24.8363 31.2692 24.7849H25.3106C23.9129 24.8368 23.9139 26.8427 25.3106 26.8941Z" fill="#BF00FF"/>
<path d="M31.2692 35.3309H25.3106C23.9129 35.3828 23.9139 37.3888 25.3106 37.4401H31.2692C32.667 37.3882 32.6659 35.3823 31.2692 35.3309Z" fill="#BF00FF"/>
<path d="M25.3109 22.6757C26.7087 22.6238 26.7076 20.6179 25.3109 20.5665H25.3102C23.9125 20.6185 23.9143 22.6245 25.3109 22.6757Z" fill="#BF00FF"/>
</svg>
