<svg width="58" height="54" viewBox="0 0 58 54" fill="none" xmlns="http://www.w3.org/2000/svg">
<path d="M47.3935 3.52519C48.6748 3.94116 49.7761 4.75718 50.5565 5.82146C51.3272 6.87925 51.7831 8.18235 51.7831 9.58854C51.7831 10.6043 51.5423 11.5719 51.1152 12.4332C50.7363 13.1912 50.2162 13.8619 49.5834 14.4103V19.2641C49.5834 19.735 49.2046 20.1156 48.7359 20.1156H42.1369C41.668 20.1156 41.2891 19.7349 41.2891 19.2641V14.4103C40.6565 13.8619 40.1363 13.1912 39.7607 12.4332C39.3303 11.5719 39.0895 10.6043 39.0895 9.58854C39.0895 8.18235 39.5455 6.87914 40.3161 5.82146C41.1061 4.74102 42.23 3.91852 43.5338 3.50573C43.9834 3.36704 44.4586 3.61553 44.5967 4.06711C44.6224 4.14778 44.6384 4.23493 44.6384 4.31868V8.45337L45.438 8.78868L46.2377 8.45337V4.31868C46.2377 3.84775 46.6166 3.46716 47.0854 3.46716C47.1944 3.46693 47.3005 3.48627 47.3935 3.52519ZM13.275 28.5883H16.1362C16.8363 28.5883 17.472 28.8754 17.9313 29.3398C18.3937 29.801 18.6795 30.4427 18.6795 31.1458C18.6795 31.849 18.3937 32.4876 17.9313 32.9521C17.472 33.4132 16.8363 33.7003 16.1362 33.7003H13.275C12.5749 33.7003 11.9392 33.4132 11.4799 32.9521C11.1942 32.6649 10.9758 32.3103 10.8505 31.9167C10.2244 31.7749 9.65915 31.4553 9.21928 31.0135C8.61561 30.404 8.23985 29.5655 8.23985 28.6431V27.7207H6.71452C6.01444 27.7207 5.37871 27.4336 4.91946 26.9725C4.45694 26.508 4.17124 25.8694 4.17124 25.1662V21.7604C4.17124 21.0573 4.45694 20.4186 4.91946 19.9542C5.37871 19.493 6.01444 19.206 6.71452 19.206H8.28471C8.48386 17.3258 9.33154 15.6357 10.5968 14.3648C12.0514 12.9039 14.055 11.9974 16.2645 11.9974C18.4737 11.9974 20.4774 12.9039 21.932 14.3648C23.1973 15.6357 24.045 17.3257 24.2441 19.206H25.8143C26.5144 19.206 27.1502 19.493 27.6126 19.9542C28.0718 20.4186 28.3576 21.0573 28.3576 21.7604V25.1662C28.3576 25.8694 28.0718 26.508 27.6126 26.9725C27.1502 27.4336 26.5144 27.7207 25.8143 27.7207H23.4413C22.9724 27.7207 22.5903 27.34 22.5903 26.8692V20.0576C22.5903 18.3127 21.8774 16.7227 20.731 15.5711C19.5846 14.4198 18.0048 13.7038 16.2644 13.7038C14.5271 13.7038 12.9439 14.4198 11.7976 15.5711C10.6512 16.7227 9.93828 18.3127 9.93828 20.0576V26.8692V28.6432C9.93828 29.0948 10.1246 29.5074 10.4199 29.8074C10.5677 29.9524 10.7411 30.0718 10.9305 30.1559C11.059 29.8495 11.2452 29.5721 11.4797 29.3398C11.9392 28.8754 12.5749 28.5883 13.275 28.5883ZM16.1361 30.2946H13.2749C13.0437 30.2946 12.8349 30.3913 12.6808 30.5461C12.5268 30.7007 12.4304 30.9136 12.4304 31.146C12.4304 31.3782 12.5268 31.5911 12.6808 31.7428C12.8349 31.8975 13.0437 31.9944 13.2749 31.9944H16.1361C16.3673 31.9944 16.576 31.8975 16.7302 31.7428C16.8842 31.5911 16.9806 31.3782 16.9806 31.146C16.9806 30.9137 16.8842 30.7009 16.7302 30.5461C16.576 30.3913 16.3673 30.2946 16.1361 30.2946ZM8.23985 20.9123H6.71452C6.48331 20.9123 6.27465 21.0056 6.12047 21.1606C5.96641 21.3154 5.87001 21.5283 5.87001 21.7605V25.1664C5.87001 25.3986 5.9663 25.6115 6.12047 25.763C6.27465 25.9179 6.48331 26.0146 6.71452 26.0146H8.23985V20.9123ZM25.8145 20.9123H24.2893V26.0146H25.8145C26.0457 26.0146 26.2577 25.9179 26.4086 25.763C26.5628 25.6115 26.659 25.3986 26.659 25.1664V21.7605C26.659 21.5283 26.5628 21.3154 26.4086 21.1606C26.2577 21.0056 26.0457 20.9123 25.8145 20.9123ZM33.7203 33.5165C33.2514 33.5165 32.8726 33.1328 32.8726 32.6618C32.8726 32.1909 33.2516 31.8071 33.7203 31.8071H53.2957C53.7646 31.8071 54.1433 32.1909 54.1433 32.6618C54.1433 33.1328 53.7645 33.5165 53.2957 33.5165H33.7203ZM33.7203 30.201C33.2514 30.201 32.8726 29.8203 32.8726 29.3495C32.8726 28.8787 33.2516 28.4948 33.7203 28.4948H40.9776C41.4496 28.4948 41.8285 28.8786 41.8285 29.3495C41.8285 29.8204 41.4496 30.201 40.9776 30.201H33.7203ZM34.5714 13.1716C34.5714 13.6426 34.1925 14.0266 33.7203 14.0266C33.2514 14.0266 32.8726 13.6426 32.8726 13.1716V9.4916H3.59962C3.07627 9.4916 2.60422 9.70448 2.25736 10.053C1.91377 10.3981 1.69854 10.8755 1.69854 11.3978V21.5314C1.69854 22.0023 1.31961 22.3829 0.850855 22.3829C0.382098 22.3829 0 22.0023 0 21.5315V11.3979C0 10.4047 0.404641 9.5015 1.05646 8.84682C1.70828 8.19191 2.60739 7.78572 3.59962 7.78572H32.8725V3.06393C32.8725 2.21879 33.2161 1.45443 33.7685 0.899757C34.3208 0.345089 35.082 0 35.92 0H54.9527C55.7908 0 56.5551 0.345089 57.1073 0.899757C57.6596 1.45431 58 2.21867 58 3.06382V20.5187V37.1319V40.4475C58 41.4411 57.5954 42.3442 56.9435 42.9989C56.2917 43.6536 55.3926 44.06 54.4035 44.06H34.915L36.954 48.9816H40.4479C40.9198 48.9816 41.2988 49.3623 41.2988 49.8331V53.1487C41.2988 53.6196 40.9198 54 40.4479 54H17.5972C17.1252 54 16.7463 53.6195 16.7463 53.1487V49.8331C16.7463 49.3622 17.1252 48.9816 17.5972 48.9816H21.0909L23.13 44.06H3.59962C2.60739 44.06 1.70828 43.6536 1.05646 42.9989C0.404641 42.3442 0 41.4411 0 40.4474V37.1318V25.3954C0 24.9245 0.382098 24.5439 0.850969 24.5439C1.31984 24.5439 1.69865 24.9246 1.69865 25.3954V36.2805H56.3012V23.2634C55.8934 23.4667 55.4375 23.5828 54.9527 23.5828H49.7473L46.1541 29.2593C45.9036 29.6593 45.3771 29.7753 44.9819 29.5237C44.8696 29.4528 44.7766 29.3559 44.7122 29.2495L41.1253 23.5828H35.9201C35.0821 23.5828 34.3209 23.2377 33.7686 22.683C33.2162 22.1284 32.8726 21.3637 32.8726 20.5189V17.0388C32.8726 16.5648 33.2516 16.1841 33.7203 16.1841C34.1925 16.1841 34.5714 16.5648 34.5714 17.0388V20.5189C34.5714 20.8931 34.7224 21.2316 34.9697 21.4766C35.2137 21.7217 35.5509 21.8767 35.9202 21.8767H41.5911C41.8736 21.8767 42.1466 22.0154 42.3071 22.2735L45.4381 27.2145L48.5466 22.3057C48.691 22.0477 48.9673 21.8767 49.2819 21.8767H54.9527C55.322 21.8767 55.659 21.7218 55.9032 21.4766C56.1505 21.2316 56.3013 20.8931 56.3013 20.5189V3.06382C56.3013 2.68983 56.1505 2.35088 55.9032 2.10581C55.6592 1.86073 55.322 1.70576 54.9527 1.70576H35.9201C35.5508 1.70576 35.2137 1.86061 34.9696 2.10581C34.7223 2.35088 34.5713 2.68983 34.5713 3.06382V13.1716H34.5714ZM56.3012 37.9866H1.69865V40.4475C1.69865 40.97 1.91377 41.4475 2.25747 41.7926C2.60434 42.1408 3.07638 42.3538 3.59974 42.3538H54.4037C54.9238 42.3538 55.3991 42.1378 55.7426 41.7926C56.0894 41.4475 56.3013 40.97 56.3013 40.4475V37.9866H56.3012ZM18.6922 41.0249C18.2233 41.0249 17.8412 40.6411 17.8412 40.1702C17.8412 39.6992 18.2233 39.3155 18.6922 39.3155H22.4203C22.8892 39.3155 23.268 39.6992 23.268 40.1702C23.268 40.6411 22.889 41.0249 22.4203 41.0249H18.6922ZM38.3861 41.0249C37.9173 41.0249 37.5352 40.6411 37.5352 40.1702C37.5352 39.6992 37.9173 39.3155 38.3861 39.3155H39.311C39.7798 39.3155 40.1587 39.6992 40.1587 40.1702C40.1587 40.6411 39.7797 41.0249 39.311 41.0249H38.3861ZM34.1636 41.0249C33.6946 41.0249 33.3125 40.6411 33.3125 40.1702C33.3125 39.6992 33.6946 39.3155 34.1636 39.3155H35.0884C35.5573 39.3155 35.9361 39.6992 35.9361 40.1702C35.9361 40.6411 35.5572 41.0249 35.0884 41.0249H34.1636ZM29.9409 41.0249C29.472 41.0249 29.0899 40.6411 29.0899 40.1702C29.0899 39.6992 29.472 39.3155 29.9409 39.3155H30.8657C31.3346 39.3155 31.7134 39.6992 31.7134 40.1702C31.7134 40.6411 31.3345 41.0249 30.8657 41.0249H29.9409ZM25.7182 41.0249C25.2494 41.0249 24.8673 40.6411 24.8673 40.1702C24.8673 39.6992 25.2494 39.3155 25.7182 39.3155H26.643C27.1118 39.3155 27.4906 39.6992 27.4906 40.1702C27.4906 40.6411 27.1117 41.0249 26.643 41.0249H25.7182ZM30.9459 50.6877C30.4771 50.6877 30.0983 50.307 30.0983 49.833C30.0983 49.3621 30.4772 48.9815 30.9459 48.9815H35.1173L33.075 44.0599H24.97L22.9277 48.9815H27.099C27.5679 48.9815 27.9467 49.3622 27.9467 49.833C27.9467 50.307 27.5678 50.6877 27.099 50.6877H18.4449V52.2939H39.6V50.6877H30.9459ZM44.587 18.4094V14.007C44.587 13.5361 44.966 13.1523 45.438 13.1523C45.9069 13.1523 46.2857 13.5361 46.2857 14.007V18.4094H47.8849V14.007H47.8879C47.8879 13.7489 48.0068 13.4943 48.2284 13.3266C48.8031 12.8913 49.2752 12.3268 49.5995 11.6752C49.9109 11.0527 50.0844 10.3432 50.0844 9.58854C50.0844 8.55316 49.7536 7.59856 49.1884 6.8276C48.8481 6.36315 48.4211 5.96004 47.9361 5.64715V9.02067C47.9361 9.3529 47.7402 9.66909 47.4159 9.80449L45.7654 10.5012C45.5631 10.5883 45.3254 10.5947 45.1071 10.5012L43.4823 9.81734C43.1642 9.69492 42.9363 9.38203 42.9363 9.02067V5.64715C42.4515 5.96004 42.0244 6.36315 41.684 6.8276C41.122 7.59844 40.788 8.55316 40.788 9.58854C40.788 10.3432 40.9615 11.0527 41.2729 11.6752C41.5876 12.3041 42.0404 12.8557 42.5894 13.2846C42.8303 13.4364 42.9877 13.704 42.9877 14.0071V18.4095H44.587V18.4094Z" fill="#1900FF"/>
</svg>
