<svg width="54" height="54" viewBox="0 0 54 54" fill="none" xmlns="http://www.w3.org/2000/svg">
<path d="M0.9 33.3H8.1C8.5977 33.3 9 32.8977 9 32.4V25.2C9 24.7023 8.5977 24.3 8.1 24.3H0.9C0.4023 24.3 0 24.7023 0 25.2V32.4C0 32.8977 0.4023 33.3 0.9 33.3ZM1.8 26.1H3.6V28.8H5.4V26.1H7.2V31.5H1.8V26.1Z" fill="#00E3BA"/>
<path d="M22.5 0.9V8.1C22.5 8.5977 22.9023 9 23.4 9H30.6C31.0977 9 31.5 8.5977 31.5 8.1V0.9C31.5 0.4023 31.0977 0 30.6 0H23.4C22.9023 0 22.5 0.4023 22.5 0.9ZM24.3 1.8H26.1V4.5H27.9V1.8H29.7V7.2H24.3V1.8Z" fill="#00E3BA"/>
<path d="M41.4469 6.06415C41.3398 6.38365 41.4208 6.73645 41.6557 6.97855L43.138 8.49775L42.7861 10.6542C42.7303 10.9944 42.8752 11.3364 43.156 11.5353C43.4377 11.7333 43.8094 11.7549 44.11 11.5875L45.9001 10.5984L47.6893 11.5875C47.8252 11.6631 47.9755 11.7 48.1249 11.7C48.3067 11.7 48.4885 11.6442 48.6433 11.5353C48.9241 11.3364 49.069 10.9944 49.0132 10.6542L48.6613 8.49775L50.1436 6.97855C50.3794 6.73645 50.4604 6.38455 50.3524 6.06415C50.2444 5.74375 49.9682 5.51155 49.6351 5.46025L47.6227 5.15245L46.7137 3.21745C46.5661 2.90155 46.2493 2.69995 45.9001 2.69995C45.5509 2.69995 45.2341 2.90155 45.0856 3.21745L44.1766 5.15245L42.1642 5.46025C41.8312 5.51155 41.554 5.74465 41.4469 6.06415ZM44.9236 6.85975C45.2197 6.81475 45.4744 6.62395 45.6022 6.35305L45.9001 5.71855L46.198 6.35305C46.3258 6.62485 46.5805 6.81565 46.8766 6.85975L47.6326 6.97495L47.0557 7.56625C46.8559 7.77055 46.7659 8.05765 46.8118 8.33935L46.9387 9.11515L46.3357 8.78215C46.2007 8.70745 46.0513 8.66965 45.901 8.66965C45.7507 8.66965 45.6013 8.70745 45.4664 8.78215L44.8633 9.11515L44.9902 8.33935C45.0361 8.05765 44.9452 7.76965 44.7463 7.56625L44.1676 6.97495L44.9236 6.85975Z" fill="#00E3BA"/>
<path d="M15.2528 8.7641C15.1457 8.4446 14.8685 8.2115 14.5355 8.1602L12.5231 7.8524L11.6141 5.9174C11.4656 5.6015 11.1488 5.3999 10.7996 5.3999C10.4504 5.3999 10.1336 5.6015 9.98506 5.9174L9.07606 7.8524L7.06366 8.1602C6.73066 8.2115 6.45346 8.4437 6.34636 8.7641C6.23926 9.0845 6.32026 9.4364 6.55516 9.6785L8.03746 11.1977L7.68556 13.3541C7.62976 13.6943 7.77466 14.0363 8.05546 14.2352C8.33716 14.4341 8.70886 14.4548 9.00946 14.2874L10.7996 13.2983L12.5888 14.2874C12.7247 14.363 12.875 14.3999 13.0244 14.3999C13.2062 14.3999 13.388 14.3441 13.5428 14.2352C13.8236 14.0363 13.9685 13.6943 13.9127 13.3541L13.5608 11.1977L15.0431 9.6785C15.2798 9.4364 15.3599 9.0845 15.2528 8.7641ZM11.9552 10.2662C11.7554 10.4705 11.6654 10.7576 11.7113 11.0393L11.8382 11.8151L11.2352 11.4821C11.1002 11.4074 10.9508 11.3696 10.8005 11.3696C10.6502 11.3696 10.5008 11.4074 10.3658 11.4821L9.76276 11.8151L9.88966 11.0393C9.93556 10.7576 9.84466 10.4696 9.64576 10.2662L9.06886 9.6749L9.82486 9.5597C10.121 9.5147 10.3757 9.3239 10.5035 9.053L10.7996 8.4185L11.0975 9.053C11.2253 9.3248 11.48 9.5156 11.7761 9.5597L12.5321 9.6749L11.9552 10.2662Z" fill="#00E3BA"/>
<path d="M32.3996 47.7C32.3996 47.2032 31.9964 46.8 31.4996 46.8H22.4996C22.0028 46.8 21.5996 47.2032 21.5996 47.7C21.5996 48.1968 22.0028 48.6 22.4996 48.6H31.4996C31.9964 48.6 32.3996 48.1968 32.3996 47.7Z" fill="#00E3BA"/>
<path d="M30.6002 49.5H23.4002C23.1113 49.5 22.8395 49.6386 22.6703 49.8735C22.5011 50.1084 22.4552 50.4099 22.5452 50.6835L22.6253 50.9229C23.2391 52.7634 24.9554 54 26.8949 54H27.1055C29.045 54 30.7613 52.7634 31.3751 50.922L31.4543 50.6835C31.5452 50.409 31.4993 50.1075 31.3292 49.8735C31.1609 49.6386 30.8891 49.5 30.6002 49.5ZM27.1055 52.2H26.8949C26.1083 52.2 25.382 51.8607 24.8816 51.3H29.1197C28.6175 51.8607 27.8921 52.2 27.1055 52.2Z" fill="#00E3BA"/>
<path d="M26.9815 26.0515C26.9653 26.0515 26.95 26.0515 26.9338 26.0515C24.9448 26.0767 23.3491 27.7156 23.3743 29.7037C23.3869 30.6667 23.773 31.5676 24.4633 32.2399C25.1419 32.9014 26.0329 33.2641 26.9788 33.2641H27.0265C27.9895 33.2515 28.8904 32.8654 29.5627 32.1751C30.2359 31.4848 30.5986 30.5758 30.5869 29.6119C30.5617 27.6391 28.9489 26.0515 26.9815 26.0515ZM28.2748 30.9187C27.9382 31.2652 27.4864 31.4587 27.004 31.4641C26.5522 31.4587 26.0662 31.2895 25.7206 30.952C25.3741 30.6154 25.1806 30.1636 25.1752 29.6812C25.1617 28.6858 25.9618 27.865 26.9572 27.8524H26.9806C27.9661 27.8524 28.7743 28.648 28.7869 29.6353C28.7932 30.1177 28.6114 30.5731 28.2748 30.9187Z" fill="#00E3BA"/>
<path d="M35.9587 27.9693C35.9524 27.4761 35.551 27.081 35.0587 27.081C35.0551 27.081 35.0515 27.081 35.047 27.081L33.8806 27.0963C33.805 26.8947 33.7204 26.6985 33.6277 26.505L34.4404 25.6707C34.7878 25.3143 34.7806 24.7455 34.4242 24.3981L32.1103 22.1418C31.9393 21.9744 31.6774 21.8817 31.4704 21.8862C31.231 21.8898 31.0033 21.987 30.8377 22.158L30.0241 22.9932C29.8288 22.9041 29.6299 22.8249 29.4265 22.7547L29.4121 21.5892C29.4094 21.3507 29.3113 21.1221 29.1403 20.9565C28.9702 20.7891 28.7587 20.691 28.5004 20.7009L25.2685 20.7423C24.7717 20.7486 24.3739 21.1563 24.3802 21.654L24.3955 22.8204C24.1939 22.896 23.9977 22.9806 23.8042 23.0733L22.9699 22.2606C22.6144 21.915 22.0438 21.9195 21.6973 22.2768L19.441 24.5907C19.2736 24.7617 19.1827 24.9921 19.1854 25.2306C19.189 25.47 19.2862 25.6977 19.4572 25.8633L20.2924 26.6769C20.2033 26.8722 20.1241 27.0711 20.0539 27.2745L18.8884 27.2889C18.6499 27.2916 18.4213 27.3897 18.2557 27.5607C18.0883 27.7317 17.9974 27.9612 18.0001 28.2006L18.0415 31.4325C18.0478 31.9257 18.4492 32.3208 18.9415 32.3208H18.9532L20.1196 32.3055C20.1952 32.5071 20.2798 32.7033 20.3725 32.8968L19.5598 33.7311C19.2124 34.0875 19.2196 34.6563 19.576 35.0037L21.8899 37.26C22.06 37.4265 22.2697 37.5129 22.5298 37.5156C22.7692 37.512 22.9969 37.4148 23.1625 37.2438L23.9761 36.4086C24.1714 36.4977 24.3703 36.5769 24.5737 36.6471L24.5881 37.8126C24.5908 38.0511 24.6889 38.2797 24.8599 38.4453C25.0273 38.6082 25.2532 38.7 25.4872 38.7H25.4989L28.7308 38.6586C29.2276 38.6523 29.6254 38.2446 29.6191 37.7469L29.6038 36.5805C29.8054 36.5049 30.0016 36.4203 30.1951 36.3276L31.0294 37.1403C31.3849 37.4868 31.9555 37.4814 32.302 37.1241L34.5583 34.8102C34.7257 34.6392 34.8166 34.4088 34.8139 34.1703C34.8103 33.9309 34.7131 33.7032 34.5421 33.5376L33.7069 32.724C33.796 32.5287 33.8752 32.3298 33.9454 32.1264L35.1109 32.112C35.3494 32.1093 35.578 32.0112 35.7436 31.8402C35.911 31.6692 36.0019 31.4397 35.9992 31.2003L35.9587 27.9693ZM33.2605 30.3354C32.8492 30.3408 32.4937 30.6234 32.3974 31.0239C32.275 31.527 32.0824 32.0103 31.825 32.4603C31.6198 32.8167 31.6837 33.2658 31.9771 33.552L32.6413 34.2L31.6414 35.2251L30.9781 34.578C30.6838 34.2909 30.2329 34.2405 29.8819 34.4529C29.4409 34.7211 28.963 34.9263 28.4608 35.0631C28.0648 35.1702 27.7912 35.532 27.7966 35.9433L27.8083 36.8712L26.3764 36.8901L26.3647 35.9622C26.3593 35.5509 26.0767 35.1954 25.6762 35.0991C25.1731 34.9767 24.6898 34.7841 24.2398 34.5267C24.1003 34.4457 23.9464 34.407 23.7925 34.407C23.5558 34.407 23.3227 34.5006 23.1481 34.6788L22.5001 35.343L21.475 34.3431L22.1221 33.6798C22.4083 33.3855 22.4605 32.9346 22.2472 32.5836C21.979 32.1426 21.7738 31.6647 21.637 31.1625C21.5308 30.7692 21.1744 30.4983 20.7685 30.4983C20.7649 30.4983 20.7613 30.4983 20.7568 30.4983L19.8289 30.51L19.81 29.0781L20.7379 29.0664C21.1492 29.061 21.5047 28.7784 21.601 28.3779C21.7234 27.8748 21.916 27.3915 22.1734 26.9415C22.3786 26.5851 22.3147 26.136 22.0213 25.8498L21.3571 25.2018L22.357 24.1767L23.0203 24.8238C23.3146 25.1109 23.7655 25.1604 24.1165 24.9489C24.5575 24.6807 25.0354 24.4755 25.5376 24.3387C25.9336 24.2316 26.2072 23.8698 26.2018 23.4585L26.1901 22.5306L27.622 22.5117L27.6337 23.4396C27.6391 23.8509 27.9217 24.2064 28.3222 24.3027C28.8253 24.4251 29.3086 24.6177 29.7586 24.8751C30.1132 25.0803 30.5632 25.0164 30.8503 24.723L31.4983 24.0588L32.5234 25.0587L31.8763 25.722C31.5901 26.0163 31.5379 26.4672 31.7512 26.8182C32.0194 27.2592 32.2246 27.7371 32.3614 28.2393C32.4676 28.6326 32.824 28.9035 33.2299 28.9035H33.2416L34.1695 28.8918L34.1884 30.3237L33.2605 30.3354Z" fill="#00E3BA"/>
<path d="M54 34.2001V27.0001C54 26.5024 53.5977 26.1001 53.1 26.1001H45.9C45.4023 26.1001 45 26.5024 45 27.0001V34.2001C45 34.6978 45.4023 35.1001 45.9 35.1001H53.1C53.5977 35.1001 54 34.6978 54 34.2001ZM52.2 33.3001H46.8V27.9001H48.6V30.6001H50.4V27.9001H52.2V33.3001Z" fill="#00E3BA"/>
<path d="M26.0996 10.8H27.8996V14.4H26.0996V10.8Z" fill="#00E3BA"/>
<path d="M48.5996 24.3H50.3996C50.3996 20.8269 47.5727 18 44.0996 18C42.3104 18 40.5986 18.7659 39.4043 20.0997L40.7453 21.3003C41.5994 20.3463 42.8216 19.8 44.0996 19.8C46.5809 19.8 48.5996 21.8187 48.5996 24.3Z" fill="#00E3BA"/>
<path d="M34.1194 15.6709C34.6414 14.5189 35.6404 12.8638 37.4386 11.521C38.4331 10.7785 39.5491 10.2205 40.756 9.86316L40.2448 8.13696C38.8345 8.55456 37.5268 9.20796 36.3622 10.0792C34.258 11.6506 33.0898 13.5838 32.4814 14.9293L34.1194 15.6709Z" fill="#00E3BA"/>
<path d="M17.4468 13.3092C18.3936 14.0481 18.786 15.03 18.9354 15.5493L20.6652 15.0498C20.4555 14.3208 19.9011 12.9411 18.5538 11.8899C17.9292 11.4012 17.2173 11.0457 16.4388 10.8315L15.9609 12.5667C16.5099 12.7188 17.0085 12.9681 17.4468 13.3092Z" fill="#00E3BA"/>
<path d="M8.99974 20.6999C10.6008 20.6999 12.0948 21.5621 12.8985 22.9508L14.4555 22.049C13.3323 20.1068 11.2416 18.8999 8.99974 18.8999C6.75785 18.8999 4.66715 20.1068 3.54395 22.049L5.10095 22.9508C5.90465 21.5621 7.39864 20.6999 8.99974 20.6999Z" fill="#00E3BA"/>
<path d="M36.3177 19.9314C33.6222 17.361 30.0735 16.0362 26.3502 16.2153C19.6515 16.5312 14.1507 21.7962 13.5558 28.4643C13.1148 33.4107 15.4062 38.1888 19.5372 40.9338C20.2662 41.418 20.7009 42.2451 20.7009 43.1478V45C20.7009 45.4977 21.1032 45.9 21.6009 45.9H32.4009C32.8986 45.9 33.3009 45.4977 33.3009 45V43.1478C33.3009 42.246 33.7392 41.4162 34.4754 40.9266C38.2473 38.4147 40.5 34.218 40.5 29.7C40.5 25.9731 39.015 22.5045 36.3177 19.9314ZM33.4764 39.429C32.2389 40.2525 31.5 41.643 31.5 43.1478V44.1H22.5V43.1478C22.5 41.6412 21.7647 40.2534 20.5326 39.4344C16.9515 37.0539 14.9643 32.9121 15.3477 28.6236C15.8625 22.8474 20.6289 18.2862 26.433 18.0126C29.6631 17.8605 32.7384 19.0044 35.0748 21.2328C37.4121 23.463 38.7 26.4699 38.7 29.7C38.7 33.6141 36.747 37.251 33.4764 39.429Z" fill="#00E3BA"/>
</svg>
