<svg width="54" height="54" viewBox="0 0 54 54" fill="none" xmlns="http://www.w3.org/2000/svg">
<path d="M40.9319 28.9901C39.1571 27.3248 36.838 26.4455 34.4109 26.5289C31.9802 26.6069 29.7257 27.6288 28.0625 29.4058C26.3993 31.1819 25.5265 33.5004 25.6044 35.9342C25.6832 38.3679 26.7029 40.6253 28.4776 42.2907C30.1789 43.8878 32.3768 44.7563 34.6977 44.7563C34.7977 44.7563 34.8986 44.7546 34.9986 44.7519C37.4293 44.673 39.6838 43.652 41.347 41.875C43.0103 40.0989 43.883 37.7803 43.8043 35.3466C43.7255 32.9128 42.7058 30.6554 40.9319 28.9901ZM40.0547 40.6634C38.7146 42.0939 36.8991 42.9173 34.9411 42.9802C32.9884 43.0485 31.1181 42.3385 29.6886 40.9976C28.259 39.6566 27.4376 37.8379 27.3738 35.8775C27.3101 33.917 28.0138 32.0496 29.354 30.6173C30.6941 29.1868 32.5096 28.3635 34.4675 28.3006C34.549 28.2979 34.6295 28.297 34.7101 28.297C36.5787 28.297 38.3499 28.9972 39.7201 30.2832C41.1497 31.625 41.9711 33.4428 42.0339 35.4033C42.0985 37.3638 41.3948 39.2321 40.0547 40.6634Z" fill="#BFA100"/>
<path d="M42.4883 7.09082H46.9141V8.8634H42.4883V7.09082Z" fill="#BFA100"/>
<path d="M48.6836 7.09082H53.1094V8.8634H48.6836V7.09082Z" fill="#BFA100"/>
<path d="M42.4883 10.6357H53.1102V12.4083H42.4883V10.6357Z" fill="#BFA100"/>
<path d="M9.23049 11.9774C7.44777 14.708 6.38292 17.8933 6.21916 21.2276L6.17313 22.1573H15.0141L15.0814 21.3437C15.3151 18.5155 16.7694 15.9338 19.0744 14.2604L19.6949 13.8093L15.5665 5.96297L14.7548 6.485C13.0756 7.5645 11.6072 8.89926 10.3768 10.4139L8.85164 7.74176V2.65888H7.08131V7.09034H5.31098V0H3.54065V7.09034H1.77033V4.43146H0V7.09034V7.97663V8.86292H7.45308L9.23049 11.9774ZM14.9124 8.52258L17.4253 13.2988C15.2664 15.098 13.8413 17.6151 13.4129 20.3847H8.05853C8.30815 18.0174 9.05876 15.7521 10.229 13.7278L10.3662 13.968C9.97845 14.3668 9.7368 14.9101 9.7368 15.5101C9.7368 16.7314 10.73 17.7258 11.9497 17.7258C13.1695 17.7258 14.1626 16.7314 14.1626 15.5101C14.1626 14.3145 13.2093 13.3431 12.0249 13.3024L11.3274 12.0802C12.3312 10.7348 13.5306 9.52764 14.9124 8.52258ZM12.3923 15.5101C12.3923 15.7547 12.194 15.9533 11.9497 15.9533C11.7054 15.9533 11.5071 15.7547 11.5071 15.5101C11.5071 15.2655 11.7054 15.067 11.9497 15.067C12.194 15.067 12.3923 15.2655 12.3923 15.5101Z" fill="#BFA100"/>
<path d="M0 48.7461H18.5884V50.5186H0V48.7461Z" fill="#BFA100"/>
<path d="M0 45.2012H7.08131V46.9738H0V45.2012Z" fill="#BFA100"/>
<path d="M8.85156 45.2012H18.5884V46.9738H8.85156V45.2012Z" fill="#BFA100"/>
<path d="M53.27 48.2078L45.7912 41.1884C46.7038 39.3662 47.157 37.3357 47.0898 35.2405C46.9827 31.9284 45.5947 28.8556 43.18 26.5885C43.0871 26.5008 42.9862 26.4281 42.8914 26.3439C43.2057 24.9755 43.373 23.5716 43.373 22.1571C43.373 16.6877 40.9901 11.7768 37.2264 8.36901L39.403 5.31751H53.1098V3.54492H38.4913L35.8544 7.24076C32.7581 4.9302 28.9342 3.54492 24.7845 3.54492C22.4371 3.54492 20.1472 3.97743 17.9803 4.83182L17.0491 5.19874L21.2926 13.0247L21.9812 12.8182C22.8867 12.5452 23.8294 12.4078 24.7845 12.4078C30.1531 12.4078 34.5213 16.7817 34.5213 22.1571C34.5213 22.5222 34.493 22.8856 34.4532 23.2463C31.2303 23.3119 28.0366 24.6192 25.6635 27.1531C24.4163 28.4852 23.509 30.0451 22.9514 31.7281C19.2638 31.0253 16.2932 28.2494 15.354 24.5944L15.1832 23.9296H6.25098L6.40411 24.948C6.95291 28.6031 8.57188 31.8841 10.9034 34.5058L7.08126 37.6946V43.4281H8.85159V38.526L12.1426 35.7794C15.1548 38.58 19.0823 40.3792 23.386 40.7027C24.049 42.1899 25.0058 43.5442 26.2282 44.6919C28.6155 46.9325 31.6605 48.0421 34.7001 48.0421C36.8644 48.0421 39.0197 47.4687 40.9379 46.3511L48.4264 53.3802C48.7539 53.6878 49.3443 53.9998 50.0861 53.9998C50.8623 53.9989 51.805 53.6576 52.784 52.6118C54.7013 50.5671 53.9401 48.8371 53.27 48.2078ZM24.7845 10.6353C23.9011 10.6353 23.0257 10.7354 22.1733 10.9331L19.5736 6.13999C21.2501 5.59403 22.9983 5.31751 24.7845 5.31751C28.5509 5.31751 32.0207 6.5787 34.8276 8.68187L34.6408 8.94421C34.4594 8.89635 34.2735 8.86267 34.0788 8.86267C32.859 8.86267 31.8658 9.85709 31.8658 11.0784C31.8658 12.2997 32.859 13.2941 34.0788 13.2941C35.2985 13.2941 36.2917 12.2997 36.2917 11.0784C36.2917 10.7053 36.1899 10.3587 36.027 10.0494L36.1916 9.8181C39.5101 12.8971 41.6026 17.2816 41.6026 22.1571C41.6026 23.1683 41.5088 24.1743 41.3309 25.1625C39.7535 24.1618 38.0045 23.5609 36.2173 23.3429C36.258 22.9494 36.2917 22.5541 36.2917 22.1571C36.2917 15.8041 31.1294 10.6353 24.7845 10.6353ZM34.5213 11.0784C34.5213 11.323 34.3231 11.5215 34.0788 11.5215C33.8344 11.5215 33.6362 11.323 33.6362 11.0784C33.6362 10.8338 33.8344 10.6353 34.0788 10.6353C34.3231 10.6353 34.5213 10.8338 34.5213 11.0784ZM13.5164 34.6334L13.7899 34.4047C14.0431 34.5058 14.3166 34.5651 14.6052 34.5651C15.8249 34.5651 16.8181 33.5716 16.8181 32.3494C16.8181 31.1272 15.8249 30.1337 14.6052 30.1337C13.3854 30.1337 12.3922 31.1272 12.3922 32.3494C12.3922 32.6277 12.4498 32.8918 12.5436 33.1373L12.2621 33.3722C10.3519 31.2398 8.96489 28.6208 8.33996 25.7022H13.8324C15.1062 29.656 18.4282 32.6259 22.5097 33.4466C22.3592 34.293 22.2901 35.1607 22.3185 36.0399C22.3494 37.0086 22.5035 37.9525 22.7469 38.8654C19.2337 38.4382 16.0365 36.9138 13.5164 34.6334ZM14.1626 32.3494C14.1626 32.1057 14.3608 31.9063 14.6052 31.9063C14.8495 31.9063 15.0477 32.1057 15.0477 32.3494C15.0477 32.5931 14.8495 32.7926 14.6052 32.7926C14.3608 32.7926 14.1626 32.5931 14.1626 32.3494ZM27.44 43.3988C25.3705 41.4561 24.18 38.822 24.0879 35.9832C23.9959 33.1435 25.0147 30.4386 26.955 28.3655C29.0431 26.1356 31.872 25.0091 34.7072 25.0091C37.3123 25.0091 39.9235 25.9601 41.9691 27.8807C44.0386 29.8235 45.2292 32.4575 45.3212 35.2963C45.4124 38.136 44.3945 40.841 42.4542 42.914C38.4488 47.1913 31.7136 47.4102 27.44 43.3988ZM51.4943 51.4003C50.3799 52.5914 49.7373 52.1678 49.6382 52.0871L42.4312 45.3212C42.8888 44.9551 43.3331 44.5652 43.7456 44.1247C44.1555 43.6877 44.5166 43.2189 44.8547 42.7359L52.06 49.4992C52.0653 49.5062 52.6911 50.1222 51.4943 51.4003Z" fill="#BFA100"/>
</svg>
