<svg width="54" height="54" viewBox="0 0 54 54" fill="none" xmlns="http://www.w3.org/2000/svg">
<path d="M42.678 31.3545C36.435 31.3545 31.3555 36.434 31.3555 42.6771C31.3555 48.9201 36.435 53.9997 42.678 53.9997C48.9211 53.9997 54.0006 48.9201 54.0006 42.6771C54.0006 36.434 48.9211 31.3545 42.678 31.3545ZM42.678 52.2577C37.3957 52.2577 33.0974 47.9594 33.0974 42.6771C33.0974 37.3947 37.3957 33.0964 42.678 33.0964C47.9604 33.0964 52.2587 37.3947 52.2587 42.6771C52.2587 47.9594 47.9604 52.2577 42.678 52.2577Z" fill="#FF0000"/>
<path d="M42.6774 45.2899C42.1968 45.2899 41.8064 44.8986 41.8064 44.4189H40.0645C40.0645 45.5527 40.7951 46.5109 41.8064 46.8715V47.9028H43.5483V46.8715C44.5596 46.5109 45.2903 45.5527 45.2903 44.4189C45.2903 42.9785 44.1178 41.806 42.6774 41.806C42.1968 41.806 41.8064 41.4148 41.8064 40.935C41.8064 40.4553 42.1968 40.0641 42.6774 40.0641C43.1579 40.0641 43.5483 40.4553 43.5483 40.935H45.2903C45.2903 39.8013 44.5596 38.8431 43.5483 38.4825V37.4512H41.8064V38.4825C40.7951 38.8431 40.0645 39.8013 40.0645 40.935C40.0645 42.3755 41.2369 43.5479 42.6774 43.5479C43.1579 43.5479 43.5483 43.9392 43.5483 44.4189C43.5483 44.8986 43.1579 45.2899 42.6774 45.2899Z" fill="#FF0000"/>
<path d="M42.6777 34.8389C40.9251 34.8389 39.2652 35.41 37.875 36.4902L38.9437 37.8656C40.0256 37.0248 41.3172 36.5808 42.6777 36.5808C46.0386 36.5808 48.7744 39.3158 48.7744 42.6776C48.7744 44.038 48.3304 45.3296 47.4888 46.4115L48.865 47.4802C49.9461 46.0892 50.5164 44.4293 50.5164 42.6776C50.5164 38.3559 47.0002 34.8389 42.6777 34.8389Z" fill="#FF0000"/>
<path d="M42.6776 48.7744C39.3166 48.7744 36.5808 46.0395 36.5808 42.6777C36.5808 41.3172 37.0248 40.0256 37.8664 38.9437L36.4902 37.875C35.4092 39.2661 34.8389 40.9259 34.8389 42.6777C34.8389 46.9993 38.3551 50.5164 42.6776 50.5164C44.4301 50.5164 46.09 49.9452 47.4802 48.865L46.4115 47.4897C45.3296 48.3304 44.038 48.7744 42.6776 48.7744Z" fill="#FF0000"/>
<path d="M3.48387 36.5811H1.74194V40.9359H0V54.0004H5.22581V40.9359H3.48387V36.5811ZM3.48387 52.2585H1.74194V42.6778H3.48387V52.2585Z" fill="#FF0000"/>
<path d="M11.3227 36.5811H9.5808V40.9359H7.83887V47.0327H9.5808V54.0004H11.3227V47.0327H13.0647V40.9359H11.3227V36.5811ZM11.3227 45.2907H9.5808V42.6778H11.3227V45.2907Z" fill="#FF0000"/>
<path d="M19.1616 36.5811H17.4197V45.2907H15.6777V50.5165H17.4197V54.0004H19.1616V50.5165H20.9035V45.2907H19.1616V36.5811ZM19.1616 48.7746H17.4197V47.0327H19.1616V48.7746Z" fill="#FF0000"/>
<path d="M26.9995 36.5811H25.2576V38.323H23.5156V46.1617H25.2576V54.0004H26.9995V46.1617H28.7414V38.323H26.9995V36.5811ZM26.9995 44.4198H25.2576V40.0649H26.9995V44.4198Z" fill="#FF0000"/>
<path d="M30.8782 27.1395C30.5618 25.5566 29.4055 24.2859 27.8583 23.8219L21.7747 21.997V20.2708C22.5002 19.4471 23.0314 18.4515 23.304 17.353C24.9111 17.043 26.1296 15.6311 26.1296 13.9355V9.58065C26.1296 4.29828 21.8313 0 16.5489 0C11.2665 0 6.96826 4.29828 6.96826 9.58065V13.9355C6.96826 15.6311 8.18668 17.043 9.7938 17.353C10.0664 18.4515 10.5976 19.4471 11.3231 20.2708V21.997L5.23951 23.8228C3.69363 24.2859 2.53602 25.5579 2.21962 27.1403L0.679688 34.8387H32.4181L30.8782 27.1395ZM13.065 21.7027C14.0912 22.2986 15.279 22.6452 16.5489 22.6452C17.8188 22.6452 19.0066 22.2986 20.0328 21.7027V22.1523L16.5489 24.2425L13.065 22.1523V21.7027ZM21.0224 23.5901L21.7747 23.816V25.7684L20.0328 27.5103L17.9536 25.4316L21.0224 23.5901ZM16.5489 20.9032C13.6668 20.9032 11.3231 18.5595 11.3231 15.6774V12.8217L14.807 11.6598V13.0645H15.6779C17.7648 13.0645 19.8516 12.6358 21.7747 11.8236V15.6774C21.7747 18.5595 19.431 20.9032 16.5489 20.9032ZM23.5166 15.4354V12.4364C24.0351 12.7388 24.3876 13.2946 24.3876 13.9363C24.3876 14.5781 24.0351 15.1331 23.5166 15.4354ZM16.5489 1.74194C20.8714 1.74194 24.3876 5.25898 24.3876 9.58065V10.936C24.1176 10.7782 23.8267 10.6553 23.5166 10.5754V9.58065H21.7747V9.90641C20.1459 10.7025 18.358 11.1797 16.5489 11.2958V9.24425L11.3231 10.9862V9.58065H9.58117V10.5754C9.27114 10.6562 8.98025 10.7782 8.7102 10.936V9.58065C8.7102 5.25898 12.2264 1.74194 16.5489 1.74194ZM8.7102 13.9355C8.7102 13.2937 9.06275 12.7379 9.58117 12.4355V15.4346C9.06275 15.1331 8.7102 14.5772 8.7102 13.9355ZM12.0754 23.5901L15.1442 25.4316L13.065 27.5103L11.3231 25.7684V23.816L12.0754 23.5901ZM25.1438 33.0968L24.38 27.7472L22.6555 27.9939L23.3835 33.0968H9.71428L10.4436 27.9947L8.7187 27.7481L7.95405 33.0968H2.80522L3.92753 27.4818C4.11763 26.5322 4.81253 25.7692 5.73921 25.4915L9.58117 24.3382V26.4897L13.065 29.9735L16.5489 26.4897L20.0328 29.9735L23.5166 26.4897V24.3382L27.3586 25.4907C28.2853 25.7684 28.9802 26.5313 29.1703 27.4806L30.2926 33.0968H25.1438Z" fill="#FF0000"/>
<path d="M50.8712 9.11114C50.7377 8.71648 50.579 8.33161 50.3962 7.96076L52.1653 5.30789L48.6925 1.83507L46.0388 3.60337C45.6679 3.42136 45.2839 3.26273 44.8884 3.12834L44.262 0H39.3509L38.7244 3.12834C38.3289 3.26273 37.944 3.42136 37.574 3.60337L34.9199 1.83507L31.4475 5.30789L33.2167 7.96076C33.0334 8.33161 32.8752 8.71648 32.7416 9.11114L29.6133 9.73757V14.6495L32.7425 15.276C32.876 15.6706 33.0346 16.0555 33.2175 16.4263L31.4484 19.0792L34.922 22.552L37.5749 20.7829C37.9457 20.9649 38.3298 21.1244 38.7253 21.2579L39.3517 24.3871H44.2628L44.8892 21.2588C45.2847 21.1244 45.6696 20.9657 46.0396 20.7837L48.6925 22.5529L52.1662 19.0805L50.397 16.4272C50.5803 16.0563 50.7385 15.6715 50.872 15.2768L54.0004 14.6495V9.73757L50.8712 9.11114ZM52.2584 13.2214L49.495 13.7743L49.3521 14.2919C49.1811 14.9085 48.9375 15.4997 48.6266 16.0483L48.3616 16.5152L49.9232 18.8572L48.4705 20.3108L46.1276 18.7492L45.6615 19.0133C45.1155 19.3233 44.5235 19.567 43.9034 19.7397L43.3867 19.8826L42.8356 22.6452H40.7789L40.2269 19.8826L39.7102 19.7397C39.0902 19.567 38.4982 19.3233 37.9521 19.0133L37.486 18.7492L35.1432 20.3108L33.6904 18.8572L35.252 16.5152L34.9871 16.0483C34.6762 15.4997 34.4325 14.9085 34.2616 14.2919L34.1187 13.7743L31.3552 13.2214V11.1657L34.1187 10.6128L34.2616 10.0952C34.4325 9.47858 34.6762 8.88744 34.9871 8.33884L35.252 7.87188L33.6904 5.52988L35.144 4.07628L37.4852 5.63705L37.9521 5.37295C38.4982 5.06378 39.0902 4.81924 39.7102 4.64743L40.2269 4.50454L40.7781 1.74194H42.8347L43.3867 4.50454L43.9034 4.64743C44.5235 4.82009 45.1155 5.06378 45.6615 5.37295L46.1285 5.63705L48.4696 4.07628L49.9232 5.52988L48.3616 7.87188L48.6266 8.33884C48.9375 8.88744 49.1811 9.47858 49.3521 10.0952L49.495 10.6128L52.2584 11.1657V13.2214Z" fill="#FF0000"/>
<path d="M41.8058 6.09668C38.4448 6.09668 35.709 8.83164 35.709 12.1935C35.709 15.5553 38.4448 18.2902 41.8058 18.2902C45.1667 18.2902 47.9025 15.5553 47.9025 12.1935C47.9025 8.83164 45.1667 6.09668 41.8058 6.09668ZM41.8058 16.5483C39.4046 16.5483 37.4509 14.5946 37.4509 12.1935C37.4509 9.79234 39.4046 7.83862 41.8058 7.83862C44.2069 7.83862 46.1606 9.79234 46.1606 12.1935C46.1606 14.5946 44.2069 16.5483 41.8058 16.5483Z" fill="#FF0000"/>
</svg>
