<svg width="53" height="54" viewBox="0 0 53 54" fill="none" xmlns="http://www.w3.org/2000/svg">
<path d="M26.4994 26.5221C26.9715 26.5221 27.3542 26.1376 27.3542 25.6634C27.3542 25.1891 26.9715 24.8047 26.4994 24.8047C26.0273 24.8047 25.6445 25.1891 25.6445 25.6634C25.6445 26.1376 26.0273 26.5221 26.4994 26.5221Z" fill="#0085FF"/>
<path d="M26.4996 29.9569C28.8564 29.9569 30.7738 28.0308 30.7738 25.6634C30.7738 24.7902 30.5097 23.9779 30.0617 23.2995L32.6946 20.6548C33.3708 21.1047 34.1786 21.37 35.048 21.37C37.4048 21.37 39.3222 19.444 39.3222 17.0766C39.3222 14.7092 37.4048 12.7832 35.048 12.7832C32.6912 12.7832 30.7738 14.7092 30.7738 17.0766C30.7738 17.9499 31.038 18.7614 31.4859 19.4406L28.853 22.0853C28.1768 21.6354 27.369 21.37 26.4996 21.37C24.436 21.37 22.7093 22.8478 22.3118 24.8048H20.3585C20.0046 23.8078 19.0642 23.0874 17.9512 23.0874C16.5373 23.0874 15.3867 24.2432 15.3867 25.6634C15.3867 27.0837 16.5373 28.2395 17.9512 28.2395C19.0642 28.2395 20.0046 27.5191 20.3585 26.5221H22.3118C22.7093 28.4791 24.436 29.9569 26.4996 29.9569ZM35.048 14.5006C36.4619 14.5006 37.6125 15.6564 37.6125 17.0766C37.6125 18.4969 36.4619 19.6527 35.048 19.6527C33.6341 19.6527 32.4835 18.4969 32.4835 17.0766C32.4835 15.6564 33.6341 14.5006 35.048 14.5006ZM26.4996 23.0874C27.9135 23.0874 29.0641 24.2432 29.0641 25.6634C29.0641 27.0837 27.9135 28.2395 26.4996 28.2395C25.0857 28.2395 23.9351 27.0837 23.9351 25.6634C23.9351 24.2432 25.0857 23.0874 26.4996 23.0874ZM17.9512 26.5221C17.4794 26.5221 17.0964 26.1366 17.0964 25.6634C17.0964 25.1903 17.4794 24.8048 17.9512 24.8048C18.4231 24.8048 18.8061 25.1903 18.8061 25.6634C18.8061 26.1366 18.4231 26.5221 17.9512 26.5221Z" fill="#0085FF"/>
<path d="M35.0502 17.9361C35.5223 17.9361 35.905 17.5517 35.905 17.0774C35.905 16.6032 35.5223 16.2188 35.0502 16.2188C34.578 16.2188 34.1953 16.6032 34.1953 17.0774C34.1953 17.5517 34.578 17.9361 35.0502 17.9361Z" fill="#0085FF"/>
<path d="M1.02344 40.2616H3.42126V47.131H5.13094V38.5442H4.10941L6.84062 34.1538L9.57182 38.5442H8.55029V54.0005H10.26V40.2616H12.6578L6.84062 30.9131L1.02344 40.2616Z" fill="#0085FF"/>
<path d="M3.41797 48.8477H5.12765V53.9998H3.41797V48.8477Z" fill="#0085FF"/>
<path d="M42.7416 11.0658H44.4513V7.63112H43.4297L46.1609 3.24067L48.8921 7.63112H47.8706V23.0874H49.5803V9.34848H51.9781L46.1609 0L40.3438 9.34848H42.7416V11.0658Z" fill="#0085FF"/>
<path d="M52.158 35.9583C51.322 35.8183 50.6287 35.2645 50.3038 34.477C49.9799 33.6905 50.0807 32.8069 50.5731 32.114L51.0689 31.4167L46.4186 26.7446L45.7236 27.2435C45.1338 27.666 44.408 27.7819 43.7216 27.6093C44.1584 26.165 44.402 24.6477 44.4379 23.0875H44.4516V12.7833H42.7419V15.3456C40.0235 9.77102 34.3329 5.91382 27.7472 5.91382H25.2528C24.2535 5.91382 23.279 6.01858 22.3275 6.18774L18.0132 1.85396L16.766 3.10592C16.5403 3.33262 16.2035 3.39616 15.8812 3.26392C15.5811 3.14113 15.3871 2.85433 15.3871 2.53318V0.761719H8.54839V2.53318C8.54839 2.85433 8.35434 3.14113 8.03292 3.27337C7.73287 3.39788 7.39435 3.33176 7.17039 3.10592L5.92318 1.85396L1.08735 6.71067L2.33371 7.96435C2.55939 8.19104 2.62435 8.53022 2.49185 8.85309C2.36876 9.15363 2.08324 9.34855 1.76353 9.34855H0V16.218H1.76353C2.08239 16.218 2.3679 16.4129 2.5004 16.7367C2.62435 17.0363 2.55853 17.3764 2.33285 17.6031L1.08735 18.8559L5.92232 23.7126L7.16953 22.4606C7.39521 22.2348 7.73202 22.1695 8.05429 22.3026C8.35434 22.4254 8.54839 22.7122 8.54839 23.0334H8.56035C8.68431 29.2923 12.1883 34.8918 17.7824 37.7014L18.8065 38.2158V40.2611C18.8065 41.2083 19.5732 41.9785 20.5161 41.9785H23.9355V42.7067L24.7809 42.8475C25.3656 42.9454 25.8717 43.2545 26.2384 43.6959H20.5161C19.5732 43.6959 18.8065 44.4661 18.8065 45.4132V46.2719C18.8065 50.5327 22.2574 54.0001 26.5 54.0001C28.9175 54.0001 31.076 52.8718 32.4873 51.114C32.8566 51.0917 33.2259 51.151 33.5704 51.2935C34.3508 51.6181 34.8996 52.311 35.0381 53.15L35.18 54.0001H41.758L41.8956 53.1551C42.035 52.3145 42.5864 51.6181 43.3711 51.2926C44.1524 50.9672 45.0329 51.0668 45.7236 51.5631L46.4186 52.0612L51.0698 47.3891L50.5748 46.6935C50.0807 45.9989 49.9807 45.1136 50.3055 44.3244C50.6295 43.5387 51.3211 42.9866 52.1537 42.8475L53 42.7067V36.0991L52.158 35.9583ZM32.4839 43.6959H32.083C31.7231 43.1566 31.4333 42.5839 31.2204 41.9785H32.4839C32.6736 41.9785 32.8532 41.9399 33.0233 41.8823C33.9662 43.9612 36.0494 45.4132 38.4677 45.4132C41.7666 45.4132 44.4516 42.717 44.4516 39.4025C44.4516 36.7388 42.753 34.4908 40.3638 33.6982C40.7561 33.2457 41.1254 32.7751 41.4665 32.284C44.2995 33.4836 46.1613 36.2665 46.1613 39.4025C46.1613 43.6632 42.7103 47.1306 38.4677 47.1306C36.9265 47.1306 35.4596 46.6764 34.1935 45.8228V45.4132C34.1935 44.4661 33.4268 43.6959 32.4839 43.6959ZM35.9032 35.3246C35.4373 35.6268 34.9578 35.9119 34.4534 36.1652L34.1935 36.2957V24.8048H35.9032V35.3246ZM34.1935 38.2158L35.2176 37.7014C36.5914 37.011 37.8369 36.1498 38.9405 35.1546C41.0938 35.3924 42.7419 37.1879 42.7419 39.4025C42.7419 41.7698 40.8245 43.6959 38.4677 43.6959C36.111 43.6959 34.1935 41.7698 34.1935 39.4025V38.2158ZM5.96165 21.2447L5.92318 21.2834L3.50569 18.8542L3.54331 18.8164C4.25966 18.0977 4.47081 17.0226 4.07331 16.0609C3.68606 15.1129 2.77908 14.5006 1.76353 14.5006H1.70968V11.0659H1.76353C2.77908 11.0659 3.68521 10.4537 4.08015 9.48766C4.46995 8.54396 4.25881 7.46889 3.54331 6.75017L3.50569 6.71153L5.92318 4.28232L5.96165 4.3201C6.67715 5.03882 7.74569 5.2492 8.70482 4.85248C9.64856 4.46436 10.2581 3.5533 10.2581 2.53318V2.47908H13.6774V2.53318C13.6774 3.5533 14.2869 4.46436 15.2495 4.86107C16.1906 5.25177 17.26 5.03968 17.9747 4.32182L18.0132 4.28318L20.3691 6.64971C19.18 7.01551 18.0525 7.51955 16.9916 8.12922C15.7042 6.73128 13.8775 5.91382 11.9677 5.91382C8.19705 5.91382 5.12903 8.99563 5.12903 12.7833C5.12903 15.4263 6.65492 17.8057 8.9835 18.9452C8.85185 19.5205 8.74756 20.1061 8.67747 20.7029C7.73885 20.3174 6.67458 20.5295 5.96165 21.2447ZM10.9189 14.122C10.5171 13.8017 10.2581 13.3165 10.2581 12.7833C10.2581 11.8362 11.0249 11.0659 11.9677 11.0659C12.3259 11.0659 12.6602 11.1887 12.944 11.3896C12.1806 12.2277 11.5019 13.1414 10.9189 14.122ZM14.1758 10.1677C13.5663 9.64737 12.7901 9.34855 11.9677 9.34855C10.082 9.34855 8.54839 10.889 8.54839 12.7833C8.54839 13.9571 9.16131 15.0305 10.1093 15.6547C9.86655 16.1802 9.64856 16.7186 9.45965 17.2716C7.86537 16.37 6.83871 14.6629 6.83871 12.7833C6.83871 9.9419 9.13908 7.63118 11.9677 7.63118C13.2987 7.63118 14.5716 8.167 15.5205 9.08322C15.0529 9.42154 14.6058 9.7839 14.1758 10.1677ZM18.5466 36.1652C18.0422 35.9119 17.5618 35.626 17.0968 35.3246V31.6743H18.8065V36.2957L18.5466 36.1652ZM15.3871 29.9569V34.0348C12.1626 31.2201 10.2581 27.1327 10.2581 22.6933C10.2581 14.3882 16.9848 7.63118 25.2528 7.63118H27.7472C36.0152 7.63118 42.7419 14.3882 42.7419 22.6933C42.7419 27.1327 40.8374 31.2201 37.6129 34.0348V23.0875H32.4839V40.2611H29.0645V31.6743H23.9355V40.2611H20.5161V29.9569H15.3871ZM27.3548 40.2611H25.6452V33.3917H27.3548V40.2611ZM28.2097 43.6675C27.9259 42.9789 27.4625 42.4147 26.8992 41.9785H29.4321C29.5996 42.571 29.827 43.1455 30.1074 43.6959H28.2182C28.2148 43.6864 28.2131 43.677 28.2097 43.6675ZM26.5 52.2827C23.2012 52.2827 20.5161 49.5864 20.5161 46.2719V45.4132H32.4839V46.2719C32.4839 49.5864 29.7988 52.2827 26.5 52.2827ZM51.2903 41.2941C50.1346 41.6634 49.1994 42.5186 48.7258 43.6675C48.2514 44.8173 48.3112 46.0882 48.8677 47.1718L46.2023 49.8483C45.1252 49.2885 43.8609 49.2292 42.7171 49.7049C41.5734 50.1806 40.7202 51.12 40.3518 52.2818H36.5845C36.2178 51.1218 35.3672 50.1815 34.2235 49.7058C33.985 49.6062 33.7371 49.5392 33.4866 49.486C33.7388 48.9347 33.932 48.3517 34.0499 47.7394C35.4014 48.4667 36.9042 48.848 38.4677 48.848C43.6523 48.848 47.871 44.6104 47.871 39.4025C47.871 35.6612 45.6988 32.3355 42.3735 30.8148C42.653 30.3064 42.9069 29.7835 43.1326 29.246C44.161 29.5525 45.2543 29.4477 46.2023 28.9566L48.8669 31.6331C48.3104 32.715 48.2505 33.9859 48.7241 35.1348C49.1985 36.2846 50.1346 37.1407 51.2903 37.5108V41.2941Z" fill="#0085FF"/>
</svg>
