<svg width="98" height="99" viewBox="0 0 98 99" fill="none" xmlns="http://www.w3.org/2000/svg">
<rect y="0.649414" width="98" height="98" rx="5" fill="#DC3545"/>
<g clip-path="url(#clip0_81_609)">
<path d="M75.4965 53.01V52.26" stroke="white" stroke-width="1.875" stroke-linecap="round" stroke-linejoin="round"/>
<path d="M75.4965 48.6867V40.6467" stroke="white" stroke-width="1.875" stroke-linecap="round" stroke-linejoin="round" stroke-dasharray="1.34 3.57"/>
<path d="M75.4965 38.8604V38.1104" stroke="white" stroke-width="1.875" stroke-linecap="round" stroke-linejoin="round"/>
<path d="M26.5035 53.01V52.26" stroke="white" stroke-width="1.875" stroke-linecap="round" stroke-linejoin="round"/>
<path d="M26.5035 48.6867V40.6467" stroke="white" stroke-width="1.875" stroke-linecap="round" stroke-linejoin="round" stroke-dasharray="1.34 3.57"/>
<path d="M26.5035 38.8604V38.1104" stroke="white" stroke-width="1.875" stroke-linecap="round" stroke-linejoin="round"/>
<path d="M72.971 55.5356H72.221" stroke="white" stroke-width="1.875" stroke-linecap="round" stroke-linejoin="round"/>
<path d="M68.2265 55.5356H31.7762" stroke="white" stroke-width="1.875" stroke-linecap="round" stroke-linejoin="round" stroke-dasharray="1.5 3.99"/>
<path d="M29.779 55.5356H29.029" stroke="white" stroke-width="1.875" stroke-linecap="round" stroke-linejoin="round"/>
<path d="M72.971 35.585H72.221" stroke="white" stroke-width="1.875" stroke-linecap="round" stroke-linejoin="round"/>
<path d="M68.2265 35.585H31.7762" stroke="white" stroke-width="1.875" stroke-linecap="round" stroke-linejoin="round" stroke-dasharray="1.5 3.99"/>
<path d="M29.779 35.585H29.029" stroke="white" stroke-width="1.875" stroke-linecap="round" stroke-linejoin="round"/>
<path d="M39.2375 20.9375H80.295C81.2712 20.9375 82.0625 21.7287 82.0625 22.705V39.3319" stroke="white" stroke-width="1.875" stroke-miterlimit="10" stroke-linecap="round" stroke-linejoin="round"/>
<path d="M19.9375 59.3138V22.705C19.9375 21.7287 20.7288 20.9375 21.705 20.9375H34.8625" stroke="white" stroke-width="1.875" stroke-miterlimit="10" stroke-linecap="round" stroke-linejoin="round"/>
<path d="M19.9375 63.6887V70.1825C19.9375 71.1587 20.7287 71.9512 21.705 71.9512H61.925" stroke="white" stroke-width="1.875" stroke-miterlimit="10" stroke-linecap="round" stroke-linejoin="round"/>
<path d="M82.0625 43.7073V70.1825C82.0625 71.1588 81.2712 71.9513 80.295 71.9513H75.2148" stroke="white" stroke-width="1.875" stroke-miterlimit="10" stroke-linecap="round" stroke-linejoin="round"/>
<path d="M19.9375 29.0188H82.0625" stroke="white" stroke-width="1.875" stroke-miterlimit="10" stroke-linecap="round" stroke-linejoin="round"/>
<circle cx="24.4833" cy="24.9783" r="0.9375" fill="white"/>
<circle cx="28.7764" cy="24.9783" r="0.9375" fill="white"/>
<circle cx="33.0696" cy="24.9783" r="0.9375" fill="white"/>
<path d="M46.8429 49.6008L50.033 41.5195L53.2233 49.6008" stroke="white" stroke-width="1.875" stroke-miterlimit="10" stroke-linecap="round" stroke-linejoin="round"/>
<path d="M47.7893 47.6165H52.2922" stroke="white" stroke-width="1.875" stroke-miterlimit="10" stroke-linecap="round" stroke-linejoin="round"/>
<path d="M56.4382 49.6008V41.5345L62.101 49.6008V41.5195" stroke="white" stroke-width="1.875" stroke-miterlimit="10" stroke-linecap="round" stroke-linejoin="round"/>
<path d="M70.829 45.5602C70.829 47.7868 69.5932 49.5488 67.6325 49.583C66.9799 49.5944 65.2932 49.6008 65.2932 49.6008L65.2768 41.5195C65.2768 41.5195 66.7943 41.5195 67.5655 41.5195C69.716 41.5195 70.829 43.3334 70.829 45.5602Z" stroke="white" stroke-width="1.875" stroke-miterlimit="10" stroke-linecap="round" stroke-linejoin="round"/>
<path d="M35.3781 43.379C35.3781 44.406 34.5456 45.2385 33.5186 45.2385C33.0093 45.2385 31.1713 45.2468 31.1713 45.2468V41.5195C31.1713 41.5195 32.9169 41.5195 33.5186 41.5195C34.5456 41.5195 35.3781 42.352 35.3781 43.379Z" stroke="white" stroke-width="1.875" stroke-miterlimit="10" stroke-linecap="round" stroke-linejoin="round"/>
<path d="M36.1036 47.416C36.1036 48.6173 35.1298 49.5912 33.9284 49.5912C33.3326 49.5912 31.171 49.6008 31.171 49.6008V45.2407C31.171 45.2407 33.2244 45.2407 33.9284 45.2407C35.1298 45.2407 36.1036 46.2146 36.1036 47.416Z" stroke="white" stroke-width="1.875" stroke-miterlimit="10" stroke-linecap="round" stroke-linejoin="round"/>
<path d="M40.2703 45.7439L43.6649 49.6009" stroke="white" stroke-width="1.875" stroke-miterlimit="10" stroke-linecap="round" stroke-linejoin="round"/>
<path d="M39.2958 45.7292V49.6007" stroke="white" stroke-width="1.875" stroke-miterlimit="10" stroke-linecap="round" stroke-linejoin="round"/>
<path d="M43.6649 43.6198C43.6649 44.7797 42.6478 45.72 41.4458 45.72C40.8497 45.72 39.2957 45.7293 39.2957 45.7293L39.2983 41.5195C39.2983 41.5195 40.7414 41.5195 41.4458 41.5195C42.6479 41.5197 43.6649 42.4599 43.6649 43.6198Z" stroke="white" stroke-width="1.875" stroke-miterlimit="10" stroke-linecap="round" stroke-linejoin="round"/>
<path d="M77.2643 38.1102H73.7286C73.3103 38.1102 72.971 37.771 72.971 37.3526V33.817C72.971 33.3986 73.3103 33.0593 73.7286 33.0593H77.2643C77.6826 33.0593 78.0219 33.3986 78.0219 33.817V37.3526C78.0219 37.7711 77.6826 38.1102 77.2643 38.1102Z" stroke="white" stroke-width="1.875" stroke-miterlimit="10" stroke-linecap="round" stroke-linejoin="round"/>
<path d="M28.2714 38.1102H24.7358C24.3174 38.1102 23.9781 37.771 23.9781 37.3526V33.817C23.9781 33.3986 24.3174 33.0593 24.7358 33.0593H28.2714C28.6898 33.0593 29.029 33.3986 29.029 33.817V37.3526C29.029 37.7711 28.6898 38.1102 28.2714 38.1102Z" stroke="white" stroke-width="1.875" stroke-miterlimit="10" stroke-linecap="round" stroke-linejoin="round"/>
<path d="M77.2643 58.0609H73.7286C73.3103 58.0609 72.971 57.7216 72.971 57.3033V53.7676C72.971 53.3493 73.3103 53.01 73.7286 53.01H77.2643C77.6826 53.01 78.0219 53.3493 78.0219 53.7676V57.3033C78.0219 57.7216 77.6826 58.0609 77.2643 58.0609Z" stroke="white" stroke-width="1.875" stroke-miterlimit="10" stroke-linecap="round" stroke-linejoin="round"/>
<path d="M28.2714 58.0609H24.7358C24.3174 58.0609 23.9781 57.7216 23.9781 57.3033V53.7676C23.9781 53.3493 24.3174 53.01 24.7358 53.01H28.2714C28.6898 53.01 29.029 53.3493 29.029 53.7676V57.3033C29.029 57.7216 28.6898 58.0609 28.2714 58.0609Z" stroke="white" stroke-width="1.875" stroke-miterlimit="10" stroke-linecap="round" stroke-linejoin="round"/>
<path d="M70.9096 63.0504L59.4286 58.6823C58.9303 58.4927 58.3672 58.6133 57.9902 58.9903C57.6132 59.3673 57.4927 59.9304 57.6822 60.4286L62.0503 71.9097C62.314 72.6025 62.9817 73.0573 63.723 73.0487L68.8455 72.9895L71.9896 69.8454L72.0487 64.7229C72.0572 63.9818 71.6023 63.314 70.9096 63.0504ZM67.276 68.276C66.487 69.065 65.2078 69.065 64.4188 68.276C63.6298 67.487 63.6298 66.2079 64.4188 65.4189C65.2078 64.6299 66.4871 64.6299 67.276 65.4189C68.065 66.2079 68.065 67.487 67.276 68.276Z" stroke="white" stroke-width="1.875" stroke-miterlimit="10" stroke-linecap="round" stroke-linejoin="round"/>
<path d="M57.9902 58.9902L64.4189 65.4189" stroke="white" stroke-width="1.875" stroke-miterlimit="10" stroke-linecap="round" stroke-linejoin="round"/>
<path d="M71.3455 75.8469L75.3469 83.0627" stroke="white" stroke-width="1.875" stroke-miterlimit="10" stroke-linecap="round" stroke-linejoin="round"/>
<path d="M82.0625 76.3468L74.8467 72.3455" stroke="white" stroke-width="1.875" stroke-miterlimit="10" stroke-linecap="round" stroke-linejoin="round"/>
<path d="M68.6668 73.1682L72.1681 69.667C72.5626 69.2725 73.2022 69.2725 73.5967 69.667L74.8467 70.917C75.2412 71.3115 75.2412 71.9511 74.8467 72.3456L71.3455 75.8468C70.951 76.2413 70.3113 76.2413 69.9168 75.8468L68.6668 74.5968C68.2723 74.2023 68.2723 73.5627 68.6668 73.1682Z" stroke="white" stroke-width="1.875" stroke-miterlimit="10" stroke-linecap="round" stroke-linejoin="round"/>
</g>
<defs>
<clipPath id="clip0_81_609">
<rect width="64" height="64" fill="white" transform="translate(19 20)"/>
</clipPath>
</defs>
</svg>
