<svg width="98" height="99" viewBox="0 0 98 99" fill="none" xmlns="http://www.w3.org/2000/svg">
<rect y="0.649414" width="98" height="98" rx="5" fill="#076856"/>
<g clip-path="url(#clip0_81_646)">
<path d="M75.978 60.5958C76.7847 58.106 77.1944 55.5093 77.1944 52.8633C77.1944 50.2271 76.7876 47.6397 75.9859 45.1577C77.749 44.4956 79.3521 43.4356 80.6831 42.0259C82.9834 39.5908 84.1973 36.4053 84.1016 33.0571C83.9033 26.1445 78.1192 20.6831 71.2056 20.8804C67.8569 20.9761 64.7466 22.3701 62.4463 24.8057C61.2847 26.0357 60.4009 27.457 59.8223 28.9942C57.3398 28.1929 54.7524 27.7861 52.1152 27.7861C49.4765 27.7861 46.8872 28.1939 44.4033 28.9961C42.6118 24.2554 38.0268 20.875 32.6665 20.875C25.7509 20.875 20.1249 26.501 20.1249 33.416C20.1249 38.7759 23.5058 43.3604 28.2465 45.1514C27.4438 47.6358 27.0366 50.2251 27.0366 52.8633C27.0366 55.5093 27.4462 58.106 28.2529 60.5958C23.5087 62.3853 20.1249 66.9717 20.1249 72.3341C20.1249 74.2217 20.5341 76.0367 21.3412 77.7281C21.5644 78.1954 22.124 78.3936 22.5913 78.1705C23.058 77.9473 23.2563 77.3878 23.0336 76.9205C22.3476 75.483 21.9999 73.94 21.9999 72.3341C21.9999 66.4532 26.7851 61.6685 32.6665 61.6685C38.5483 61.6685 43.3335 66.4532 43.3335 72.3341C43.3335 78.2154 38.5483 83.0001 32.6665 83.0001C29.9838 83.0001 27.4199 82.0006 25.4472 80.1856C25.0659 79.835 24.4726 79.8599 24.1225 80.2408C23.7719 80.6222 23.7963 81.2149 24.1777 81.5655C26.4975 83.6998 29.5122 84.8751 32.6665 84.8751C38.0346 84.8751 42.6255 81.4845 44.4111 76.733C46.8921 77.5338 49.479 77.9405 52.1152 77.9405C54.7519 77.9405 57.3393 77.5338 59.8203 76.7335C61.6059 81.4849 66.1968 84.8751 71.5649 84.8751C78.4805 84.8751 84.1065 79.2491 84.1065 72.3341C84.1065 66.9717 80.7227 62.3848 75.978 60.5958ZM63.8096 26.0928C65.7656 24.0215 68.4116 22.8359 71.2598 22.7544C71.3633 22.7515 71.4658 22.75 71.5693 22.75C77.3106 22.75 82.062 27.3355 82.2271 33.1104C82.3086 35.958 81.2764 38.667 79.3203 40.7388C77.3643 42.8101 74.7183 43.9956 71.8701 44.0772C71.7666 44.0801 71.6636 44.0816 71.5606 44.0816C65.8193 44.0816 61.0679 39.4961 60.9028 33.7212C60.8208 30.8735 61.8535 28.1641 63.8096 26.0928ZM59.2944 74.9327C56.9844 75.6837 54.5737 76.0655 52.1152 76.0655C49.6577 76.0655 47.247 75.6837 44.937 74.9327C45.1142 74.0938 45.2085 73.2247 45.2085 72.3341C45.2085 65.419 39.582 59.7935 32.6665 59.7935C31.7705 59.7935 30.8964 59.8887 30.0532 60.0679C29.2958 57.7496 28.9116 55.3301 28.9116 52.8633C28.9116 50.4043 29.2939 47.9927 30.0463 45.6802C30.8916 45.8609 31.768 45.9566 32.6665 45.9566C34.8149 45.9566 36.9345 45.4038 38.7973 44.3584C39.2485 44.105 39.4091 43.5337 39.1557 43.0821C38.9023 42.6304 38.331 42.4702 37.8794 42.7237C36.2963 43.6118 34.4936 44.0816 32.6665 44.0816C26.7846 44.0816 21.9999 39.2969 21.9999 33.4155C21.9999 27.5347 26.7851 22.75 32.6665 22.75C38.5483 22.75 43.3335 27.5347 43.3335 33.416C43.3335 35.8765 42.4756 38.2769 40.9179 40.1758C40.5893 40.5757 40.6479 41.1665 41.0483 41.4951C41.4482 41.8233 42.039 41.7652 42.3676 41.3648C44.1992 39.1319 45.2085 36.3086 45.2085 33.4155C45.2085 32.5176 45.1123 31.6411 44.9321 30.7959C47.2441 30.0435 49.6562 29.6611 52.1152 29.6611C54.5737 29.6611 56.9849 30.043 59.2959 30.7944C59.0913 31.7622 58.9995 32.7608 59.0283 33.7749C59.2231 40.5655 64.8091 45.9571 71.5601 45.9566C71.6807 45.9566 71.8023 45.9551 71.9238 45.9512C72.6924 45.9292 73.4482 45.8379 74.1851 45.6822C74.937 47.9937 75.3193 50.4053 75.3193 52.8633C75.3193 55.3301 74.9346 57.7496 74.1777 60.0679C73.3345 59.8882 72.4605 59.7935 71.5649 59.7935C64.6494 59.7935 59.0234 65.419 59.0234 72.3341C59.0234 73.2252 59.1172 74.0943 59.2944 74.9327ZM71.5649 83.0001C65.6831 83.0001 60.8984 78.2154 60.8984 72.3345C60.8984 66.4532 65.6831 61.6685 71.5649 61.6685C77.4468 61.6685 82.2315 66.4532 82.2315 72.3345C82.2315 78.2154 77.4468 83.0001 71.5649 83.0001Z" fill="white"/>
<path d="M39.0503 27.8818C38.7271 27.662 38.3018 27.6655 37.9824 27.891C37.6631 28.1161 37.3213 28.3041 36.9619 28.4531C35.6738 27.4452 33.8071 27.457 32.5283 28.5688C31.8638 29.1469 31.4482 29.9462 31.3516 30.8095C29.9761 30.6049 28.7329 29.8476 27.9175 28.6864C27.7231 28.4101 27.395 28.2602 27.0596 28.2924C26.7231 28.3251 26.4307 28.5361 26.2935 28.8447C26.2666 28.9052 25.6357 30.3466 25.7163 32.1108C25.7778 33.4609 26.2607 35.2011 28.022 36.5449C27.3877 36.7494 26.7178 36.8442 26.0503 36.8173C25.6157 36.8002 25.2275 37.0829 25.1103 37.5009C24.9932 37.9189 25.1782 38.3627 25.5576 38.5737C27.0283 39.3906 28.604 39.7997 30.1436 39.7997C31.6226 39.7997 33.0679 39.4218 34.354 38.6655C35.9668 37.7167 37.1387 36.2641 37.7749 34.4902C37.7949 34.4452 37.8115 34.3984 37.8247 34.35C38.1519 33.3867 38.3233 32.3315 38.3233 31.2123C38.3233 31.1635 38.3218 31.1142 38.3198 31.0654C38.855 30.4345 39.2368 29.6869 39.4341 28.8788C39.5259 28.4989 39.3735 28.1015 39.0503 27.8818ZM36.4194 30.9199C36.438 31.0175 36.4478 31.1186 36.4478 31.2153C36.4478 32.1342 36.311 32.9853 36.0508 33.7543C36.0366 33.7895 36.0249 33.8261 36.0151 33.8637C35.5283 35.226 34.6421 36.3202 33.4033 37.0493C32.2695 37.7167 30.9683 38.0009 29.6421 37.9047C29.9458 37.7543 30.2393 37.5834 30.52 37.393C30.8013 37.2016 30.9575 36.873 30.9272 36.5336C30.897 36.1943 30.6851 35.8984 30.374 35.7602C28.6235 34.9824 27.6875 33.7451 27.5923 32.0834C27.5728 31.7431 27.5898 31.4164 27.6265 31.1171C28.916 32.1948 30.5679 32.7826 32.292 32.7382C32.8003 32.725 33.2056 32.3095 33.2056 31.8012V31.2324C33.2056 31.2284 33.2056 31.2241 33.2056 31.2197C33.1992 30.7455 33.4004 30.2949 33.7588 29.9838C34.4287 29.4013 35.4473 29.4721 36.0298 30.142C36.147 30.2763 36.2964 30.3715 36.4595 30.4218C36.4024 30.579 36.3872 30.7504 36.4194 30.9199Z" fill="white"/>
<path d="M68.48 34.1555H69.8091V39.7459C69.8091 40.2634 70.229 40.6834 70.7466 40.6834C71.2647 40.6834 71.6841 40.2634 71.6841 39.7459V34.1555H73.1318C73.6494 34.1555 74.0693 33.7356 74.0693 33.218C74.0693 32.7004 73.6494 32.2805 73.1318 32.2805H71.6841V29.6575C71.6841 28.7571 72.417 28.0242 73.3179 28.0242H74.5317C75.0493 28.0242 75.4692 27.6042 75.4692 27.0867C75.4692 26.5686 75.0493 26.1492 74.5317 26.1492H73.3179C71.3833 26.1492 69.8091 27.7229 69.8091 29.6575V32.2805H68.48C67.9624 32.2805 67.5425 32.7004 67.5425 33.218C67.5425 33.7356 67.9624 34.1555 68.48 34.1555Z" fill="white"/>
<path d="M30.5396 77.1828C30.7627 77.1828 30.9858 77.1251 31.1846 77.0104L37.5659 73.3243C37.9639 73.0949 38.2109 72.6666 38.2109 72.2072C38.2109 71.7482 37.9639 71.32 37.5659 71.0905L31.1846 67.4044C30.7871 67.1744 30.293 67.1744 29.895 67.4044C29.4971 67.6339 29.2495 68.0621 29.2495 68.5216V75.8932C29.2495 76.3527 29.4971 76.7809 29.895 77.0104C30.0938 77.1256 30.3164 77.1828 30.5396 77.1828ZM31.1245 69.5353L35.7515 72.2076L31.1245 74.88V69.5353Z" fill="white"/>
<path d="M75.6387 65.6946H67.4912C66.0762 65.6946 64.9248 66.8459 64.9248 68.2615V76.4075C64.9248 77.823 66.0762 78.9744 67.4912 78.9744H75.6387C77.0537 78.9744 78.2051 77.823 78.2051 76.4075V68.2615C78.2051 66.8459 77.0537 65.6946 75.6387 65.6946ZM76.3301 76.4075C76.3301 76.7893 76.02 77.0994 75.6387 77.0994H67.4912C67.1099 77.0994 66.7998 76.7893 66.7998 76.4075V68.2615C66.7998 67.8801 67.1099 67.5696 67.4912 67.5696H75.6387C76.02 67.5696 76.3301 67.8801 76.3301 68.2615V76.4075Z" fill="white"/>
<path d="M71.5649 69.5005C70.0024 69.5005 68.731 70.772 68.731 72.3345C68.731 73.897 70.0024 75.168 71.5649 75.168C73.1274 75.168 74.3989 73.897 74.3989 72.3345C74.3989 70.772 73.1274 69.5005 71.5649 69.5005ZM71.5649 73.293C71.0361 73.293 70.606 72.8628 70.606 72.3345C70.606 71.8057 71.0361 71.3755 71.5649 71.3755C72.0938 71.3755 72.5239 71.8057 72.5239 72.3345C72.5239 72.8628 72.0938 73.293 71.5649 73.293Z" fill="white"/>
<path d="M58.9004 43.1365C58.3823 43.1365 57.9629 43.5564 57.9629 44.074V44.4944C56.6416 45.2732 55.2525 45.9456 53.8242 46.4959C52.6807 46.9363 51.4995 47.3025 50.3047 47.5891C50.1211 47.448 49.8926 47.3626 49.6436 47.3626H45.3511C44.314 47.3626 43.4707 48.2063 43.4707 49.2429V54.1663C43.4707 55.2034 44.314 56.0466 45.3511 56.0466H46.209L46.5342 62.2976C46.5601 62.7981 46.9741 63.1863 47.4697 63.1863C47.4858 63.1863 47.5024 63.1858 47.519 63.1848C48.0361 63.158 48.4336 62.7171 48.4067 62.2L48.0864 56.0466H49.6436C49.8921 56.0466 50.1211 55.9617 50.3042 55.8206C51.065 56.0042 51.8218 56.22 52.5615 56.4656C53.0532 56.6282 53.5835 56.3621 53.7466 55.8709C53.9097 55.3792 53.6431 54.8484 53.1519 54.6858C52.3574 54.4221 51.5449 54.1902 50.7275 53.9934V49.4168C52.0078 49.1101 53.273 48.717 54.4981 48.2454C55.6826 47.7888 56.8428 47.2542 57.9624 46.6487V56.763C57.5503 56.5403 57.1338 56.3279 56.7144 56.1262C56.2476 55.9016 55.6875 56.0979 55.4634 56.5647C55.2388 57.0315 55.4351 57.5916 55.9019 57.8162C56.6001 58.1521 57.2905 58.5222 57.9624 58.9168V59.3352C57.9624 59.8533 58.3823 60.2727 58.8999 60.2727C59.4175 60.2727 59.8374 59.8533 59.8374 59.3352V44.074C59.8379 43.5564 59.418 43.1365 58.9004 43.1365ZM48.853 54.1712L45.3457 54.1663L45.3511 49.2376H48.853V54.1712Z" fill="white"/>
</g>
<defs>
<clipPath id="clip0_81_646">
<rect width="64" height="64" fill="white" transform="translate(20 21)"/>
</clipPath>
</defs>
</svg>
