<svg width="98" height="99" viewBox="0 0 98 99" fill="none" xmlns="http://www.w3.org/2000/svg">
<rect y="0.649414" width="98" height="98" rx="5" fill="#0085FF"/>
<path d="M77 32.9999H75V31.9999H76C76.7957 31.9999 77.5587 31.6839 78.1213 31.1213C78.6839 30.5586 79 29.7956 79 28.9999C79 28.2043 78.6839 27.4412 78.1213 26.8786C77.5587 26.316 76.7957 25.9999 76 25.9999H75V20.9999C75.0015 20.8434 74.9649 20.6888 74.8935 20.5495C74.8221 20.4101 74.7179 20.2902 74.59 20.1999C74.4661 20.1061 74.3219 20.0428 74.1691 20.015C74.0162 19.9872 73.859 19.9958 73.71 20.0399L60.85 23.9999H54C53.7348 23.9999 53.4804 24.1053 53.2929 24.2928C53.1054 24.4804 53 24.7347 53 24.9999V25.9999H51C50.7348 25.9999 50.4804 26.1053 50.2929 26.2928C50.1054 26.4804 50 26.7347 50 26.9999V30.9999C50 31.2652 50.1054 31.5195 50.2929 31.707C50.4804 31.8946 50.7348 31.9999 51 31.9999H53V32.9999H47V23.9999C47 23.7347 46.8946 23.4804 46.7071 23.2928C46.5196 23.1053 46.2652 22.9999 46 22.9999H26C25.7348 22.9999 25.4804 23.1053 25.2929 23.2928C25.1054 23.4804 25 23.7347 25 23.9999V32.9999H23C22.2051 33.0023 21.4434 33.3191 20.8813 33.8812C20.3192 34.4433 20.0024 35.205 20 35.9999V67.9999C20.0024 68.7949 20.3192 69.5565 20.8813 70.1186C21.4434 70.6807 22.2051 70.9976 23 70.9999H46V73.9999H40C39.7348 73.9999 39.4804 74.1053 39.2929 74.2928C39.1054 74.4804 39 74.7347 39 74.9999V78.9999C39 79.2652 39.1054 79.5195 39.2929 79.707C39.4804 79.8946 39.7348 79.9999 40 79.9999H60C60.2652 79.9999 60.5196 79.8946 60.7071 79.707C60.8946 79.5195 61 79.2652 61 78.9999V74.9999C61 74.7347 60.8946 74.4804 60.7071 74.2928C60.5196 74.1053 60.2652 73.9999 60 73.9999H54V70.9999H77C77.7949 70.9976 78.5566 70.6807 79.1187 70.1186C79.6808 69.5565 79.9976 68.7949 80 67.9999V35.9999C79.9976 35.205 79.6808 34.4433 79.1187 33.8812C78.5566 33.3191 77.7949 33.0023 77 32.9999ZM75 27.9999H76C76.2652 27.9999 76.5196 28.1053 76.7071 28.2928C76.8946 28.4804 77 28.7347 77 28.9999C77 29.2652 76.8946 29.5195 76.7071 29.707C76.5196 29.8946 76.2652 29.9999 76 29.9999H75V27.9999ZM62 25.7399L73 22.3499V35.6499L62 32.2599V25.7399ZM55 25.9999H60V31.9999H55V25.9999ZM57.85 33.9999L57.13 38.9999H56V33.9999H57.85ZM52 29.9999V27.9999H53V29.9999H52ZM27 24.9999H45V38.9999H27V24.9999ZM59 75.9999V77.9999H41V75.9999H59ZM48 73.9999V70.9999H52V73.9999H48ZM78 67.9999C78 68.2652 77.8946 68.5195 77.7071 68.707C77.5196 68.8946 77.2652 68.9999 77 68.9999H23C22.7348 68.9999 22.4804 68.8946 22.2929 68.707C22.1054 68.5195 22 68.2652 22 67.9999V66.9999H78V67.9999ZM78 64.9999H22V35.9999C22 35.7347 22.1054 35.4804 22.2929 35.2928C22.4804 35.1053 22.7348 34.9999 23 34.9999H25V39.9999C25 40.2652 25.1054 40.5195 25.2929 40.707C25.4804 40.8946 25.7348 40.9999 26 40.9999H46C46.2652 40.9999 46.5196 40.8946 46.7071 40.707C46.8946 40.5195 47 40.2652 47 39.9999V34.9999H54V39.9999C54 40.2652 54.1054 40.5195 54.2929 40.707C54.4804 40.8946 54.7348 40.9999 55 40.9999H58C58.2409 40.9999 58.4738 40.9129 58.6557 40.7549C58.8375 40.5969 58.9563 40.3785 58.99 40.1399L59.87 33.9999H60.85L73.71 37.9599C73.8039 37.9886 73.9018 38.0021 74 37.9999C74.264 37.9961 74.5161 37.8895 74.7028 37.7028C74.8895 37.5161 74.9961 37.2639 75 36.9999V34.9999H77C77.2652 34.9999 77.5196 35.1053 77.7071 35.2928C77.8946 35.4804 78 35.7347 78 35.9999V64.9999Z" fill="white"/>
<path d="M25 63H51C51.2652 63 51.5196 62.8946 51.7071 62.7071C51.8946 62.5196 52 62.2652 52 62V46C52 45.7348 51.8946 45.4804 51.7071 45.2929C51.5196 45.1054 51.2652 45 51 45H25C24.7348 45 24.4804 45.1054 24.2929 45.2929C24.1054 45.4804 24 45.7348 24 46V62C24 62.2652 24.1054 62.5196 24.2929 62.7071C24.4804 62.8946 24.7348 63 25 63ZM26 61V47.789L37.476 54.852C37.6336 54.949 37.815 55.0003 38 55.0003C38.185 55.0003 38.3664 54.949 38.524 54.852L50 47.789V61H26ZM28.533 47H47.467L38 52.826L28.533 47Z" fill="white"/>
<path d="M55 57H57V60C57 60.2652 57.1054 60.5196 57.2929 60.7071C57.4804 60.8946 57.7348 61 58 61H75C75.2652 61 75.5196 60.8946 75.7071 60.7071C75.8946 60.5196 76 60.2652 76 60V48C76 47.7348 75.8946 47.4804 75.7071 47.2929C75.5196 47.1054 75.2652 47 75 47H74V44C74 43.7348 73.8946 43.4804 73.7071 43.2929C73.5196 43.1054 73.2652 43 73 43H55C54.7348 43 54.4804 43.1054 54.2929 43.2929C54.1054 43.4804 54 43.7348 54 44V56C54 56.2652 54.1054 56.5196 54.2929 56.7071C54.4804 56.8946 54.7348 57 55 57ZM74 59H59V49H74V59ZM56 45H72V47H58C57.7348 47 57.4804 47.1054 57.2929 47.2929C57.1054 47.4804 57 47.7348 57 48V55H56V45Z" fill="white"/>
<path d="M61 51H63V53H61V51Z" fill="white"/>
<path d="M65 51H72V53H65V51Z" fill="white"/>
<path d="M61 55H65V57H61V55Z" fill="white"/>
<path d="M67 55H72V57H67V55Z" fill="white"/>
<path d="M33.474 35.8512C33.619 35.9409 33.7845 35.992 33.9548 35.9997C34.1251 36.0074 34.2945 35.9714 34.447 35.8952L40.447 32.8952C40.6134 32.8123 40.7534 32.6846 40.8512 32.5265C40.9491 32.3684 41.0009 32.1862 41.0009 32.0002C41.0009 31.8143 40.9491 31.632 40.8512 31.4739C40.7534 31.3158 40.6134 31.1882 40.447 31.1052L34.447 28.1052C34.2945 28.029 34.1251 27.9931 33.9548 28.0008C33.7845 28.0085 33.619 28.0596 33.474 28.1493C33.329 28.239 33.2093 28.3642 33.1264 28.5131C33.0434 28.6621 32.9999 28.8297 33 29.0002V35.0002C32.9999 35.1707 33.0434 35.3384 33.1264 35.4873C33.2093 35.6363 33.329 35.7615 33.474 35.8512ZM35 30.6182L37.764 32.0002L35 33.3822V30.6182Z" fill="white"/>
</svg>
