<svg width="98" height="99" viewBox="0 0 98 99" fill="none" xmlns="http://www.w3.org/2000/svg">
<rect y="0.297363" width="98" height="98.704" rx="5" fill="#FF800B"/>
<path d="M49.4516 48.1499H54.533C55.0163 48.1499 55.408 47.7581 55.408 47.2749V42.1936C55.408 41.7104 55.0163 41.3186 54.533 41.3186H49.4516C48.9684 41.3186 48.5766 41.7104 48.5766 42.1936V47.2749C48.5766 47.7581 48.9684 48.1499 49.4516 48.1499ZM50.3266 43.0686H53.658V46.3999H50.3266V43.0686ZM59.4365 48.1499H64.5177C65.001 48.1499 65.3927 47.7581 65.3927 47.2749V42.1936C65.3927 41.7104 65.001 41.3186 64.5177 41.3186H59.4365C58.9533 41.3186 58.5615 41.7104 58.5615 42.1936V47.2749C58.5615 47.7581 58.9533 48.1499 59.4365 48.1499ZM60.3115 43.0686H63.6427V46.3999H60.3115V43.0686ZM49.4516 58.1348H54.533C55.0163 58.1348 55.408 57.743 55.408 57.2598V52.1784C55.408 51.6951 55.0163 51.3034 54.533 51.3034H49.4516C48.9684 51.3034 48.5766 51.6951 48.5766 52.1784V57.2598C48.5766 57.743 48.9684 58.1348 49.4516 58.1348ZM50.3266 53.0534H53.658V56.3848H50.3266V53.0534ZM44.5483 51.3034H39.467C38.9837 51.3034 38.592 51.6951 38.592 52.1784V57.2598C38.592 57.743 38.9837 58.1348 39.467 58.1348H44.5483C45.0315 58.1348 45.4233 57.743 45.4233 57.2598V52.1784C45.4233 51.6951 45.0315 51.3034 44.5483 51.3034ZM43.6733 56.3848H40.342V53.0534H43.6733V56.3848ZM44.5483 41.3186H39.467C38.9837 41.3186 38.592 41.7104 38.592 42.1936V47.2749C38.592 47.7581 38.9837 48.1499 39.467 48.1499H44.5483C45.0315 48.1499 45.4233 47.7581 45.4233 47.2749V42.1936C45.4233 41.7104 45.0315 41.3186 44.5483 41.3186ZM43.6733 46.3999H40.342V43.0686H43.6733V46.3999ZM44.5483 61.2881H39.467C38.9837 61.2881 38.592 61.6799 38.592 62.1631V67.2445C38.592 67.7277 38.9837 68.1195 39.467 68.1195H44.5483C45.0315 68.1195 45.4233 67.7277 45.4233 67.2445V62.1631C45.4233 61.6797 45.0315 61.2881 44.5483 61.2881ZM43.6733 66.3695H40.342V63.0381H43.6733V66.3695ZM34.5635 41.3186H29.4823C28.999 41.3186 28.6073 41.7104 28.6073 42.1936V47.2749C28.6073 47.7581 28.999 48.1499 29.4823 48.1499H34.5635C35.0468 48.1499 35.4385 47.7581 35.4385 47.2749V42.1936C35.4385 41.7104 35.0468 41.3186 34.5635 41.3186ZM33.6885 46.3999H30.3573V43.0686H33.6885V46.3999ZM34.5635 51.3034H29.4823C28.999 51.3034 28.6073 51.6951 28.6073 52.1784V57.2598C28.6073 57.743 28.999 58.1348 29.4823 58.1348H34.5635C35.0468 58.1348 35.4385 57.743 35.4385 57.2598V52.1784C35.4385 51.6951 35.0468 51.3034 34.5635 51.3034ZM33.6885 56.3848H30.3573V53.0534H33.6885V56.3848ZM34.5635 61.2881H29.4823C28.999 61.2881 28.6073 61.6799 28.6073 62.1631V67.2445C28.6073 67.7277 28.999 68.1195 29.4823 68.1195H34.5635C35.0468 68.1195 35.4385 67.7277 35.4385 67.2445V62.1631C35.4385 61.6797 35.0468 61.2881 34.5635 61.2881ZM33.6885 66.3695H30.3573V63.0381H33.6885V66.3695ZM77.2282 56.707C76.9866 56.2885 77.1301 55.7534 77.5486 55.5116L80.3534 53.8924C80.772 53.6509 81.307 53.7941 81.5488 54.2127C81.7904 54.6312 81.6469 55.1664 81.2284 55.4081L78.4236 57.0274C78.2858 57.1069 78.1354 57.1446 77.987 57.1446C77.6845 57.1446 77.3904 56.9878 77.2282 56.707ZM73.2923 52.6531L75.0004 49.6945C75.2421 49.2761 75.7773 49.1325 76.1958 49.3743C76.6143 49.6159 76.7576 50.151 76.5161 50.5695L74.808 53.5281C74.6459 53.8088 74.3517 53.9658 74.0494 53.9658C73.9009 53.9658 73.7505 53.9279 73.6128 53.8485C73.1941 53.6067 73.0506 53.0716 73.2923 52.6531ZM82.875 61.5926C82.875 62.0759 82.4832 62.4676 82 62.4676H78.5838C78.1005 62.4676 77.7088 62.0759 77.7088 61.5926C77.7088 61.1094 78.1005 60.7176 78.5838 60.7176H82C82.4832 60.7176 82.875 61.1094 82.875 61.5926ZM74.5835 62.2489C75.2559 61.7794 75.7376 61.0955 75.9524 60.294C76.1937 59.3932 76.0698 58.4525 75.6035 57.645C75.1374 56.8375 74.3845 56.2599 73.4839 56.0185C73.2822 55.9645 73.0786 55.9297 72.875 55.912V32.0131C72.875 29.2255 70.6031 26.9529 67.8105 26.9469L64.3891 26.9396V23C64.3891 22.5168 63.9974 22.125 63.5141 22.125H58.128C57.6447 22.125 57.253 22.5168 57.253 23V26.9247L50.568 26.9106V23C50.568 22.5168 50.1763 22.125 49.693 22.125H44.3069C43.8236 22.125 43.4319 22.5168 43.4319 23V26.8956L36.747 26.8816V23C36.747 22.5168 36.3552 22.125 35.872 22.125H30.4858C30.0025 22.125 29.6108 22.5168 29.6108 23V26.8797H26.1911C23.3977 26.8797 21.125 29.1826 21.125 32.0131V68.1382C21.125 70.9319 23.3977 73.2045 26.1911 73.2045H47.1881C47.282 73.429 47.3891 73.6493 47.5128 73.8633C48.2741 75.182 49.5082 76.1265 50.9879 76.523C51.4841 76.6559 51.987 76.7217 52.4863 76.7217C53.4759 76.7217 54.4507 76.4632 55.3274 75.9572L55.4044 75.9128L60.8107 83.1471C61.1221 83.5639 61.5829 83.8195 62.1082 83.867C62.168 83.8724 62.2269 83.875 62.2854 83.875C62.7411 83.875 63.1603 83.7121 63.5061 83.3984L64.6596 82.3516C65.3619 81.7145 65.4621 80.6562 64.8927 79.8904L62.9124 77.2246L63.4331 76.8444C63.7922 76.582 64.0276 76.1891 64.0961 75.7378C64.1706 75.2461 64.0401 74.731 63.7381 74.3244L62.906 73.2044H67.809C69.6459 73.2044 71.3204 72.1828 72.2084 70.6389C72.8099 71.4888 73.7769 71.9609 74.769 71.9609C75.3003 71.9609 75.8385 71.8259 76.3306 71.5416C77.827 70.6777 78.3415 68.7575 77.4776 67.2611L74.5835 62.2489ZM74.088 58.52C74.3205 58.9227 74.3823 59.392 74.262 59.841C74.1685 60.19 73.9728 60.4934 73.7015 60.721L71.989 57.7547C72.7669 57.4734 73.6604 57.7791 74.088 58.52ZM59.003 23.875H62.6391V31.6779H59.003V23.875ZM45.1819 23.875H48.818V31.6779H45.1819V23.875ZM31.3608 23.875H34.997V31.6779H31.3608V23.875ZM26.1911 28.6297H29.6106V32.5529C29.6106 33.0361 30.0024 33.4279 30.4856 33.4279H35.8719C36.3551 33.4279 36.7469 33.0361 36.7469 32.5529V28.6316L43.4317 28.6456V32.5529C43.4317 33.0361 43.8235 33.4279 44.3067 33.4279H49.6929C50.1761 33.4279 50.5679 33.0361 50.5679 32.5529V28.6606L57.2529 28.6747V32.5529C57.2529 33.0361 57.6446 33.4279 58.1279 33.4279H63.514C63.9972 33.4279 64.389 33.0361 64.389 32.5529V28.6898L67.8068 28.6969C69.6365 28.7007 71.125 30.1885 71.125 32.0131V36.2334H22.875V32.0131C22.875 30.1793 24.3936 28.6297 26.1911 28.6297ZM46.9468 69.5239C46.7754 70.1636 46.7161 70.8147 46.7651 71.4545H26.1911C24.3626 71.4545 22.875 69.9669 22.875 68.1382V37.9835H71.125V56.2176C71.1188 56.2205 71.1126 56.2236 71.1065 56.2266L68.2126 51.2143C67.3485 49.7178 65.4284 49.2034 63.932 50.0672C63.4069 50.3705 63.0033 50.804 62.7371 51.3034H59.4365C58.9533 51.3034 58.5615 51.6951 58.5615 52.1784V57.2598C58.5615 57.743 58.9533 58.1348 59.4365 58.1348H60.2595C58.9054 59.7791 57.2679 61.3903 55.408 62.9009V62.1631C55.408 61.6799 55.0163 61.2881 54.533 61.2881H49.4516C48.9684 61.2881 48.5766 61.6799 48.5766 62.1631V66.8097C47.7958 67.5337 47.2304 68.4654 46.9468 69.5239ZM58.8194 71.4836L55.2269 65.2612C58.9118 62.4974 61.9028 59.3213 63.8228 56.1451L71.012 68.5974C67.3014 68.6717 63.0554 69.6742 58.8194 71.4836ZM53.6581 63.7584C53.5714 63.7771 53.4861 63.809 53.4051 63.8558L50.3267 65.633V63.0381H53.6581V63.7584ZM60.3115 56.3848V53.0534H62.3779C62.4159 53.4964 62.5484 53.938 62.785 54.3478L62.81 54.391C62.453 55.0542 62.0432 55.7201 61.5844 56.3846H60.3115V56.3848ZM49.0282 72.9883C48.5005 72.0744 48.3618 71.0049 48.6373 69.9767C48.9128 68.9486 49.5676 68.0919 50.4816 67.5643L53.5223 65.8088L57.493 72.6861L54.4524 74.4416C52.5562 75.5361 50.1227 74.8844 49.0282 72.9883ZM63.4835 81.0558L62.33 82.1025C62.3051 82.1251 62.2989 82.1273 62.2655 82.1241C62.2282 82.1208 62.2253 82.1167 62.2125 82.0998L56.9304 75.0316L58.4505 74.154L63.4878 80.9342C63.5139 80.9692 63.5226 81.0203 63.4835 81.0558ZM59.7619 72.9844C59.9665 72.8985 60.171 72.8153 60.3755 72.7335L62.333 75.3684C62.3555 75.3985 62.3644 75.4334 62.3661 75.4566L61.8686 75.8201L59.7619 72.9844ZM67.8088 71.4546H64.1157C66.248 70.8517 68.3175 70.4866 70.2431 70.3775C69.6278 71.0424 68.7514 71.4546 67.8088 71.4546ZM75.4555 70.0262C75.1376 70.21 74.7653 70.2581 74.4062 70.1619C74.0475 70.0658 73.7489 69.8377 73.5654 69.5199L64.3006 53.4728C63.9191 52.812 64.1464 51.9643 64.807 51.5828C65.1249 51.3993 65.4971 51.3509 65.8563 51.4473C66.215 51.5434 66.5136 51.7714 66.6971 52.0893L75.9619 68.1364C76.3433 68.797 76.1161 69.6449 75.4555 70.0262Z" fill="white"/>
</svg>
