<svg width="98" height="99" viewBox="0 0 98 99" fill="none" xmlns="http://www.w3.org/2000/svg">
<rect y="0.649414" width="98" height="98" rx="5" fill="#DC3545"/>
<g clip-path="url(#clip0_67_140)">
<path d="M76.7508 29.8612L67.1445 20.2493C67.0656 20.1703 66.9719 20.1077 66.8688 20.065C66.7657 20.0222 66.6552 20.0002 66.5436 20.0002C66.432 20.0002 66.3214 20.0222 66.2183 20.065C66.1152 20.1077 66.0215 20.1703 65.9426 20.2493L63.5343 22.652C63.1844 23.0034 62.9787 23.473 62.9578 23.9684C62.9368 24.4638 63.1021 24.9491 63.421 25.3288L56.8223 27.8663C56.7092 27.9101 56.6067 27.9775 56.5217 28.064C56.4368 28.1505 56.3712 28.2542 56.3296 28.3681L53.7241 35.5196H22.1152C21.2894 35.5208 20.4977 35.8494 19.9138 36.4333C19.3298 37.0173 19.0012 37.809 19 38.6348V74.8848C19.0012 75.7107 19.3298 76.5023 19.9138 77.0863C20.4977 77.6703 21.2894 77.9989 22.1152 78.0001H58.3652C59.1911 77.9989 59.9827 77.6703 60.5667 77.0863C61.1507 76.5023 61.4793 75.7107 61.4805 74.8848V43.2794L68.6319 40.6682C68.7458 40.6265 68.8495 40.561 68.9361 40.476C69.0226 40.3911 69.09 40.2886 69.1337 40.1755L71.6758 33.5802C72.0551 33.8999 72.5406 34.0656 73.0362 34.0446C73.5319 34.0237 74.0016 33.8175 74.3526 33.4669L76.7508 31.0631C76.8297 30.9842 76.8924 30.8905 76.9351 30.7874C76.9778 30.6843 76.9998 30.5738 76.9998 30.4622C76.9998 30.3505 76.9778 30.24 76.9351 30.1369C76.8924 30.0338 76.8297 29.9401 76.7508 29.8612ZM52.0056 41.7501C52.104 41.9885 52.2484 42.2052 52.4304 42.3878L54.6134 44.5696C54.7957 44.7519 55.012 44.8966 55.25 44.9956V71.7696H25.2305V41.7501H52.0056ZM59.7812 74.8848C59.7806 75.2602 59.6313 75.62 59.3658 75.8854C59.1004 76.1509 58.7406 76.3002 58.3652 76.3008H22.1152C21.7399 76.3002 21.38 76.1509 21.1146 75.8854C20.8492 75.62 20.6998 75.2602 20.6992 74.8848V38.6348C20.6998 38.2595 20.8492 37.8996 21.1146 37.6342C21.38 37.3688 21.7399 37.2194 22.1152 37.2188H53.0977L52.0645 40.0508H24.3809C24.1555 40.0508 23.9394 40.1404 23.7801 40.2997C23.6208 40.459 23.5312 40.6751 23.5312 40.9005V72.6192C23.5312 72.8445 23.6208 73.0606 23.7801 73.22C23.9394 73.3793 24.1555 73.4688 24.3809 73.4688H56.0996C56.3249 73.4688 56.541 73.3793 56.7004 73.22C56.8597 73.0606 56.9492 72.8445 56.9492 72.6192V44.9367L59.7812 43.9024V74.8848ZM67.686 39.208L56.1121 43.4334C56.0613 43.4522 56.0063 43.456 55.9535 43.4443C55.9006 43.4327 55.8523 43.4061 55.8141 43.3677L55.3236 42.8829L61.2143 36.9922C61.8708 37.3587 62.6377 37.4753 63.3735 37.3206C64.1093 37.1659 64.7643 36.7503 65.2177 36.1505C65.6711 35.5507 65.8922 34.8071 65.8403 34.057C65.7884 33.3069 65.467 32.6009 64.9353 32.0692C64.4037 31.5376 63.6977 31.2161 62.9476 31.1642C62.1975 31.1123 61.4539 31.3335 60.8541 31.7869C60.2543 32.2402 59.8387 32.8953 59.684 33.6311C59.5293 34.3669 59.6459 35.1338 60.0123 35.7903L54.1217 41.681L53.6323 41.1837C53.594 41.1455 53.5674 41.0972 53.5557 41.0443C53.5441 40.9915 53.5479 40.9365 53.5666 40.8857L57.792 29.3118L64.726 26.6451L70.3527 32.2718L67.686 39.208ZM61.7319 33.2653C61.93 33.0673 62.1823 32.9325 62.457 32.8779C62.7316 32.8233 63.0163 32.8513 63.2751 32.9585C63.5338 33.0657 63.7549 33.2472 63.9105 33.48C64.0661 33.7129 64.1491 33.9867 64.1491 34.2667C64.1491 34.5467 64.0661 34.8205 63.9105 35.0534C63.7549 35.2862 63.5338 35.4677 63.2751 35.5749C63.0163 35.6821 62.7316 35.7101 62.457 35.6555C62.1823 35.6009 61.93 35.4661 61.7319 35.2681C61.5997 35.137 61.4948 34.981 61.4232 34.8091C61.3516 34.6373 61.3147 34.4529 61.3147 34.2667C61.3147 34.0805 61.3516 33.8962 61.4232 33.7243C61.4948 33.5524 61.5997 33.3964 61.7319 33.2653ZM73.1484 32.2639C73.1222 32.2902 73.0911 32.3111 73.0568 32.3254C73.0224 32.3397 72.9856 32.347 72.9485 32.347C72.9113 32.347 72.8745 32.3397 72.8402 32.3254C72.8059 32.3111 72.7748 32.2902 72.7486 32.2639L64.7362 24.2538C64.7098 24.2276 64.6889 24.1964 64.6747 24.1621C64.6604 24.1278 64.6531 24.091 64.6531 24.0538C64.6531 24.0167 64.6604 23.9799 64.6747 23.9456C64.6889 23.9113 64.7098 23.8801 64.7362 23.8539L66.5385 22.0516L74.9485 30.4616L73.1484 32.2639Z" fill="white"/>
<path d="M32.6244 59.2531C32.6745 59.4318 32.7816 59.5893 32.9294 59.7015C33.0773 59.8138 33.2577 59.8747 33.4434 59.875H47.0371C47.2228 59.8747 47.4032 59.8138 47.5511 59.7015C47.6989 59.5893 47.806 59.4318 47.8561 59.2531L50.1218 51.0968C50.165 50.9413 50.1631 50.7767 50.1161 50.6223C50.0692 50.4679 49.9793 50.33 49.8569 50.2248C49.7345 50.1196 49.5847 50.0515 49.4249 50.0284C49.2652 50.0053 49.1022 50.0281 48.955 50.0943L43.9627 52.3316L40.9766 47.2656C40.9015 47.1383 40.7945 47.0328 40.6662 46.9595C40.5378 46.8862 40.3926 46.8477 40.2448 46.8477C40.097 46.8477 39.9517 46.8862 39.8234 46.9595C39.6951 47.0328 39.5881 47.1383 39.513 47.2656L36.5224 52.3316L31.5301 50.0943C31.3828 50.0281 31.2198 50.0053 31.0601 50.0284C30.9004 50.0515 30.7505 50.1196 30.6281 50.2248C30.5057 50.33 30.4158 50.4679 30.3689 50.6223C30.322 50.7767 30.32 50.9413 30.3633 51.0968L32.6244 59.2531ZM36.5156 54.1928C36.7058 54.2786 36.9211 54.2915 37.1202 54.2288C37.3193 54.1661 37.4884 54.0323 37.5951 53.8529L40.2403 49.3715L42.8854 53.8529C42.9923 54.0321 43.1614 54.1658 43.3604 54.2284C43.5595 54.2911 43.7746 54.2784 43.9649 54.1928L48 52.3803L46.3914 58.1757H34.0891L32.4805 52.3837L36.5156 54.1928Z" fill="white"/>
<path d="M47.0371 61.5742H33.4434C33.218 61.5742 33.0019 61.6637 32.8426 61.8231C32.6833 61.9824 32.5938 62.1985 32.5938 62.4238V64.6895C32.5943 65.215 32.8034 65.7189 33.1751 66.0906C33.5467 66.4622 34.0506 66.6713 34.5762 66.6719H45.9043C46.4299 66.6713 46.9338 66.4622 47.3054 66.0906C47.6771 65.7189 47.8861 65.215 47.8867 64.6895V62.4238C47.8867 62.1985 47.7972 61.9824 47.6379 61.8231C47.4785 61.6637 47.2624 61.5742 47.0371 61.5742ZM46.1875 64.6895C46.1875 64.7646 46.1577 64.8366 46.1046 64.8897C46.0514 64.9428 45.9794 64.9727 45.9043 64.9727H34.5762C34.5011 64.9727 34.429 64.9428 34.3759 64.8897C34.3228 64.8366 34.293 64.7646 34.293 64.6895V63.2734H46.1875V64.6895Z" fill="white"/>
</g>
<defs>
<clipPath id="clip0_67_140">
<rect width="58" height="58" fill="white" transform="translate(19 20)"/>
</clipPath>
</defs>
</svg>
