<svg width="72" height="72" viewBox="0 0 72 72" fill="none" xmlns="http://www.w3.org/2000/svg">
<path d="M66.1342 64.7838V22.1558H53.9845V64.7838H50.0947V40.2608H37.945V64.7838H34.055V33.3636H21.9053V64.7838H18.0155V49.5527H5.86575V64.7838H0V69.0026H72V64.7838H66.1342Z" fill="#DC3545"/>
<path d="M60.0594 2.99756C56.2086 2.99756 53.0756 6.1304 53.0756 9.98128C53.0756 11.2902 53.4383 12.5156 54.0675 13.5638L46.8541 21.706C45.9873 21.3195 45.0286 21.1026 44.0198 21.1026C41.9135 21.1026 40.0235 22.0413 38.742 23.5207L34.9294 21.8812C34.9519 21.6534 34.964 21.4228 34.964 21.1892C34.964 17.3385 31.8311 14.2055 27.9803 14.2055C24.1294 14.2055 20.9967 17.3384 20.9967 21.1892C20.9967 22.3675 21.2911 23.4779 21.8086 24.4526L15.1053 31.156C14.1546 30.6705 13.0796 30.3947 11.9409 30.3947C8.09012 30.3947 4.95728 33.5275 4.95728 37.3783C4.95728 41.229 8.08998 44.3618 11.9407 44.3618C15.7914 44.3618 18.9244 41.229 18.9244 37.3781C18.9244 36.1998 18.63 35.0895 18.1125 34.1148L24.8158 27.4115C25.7665 27.897 26.8415 28.1728 27.9803 28.1728C30.0865 28.1728 31.9765 27.2341 33.2581 25.7548L37.0707 27.3942C37.0482 27.622 37.0361 27.8526 37.0361 28.0862C37.0361 31.9369 40.1689 35.0699 44.0198 35.0699C47.8707 35.0699 51.0034 31.9371 51.0034 28.0862C51.0034 26.7772 50.6407 25.5518 50.0117 24.5036L57.2251 16.3614C58.0919 16.748 59.0505 16.9649 60.0594 16.9649C63.9101 16.9649 67.0429 13.832 67.0429 9.98128C67.0429 6.13054 63.9101 2.99756 60.0594 2.99756Z" fill="#DC3545"/>
</svg>
