<svg width="72" height="72" viewBox="0 0 72 72" fill="none" xmlns="http://www.w3.org/2000/svg">
<g clip-path="url(#clip0_117_135)">
<path d="M49.3821 12.5147L36.7431 0.330805C36.2841 -0.111601 35.5569 -0.110054 35.0998 0.33418L22.7328 12.3541C21.9723 13.0934 22.4955 14.3826 23.5561 14.3826H30.0868C30.2966 14.3826 30.4667 14.5528 30.4667 14.7626V71.9999H41.5281V14.9267C41.5281 14.7169 41.6983 14.5467 41.9081 14.5467H48.5621C49.6251 14.5466 50.1473 13.2524 49.3821 12.5147Z" fill="#076856"/>
<path d="M15.1466 41.2733L15.1604 72.0002H26.2374V41.2726C26.2374 40.3355 25.4776 39.5757 24.5405 39.5757H16.8434C15.906 39.5757 15.1462 40.3359 15.1466 41.2733Z" fill="#076856"/>
<path d="M11.077 71.9996V55.484C11.077 54.5469 10.3172 53.7871 9.38011 53.7871H1.69692C0.759797 53.7871 0 54.5469 0 55.484V70.1369C0 71.1657 0.833906 71.9996 1.86272 71.9996H11.077Z" fill="#076856"/>
<path d="M72 70.1369V55.484C72 54.5469 71.2402 53.7871 70.3031 53.7871H62.6161C61.679 53.7871 60.9192 54.5469 60.9192 55.484V71.9996H70.1373C71.1661 71.9996 72 71.1657 72 70.1369Z" fill="#076856"/>
<path d="M45.7625 41.2726V72.0002H56.8433L56.8535 41.2732C56.8538 40.3358 56.094 39.5757 55.1566 39.5757H47.4594C46.5221 39.5757 45.7625 40.3353 45.7625 41.2726Z" fill="#076856"/>
</g>
<defs>
<clipPath id="clip0_117_135">
<rect width="72" height="72" fill="white"/>
</clipPath>
</defs>
</svg>
