<svg width="72" height="72" viewBox="0 0 72 72" fill="none" xmlns="http://www.w3.org/2000/svg">
<path d="M9.5625 57.375C9.5625 57.8226 9.74029 58.2518 10.0568 58.5682C10.3732 58.8847 10.8024 59.0625 11.25 59.0625H15.0469C15.4232 59.0625 15.7887 58.9367 16.0854 58.7051C16.382 58.4736 16.5927 58.1495 16.684 57.7844L19.3175 47.25H9.5625V57.375Z" fill="#C33DAB"/>
<path d="M20.8125 45.7149C26.3737 46.5616 38.6166 50.928 46.6875 58.3358V13.6641C38.6166 21.0719 26.3737 25.4383 20.8125 26.285V45.7149Z" fill="#C33DAB"/>
<path d="M52.875 6.75C51.6819 6.75134 50.5381 7.22588 49.6945 8.0695C48.8509 8.91312 48.3763 10.0569 48.375 11.25V60.75C48.375 61.9435 48.8491 63.0881 49.693 63.932C50.5369 64.7759 51.6815 65.25 52.875 65.25C54.0685 65.25 55.2131 64.7759 56.057 63.932C56.9009 63.0881 57.375 61.9435 57.375 60.75V11.25C57.3737 10.0569 56.8991 8.91312 56.0555 8.0695C55.2119 7.22588 54.0681 6.75134 52.875 6.75Z" fill="#C33DAB"/>
<path d="M9.5625 26.4375H19.125V45.5625H9.5625V26.4375Z" fill="#C33DAB"/>
<path d="M0.5625 31.5V40.5C0.563989 41.8422 1.09784 43.129 2.04692 44.0781C2.996 45.0272 4.2828 45.561 5.625 45.5625H7.875V26.4375H5.625C4.2828 26.439 2.996 26.9728 2.04692 27.9219C1.09784 28.871 0.563989 30.1578 0.5625 31.5Z" fill="#C33DAB"/>
<path d="M69.75 34.3125H64.125C63.6774 34.3125 63.2482 34.4903 62.9318 34.8068C62.6153 35.1232 62.4375 35.5524 62.4375 36C62.4375 36.4476 62.6153 36.8768 62.9318 37.1932C63.2482 37.5097 63.6774 37.6875 64.125 37.6875H69.75C70.1976 37.6875 70.6268 37.5097 70.9432 37.1932C71.2597 36.8768 71.4375 36.4476 71.4375 36C71.4375 35.5524 71.2597 35.1232 70.9432 34.8068C70.6268 34.4903 70.1976 34.3125 69.75 34.3125Z" fill="#C33DAB"/>
<path d="M61.3485 25.5004C61.6013 25.5004 61.8508 25.4433 62.0784 25.3333L67.1484 22.8959C67.5518 22.7019 67.8615 22.3557 68.0096 21.9334C68.1577 21.511 68.1319 21.0471 67.938 20.6438C67.7441 20.2404 67.3978 19.9306 66.9755 19.7825C66.5531 19.6345 66.0893 19.6602 65.6859 19.8542L60.6165 22.2918C60.2716 22.4574 59.9933 22.7353 59.8271 23.08C59.6609 23.4246 59.6168 23.8155 59.7019 24.1885C59.7871 24.5615 59.9965 24.8945 60.2957 25.1329C60.595 25.3712 60.9664 25.5008 61.349 25.5004H61.3485Z" fill="#C33DAB"/>
<path d="M67.1484 49.1041L62.0791 46.6666C61.6762 46.4763 61.2144 46.453 60.7944 46.6018C60.3744 46.7507 60.0304 47.0596 59.8373 47.4611C59.6442 47.8627 59.6178 48.3243 59.7637 48.7453C59.9097 49.1663 60.2163 49.5124 60.6166 49.7082L65.6859 52.1458C66.0893 52.3398 66.5532 52.3655 66.9755 52.2174C67.3979 52.0694 67.7441 51.7596 67.9381 51.3562C68.132 50.9529 68.1578 50.489 68.0097 50.0666C67.8616 49.6443 67.5518 49.298 67.1484 49.1041Z" fill="#C33DAB"/>
</svg>
