<svg width="72" height="72" viewBox="0 0 72 72" fill="none" xmlns="http://www.w3.org/2000/svg">
<g clip-path="url(#clip0_117_158)">
<path d="M35.9782 28.8745C30.1034 28.8745 25.324 33.6547 25.324 39.5304C25.324 45.4061 30.1036 50.1862 35.9782 50.1862C41.8528 50.1862 46.6325 45.4061 46.6325 39.5304C46.6325 33.6547 41.853 28.8745 35.9782 28.8745Z" fill="#FFC700"/>
<path d="M18.4973 71.9887H53.4686L53.5028 65.2068C53.5028 59.2711 49.9408 53.7468 44.5365 51.147C42.0651 52.97 39.0696 53.9622 35.9783 53.9622C32.8948 53.9622 29.9056 52.9745 27.4374 51.1594C22.0486 53.7648 18.4973 59.2845 18.4973 65.2162V71.9887Z" fill="#FFC700"/>
<path d="M16.1824 36.9136C11.5651 36.9136 7.80859 40.6706 7.80859 45.2887C7.80859 49.9067 11.5651 53.6639 16.1824 53.6639C17.1663 53.6639 18.1254 53.4954 19.04 53.1623C20.3751 51.5002 21.9471 50.0802 23.724 48.9311C23.8984 48.5705 24.0464 48.1987 24.1669 47.8177C22.4721 45.401 21.5481 42.4939 21.5481 39.5302C21.5481 39.3142 21.5534 39.095 21.5638 38.8733C20.0583 37.6042 18.176 36.9136 16.1824 36.9136Z" fill="#FFC700"/>
<path d="M9.30832 55.3062C5.10247 57.4415 2.34186 61.8858 2.34186 66.678V72.0002L14.7214 71.9903V65.2165C14.7214 62.5594 15.31 59.8988 16.4172 57.438C16.3391 57.4395 16.2609 57.4401 16.1825 57.4401C13.7222 57.4403 11.3231 56.6894 9.30832 55.3062Z" fill="#FFC700"/>
<path d="M52.9758 53.1819C53.8743 53.5022 54.816 53.6644 55.7822 53.6644C60.3995 53.6644 64.156 49.9073 64.156 45.2891C64.156 40.6711 60.3995 36.9141 55.7822 36.9141C53.7849 36.9141 51.8998 37.607 50.3929 38.8805C50.4032 39.0999 50.4085 39.317 50.4085 39.5307C50.4085 42.4905 49.4863 45.3948 47.7952 47.8099C47.9126 48.1819 48.0563 48.5456 48.2255 48.8988C50.0303 50.0581 51.6248 51.4956 52.9758 53.1819Z" fill="#FFC700"/>
<path d="M57.2444 71.9903L69.632 72.0001L69.6581 66.6686C69.6581 61.9536 66.8301 57.4189 62.6695 55.2969C60.598 56.7233 58.1104 57.4804 55.5829 57.4386C56.69 59.8993 57.2786 62.5598 57.2786 65.2163L57.2444 71.9903Z" fill="#FFC700"/>
<path d="M59.9676 0H12.0311C10.269 0 8.84126 1.42985 8.84388 3.192L8.86372 16.272C8.86634 18.0303 10.2926 19.4543 12.051 19.4543H45.9602C46.3628 21.0472 48.2297 26.8272 54.4671 28.6849C54.4671 28.6849 53.5117 23.3312 55.0382 19.4543H59.1002C61.3394 19.4543 63.1546 17.6391 63.1546 15.3998V3.18723C63.1548 1.42692 61.7277 0 59.9676 0ZM23.5794 15.3411L19.9228 13.4185L16.2662 15.3411L16.9645 11.2688L14.0062 8.38492L18.0945 7.79077L19.9228 4.08569L21.7511 7.79077L25.8394 8.38492L22.8811 11.2689L23.5794 15.3411ZM39.6566 15.3411L36 13.4185L32.3434 15.3411L33.0417 11.2688L30.0834 8.38477L34.1717 7.79062L36 4.08569L37.8283 7.79077L41.9166 8.38492L38.9583 11.2689L39.6566 15.3411ZM55.7339 15.3411L52.0773 13.4185L48.4206 15.3411L49.119 11.2688L46.1606 8.38477L50.249 7.79062L52.0773 4.08554L53.9056 7.79062L57.9939 8.38477L55.0356 11.2688L55.7339 15.3411Z" fill="#FFC700"/>
</g>
<defs>
<clipPath id="clip0_117_158">
<rect width="72" height="72" fill="white"/>
</clipPath>
</defs>
</svg>
