<svg width="72" height="72" viewBox="0 0 72 72" fill="none" xmlns="http://www.w3.org/2000/svg">
<path fill-rule="evenodd" clip-rule="evenodd" d="M7.15109 58.1023H1.26565C0.967281 58.1023 0.681133 58.2209 0.470155 58.4318C0.259176 58.6428 0.14065 58.929 0.14065 59.2273V65.1124C0.14065 65.4107 0.259176 65.6969 0.470155 65.9079C0.681133 66.1188 0.967281 66.2374 1.26565 66.2374H7.15109C7.44946 66.2374 7.7356 66.1188 7.94658 65.9079C8.15756 65.6969 8.27609 65.4107 8.27609 65.1124V59.2272C8.27605 58.9289 8.15751 58.6427 7.94653 58.4318C7.73556 58.2208 7.44943 58.1023 7.15109 58.1023ZM6.02609 63.9872H2.39065V60.3521H6.02553L6.02609 63.9872ZM27.7375 64.5835C27.7375 64.8818 27.6189 65.168 27.408 65.379C27.197 65.5899 26.9108 65.7085 26.6125 65.7085H12.3622C12.0639 65.7085 11.7777 65.5899 11.5667 65.379C11.3558 65.168 11.2372 64.8818 11.2372 64.5835C11.2372 64.2851 11.3558 63.999 11.5667 63.788C11.7777 63.577 12.0639 63.4585 12.3622 63.4585H26.612C26.9104 63.4585 27.1966 63.577 27.4075 63.788C27.6185 63.999 27.737 64.2851 27.737 64.5835H27.7375ZM27.7375 59.7571C27.7372 60.0554 27.6186 60.3414 27.4077 60.5523C27.1967 60.7632 26.9108 60.8818 26.6125 60.8821H12.3622C12.0639 60.8821 11.7777 60.7635 11.5667 60.5526C11.3558 60.3416 11.2372 60.0554 11.2372 59.7571C11.2372 59.4587 11.3558 59.1726 11.5667 58.9616C11.7777 58.7506 12.0639 58.6321 12.3622 58.6321H26.612C26.9104 58.6321 27.1966 58.7506 27.4075 58.9616C27.6185 59.1726 27.737 59.4587 27.737 59.7571H27.7375ZM7.15109 47.5254H1.26565C0.967373 47.5257 0.681398 47.6443 0.470484 47.8552C0.25957 48.0661 0.140948 48.3521 0.14065 48.6504V54.5354C0.14065 54.8338 0.259176 55.1199 0.470155 55.3309C0.681133 55.5419 0.967281 55.6604 1.26565 55.6604H7.15109C7.44946 55.6604 7.7356 55.5419 7.94658 55.3309C8.15756 55.1199 8.27609 54.8338 8.27609 54.5354V48.6509C8.27598 48.3525 8.15743 48.0664 7.94649 47.8554C7.73556 47.6443 7.44947 47.5256 7.15109 47.5254ZM6.02609 53.4111H2.39065V49.7758H6.02553L6.02609 53.4111ZM27.7369 49.1809C27.7369 49.4793 27.6184 49.7655 27.4074 49.9764C27.1964 50.1874 26.9103 50.3059 26.6119 50.3059H12.3622C12.0639 50.3059 11.7777 50.1874 11.5667 49.9764C11.3558 49.7655 11.2372 49.4793 11.2372 49.1809C11.2372 48.8826 11.3558 48.5964 11.5667 48.3855C11.7777 48.1745 12.0639 48.0559 12.3622 48.0559H26.612C26.9104 48.0559 27.1966 48.1745 27.4075 48.3855C27.6185 48.5964 27.7369 48.8826 27.7369 49.1809ZM27.7369 54.0073C27.7369 54.3057 27.6184 54.5919 27.4074 54.8028C27.1964 55.0138 26.9103 55.1323 26.6119 55.1323H12.3622C12.0639 55.1323 11.7777 55.0138 11.5667 54.8028C11.3558 54.5919 11.2372 54.3057 11.2372 54.0073C11.2372 53.709 11.3558 53.4228 11.5667 53.2118C11.7777 53.0009 12.0639 52.8823 12.3622 52.8823H26.612C26.9104 52.8823 27.1966 53.0009 27.4075 53.2118C27.6185 53.4228 27.7369 53.709 27.7369 54.0073ZM7.15109 36.9492H1.26565C0.967281 36.9492 0.681133 37.0678 0.470155 37.2788C0.259176 37.4897 0.14065 37.7759 0.14065 38.0742V43.9593C0.14065 44.2576 0.259176 44.5438 0.470155 44.7548C0.681133 44.9657 0.967281 45.0843 1.26565 45.0843H7.15109C7.44946 45.0843 7.7356 44.9657 7.94658 44.7548C8.15756 44.5438 8.27609 44.2576 8.27609 43.9593V38.0741C8.27605 37.7758 8.15751 37.4896 7.94653 37.2787C7.73556 37.0678 7.44943 36.9492 7.15109 36.9492ZM6.02609 42.8343H2.39065V39.1991H6.02553L6.02609 42.8343ZM34.6791 26.2532C34.6791 25.9548 34.7977 25.6686 35.0086 25.4577C35.2196 25.2467 35.5058 25.1282 35.8041 25.1282H54.1913C54.4896 25.1282 54.7758 25.2467 54.9868 25.4577C55.1977 25.6686 55.3163 25.9548 55.3163 26.2532C55.3163 26.5515 55.1977 26.8377 54.9868 27.0487C54.7758 27.2596 54.4896 27.3782 54.1913 27.3782H35.8047C35.5063 27.3782 35.2202 27.2596 35.0092 27.0487C34.7982 26.8377 34.6797 26.5515 34.6797 26.2532H34.6791ZM34.6791 20.0869C34.6791 19.7885 34.7977 19.5024 35.0086 19.2914C35.2196 19.0804 35.5058 18.9619 35.8041 18.9619H54.1913C54.4896 18.9619 54.7758 19.0804 54.9868 19.2914C55.1977 19.5024 55.3163 19.7885 55.3163 20.0869C55.3163 20.3853 55.1977 20.6714 54.9868 20.8824C54.7758 21.0934 54.4896 21.2119 54.1913 21.2119H35.8047C35.5063 21.2119 35.2202 21.0934 35.0092 20.8824C34.7982 20.6714 34.6797 20.3853 34.6797 20.0869H34.6791ZM34.6791 13.922C34.6791 13.6237 34.7977 13.3375 35.0086 13.1265C35.2196 12.9156 35.5058 12.797 35.8041 12.797H54.1913C54.4896 12.797 54.7758 12.9156 54.9868 13.1265C55.1977 13.3375 55.3163 13.6237 55.3163 13.922C55.3163 14.2204 55.1977 14.5066 54.9868 14.7175C54.7758 14.9285 54.4896 15.047 54.1913 15.047H35.8047C35.5064 15.0468 35.2204 14.9282 35.0095 14.7172C34.7986 14.5063 34.68 14.2203 34.6797 13.922H34.6791ZM14.4647 5.7627C11.6317 5.7627 8.86222 6.6028 6.50661 8.17676C4.15101 9.75072 2.31504 11.9879 1.23087 14.6053C0.146709 17.2227 -0.136958 20.1028 0.415745 22.8814C0.968447 25.66 2.3327 28.2124 4.33597 30.2156C6.33925 32.2189 8.89158 33.5832 11.6702 34.1359C14.4488 34.6886 17.3289 34.4049 19.9463 33.3207C22.5638 32.2366 24.8009 30.4006 26.3749 28.045C27.9488 25.6894 28.7889 22.92 28.7889 20.0869C28.7846 16.2892 27.2741 12.6483 24.5887 9.96293C21.9033 7.27755 18.2624 5.76701 14.4647 5.7627ZM2.39065 20.0869C2.39457 17.0807 3.51839 14.1839 5.54283 11.9616C7.56727 9.73927 10.3471 8.35096 13.3399 8.06754V13.5194C12.1511 13.7219 11.0397 14.2434 10.1243 15.0283C9.20891 15.8132 8.52387 16.832 8.14236 17.9759C7.76085 19.1198 7.6972 20.3458 7.9582 21.5231C8.2192 22.7003 8.79505 23.7846 9.62426 24.66L6.35051 29.0209C5.10298 27.891 4.10607 26.5122 3.42403 24.9735C2.74199 23.4347 2.38997 21.7701 2.39065 20.0869ZM14.4647 32.1608C12.2342 32.163 10.0473 31.5436 8.14924 30.3721L11.4217 26.0127C12.8878 26.7679 14.5822 26.9515 16.176 26.528C17.7698 26.1044 19.1495 25.1039 20.0472 23.7205L25.0548 25.8801C24.0146 27.7801 22.4828 29.3656 20.6197 30.4705C18.7567 31.5755 16.6308 32.1593 14.4647 32.1608ZM20.942 21.6561C21.1578 20.7685 21.1885 19.8459 21.0324 18.9458C20.8763 18.0457 20.5366 17.1874 20.0346 16.4242C19.5326 15.661 18.8789 15.0093 18.1142 14.5096C17.3495 14.0099 16.4901 13.6728 15.5896 13.5194V8.06754C17.3918 8.2354 19.1332 8.80648 20.6849 9.73851C22.2365 10.6705 23.5586 11.9396 24.5534 13.4519C25.5481 14.9641 26.1899 16.6807 26.4314 18.4745C26.6728 20.2684 26.5077 22.0936 25.9482 23.815L20.942 21.6561ZM27.7369 38.6041C27.7369 38.9025 27.6184 39.1886 27.4074 39.3996C27.1964 39.6106 26.9103 39.7291 26.6119 39.7291H12.3622C12.0639 39.7291 11.7777 39.6106 11.5667 39.3996C11.3558 39.1886 11.2372 38.9025 11.2372 38.6041C11.2372 38.3058 11.3558 38.0196 11.5667 37.8086C11.7777 37.5976 12.0639 37.4791 12.3622 37.4791H26.612C26.9104 37.4791 27.1966 37.5976 27.4075 37.8086C27.6185 38.0196 27.7369 38.3058 27.7369 38.6041ZM27.7369 43.4305C27.7369 43.7289 27.6184 44.015 27.4074 44.226C27.1964 44.437 26.9103 44.5555 26.6119 44.5555H12.3622C12.0639 44.5555 11.7777 44.437 11.5667 44.226C11.3558 44.015 11.2372 43.7289 11.2372 43.4305C11.2372 43.1321 11.3558 42.846 11.5667 42.635C11.7777 42.424 12.0639 42.3055 12.3622 42.3055H26.612C26.9104 42.3055 27.1966 42.424 27.4075 42.635C27.6185 42.846 27.7369 43.1321 27.7369 43.4305ZM57.4791 38.0953L65.3625 30.817L63.8874 30.748C63.5893 30.734 63.309 30.6022 63.1081 30.3815C62.9072 30.1608 62.8022 29.8694 62.8162 29.5714C62.8302 29.2733 62.962 28.993 63.1827 28.7921C63.4034 28.5912 63.6948 28.4862 63.9928 28.5002L68.3 28.7031C68.4602 28.7106 68.6169 28.7522 68.7597 28.8251C68.9025 28.8981 69.028 29.0007 69.1279 29.1261C69.2277 29.2516 69.2997 29.3969 69.3388 29.5524C69.3779 29.7079 69.3833 29.8699 69.3547 30.0277L68.5844 34.2702C68.5373 34.5295 68.4007 34.764 68.1984 34.9328C67.996 35.1017 67.7409 35.1941 67.4774 35.1941C67.41 35.194 67.3427 35.1878 67.2764 35.1755C67.1311 35.1492 66.9923 35.0944 66.8681 35.0144C66.7439 34.9344 66.6367 34.8307 66.5526 34.7093C66.4684 34.5878 66.409 34.451 66.3778 34.3066C66.3465 34.1622 66.344 34.0131 66.3704 33.8677L66.5708 32.7641L58.3538 40.3511C58.168 40.5227 57.9299 40.6266 57.6778 40.6463C57.4257 40.6659 57.1743 40.6 56.9643 40.4592L47.6211 34.1989L38.0464 46.648C37.8621 46.8772 37.5954 47.025 37.3034 47.06C37.0114 47.0949 36.7173 47.0141 36.4841 46.8348C36.251 46.6556 36.0973 46.3922 36.056 46.101C36.0146 45.8099 36.0889 45.5141 36.263 45.2771L46.4809 31.9909C46.6551 31.7648 46.9086 31.6133 47.1903 31.5671C47.472 31.5209 47.7606 31.5835 47.9979 31.7422L57.4789 38.0952L57.4791 38.0953ZM70.7344 37.3936H64.8829C64.5845 37.3936 64.2983 37.5121 64.0874 37.7231C63.8764 37.9341 63.7579 38.2203 63.7579 38.5186V64.5835C63.7579 64.8818 63.8764 65.168 64.0874 65.379C64.2983 65.5899 64.5845 65.7085 64.8829 65.7085H70.7344C71.0328 65.7085 71.3189 65.5899 71.5299 65.379C71.7409 65.168 71.8594 64.8818 71.8594 64.5835V38.5185C71.8594 38.2201 71.7409 37.934 71.5299 37.723C71.3189 37.512 71.0328 37.3935 70.7344 37.3935V37.3936ZM40.0793 53.2658H34.2281C33.9298 53.2658 33.6436 53.3843 33.4327 53.5953C33.2217 53.8063 33.1031 54.0925 33.1031 54.3908V64.5835C33.1031 64.8818 33.2217 65.168 33.4327 65.379C33.6436 65.5899 33.9298 65.7085 34.2281 65.7085H40.0793C40.3776 65.7085 40.6638 65.5899 40.8748 65.379C41.0857 65.168 41.2043 64.8818 41.2043 64.5835V54.3908C41.2043 54.0925 41.0857 53.8063 40.8748 53.5953C40.6638 53.3843 40.3776 53.2658 40.0793 53.2658ZM50.2986 41.9694H44.4461C44.1479 41.97 43.8621 42.0887 43.6513 42.2996C43.4404 42.5104 43.3217 42.7962 43.3211 43.0944V64.5835C43.3214 64.8818 43.44 65.1678 43.6509 65.3787C43.8618 65.5896 44.1478 65.7082 44.4461 65.7085H50.2986C50.5969 65.7082 50.8829 65.5896 51.0938 65.3787C51.3048 65.1678 51.4234 64.8818 51.4236 64.5835V43.0943C51.423 42.7961 51.3043 42.5103 51.0935 42.2994C50.8826 42.0886 50.5968 41.9699 50.2986 41.9693V41.9694ZM60.5166 46.828H54.6655C54.3671 46.828 54.0809 46.9465 53.87 47.1575C53.659 47.3685 53.5405 47.6546 53.5405 47.953V64.5835C53.5405 64.8818 53.659 65.168 53.87 65.379C54.0809 65.5899 54.3671 65.7085 54.6655 65.7085H60.5166C60.815 65.7085 61.1011 65.5899 61.3121 65.379C61.5231 65.168 61.6416 64.8818 61.6416 64.5835V47.953C61.6416 47.6546 61.5231 47.3685 61.3121 47.1575C61.1011 46.9465 60.815 46.828 60.5166 46.828Z" fill="#0084FF"/>
</svg>
