<svg width="64" height="64" viewBox="0 0 64 64" fill="none" xmlns="http://www.w3.org/2000/svg">
<g clip-path="url(#clip0_105_398)">
<mask id="mask0_105_398" style="mask-type:luminance" maskUnits="userSpaceOnUse" x="0" y="0" width="64" height="64">
<path d="M0 3.8147e-06H64V64H0V3.8147e-06Z" fill="white"/>
</mask>
<g mask="url(#mask0_105_398)">
<path d="M57.319 33.5081L52.808 36.1126C52.6731 36.1904 52.5007 36.1443 52.4229 36.0094L44.2999 21.94C44.2221 21.8051 44.2682 21.6329 44.403 21.555L48.9141 18.9505" stroke="#076856" stroke-width="1.76471" stroke-miterlimit="10" stroke-linecap="round" stroke-linejoin="round"/>
<path d="M36.3984 27.026L33.4722 25.3365C33.1059 25.125 32.6546 25.125 32.2882 25.3365L26.4454 28.7089C25.0026 29.5419 23.1574 29.0475 22.3244 27.6045C21.4914 26.1616 21.9857 24.3165 23.4287 23.4835L29.5889 19.9269C31.1678 19.0153 33.1129 19.0153 34.6918 19.9269L38.8269 22.3143C40.3819 23.212 42.2978 23.2121 43.8531 22.3146L44.3508 22.028L52.3721 35.9214" stroke="#076856" stroke-width="1.76471" stroke-miterlimit="10" stroke-linecap="round" stroke-linejoin="round"/>
<path d="M51.4023 35.689L40.3042 29.2815" stroke="#076856" stroke-width="1.76471" stroke-miterlimit="10" stroke-linecap="round" stroke-linejoin="round"/>
<path d="M15.9696 40.7096L18.6518 39.1609C20.0947 38.3278 20.5892 36.4828 19.7561 35.0398C18.9229 33.5969 17.0779 33.1026 15.6349 33.9356L12.9527 35.4842C11.5097 36.3172 11.0153 38.1623 11.8484 39.6053C12.6816 41.0482 14.5267 41.5427 15.9696 40.7096Z" stroke="#076856" stroke-width="1.76471" stroke-miterlimit="10" stroke-linecap="round" stroke-linejoin="round"/>
<path d="M19.4532 45.6651L21.0466 44.7452C22.4895 43.9121 22.9838 42.067 22.1508 40.6241C21.3177 39.1811 19.4726 38.6867 18.0296 39.5199L16.4363 40.4397C14.9933 41.2729 14.499 43.118 15.3321 44.5609C16.1652 46.0039 18.0103 46.4982 19.4532 45.6651Z" stroke="#076856" stroke-width="1.76471" stroke-miterlimit="10" stroke-linecap="round" stroke-linejoin="round"/>
<path d="M24.1339 49.9298L25.5717 49.0995C27.0147 48.2665 27.5091 46.4214 26.676 44.9785C25.8429 43.5355 23.9979 43.0412 22.5549 43.8743L21.117 44.7044C19.674 45.5375 19.1796 47.3827 20.0127 48.8255C20.8457 50.2684 22.6909 50.7629 24.1339 49.9298Z" stroke="#076856" stroke-width="1.76471" stroke-miterlimit="10" stroke-linecap="round" stroke-linejoin="round"/>
<path d="M30.0593 53.1349L30.875 52.6639C32.3179 51.8307 32.8123 49.9857 31.9793 48.5427C31.1462 47.0999 29.3012 46.6055 27.8582 47.4385L27.0424 47.9095C25.5994 48.7426 25.105 50.5877 25.9382 52.0306C26.7713 53.4735 28.6164 53.968 30.0593 53.1349Z" stroke="#076856" stroke-width="1.76471" stroke-miterlimit="10" stroke-linecap="round" stroke-linejoin="round"/>
<path d="M35.8213 47.5945L37.437 48.5273" stroke="#076856" stroke-width="1.76471" stroke-miterlimit="10" stroke-linecap="round" stroke-linejoin="round"/>
<path d="M38.8381 42.3693L43.3354 44.9658" stroke="#076856" stroke-width="1.76471" stroke-miterlimit="10" stroke-linecap="round" stroke-linejoin="round"/>
<path d="M41.855 37.1437L48.5469 41.0073" stroke="#076856" stroke-width="1.76471" stroke-miterlimit="10" stroke-linecap="round" stroke-linejoin="round"/>
<path d="M6.68115 33.5081L11.1922 36.1126C11.327 36.1904 11.4994 36.1443 11.5773 36.0094L19.7003 21.94C19.778 21.8051 19.7319 21.6329 19.5972 21.555L15.086 18.9505" stroke="#076856" stroke-width="1.76471" stroke-miterlimit="10" stroke-linecap="round" stroke-linejoin="round"/>
<path d="M31.5735 52.1097L34.3612 53.719C35.826 54.5648 37.7521 54.0785 38.5699 52.598C39.3626 51.1628 38.863 49.351 37.437 48.5277L40.2596 50.1574C41.7244 51.003 43.6505 50.5168 44.4682 49.0363C45.261 47.6012 44.7614 45.7893 43.3354 44.9659L45.6219 46.286C47.1451 47.1655 49.035 46.5979 49.8216 45.0247L49.8264 45.015C50.524 43.62 49.9895 41.8405 48.6387 41.0607L48.5469 41.0077C49.9899 41.8407 51.8349 41.3463 52.668 39.9034C53.4114 38.4167 52.8417 36.5202 51.4022 35.689" stroke="#076856" stroke-width="1.76471" stroke-miterlimit="10" stroke-linecap="round" stroke-linejoin="round"/>
<path d="M7.1545 13.3233L1.21087 9.89168C1.08937 9.82156 0.9375 9.90931 0.9375 10.0496V31.1353C0.9375 31.2004 0.97225 31.2606 1.02862 31.2931L5.98312 34.1536C6.118 34.2314 6.29037 34.1853 6.36812 34.0504L15.399 18.4087C15.4767 18.2738 15.4305 18.1014 15.2957 18.0237L11.0229 15.5567" stroke="#076856" stroke-width="1.76471" stroke-miterlimit="10" stroke-linecap="round" stroke-linejoin="round"/>
<path d="M55.7528 30.7957L57.6319 34.0505C57.7097 34.1852 57.8822 34.2315 58.0169 34.1536L62.9714 31.2931C63.0278 31.2606 63.0626 31.2003 63.0626 31.1352V10.0496C63.0626 9.90934 62.9107 9.82159 62.7892 9.89171L48.7043 18.0236C48.5696 18.1015 48.5233 18.2738 48.6012 18.4087L53.5222 26.9321" stroke="#076856" stroke-width="1.76471" stroke-miterlimit="10" stroke-linecap="round" stroke-linejoin="round"/>
<path d="M23.6844 23.3364C22.4747 23.3062 21.2848 22.9719 20.226 22.3609L19.6493 22.0286" stroke="#076856" stroke-width="1.76471" stroke-miterlimit="10" stroke-linecap="round" stroke-linejoin="round"/>
</g>
</g>
<defs>
<clipPath id="clip0_105_398">
<rect width="64" height="64" fill="white"/>
</clipPath>
</defs>
</svg>
