<svg width="98" height="99" viewBox="0 0 98 99" fill="none" xmlns="http://www.w3.org/2000/svg">
<rect y="0.649414" width="98" height="98" rx="5" fill="#C33DAB"/>
<g clip-path="url(#clip0_87_1009)">
<path d="M57.0003 36.0736C58.5618 36.0736 59.8323 34.8032 59.8323 33.2416C59.8323 31.68 58.5618 30.4094 57.0003 30.4094C55.4387 30.4094 54.1682 31.68 54.1682 33.2416C54.1682 33.8793 54.3803 34.4684 54.7375 34.9424L50.0843 41.4448C49.8067 41.3536 49.5104 41.3036 49.2025 41.3036C48.4584 41.3036 47.7808 41.5925 47.2748 42.0636L44.1733 40.3036C44.2147 40.1115 44.2369 39.9124 44.2369 39.7081C44.2369 38.1465 42.9664 36.8761 41.4048 36.8761C39.8433 36.8761 38.5728 38.1465 38.5728 39.7081C38.5728 39.9124 38.595 40.1115 38.6364 40.3036L35.5348 42.0636C35.0289 41.5925 34.3513 41.3037 33.6071 41.3037C32.0455 41.3037 30.7751 42.5742 30.7751 44.1358C30.7751 45.6974 32.0455 46.968 33.6071 46.968C35.1687 46.968 36.4391 45.6974 36.4391 44.1358C36.4391 43.9316 36.4169 43.7324 36.3756 43.5403L39.4771 41.7804C39.983 42.2514 40.6607 42.5404 41.4048 42.5404C42.149 42.5404 42.8265 42.2514 43.3325 41.7805L46.4341 43.5404C46.3927 43.7325 46.3705 43.9317 46.3705 44.1359C46.3705 45.6975 47.641 46.9681 49.2025 46.9681C50.7642 46.9681 52.0347 45.6975 52.0347 44.1359C52.0347 43.4981 51.8225 42.9089 51.4653 42.4349L56.1185 35.9325C56.396 36.0235 56.6924 36.0736 57.0003 36.0736ZM57.0003 32.1086C57.6249 32.1086 58.1331 32.6168 58.1331 33.2416C58.1331 33.8662 57.6249 34.3744 57.0003 34.3744C56.3756 34.3744 55.8674 33.8662 55.8674 33.2416C55.8673 32.6168 56.3755 32.1086 57.0003 32.1086ZM33.6068 45.2685C32.9821 45.2685 32.474 44.7603 32.474 44.1356C32.474 43.5109 32.9821 43.0027 33.6068 43.0027C34.2314 43.0027 34.7396 43.5109 34.7396 44.1356C34.7396 44.7603 34.2314 45.2685 33.6068 45.2685ZM41.4046 40.8409C40.78 40.8409 40.2718 40.3327 40.2718 39.708C40.2718 39.0834 40.78 38.5752 41.4046 38.5752C42.0292 38.5752 42.5374 39.0834 42.5374 39.708C42.5375 40.3327 42.0292 40.8409 41.4046 40.8409ZM49.2024 45.2685C48.5778 45.2685 48.0696 44.7603 48.0696 44.1356C48.0696 43.5109 48.5778 43.0027 49.2024 43.0027C49.8272 43.0027 50.3354 43.5109 50.3354 44.1356C50.3354 44.7603 49.8271 45.2685 49.2024 45.2685Z" fill="white"/>
<path d="M67.4417 63.7032H61.4961H29.111H22.4033C22.015 63.7032 21.6992 63.3874 21.6992 62.9992V27.9478C21.6992 27.5596 22.015 27.2438 22.4033 27.2438H26.4084C26.8776 27.2438 27.258 26.8635 27.258 26.3942C27.258 25.9248 26.8776 25.5446 26.4084 25.5446H22.4033C21.0781 25.5446 20 26.6227 20 27.9478V62.9992C20 64.3243 21.0781 65.4024 22.4033 65.4024H28.2614V67.2723C28.2614 68.3375 29.128 69.2041 30.1932 69.2041H38.6976L34.6943 77.0202C34.4804 77.4379 34.6455 77.9498 35.0631 78.1638C35.187 78.2274 35.3194 78.2574 35.4497 78.2574C35.7584 78.2574 36.0563 78.0886 36.2066 77.7948L40.6068 69.2041H50.0003L54.4005 77.7948C54.5509 78.0886 54.8486 78.2574 55.1573 78.2574C55.2877 78.2574 55.42 78.2271 55.5439 78.1638C55.9616 77.9498 56.1268 77.4379 55.9128 77.0202L51.9094 69.2041H60.4139C61.4791 69.2041 62.3457 68.3376 62.3457 67.2723V65.4024H67.4417C67.9109 65.4024 68.2913 65.0222 68.2913 64.5528C68.2913 64.0835 67.9109 63.7032 67.4417 63.7032ZM60.6464 67.2723C60.6464 67.4005 60.5421 67.5048 60.4139 67.5048H30.1932C30.0649 67.5048 29.9606 67.4005 29.9606 67.2723V65.4024H60.6464V67.2723Z" fill="white"/>
<path d="M29.8069 27.2439H41.4377H49.1693H68.2037C68.5919 27.2439 68.9077 27.5597 68.9077 27.9479V36.0261C68.9077 36.4954 69.2881 36.8757 69.7573 36.8757C70.2265 36.8757 70.6069 36.4954 70.6069 36.0261V27.9479C70.6069 26.6228 69.5288 25.5447 68.2037 25.5447H50.019V23.8747C50.019 22.6994 49.0628 21.7432 47.8874 21.7432H42.7197C41.5444 21.7432 40.5881 22.6994 40.5881 23.8747V25.5447H29.8069C29.3377 25.5447 28.9573 25.9249 28.9573 26.3943C28.9573 26.8636 29.3377 27.2439 29.8069 27.2439ZM42.2873 23.8747C42.2873 23.6363 42.4812 23.4424 42.7197 23.4424H47.8874C48.1257 23.4424 48.3198 23.6363 48.3198 23.8747V25.5447H42.2874V23.8747H42.2873Z" fill="white"/>
<path d="M31.8834 51.3115C31.4142 51.3115 31.0338 51.6918 31.0338 52.1611V59.6685C31.0338 60.1378 31.4142 60.5181 31.8834 60.5181H35.3302C35.7994 60.5181 36.1798 60.1378 36.1798 59.6685V52.1611C36.1798 51.6918 35.7994 51.3115 35.3302 51.3115H31.8834ZM34.4806 58.819H32.733V53.0109H34.4806V58.819Z" fill="white"/>
<path d="M39.6812 46.9697C39.2119 46.9697 38.8315 47.35 38.8315 47.8193V59.6687C38.8315 60.138 39.2119 60.5183 39.6812 60.5183H43.128C43.5972 60.5183 43.9776 60.138 43.9776 59.6687V47.8193C43.9776 47.35 43.5972 46.9697 43.128 46.9697H39.6812ZM42.2785 58.8191H40.5309V48.6689H42.2785V58.8191Z" fill="white"/>
<path d="M47.479 51.3115C47.0098 51.3115 46.6294 51.6918 46.6294 52.1611V59.6685C46.6294 60.1378 47.0098 60.5181 47.479 60.5181H50.9258C51.395 60.5181 51.7754 60.1378 51.7754 59.6685V52.1611C51.7754 51.6918 51.395 51.3115 50.9258 51.3115H47.479ZM50.0762 58.819H48.3286V53.0109H50.0762V58.819Z" fill="white"/>
<path d="M55.2768 56.3248C54.8076 56.3248 54.4272 56.7051 54.4272 57.1744V59.6686C54.4272 60.1379 54.8076 60.5182 55.2768 60.5182H58.7236C59.1928 60.5182 59.5732 60.1379 59.5732 59.6686C59.5732 59.1992 59.1928 58.8189 58.7236 58.8189H56.1264V57.1744C56.1264 56.7051 55.746 56.3248 55.2768 56.3248Z" fill="white"/>
<path d="M77.5667 64.5024L72.6925 56.06C73.9274 54.7438 74.8266 53.1355 75.307 51.343C76.0747 48.478 75.6807 45.4854 74.1976 42.9166C71.1361 37.6136 64.3311 35.7906 59.0284 38.852C53.7256 41.9134 51.9024 48.7183 54.9639 54.0212C56.447 56.5899 58.8416 58.4273 61.7066 59.1952C62.6634 59.4515 63.6341 59.5783 64.5987 59.5783C65.4417 59.5783 66.2799 59.4813 67.0996 59.2894L71.9727 67.732C72.5701 68.7671 73.6578 69.3463 74.775 69.3462C75.3225 69.3462 75.8771 69.207 76.3845 68.9142C77.3809 68.3391 78 67.2667 78 66.1155C78 65.5515 77.8502 64.9938 77.5667 64.5024ZM62.1464 57.5538C59.7198 56.9036 57.6915 55.3472 56.4353 53.1715C53.8423 48.6802 55.3867 42.9166 59.8779 40.3235C61.3555 39.4705 62.9701 39.0654 64.5648 39.0654C67.8177 39.0654 70.986 40.7525 72.726 43.7663C73.982 45.9419 74.3157 48.4765 73.6655 50.9032C73.0153 53.3299 71.4589 55.358 69.2832 56.6142C67.1077 57.8703 64.5731 58.2038 62.1464 57.5538ZM75.5352 67.4425C74.8042 67.8646 73.8662 67.6133 73.4445 66.8827L68.756 58.7599C69.2259 58.5681 69.6861 58.3439 70.1331 58.0858C70.5804 57.8275 71.0041 57.54 71.4052 57.2287L76.0951 65.3518C76.2296 65.5852 76.3008 65.8494 76.3008 66.1156C76.3008 66.6614 76.0074 67.1699 75.5352 67.4425Z" fill="white"/>
<path d="M72.2841 50.8623C72.8839 48.9302 72.741 46.8616 71.8818 45.0378C71.6817 44.6132 71.1756 44.4313 70.7511 44.6312C70.3266 44.8313 70.1446 45.3374 70.3447 45.7619C71.0225 47.2006 71.1349 48.8328 70.6613 50.3583C70.1851 51.8921 69.1563 53.1793 67.7644 53.983C66.2915 54.8335 64.5754 55.0591 62.9327 54.619C61.2899 54.1788 59.9167 53.1252 59.0664 51.6523C57.3109 48.6117 58.3565 44.7099 61.3971 42.9543C63.6202 41.671 66.3792 41.8425 68.4263 43.3913C68.8006 43.6745 69.3333 43.6007 69.6164 43.2264C69.8995 42.8523 69.8257 42.3194 69.4515 42.0363C66.8583 40.0742 63.3632 39.857 60.5473 41.4827C58.6814 42.56 57.3466 44.2996 56.7889 46.3808C56.2312 48.462 56.5175 50.6358 57.5948 52.5018C58.6721 54.3679 60.4116 55.7026 62.4928 56.2604C63.1878 56.4466 63.8931 56.5387 64.5937 56.5387C65.9914 56.5387 67.3711 56.1721 68.6139 55.4545C70.3773 54.4365 71.6807 52.8057 72.2841 50.8623Z" fill="white"/>
</g>
<defs>
<clipPath id="clip0_87_1009">
<rect width="58" height="58" fill="white" transform="translate(20 21)"/>
</clipPath>
</defs>
</svg>
