<svg width="98" height="100" viewBox="0 0 98 100" fill="none" xmlns="http://www.w3.org/2000/svg">
<rect y="0.222656" width="98" height="98.8533" rx="5" fill="#FFC700"/>
<path d="M75.0711 27.7468H33.6058C31.991 27.7468 30.6773 29.0607 30.6773 30.6755V33.3032C30.6728 33.304 30.6682 33.3046 30.6637 33.3054C30.2866 33.374 30.0126 33.7025 30.0126 34.0858V35.8939C29.2728 36.1099 28.5601 36.4057 27.8823 36.7776L26.6045 35.4998C26.3333 35.2286 25.907 35.1904 25.5918 35.4088C24.3056 36.3006 23.2011 37.4051 22.3091 38.6915C22.0906 39.0066 22.1289 39.433 22.4001 39.7042L23.678 40.982C23.306 41.6598 23.0102 42.3726 22.7943 43.1122H20.9861C20.6027 43.1122 20.2743 43.3863 20.2057 43.7635C20.0693 44.5134 20.0003 45.2948 20.0003 46.0858C20.0003 46.8747 20.0694 47.655 20.2057 48.4048C20.2742 48.782 20.6027 49.0562 20.9861 49.0562H22.794C23.0105 49.7982 23.3062 50.5114 23.6778 51.1873L22.3995 52.468C22.1285 52.7394 22.0906 53.166 22.3097 53.4809C23.203 54.766 24.3071 55.869 25.5918 56.7595C25.9071 56.9783 26.3334 56.9399 26.6045 56.6686L27.8823 55.3907C28.5601 55.7626 29.2728 56.0584 30.0126 56.2744V58.0826C30.0126 58.466 30.2867 58.7944 30.6638 58.863C30.6683 58.8638 30.6728 58.8645 30.6773 58.8653V61.0529C30.6773 62.6677 31.991 63.9815 33.6058 63.9815H49.3403V65.693H45.9108C44.1012 65.693 42.629 67.1652 42.629 68.9747V71.4601C42.629 71.8982 42.9842 72.2533 43.4221 72.2533H65.2546C65.6926 72.2533 66.0477 71.8982 66.0477 71.4601V68.9747C66.0477 67.1652 64.5755 65.693 62.7659 65.693H59.3331V63.9815H75.0709C76.6857 63.9815 77.9995 62.6677 77.9995 61.0529V30.6754C77.9996 29.0605 76.6858 27.7468 75.0711 27.7468ZM28.1772 53.7245C27.8638 53.5276 27.456 53.5735 27.1943 53.8352L25.9647 55.0647C25.2332 54.4931 24.5768 53.8373 24.0038 53.1059L25.2338 51.8736C25.4954 51.6116 25.5408 51.2034 25.3433 50.8901C24.7994 50.0277 24.4082 49.0843 24.1805 48.0864C24.0983 47.7254 23.7773 47.4695 23.4072 47.4695H21.6684C21.614 47.0163 21.5865 46.5531 21.5865 46.0856C21.5865 45.6165 21.614 45.1521 21.6684 44.6983H23.4072C23.7773 44.6983 24.0983 44.4423 24.1805 44.0815C24.4071 43.0883 24.7984 42.1446 25.344 41.2767C25.5409 40.9633 25.495 40.5555 25.2332 40.2937L24.0037 39.0642C24.576 38.3319 25.2325 37.6755 25.9647 37.1032L27.1942 38.3327C27.4558 38.5943 27.8637 38.6403 28.1771 38.4434C29.0449 37.8981 29.9887 37.5066 30.9819 37.28C31.3428 37.1977 31.5987 36.8767 31.5987 36.5068V34.7671C32.5149 34.6553 33.4518 34.6551 34.3699 34.7671V36.5068C34.3699 36.8768 34.6258 37.1978 34.9867 37.28C35.9834 37.5074 36.9281 37.8988 37.7949 38.4434C38.1081 38.6403 38.5161 38.5943 38.7777 38.3327L40.0068 37.1036C40.738 37.6765 41.3936 38.3328 41.9651 39.0641L40.7355 40.2936C40.4733 40.5558 40.4277 40.9648 40.6259 41.2782C41.1689 42.1375 41.5601 43.0807 41.7883 44.0813C41.8706 44.4422 42.1914 44.6981 42.5615 44.6981H44.3011C44.3571 45.1574 44.3855 45.6216 44.3855 46.0854C44.3855 46.5474 44.3571 47.0108 44.3012 47.4693H42.5615C42.1906 47.4693 41.8692 47.7265 41.7877 48.0883C41.5633 49.0851 41.1726 50.0271 40.6264 50.8883C40.4277 51.2017 40.4728 51.6108 40.735 51.8734L41.9649 53.1056C41.3927 53.8362 40.7372 54.4917 40.0067 55.0639L38.7776 53.8348C38.516 53.5733 38.1081 53.5271 37.7948 53.7241C36.9281 54.2688 35.9834 54.6602 34.9866 54.8875C34.6257 54.9699 34.3698 55.2908 34.3698 55.6608V57.4005C33.4514 57.5125 32.5151 57.5123 31.5986 57.4005V55.6608C31.5986 55.2907 31.3427 54.9698 30.9818 54.8875C29.9888 54.6612 29.045 54.2698 28.1772 53.7245ZM35.2949 58.8645L35.3051 58.8628C35.6822 58.7943 35.9563 58.4658 35.9563 58.0824V56.2743C36.698 56.058 37.4119 55.7622 38.0897 55.3904L39.3677 56.6683C39.6391 56.9397 40.0662 56.9778 40.3812 56.7587C41.6642 55.8667 42.7671 54.764 43.6592 53.4806C43.8782 53.1657 43.8403 52.739 43.5694 52.4676L42.2921 51.188C42.6652 50.5118 42.9611 49.7983 43.1763 49.0559H44.9829C45.3662 49.0559 45.6946 48.7818 45.7633 48.4046C45.9018 47.6429 45.972 46.8627 45.972 46.0856C45.972 45.3063 45.9017 44.525 45.7633 43.7633C45.6948 43.3861 45.3662 43.112 44.9829 43.112H43.175C42.9584 42.3687 42.6629 41.6558 42.2919 40.981L43.5689 39.704C43.8401 39.4327 43.8784 39.0064 43.6599 38.6913C42.7692 37.4067 41.6661 36.3024 40.3814 35.4092C40.0663 35.1901 39.6394 35.2279 39.3679 35.4996L38.09 36.7775C37.4122 36.4058 36.6982 36.1099 35.9565 35.8936V34.0856C35.9565 33.7022 35.6825 33.3738 35.3054 33.3052C35.302 33.3046 35.2985 33.3041 35.2951 33.3034V32.3644H73.3822V59.3634H35.2949V58.8645ZM62.766 67.279C63.7008 67.279 64.4615 68.0396 64.4615 68.9744V70.6666H44.2153V68.9744C44.2153 68.0396 44.9759 67.279 45.9108 67.279H49.3403H50.9265H57.747H59.3333H62.766ZM57.747 65.6926H50.9265V63.9812H57.747V65.6926ZM76.4132 61.0525C76.4132 61.7926 75.8111 62.3948 75.071 62.3948H59.3333H57.747H50.9265H49.3403H33.6058C32.8657 62.3948 32.2636 61.7927 32.2636 61.0525V59.0504C32.5042 59.0638 32.7451 59.0712 32.9861 59.0712C33.2269 59.0712 33.468 59.0637 33.7086 59.0503V60.1566C33.7086 60.5947 34.0637 60.9498 34.5017 60.9498H74.1751C74.6132 60.9498 74.9683 60.5947 74.9683 60.1566V31.5713C74.9683 31.1333 74.6132 30.7781 74.1751 30.7781H34.5018C34.0637 30.7781 33.7087 31.1333 33.7087 31.5713V33.1183C33.2275 33.0918 32.7444 33.0917 32.2637 33.1181V30.6754C32.2637 29.9353 32.8658 29.3331 33.606 29.3331H75.0712C75.8113 29.3331 76.4135 29.9352 76.4135 30.6754V61.0525H76.4132ZM40.5161 46.0856C40.5161 41.9317 37.1382 38.5522 32.986 38.5522C28.8322 38.5522 25.4528 41.9317 25.4528 46.0856C25.4528 50.2377 28.8322 53.6157 32.986 53.6157C37.1382 53.6157 40.5161 50.2378 40.5161 46.0856ZM27.039 46.0856C27.039 42.8064 29.7068 40.1385 32.9861 40.1385C36.2635 40.1385 38.9299 42.8064 38.9299 46.0856C38.9299 49.363 36.2635 52.0293 32.9861 52.0293C29.7068 52.0293 27.039 49.363 27.039 46.0856ZM31.2755 47.9726L30.1548 49.0952L27.7054 46.6502C27.5564 46.5014 27.4727 46.2997 27.4726 46.0892C27.4724 45.8789 27.5561 45.6769 27.7048 45.528L30.1538 43.0791L31.2755 44.2007L29.3878 46.0884L31.2755 47.9726ZM34.6966 44.1942L35.8183 43.0726L38.2641 45.5184C38.5736 45.828 38.5738 46.3298 38.2645 46.6395L35.8192 49.0889L34.6966 47.9681L36.5821 46.0796L34.6966 44.1942ZM34.7375 42.6022L32.7637 49.9788L31.2313 49.5689L33.2052 42.1922L34.7375 42.6022ZM60.7494 34.1883H51.7005C51.2624 34.1883 50.9074 34.5435 50.9074 34.9815V44.0337C50.9074 44.4718 51.2625 44.8269 51.7005 44.8269H60.7494C61.1874 44.8269 61.5425 44.4718 61.5425 44.0337V34.9815C61.5426 34.5435 61.1874 34.1883 60.7494 34.1883ZM59.9563 43.2405H52.4936V35.7747H59.9562L59.9563 43.2405ZM60.7494 46.9044H51.7005C51.2624 46.9044 50.9074 47.2595 50.9074 47.6976V56.7465C50.9074 57.1845 51.2625 57.5397 51.7005 57.5397H60.7494C61.1874 57.5397 61.5425 57.1845 61.5425 56.7465V47.6976C61.5426 47.2595 61.1874 46.9044 60.7494 46.9044ZM59.9563 55.9533H52.4936V48.4908H59.9562L59.9563 55.9533ZM54.5752 41.7965L52.9237 39.6202L54.1873 38.6612L55.2546 40.0676L58.3475 36.5785L59.5346 37.6307L55.8006 41.8432C55.6498 42.0134 55.4335 42.1102 55.2071 42.1102C55.197 42.1102 55.1869 42.11 55.1769 42.1095C54.9395 42.1007 54.7187 41.9857 54.5752 41.7965ZM53.5684 53.757L55.1033 52.222L53.5684 50.6871L54.6901 49.5655L56.225 51.1004L57.76 49.5655L58.8817 50.6871L57.3468 52.222L58.8817 53.757L57.76 54.8786L56.225 53.3436L54.6901 54.8786L53.5684 53.757ZM63.2862 37.7141H72.0076V39.3005H63.2862V37.7141ZM63.2862 34.1883H72.0076V35.7747H63.2862V34.1883ZM63.2862 50.4302H72.0076V52.0165H63.2862V50.4302ZM63.2862 46.9044H72.0076V48.4908H63.2862V46.9044Z" fill="white"/>
</svg>
