<svg width="98" height="99" viewBox="0 0 98 99" fill="none" xmlns="http://www.w3.org/2000/svg">
<rect y="0.649414" width="98" height="98" rx="5" fill="#076856"/>
<g clip-path="url(#clip0_87_1089)">
<path d="M58.8951 62.0391V37.9611C58.8951 35.9182 57.2337 34.2568 55.1908 34.2568H42.2258C40.1829 34.2568 38.5215 35.9182 38.5215 37.9611V62.0391C38.5215 64.082 40.1829 65.7433 42.2258 65.7433H55.1908C57.2337 65.7433 58.8951 64.082 58.8951 62.0391ZM57.043 58.3348H40.3736V41.6654H57.043V58.3348ZM42.2258 36.109H55.1908C56.2123 36.109 57.043 36.9397 57.043 37.9611V39.8133H40.3736V37.9611C40.3736 36.9397 41.2043 36.109 42.2258 36.109ZM55.1908 63.8912H42.2258C41.2043 63.8912 40.3736 63.0605 40.3736 62.0391V60.1869H57.043V62.0391C57.043 63.0605 56.2123 63.8912 55.1908 63.8912Z" fill="white"/>
<path d="M23.7043 69.4475H25.5564V71.2997H23.7043V69.4475Z" fill="white"/>
<path d="M29.2607 69.4475H34.8172V71.2997H29.2607V69.4475Z" fill="white"/>
<path d="M23.7043 73.1519H34.8172V75.004H23.7043V73.1519Z" fill="white"/>
<path d="M23.7043 25.922C24.2157 25.922 24.6303 25.5074 24.6303 24.9959C24.6303 24.4844 24.2157 24.0698 23.7043 24.0698C23.1928 24.0698 22.7782 24.4844 22.7782 24.9959C22.7782 25.5074 23.1928 25.922 23.7043 25.922Z" fill="white"/>
<path d="M32.965 26.8482H31.1129V24.9961H29.2607V28.7004H32.965V26.8482Z" fill="white"/>
<path d="M23.7043 32.4046H25.5564V34.2568H27.4086V30.5525H23.7043V32.4046Z" fill="white"/>
<path d="M44.0779 56.4826H53.3387C54.3601 56.4826 55.1908 55.6519 55.1908 54.6305V45.3697C55.1908 44.3483 54.3601 43.5176 53.3387 43.5176H44.0779C43.0565 43.5176 42.2258 44.3483 42.2258 45.3697V54.6305C42.2258 55.6519 43.0565 56.4826 44.0779 56.4826ZM47.7822 45.3697H49.6344V47.2219H47.7822V45.3697ZM44.0779 45.3697H45.9301V49.074H51.4865V45.3697H53.3387L53.3396 54.6305H44.0779V45.3697Z" fill="white"/>
<path d="M73.7123 69.4476H78L70.2895 62.5937C72.5223 58.7755 73.7123 54.4433 73.7123 50C73.7123 45.7169 72.613 41.5413 70.5349 37.8259C74.4392 37.135 77.4166 33.7252 77.4166 29.6264C77.4166 25.0312 73.678 21.2917 69.0819 21.2917C64.9822 21.2917 61.5733 24.2691 60.8825 28.1725C57.167 26.0953 52.9914 24.996 48.7083 24.996C44.478 24.996 40.3505 26.0647 36.6693 28.0928V21.2917H20V37.9611H26.8011C24.773 41.6413 23.7043 45.7697 23.7043 50C23.7043 55.7824 25.6796 61.2963 29.2959 65.7433H22.7782C21.2465 65.7433 20 66.9898 20 68.5215V75.9301C20 77.4618 21.2465 78.7083 22.7782 78.7083H35.7433C37.275 78.7083 38.5215 77.4618 38.5215 75.9301V72.8333C41.7127 74.2567 45.205 75.004 48.7083 75.004C52.9386 75.004 57.0661 73.9353 60.7472 71.9072V76.8562H58.8951V78.7083H75.5644V76.8562H73.7123V69.4476ZM71.8601 76.8562H68.1558V69.4476H71.8601V76.8562ZM61.3307 67.5954L67.2298 62.352L73.1289 67.5954H61.3307ZM75.5644 29.6264C75.5644 32.8853 73.1437 35.5829 70.008 36.0348V34.2568C71.5397 34.2568 72.7862 33.0103 72.7862 31.4786C72.7862 29.9468 71.5397 28.7003 70.008 28.7003H68.1558C67.6446 28.7003 67.2298 28.2845 67.2298 27.7743C67.2298 27.264 67.6446 26.8482 68.1558 26.8482H70.008C70.5192 26.8482 70.9341 27.264 70.9341 27.7743H72.7862C72.7862 26.2425 71.5397 24.996 70.008 24.996V23.218C73.1437 23.6699 75.5644 26.3676 75.5644 29.6264ZM68.1558 23.218V24.996C66.6241 24.996 65.3776 26.2425 65.3776 27.7743C65.3776 29.306 66.6241 30.5525 68.1558 30.5525H70.008C70.5192 30.5525 70.9341 30.9683 70.9341 31.4786C70.9341 31.9888 70.5192 32.4046 70.008 32.4046H68.1558C67.6446 32.4046 67.2298 31.9888 67.2298 31.4786H65.3776C65.3776 33.0103 66.6241 34.2568 68.1558 34.2568V36.0348C65.0202 35.5829 62.5994 32.8853 62.5994 29.6264C62.5994 26.3676 65.0202 23.6699 68.1558 23.218ZM25.5564 23.1439V26.8482H21.8521V23.1439H25.5564ZM21.8521 28.7003H27.4086V23.1439H34.8172V36.1089H31.1129V34.2568H32.965V32.4046H31.1129V30.5525H29.2607V36.1089H21.8521V28.7003ZM36.6693 75.9301C36.6693 76.4404 36.2544 76.8562 35.7433 76.8562H22.7782C22.267 76.8562 21.8521 76.4404 21.8521 75.9301V68.5215C21.8521 68.0112 22.267 67.5954 22.7782 67.5954H35.7433C36.2544 67.5954 36.6693 68.0112 36.6693 68.5215V75.9301ZM48.7083 73.1519C45.1318 73.1519 41.7099 72.3471 38.5215 70.7784V68.5215C38.5215 66.9898 37.275 65.7433 35.7433 65.7433H31.75C27.7568 61.4445 25.5564 55.8713 25.5564 50C25.5564 45.7355 26.7363 41.5876 28.9514 37.9611H36.6693V30.2432C40.2968 28.028 44.4446 26.8482 48.7083 26.8482C52.9858 26.8482 57.1457 28.0345 60.7797 30.2626C61.0908 34.3503 64.358 37.6184 68.4457 37.9287C70.6738 41.5644 71.8601 45.7234 71.8601 50C71.8601 53.9896 70.8248 57.8828 68.8772 61.3389L67.2298 59.8738L56.4595 69.4476H60.7472V69.7569C57.1198 71.9721 52.9719 73.1519 48.7083 73.1519ZM62.5994 69.4476H66.3037V76.8562H62.5994V69.4476Z" fill="white"/>
</g>
<defs>
<clipPath id="clip0_87_1089">
<rect width="58" height="58" fill="white" transform="translate(20 21)"/>
</clipPath>
</defs>
</svg>
