<svg width="98" height="99" viewBox="0 0 98 99" fill="none" xmlns="http://www.w3.org/2000/svg">
<rect y="0.649414" width="98" height="98" rx="5" fill="#DC3545"/>
<path d="M58.6289 45.8086H68.1445C68.3248 45.8086 68.4977 45.737 68.6251 45.6095C68.7526 45.4821 68.8242 45.3092 68.8242 45.1289V42.5234C68.8242 42.3432 68.7526 42.1703 68.6251 42.0428C68.4977 41.9154 68.3248 41.8438 68.1445 41.8438H58.6289C58.4486 41.8438 58.2758 41.9154 58.1483 42.0428C58.0208 42.1703 57.9492 42.3432 57.9492 42.5234V45.1289C57.9492 45.3092 58.0208 45.4821 58.1483 45.6095C58.2758 45.737 58.4486 45.8086 58.6289 45.8086ZM62.5938 43.2031H67.4648V44.4492H62.5938V43.2031ZM59.3086 43.2031H61.2344V44.4492H59.3086V43.2031Z" fill="white"/>
<path d="M58.6289 51.4727H71.543C71.7232 51.4727 71.8961 51.401 72.0236 51.2736C72.151 51.1461 72.2227 50.9732 72.2227 50.793V48.1875C72.2227 48.0072 72.151 47.8344 72.0236 47.7069C71.8961 47.5794 71.7232 47.5078 71.543 47.5078H58.6289C58.4486 47.5078 58.2758 47.5794 58.1483 47.7069C58.0208 47.8344 57.9492 48.0072 57.9492 48.1875V50.793C57.9492 50.9732 58.0208 51.1461 58.1483 51.2736C58.2758 51.401 58.4486 51.4727 58.6289 51.4727ZM62.5938 48.8672H70.8633V50.1133H62.5938V48.8672ZM59.3086 48.8672H61.2344V50.1133H59.3086V48.8672Z" fill="white"/>
<path d="M58.6289 57.1367H68.1445C68.3248 57.1367 68.4977 57.0651 68.6251 56.9376C68.7526 56.8102 68.8242 56.6373 68.8242 56.457V53.8516C68.8242 53.6713 68.7526 53.4984 68.6251 53.371C68.4977 53.2435 68.3248 53.1719 68.1445 53.1719H58.6289C58.4486 53.1719 58.2758 53.2435 58.1483 53.371C58.0208 53.4984 57.9492 53.6713 57.9492 53.8516V56.457C57.9492 56.6373 58.0208 56.8102 58.1483 56.9376C58.2758 57.0651 58.4486 57.1367 58.6289 57.1367ZM62.5938 54.5312H67.4648V55.7773H62.5938V54.5312ZM59.3086 54.5312H61.2344V55.7773H59.3086V54.5312Z" fill="white"/>
<path d="M58.6289 62.8008H70.4102C70.5904 62.8008 70.7633 62.7292 70.8908 62.6017C71.0182 62.4742 71.0898 62.3014 71.0898 62.1211V59.5156C71.0898 59.3354 71.0182 59.1625 70.8908 59.035C70.7633 58.9075 70.5904 58.8359 70.4102 58.8359H58.6289C58.4486 58.8359 58.2758 58.9075 58.1483 59.035C58.0208 59.1625 57.9492 59.3354 57.9492 59.5156V62.1211C57.9492 62.3014 58.0208 62.4742 58.1483 62.6017C58.2758 62.7292 58.4486 62.8008 58.6289 62.8008ZM62.5938 60.1953H69.7305V61.4414H62.5938V60.1953ZM59.3086 60.1953H61.2344V61.4414H59.3086V60.1953Z" fill="white"/>
<path d="M30.1311 66.5391H51.3298C51.4221 66.5448 51.5145 66.5305 51.6008 66.4972C51.687 66.4638 51.7649 66.4122 51.8293 66.3458C51.8937 66.2794 51.9429 66.1999 51.9735 66.1127C52.0042 66.0254 52.0157 65.9326 52.007 65.8406L50.3418 46.1243C50.3284 45.9575 50.2538 45.8016 50.1322 45.6867C50.0106 45.5717 49.8508 45.5059 49.6835 45.5019L44.8086 45.4688V43.8129C44.8111 43.1833 44.6892 42.5594 44.45 41.977C44.2108 41.3946 43.8589 40.8652 43.4146 40.4191C42.9703 39.973 42.4422 39.6191 41.8608 39.3775C41.2793 39.136 40.6559 39.0117 40.0263 39.0117H40.024C37.3754 39.013 35.1797 41.1687 35.1797 43.817V45.4688H31.7958C31.6266 45.4663 31.4626 45.528 31.337 45.6415C31.2113 45.755 31.1333 45.9118 31.1185 46.0805L29.4537 65.8594C29.446 65.9488 29.4577 66.0388 29.4883 66.1232C29.5189 66.2076 29.5675 66.2843 29.6307 66.348C29.6959 66.4133 29.7742 66.4641 29.8604 66.497C29.9467 66.5299 30.0389 66.5443 30.1311 66.5391ZM49.1133 47.1941L50.5633 64.3816L49.1133 63.2102V47.1941ZM49.4065 65.1797H47.3755L48.429 64.3898L49.4065 65.1797ZM47.7539 63.2814L46.2086 64.4404L47.7539 48.7002V63.2814ZM36.539 43.8168C36.539 41.9177 38.125 40.372 40.0281 40.3711H40.0297C40.4808 40.3715 40.9275 40.4612 41.3438 40.6348C41.7602 40.8085 42.1382 41.0628 42.456 41.383C42.7738 41.7032 43.0251 42.0831 43.1956 42.5008C43.366 42.9186 43.4522 43.3659 43.4492 43.817V45.4688H36.539V43.8168ZM32.4208 46.8281H35.1797V49.0084C35.1797 49.1887 35.2513 49.3616 35.3787 49.4891C35.5062 49.6165 35.6791 49.6881 35.8594 49.6881C36.0396 49.6881 36.2125 49.6165 36.34 49.4891C36.4674 49.3616 36.539 49.1887 36.539 49.0084V46.8281H43.4492V49.0084C43.4492 49.1887 43.5208 49.3616 43.6483 49.4891C43.7757 49.6165 43.9486 49.6881 44.1289 49.6881C44.3091 49.6881 44.482 49.6165 44.6095 49.4891C44.737 49.3616 44.8086 49.1887 44.8086 49.0084V46.8281H46.5291L45.1561 60.7617H31.2439L32.4208 46.8281ZM31.1294 62.1211H45.0227L44.7202 65.1797H30.8703L31.1294 62.1211Z" fill="white"/>
<path d="M71.6562 26.4375H26.3438C24.9617 26.4375 23.6363 26.9865 22.6591 27.9637C21.6818 28.941 21.1328 30.2664 21.1328 31.6484V68.3516C21.1328 69.7336 21.6818 71.059 22.6591 72.0363C23.6363 73.0135 24.9617 73.5625 26.3438 73.5625H71.6562C73.0383 73.5625 74.3637 73.0135 75.3409 72.0363C76.3182 71.059 76.8672 69.7336 76.8672 68.3516V31.6484C76.8672 30.2664 76.3182 28.941 75.3409 27.9637C74.3637 26.9865 73.0383 26.4375 71.6562 26.4375ZM22.4922 31.6691C22.4927 30.6458 22.898 29.6643 23.6196 28.9389C24.3412 28.2134 25.3205 27.8029 26.3438 27.7969H39.0312V31.5203C39.0329 31.8347 38.9723 32.1464 38.8528 32.4373C38.7334 32.7281 38.5575 32.9925 38.3354 33.215C38.1133 33.4376 37.8493 33.6139 37.5586 33.7339C37.268 33.8539 36.9565 33.9151 36.642 33.9141H22.4922V31.6691ZM75.5078 68.3309C75.5073 69.3542 75.102 70.3357 74.3804 71.0611C73.6588 71.7866 72.6795 72.1971 71.6562 72.2031H26.3438C25.3205 72.1971 24.3412 71.7866 23.6196 71.0611C22.898 70.3357 22.4927 69.3542 22.4922 68.3309V35.2734H75.5078V68.3309ZM75.5078 33.9141H39.54C40.0982 33.2421 40.3997 32.3937 40.3906 31.5202V27.7969H71.6562C72.6795 27.8029 73.6588 28.2134 74.3804 28.9389C75.102 29.6643 75.5073 30.6458 75.5078 31.6691V33.9141Z" fill="white"/>
<path d="M27.0647 29.947C26.8814 29.947 26.7022 30.0014 26.5497 30.1032C26.3973 30.2051 26.2785 30.3498 26.2084 30.5192C26.1382 30.6886 26.1199 30.8749 26.1556 31.0547C26.1914 31.2345 26.2797 31.3997 26.4093 31.5293C26.5389 31.6589 26.7041 31.7472 26.8839 31.7829C27.0637 31.8187 27.25 31.8004 27.4194 31.7302C27.5887 31.6601 27.7335 31.5413 27.8353 31.3888C27.9372 31.2364 27.9916 31.0572 27.9916 30.8739C27.9913 30.6282 27.8935 30.3926 27.7198 30.2188C27.546 30.045 27.3104 29.9473 27.0647 29.947Z" fill="white"/>
<path d="M30.772 29.947C30.5887 29.947 30.4095 30.0014 30.2571 30.1032C30.1047 30.2051 29.9859 30.3498 29.9157 30.5192C29.8456 30.6886 29.8272 30.8749 29.863 31.0547C29.8987 31.2345 29.987 31.3997 30.1166 31.5293C30.2463 31.6589 30.4114 31.7472 30.5912 31.7829C30.771 31.8187 30.9574 31.8004 31.1267 31.7302C31.2961 31.6601 31.4408 31.5413 31.5427 31.3888C31.6445 31.2364 31.6989 31.0572 31.6989 30.8739C31.6986 30.6282 31.6009 30.3926 31.4271 30.2188C31.2534 30.045 31.0178 29.9473 30.772 29.947Z" fill="white"/>
<path d="M34.4795 29.947C34.2961 29.947 34.1169 30.0013 33.9645 30.1032C33.8121 30.205 33.6932 30.3498 33.6231 30.5191C33.5529 30.6885 33.5345 30.8748 33.5703 31.0546C33.606 31.2344 33.6943 31.3996 33.8239 31.5292C33.9535 31.6589 34.1187 31.7472 34.2985 31.7829C34.4783 31.8187 34.6647 31.8004 34.834 31.7302C35.0034 31.6601 35.1482 31.5413 35.25 31.3888C35.3519 31.2364 35.4062 31.0572 35.4062 30.8739C35.406 30.6282 35.3082 30.3926 35.1345 30.2188C34.9608 30.0451 34.7252 29.9473 34.4795 29.947Z" fill="white"/>
<path d="M24.9844 38.9926C25.1646 38.9926 25.3375 38.921 25.465 38.7936C25.5925 38.6661 25.6641 38.4932 25.6641 38.313V37.8264C25.6641 37.6462 25.5925 37.4733 25.465 37.3458C25.3375 37.2183 25.1646 37.1467 24.9844 37.1467C24.8041 37.1467 24.6312 37.2183 24.5038 37.3458C24.3763 37.4733 24.3047 37.6462 24.3047 37.8264V38.313C24.3047 38.4932 24.3763 38.6661 24.5038 38.7936C24.6312 38.921 24.8041 38.9926 24.9844 38.9926Z" fill="white"/>
<path d="M24.9844 52.2466C25.1646 52.2466 25.3375 52.175 25.465 52.0475C25.5925 51.92 25.6641 51.7472 25.6641 51.5669V40.6919C25.6641 40.5116 25.5925 40.3388 25.465 40.2113C25.3375 40.0838 25.1646 40.0122 24.9844 40.0122C24.8041 40.0122 24.6312 40.0838 24.5038 40.2113C24.3763 40.3388 24.3047 40.5116 24.3047 40.6919V51.5669C24.3047 51.7472 24.3763 51.92 24.5038 52.0475C24.6312 52.175 24.8041 52.2466 24.9844 52.2466Z" fill="white"/>
</svg>
