<svg width="64" height="64" viewBox="0 0 64 64" fill="none" xmlns="http://www.w3.org/2000/svg">
<g clip-path="url(#clip0_105_78)">
<path d="M53.4209 41.1786C51.3955 37.847 50.3682 34.3461 50.3682 30.7733C50.3682 30.2567 49.9497 29.8382 49.4331 29.8382H49.2329L53.2993 21.5326C53.6656 20.7845 53.7183 19.9388 53.4478 19.1517C53.1773 18.3646 52.6162 17.7298 51.8677 17.3646L47.7017 15.3324C46.1582 14.5794 44.2876 15.2215 43.5322 16.7645L37.1318 29.8382H34.7373C34.7314 29.8382 34.7251 29.8387 34.7192 29.8387C34.7129 29.8387 34.707 29.8382 34.7012 29.8382H34.3603V24.1346C34.3603 22.9281 32.4897 22.9281 32.4897 24.1346V29.8382H30.8686V24.1346C30.8686 22.9281 28.998 22.9281 28.998 24.1346V29.8382H25.0761L22.3789 21.9115C22.3247 21.7523 22.2246 21.6053 22.0952 21.4969L14.935 15.4803C14.6831 15.2689 14.3383 15.2049 14.0278 15.3123C13.7168 15.4198 13.4853 15.6829 13.4179 16.0047L11.4731 25.3133C11.4394 25.4754 11.4497 25.6498 11.5029 25.806L12.875 29.8382H12.0053C11.5805 29.8382 11.2089 30.1244 11.1005 30.535C11.0664 30.6649 10.2622 33.7635 10.25 37.8822C10.2338 43.3949 11.6752 48.0946 14.4174 51.4731C15.1855 52.4189 16.6264 51.226 15.8696 50.2943C10.7221 43.9525 12.2128 34.3563 12.7539 31.7084H33.729C33.46 35.0995 31.77 37.0839 30.832 37.9374C29.6592 36.785 28.1504 36.2601 27.0317 36.2601C24.144 36.2601 21.7944 38.6097 21.7944 41.4979C21.7944 43.934 23.4658 45.9867 25.7226 46.5697C23.5532 50.8891 19.8344 52.8764 18.9106 53.3168C18.4091 53.3339 18.0073 53.7445 18.0073 54.2504V63.0644C18.0073 63.581 18.4262 63.9999 18.9423 63.9999H33.6587C34.1753 63.9999 34.5942 63.581 34.5942 63.0644V58.9179H36.9932C44.5171 58.9179 50.6851 53.0009 51.0884 45.5756C52.0957 45.5375 52.9849 44.9901 53.4785 44.1C53.9917 43.1742 53.9702 42.0819 53.4209 41.1786ZM45.2119 17.5872C45.5147 16.9691 46.2637 16.7122 46.8819 17.0135L51.0479 19.0457C51.6582 19.3441 51.918 20.0999 51.6192 20.7098L50.8853 22.2083L49.2427 21.4071C48.1582 20.8783 47.3379 22.5594 48.4224 23.0882L50.063 23.8885L48.6319 26.8119L45.9649 25.5111C44.8809 24.9818 44.0606 26.6634 45.145 27.1918L47.8096 28.4921L47.1504 29.8382H39.2144L45.2119 17.5872ZM19.8969 29.8382L18.6709 26.138L21.0752 23.8866L23.1001 29.8382H19.8969ZM14.5405 19.7777L16.4028 19.1576L20.0849 22.2513L17.2695 24.8876L13.5239 24.6419L14.5405 19.7777ZM13.7251 26.5296L16.8994 26.7381L17.9262 29.8382H14.8505L13.7251 26.5296ZM51.8423 43.1933C51.7578 43.3456 51.5054 43.7011 50.9893 43.7074H50.1743C49.5816 43.7074 49.2041 44.2489 49.2388 44.8017C49.2388 51.5541 43.7451 57.0473 36.9932 57.0473H33.6587C33.1421 57.0473 32.7236 57.4662 32.7236 57.9828V62.1293H19.8779V54.9296C21.3418 54.2123 25.7563 51.6635 27.9624 46.1474C28.1548 45.6679 27.9214 45.1239 27.4414 44.932C27.3149 44.8812 27.1841 44.8612 27.0561 44.8661C27.0478 44.8661 27.04 44.8651 27.0317 44.8651C25.1753 44.8651 23.665 43.3544 23.665 41.4979C23.665 39.6415 25.1753 38.1307 27.0317 38.1307C27.8901 38.1307 29.1699 38.6952 29.9541 39.7738C30.2446 40.1727 30.7944 40.2782 31.2109 40.014C31.3823 39.9056 35.2148 37.4086 35.602 31.7089H48.5191C48.6826 35.3026 49.792 38.8104 51.8228 42.1503C52.0186 42.4725 52.0259 42.8622 51.8423 43.1933Z" fill="#C33DAB"/>
<path d="M41.9688 34.5996C40.0781 34.5996 38.54 36.1382 38.54 38.0288C38.54 39.2354 40.4106 39.2354 40.4106 38.0288C40.4106 37.1694 41.1094 36.4702 41.9688 36.4702C42.8286 36.4702 43.5274 37.1694 43.5274 38.0288C43.5274 39.2354 45.398 39.2354 45.398 38.0288C45.398 36.1382 43.8599 34.5996 41.9688 34.5996Z" fill="#C33DAB"/>
<path d="M15.8525 8.39466H16.8222V9.36439C16.8222 10.5709 18.6928 10.5709 18.6928 9.36439V8.39466H19.6626C20.8691 8.39466 20.8691 6.52405 19.6626 6.52405H18.6928V5.55432C18.6928 4.34778 16.8222 4.34778 16.8222 5.55432V6.52405H15.8525C14.646 6.52405 14.646 8.39466 15.8525 8.39466Z" fill="#C33DAB"/>
<path d="M40.2173 3.78089H41.187V4.75013C41.187 5.95668 43.0576 5.95668 43.0576 4.75013V3.78089H44.0278C45.2339 3.78089 45.2339 1.91028 44.0278 1.91028H43.0576V0.940065C43.0576 -0.26648 41.187 -0.26648 41.187 0.940065V1.90979H40.2173C39.0112 1.91028 39.0112 3.78089 40.2173 3.78089Z" fill="#C33DAB"/>
<path d="M46.7022 10.7644H47.6719V11.7337C47.6719 12.9402 49.5425 12.9402 49.5425 11.7337V10.7644H50.5122C51.7188 10.7644 51.7188 8.8938 50.5122 8.8938H49.5425V7.92359C49.5425 6.71753 47.6719 6.71753 47.6719 7.92359V8.8938H46.7022C45.4956 8.8938 45.4956 10.7644 46.7022 10.7644Z" fill="#C33DAB"/>
<path d="M24.8276 23.2823C25.1811 23.4093 25.6313 23.2838 25.8686 22.9913C25.9077 22.9434 26.7974 21.8458 27.7397 20.5777C28.7759 21.5523 30.1401 22.0982 31.5981 22.0982H31.6128C33.0747 22.0948 34.4487 21.5416 35.4971 20.5592C36.4234 21.8194 37.2974 22.9083 37.3355 22.9561C37.8687 23.6192 38.9951 23.2345 39 22.3751L39.0318 16.5411C39.0361 15.7852 38.7432 15.0728 38.207 14.5347C37.9483 14.2754 37.6475 14.0733 37.3203 13.9307L37.3423 9.9522C37.3618 6.37602 35.5776 2.91947 32.3179 0.219759C31.3887 -0.550262 30.1958 0.890658 31.1245 1.66019C33.3096 3.47025 34.728 5.64409 35.2485 7.92973L28.1177 7.94682C28.3682 6.89506 28.8091 5.86577 29.439 4.86918C30.0835 3.84916 28.5024 2.85013 27.8574 3.86967C26.6372 5.79985 26.0127 7.85063 26.0015 9.96538L25.9795 13.9532C24.9619 14.3975 24.2456 15.4005 24.2392 16.5631L24.2075 22.397C24.2051 22.7935 24.4536 23.149 24.8276 23.2823ZM26.1099 16.5733C26.1128 16.0269 26.5781 15.5816 27.1465 15.5801H27.1494C27.4282 15.5801 27.687 15.6856 27.8784 15.878C28.0483 16.0484 28.146 16.2696 28.1567 16.5049C28.0283 16.9424 27.1548 18.2354 26.0928 19.6578L26.1099 16.5733ZM37.1445 19.6426C36.0991 18.2271 35.2402 16.939 35.1152 16.502C35.1445 15.9786 35.5986 15.5591 36.1504 15.5577H36.1528C36.4317 15.5577 36.6909 15.6636 36.8823 15.856C37.0635 16.0377 37.1626 16.2779 37.1616 16.5313L37.1445 19.6426ZM35.4702 9.79986C35.4707 9.84722 35.4717 9.89458 35.4717 9.94243L35.4507 13.773C34.1914 14.0836 33.2505 15.2076 33.2432 16.5411C33.2412 16.8995 33.3462 17.4234 34.4033 19.0089C33.6792 19.7838 32.6782 20.2252 31.6079 20.2276C31.6045 20.2276 31.6016 20.2276 31.5981 20.2276C30.5371 20.2276 29.5508 19.796 28.8413 19.0342C29.9155 17.4444 30.0259 16.921 30.0283 16.5635C30.0322 15.8072 29.7393 15.0948 29.2031 14.5572C28.8262 14.1788 28.3599 13.9214 27.8511 13.7969L27.8721 9.97564C27.8721 9.9229 27.8745 9.87066 27.8755 9.81841L35.4702 9.79986Z" fill="#C33DAB"/>
<path d="M26.7822 40.5127C25.5786 40.5127 25.5767 42.3833 26.7822 42.3833C27.9858 42.3833 27.9878 40.5127 26.7822 40.5127Z" fill="#C33DAB"/>
</g>
<defs>
<clipPath id="clip0_105_78">
<rect width="64" height="64" fill="white"/>
</clipPath>
</defs>
</svg>
