<svg width="64" height="64" viewBox="0 0 64 64" fill="none" xmlns="http://www.w3.org/2000/svg">
<path d="M57.1775 23.1513C56.775 20.99 54.8438 19.3512 52.6125 19.3512H49.9213C49.7975 19.0312 49.6675 18.7163 49.5313 18.4088L51.4338 16.5037C53.2425 14.695 53.2425 11.7513 51.4338 9.9425L47.315 5.82C45.5025 4.0125 42.5588 4.0125 40.75 5.82125L38.8463 7.725C38.5363 7.5875 38.2213 7.4575 37.9025 7.33375V4.6425C37.9038 2.0825 35.8213 0 33.2613 0H27.4363C24.8763 0 22.795 2.0825 22.795 4.64125V7.33375C22.4775 7.45625 22.1625 7.58625 21.8525 7.72375L19.9475 5.81875C18.1388 4.01 15.195 4.01 13.3863 5.81875L9.26501 9.94125C7.45626 11.75 7.45626 14.6938 9.26501 16.5025L11.17 18.4075C11.0313 18.72 10.9013 19.0338 10.7788 19.35H8.08626C5.52626 19.35 3.44501 21.4325 3.44501 23.9912V29.8162C3.44501 32.3763 5.52751 34.4575 8.08626 34.4575H10.7775C10.9025 34.78 11.0325 35.0938 11.1688 35.4012L9.26501 37.305C8.39126 38.1787 7.90876 39.3438 7.90876 40.5863C7.90876 41.8275 8.39001 42.9925 9.26501 43.8675L13.3863 47.9888C15.195 49.7975 18.1388 49.7975 19.9475 47.9888L21.8525 46.0838C22.1613 46.2213 22.475 46.3512 22.795 46.475V49.1662C22.795 51.7262 24.8775 53.8075 27.4363 53.8075H33.2613C35.8213 53.8075 37.9025 51.725 37.9025 49.1662V46.4762C38.2225 46.3525 38.5375 46.2213 38.8463 46.0838L40.7513 47.9888C41.8263 49.0612 43.3475 49.515 44.795 49.28V58.7475C44.795 61.6425 47.1513 63.9987 50.0463 63.9987H50.1388C53.0325 63.9987 55.3863 61.6425 55.3863 58.7475V39.88C58.59 38.0025 60.5563 34.5975 60.5563 30.8512C60.555 27.9075 59.3313 25.1325 57.1775 23.1513ZM42.1638 46.5762L39.765 44.1775C39.4625 43.875 39.0025 43.7988 38.6188 43.9863C37.975 44.3013 37.2863 44.5875 36.575 44.8363C36.1738 44.9762 35.905 45.355 35.905 45.78V49.1675C35.905 50.625 34.7188 51.8112 33.2613 51.8112H27.4363C25.9788 51.8112 24.7925 50.625 24.7925 49.1675V45.78C24.7925 45.3562 24.525 44.9775 24.1238 44.8375C23.4138 44.5875 22.7238 44.3013 22.0763 43.9863C21.6925 43.8 21.2338 43.8763 20.9325 44.1775L18.5338 46.5762C17.5038 47.6062 15.8288 47.6062 14.7988 46.5762L10.6775 42.455C10.1813 41.9588 9.90751 41.295 9.90751 40.5875C9.90751 39.88 10.1813 39.2163 10.6775 38.72L13.0763 36.3213C13.3788 36.0187 13.455 35.5588 13.2675 35.175C12.9563 34.54 12.67 33.8512 12.4163 33.1287C12.2763 32.7287 11.8975 32.46 11.4738 32.46H8.08626C6.62876 32.46 5.44251 31.2738 5.44251 29.8162V23.9912C5.44251 22.5337 6.62876 21.3475 8.08626 21.3475H11.4775C11.9038 21.3475 12.2825 21.0775 12.4213 20.675C12.66 19.9875 12.945 19.2987 13.2688 18.63C13.455 18.2475 13.3775 17.7887 13.0763 17.4875L10.6775 15.0887C9.64751 14.0588 9.64751 12.3837 10.6775 11.3538L14.7988 7.2325C15.8288 6.2025 17.5038 6.2025 18.5338 7.2325L20.9325 9.63125C21.2338 9.9325 21.6938 10.01 22.0763 9.8225C22.7325 9.5025 23.42 9.2175 24.12 8.97625C24.5225 8.8375 24.7925 8.4575 24.7925 8.0325V4.6425C24.7925 3.185 25.9788 1.99875 27.4363 1.99875H33.2613C34.7188 1.99875 35.905 3.185 35.905 4.6425V8.03375C35.905 8.46 36.1763 8.84 36.5788 8.97875C37.28 9.22 37.9675 9.505 38.6188 9.82375C39.0025 10.0112 39.4625 9.935 39.765 9.6325L42.1638 7.23375C43.1938 6.20375 44.8713 6.205 45.9025 7.23375L50.02 11.355C51.05 12.385 51.05 14.06 50.02 15.0913L47.625 17.49C47.325 17.7913 47.2475 18.2488 47.4325 18.6313C47.745 19.2763 48.0313 19.9662 48.2813 20.6812C48.4213 21.0812 48.8 21.35 49.2238 21.35H52.6113C53.3825 21.35 54.09 21.695 54.5788 22.24C54.3775 22.2825 54.1775 22.3475 53.985 22.4387C53.0613 22.875 52.4875 23.78 52.4875 24.8025V29.93C52.4875 31.2513 51.4125 32.325 50.0925 32.325C48.7725 32.325 47.6975 31.25 47.6975 29.93V24.8C47.6975 23.7787 47.1238 22.8725 46.1975 22.4363C45.2713 22.0013 44.2075 22.1362 43.4213 22.7875C43.2675 22.915 43.1175 23.0462 42.9725 23.1812C41.35 17.6812 36.2425 13.7463 30.35 13.7463C23.0938 13.7463 17.19 19.65 17.19 26.9062C17.19 34.1625 23.0938 40.0662 30.35 40.0662C34.3313 40.0662 38.0863 38.2412 40.565 35.2C41.4438 37.13 42.9038 38.7725 44.7963 39.8812V47.2375C43.88 47.5088 42.8575 47.2675 42.1638 46.5762ZM39.8113 32.8262C37.7775 36.0675 34.1863 38.0662 30.3488 38.0662C24.1938 38.0662 19.1875 33.0588 19.1875 26.905C19.1875 20.7513 24.195 15.7437 30.3488 15.7437C35.8125 15.7437 40.4788 19.7325 41.3588 25.0812C40.2388 26.7737 39.625 28.7713 39.625 30.8525C39.625 31.5238 39.6888 32.1837 39.8113 32.8262ZM53.9325 38.3988C53.5975 38.57 53.3875 38.9137 53.3875 39.2887V58.7487C53.3875 60.5425 51.93 62.0013 50.1388 62.0013H50.0463C48.2525 62.0013 46.7938 60.5425 46.7938 58.7487V39.2887C46.7938 39.2463 46.79 39.2037 46.785 39.1625C46.7838 39.1525 46.7825 39.1412 46.78 39.1312C46.775 39.0975 46.7675 39.0638 46.7588 39.0312C46.7563 39.0238 46.755 39.0163 46.7525 39.0088C46.7413 38.9688 46.7263 38.9287 46.71 38.89C46.7088 38.8862 46.7063 38.8825 46.7038 38.8775C46.6888 38.8438 46.6713 38.8112 46.6525 38.78C46.6475 38.7712 46.6425 38.7625 46.6375 38.755C46.6175 38.7225 46.595 38.6912 46.5713 38.6613C46.57 38.6588 46.5675 38.6562 46.5663 38.655C46.54 38.6237 46.5125 38.595 46.4838 38.5662C46.4763 38.5588 46.4675 38.5513 46.46 38.5438C46.435 38.5213 46.4088 38.5 46.3813 38.48C46.375 38.475 46.3688 38.47 46.3625 38.4663C46.3288 38.4425 46.2925 38.4212 46.255 38.4012C46.2525 38.4 46.2513 38.3988 46.2488 38.3975C44.0038 37.2512 42.4275 35.215 41.8588 32.8413C41.8525 32.8038 41.8438 32.7663 41.8338 32.73C41.6963 32.1225 41.6238 31.4937 41.6238 30.8512C41.6238 28.32 42.7438 25.9412 44.695 24.325C44.8125 24.2275 44.9425 24.1787 45.0763 24.1787C45.165 24.1787 45.255 24.2 45.3463 24.2425C45.5763 24.3512 45.6988 24.5438 45.6988 24.7987V29.9263C45.6988 32.3488 47.67 34.32 50.0925 34.32C52.515 34.32 54.4863 32.3488 54.4863 29.9263V24.8C54.4863 24.545 54.6075 24.3525 54.8388 24.2437C55.065 24.1375 55.2938 24.1663 55.4838 24.3237L55.4863 24.3263C57.4388 25.9425 58.5575 28.32 58.5575 30.8525C58.5575 34.0513 56.785 36.9425 53.9325 38.3988ZM51.1125 59.11C51.1125 59.6625 50.665 60.1087 50.1138 60.1087H50.0675C49.515 60.1087 49.0688 59.6613 49.0688 59.11C49.0688 58.5588 49.5163 58.1113 50.0675 58.1113H50.1138C50.665 58.1113 51.1125 58.5575 51.1125 59.11ZM25.4663 26.09V20.7712C25.4663 20.2188 25.0188 19.7725 24.4675 19.7725C23.9163 19.7725 23.4688 20.22 23.4688 20.7712V26.09C22.3575 26.4988 21.5625 27.5675 21.5625 28.8188C21.5625 30.07 22.36 31.1388 23.4738 31.545C23.47 31.5788 23.4688 31.6112 23.4688 31.6462V33.0387C23.4688 33.59 23.9163 34.0375 24.4675 34.0375C25.0188 34.0375 25.4663 33.59 25.4663 33.0387V31.6462C25.4663 31.6125 25.465 31.5788 25.4613 31.545C26.5738 31.1388 27.3688 30.07 27.3688 28.8188C27.3688 27.5675 26.575 26.4988 25.4663 26.09ZM24.4663 29.7213C23.9663 29.7213 23.5588 29.3162 23.5588 28.8175C23.5588 28.3175 23.965 27.91 24.4663 27.91C24.965 27.91 25.37 28.3175 25.37 28.8175C25.37 29.3162 24.965 29.7213 24.4663 29.7213ZM37.23 26.09V20.7712C37.23 20.2188 36.7825 19.7725 36.2313 19.7725C35.68 19.7725 35.2325 20.22 35.2325 20.7712V26.09C34.1238 26.4988 33.33 27.5675 33.33 28.8175C33.33 30.0687 34.1263 31.1375 35.2375 31.5438C35.2338 31.5775 35.2325 31.6112 35.2325 31.645V33.0375C35.2325 33.5887 35.68 34.0363 36.2313 34.0363C36.7825 34.0363 37.23 33.5887 37.23 33.0375V31.645C37.23 31.6112 37.2288 31.5775 37.225 31.5438C38.3388 31.1375 39.1363 30.0687 39.1363 28.8175C39.1363 27.5675 38.3413 26.4975 37.23 26.09ZM36.2313 29.7213C35.7413 29.7213 35.3275 29.3075 35.3275 28.8175C35.3275 28.3175 35.7325 27.91 36.2313 27.91C36.7313 27.91 37.1388 28.3175 37.1388 28.8175C37.1375 29.3162 36.7313 29.7213 36.2313 29.7213ZM31.3425 22.265C31.3463 22.2325 31.3475 22.1987 31.3475 22.1637V20.7712C31.3475 20.2188 30.9 19.7725 30.3488 19.7725C29.7975 19.7725 29.35 20.22 29.35 20.7712V22.1637C29.35 22.1975 29.3513 22.2312 29.355 22.265C28.2425 22.6712 27.4475 23.74 27.4475 24.9912C27.4475 26.2425 28.2413 27.31 29.35 27.7188V33.0375C29.35 33.5887 29.7975 34.0363 30.3488 34.0363C30.9 34.0363 31.3475 33.5887 31.3475 33.0375V27.7188C32.4588 27.31 33.2538 26.2412 33.2538 24.99C33.2538 23.74 32.4575 22.6712 31.3425 22.265ZM30.3488 25.8988C29.85 25.8988 29.445 25.4912 29.445 24.9912C29.445 24.5012 29.8588 24.0875 30.3488 24.0875C30.8488 24.0875 31.2563 24.4925 31.2563 24.9912C31.2563 25.4912 30.8488 25.8988 30.3488 25.8988Z" fill="#DC3545"/>
</svg>
