<svg width="72" height="72" viewBox="0 0 72 72" fill="none" xmlns="http://www.w3.org/2000/svg">
<g clip-path="url(#clip0_110_496)">
<path d="M44.5603 55.2859H40.7031C38.5729 55.2859 36.8459 57.0128 36.8459 59.1431C36.8459 59.8531 37.4215 60.4289 38.1316 60.4289H43.2744C45.3572 60.4469 47.3894 61.0725 49.1219 62.2289C49.5057 62.4816 49.7255 62.9197 49.6986 63.3783C49.6717 63.837 49.4022 64.2465 48.9914 64.4526C48.5808 64.6586 48.0912 64.6299 47.7075 64.3773C46.395 63.4991 44.8559 63.0207 43.277 63.0003H35.6758C34.596 63.0009 33.525 62.8065 32.5142 62.4269L14.9757 55.8479C14.4034 55.633 13.7585 55.7705 13.3235 56.2001C13.0254 56.4902 12.8571 56.8885 12.8568 57.3046C12.8568 57.8561 13.1437 58.368 13.6141 58.6559L31.8095 69.7721C32.8187 70.3913 33.9801 70.7177 35.164 70.7146H59.1425V51.4287H54.8457C50.427 51.4287 50.0336 55.2859 44.5603 55.2859Z" fill="#076856"/>
<path d="M63 48.8574H70.7142C71.4242 48.8574 72 49.433 72 50.1432V70.7146C72 71.4246 71.4244 72.0004 70.7142 72.0004H63C62.29 72.0004 61.7142 71.4248 61.7142 70.7146V50.143C61.7142 49.433 62.29 48.8574 63 48.8574Z" fill="#076856"/>
<path d="M32.1428 10.2857C32.1428 10.9957 32.7184 11.5715 33.4286 11.5715H41.1428C41.8528 11.5715 42.4286 10.9959 42.4286 10.2857V0H32.1428V10.2857Z" fill="#076856"/>
<path d="M0 37.2858C0 37.9958 0.575578 38.5715 1.28573 38.5715H4.09373C5.87053 38.5694 7.60795 39.0958 9.08494 40.0835L12.9125 42.6343C13.9676 43.3398 15.2086 43.7157 16.4777 43.7143H27.459C28.4941 43.7505 29.3947 43.0112 29.5612 41.9889C29.6189 41.4449 29.4428 40.9022 29.0769 40.4957C28.711 40.0892 28.1898 39.8571 27.6428 39.8571H23.1428C22.4328 39.8571 21.8571 39.2815 21.8571 38.5714C21.8571 37.8614 22.4326 37.2857 23.1428 37.2857H31.3161C32.3512 37.3218 33.2518 36.5825 33.4183 35.5602C33.4759 35.0162 33.2999 34.4736 32.934 34.067C32.568 33.6605 32.0469 33.4285 31.4999 33.4285H23.1427C22.4326 33.4285 21.8569 32.8529 21.8569 32.1427C21.8569 31.4326 22.4325 30.857 23.1427 30.857H34.0712C34.6181 30.8571 35.1394 30.625 35.5053 30.2184C35.8712 29.8119 36.0471 29.269 35.9896 28.7253C35.8232 27.7029 34.9227 26.9638 33.8874 26.9998H23.1427C22.4326 26.9998 21.8569 26.4242 21.8569 25.714C21.8569 25.0039 22.4325 24.4283 23.1427 24.4283H31.5C32.5651 24.4283 33.4285 23.5649 33.4285 22.4998C33.4285 21.4347 32.5651 20.5712 31.5 20.5712H15.4285C14.7185 20.5712 14.1428 19.9957 14.1428 19.2855C14.1428 18.5754 14.7184 17.9998 15.4285 17.9998H16.7143V14.1426H15.4285C14.1238 14.146 12.8732 14.6639 11.9481 15.5838L9.15553 18.3764C7.74717 19.7769 5.84325 20.5655 3.85706 20.5711H1.28573C0.575719 20.5711 0 21.1467 0 21.8568L0 37.2858Z" fill="#076856"/>
<path d="M55.2858 0H45.0001V10.2857C45.0001 12.4159 43.2732 14.1429 41.1429 14.1429H33.4286C31.2984 14.1429 29.5714 12.4161 29.5714 10.2857V0H21.8571C20.4369 0 19.2856 1.1513 19.2856 2.57147V18H31.5001C33.0947 17.9997 34.5703 18.8435 35.3792 20.2178C36.1881 21.5921 36.2089 23.2919 35.4345 24.6857C36.8919 25.1363 38.0179 26.3008 38.4192 27.7727C38.8206 29.2445 38.4414 30.8194 37.4145 31.9475C36.8846 32.5326 36.2101 32.968 35.4589 33.21C35.8902 34.0068 36.0725 34.9147 35.9822 35.8162C35.6995 38.0069 33.9084 39.6924 31.7047 39.8417C31.8983 40.2535 32.0284 40.6921 32.0904 41.1429H55.2859C56.7061 41.1429 57.8574 39.9916 57.8574 38.5715V2.57147C57.8573 1.1513 56.706 0 55.2858 0ZM45.0001 36C45.0001 36.71 44.4245 37.2857 43.7143 37.2857C43.0043 37.2857 42.4286 36.7102 42.4286 36V33.4285C42.4286 32.7185 43.0042 32.1428 43.7143 32.1428C44.4243 32.1428 45.0001 32.7184 45.0001 33.4285V36ZM50.1429 36C50.1429 36.71 49.5673 37.2857 48.8571 37.2857C48.147 37.2857 47.5714 36.7102 47.5714 36V33.4285C47.5714 32.7185 48.147 32.1428 48.8571 32.1428C49.5673 32.1428 50.1429 32.7184 50.1429 33.4285V36ZM55.2858 36C55.2858 36.71 54.7102 37.2857 54.0001 37.2857C53.29 37.2857 52.7143 36.7102 52.7143 36V33.4285C52.7143 32.7185 53.2899 32.1428 54.0001 32.1428C54.7101 32.1428 55.2858 32.7184 55.2858 33.4285V36Z" fill="#076856"/>
</g>
<defs>
<clipPath id="clip0_110_496">
<rect width="72" height="72" fill="white"/>
</clipPath>
</defs>
</svg>
