<svg width="72" height="72" viewBox="0 0 72 72" fill="none" xmlns="http://www.w3.org/2000/svg">
<g clip-path="url(#clip0_105_471)">
<path d="M47.1482 36.3008C46.8248 38.9431 45.6365 41.4617 43.679 43.4192C41.2996 45.8 37.9738 46.9208 33.7972 46.7521C30.868 46.6353 29.5152 47.4018 29.293 47.541C28.3958 48.3271 27.2567 48.7574 26.0543 48.7574C24.7395 48.7574 23.5034 48.2455 22.5739 47.316C20.9693 45.7114 20.7106 43.2364 21.806 41.3506L22.5921 40.1047C22.8593 39.4536 23.2207 38.1683 23.1364 36.0912C22.969 31.9132 24.0898 28.5888 26.4692 26.2094C28.4183 24.2618 30.9102 23.0552 33.6045 22.7332C33.9856 20.9008 34.8111 19.1866 36.0022 17.7466H7.73924C4.63422 17.7466 2.10718 20.2722 2.10718 23.3772V51.3041H60.8606V23.5741L53.7211 32.3239C52.042 34.3756 49.7104 35.772 47.1482 36.3008Z" fill="#DC3545"/>
<path d="M2.1072 57.323C2.1072 60.4266 4.63424 62.9522 7.73926 62.9522H23.7451V67.7813H20.1974C19.0325 67.7813 18.0881 68.7257 18.0881 69.8907C18.0881 71.0556 19.0325 72.0001 20.1974 72.0001H42.7697C43.9347 72.0001 44.8791 71.0556 44.8791 69.8907C44.8791 68.7257 43.9347 67.7813 42.7697 67.7813H39.222V62.9522H55.2285C58.3335 62.9522 60.8605 60.4266 60.8605 57.323V55.5229H2.10706V57.323H2.1072Z" fill="#DC3545"/>
<path d="M25.608 43.2891C25.6075 43.2894 25.6071 43.2898 25.6068 43.2902C25.6066 43.2904 25.6064 43.2905 25.6063 43.2908L25.6057 43.2913C25.6054 43.2915 25.6053 43.2918 25.605 43.292C25.6049 43.2925 25.6047 43.2925 25.6043 43.2927L25.6042 43.2929C25.604 43.2932 25.6037 43.2933 25.6035 43.2936C25.6035 43.2936 25.6035 43.2936 25.6033 43.2937C25.6032 43.2939 25.6029 43.2942 25.6028 43.2944C25.6028 43.2944 25.6028 43.2944 25.6026 43.2946C25.6023 43.2947 25.6022 43.295 25.6019 43.2953C25.6019 43.2953 25.6019 43.2953 25.6018 43.2954L25.6011 43.2961C25.3345 43.5713 25.3371 44.0105 25.609 44.2825C25.7463 44.4197 25.9262 44.4883 26.1062 44.4883C26.2845 44.4883 26.4628 44.421 26.5997 44.2861C26.6427 44.2453 28.7727 42.2762 34.02 42.4871C36.9722 42.6061 39.2357 41.8989 40.7484 40.3863C43.8482 37.2865 43.8482 32.2429 40.7484 29.1431C39.2468 27.6415 37.2503 26.8145 35.1267 26.8145C33.0032 26.8145 31.0067 27.6413 29.5051 29.1431C27.9925 30.6556 27.2856 32.9194 27.4043 35.8714C27.6164 41.1472 25.625 43.2715 25.609 43.2881C25.6084 43.2885 25.6083 43.2888 25.608 43.2891Z" fill="#DC3545"/>
<path d="M46.9654 31.9638C48.3407 31.5518 49.5796 30.7362 50.5036 29.6069L53.1988 26.3039L43.5975 16.7026L40.3082 19.3891C39.1762 20.3116 38.3578 21.5491 37.9443 22.9244C40.1184 23.4349 42.1125 24.5416 43.7311 26.1602C45.3876 27.8168 46.4662 29.8348 46.9654 31.9638Z" fill="#DC3545"/>
<path d="M68.6259 1.26665C67.0551 -0.304135 64.5717 -0.429291 62.8504 0.976959L46.8813 14.0203L55.8795 23.0185L68.917 7.04085C70.3218 5.32087 70.1967 2.83743 68.6259 1.26665Z" fill="#DC3545"/>
</g>
<defs>
<clipPath id="clip0_105_471">
<rect width="72" height="72" fill="white"/>
</clipPath>
</defs>
</svg>
