<svg width="98" height="99" viewBox="0 0 98 99" fill="none" xmlns="http://www.w3.org/2000/svg">
<rect y="0.649414" width="98" height="98" rx="5" fill="#0085FF"/>
<path d="M72.7315 49.3793C72.3271 49.2002 71.9749 48.9212 71.7078 48.5687C71.4408 48.2161 71.2677 47.8015 71.2048 47.3637C71.1418 46.9259 71.1912 46.4793 71.3481 46.0658C71.5051 45.6523 71.7645 45.2854 72.1021 44.9996C75.5722 42.2434 72.9394 36.4362 68.5668 37.2593C68.1298 37.3273 67.6826 37.2831 67.2673 37.131C66.852 36.9788 66.4822 36.7236 66.1925 36.3893C65.9029 36.055 65.7029 35.6526 65.6114 35.2199C65.5199 34.7872 65.5398 34.3383 65.6693 33.9153C67.0975 29.7192 61.7449 26.2595 58.5105 29.3153C58.1796 29.6086 57.7796 29.8131 57.3481 29.9096C56.9165 30.006 56.4676 29.9913 56.0433 29.8668C55.619 29.7423 55.2333 29.512 54.9223 29.1977C54.6114 28.8833 54.3853 28.4951 54.2654 28.0695C53.199 23.7654 46.8272 23.7523 45.7565 28.0688C45.637 28.4947 45.4111 28.8831 45.1001 29.1977C44.7892 29.5123 44.4033 29.7427 43.9789 29.8672C43.5544 29.9917 43.1053 30.0063 42.6737 29.9096C42.2421 29.8129 41.8421 29.608 41.5114 29.3143C38.2863 26.2703 32.9201 29.7058 34.3532 33.9155C34.4826 34.3384 34.5025 34.7872 34.411 35.2199C34.3194 35.6526 34.1195 36.0549 33.8299 36.3891C33.5402 36.7233 33.1705 36.9785 32.7552 37.1307C32.34 37.2829 31.8929 37.3271 31.4559 37.2592C30.5006 37.1013 29.5199 37.2623 28.6652 37.7174C27.8105 38.1725 27.1295 38.8964 26.7273 39.7772C26.3251 40.6579 26.2241 41.6467 26.4399 42.5906C26.6557 43.5345 27.1763 44.3811 27.9213 44.9996C28.2628 45.2832 28.5259 45.6496 28.6854 46.0639C28.8449 46.4782 28.8954 46.9264 28.8322 47.3658C28.769 47.8052 28.5942 48.221 28.3244 48.5735C28.0547 48.9261 27.699 49.2035 27.2914 49.3793C26.4022 49.7627 25.664 50.4283 25.1909 51.2732C24.7177 52.1182 24.5361 53.0954 24.6739 54.0539C24.8117 55.0124 25.2614 55.8988 25.9534 56.5762C26.6455 57.2535 27.5413 57.6841 28.5025 57.8014C28.9431 57.8554 29.3624 58.0215 29.7204 58.2838C30.0785 58.546 30.3633 58.8958 30.5476 59.2995C30.732 59.7032 30.8098 60.1475 30.7735 60.5898C30.7372 61.0321 30.5881 61.4578 30.3404 61.8261C29.7998 62.6294 29.5387 63.5884 29.5975 64.555C29.6564 65.5215 30.0318 66.4417 30.6659 67.1736C31.3 67.9054 32.1575 68.4081 33.1058 68.6039C34.0541 68.7997 35.0405 68.6778 35.9126 68.257C36.3124 68.0641 36.7549 67.977 37.1979 68.0039C37.6409 68.0308 38.0696 68.171 38.443 68.4109C38.8164 68.6508 39.122 68.9824 39.3306 69.3742C39.5392 69.7659 39.6439 70.2046 39.6346 70.6483C39.614 71.6165 39.9128 72.5646 40.4849 73.3459C41.057 74.1273 41.8705 74.6985 42.7996 74.9714C43.7288 75.2442 44.722 75.2034 45.6257 74.8554C46.5294 74.5074 47.2934 73.8714 47.7995 73.0458C48.0315 72.6674 48.3567 72.3548 48.744 72.1379C49.1313 71.9211 49.5678 71.8072 50.0117 71.8072C50.4556 71.8072 50.892 71.9211 51.2793 72.1379C51.6667 72.3548 51.9919 72.6674 52.2239 73.0458C52.7299 73.8714 53.4938 74.5074 54.3975 74.8555C55.3012 75.2036 56.2944 75.2443 57.2235 74.9715C58.1527 74.6986 58.9662 74.1274 59.5382 73.346C60.1102 72.5646 60.409 71.6165 60.3883 70.6483C60.379 70.2046 60.4837 69.766 60.6924 69.3743C60.901 68.9826 61.2066 68.651 61.58 68.4111C61.9534 68.1712 62.382 68.0311 62.825 68.0041C63.268 67.9771 63.7105 68.0642 64.1102 68.257C64.9823 68.678 65.9688 68.7999 66.9172 68.6041C67.8655 68.4084 68.723 67.9057 69.3572 67.1738C69.9913 66.442 70.3668 65.5216 70.4256 64.555C70.4844 63.5884 70.2232 62.6294 69.6824 61.8261C69.4391 61.4568 69.2935 61.0317 69.2594 60.5907C69.2254 60.1498 69.3039 59.7074 69.4876 59.3051C69.6713 58.9028 69.9543 58.5537 70.3098 58.2907C70.6654 58.0277 71.082 57.8593 71.5204 57.8014C75.9326 57.3569 76.8515 51.0524 72.7315 49.3793ZM73.554 53.7953C73.487 54.3652 73.2269 54.895 72.817 55.2966C72.4071 55.6981 71.872 55.9472 71.3009 56.0024C70.5523 56.0937 69.8398 56.3756 69.2313 56.821C68.6229 57.2665 68.1389 57.8606 67.8257 58.5465C67.5124 59.2325 67.3805 59.9873 67.4424 60.7388C67.5043 61.4904 67.758 62.2134 68.1792 62.8389C68.5037 63.3111 68.6623 63.8776 68.6302 64.4496C68.5981 65.0217 68.3771 65.5669 68.0019 65.9998C67.6266 66.4328 67.1183 66.729 66.5567 66.8421C65.995 66.9552 65.4117 66.8787 64.8982 66.6246C64.2185 66.3046 63.4686 66.1625 62.7189 66.2117C61.9692 66.2609 61.2443 66.4998 60.6122 66.9059C59.9801 67.312 59.4616 67.8721 59.1053 68.5336C58.749 69.195 58.5666 69.9362 58.5752 70.6874C58.5933 71.2601 58.4207 71.8226 58.0846 72.2866C57.7485 72.7507 57.2679 73.09 56.7182 73.2514C56.1684 73.4129 55.5806 73.3873 55.047 73.1786C54.5134 72.97 54.0641 72.5901 53.7696 72.0986C53.3756 71.4556 52.8232 70.9245 52.1652 70.556C51.5073 70.1876 50.7658 69.9941 50.0117 69.9941C49.2576 69.9941 48.5161 70.1876 47.8581 70.556C47.2002 70.9245 46.6477 71.4556 46.2537 72.0985C45.9592 72.59 45.5099 72.9698 44.9762 73.1785C44.4426 73.3871 43.8548 73.4127 43.305 73.2513C42.7553 73.0898 42.2746 72.7505 41.9385 72.2865C41.6024 71.8225 41.4297 71.2601 41.4477 70.6874C41.4563 69.9361 41.274 69.1949 40.9177 68.5334C40.5614 67.872 40.0429 67.3119 39.4108 66.9057C38.7787 66.4996 38.0537 66.2607 37.304 66.2115C36.5543 66.1624 35.8044 66.3045 35.1246 66.6247C34.6111 66.8787 34.0279 66.9551 33.4663 66.842C32.9047 66.7289 32.3964 66.4326 32.0213 65.9997C31.6461 65.5667 31.4253 65.0215 31.3933 64.4495C31.3613 63.8775 31.52 63.311 31.8445 62.8389C32.2655 62.2134 32.519 61.4903 32.5807 60.7388C32.6425 59.9873 32.5105 59.2326 32.1972 58.5467C31.884 57.8608 31.4001 57.2667 30.7917 56.8213C30.1834 56.3758 29.4709 56.0939 28.7224 56.0024C28.1566 55.9331 27.6293 55.6795 27.222 55.2807C26.8147 54.8819 26.55 54.36 26.4689 53.7957C26.3878 53.2315 26.4948 52.6562 26.7733 52.1588C27.0518 51.6614 27.4863 51.2695 28.0097 51.0437C28.702 50.745 29.3061 50.2737 29.7643 49.6749C30.2225 49.076 30.5194 48.3697 30.6267 47.6234C30.734 46.877 30.6481 46.1157 30.3771 45.412C30.1062 44.7084 29.6593 44.086 29.0792 43.6043C28.6407 43.2402 28.3343 42.7418 28.2073 42.1861C28.0803 41.6304 28.1398 41.0484 28.3765 40.5299C28.6133 40.0114 29.0142 39.5853 29.5174 39.3174C30.0205 39.0494 30.5978 38.9546 31.1602 39.0476C31.9041 39.1708 32.6671 39.1012 33.3763 38.8452C34.0856 38.5893 34.7173 38.1557 35.211 37.5858C35.7048 37.016 36.0441 36.329 36.1964 35.5906C36.3488 34.8521 36.3091 34.0869 36.0812 33.3682C35.9027 32.8237 35.9099 32.2354 36.1016 31.6954C36.2934 31.1555 36.659 30.6944 37.141 30.3845C37.623 30.0747 38.1941 29.9335 38.765 29.9832C39.3358 30.0328 39.8741 30.2705 40.2953 30.659C40.8572 31.1578 41.5366 31.5056 42.2698 31.6698C43.003 31.8339 43.7659 31.8091 44.4868 31.5976C45.2078 31.386 45.8632 30.9947 46.3914 30.4605C46.9197 29.9262 47.3035 29.2664 47.5068 28.5431C47.6509 27.9886 47.975 27.4975 48.4282 27.147C48.8814 26.7964 49.4381 26.6062 50.0111 26.6061C50.584 26.606 51.1408 26.796 51.5941 27.1464C52.0475 27.4968 52.3717 27.9877 52.516 28.5422C52.7129 29.2701 53.0932 29.9354 53.6207 30.4743C54.1481 31.0132 54.805 31.4078 55.5285 31.6203C56.252 31.8328 57.0179 31.8561 57.753 31.6879C58.4881 31.5198 59.1678 31.1659 59.727 30.66C60.148 30.2713 60.6862 30.0333 61.2571 29.9834C61.828 29.9335 62.3993 30.0745 62.8814 30.3843C63.3635 30.6941 63.7292 31.1552 63.921 31.6952C64.1128 32.2352 64.1199 32.8237 63.9412 33.3682C63.7211 34.0865 63.6872 34.849 63.8426 35.584C63.998 36.3191 64.3377 37.0026 64.8297 37.5703C65.3217 38.1381 65.9499 38.5715 66.6554 38.8299C67.3608 39.0883 68.1204 39.1632 68.8627 39.0475C69.427 38.9484 70.0083 39.0393 70.5154 39.306C71.0226 39.5727 71.4268 40.0002 71.6649 40.5213C71.9029 41.0425 71.9613 41.628 71.8309 42.1859C71.7004 42.7438 71.3885 43.2427 70.9441 43.6043C70.364 44.0859 69.9171 44.7083 69.6462 45.412C69.3752 46.1156 69.2893 46.877 69.3966 47.6233C69.5039 48.3696 69.8008 49.076 70.259 49.6748C70.7171 50.2736 71.3212 50.745 72.0135 51.0437C72.546 51.2574 72.9892 51.647 73.2695 52.1476C73.5498 52.6482 73.6502 53.2297 73.554 53.7953Z" fill="white"/>
<path d="M52.9878 46.9775C53.198 46.8308 53.3698 46.6356 53.4885 46.4084C53.6071 46.1811 53.6693 45.9287 53.6696 45.6723V44.1611C53.6686 43.875 53.5906 43.5945 53.4437 43.3491C53.2968 43.1036 53.0864 42.9023 52.8348 42.7663L53.5802 41.3652C53.8418 40.8752 53.9549 40.3195 53.9057 39.7662C53.8565 39.2129 53.6471 38.6859 53.3031 38.2498L52.4124 37.1184C52.2453 36.9042 52.0315 36.7311 51.7872 36.6123C51.5429 36.4936 51.2746 36.4323 51.003 36.4332H48.8459C47.7876 36.3512 47.1165 37.5551 46.5454 38.2508C46.202 38.6869 45.993 39.2135 45.9437 39.7663C45.8944 40.3192 46.007 40.8744 46.2678 41.3644L47.0539 42.841C46.8383 42.9872 46.6618 43.1839 46.5398 43.4141C46.4177 43.6442 46.3538 43.9007 46.3537 44.1611C46.3829 45.0481 46.1289 46.4405 47.0354 46.9772C46.8077 50.5215 43.489 52.2551 42.115 55.2577C42.0209 55.4757 42.0159 55.722 42.1014 55.9436C42.1868 56.1652 42.3558 56.3444 42.572 56.4427C42.7881 56.5411 43.0342 56.5507 43.2574 56.4695C43.4806 56.3883 43.663 56.2228 43.7655 56.0085C44.3602 54.8588 45.1348 53.8116 46.0601 52.9064C47.5755 51.3821 48.5463 49.401 48.8224 47.2695H51.2001C51.4766 49.4032 52.4491 51.3861 53.9671 52.9108C56.8313 55.5413 58.0371 59.6508 55.4622 62.9345L54.0592 64.7264C53.9775 64.8299 53.8735 64.9137 53.7551 64.9716C53.6366 65.0295 53.5066 65.0601 53.3748 65.061H46.6481C46.5168 65.0603 46.3873 65.0301 46.2692 64.9726C46.1512 64.9152 46.0475 64.8319 45.9659 64.729C44.6799 63.155 43.1346 61.2792 43.1569 59.1532C43.1425 58.9153 43.035 58.6926 42.8576 58.5333C42.6802 58.3741 42.4473 58.2911 42.2092 58.3023C41.9711 58.3134 41.747 58.4179 41.5853 58.5931C41.4237 58.7683 41.3375 59 41.3454 59.2383C41.3605 61.7818 42.9514 63.9685 44.5398 65.8489C44.7919 66.1669 45.1122 66.4242 45.4772 66.6016C45.8421 66.7791 46.2423 66.8722 46.6481 66.8741H53.3747C53.781 66.8722 54.1816 66.7788 54.5469 66.6009C54.9121 66.423 55.2326 66.165 55.4845 65.8463L56.8922 64.049C58.151 62.3969 58.778 60.3493 58.66 58.2756C58.542 56.2019 57.6867 54.2386 56.2485 52.74C54.687 51.0631 53.2018 49.3866 52.9878 46.9775ZM51.8565 45.4563H48.1668V44.3771H51.8565V45.4563ZM51.9804 40.5127L50.8887 42.5639H48.9605L47.8681 40.5118C47.7726 40.3325 47.7314 40.1293 47.7495 39.9269C47.7676 39.7246 47.8442 39.5319 47.9699 39.3724L48.8459 38.2462L50.9871 38.2391C51.4005 38.8667 52.4713 39.6613 51.9804 40.5127Z" fill="white"/>
<path d="M50.0114 62.6211C54.8498 62.5016 54.8484 53.3319 50.0113 53.2136C45.1736 53.3332 45.175 62.5025 50.0114 62.6211ZM50.0114 55.0267C52.4363 55.1515 52.4353 60.6841 50.0113 60.8079C47.5871 60.6831 47.5881 55.1507 50.0114 55.0267Z" fill="white"/>
<path d="M61.7747 37.8657C61.5974 38.0281 61.4918 38.2542 61.481 38.4943C61.4702 38.7345 61.5552 38.9691 61.7172 39.1467C64.3963 42.0703 65.8806 45.8929 65.8764 49.8583C65.8799 50.0964 65.9769 50.3237 66.1466 50.4909C66.3162 50.6581 66.5448 50.7518 66.783 50.7518C67.0212 50.7518 67.2498 50.658 67.4194 50.4908C67.5891 50.3236 67.6861 50.0964 67.6895 49.8582C67.694 45.44 66.0404 41.181 63.0558 37.9233C62.8934 37.746 62.6673 37.6404 62.4271 37.6296C62.187 37.6188 61.9523 37.7037 61.7747 37.8657Z" fill="white"/>
<path d="M50.0114 32.1803C45.3245 32.1856 40.8311 34.0498 37.5169 37.364C34.2028 40.6781 32.3385 45.1716 32.3332 49.8585C32.3365 50.0967 32.4334 50.3241 32.6031 50.4915C32.7728 50.6588 33.0015 50.7526 33.2398 50.7526C33.4781 50.7526 33.7068 50.6588 33.8765 50.4914C34.0461 50.3241 34.1431 50.0967 34.1464 49.8584C34.0325 37.1574 48.8402 29.4696 59.1329 36.8825C59.3294 37.0171 59.5709 37.069 59.8053 37.0271C60.0397 36.9851 60.2482 36.8526 60.3859 36.6583C60.5235 36.4639 60.5791 36.2232 60.5408 35.9882C60.5025 35.7531 60.3732 35.5426 60.181 35.402C57.2091 33.2959 53.654 32.1696 50.0114 32.1803Z" fill="white"/>
</svg>
