<svg width="65" height="64" viewBox="0 0 65 64" fill="none" xmlns="http://www.w3.org/2000/svg">
<path d="M33.08 48.22C33.08 49.2975 34.265 49.845 35.2588 50.115C37.3787 50.69 38.545 51.8775 38.545 53.4575C38.545 55.0525 37.3738 56.3887 35.8125 56.7188V57.7175C35.8125 58.1312 35.4762 58.4675 35.0625 58.4675C34.6488 58.4675 34.3125 58.1312 34.3125 57.7175V56.7188C32.7512 56.3887 31.58 55.0525 31.58 53.4575C31.58 53.0438 31.9163 52.7075 32.33 52.7075C32.7437 52.7075 33.08 53.0438 33.08 53.4575C33.08 54.4725 33.97 55.2975 35.0625 55.2975C36.155 55.2975 37.045 54.4725 37.045 53.4575C37.045 52.38 35.86 51.8325 34.8662 51.5625C32.7475 50.9875 31.58 49.8013 31.58 48.22C31.58 46.625 32.7512 45.2888 34.3125 44.9588V43.96C34.3125 43.5462 34.6488 43.21 35.0625 43.21C35.4762 43.21 35.8125 43.5462 35.8125 43.96V44.9588C37.3738 45.2888 38.545 46.625 38.545 48.22C38.545 48.6338 38.2087 48.97 37.795 48.97C37.3812 48.97 37.045 48.6338 37.045 48.22C37.045 47.205 36.155 46.38 35.0625 46.38C33.9688 46.38 33.08 47.205 33.08 48.22ZM23.71 34.1425C23.71 36.9325 21.44 39.2025 18.65 39.2025C15.86 39.2025 13.59 36.9325 13.59 34.1425C13.59 31.3525 15.86 29.0825 18.65 29.0825C21.44 29.0825 23.71 31.3525 23.71 34.1425ZM22.21 34.1425C22.21 32.1788 20.6125 30.5825 18.65 30.5825C16.6875 30.5825 15.09 32.18 15.09 34.1425C15.09 36.105 16.6875 37.7025 18.65 37.7025C20.6125 37.7025 22.21 36.105 22.21 34.1425ZM57.625 20.8875C57.625 22.6 56.2313 23.9937 54.5187 23.9937H52.9525L45.0062 40.8937L44.5737 44.7675C45.6975 46.5213 46.3488 48.605 46.3488 50.8387C46.3488 57.0625 41.285 62.125 35.0625 62.125C28.84 62.125 23.7763 57.0612 23.7763 50.8387C23.7763 48.6062 24.4288 46.5225 25.5513 44.7675L25.3813 43.2463C25.18 43.3462 24.9588 43.4 24.7275 43.4C24.335 43.4 23.9662 43.2475 23.6887 42.97L22.47 41.7513C22.1012 41.9363 21.7188 42.095 21.3288 42.225V43.9475C21.3288 44.7575 20.67 45.4162 19.86 45.4162H17.44C16.63 45.4162 15.9712 44.7575 15.9712 43.9475V42.225C15.5812 42.095 15.1975 41.9363 14.83 41.7513L13.6112 42.97C13.3337 43.2475 12.965 43.4 12.5725 43.4C12.18 43.4 11.8112 43.2475 11.5337 42.97L9.8225 41.2588C9.545 40.9813 9.3925 40.6125 9.3925 40.22C9.3925 39.8275 9.545 39.4588 9.8225 39.1813L11.0413 37.9625C10.8563 37.5938 10.6975 37.21 10.5675 36.8213H8.84375C8.03375 36.8213 7.375 36.1625 7.375 35.3525V32.9325C7.375 32.1225 8.03375 31.4638 8.84375 31.4638H10.5662C10.6962 31.0738 10.855 30.69 11.04 30.3225L9.82125 29.1038C9.54375 28.8263 9.39125 28.4575 9.39125 28.065C9.39125 27.6725 9.54375 27.3038 9.82125 27.0263L11.5325 25.315C12.105 24.7425 13.0375 24.7425 13.61 25.315L14.8287 26.5338C15.1962 26.3488 15.58 26.19 15.97 26.06V23.9937H15.6062C13.8937 23.9937 12.5 22.6 12.5 20.8875C12.5 19.175 13.8937 17.7812 15.6062 17.7812H54.5187C56.2325 17.7812 57.625 19.1737 57.625 20.8875ZM24.7275 41.8875L26.395 40.22L25.1825 39.0075C24.7325 38.5575 24.6225 37.8737 24.9112 37.305C25.07 36.9912 25.2063 36.6637 25.315 36.3312C25.5138 35.7275 26.075 35.3213 26.7113 35.3213H28.425V32.9625H26.7113C26.075 32.9625 25.5138 32.5562 25.315 31.9525C25.2063 31.62 25.07 31.2925 24.9112 30.9788C24.6237 30.4113 24.7325 29.7263 25.1825 29.2763L26.395 28.0637L24.7275 26.3962L23.515 27.6087C23.065 28.0588 22.3813 28.1687 21.8125 27.88C21.4987 27.7212 21.1713 27.585 20.8388 27.4762C20.235 27.2775 19.8288 26.7162 19.8288 26.08V23.9912H17.4713V26.08C17.4713 26.7162 17.065 27.2775 16.4613 27.4762C16.1287 27.5863 15.8013 27.7212 15.4875 27.88C14.9188 28.1675 14.235 28.0588 13.785 27.6075L12.5725 26.395L10.905 28.0625L12.1175 29.275C12.5675 29.725 12.6775 30.4088 12.3888 30.9775C12.23 31.29 12.095 31.6175 11.985 31.9513C11.7862 32.555 11.225 32.9613 10.5887 32.9613H8.875V35.3187H10.5887C11.225 35.3187 11.7862 35.725 11.985 36.3288C12.095 36.6613 12.23 36.9888 12.3888 37.3025C12.6762 37.87 12.5675 38.5538 12.1175 39.005L10.905 40.2175L12.5725 41.885L13.785 40.6725C14.235 40.2225 14.9188 40.1125 15.4875 40.4012C15.8 40.56 16.1275 40.695 16.4613 40.805C17.065 41.0037 17.4713 41.565 17.4713 42.2012V43.9162H19.8288V42.2025C19.8288 41.5662 20.235 41.005 20.8388 40.8063C21.1713 40.6975 21.4987 40.5612 21.8125 40.4025C22.3813 40.115 23.065 40.2238 23.515 40.6738L24.7275 41.8875ZM44.85 50.8387C44.85 45.4425 40.46 41.0525 35.0638 41.0525C29.6675 41.0525 25.2775 45.4425 25.2775 50.8387C25.2775 56.235 29.6663 60.625 35.0625 60.625C40.4587 60.625 44.85 56.235 44.85 50.8387ZM51.295 23.9937H21.3288V26.06C21.7188 26.19 22.1025 26.3488 22.47 26.5338L23.6887 25.315C24.2612 24.7425 25.1938 24.7425 25.7663 25.315L27.4775 27.0263C28.05 27.5988 28.05 28.5312 27.4775 29.1038L26.2588 30.3225C26.4438 30.6912 26.6038 31.075 26.7325 31.4638H28.455C29.265 31.4638 29.9237 32.1225 29.9237 32.9325V35.3525C29.9237 36.1625 29.265 36.8213 28.455 36.8213H26.7325C26.6025 37.2113 26.4438 37.595 26.2588 37.9625L27.4775 39.1813C27.755 39.4588 27.9075 39.8275 27.9075 40.22C27.9075 40.6125 27.755 40.9813 27.4775 41.2588L26.75 41.9863L26.8725 43.08C28.9312 40.9075 31.8412 39.5513 35.0625 39.5513C38.2838 39.5513 41.195 40.9088 43.2525 43.08L43.5288 40.6037C43.5375 40.5225 43.56 40.4425 43.595 40.3675L51.295 23.9937ZM56.125 20.8875C56.125 20.0013 55.405 19.2812 54.5187 19.2812H15.6062C14.72 19.2812 14 20.0013 14 20.8875C14 21.7738 14.72 22.4937 15.6062 22.4937H54.5187C55.405 22.4937 56.125 21.7725 56.125 20.8875ZM28.6112 8.32625C28.6112 4.76875 31.505 1.875 35.0625 1.875C38.62 1.875 41.5137 4.76875 41.5137 8.32625C41.5137 11.8837 38.62 14.7775 35.0625 14.7775C31.505 14.7775 28.6112 11.8837 28.6112 8.32625ZM30.1112 8.32625C30.1112 11.0562 32.3325 13.2775 35.0625 13.2775C37.7925 13.2775 40.0137 11.0562 40.0137 8.32625C40.0137 5.59625 37.7938 3.375 35.0625 3.375C32.3312 3.375 30.1112 5.59625 30.1112 8.32625ZM34.5325 37.445C34.6788 37.5913 34.8713 37.665 35.0625 37.665C35.255 37.665 35.4462 37.5913 35.5925 37.445L38.095 34.9425C38.3875 34.65 38.3875 34.175 38.095 33.8812C37.8025 33.5875 37.3275 33.5887 37.0337 33.8812L35.8112 35.1037V25.935C35.8112 25.5212 35.475 25.185 35.0612 25.185C34.6475 25.185 34.3112 25.5212 34.3112 25.935V35.1037L33.0887 33.8812C32.7962 33.5887 32.3212 33.5887 32.0287 33.8812C31.7362 34.1737 31.7362 34.6488 32.0287 34.9412L34.5325 37.445ZM16.9225 11.705C16.9225 8.97 19.1475 6.745 21.8825 6.745C24.6175 6.745 26.8425 8.97 26.8425 11.705C26.8425 14.44 24.6175 16.665 21.8825 16.665C19.1475 16.665 16.9225 14.44 16.9225 11.705ZM18.4225 11.705C18.4225 13.6125 19.975 15.165 21.8825 15.165C23.79 15.165 25.3425 13.6125 25.3425 11.705C25.3425 9.7975 23.79 8.245 21.8825 8.245C19.975 8.245 18.4225 9.7975 18.4225 11.705ZM43.2825 11.705C43.2825 8.97 45.5075 6.745 48.2425 6.745C50.9775 6.745 53.2025 8.97 53.2025 11.705C53.2025 14.44 50.9775 16.665 48.2425 16.665C45.5075 16.665 43.2825 14.44 43.2825 11.705ZM44.7825 11.705C44.7825 13.6125 46.335 15.165 48.2425 15.165C50.15 15.165 51.7025 13.6125 51.7025 11.705C51.7025 9.7975 50.15 8.245 48.2425 8.245C46.335 8.245 44.7825 9.7975 44.7825 11.705Z" fill="#B50000"/>
</svg>
