<svg width="65" height="64" viewBox="0 0 65 64" fill="none" xmlns="http://www.w3.org/2000/svg">
<g clip-path="url(#clip0_50_305)">
<path d="M60.2333 12.8H51.7V4.26667C51.7 3.13508 51.2505 2.04983 50.4503 1.24968C49.6502 0.449523 48.5649 0 47.4333 0L17.5667 0C16.4351 0 15.3498 0.449523 14.5497 1.24968C13.7495 2.04983 13.3 3.13508 13.3 4.26667V17.4357C12.9808 17.6441 12.7326 17.9447 12.5885 18.2976L11.8931 20.0384C11.0564 20.2863 10.2484 20.6221 9.4824 21.04L7.75333 20.2997C7.43694 20.1615 7.08834 20.1139 6.74646 20.1623C6.40459 20.2107 6.0829 20.3532 5.81733 20.5739C5.49093 20.8459 5.17733 21.136 4.87227 21.4411C4.5672 21.7461 4.27707 22.0597 4.004 22.3861C3.78459 22.652 3.64313 22.9734 3.5953 23.3148C3.54748 23.6562 3.59516 24.0041 3.73307 24.32L4.47333 26.0459C4.0554 26.8119 3.71966 27.6199 3.47173 28.4565L1.72773 29.1531C1.4066 29.2802 1.12707 29.4941 0.920278 29.7707C0.713492 30.0474 0.587568 30.376 0.556533 30.72C0.518133 31.1467 0.5 31.5733 0.5 32C0.5 32.4267 0.518133 32.8533 0.556533 33.28C0.588439 33.6236 0.714986 33.9517 0.922117 34.2278C1.12925 34.5038 1.40885 34.717 1.72987 34.8437L3.47067 35.5392C3.7186 36.3758 4.05433 37.1839 4.47227 37.9499L3.73307 39.68C3.59468 39.9964 3.54703 40.345 3.59544 40.6869C3.64386 41.0288 3.78642 41.3505 4.0072 41.616C4.2792 41.9424 4.56933 42.256 4.8744 42.5611C5.17947 42.8661 5.49307 43.1563 5.81947 43.4293C6.08554 43.6495 6.40743 43.7915 6.74939 43.8398C7.09135 43.888 7.43997 43.8404 7.75653 43.7024L9.4824 42.9621C10.2484 43.3801 11.0564 43.7158 11.8931 43.9637L12.5896 45.7077C12.7343 46.0594 12.9819 46.3591 13.3 46.5675V59.7333C13.3 60.8649 13.7495 61.9502 14.5497 62.7503C15.3498 63.5505 16.4351 64 17.5667 64H47.4333C48.5649 64 49.6502 63.5505 50.4503 62.7503C51.2505 61.9502 51.7 60.8649 51.7 59.7333V49.0667H60.2333C61.3649 49.0667 62.4502 48.6171 63.2503 47.817C64.0505 47.0168 64.5 45.9316 64.5 44.8V17.0667C64.5 15.9351 64.0505 14.8498 63.2503 14.0497C62.4502 13.2495 61.3649 12.8 60.2333 12.8ZM62.3667 17.0667V21.3333H34.6333V17.0667C34.6333 16.5009 34.8581 15.9583 35.2582 15.5582C35.6582 15.1581 36.2009 14.9333 36.7667 14.9333H60.2333C60.7991 14.9333 61.3418 15.1581 61.7418 15.5582C62.1419 15.9583 62.3667 16.5009 62.3667 17.0667ZM17.5667 2.13333H47.4333C47.9991 2.13333 48.5418 2.35809 48.9418 2.75817C49.3419 3.15825 49.5667 3.70087 49.5667 4.26667V8.53333H15.4333V4.26667C15.4333 3.70087 15.6581 3.15825 16.0582 2.75817C16.4583 2.35809 17.0009 2.13333 17.5667 2.13333ZM10.1 40.8533C9.95496 40.7654 9.79104 40.7134 9.62186 40.7015C9.45267 40.6897 9.2831 40.7183 9.1272 40.7851L7.0536 41.6736C6.82213 41.4752 6.59707 41.264 6.37947 41.0464C6.16187 40.8288 5.9528 40.6027 5.75227 40.3723L6.6408 38.2965C6.70709 38.1425 6.73613 37.975 6.72557 37.8077C6.715 37.6403 6.66513 37.4778 6.58 37.3333C6.04842 36.4516 5.65286 35.4947 5.40667 34.4949C5.36541 34.3308 5.28593 34.1788 5.1747 34.0512C5.06347 33.9237 4.92366 33.8243 4.76667 33.7611L2.676 32.9259C2.644 32.6165 2.63333 32.3083 2.63333 32C2.63333 31.6917 2.644 31.3845 2.6664 31.0784L4.75707 30.2432C4.91406 30.18 5.05387 30.0806 5.1651 29.953C5.27633 29.8255 5.35581 29.6735 5.39707 29.5093C5.64613 28.5077 6.04494 27.5493 6.58 26.6667C6.6679 26.5216 6.71994 26.3577 6.73181 26.1885C6.74369 26.0193 6.71504 25.8498 6.64827 25.6939L5.75973 23.6203C5.95813 23.3888 6.16933 23.1637 6.38693 22.9461C6.60453 22.7285 6.83067 22.5195 7.06107 22.3189L9.1368 23.2075C9.29083 23.2738 9.45832 23.3028 9.62567 23.2922C9.79302 23.2817 9.95553 23.2318 10.1 23.1467C10.9815 22.6132 11.9384 22.2159 12.9384 21.968C13.1025 21.9267 13.2546 21.8473 13.3821 21.736C13.5096 21.6248 13.6091 21.485 13.6723 21.328L14.5075 19.2373C15.121 19.1915 15.7371 19.1915 16.3507 19.2373L17.1859 21.328C17.2491 21.485 17.3485 21.6248 17.476 21.736C17.6036 21.8473 17.7556 21.9267 17.9197 21.968C18.9227 22.215 19.8826 22.6124 20.7667 23.1467C20.9116 23.2344 21.0753 23.2863 21.2443 23.2982C21.4133 23.3101 21.5826 23.2815 21.7384 23.2149L23.8141 22.3264C24.0456 22.5248 24.2707 22.736 24.4883 22.9536C24.7059 23.1712 24.9149 23.3973 25.1155 23.6277L24.2269 25.7013C24.1601 25.8556 24.1307 26.0234 24.1411 26.1912C24.1515 26.3589 24.2014 26.5218 24.2867 26.6667C24.8199 27.5486 25.2173 28.5058 25.4653 29.5061C25.5066 29.6703 25.5861 29.8223 25.6973 29.9498C25.8085 30.0774 25.9483 30.1768 26.1053 30.24L28.196 31.0752C28.2184 31.3803 28.2291 31.6885 28.2291 31.9968C28.2291 32.3051 28.2184 32.6123 28.196 32.9184L26.1053 33.7536C25.9483 33.8168 25.8085 33.9162 25.6973 34.0438C25.5861 34.1713 25.5066 34.3233 25.4653 34.4875C25.2182 35.4901 24.8208 36.4496 24.2867 37.3333C24.1989 37.4782 24.147 37.642 24.1351 37.811C24.1233 37.9799 24.1518 38.1493 24.2184 38.3051L25.1069 40.3808C24.9085 40.6123 24.6973 40.8373 24.4797 41.0549C24.2621 41.2725 24.036 41.4816 23.8056 41.6821L21.732 40.7936C21.5779 40.7263 21.41 40.6966 21.2421 40.707C21.0743 40.7174 20.9113 40.7675 20.7667 40.8533C19.8844 41.3848 18.9272 41.7803 17.9272 42.0267C17.7631 42.0679 17.611 42.1474 17.4835 42.2586C17.356 42.3699 17.2565 42.5097 17.1933 42.6667L16.3581 44.7573C15.7446 44.8032 15.1285 44.8032 14.5149 44.7573L13.6797 42.6667C13.6165 42.5097 13.5171 42.3699 13.3896 42.2586C13.262 42.1474 13.11 42.0679 12.9459 42.0267C11.9436 41.7809 10.9842 41.3853 10.1 40.8533ZM47.4333 61.8667H17.5667C17.0009 61.8667 16.4583 61.6419 16.0582 61.2418C15.6581 60.8418 15.4333 60.2991 15.4333 59.7333V55.4667H49.5667V59.7333C49.5667 60.2991 49.3419 60.8418 48.9418 61.2418C48.5418 61.6419 47.9991 61.8667 47.4333 61.8667ZM49.5667 53.3333H15.4333V46.9333C15.86 46.9333 16.2867 46.9152 16.7133 46.8768C17.057 46.8449 17.385 46.7183 17.6611 46.5112C17.9371 46.3041 18.1504 46.0245 18.2771 45.7035L18.9725 43.9627C19.8092 43.7147 20.6172 43.379 21.3832 42.9611L23.1101 43.7013C23.4266 43.8394 23.7751 43.8868 24.117 43.8384C24.4588 43.79 24.7804 43.6477 25.0461 43.4272C25.3725 43.1552 25.6861 42.8651 25.9912 42.56C26.2963 42.2549 26.5864 41.9413 26.8595 41.6149C27.0798 41.3492 27.2221 41.0275 27.2703 40.6856C27.3185 40.3438 27.2708 39.9953 27.1325 39.6789L26.3923 37.952C26.8102 37.186 27.1459 36.378 27.3939 35.5413L29.1347 34.8459C29.4556 34.7193 29.7352 34.5063 29.9423 34.2304C30.1494 33.9546 30.276 33.6267 30.308 33.2832C30.3464 32.8565 30.3645 32.4299 30.3645 32.0032C30.3645 31.5765 30.3464 31.1499 30.308 30.7232C30.2761 30.3796 30.1495 30.0515 29.9424 29.7754C29.7353 29.4994 29.4557 29.2862 29.1347 29.1595L27.3939 28.464C27.1459 27.6274 26.8102 26.8193 26.3923 26.0533L27.1325 24.3264C27.2709 24.01 27.3186 23.6614 27.2702 23.3195C27.2217 22.9776 27.0792 22.6559 26.8584 22.3904C26.5864 22.064 26.2963 21.7504 25.9912 21.4453C25.6861 21.1403 25.3725 20.8501 25.0461 20.5771C24.7803 20.3568 24.4586 20.2146 24.1168 20.1664C23.775 20.1182 23.4265 20.1658 23.1101 20.304L21.3832 21.0443C20.6172 20.6263 19.8092 20.2906 18.9725 20.0427L18.276 18.2987C18.1495 17.9777 17.9364 17.6982 17.6606 17.491C17.3847 17.2839 17.0568 17.1573 16.7133 17.1253C16.2867 17.0869 15.86 17.0677 15.4333 17.0677V10.6667H49.5667V12.8H36.7667C35.6351 12.8 34.5498 13.2495 33.7497 14.0497C32.9495 14.8498 32.5 15.9351 32.5 17.0667V44.8C32.5 45.9316 32.9495 47.0168 33.7497 47.817C34.5498 48.6171 35.6351 49.0667 36.7667 49.0667H49.5667V53.3333ZM60.2333 46.9333H36.7667C36.2009 46.9333 35.6582 46.7086 35.2582 46.3085C34.8581 45.9084 34.6333 45.3658 34.6333 44.8V23.4667H62.3667V44.8C62.3667 45.3658 62.1419 45.9084 61.7418 46.3085C61.3418 46.7086 60.7991 46.9333 60.2333 46.9333Z" fill="#4CFF89"/>
<path d="M23.9671 32.0001C23.9671 30.3124 23.4666 28.6626 22.5289 27.2593C21.5913 25.856 20.2586 24.7622 18.6993 24.1164C17.14 23.4705 15.4243 23.3015 13.769 23.6308C12.1137 23.96 10.5932 24.7727 9.39975 25.9662C8.20634 27.1596 7.39362 28.6801 7.06436 30.3354C6.7351 31.9907 6.90409 33.7064 7.54996 35.2657C8.19582 36.825 9.28956 38.1577 10.6929 39.0953C12.0962 40.033 13.746 40.5335 15.4337 40.5335C17.6961 40.5309 19.8651 39.6311 21.4649 38.0313C23.0647 36.4315 23.9645 34.2625 23.9671 32.0001ZM21.8337 32.0001C21.832 33.697 21.1572 35.3239 19.9573 36.5237C18.7575 37.7236 17.1306 38.3984 15.4337 38.4001V36.2668C16.5653 36.2668 17.6506 35.8173 18.4507 35.0171C19.2509 34.217 19.7004 33.1317 19.7004 32.0001C19.7004 30.8685 19.2509 29.7833 18.4507 28.9831C17.6506 28.183 16.5653 27.7335 15.4337 27.7335V25.6001C17.1306 25.6018 18.7575 26.2767 19.9573 27.4765C21.1572 28.6764 21.832 30.3033 21.8337 32.0001ZM15.4337 29.8668C15.8557 29.8668 16.2681 29.9919 16.6189 30.2263C16.9698 30.4607 17.2432 30.7939 17.4047 31.1837C17.5661 31.5736 17.6084 32.0025 17.5261 32.4163C17.4438 32.8302 17.2406 33.2103 16.9422 33.5086C16.6439 33.807 16.2637 34.0102 15.8499 34.0925C15.4361 34.1748 15.0072 34.1325 14.6173 33.9711C14.2275 33.8096 13.8943 33.5362 13.6599 33.1854C13.4255 32.8345 13.3004 32.4221 13.3004 32.0001C13.3004 31.4343 13.5252 30.8917 13.9252 30.4916C14.3253 30.0916 14.8679 29.8668 15.4337 29.8668ZM9.03373 32.0001C9.03524 30.6779 9.44625 29.3886 10.2103 28.3094C10.9743 27.2303 12.0538 26.4142 13.3004 25.9735V28.3265C12.6523 28.6962 12.1136 29.2308 11.7389 29.876C11.3641 30.5212 11.1668 31.254 11.1668 32.0001C11.1668 32.7462 11.3641 33.4791 11.7389 34.1243C12.1136 34.7695 12.6523 35.304 13.3004 35.6737V38.0268C12.0538 37.5861 10.9743 36.77 10.2103 35.6909C9.44625 34.6117 9.03524 33.3224 9.03373 32.0001Z" fill="#4CFF89"/>
<path d="M58.1009 25.6001H38.9009C38.3351 25.6001 37.7925 25.8249 37.3924 26.2249C36.9923 26.625 36.7676 27.1676 36.7676 27.7334V32.0001C36.7676 32.5659 36.9923 33.1085 37.3924 33.5086C37.7925 33.9087 38.3351 34.1334 38.9009 34.1334H58.1009C58.6667 34.1334 59.2093 33.9087 59.6094 33.5086C60.0095 33.1085 60.2342 32.5659 60.2342 32.0001V27.7334C60.2342 27.1676 60.0095 26.625 59.6094 26.2249C59.2093 25.8249 58.6667 25.6001 58.1009 25.6001ZM38.9009 32.0001V27.7334H58.1009V32.0001H38.9009Z" fill="#4CFF89"/>
<path d="M28.2327 6.39994H29.2993C29.5822 6.39994 29.8536 6.28755 30.0536 6.08752C30.2536 5.88748 30.366 5.61617 30.366 5.33327C30.366 5.05037 30.2536 4.77906 30.0536 4.57902C29.8536 4.37898 29.5822 4.2666 29.2993 4.2666H28.2327C27.9498 4.2666 27.6785 4.37898 27.4784 4.57902C27.2784 4.77906 27.166 5.05037 27.166 5.33327C27.166 5.61617 27.2784 5.88748 27.4784 6.08752C27.6785 6.28755 27.9498 6.39994 28.2327 6.39994Z" fill="#4CFF89"/>
<path d="M33.5667 6.39994H36.7667C37.0496 6.39994 37.3209 6.28755 37.5209 6.08752C37.721 5.88748 37.8333 5.61617 37.8333 5.33327C37.8333 5.05037 37.721 4.77906 37.5209 4.57902C37.3209 4.37898 37.0496 4.2666 36.7667 4.2666H33.5667C33.2838 4.2666 33.0125 4.37898 32.8124 4.57902C32.6124 4.77906 32.5 5.05037 32.5 5.33327C32.5 5.61617 32.6124 5.88748 32.8124 6.08752C33.0125 6.28755 33.2838 6.39994 33.5667 6.39994Z" fill="#4CFF89"/>
<path d="M34.6341 57.6001H30.3674C30.0846 57.6001 29.8132 57.7125 29.6132 57.9125C29.4132 58.1126 29.3008 58.3839 29.3008 58.6668C29.3008 58.9497 29.4132 59.221 29.6132 59.421C29.8132 59.6211 30.0846 59.7334 30.3674 59.7334H34.6341C34.917 59.7334 35.1883 59.6211 35.3884 59.421C35.5884 59.221 35.7008 58.9497 35.7008 58.6668C35.7008 58.3839 35.5884 58.1126 35.3884 57.9125C35.1883 57.7125 34.917 57.6001 34.6341 57.6001Z" fill="#4CFF89"/>
<path d="M38.9009 17.0669H37.8342C37.5513 17.0669 37.28 17.1793 37.08 17.3793C36.88 17.5794 36.7676 17.8507 36.7676 18.1336C36.7676 18.4165 36.88 18.6878 37.08 18.8878C37.28 19.0878 37.5513 19.2002 37.8342 19.2002H38.9009C39.1838 19.2002 39.4551 19.0878 39.6552 18.8878C39.8552 18.6878 39.9676 18.4165 39.9676 18.1336C39.9676 17.8507 39.8552 17.5794 39.6552 17.3793C39.4551 17.1793 39.1838 17.0669 38.9009 17.0669Z" fill="#4CFF89"/>
<path d="M44.2329 17.0669H43.1663C42.8834 17.0669 42.6121 17.1793 42.412 17.3793C42.212 17.5794 42.0996 17.8507 42.0996 18.1336C42.0996 18.4165 42.212 18.6878 42.412 18.8878C42.6121 19.0878 42.8834 19.2002 43.1663 19.2002H44.2329C44.5158 19.2002 44.7872 19.0878 44.9872 18.8878C45.1872 18.6878 45.2996 18.4165 45.2996 18.1336C45.2996 17.8507 45.1872 17.5794 44.9872 17.3793C44.7872 17.1793 44.5158 17.0669 44.2329 17.0669Z" fill="#4CFF89"/>
<path d="M53.8342 19.2002H59.1676C59.4505 19.2002 59.7218 19.0878 59.9218 18.8878C60.1219 18.6878 60.2342 18.4165 60.2342 18.1336C60.2342 17.8507 60.1219 17.5794 59.9218 17.3793C59.7218 17.1793 59.4505 17.0669 59.1676 17.0669H53.8342C53.5513 17.0669 53.28 17.1793 53.08 17.3793C52.88 17.5794 52.7676 17.8507 52.7676 18.1336C52.7676 18.4165 52.88 18.6878 53.08 18.8878C53.28 19.0878 53.5513 19.2002 53.8342 19.2002Z" fill="#4CFF89"/>
<path d="M49.5671 36.2666H39.9671C39.6842 36.2666 39.4128 36.379 39.2128 36.579C39.0128 36.7791 38.9004 37.0504 38.9004 37.3333C38.9004 37.6162 39.0128 37.8875 39.2128 38.0875C39.4128 38.2876 39.6842 38.3999 39.9671 38.3999H49.5671C49.85 38.3999 50.1213 38.2876 50.3213 38.0875C50.5213 37.8875 50.6337 37.6162 50.6337 37.3333C50.6337 37.0504 50.5213 36.7791 50.3213 36.579C50.1213 36.379 49.85 36.2666 49.5671 36.2666Z" fill="#4CFF89"/>
<path d="M47.4337 40.5332H39.9671C39.6842 40.5332 39.4128 40.6456 39.2128 40.8456C39.0128 41.0457 38.9004 41.317 38.9004 41.5999C38.9004 41.8828 39.0128 42.1541 39.2128 42.3541C39.4128 42.5542 39.6842 42.6665 39.9671 42.6665H47.4337C47.7166 42.6665 47.9879 42.5542 48.188 42.3541C48.388 42.1541 48.5004 41.8828 48.5004 41.5999C48.5004 41.317 48.388 41.0457 48.188 40.8456C47.9879 40.6456 47.7166 40.5332 47.4337 40.5332Z" fill="#4CFF89"/>
<path d="M57.0342 36.2666H53.8342C53.5513 36.2666 53.28 36.379 53.08 36.579C52.88 36.7791 52.7676 37.0504 52.7676 37.3333C52.7676 37.6162 52.88 37.8875 53.08 38.0875C53.28 38.2876 53.5513 38.3999 53.8342 38.3999H57.0342C57.3171 38.3999 57.5885 38.2876 57.7885 38.0875C57.9885 37.8875 58.1009 37.6162 58.1009 37.3333C58.1009 37.0504 57.9885 36.7791 57.7885 36.579C57.5885 36.379 57.3171 36.2666 57.0342 36.2666Z" fill="#4CFF89"/>
<path d="M54.8995 40.5332H51.6995C51.4166 40.5332 51.1453 40.6456 50.9452 40.8456C50.7452 41.0457 50.6328 41.317 50.6328 41.5999C50.6328 41.8828 50.7452 42.1541 50.9452 42.3541C51.1453 42.5542 51.4166 42.6665 51.6995 42.6665H54.8995C55.1824 42.6665 55.4537 42.5542 55.6537 42.3541C55.8538 42.1541 55.9661 41.8828 55.9661 41.5999C55.9661 41.317 55.8538 41.0457 55.6537 40.8456C55.4537 40.6456 55.1824 40.5332 54.8995 40.5332Z" fill="#4CFF89"/>
</g>
<defs>
<clipPath id="clip0_50_305">
<rect width="64" height="64" fill="white" transform="translate(0.5)"/>
</clipPath>
</defs>
</svg>
