<svg width="62" height="62" viewBox="0 0 62 62" fill="none" xmlns="http://www.w3.org/2000/svg">
<g clip-path="url(#clip0_50_259)">
<path fill-rule="evenodd" clip-rule="evenodd" d="M15.3103 21.7777C14.1636 22.1932 12.9262 22.4197 11.6359 22.4197C5.6793 22.4197 0.851562 17.592 0.851562 11.6354C0.851562 5.67881 5.6793 0.851074 11.6359 0.851074C17.5925 0.851074 22.4201 5.67881 22.4201 11.6354C22.4201 13.0009 22.1666 14.307 21.7037 15.5092C24.1975 14.1034 27.0772 13.3014 30.1443 13.3014C34.3527 13.3014 38.208 14.8113 41.1982 17.319C40.1731 15.6688 39.581 13.7213 39.581 11.6354C39.581 5.67881 44.4086 0.851074 50.3652 0.851074C56.3219 0.851074 61.1496 5.67881 61.1496 11.6354C61.1496 17.592 56.3219 22.4197 50.3652 22.4197C48.0141 22.4197 45.8388 21.6675 44.0668 20.3907C46.1358 23.2314 47.3562 26.7298 47.3562 30.5133C47.3562 33.8872 46.3857 37.0343 44.7087 39.6905L48.5962 43.4651C49.514 42.959 50.7011 43.0829 51.4895 43.8464L51.4904 43.8471L60.4083 52.5018C61.3737 53.4366 61.4005 54.9918 60.4581 55.9648L60.4573 55.9655L57.239 59.281L57.2381 59.2818C56.304 60.2455 54.7507 60.2718 53.7789 59.3381C53.7776 59.3369 53.7763 59.3357 53.7751 59.3345L44.8621 50.6801C44.0684 49.9153 43.9075 48.7325 44.3877 47.7994L40.6365 44.1592C37.7322 46.3955 34.0937 47.7254 30.1443 47.7254C26.8162 47.7254 23.709 46.781 21.0757 45.1458C21.9324 46.6922 22.4201 48.4715 22.4201 50.3648C22.4201 56.3214 17.5925 61.1491 11.6359 61.1491C5.6793 61.1491 0.851562 56.3214 0.851562 50.3648C0.851562 44.4081 5.6793 39.5805 11.6359 39.5805C13.2607 39.5805 14.8014 39.9396 16.1832 40.583C14.1377 37.7518 12.9323 34.2736 12.9323 30.5133C12.9323 27.3245 13.7992 24.3384 15.3103 21.7777ZM18.9364 16.6208C19.9072 15.2016 20.475 13.485 20.475 11.6354C20.475 6.75311 16.5181 2.79617 11.6359 2.79617C6.7536 2.79617 2.79666 6.75311 2.79666 11.6354C2.79666 13.485 3.36451 15.2016 4.33535 16.6208C5.08811 14.6688 6.60066 13.0943 8.5099 12.2603C7.70074 11.4554 7.1983 10.3425 7.1983 9.1175C7.1983 6.67603 9.19445 4.67988 11.6359 4.67988C14.0774 4.67988 16.0735 6.67603 16.0735 9.1175C16.0735 10.3425 15.571 11.4554 14.7618 12.2603C16.6712 13.0943 18.1836 14.6688 18.9364 16.6208ZM5.8625 18.3292C7.41128 19.6661 9.42908 20.4746 11.6359 20.4746C13.8428 20.4746 15.8604 19.6661 17.4092 18.3292C16.8925 15.6107 14.5034 13.5551 11.6359 13.5551C8.76835 13.5551 6.37929 15.6107 5.8625 18.3292ZM43.5652 41.2914C43.1148 41.8517 42.63 42.3831 42.1139 42.8825L45.6676 46.331L47.1659 44.7876L43.5652 41.2914ZM11.6359 11.61C13.0072 11.61 14.1284 10.4888 14.1284 9.1175C14.1284 7.7462 13.0072 6.62498 11.6359 6.62498C10.2645 6.62498 9.14339 7.7462 9.14339 9.1175C9.14339 10.4888 10.2645 11.61 11.6359 11.61ZM55.8424 57.9271L59.0609 54.6115C59.2547 54.4113 59.2537 54.0914 59.0552 53.8993L59.0545 53.8984L50.1365 45.2437C49.9378 45.0515 49.6164 45.0554 49.4241 45.2539L49.4232 45.2547L46.204 48.571C46.2033 48.5716 46.2027 48.5724 46.202 48.573C46.0097 48.77 46.0136 49.0891 46.2122 49.2799C46.2134 49.2811 46.2148 49.2823 46.216 49.2835C46.216 49.2835 55.1276 57.9365 55.13 57.9389C55.3311 58.1284 55.6497 58.1261 55.8416 57.9279L55.8424 57.9271ZM18.9364 55.3502C19.9072 53.9311 20.475 52.2143 20.475 50.3648C20.475 45.4826 16.5181 41.5256 11.6359 41.5256C6.7536 41.5256 2.79666 45.4826 2.79666 50.3648C2.79666 52.2143 3.36451 53.9311 4.33535 55.3502C5.08811 53.3983 6.60066 51.8237 8.5099 50.9896C7.70074 50.1848 7.1983 49.0719 7.1983 47.847C7.1983 45.4055 9.19445 43.4092 11.6359 43.4092C14.0774 43.4092 16.0735 45.4055 16.0735 47.847C16.0735 49.0719 15.571 50.1848 14.7618 50.9896C16.6712 51.8237 18.1836 53.3983 18.9364 55.3502ZM5.8625 57.0587C7.41128 58.3956 9.42908 59.204 11.6359 59.204C13.8428 59.204 15.8604 58.3956 17.4092 57.0587C16.8925 54.3402 14.5034 52.2846 11.6359 52.2846C8.76835 52.2846 6.37929 54.3402 5.8625 57.0587ZM11.6359 50.3395C13.0072 50.3395 14.1284 49.2182 14.1284 47.847C14.1284 46.4755 13.0072 45.3543 11.6359 45.3543C10.2645 45.3543 9.14339 46.4755 9.14339 47.847C9.14339 49.2182 10.2645 50.3395 11.6359 50.3395ZM30.1443 15.2465C21.7119 15.2465 14.8774 22.081 14.8774 30.5133C14.8774 38.9458 21.7119 45.7803 30.1443 45.7803C38.5766 45.7803 45.4111 38.9458 45.4111 30.5133C45.4111 22.081 38.5766 15.2465 30.1443 15.2465ZM30.1443 17.0888C37.5587 17.0888 43.5688 23.099 43.5688 30.5133C43.5688 37.9278 37.5587 43.938 30.1443 43.938C22.7299 43.938 16.7197 37.9278 16.7197 30.5133C16.7197 23.099 22.7299 17.0888 30.1443 17.0888ZM30.1443 19.0338C23.8042 19.0338 18.6648 24.1733 18.6648 30.5133C18.6648 36.8535 23.8042 41.9929 30.1443 41.9929C36.4844 41.9929 41.6237 36.8535 41.6237 30.5133C41.6237 24.1733 36.4844 19.0338 30.1443 19.0338ZM28.3579 21.7943H31.9329C32.4701 21.7943 32.9054 22.2298 32.9054 22.7669V35.6597C32.9054 36.1969 32.4701 36.6322 31.9329 36.6322H28.3579C27.8208 36.6322 27.3854 36.1969 27.3854 35.6597V22.7669C27.3854 22.2298 27.8208 21.7943 28.3579 21.7943ZM29.3305 23.7394V34.6871H30.9603V23.7394H29.3305ZM34.9963 24.232H38.5713C39.1084 24.232 39.5438 24.6673 39.5438 25.2046V35.6597C39.5438 36.1969 39.1084 36.6322 38.5713 36.6322H34.9963C34.4591 36.6322 34.0238 36.1969 34.0238 35.6597V25.2046C34.0238 24.6673 34.4591 24.232 34.9963 24.232ZM35.9688 26.1771V34.6871H37.5987V26.1771H35.9688ZM21.7172 27.8279H25.2946C25.8317 27.8279 26.2672 28.2633 26.2672 28.8004V35.6597C26.2672 36.1969 25.8317 36.6322 25.2946 36.6322H21.7172C21.1801 36.6322 20.7447 36.1969 20.7447 35.6597V28.8004C20.7447 28.2633 21.1801 27.8279 21.7172 27.8279ZM22.6898 29.773V34.6871H24.3221V29.773H22.6898ZM57.6658 16.6208C58.6367 15.2016 59.2045 13.485 59.2045 11.6354C59.2045 6.75311 55.2476 2.79617 50.3652 2.79617C45.4831 2.79617 41.5261 6.75311 41.5261 11.6354C41.5261 13.485 42.094 15.2016 43.0648 16.6208C43.8176 14.6688 45.33 13.0943 47.2394 12.2603C46.4302 11.4554 45.9276 10.3425 45.9276 9.1175C45.9276 6.67603 47.9238 4.67988 50.3652 4.67988C52.8067 4.67988 54.8029 6.67603 54.8029 9.1175C54.8029 10.3425 54.3004 11.4554 53.4913 12.2603C55.4005 13.0943 56.9131 14.6688 57.6658 16.6208ZM44.592 18.3292C46.1407 19.6661 48.1584 20.4746 50.3652 20.4746C52.5721 20.4746 54.5899 19.6661 56.1387 18.3292C55.6219 15.6107 53.2328 13.5551 50.3652 13.5551C47.4978 13.5551 45.1086 15.6107 44.592 18.3292ZM50.3652 11.61C51.7367 11.61 52.8578 10.4888 52.8578 9.1175C52.8578 7.7462 51.7367 6.62498 50.3652 6.62498C48.994 6.62498 47.8727 7.7462 47.8727 9.1175C47.8727 10.4888 48.994 11.61 50.3652 11.61Z" fill="#E83A25"/>
</g>
<defs>
<clipPath id="clip0_50_259">
<rect width="62" height="62" fill="white"/>
</clipPath>
</defs>
</svg>
