<svg width="64" height="64" viewBox="0 0 64 64" fill="none" xmlns="http://www.w3.org/2000/svg">
<path d="M59.83 47.4184L48.9694 36.5578C48.5815 36.1699 47.9997 36.1699 47.6118 36.5578L47.127 37.0426L44.3148 34.2305C50.133 25.8911 49.1633 14.4487 41.8906 7.17596C33.6482 -1.06647 20.1694 -1.06647 11.927 7.17596C5.33303 13.7699 3.97545 23.7578 8.04818 31.7093L6.10878 33.6487C5.7209 34.0366 5.7209 34.5214 6.01181 34.9093L8.53303 38.2063C8.14515 38.8851 7.85424 39.6608 7.6603 40.3396L3.58757 40.9214C3.10272 41.0184 2.71484 41.4063 2.71484 41.8911V47.3214C2.71484 47.8063 3.10272 48.1941 3.58757 48.2911L7.6603 48.8729C7.75727 49.7457 8.04818 50.4244 8.43606 51.1032L5.91484 54.4002C5.62393 54.7881 5.62393 55.3699 6.01181 55.6608L9.8906 59.5396C10.2785 59.9275 10.7633 59.9275 11.1512 59.6366L14.4482 57.1154C15.127 57.5032 15.9027 57.7941 16.5815 57.9881L17.1633 62.0608C17.2603 62.5457 17.6482 62.9335 18.133 62.9335H23.5633C24.0482 62.9335 24.4361 62.5457 24.533 62.0608L25.1148 57.9881C25.8906 57.7941 26.5694 57.5032 27.2482 57.1154L30.5451 59.6366C30.933 59.9275 31.5148 59.9275 31.8058 59.5396L35.6845 55.6608C36.0724 55.2729 36.0724 54.7881 35.7815 54.4002L33.2603 51.1032C33.6482 50.4244 33.9391 49.6487 34.133 48.9699L38.2058 48.3881C38.6906 48.2911 39.0785 47.9032 39.0785 47.4184V41.9881C39.0785 41.5032 38.6906 41.1154 38.2058 41.0184L36.8482 40.8244C37.527 40.4366 38.3027 40.0487 38.9815 39.5638L41.7936 42.376L41.3088 42.8608C40.9209 43.2487 40.9209 43.8305 41.3088 44.2184L52.1694 55.079C54.3027 57.2123 57.6967 57.2123 59.83 55.079C61.9633 52.9457 61.9633 49.5517 59.83 47.4184ZM33.3573 42.279L37.2361 42.8608V46.6426L33.3573 47.2244C32.9694 47.3214 32.6785 47.5154 32.5815 47.9032C32.2906 48.8729 31.9027 49.8426 31.4179 50.8123C31.2239 51.1032 31.2239 51.5881 31.5148 51.879L33.8421 54.982L31.127 57.6972L28.0239 55.2729C27.733 55.079 27.2482 54.982 26.9573 55.176C26.0845 55.6608 25.1148 56.1457 24.0482 56.3396C23.6603 56.4366 23.3694 56.7275 23.3694 57.1154L22.7876 60.9941H19.0058L18.4239 57.2123C18.327 56.8244 18.133 56.5335 17.7451 56.4366C16.7754 56.1457 15.8058 55.7578 14.8361 55.2729C14.5451 55.079 14.0603 55.079 13.7694 55.3699L10.6664 57.6002L7.95121 54.885L10.2785 51.782C10.4724 51.4911 10.5694 51.0063 10.3754 50.7154C9.8906 49.8426 9.40575 48.8729 9.21181 47.8063C9.11484 47.4184 8.82393 47.1275 8.43606 47.1275L4.55727 46.5457V42.7638L8.43606 42.182C8.82393 42.085 9.11484 41.8911 9.21181 41.5032C9.50272 40.5335 9.8906 39.5638 10.3754 38.5941C10.5694 38.3032 10.5694 37.8184 10.2785 37.5275L7.95121 34.4244L8.9209 33.4547C10.5694 36.1699 12.6058 38.1093 15.2239 39.8547C14.0603 41.2123 13.3815 42.9578 13.3815 44.7032C13.3815 48.8729 16.7755 52.1699 20.8482 52.1699C24.9209 52.1699 28.3148 48.776 28.3148 44.7032C28.3148 44.2184 28.2179 43.7335 28.1209 43.2487C29.9633 43.1517 31.7088 42.7638 33.3573 42.279ZM26.2785 43.2487C26.3755 43.7335 26.4724 44.2184 26.4724 44.7032C26.4724 47.7093 23.9512 50.2305 20.9451 50.2305C17.9391 50.2305 15.4179 47.7093 15.4179 44.7032C15.4179 43.2487 15.9997 41.8911 16.9694 40.8244C19.8785 42.376 22.9815 43.1517 26.2785 43.2487ZM38.3997 37.5275C30.8361 43.2487 19.9755 42.5699 13.1876 35.782C5.7209 28.3154 5.7209 16.0972 13.1876 8.53354C16.9694 4.75172 21.9148 2.90929 26.7633 2.90929C31.6118 2.90929 36.6542 4.75172 40.3391 8.53354C47.127 15.3214 47.8058 26.085 42.0845 33.7457C41.7936 34.1335 41.7936 34.7154 42.1815 35.0063L45.5755 38.4002L42.9573 41.0184L39.5633 37.6244C39.3694 37.2366 38.7876 37.2366 38.3997 37.5275ZM58.4724 53.7214C57.1148 55.079 54.8845 55.079 53.527 53.7214L43.3451 43.5396L48.2906 38.5941L58.4724 48.776C59.83 50.1335 59.83 52.3638 58.4724 53.7214Z" fill="#3BD2DC"/>
<path d="M43.0534 30.1576C43.0534 29.5758 42.6655 29.1879 42.0837 29.1879H40.3382V24.5334C40.3382 23.9516 39.9503 23.5637 39.3685 23.5637C38.7867 23.5637 38.3988 23.9516 38.3988 24.5334V29.1879H33.9382V22.3031C33.9382 21.7213 33.5503 21.3334 32.9685 21.3334C32.3867 21.3334 31.9988 21.7213 31.9988 22.3031V29.1879H27.5382V18.9092C27.5382 18.3273 27.1503 17.9395 26.5685 17.9395C25.9867 17.9395 25.5988 18.3273 25.5988 18.9092V29.1879H21.1382V16.4849C21.1382 15.9031 20.7503 15.5152 20.1685 15.5152C19.5867 15.5152 19.1988 15.9031 19.1988 16.4849V29.1879H14.7382V12.7031C14.7382 12.1213 14.3503 11.7334 13.7685 11.7334C13.1867 11.7334 12.7988 12.1213 12.7988 12.7031V30.1576C12.7988 30.7395 13.1867 31.1273 13.7685 31.1273H42.0837C42.5685 31.1273 43.0534 30.7395 43.0534 30.1576Z" fill="#3BD2DC"/>
</svg>
