<svg width="65" height="64" viewBox="0 0 65 64" fill="none" xmlns="http://www.w3.org/2000/svg">
<path d="M14.5387 16.8626H34.5375C34.9512 16.8626 35.2875 16.5263 35.2875 16.1126V13.1951C35.2875 12.7813 34.9512 12.4451 34.5375 12.4451H14.5387C14.125 12.4451 13.7887 12.7813 13.7887 13.1951V16.1126C13.7887 16.5263 14.1237 16.8626 14.5387 16.8626ZM15.2887 13.9438H33.7875V15.3613H15.2887V13.9438ZM7.2475 28.8276H17.7962C18.21 28.8276 18.5462 28.4913 18.5462 28.0776V18.9188C18.5462 18.5051 18.21 18.1688 17.7962 18.1688H7.2475C6.83375 18.1688 6.4975 18.5051 6.4975 18.9188V28.0776C6.4975 28.4913 6.8325 28.8276 7.2475 28.8276ZM7.9975 19.6688H17.0462V27.3276H7.9975V19.6688ZM32.7775 19.6513C32.7775 20.0651 32.4412 20.4013 32.0275 20.4013H20.6063C20.1925 20.4013 19.8563 20.0651 19.8563 19.6513C19.8563 19.2376 20.1925 18.9013 20.6063 18.9013H32.0275C32.4412 18.9013 32.7775 19.2376 32.7775 19.6513ZM29.3425 23.4976C29.3425 23.9113 29.0063 24.2476 28.5925 24.2476H20.6063C20.1925 24.2476 19.8563 23.9113 19.8563 23.4976C19.8563 23.0838 20.1925 22.7476 20.6063 22.7476H28.5925C29.0063 22.7476 29.3425 23.0838 29.3425 23.4976ZM27.6475 27.3451C27.6475 27.7588 27.3112 28.0951 26.8975 28.0951H20.6063C20.1925 28.0951 19.8563 27.7588 19.8563 27.3451C19.8563 26.9313 20.1925 26.5951 20.6063 26.5951H26.8975C27.3112 26.5951 27.6475 26.9301 27.6475 27.3451ZM26.17 31.1913C26.17 31.6051 25.8337 31.9413 25.42 31.9413H6.67C6.25625 31.9413 5.92 31.6051 5.92 31.1913C5.92 30.7776 6.25625 30.4413 6.67 30.4413H25.42C25.835 30.4413 26.17 30.7763 26.17 31.1913ZM62.1312 54.9376L54.6125 43.9663C54.1862 43.3451 53.5425 42.9263 52.7975 42.7863C52.0525 42.6476 51.3 42.8051 50.6787 43.2313L50.2762 43.5076L48.2075 40.4888C48.755 40.0626 49.2563 39.5988 49.7125 39.1013H55.8375C56.2513 39.1013 56.5875 38.7651 56.5875 38.3513V8.02508C56.5875 7.61133 56.2513 7.27508 55.8375 7.27508H44.9775V3.98633C44.9775 3.57258 44.6413 3.23633 44.2275 3.23633H3.125C2.71125 3.23633 2.375 3.57258 2.375 3.98633V34.3126C2.375 34.7263 2.71125 35.0626 3.125 35.0626H13.985V38.3526C13.985 38.7663 14.3212 39.1026 14.735 39.1026H31.6513C33.4325 41.0576 35.79 42.3751 38.435 42.8688C39.1925 43.0101 39.9525 43.0801 40.7075 43.0801C42.9075 43.0801 45.0588 42.4838 46.97 41.3363L49.04 44.3563L48.6375 44.6326C48.0163 45.0588 47.5975 45.7026 47.4575 46.4476C47.3188 47.1926 47.4762 47.9451 47.9025 48.5663L55.4212 59.5376C55.8475 60.1588 56.4913 60.5776 57.2363 60.7176C57.4125 60.7501 57.5887 60.7663 57.765 60.7663C58.33 60.7663 58.8812 60.5976 59.355 60.2726L61.3975 58.8726C62.6838 57.9888 63.0137 56.2251 62.1312 54.9376ZM50.8825 37.6013C53.5525 33.5663 53.6787 28.1438 50.78 23.9138C49.3037 21.7601 47.255 20.2263 44.9762 19.3751V14.7738H55.0863V37.6013H50.8825ZM55.0863 8.77508V13.2738H44.9762V8.77508H55.0863ZM43.4762 4.73633V9.23508H3.875V4.73633H43.4762ZM3.875 10.7338H43.4762V18.9213C40.2412 18.1638 36.7113 18.7138 33.7612 20.7363C31.0637 22.5851 29.2475 25.3726 28.6475 28.5876C28.335 30.2626 28.3725 31.9488 28.7412 33.5626H3.875V10.7338ZM15.485 35.0613H29.1875C29.515 35.9451 29.9475 36.7976 30.4813 37.6013H15.485V35.0613ZM38.71 41.3938C35.89 40.8676 33.4425 39.2738 31.8213 36.9063C30.1988 34.5401 29.5962 31.6826 30.1225 28.8626C30.6488 26.0426 32.2425 23.5951 34.61 21.9738C36.4625 20.7051 38.575 20.0963 40.6662 20.0963C44.0925 20.0963 47.4637 21.7288 49.5425 24.7626C52.8913 29.6488 51.64 36.3476 46.7537 39.6963C44.3875 41.3176 41.5312 41.9201 38.71 41.3938ZM60.5488 57.6338L58.5062 59.0338C58.215 59.2338 57.8612 59.3076 57.5112 59.2413C57.16 59.1763 56.8575 58.9801 56.6575 58.6888L49.1387 47.7176C48.9387 47.4263 48.865 47.0726 48.9313 46.7226C48.9975 46.3726 49.1925 46.0688 49.4837 45.8688L51.5262 44.4688C51.7475 44.3163 52.0063 44.2376 52.2713 44.2376C52.3538 44.2376 52.4375 44.2451 52.5213 44.2613C52.8725 44.3263 53.175 44.5226 53.375 44.8138L60.8937 55.7851C61.3088 56.3901 61.1538 57.2201 60.5488 57.6338ZM6.7425 6.98508C6.7425 6.57133 7.07875 6.23508 7.4925 6.23508C7.90625 6.23508 8.24375 6.57133 8.24375 6.98508C8.24375 7.39883 7.90875 7.73508 7.495 7.73508H7.49375C7.0775 7.73508 6.7425 7.39883 6.7425 6.98508ZM10.1313 6.98508C10.1313 6.57133 10.4675 6.23508 10.8813 6.23508C11.295 6.23508 11.6325 6.57133 11.6325 6.98508C11.6325 7.39883 11.2975 7.73508 10.8837 7.73508H10.8825C10.4662 7.73508 10.1313 7.39883 10.1313 6.98508ZM13.52 6.98508C13.52 6.57133 13.8563 6.23508 14.27 6.23508C14.6838 6.23508 15.0212 6.57133 15.0212 6.98508C15.0212 7.39883 14.6862 7.73508 14.2725 7.73508H14.2712C13.8562 7.73508 13.52 7.39883 13.52 6.98508Z" fill="#FF5DEF"/>
</svg>
