<svg width="64" height="64" viewBox="0 0 64 64" fill="none" xmlns="http://www.w3.org/2000/svg">
<path d="M8 6H10V8H8V6Z" fill="#5227FF"/>
<path d="M12 6H14V8H12V6Z" fill="#5227FF"/>
<path d="M16 6H18V8H16V6Z" fill="#5227FF"/>
<path d="M9 28H25C25.2652 28 25.5196 27.8946 25.7071 27.7071C25.8946 27.5196 26 27.2652 26 27V17C26 16.7348 25.8946 16.4804 25.7071 16.2929C25.5196 16.1054 25.2652 16 25 16H9C8.73478 16 8.48043 16.1054 8.29289 16.2929C8.10536 16.4804 8 16.7348 8 17V27C8 27.2652 8.10536 27.5196 8.29289 27.7071C8.48043 27.8946 8.73478 28 9 28ZM10 18H24V26H10V18Z" fill="#5227FF"/>
<path d="M34 17H50V19H34V17Z" fill="#5227FF"/>
<path d="M30 21H48V23H30V21Z" fill="#5227FF"/>
<path d="M30 25H44V27H30V25Z" fill="#5227FF"/>
<path d="M12 32H38V34H12V32Z" fill="#5227FF"/>
<path d="M8 36H34V38H8V36Z" fill="#5227FF"/>
<path d="M8 40H30V42H8V40Z" fill="#5227FF"/>
<path d="M8 44H30V46H8V44Z" fill="#5227FF"/>
<path d="M8 48H30V50H8V48Z" fill="#5227FF"/>
<path d="M8 32H10V34H8V32Z" fill="#5227FF"/>
<path d="M57 8H56V7C56 5.67392 55.4732 4.40215 54.5355 3.46447C53.5979 2.52678 52.3261 2 51 2H7C5.67392 2 4.40215 2.52678 3.46447 3.46447C2.52678 4.40215 2 5.67392 2 7V51C2 52.3261 2.52678 53.5979 3.46447 54.5355C4.40215 55.4732 5.67392 56 7 56H8V57C8 58.3261 8.52678 59.5979 9.46447 60.5355C10.4021 61.4732 11.6739 62 13 62H57C58.3261 62 59.5979 61.4732 60.5355 60.5355C61.4732 59.5979 62 58.3261 62 57V13C62 11.6739 61.4732 10.4021 60.5355 9.46447C59.5979 8.52678 58.3261 8 57 8ZM55.21 23.54L59.46 27.79L56.63 30.62L52.38 26.37L55.21 23.54ZM37.13 43.65L37.92 41.6L41.4 45.08L39.35 45.87L37.13 43.65ZM37.31 46.65L35.74 47.26L36.35 45.69L37.31 46.65ZM40.36 41.22L38.95 39.81L50.97 27.79L52.38 29.2L40.36 41.22ZM53.8 30.62L55.21 32.03L43.19 44.05L41.78 42.64L53.8 30.62ZM4 7C4.00237 6.20508 4.31921 5.4434 4.8813 4.8813C5.4434 4.31921 6.20508 4.00237 7 4H51C51.7949 4.00237 52.5566 4.31921 53.1187 4.8813C53.6808 5.4434 53.9976 6.20508 54 7V10H4V7ZM7 54C6.20508 53.9976 5.4434 53.6808 4.8813 53.1187C4.31921 52.5566 4.00237 51.7949 4 51V12H54V21.93L36.83 39.1C36.7298 39.1994 36.6515 39.3186 36.6 39.45L33.07 48.64C32.9974 48.8202 32.9795 49.0179 33.0187 49.2082C33.0578 49.3985 33.1522 49.573 33.29 49.71C33.4792 49.8965 33.7343 50.0008 34 50C34.1235 50.001 34.2459 49.9772 34.36 49.93L43.55 46.4C43.6814 46.3485 43.8006 46.2702 43.9 46.17L54 36.07V51C53.9976 51.7949 53.6808 52.5566 53.1187 53.1187C52.5566 53.6808 51.7949 53.9976 51 54H7ZM60 57C59.9976 57.7949 59.6808 58.5566 59.1187 59.1187C58.5566 59.6808 57.7949 59.9976 57 60H13C12.2051 59.9976 11.4434 59.6808 10.8813 59.1187C10.3192 58.5566 10.0024 57.7949 10 57V56H51C52.3261 56 53.5979 55.4732 54.5355 54.5355C55.4732 53.5979 56 52.3261 56 51V34.07L60 30.07V57ZM60 25.5L56 21.5V18H60V25.5ZM60 16H56V10H57C57.7949 10.0024 58.5566 10.3192 59.1187 10.8813C59.6808 11.4434 59.9976 12.2051 60 13V16Z" fill="#5227FF"/>
<path d="M30 17H32V19H30V17Z" fill="#5227FF"/>
</svg>
