<svg width="62" height="62" viewBox="0 0 62 62" fill="none" xmlns="http://www.w3.org/2000/svg">
<path d="M58.4714 7.49897L52.5344 1.56199C52.1461 1.17388 51.6507 0.96875 51.1019 0.96875H18.6877C17.5705 0.96875 16.6617 1.87768 16.6617 2.99489V30.8973C14.1743 33.1602 12.6105 36.4215 12.6105 40.0412C12.6105 42.3781 13.2625 44.5654 14.3938 46.4313L11.9719 48.7814C11.7382 48.6834 11.4857 48.6293 11.2242 48.6254C10.6843 48.6161 10.1814 48.8179 9.79813 49.19L3.54121 55.2615C2.74805 56.0312 2.72892 57.3028 3.49847 58.0959L5.75747 60.424C6.14982 60.8283 6.67282 61.0315 7.19619 61.0315C7.69933 61.0315 8.20308 60.8438 8.59203 60.4665L14.8486 54.3952C15.2322 54.0232 15.4479 53.5228 15.456 52.9866C15.4599 52.7252 15.4135 52.4711 15.3225 52.2348L16.6616 50.9354V53.3271C16.6616 54.4444 17.5705 55.3533 18.6876 55.3533H57.0385C58.1558 55.3533 59.0646 54.4444 59.0646 53.3271V8.93163C59.0649 8.38272 58.8596 7.88732 58.4714 7.49897ZM52.5086 4.2763L55.7574 7.52501H52.5086V4.2763ZM24.9729 29.6164C30.7212 29.6164 35.3977 34.2929 35.3977 40.0412C35.3977 45.7895 30.7212 50.4661 24.9729 50.4661C19.2246 50.4661 14.5479 45.7895 14.5479 40.0412C14.5479 34.2929 19.2247 29.6164 24.9729 29.6164ZM16.1706 48.7123L14.0884 50.7328L13.4359 50.0605L15.5385 48.0203C15.7404 48.2588 15.9513 48.4897 16.1706 48.7123ZM13.4996 53.0047L7.24305 59.076C7.21774 59.1002 7.17161 59.0993 7.14799 59.0747L4.88899 56.7466C4.86501 56.7219 4.86586 56.6759 4.89056 56.6519L11.1474 50.5804C11.1595 50.5686 11.1751 50.5627 11.1937 50.5627H11.1952C11.2144 50.5629 11.2303 50.5694 11.2423 50.5817L13.5013 52.9099C13.5133 52.9223 13.5191 52.9383 13.519 52.9576C13.5186 52.9767 13.5122 52.9926 13.4996 53.0047ZM57.0386 53.4158H18.6877C18.6405 53.4158 18.5992 53.3744 18.5992 53.3271V50.6301C20.4615 51.7553 22.6429 52.4036 24.973 52.4036C31.7896 52.4036 37.3353 46.8578 37.3353 40.0412C37.3353 33.2246 31.7896 27.6789 24.973 27.6789C22.6429 27.6789 20.4616 28.3272 18.5992 29.4523V2.99489C18.5992 2.94766 18.6406 2.90625 18.6877 2.90625H50.5711V7.96494C50.5711 8.79068 51.2428 9.46239 52.0684 9.46239H57.1273V53.327C57.1274 53.3744 57.086 53.4158 57.0386 53.4158ZM42.9263 17.7809C42.9263 17.1026 42.7204 16.4714 42.3679 15.9466L44.975 12.74C45.3573 12.8953 45.7746 12.9816 46.2119 12.9816C48.0307 12.9816 49.5102 11.5018 49.5102 9.68314C49.5102 7.86443 48.0306 6.38467 46.2119 6.38467C44.3932 6.38467 42.9134 7.86431 42.9134 9.68314C42.9134 10.3615 43.1195 10.9926 43.472 11.5175L40.8649 14.724C40.4827 14.5688 40.0653 14.4826 39.628 14.4826C39.0362 14.4826 38.4808 14.64 38 14.914L34.2979 11.4225C34.5157 10.9826 34.6386 10.4878 34.6386 9.96468C34.6386 8.14586 33.1589 6.66621 31.3402 6.66621C29.5215 6.66621 28.0417 8.14598 28.0417 9.96468C28.0417 10.5938 28.219 11.1822 28.5259 11.6829L24.4249 16.3168C24.009 16.1271 23.5476 16.0206 23.0614 16.0206C21.2426 16.0206 19.7629 17.5003 19.7629 19.3192C19.7629 21.138 21.2427 22.6176 23.0614 22.6176C24.8801 22.6176 26.3598 21.1379 26.3598 19.3192C26.3598 18.6901 26.1826 18.1017 25.8757 17.601L29.9768 12.967C30.3928 13.1566 30.8542 13.2632 31.3402 13.2632C31.932 13.2632 32.4875 13.1057 32.9681 12.8317L36.67 16.3232C36.4523 16.7631 36.3294 17.2579 36.3294 17.781C36.3294 19.5999 37.8092 21.0795 39.6279 21.0795C41.4466 21.0795 42.9263 19.5998 42.9263 17.7809ZM46.2119 8.32217C46.9623 8.32217 47.5727 8.93272 47.5727 9.68314C47.5727 10.4336 46.9623 11.0441 46.2119 11.0441C45.4614 11.0441 44.8509 10.4336 44.8509 9.68314C44.8509 8.93272 45.4614 8.32217 46.2119 8.32217ZM23.0614 20.6801C22.311 20.6801 21.7004 20.0696 21.7004 19.3192C21.7004 18.5686 22.311 17.9581 23.0614 17.9581C23.8118 17.9581 24.4223 18.5686 24.4223 19.3192C24.4224 20.0696 23.8118 20.6801 23.0614 20.6801ZM31.3402 11.3257C30.5898 11.3257 29.9792 10.7151 29.9792 9.96468C29.9792 9.21427 30.5898 8.60371 31.3402 8.60371C32.0906 8.60371 32.7011 9.21427 32.7011 9.96468C32.7011 10.7151 32.0908 11.3257 31.3402 11.3257ZM38.267 17.7809C38.267 17.0305 38.8776 16.4199 39.628 16.4199C40.3784 16.4199 40.9888 17.0305 40.9888 17.7809C40.9888 18.5313 40.3784 19.1419 39.628 19.1419C38.8776 19.1419 38.267 18.5315 38.267 17.7809ZM53.8819 24.9143C53.8819 25.4493 53.4482 25.8831 52.9132 25.8831H38.8276C38.2926 25.8831 37.8588 25.4493 37.8588 24.9143C37.8588 24.3793 38.2926 23.9456 38.8276 23.9456H52.9131C53.4482 23.9456 53.8819 24.3792 53.8819 24.9143ZM53.8819 29.9188C53.8819 30.4537 53.4482 30.8875 52.9132 30.8875H38.8276C38.2926 30.8875 37.8588 30.4537 37.8588 29.9188C37.8588 29.3838 38.2926 28.95 38.8276 28.95H52.9131C53.4482 28.95 53.8819 29.3836 53.8819 29.9188ZM53.8819 34.9232C53.8819 35.4582 53.4482 35.8919 52.9132 35.8919H38.8276C38.2926 35.8919 37.8588 35.4582 37.8588 34.9232C37.8588 34.3882 38.2926 33.9544 38.8276 33.9544H52.9131C53.4482 33.9544 53.8819 34.3882 53.8819 34.9232ZM53.8819 39.9276C53.8819 40.4626 53.4482 40.8964 52.9132 40.8964H38.8276C38.2926 40.8964 37.8588 40.4626 37.8588 39.9276C37.8588 39.3926 38.2926 38.9589 38.8276 38.9589H52.9131C53.4482 38.9589 53.8819 39.3926 53.8819 39.9276ZM24.9729 49.1913C30.0182 49.1913 34.123 45.0866 34.123 40.0412C34.123 34.9958 30.0184 30.8911 24.9729 30.8911C19.9274 30.8911 15.8228 34.9958 15.8228 40.0412C15.8228 45.0866 19.9275 49.1913 24.9729 49.1913ZM24.9729 32.8288C28.95 32.8288 32.1855 36.0643 32.1855 40.0413C32.1855 44.0184 28.95 47.2539 24.9729 47.2539C20.9958 47.2539 17.7603 44.0184 17.7603 40.0413C17.7603 36.0643 20.9959 32.8288 24.9729 32.8288Z" fill="#FD7E14"/>
</svg>
