<svg width="64" height="64" viewBox="0 0 64 64" fill="none" xmlns="http://www.w3.org/2000/svg">
<path d="M51.2928 2.29285L48.5857 5H45C44.7348 5.00001 44.4804 5.10537 44.2929 5.29291C44.1054 5.48044 44 5.73479 44 6V9.58569L40.5857 13H37C36.7348 13 36.4804 13.1054 36.2929 13.2929C36.1054 13.4804 36 13.7348 36 14V17.5857L32.5857 21H29C28.7348 21 28.4804 21.1054 28.2929 21.2929C28.1054 21.4804 28 21.7348 28 22V25.5857L23.5858 30H20.1668C20.4433 28.3464 21.0645 26.7695 21.9901 25.3716C22.9156 23.9737 24.1248 22.7861 25.5392 21.8859L24.4608 20.2015C21.9095 21.8323 19.9555 24.2462 18.892 27.0812C17.8285 29.9163 17.7127 33.0198 18.5621 35.9262C19.4115 38.8326 21.1801 41.3853 23.6029 43.2016C26.0257 45.0179 28.972 45.9997 32 46H44.8441C41.3387 49.2143 36.756 50.9983 32 51C21.5233 51 13 42.4767 13 32H11C10.9995 33.6848 11.2019 35.3636 11.6031 37H4V27H12C12.1978 27 12.3911 26.9413 12.5555 26.8315C12.72 26.7216 12.8481 26.5654 12.9238 26.3827L14.5391 22.4832C14.6148 22.3004 14.6346 22.0994 14.596 21.9054C14.5575 21.7114 14.4622 21.5332 14.3224 21.3933L8.66541 15.7366L15.7366 8.66541L21.3933 14.3224C21.5332 14.4623 21.7114 14.5575 21.9054 14.5961C22.0994 14.6347 22.3004 14.6148 22.4832 14.5391L26.3827 12.9238C26.5654 12.8481 26.7216 12.72 26.8315 12.5555C26.9413 12.3911 27 12.1978 27 12V4H37V10H39V3C39 2.73479 38.8946 2.48044 38.7071 2.29291C38.5196 2.10537 38.2652 2.00001 38 2H26C25.7348 2.00001 25.4804 2.10537 25.2929 2.29291C25.1054 2.48044 25 2.73479 25 3V11.3318L22.3351 12.4357L16.4437 6.54407C16.2562 6.35656 16.0018 6.25122 15.7366 6.25122C15.4714 6.25122 15.217 6.35656 15.0294 6.54407L6.54407 15.0294C6.35656 15.217 6.25122 15.4714 6.25122 15.7366C6.25122 16.0018 6.35656 16.2562 6.54407 16.4437L12.4357 22.3351L11.3318 25H3C2.73479 25 2.48044 25.1054 2.29291 25.2929C2.10537 25.4804 2.00001 25.7348 2 26V38C2.00001 38.2652 2.10537 38.5196 2.29291 38.7071C2.48044 38.8946 2.73479 39 3 39H11.3318L12.4357 41.6649L6.54407 47.5563C6.35656 47.7438 6.25122 47.9982 6.25122 48.2634C6.25122 48.5286 6.35656 48.783 6.54407 48.9706L15.0294 57.4559C15.217 57.6434 15.4714 57.7488 15.7366 57.7488C16.0018 57.7488 16.2562 57.6434 16.4437 57.4559L22.3351 51.5643L25 52.6682V61C25 61.2652 25.1054 61.5196 25.2929 61.7071C25.4804 61.8946 25.7348 62 26 62H38C38.2652 62 38.5196 61.8946 38.7071 61.7071C38.8946 61.5196 39 61.2652 39 61V52.6682L41.6649 51.5643L47.5563 57.4559C47.7438 57.6434 47.9982 57.7488 48.2634 57.7488C48.5286 57.7488 48.783 57.6434 48.9706 57.4559L57.4559 48.9706C57.6435 48.783 57.7488 48.5286 57.7488 48.2634C57.7488 47.9982 57.6434 47.7438 57.4558 47.5563L55.8995 46H61C61.2652 46 61.5196 45.8946 61.7071 45.7071C61.8946 45.5196 62 45.2652 62 45V11C62 10.7348 61.8946 10.4804 61.7071 10.2929C61.5196 10.1054 61.2652 10 61 10H53C52.7348 10 52.4804 10.1054 52.2929 10.2929C52.1054 10.4804 52 10.7348 52 11V18H45C44.7348 18 44.4804 18.1054 44.2929 18.2929C44.1054 18.4804 44 18.7348 44 19V24H37C36.7348 24 36.4804 24.1054 36.2929 24.2929C36.1054 24.4804 36 24.7348 36 25V31H29C28.7348 31 28.4804 31.1054 28.2929 31.2929C28.1054 31.4804 28 31.7348 28 32V36H20.6864C20.2311 34.7156 19.999 33.3627 20 32H24C24.2652 32 24.5196 31.8947 24.7072 31.7072L29.4143 27H33C33.2652 27 33.5196 26.8946 33.7071 26.7071C33.8946 26.5196 34 26.2652 34 26V22.4143L37.4143 19H41C41.2652 19 41.5196 18.8946 41.7071 18.7071C41.8946 18.5196 42 18.2652 42 18V14.4143L45.4143 11H49C49.2652 11 49.5196 10.8946 49.7071 10.7071C49.8946 10.5196 50 10.2652 50 10V6.41431L52.4142 4H62V2H52C51.7348 2.00001 51.4804 2.10534 51.2928 2.29285ZM15.7366 55.3346L8.66541 48.2634L14.0459 42.8832C15.8042 45.7712 18.2288 48.1958 21.1168 49.9541L15.7366 55.3346ZM27 60V52.3969C30.2848 53.2017 33.7155 53.201 37 52.3951V60H27ZM55.3346 48.2634L48.2634 55.3346L42.8844 49.9554C44.6599 48.8797 46.2662 47.5467 47.6508 46H53.071L55.3346 48.2634ZM54 12H60V44H54V12ZM46 20H52V44H46V20ZM38 26H44V44H38V26ZM30 33H36V44H32C31.3298 44 30.6608 43.9439 30 43.8324V33ZM28 38V43.3136C25.3083 42.3549 23.0442 40.4719 21.6109 38H28ZM32 25H30V23H32V25ZM40 17H38V15H40V17ZM48 9H46V7H48V9Z" fill="#FFA858"/>
</svg>
