<svg width="64" height="64" viewBox="0 0 64 64" fill="none" xmlns="http://www.w3.org/2000/svg">
<g clip-path="url(#clip0_117_633)">
<path d="M15.687 34.1178C15.8724 33.7847 15.8464 33.382 15.6195 33.0723L9.56458 24.808C9.36407 24.5344 9.03374 24.3711 8.68121 24.3711C8.32805 24.3711 7.99804 24.5344 7.79768 24.808L1.74313 33.0723C1.40598 33.5323 1.52851 34.1627 2.0164 34.4805C2.50445 34.7979 3.17351 34.6829 3.51018 34.2228L8.68137 27.1646L12.6897 32.6354H10.8743C10.2815 32.6354 9.80076 33.0887 9.80076 33.6475V53.0158H7.56182V33.6475C7.56182 33.0887 7.08091 32.6354 6.48809 32.6354C5.89511 32.6354 5.41435 33.0887 5.41435 33.6475V54.0278C5.41435 54.5868 5.89511 55.0401 6.48809 55.0401H10.8742C11.467 55.0401 11.9479 54.5868 11.9479 54.0278V34.6599H14.7361C15.135 34.6599 15.5015 34.451 15.687 34.1178Z" fill="#FD7E14"/>
<path d="M10.8739 57.2808H6.4878C5.89482 57.2808 5.41406 57.734 5.41406 58.2928V62.7893C5.41406 63.3483 5.89482 63.8014 6.4878 63.8014H10.8739C11.4667 63.8014 11.9476 63.3483 11.9476 62.7893V58.2928C11.9478 57.734 11.4669 57.2808 10.8739 57.2808ZM9.80031 61.7771H7.5617V59.3051H9.80031V61.7771Z" fill="#FD7E14"/>
<path d="M63.3618 25.7444L57.3071 17.4799C57.1066 17.2063 56.7766 17.043 56.4237 17.043C56.071 17.043 55.7404 17.2063 55.5402 17.4799L49.4853 25.7444C49.1482 26.2045 49.2707 26.8349 49.7586 27.1527C50.2466 27.4698 50.9157 27.355 51.2524 26.895L56.4239 19.8365L60.4318 25.3075H58.617C58.024 25.3075 57.5431 25.7607 57.5431 26.3197V36.7225H55.3045V26.3197C55.3045 25.7607 54.8237 25.3075 54.2309 25.3075C53.6379 25.3075 53.1572 25.7607 53.1572 26.3197V37.7346C53.1572 38.2935 53.6379 38.7468 54.2309 38.7468H58.6172C59.21 38.7468 59.6907 38.2935 59.6907 37.7346V27.332H62.4786C62.8777 27.332 63.244 27.1233 63.4295 26.7899C63.6146 26.4567 63.5886 26.0543 63.3618 25.7444Z" fill="#FD7E14"/>
<path d="M25.823 16.1759C26.3109 16.4932 26.98 16.3783 27.3168 15.9183L32.4881 8.85996L36.4965 14.3307H34.6813C34.0884 14.3307 33.6075 14.784 33.6075 15.3428V26.3243H31.3689V15.3428C31.3689 14.784 30.8881 14.3307 30.2952 14.3307C29.7023 14.3307 29.2216 14.784 29.2216 15.3428V27.3365C29.2216 27.8955 29.7023 28.3487 30.2952 28.3487H34.6814C35.2742 28.3487 35.7552 27.8955 35.7552 27.3365V16.3552H38.5432C38.9423 16.3552 39.3088 16.1466 39.4942 15.8132C39.6797 15.4799 39.6535 15.0775 39.4267 14.7677L33.3718 6.50346C33.1713 6.22972 32.8408 6.06641 32.4883 6.06641C32.1358 6.06641 31.8051 6.22972 31.6048 6.50346L25.5499 14.7677C25.2126 15.2279 25.3351 15.8583 25.823 16.1759Z" fill="#FD7E14"/>
<path d="M58.6182 40.9873H54.2319C53.639 40.9873 53.1582 41.4405 53.1582 41.9993V46.4958C53.1582 47.0548 53.639 47.508 54.2319 47.508H58.6182C59.211 47.508 59.6918 47.0548 59.6918 46.4958V41.9993C59.6918 41.4405 59.211 40.9873 58.6182 40.9873ZM57.5441 45.4837H55.3055V43.0116H57.5441V45.4837Z" fill="#FD7E14"/>
<path d="M58.6182 49.749H54.2319C53.639 49.749 53.1582 50.2022 53.1582 50.761C53.1582 51.32 53.639 51.7734 54.2319 51.7734H58.6182C59.211 51.7734 59.6918 51.32 59.6918 50.761C59.6918 50.2022 59.211 49.749 58.6182 49.749Z" fill="#FD7E14"/>
<path d="M50.1993 43.3506C46.7904 41.6719 43.8271 38.3613 43.7933 38.3232C38.8198 32.7907 33.3085 32.8564 32.4866 32.8987C31.6647 32.8555 26.1518 32.7921 21.1749 38.3285C21.1635 38.3413 20.0272 39.6172 18.3426 40.9911C17.8941 41.3569 17.8452 41.9961 18.2333 42.4188C18.6209 42.8411 19.2984 42.8883 19.7477 42.5219C21.5625 41.0421 22.7722 39.6835 22.818 39.6318C27.3373 34.6046 32.1946 34.9081 32.3901 34.9211C32.4547 34.9268 32.5189 34.9268 32.5836 34.9211C32.6332 34.9182 37.5934 34.5578 42.1505 39.6265C42.2628 39.7535 44.5691 42.3344 47.6093 44.2477C44.5694 46.1613 42.2634 48.7414 42.1553 48.8638C37.6361 53.8911 32.7808 53.5892 32.5834 53.5745C32.5186 53.5688 32.4546 53.5688 32.3897 53.5745C32.3403 53.5766 27.3796 53.9378 22.823 48.8691C22.6917 48.7208 19.5631 45.2198 15.7685 43.3509C15.2429 43.0915 14.5941 43.2837 14.3196 43.779C14.0449 44.2742 14.2484 44.8859 14.7737 45.1448C18.1826 46.824 21.1459 50.1344 21.1799 50.1724C25.6978 55.1984 30.6607 55.605 32.1469 55.605C32.2967 55.605 32.4111 55.6008 32.4864 55.5968C33.3107 55.6405 38.8212 55.7036 43.7981 50.1668C43.8276 50.1338 46.7798 46.8292 50.1995 45.1447C50.5539 44.9702 50.776 44.6244 50.776 44.2476C50.7758 43.8706 50.5534 43.5251 50.1993 43.3506Z" fill="#FD7E14"/>
<path d="M27.7518 40.0517C27.259 39.7404 26.5925 39.8657 26.2625 40.3305C25.4392 41.4912 25.0039 42.8457 25.0039 44.2475C25.0039 48.138 28.3613 51.3032 32.4882 51.3032C36.6151 51.3032 39.9728 48.138 39.9728 44.2475C39.9728 40.3572 36.6151 37.1924 32.4882 37.1924C31.6083 37.1924 30.7467 37.3351 29.9273 37.6164C29.37 37.8078 29.0831 38.3888 29.2859 38.9142C29.4889 39.4395 30.1049 39.7097 30.6625 39.5189C31.2457 39.3185 31.86 39.2169 32.4884 39.2169C35.4312 39.2169 37.8255 41.4737 37.8255 44.2475C37.8255 47.0218 35.4314 49.2788 32.4884 49.2788C29.5458 49.2788 27.1515 47.022 27.1515 44.2475C27.1515 43.2476 27.4614 42.2824 28.0476 41.4555C28.3773 40.9911 28.2449 40.3625 27.7518 40.0517Z" fill="#FD7E14"/>
<path d="M33.5614 44.6856V43.9108C33.5614 43.3518 33.0805 42.8984 32.4876 42.8984C31.8948 42.8984 31.4141 43.3518 31.4141 43.9108V44.6856C31.4141 45.2446 31.8948 45.6978 32.4876 45.6978C33.0805 45.6978 33.5614 45.2446 33.5614 44.6856Z" fill="#FD7E14"/>
</g>
<defs>
<clipPath id="clip0_117_633">
<rect width="64" height="64" fill="white"/>
</clipPath>
</defs>
</svg>
