<svg width="64" height="64" viewBox="0 0 64 64" fill="none" xmlns="http://www.w3.org/2000/svg">
<path d="M5.17693 56.4706L7.52987 58.8235C7.81222 59.1059 8.28281 59.2 8.65928 59.0118L11.9534 57.4118C12.424 57.6941 12.9887 57.8824 13.4593 58.0706L14.5887 61.5529C14.6828 61.9294 15.0593 62.2118 15.4358 62.2118H18.824C19.2005 62.2118 19.5769 61.9294 19.671 61.5529L20.424 59.2L20.9887 60.8C20.9887 60.8941 21.0828 60.9882 21.1769 61.0824C21.8358 61.8353 22.7769 62.2118 23.8122 62.2118H58.3534C60.424 62.2118 62.024 60.5176 62.024 58.5412C62.024 58.3529 62.024 16.2824 62.024 16.0941C62.024 15.8118 61.8358 15.5294 61.6475 15.3412C48.0005 1.50588 48.6593 1.88235 48.0005 1.88235H23.9063C21.8358 1.88235 20.2358 3.57647 20.2358 5.55294V33.7882L19.7652 32.1882C19.671 31.8118 19.2946 31.5294 18.9181 31.5294H15.5299C15.0593 31.5294 14.7769 31.8118 14.5887 32.1882L13.4593 35.6706C12.8946 35.8588 12.424 36.0471 11.8593 36.3294L8.65928 34.7294C8.28281 34.4471 7.81222 34.5412 7.52987 34.8235L5.17693 37.1765C4.89458 37.4588 4.80046 37.9294 4.9887 38.3059L6.5887 41.6C6.30634 42.1647 6.11811 42.6353 5.92987 43.2L2.54164 44.2353C2.16517 44.4235 1.88281 44.8 1.88281 45.1765V48.5647C1.88281 48.9412 2.16517 49.3176 2.54164 49.4118L6.02399 50.5412C6.21222 51.1059 6.40046 51.5765 6.68281 52.1412L5.08281 55.3412C4.80046 55.7176 4.89458 56.1882 5.17693 56.4706ZM48.9416 5.08235L58.9181 15.0588H51.2005C49.9769 15.0588 49.0358 14.1176 49.0358 12.8941V5.08235H48.9416ZM22.1181 5.55294C22.1181 4.51764 22.9652 3.7647 23.9063 3.7647H47.0593V12.8941C47.0593 15.0588 48.9416 16.9412 51.1063 16.9412H60.2358V58.4471C60.2358 59.4823 59.3887 60.2353 58.4475 60.2353H23.9063C23.4358 60.2353 23.0593 60.0471 22.7769 59.8588L21.9299 57.6C22.1181 57.5059 22.3063 57.5059 22.4005 57.4118L25.6005 59.0118C25.9769 59.2 26.4475 59.1059 26.7299 58.8235L29.1769 56.4706C29.4593 56.1882 29.5534 55.7176 29.3652 55.3412L27.7652 52.0471C28.0475 51.5765 28.2358 51.0118 28.424 50.4471L31.9063 49.3176C32.2828 49.2235 32.5652 48.8471 32.5652 48.4706V45.1765C32.5652 44.8 32.2828 44.4235 31.9063 44.3294L28.424 43.2C28.2358 42.6353 28.0475 42.1647 27.7652 41.6941L29.3652 38.4941C29.5534 38.1176 29.4593 37.7412 29.1769 37.3647L26.7299 34.8235C26.4475 34.5412 25.9769 34.4471 25.6005 34.6353L22.4005 36.2353C22.3063 36.2353 22.2122 36.1412 22.1181 36.1412V5.55294ZM3.76517 47.8118V45.8353L7.05928 44.7059C7.34164 44.6118 7.62399 44.3294 7.62399 44.0471C7.81222 43.3882 8.09458 42.6353 8.47105 41.9765C8.65928 41.6941 8.65928 41.4118 8.47105 41.1294L6.96517 38.0235L8.37693 36.6118L11.4828 38.2118C11.7652 38.4 12.1416 38.3059 12.424 38.2118C13.0828 37.8353 13.7416 37.5529 14.4946 37.3647C14.7769 37.2706 15.0593 37.0823 15.1534 36.8L16.2828 33.5059H18.2593L19.2946 36.8C19.3887 37.0823 19.671 37.3647 19.9534 37.3647C20.7063 37.5529 21.3652 37.8353 22.024 38.2118C22.3063 38.4 22.5887 38.4 22.871 38.2118L25.9769 36.7059L27.3887 38.1176L25.8828 41.2235C25.7887 41.5059 25.7887 41.7882 25.8828 42.0706C26.2593 42.7294 26.5416 43.3882 26.7299 44.1412C26.824 44.4235 27.0122 44.7059 27.2946 44.8L30.5887 45.9294V47.9059L27.2946 48.9412C27.0122 49.0353 26.7299 49.3176 26.7299 49.6C26.5416 50.3529 26.2593 51.0118 25.8828 51.6706C25.6946 51.9529 25.6946 52.2353 25.8828 52.5176L27.3887 55.6235L25.9769 57.0353L22.871 55.5294C22.5887 55.4353 22.3063 55.4353 22.024 55.5294C21.3652 55.9059 20.7063 56.1882 19.9534 56.3765C19.671 56.4706 19.3887 56.6588 19.2946 56.9412L18.1652 60.2353H16.1887L15.0593 56.9412C14.9652 56.6588 14.6828 56.3765 14.4005 56.2823C13.7416 56.0941 12.9887 55.8118 12.3299 55.4353C12.0475 55.2471 11.7652 55.2471 11.4828 55.4353L8.37693 56.9412L6.96517 55.5294L8.47105 52.4235C8.56517 52.1412 8.56517 51.7647 8.47105 51.5765C8.09458 50.9176 7.81222 50.2588 7.62399 49.5059C7.52987 49.2235 7.34164 49.0353 7.05928 48.9412L3.76517 47.8118Z" fill="#2E63D8"/>
<path d="M17.1302 52.7057C20.3302 52.7057 22.9655 50.0705 22.9655 46.8705C22.9655 43.6705 20.3302 41.0352 17.1302 41.0352C13.9302 41.0352 11.2949 43.6705 11.2949 46.8705C11.2949 50.0705 13.9302 52.7057 17.1302 52.7057ZM17.1302 42.9175C19.2949 42.9175 21.0832 44.7057 21.0832 46.8705C21.0832 49.0352 19.2949 50.8234 17.1302 50.8234C14.9655 50.8234 13.1773 49.0352 13.1773 46.8705C13.1773 44.6116 14.9655 42.9175 17.1302 42.9175Z" fill="#2E63D8"/>
<path d="M55.718 34.9176H32.8474C32.2827 34.9176 31.9062 35.2941 31.9062 35.8588C31.9062 36.4235 32.2827 36.8 32.8474 36.8H55.718C56.2827 36.8 56.6592 36.4235 56.6592 35.8588C56.6592 35.2941 56.1886 34.9176 55.718 34.9176Z" fill="#2E63D8"/>
<path d="M43.4818 15.0586H34.0701C33.5054 15.0586 33.1289 15.4351 33.1289 15.9998C33.1289 16.5645 33.5054 16.9409 34.0701 16.9409H43.4818C44.0466 16.9409 44.423 16.5645 44.423 15.9998C44.423 15.4351 43.9524 15.0586 43.4818 15.0586Z" fill="#2E63D8"/>
<path d="M26.6365 16.9409H29.5541C30.1188 16.9409 30.4953 16.5645 30.4953 15.9998C30.4953 15.4351 30.1188 15.0586 29.5541 15.0586H26.6365C26.0718 15.0586 25.6953 15.4351 25.6953 15.9998C25.6953 16.5645 26.1659 16.9409 26.6365 16.9409Z" fill="#2E63D8"/>
<path d="M35.5779 43.3882H41.9779C42.5426 43.3882 42.9191 43.0117 42.9191 42.447C42.9191 41.8823 42.5426 41.5059 41.9779 41.5059H35.5779C35.0132 41.5059 34.6367 41.8823 34.6367 42.447C34.6367 43.0117 35.1073 43.3882 35.5779 43.3882Z" fill="#2E63D8"/>
<path d="M55.7174 41.5059H47.9998C47.4351 41.5059 47.0586 41.8823 47.0586 42.447C47.0586 43.0117 47.4351 43.3882 47.9998 43.3882H55.7174C56.2821 43.3882 56.6586 43.0117 56.6586 42.447C56.6586 41.8823 56.188 41.5059 55.7174 41.5059Z" fill="#2E63D8"/>
<path d="M43.2949 22.6824C43.2949 23.2471 43.6714 23.6236 44.2361 23.6236H55.7185C56.2832 23.6236 56.6596 23.2471 56.6596 22.6824C56.6596 22.1177 56.2832 21.7412 55.7185 21.7412H44.2361C43.6714 21.7412 43.2949 22.1177 43.2949 22.6824Z" fill="#2E63D8"/>
<path d="M26.6365 23.6236H39.3424C39.9071 23.6236 40.2835 23.2471 40.2835 22.6824C40.2835 22.1177 39.9071 21.7412 39.3424 21.7412H26.6365C26.0718 21.7412 25.6953 22.1177 25.6953 22.6824C25.6953 23.2471 26.1659 23.6236 26.6365 23.6236Z" fill="#2E63D8"/>
<path d="M35.5779 50.0708H48.2838C48.8485 50.0708 49.225 49.6944 49.225 49.1297C49.225 48.5649 48.8485 48.1885 48.2838 48.1885H35.5779C35.0132 48.1885 34.6367 48.5649 34.6367 49.1297C34.6367 49.6944 35.1073 50.0708 35.5779 50.0708Z" fill="#2E63D8"/>
<path d="M55.7177 48.1885H52.4236C51.8589 48.1885 51.4824 48.5649 51.4824 49.1297C51.4824 49.6944 51.8589 50.0708 52.4236 50.0708H55.7177C56.2824 50.0708 56.6589 49.6944 56.6589 49.1297C56.6589 48.5649 56.1883 48.1885 55.7177 48.1885Z" fill="#2E63D8"/>
<path d="M55.7178 28.3296H52.8943C52.3296 28.3296 51.9531 28.7061 51.9531 29.2708C51.9531 29.8355 52.3296 30.2119 52.8943 30.2119H55.7178C56.2825 30.2119 56.659 29.8355 56.659 29.2708C56.659 28.7061 56.1884 28.3296 55.7178 28.3296Z" fill="#2E63D8"/>
<path d="M36.8008 29.2708C36.8008 29.8355 37.1773 30.2119 37.742 30.2119H48.0008C48.5655 30.2119 48.942 29.8355 48.942 29.2708C48.942 28.7061 48.5655 28.3296 48.0008 28.3296H37.742C37.2714 28.3296 36.8008 28.7061 36.8008 29.2708Z" fill="#2E63D8"/>
<path d="M34.4479 29.2708C34.4479 28.7061 34.0714 28.3296 33.5067 28.3296H26.7302C26.1655 28.3296 25.7891 28.7061 25.7891 29.2708C25.7891 29.8355 26.1655 30.2119 26.7302 30.2119H33.5067C33.9773 30.2119 34.4479 29.7414 34.4479 29.2708Z" fill="#2E63D8"/>
<path d="M36.0474 54.7765H32.8474C32.2827 54.7765 31.9062 55.153 31.9062 55.7177C31.9062 56.2824 32.2827 56.6588 32.8474 56.6588H36.0474C36.6121 56.6588 36.9886 56.2824 36.9886 55.7177C36.9886 55.153 36.518 54.7765 36.0474 54.7765Z" fill="#2E63D8"/>
<path d="M55.7175 54.7764H43.4822C42.9175 54.7764 42.541 55.1528 42.541 55.7175C42.541 56.2822 42.9175 56.6587 43.4822 56.6587H55.7175C56.2822 56.6587 56.6587 56.2822 56.6587 55.7175C56.6587 55.1528 56.1881 54.7764 55.7175 54.7764Z" fill="#2E63D8"/>
<path d="M26.6365 10.3531H43.3894C43.9541 10.3531 44.3306 9.97659 44.3306 9.41188C44.3306 8.84717 43.9541 8.4707 43.3894 8.4707H26.6365C26.0718 8.4707 25.6953 8.84717 25.6953 9.41188C25.6953 9.97659 26.1659 10.3531 26.6365 10.3531Z" fill="#2E63D8"/>
<path d="M8.09501 1.88232C6.49501 1.88232 5.27148 3.10585 5.27148 4.61174V23.6235C5.27148 23.7176 5.27148 23.9059 5.3656 24L9.31854 31.8117C9.50678 32.0941 9.78913 32.3764 10.1656 32.3764C10.5421 32.3764 10.8244 32.1882 11.0127 31.8117C15.248 23.3411 15.0597 23.9059 15.0597 23.6235V4.61174C15.0597 3.10585 13.8362 1.88232 12.2362 1.88232H8.09501ZM10.1656 29.3647L7.71854 24.5647H12.5185L10.1656 29.3647ZM13.1774 22.6823H7.15384V9.31762H13.1774V22.6823ZM13.1774 4.61174V7.34115H7.15384V4.61174C7.15384 4.14115 7.53031 3.76468 8.09501 3.76468H12.2362C12.8009 3.76468 13.1774 4.14115 13.1774 4.61174Z" fill="#2E63D8"/>
</svg>
