<svg width="64" height="64" viewBox="0 0 64 64" fill="none" xmlns="http://www.w3.org/2000/svg">
<path d="M51.1997 61.9638H12.8966C10.0845 61.9638 7.95117 59.8305 7.95117 57.0183V13.382C7.95117 10.5699 10.0845 8.43652 12.8966 8.43652H21.7209C22.3027 8.43652 22.6906 8.8244 22.6906 9.40622C22.6906 9.98804 22.3027 10.3759 21.7209 10.3759H12.8966C11.2481 10.3759 9.89057 11.7335 9.89057 13.382V57.0183C9.89057 58.6668 11.2481 60.0244 12.8966 60.0244H51.1997C52.8481 60.0244 54.2057 58.6668 54.2057 57.0183V13.382C54.2057 11.7335 52.8481 10.3759 51.1997 10.3759H42.3754C41.7936 10.3759 41.4057 9.98804 41.4057 9.40622C41.4057 8.8244 41.7936 8.43652 42.3754 8.43652H51.1997C54.0118 8.43652 56.1451 10.5699 56.1451 13.382V57.0183C56.1451 59.8305 54.0118 61.9638 51.1997 61.9638Z" fill="#3BD2DC"/>
<path d="M42.2792 13.9637H21.7217C21.1398 13.9637 20.752 13.5758 20.752 12.994V9.40612C20.752 7.17582 22.4974 5.43036 24.7277 5.43036H24.9217V2.90915C24.9217 2.32733 25.3095 1.93945 25.8913 1.93945H38.2065C38.7883 1.93945 39.1762 2.32733 39.1762 2.90915V5.43036H39.2732C41.5035 5.43036 43.2489 7.17582 43.2489 9.40612V12.994C43.2489 13.5758 42.861 13.9637 42.2792 13.9637ZM22.6913 12.0243H41.3095V9.40612C41.3095 8.33945 40.3398 7.36976 39.2732 7.36976H38.1095C37.5277 7.36976 37.1398 6.98188 37.1398 6.40006C37.1398 6.20612 37.1398 6.10915 37.2368 6.01218V3.87885H26.861V6.40006C26.861 6.98188 26.4732 7.36976 25.8913 7.36976H24.7277C23.661 7.36976 22.6913 8.33945 22.6913 9.40612V12.0243Z" fill="#3BD2DC"/>
<path d="M19.1026 57.0184H14.739C14.1572 57.0184 13.7693 56.6305 13.7693 56.0487V47.0305C13.7693 46.4487 14.1572 46.0608 14.739 46.0608H19.1026C19.6844 46.0608 20.0723 46.4487 20.0723 47.0305V56.0487C20.0723 56.6305 19.6844 57.0184 19.1026 57.0184ZM15.7087 55.079H18.1329V48.0002H15.7087V55.079Z" fill="#3BD2DC"/>
<path d="M29.2845 57.0182H24.9209C24.3391 57.0182 23.9512 56.6304 23.9512 56.0486V43.1516C23.9512 42.5698 24.3391 42.1819 24.9209 42.1819H29.2845C29.8663 42.1819 30.2542 42.5698 30.2542 43.1516V56.0486C30.2542 56.6304 29.8663 57.0182 29.2845 57.0182ZM25.8906 55.0789H28.3148V44.1213H25.8906V55.0789Z" fill="#3BD2DC"/>
<path d="M49.2608 57.1152H44.8972C44.3154 57.1152 43.9275 56.7273 43.9275 56.1455V35.9758C43.9275 35.394 44.3154 35.0061 44.8972 35.0061H49.2608C49.8426 35.0061 50.2305 35.394 50.2305 35.9758V56.1455C50.2305 56.7273 49.8426 57.1152 49.2608 57.1152ZM45.8669 55.1758H48.2911V36.9455H45.8669V55.1758Z" fill="#3BD2DC"/>
<path d="M39.0792 57.0181H34.7155C34.1337 57.0181 33.7458 56.6302 33.7458 56.0484V39.9514C33.7458 39.3696 34.1337 38.9817 34.7155 38.9817H39.0792C39.661 38.9817 40.0489 39.3696 40.0489 39.9514V56.0484C40.0489 56.6302 39.661 57.0181 39.0792 57.0181ZM35.6852 55.0787H38.1095V40.9211H35.6852V55.0787Z" fill="#3BD2DC"/>
<path d="M27.1503 39.9518C25.5019 39.9518 24.1443 38.5942 24.1443 36.9458C24.1443 35.2973 25.5019 33.9397 27.1503 33.9397C28.7988 33.9397 30.1564 35.2973 30.1564 36.9458C30.1564 38.5942 28.7988 39.9518 27.1503 39.9518ZM27.1503 35.8791C26.5685 35.8791 26.0837 36.3639 26.0837 36.9458C26.0837 37.5276 26.5685 38.0124 27.1503 38.0124C27.7322 38.0124 28.217 37.5276 28.217 36.9458C28.217 36.3639 27.7322 35.8791 27.1503 35.8791Z" fill="#3BD2DC"/>
<path d="M16.9687 44.3151C15.3202 44.3151 13.9626 42.9575 13.9626 41.309C13.9626 39.6606 15.3202 38.303 16.9687 38.303C18.6172 38.303 19.9748 39.6606 19.9748 41.309C19.9748 42.9575 18.6172 44.3151 16.9687 44.3151ZM16.9687 40.2424C16.3869 40.2424 15.902 40.7272 15.902 41.309C15.902 41.8909 16.3869 42.3757 16.9687 42.3757C17.5505 42.3757 18.0354 41.8909 18.0354 41.309C18.0354 40.7272 17.5505 40.2424 16.9687 40.2424Z" fill="#3BD2DC"/>
<path d="M36.8476 36.2668C35.1991 36.2668 33.8416 34.9092 33.8416 33.2607C33.8416 31.6122 35.1991 30.2546 36.8476 30.2546C38.4961 30.2546 39.8537 31.6122 39.8537 33.2607C39.8537 34.9092 38.4961 36.2668 36.8476 36.2668ZM36.8476 32.194C36.2658 32.194 35.7809 32.6789 35.7809 33.2607C35.7809 33.8425 36.2658 34.3274 36.8476 34.3274C37.4294 34.3274 37.9143 33.8425 37.9143 33.2607C37.9143 32.6789 37.4294 32.194 36.8476 32.194Z" fill="#3BD2DC"/>
<path d="M47.0293 32.6789C45.3808 32.6789 44.0232 31.3213 44.0232 29.6728C44.0232 28.0243 45.3808 26.6667 47.0293 26.6667C48.6777 26.6667 50.0353 28.0243 50.0353 29.6728C50.0353 31.3213 48.6777 32.6789 47.0293 32.6789ZM47.0293 28.6061C46.4474 28.6061 45.9626 29.091 45.9626 29.6728C45.9626 30.2546 46.4474 30.7395 47.0293 30.7395C47.6111 30.7395 48.0959 30.2546 48.0959 29.6728C48.0959 29.091 47.6111 28.6061 47.0293 28.6061Z" fill="#3BD2DC"/>
<path d="M28.9938 37.2366C28.6059 37.2366 28.218 37.0426 28.1211 36.6547C27.9271 36.1699 28.218 35.5881 28.7029 35.3941L34.715 33.0669C35.1998 32.8729 35.7817 33.1638 35.9756 33.6487C36.1695 34.1335 35.8786 34.7153 35.3938 34.9093L29.3817 37.2366C29.1877 37.2366 29.0907 37.2366 28.9938 37.2366Z" fill="#3BD2DC"/>
<path d="M38.7867 33.5515C38.3989 33.5515 38.011 33.2606 37.914 32.8727C37.7201 32.3879 38.011 31.806 38.4958 31.6121L44.8958 29.3818C45.3807 29.1879 45.9625 29.4788 46.1564 29.9636C46.3504 30.4485 46.0595 31.0303 45.5746 31.2242L39.1746 33.4545C38.9807 33.5515 38.8837 33.5515 38.7867 33.5515Z" fill="#3BD2DC"/>
<path d="M18.9096 42.2787C18.6186 42.2787 18.2308 42.0847 18.0368 41.7938C17.7459 41.309 17.9399 40.7271 18.4247 40.4362L24.7277 36.8484C25.2126 36.5574 25.7944 36.7514 26.0853 37.2362C26.3762 37.7211 26.1823 38.3029 25.6974 38.5938L19.3944 42.1817C19.2005 42.2787 19.1035 42.2787 18.9096 42.2787Z" fill="#3BD2DC"/>
<path d="M20.9444 32.0001C16.5808 32.0001 13.0898 28.5092 13.0898 24.1456C13.0898 19.7819 16.5808 16.291 20.9444 16.291C25.308 16.291 28.7989 19.7819 28.7989 24.1456C28.7989 28.5092 25.308 32.0001 20.9444 32.0001ZM20.9444 18.2304C17.6474 18.2304 15.0292 20.8486 15.0292 24.1456C15.0292 27.4425 17.6474 30.0607 20.9444 30.0607C24.2414 30.0607 26.8595 27.4425 26.8595 24.1456C26.8595 20.8486 24.2414 18.2304 20.9444 18.2304Z" fill="#3BD2DC"/>
<path d="M25.6005 30.1578C25.3096 30.1578 25.1156 30.0608 24.9217 29.8669L20.2671 24.8245C20.0732 24.5336 19.9762 24.2427 20.0732 23.8548L22.1096 17.2608C22.3035 16.776 22.7883 16.4851 23.3702 16.5821C23.855 16.776 24.1459 17.2608 24.049 17.8427L22.2065 23.8548L26.4732 28.5093C26.8611 28.8972 26.7641 29.479 26.3762 29.8669C26.0853 30.0608 25.7944 30.1578 25.6005 30.1578Z" fill="#3BD2DC"/>
<path d="M49.0655 19.2001H35.0049C34.423 19.2001 34.0352 18.8123 34.0352 18.2304C34.0352 17.6486 34.423 17.2607 35.0049 17.2607H49.0655C49.6473 17.2607 50.0352 17.6486 50.0352 18.2304C50.0352 18.8123 49.6473 19.2001 49.0655 19.2001Z" fill="#3BD2DC"/>
<path d="M49.0655 24.3393H35.0049C34.423 24.3393 34.0352 23.9514 34.0352 23.3696C34.0352 22.7878 34.423 22.3999 35.0049 22.3999H49.0655C49.6473 22.3999 50.0352 22.7878 50.0352 23.3696C50.0352 23.9514 49.6473 24.3393 49.0655 24.3393Z" fill="#3BD2DC"/>
</svg>
