<svg width="64" height="64" viewBox="0 0 64 64" fill="none" xmlns="http://www.w3.org/2000/svg">
<path d="M54 61.9998C53.2 61.9998 52.5 61.6998 51.9 61.0998L39.9 49.0998C38.7 47.8998 38.7 45.9998 39.9 44.8998L44.1 40.6998C45.3 39.4998 47.2 39.4998 48.3 40.6998L60.3 52.6998C61.5 53.8998 61.5 55.7998 60.3 56.8998L56.1 61.0998C55.5 61.6998 54.8 61.9998 54 61.9998ZM46.2 41.6998C45.9 41.6998 45.7 41.7998 45.5 41.9998L41.3 46.1998C40.9 46.5998 40.9 47.1998 41.3 47.5998L53.3 59.5998C53.7 59.9998 54.3 59.9998 54.7 59.5998L58.9 55.3998C59.3 54.9998 59.3 54.3998 58.9 53.9998L46.9 41.9998C46.7 41.7998 46.5 41.6998 46.2 41.6998Z" fill="#ECDA39"/>
<path d="M33.9992 38L31.9992 39V23H42.6992L24.9992 4.5L7.29922 23H17.9992V39L15.9992 38V25H2.69922L24.9992 1.5L47.2992 25H33.9992V38Z" fill="#ECDA39"/>
<path d="M30.3004 8.6C36.2004 10.4 40.9004 15.3 42.4004 21.3L44.9004 23.9C44.0004 14.7 36.9004 7.3 27.9004 6L30.3004 8.6Z" fill="#ECDA39"/>
<path d="M39 25.8C39 33.5 32.7 39.8 25 39.8C17.3 39.8 11 33.5 11 25.8C11 25.2 11.1 24.6 11.1 24H9.1C9 24.6 9 25.2 9 25.8C9 34.6 16.2 41.8 25 41.8C33.8 41.8 41 34.6 41 25.8C41 25.2 41 24.6 40.9 24H38.9C38.9 24.6 39 25.2 39 25.8Z" fill="#ECDA39"/>
<path d="M41.1 37.6C43.6 34.2 45 30 45 25.8C45 25.2 45 24.6 44.9 24H42.9C43 24.6 43 25.2 43 25.8C43 30 41.6 33.9 39 37.1L38.4 37.8L42.7 42.1L41.3 43.5L37 39.2L36.3 39.8C33.1 42.4 29.2 43.8 25 43.8C15.1 43.8 7 35.7 7 25.8C7 25.2 7 24.6 7.1 24H5.1C5 24.6 5 25.2 5 25.8C5 36.8 14 45.8 25 45.8C29.3 45.8 33.4 44.4 36.9 41.9L41.3 46.3L45.5 42.1L41.1 37.6Z" fill="#ECDA39"/>
<path d="M7.59961 21.3C9.19961 15.2 13.7996 10.4 19.6996 8.6L22.0996 6C13.0996 7.3 5.99961 14.7 5.09961 23.9L7.59961 21.3Z" fill="#ECDA39"/>
<path d="M32 60H34V62H32V60Z" fill="#ECDA39"/>
<path d="M16 60H18V62H16V60Z" fill="#ECDA39"/>
<path d="M32 43H34V52H32V43Z" fill="#ECDA39"/>
<path d="M32 54H34V58H32V54Z" fill="#ECDA39"/>
<path d="M16 43H18V52H16V43Z" fill="#ECDA39"/>
<path d="M16 54H18V58H16V54Z" fill="#ECDA39"/>
</svg>
