<svg width="64" height="64" viewBox="0 0 64 64" fill="none" xmlns="http://www.w3.org/2000/svg">
<g clip-path="url(#clip0_50_271)">
<path d="M6.31277 41.6876C5.795 41.6876 5.37524 42.1074 5.37524 42.6251C5.37524 43.1429 5.795 43.5627 6.31277 43.5627H14.5005C15.0182 43.5627 15.438 43.1429 15.438 42.6251C15.438 42.1074 15.0182 41.6876 14.5005 41.6876H6.31277Z" fill="#0DCAF0"/>
<path d="M62.9481 48.5475L59.0006 44.6L59.0015 12.8781C59.0015 12.0165 58.3006 11.3155 57.439 11.3155L48.4151 11.3149C44.8624 7.9143 39.8706 5.91988 34.9061 5.93663C29.6866 5.93663 24.9363 7.98218 21.4132 11.313L12.6918 11.3121C12.1741 11.3121 11.7542 11.7318 11.7542 12.2495C11.7542 12.7674 12.1738 13.1871 12.6916 13.1872L19.6709 13.1879C19.153 13.8228 18.6742 14.4907 18.2376 15.1876L1.8758 15.1866V13.1868L8.31646 13.1872C8.83422 13.1872 9.25398 12.7676 9.25398 12.2497C9.25398 11.7318 8.83435 11.3121 8.31646 11.3121L1.56316 11.3118C0.701518 11.3118 0.000625016 12.0127 0.000625016 12.8743L0 47.8723C0 48.734 0.700893 49.4349 1.56254 49.4349L14.2664 49.4357C14.7841 49.4357 15.2039 49.0161 15.2039 48.4982C15.2039 47.9803 14.7843 47.5607 14.2664 47.5607L1.87505 47.5598L1.8758 17.0617L17.1994 17.0627C16.5972 18.3078 16.1235 19.626 15.7935 20.9995H6.37516C5.8574 20.9995 5.43764 21.4193 5.43764 21.937V29.4372C5.43764 29.955 5.8574 30.3747 6.37516 30.3747H15.8399C16.0605 31.2538 16.3404 32.1094 16.6752 32.9373H6.31266C5.7949 32.9373 5.37514 33.3571 5.37514 33.8748C5.37514 34.3926 5.7949 34.8124 6.31266 34.8124H17.5514C18.018 35.6869 18.5478 36.5227 19.1364 37.3124H6.31266C5.7949 37.3124 5.37514 37.7322 5.37514 38.25C5.37514 38.7677 5.7949 39.1875 6.31266 39.1875H20.7237C24.3035 42.9206 29.338 45.2484 34.9063 45.2484C38.3443 45.2484 41.6721 44.3592 44.6029 42.6944L46.4774 44.569C46.8278 44.9194 47.2881 45.0946 47.7483 45.0946C48.1591 45.0946 48.5692 44.9541 48.9019 44.6751L51.7898 47.5632L18.6415 47.5608C18.1237 47.5608 17.704 47.9804 17.704 48.4983C17.704 49.0162 18.1236 49.4359 18.6415 49.4359L22.7323 49.4361L21.9103 52.4349L20.2893 52.4346C17.9587 52.4346 16.0628 54.3305 16.0628 56.6609V57.1219C16.0628 57.6397 16.4824 58.0595 17.0002 58.0595L42.0004 58.0631H42.0006C42.2492 58.0631 42.4876 57.9643 42.6635 57.7886C42.8393 57.6127 42.9381 57.3743 42.9381 57.1256V56.6645C42.9381 54.3341 41.0422 52.4382 38.7117 52.4382L37.0908 52.4378L36.2682 49.437L53.6651 49.4382L57.8612 53.6345C58.5407 54.3139 59.444 54.688 60.4047 54.688C61.3654 54.688 62.2687 54.3139 62.9482 53.6345C64.3506 52.2319 64.3506 49.95 62.9481 48.5475ZM41.0143 56.1879L17.9862 56.1845C18.2071 55.1156 19.1556 54.3096 20.2889 54.3096L38.7114 54.3132C39.8448 54.3132 40.7934 55.1191 41.0143 56.1879ZM35.1463 52.4376L23.8544 52.4353L24.6765 49.4362L34.3237 49.437L35.1463 52.4376ZM57.1264 15.1902L51.5834 15.1899C51.1499 14.4957 50.6734 13.8275 50.1549 13.1901L57.1264 13.1906V15.1902ZM7.31269 28.4998V22.8747H15.4391C15.3156 23.7635 15.2504 24.6705 15.2504 25.5926C15.2504 26.5803 15.3244 27.5509 15.4658 28.4998H7.31269ZM17.1254 25.5926C17.1254 15.7883 25.1019 7.8118 34.9063 7.8118C43.7312 7.8118 51.1199 14.13 52.4747 22.8351C52.5543 23.3467 53.0337 23.6973 53.5452 23.6172C54.0569 23.5376 54.4071 23.0583 54.3274 22.5467C54.0297 20.6344 53.4486 18.7887 52.6172 17.065L57.1263 17.0654L57.1257 42.7252L53.989 39.5884C54.2605 39.2654 54.4091 38.8616 54.4091 38.4347C54.4091 37.9547 54.2221 37.5033 53.8827 37.1638L52.0089 35.29C53.426 32.7957 54.2865 30.0039 54.506 27.0885C54.5449 26.5723 54.1579 26.1221 53.6415 26.0833C53.1254 26.0454 52.6752 26.4314 52.6362 26.9478C51.9426 36.1584 44.1546 43.3733 34.9063 43.3733C25.1019 43.3735 17.1254 35.397 17.1254 25.5926ZM46.2244 41.6643C46.9492 41.1528 47.6436 40.5904 48.3015 39.9775C49.3064 39.0413 50.2013 38.0133 50.9789 36.9118L52.5018 38.4347L47.7483 43.1882L46.2244 41.6643ZM61.6223 52.3086C61.2971 52.6338 60.8645 52.8129 60.4047 52.8129C59.9448 52.8129 59.5123 52.6338 59.187 52.3086L50.2333 43.3548L52.6685 40.9195L61.6222 49.8732C62.2936 50.5448 62.2936 51.6372 61.6223 52.3086Z" fill="#0DCAF0"/>
<path d="M34.9063 9.68042C26.1323 9.68042 18.9941 16.8186 18.9941 25.5926C18.9941 30.6602 21.4421 35.4701 25.5422 38.4589C25.9606 38.764 26.5471 38.6719 26.8521 38.2535C27.1571 37.8351 27.0652 37.2486 26.6467 36.9436C23.0291 34.3064 20.8692 30.0629 20.8692 25.5924C20.8692 17.8524 27.1662 11.5553 34.9063 11.5553C42.6464 11.5553 48.9434 17.8524 48.9434 25.5924C48.9434 33.3325 42.6464 39.6296 34.9063 39.6296C33.3121 39.6296 31.7485 39.3647 30.2588 38.8423C29.77 38.6707 29.2352 38.9282 29.0639 39.4167C28.8925 39.9053 29.1498 40.4402 29.6383 40.6116C31.3278 41.2042 33.1001 41.5046 34.9063 41.5046C43.6803 41.5046 50.8184 34.3664 50.8184 25.5924C50.8184 16.8185 43.6804 9.68042 34.9063 9.68042Z" fill="#0DCAF0"/>
<path d="M35.3525 23.1709C35.8702 23.1709 36.29 22.7512 36.29 22.2334C36.29 21.7157 35.8702 21.2959 35.3525 21.2959H32.5215C32.0037 21.2959 31.584 21.7157 31.584 22.2334V28.952C31.584 29.4697 32.0037 29.8895 32.5215 29.8895H35.3525C35.8702 29.8895 36.29 29.4697 36.29 28.952C36.29 28.4342 35.8702 28.0144 35.3525 28.0144H33.459V26.5303H35.1437C35.6615 26.5303 36.0812 26.1105 36.0812 25.5928C36.0812 25.075 35.6615 24.6552 35.1437 24.6552H33.459V23.1709H35.3525Z" fill="#0DCAF0"/>
<path d="M26.3688 28.0453C25.7199 28.0453 25.0962 27.7847 24.7006 27.3482C24.353 26.9647 23.7601 26.9354 23.3763 27.283C22.9926 27.6307 22.9636 28.2236 23.3112 28.6073C24.0675 29.4417 25.1819 29.9204 26.3687 29.9204C27.8412 29.9204 29.0784 28.9773 29.3104 27.6781C29.4855 26.6968 29.0447 25.4166 27.2818 24.7665C26.7154 24.5602 25.7864 24.2215 25.4333 24.023C25.3345 23.9692 25.2918 23.8727 25.3059 23.7361C25.3255 23.5468 25.4665 23.3083 25.8038 23.2067C26.7108 22.9337 27.5602 23.6003 27.5869 23.6217C27.9833 23.95 28.5708 23.8976 28.9025 23.5027C29.2356 23.1064 29.1844 22.515 28.788 22.1818C28.7225 22.1268 27.1612 20.8394 25.2629 21.4113C24.2585 21.7138 23.5433 22.5505 23.4406 23.5431C23.3482 24.4363 23.768 25.2512 24.5364 25.6696C24.9226 25.8924 25.8085 26.2281 26.6328 26.5256C26.8482 26.605 27.5446 26.8992 27.4643 27.3485C27.4036 27.6911 26.9769 28.0453 26.3688 28.0453Z" fill="#0DCAF0"/>
<path d="M47.0305 25.5924C47.0305 23.2061 45.089 21.2646 42.7027 21.2646C40.3164 21.2646 38.375 23.2061 38.375 25.5924C38.375 27.9787 40.3164 29.9201 42.7027 29.9201C45.089 29.9201 47.0305 27.9787 47.0305 25.5924ZM40.25 25.5924C40.25 24.24 41.3503 23.1397 42.7027 23.1397C44.0551 23.1397 45.1554 24.24 45.1554 25.5924C45.1554 26.9448 44.0551 28.0451 42.7027 28.0451C41.3503 28.0451 40.25 26.9448 40.25 25.5924Z" fill="#0DCAF0"/>
</g>
<defs>
<clipPath id="clip0_50_271">
<rect width="64" height="64" fill="white"/>
</clipPath>
</defs>
</svg>
