<svg width="64" height="64" viewBox="0 0 64 64" fill="none" xmlns="http://www.w3.org/2000/svg">
<g clip-path="url(#clip0_117_652)">
<path d="M28.8005 36.8001C28.8005 37.3892 29.2781 37.8667 29.8672 37.8667C30.4563 37.8667 30.9339 37.3892 30.9339 36.8001C30.9339 33.2715 27.6699 30.3553 23.4672 29.9265V28.8001C23.4672 28.211 22.9896 27.7334 22.4005 27.7334C21.8114 27.7334 21.3339 28.211 21.3339 28.8001V29.9265C17.1312 30.3531 13.8672 33.2715 13.8672 36.8001C13.8672 40.3286 17.1312 43.2449 21.3339 43.6737V53.2609C18.312 52.879 16.0005 50.9067 16.0005 48.5334C16.0005 47.9443 15.523 47.4667 14.9339 47.4667C14.3448 47.4667 13.8672 47.9443 13.8672 48.5334C13.8672 52.0619 17.1312 54.9782 21.3339 55.407V56.5334C21.3339 57.1225 21.8114 57.6001 22.4005 57.6001C22.9896 57.6001 23.4672 57.1225 23.4672 56.5334V55.407C27.6699 54.9803 30.9339 52.0619 30.9339 48.5334C30.9339 45.0049 27.6699 42.0886 23.4672 41.6598V32.0726C26.4891 32.4545 28.8005 34.4267 28.8005 36.8001ZM16.0005 36.8001C16.0005 34.4267 18.312 32.4545 21.3339 32.0726V41.5275C18.312 41.1457 16.0005 39.1734 16.0005 36.8001ZM28.8005 48.5334C28.8005 50.9067 26.4891 52.879 23.4672 53.2609V43.8059C26.4891 44.1878 28.8005 46.1601 28.8005 48.5334Z" fill="#D63384"/>
<path d="M3.84008 32.1848C3.30576 31.9368 2.67158 32.1689 2.42354 32.7032C0.818125 36.1583 -0.00917159 39.9238 7.6692e-05 43.7336C7.6692e-05 57.1811 7.53608 64.0003 22.4001 64.0003C25.4035 64.0475 28.4002 63.7022 31.3142 62.9731C31.8836 62.8217 32.2224 62.2374 32.071 61.668C31.9196 61.0987 31.3353 60.7598 30.7659 60.9112C28.0298 61.587 25.2181 61.9082 22.4001 61.867C8.76274 61.867 2.13341 55.9352 2.13341 43.7336C2.11422 40.2325 2.87465 36.771 4.35954 33.6003C4.60666 33.066 4.37417 32.4325 3.84008 32.1848Z" fill="#D63384"/>
<path d="M60.7995 26.6665H37.3328C35.5655 26.6665 34.1328 28.0992 34.1328 29.8665V60.7998C34.1328 62.5672 35.5655 63.9998 37.3328 63.9998H60.7995C62.5668 63.9998 63.9995 62.5672 63.9995 60.7998V29.8665C63.9995 28.0992 62.5668 26.6665 60.7995 26.6665ZM61.8661 60.7998C61.8661 61.3889 61.3886 61.8665 60.7995 61.8665H37.3328C36.7437 61.8665 36.2661 61.3889 36.2661 60.7998V29.8665C36.2661 29.2774 36.7437 28.7998 37.3328 28.7998H60.7995C61.3886 28.7998 61.8661 29.2774 61.8661 29.8665V60.7998Z" fill="#D63384"/>
<path d="M41.6001 40.5333H56.5335C57.7117 40.5333 58.6668 39.5782 58.6668 38.4V34.1333C58.6668 32.9551 57.7117 32 56.5335 32H41.6001C40.4219 32 39.4668 32.9551 39.4668 34.1333V38.4C39.4668 39.5782 40.4219 40.5333 41.6001 40.5333ZM41.6001 34.1333H56.5335V38.4H41.6001V34.1333Z" fill="#D63384"/>
<path d="M43.7335 43.7334H40.5335C39.9444 43.7334 39.4668 44.211 39.4668 44.8001C39.4668 45.3892 39.9444 45.8667 40.5335 45.8667H43.7335C44.3226 45.8667 44.8001 45.3892 44.8001 44.8001C44.8001 44.211 44.3226 43.7334 43.7335 43.7334Z" fill="#D63384"/>
<path d="M43.7335 48H40.5335C39.9444 48 39.4668 48.4776 39.4668 49.0667C39.4668 49.6558 39.9444 50.1333 40.5335 50.1333H43.7335C44.3226 50.1333 44.8001 49.6558 44.8001 49.0667C44.8001 48.4776 44.3226 48 43.7335 48Z" fill="#D63384"/>
<path d="M43.7335 52.2666H40.5335C39.9444 52.2666 39.4668 52.7442 39.4668 53.3333C39.4668 53.9224 39.9444 54.3999 40.5335 54.3999H43.7335C44.3226 54.3999 44.8001 53.9224 44.8001 53.3333C44.8001 52.7442 44.3226 52.2666 43.7335 52.2666Z" fill="#D63384"/>
<path d="M43.7335 56.5332H40.5335C39.9444 56.5332 39.4668 57.0108 39.4668 57.5999C39.4668 58.189 39.9444 58.6665 40.5335 58.6665H43.7335C44.3226 58.6665 44.8001 58.189 44.8001 57.5999C44.8001 57.0108 44.3226 56.5332 43.7335 56.5332Z" fill="#D63384"/>
<path d="M51.2 43.7334H48C47.4109 43.7334 46.9333 44.211 46.9333 44.8001C46.9333 45.3892 47.4109 45.8667 48 45.8667H51.2C51.7891 45.8667 52.2667 45.3892 52.2667 44.8001C52.2667 44.211 51.7891 43.7334 51.2 43.7334Z" fill="#D63384"/>
<path d="M51.2 48H48C47.4109 48 46.9333 48.4776 46.9333 49.0667C46.9333 49.6558 47.4109 50.1333 48 50.1333H51.2C51.7891 50.1333 52.2667 49.6558 52.2667 49.0667C52.2667 48.4776 51.7891 48 51.2 48Z" fill="#D63384"/>
<path d="M51.2 52.2666H48C47.4109 52.2666 46.9333 52.7442 46.9333 53.3333C46.9333 53.9224 47.4109 54.3999 48 54.3999H51.2C51.7891 54.3999 52.2667 53.9224 52.2667 53.3333C52.2667 52.7442 51.7891 52.2666 51.2 52.2666Z" fill="#D63384"/>
<path d="M51.2 56.5332H48C47.4109 56.5332 46.9333 57.0108 46.9333 57.5999C46.9333 58.189 47.4109 58.6665 48 58.6665H51.2C51.7891 58.6665 52.2667 58.189 52.2667 57.5999C52.2667 57.0108 51.7891 56.5332 51.2 56.5332Z" fill="#D63384"/>
<path d="M58.6671 43.7334H55.4671C54.878 43.7334 54.4004 44.211 54.4004 44.8001C54.4004 45.3892 54.878 45.8667 55.4671 45.8667H58.6671C59.2562 45.8667 59.7337 45.3892 59.7337 44.8001C59.7337 44.211 59.2562 43.7334 58.6671 43.7334Z" fill="#D63384"/>
<path d="M58.6671 48H55.4671C54.878 48 54.4004 48.4776 54.4004 49.0667C54.4004 49.6558 54.878 50.1333 55.4671 50.1333H58.6671C59.2562 50.1333 59.7337 49.6558 59.7337 49.0667C59.7337 48.4776 59.2562 48 58.6671 48Z" fill="#D63384"/>
<path d="M58.6671 52.2666H55.4671C54.878 52.2666 54.4004 52.7442 54.4004 53.3333C54.4004 53.9224 54.878 54.3999 55.4671 54.3999H58.6671C59.2562 54.3999 59.7337 53.9224 59.7337 53.3333C59.7337 52.7442 59.2562 52.2666 58.6671 52.2666Z" fill="#D63384"/>
<path d="M58.6671 56.5332H55.4671C54.878 56.5332 54.4004 57.0108 54.4004 57.5999C54.4004 58.189 54.878 58.6665 55.4671 58.6665H58.6671C59.2562 58.6665 59.7337 58.189 59.7337 57.5999C59.7337 57.0108 59.2562 56.5332 58.6671 56.5332Z" fill="#D63384"/>
<path d="M6.74739 1.34726C3.93886 3.92006 8.87326 11.8561 11.781 16.0001H11.2007C10.2099 15.9965 9.25863 16.3889 8.55859 17.0902C7.86094 17.7932 7.46882 18.743 7.46739 19.7334C7.47198 21.0626 8.18512 22.2884 9.33832 22.9494C8.09324 24.2663 6.92032 25.6497 5.82472 27.0934C5.47126 27.5647 5.56677 28.2333 6.03806 28.5867C6.50934 28.9402 7.17793 28.8447 7.53139 28.3734C8.84894 26.6497 10.274 25.0109 11.7981 23.4667H33.6007C34.9345 23.4667 36.167 22.7552 36.8339 21.6001C37.5008 20.445 37.5008 19.0218 36.8339 17.8667C36.167 16.7116 34.9345 16.0001 33.6007 16.0001H33.0205C35.9271 11.8561 40.8615 3.92113 38.0551 1.34726C36.7645 0.165398 35.2605 1.02726 33.9346 1.7814C32.7289 2.6071 31.3251 3.09678 29.8674 3.20006C28.7102 3.19762 27.6071 2.7101 26.8263 1.85606C25.6591 0.669336 24.0642 0.000976562 22.3997 0.000976562C20.7351 0.000976562 19.1402 0.669336 17.973 1.85606C17.1909 2.71147 16.0856 3.19911 14.9266 3.20006C13.4697 3.09785 12.0666 2.60805 10.8626 1.7814C9.53779 1.02513 8.03486 0.166464 6.74739 1.34726ZM34.7346 18.6006C35.1935 19.0584 35.3309 19.7478 35.0825 20.3466C34.8341 20.9453 34.2489 21.335 33.6007 21.3334H11.2007C10.3171 21.3334 9.60072 20.6171 9.60072 19.7334C9.60072 18.8497 10.3171 18.1334 11.2007 18.1334H33.6007C34.0255 18.1335 34.433 18.3014 34.7346 18.6006ZM14.9266 5.3334C16.5918 5.33316 18.1872 4.66405 19.3543 3.47633C20.1334 2.62053 21.237 2.13274 22.3943 2.13274C23.5516 2.13274 24.6553 2.62053 25.4343 3.47633C26.6031 4.66496 28.2004 5.33411 29.8674 5.3334C31.6988 5.23717 33.4707 4.64989 34.997 3.63313C35.484 3.2894 36.0349 3.04675 36.6173 2.91953C37.7117 3.9222 34.8189 9.96913 30.3965 16.0001H27.7341V10.6667C27.7341 10.0776 27.2565 9.60006 26.6674 9.60006C26.0783 9.60006 25.6007 10.0776 25.6007 10.6667V16.0001H19.2007V10.6667C19.2007 10.0776 18.7232 9.60006 18.1341 9.60006C17.545 9.60006 17.0674 10.0776 17.0674 10.6667V16.0001H14.4093C9.98686 9.96913 7.09406 3.9222 8.20339 2.90353C8.77366 3.05585 9.31445 3.30245 9.80339 3.63313C11.3274 4.64975 13.0971 5.23708 14.9266 5.3334Z" fill="#D63384"/>
</g>
<defs>
<clipPath id="clip0_117_652">
<rect width="64" height="64" fill="white"/>
</clipPath>
</defs>
</svg>
