<svg width="64" height="64" viewBox="0 0 64 64" fill="none" xmlns="http://www.w3.org/2000/svg">
<path d="M44.9441 8.00366H27.3125C26.6222 8.00366 26.0625 8.56327 26.0625 9.25362C26.0625 9.94397 26.6222 10.5036 27.3125 10.5036H44.9441C45.6344 10.5036 46.1941 9.94397 46.1941 9.25362C46.1941 8.56327 45.6344 8.00366 44.9441 8.00366Z" fill="#5227FF"/>
<path d="M12.8066 8.00366C12.4778 8.00366 12.1554 8.13741 11.9229 8.36991C11.6904 8.60241 11.5566 8.92491 11.5566 9.25366C11.5566 9.58366 11.6903 9.90491 11.9229 10.1374C12.1554 10.3699 12.4778 10.5037 12.8066 10.5037C13.1354 10.5037 13.4579 10.3699 13.6903 10.1374C13.9228 9.90491 14.0566 9.58241 14.0566 9.25366C14.0566 8.92491 13.9229 8.60241 13.6903 8.36991C13.4579 8.13741 13.1354 8.00366 12.8066 8.00366Z" fill="#5227FF"/>
<path d="M6.73633 8.00366C6.40758 8.00366 6.08508 8.13741 5.8527 8.36991C5.6202 8.60241 5.48633 8.92491 5.48633 9.25366C5.48633 9.58241 5.62008 9.90491 5.8527 10.1374C6.08508 10.3699 6.40758 10.5037 6.73633 10.5037C7.06645 10.5037 7.38758 10.3699 7.62008 10.1374C7.85258 9.90491 7.98633 9.58241 7.98633 9.25366C7.98633 8.92491 7.8527 8.60241 7.62008 8.36991C7.38758 8.13741 7.06645 8.00366 6.73633 8.00366Z" fill="#5227FF"/>
<path d="M18.875 8.00366C18.5462 8.00366 18.2237 8.13741 17.9912 8.36991C17.7587 8.60241 17.625 8.92491 17.625 9.25366C17.625 9.58241 17.7586 9.90491 17.9912 10.1374C18.2237 10.3699 18.5462 10.5037 18.875 10.5037C19.2038 10.5037 19.5263 10.3699 19.7586 10.1374C19.9911 9.90491 20.125 9.58241 20.125 9.25366C20.125 8.92491 19.9913 8.60241 19.7586 8.36991C19.5263 8.13741 19.2038 8.00366 18.875 8.00366Z" fill="#5227FF"/>
<path d="M62.634 53.4433L54.3794 45.1889C55.406 43.1572 55.9854 40.8628 55.9854 38.4352C55.9854 36.1024 55.4509 33.8921 54.4982 31.9202V3.75386C54.4982 3.06351 53.9385 2.50391 53.2482 2.50391H1.24996C0.559731 2.50391 0 3.06351 0 3.75386V49.2524C0 49.9426 0.559731 50.5023 1.24996 50.5023H9.09157C9.7818 50.5023 10.3415 49.9426 10.3415 49.2524C10.3415 48.5621 9.7818 48.0024 9.09157 48.0024H2.49992V16.0035H51.9983V28.2526C49.251 25.2766 45.3196 23.4096 40.9596 23.4096C32.6745 23.4096 25.934 30.15 25.934 38.4352C25.934 42.0671 27.2293 45.402 29.3822 48.0025H20.3413C19.6511 48.0025 19.0914 48.5623 19.0914 49.2525C19.0914 49.9427 19.6511 50.5024 20.3413 50.5024H32.0171C34.5175 52.3603 37.6124 53.461 40.9596 53.461C43.3762 53.461 45.6609 52.8867 47.6857 51.8688L55.9471 60.1302C56.8582 61.0412 58.0562 61.4963 59.257 61.4963C60.4691 61.4963 61.6842 61.0327 62.6103 60.1067C64.454 58.2632 64.4645 55.274 62.634 53.4433ZM2.49992 13.5035V5.00382H51.9983V13.5035H2.49992ZM28.4339 38.4352C28.4339 31.5286 34.0529 25.9095 40.9596 25.9095C47.8664 25.9095 53.4855 31.5286 53.4855 38.4352C53.4855 45.342 47.8664 50.961 40.9596 50.961C34.0529 50.961 28.4339 45.342 28.4339 38.4352ZM60.8427 58.3389C59.974 59.2078 58.5708 59.2185 57.7151 58.3624L49.875 50.5224C51.0754 49.6347 52.1395 48.573 53.0295 47.3743L60.8662 55.211C61.7222 56.0669 61.7116 57.4701 60.8427 58.3389Z" fill="#5227FF"/>
<path d="M10.2496 41.7528H19.1833C21.5267 41.7528 23.4332 39.8463 23.4332 37.5029C23.4332 35.1595 21.5267 33.2531 19.1833 33.2531H10.2496C7.90619 33.2531 5.99976 35.1595 5.99976 37.5029C5.99976 39.8463 7.90619 41.7528 10.2496 41.7528ZM10.2496 35.753H19.1833C20.1483 35.753 20.9333 36.5379 20.9333 37.5029C20.9333 38.4679 20.1483 39.2529 19.1833 39.2529H10.2496C9.28465 39.2529 8.49967 38.4679 8.49967 37.5029C8.49967 36.5379 9.28465 35.753 10.2496 35.753Z" fill="#5227FF"/>
<path d="M8.12301 29.769H20.0417C20.732 29.769 21.2917 29.2094 21.2917 28.519C21.2917 27.8286 20.732 27.269 20.0417 27.269H8.12301C7.43278 27.269 6.87305 27.8286 6.87305 28.519C6.87305 29.2094 7.43278 29.769 8.12301 29.769Z" fill="#5227FF"/>
<path d="M8.12301 23.769H20.3421C21.0323 23.769 21.5921 23.2094 21.5921 22.519C21.5921 21.8286 21.0323 21.269 20.3421 21.269H8.12301C7.43278 21.269 6.87305 21.8286 6.87305 22.519C6.87305 23.2094 7.43278 23.769 8.12301 23.769Z" fill="#5227FF"/>
<path d="M30.208 23.769C30.8982 23.769 31.458 23.2094 31.458 22.519C31.458 21.8286 30.8982 21.269 30.208 21.269H26.373C25.6828 21.269 25.123 21.8286 25.123 22.519C25.123 23.2094 25.6828 23.769 26.373 23.769H30.208Z" fill="#5227FF"/>
<path d="M49.9856 38.4352C49.9856 37.7449 49.4259 37.1852 48.7357 37.1852H40.2457C39.7107 35.4499 38.0923 34.1853 36.1837 34.1853C33.8403 34.1853 31.9338 36.0917 31.9338 38.4352C31.9338 40.7786 33.8403 42.685 36.1837 42.685C38.0923 42.685 39.7107 41.4204 40.2457 39.6851H42.4859V40.7097C42.4859 41.3999 43.0456 41.9597 43.7358 41.9597C44.426 41.9597 44.9858 41.3999 44.9858 40.7097V39.6851H47.4857V40.1239C47.4857 40.8141 48.0454 41.3738 48.7357 41.3738C49.4259 41.3738 49.9856 40.8141 49.9856 40.1239V38.4352ZM36.1837 40.1851C35.2187 40.1851 34.4338 39.4001 34.4338 38.4352C34.4338 37.4702 35.2187 36.6852 36.1837 36.6852C37.1487 36.6852 37.9336 37.4702 37.9336 38.4352C37.9336 39.4001 37.1487 40.1851 36.1837 40.1851Z" fill="#5227FF"/>
<path d="M14.7148 48.0024C14.3861 48.0024 14.065 48.1361 13.8323 48.3687C13.5986 48.6011 13.4648 48.9236 13.4648 49.2524C13.4648 49.5812 13.5986 49.9037 13.8323 50.1361C14.0636 50.3686 14.3861 50.5024 14.7148 50.5024C15.045 50.5024 15.3675 50.3687 15.5998 50.1361C15.8323 49.9037 15.9662 49.5812 15.9662 49.2524C15.9662 48.9236 15.8325 48.6011 15.5998 48.3687C15.3661 48.1361 15.045 48.0024 14.7148 48.0024Z" fill="#5227FF"/>
</svg>
