<svg width="64" height="64" viewBox="0 0 64 64" fill="none" xmlns="http://www.w3.org/2000/svg">
<path d="M48.2596 36.9062H29.3713C28.8535 36.9062 28.4338 37.326 28.4338 37.8438C28.4338 38.3615 28.8535 38.7812 29.3713 38.7812H48.2596C48.7775 38.7812 49.1971 38.3615 49.1971 37.8438C49.1971 37.326 48.7775 36.9062 48.2596 36.9062ZM48.2596 51.0312H29.3713C28.8535 51.0312 28.4338 51.451 28.4338 51.9688C28.4338 52.4865 28.8535 52.9062 29.3713 52.9062H48.2596C48.7775 52.9062 49.1971 52.4865 49.1971 51.9688C49.1971 51.451 48.7775 51.0312 48.2596 51.0312ZM48.2596 47.2812H29.3713C28.8535 47.2812 28.4338 47.701 28.4338 48.2188C28.4338 48.7365 28.8535 49.1562 29.3713 49.1562H48.2596C48.7775 49.1562 49.1971 48.7365 49.1971 48.2188C49.1971 47.701 48.7775 47.2812 48.2596 47.2812ZM48.2596 33.1562H29.3713C28.8535 33.1562 28.4338 33.576 28.4338 34.0938C28.4338 34.6115 28.8535 35.0312 29.3713 35.0312H48.2596C48.7775 35.0312 49.1971 34.6115 49.1971 34.0938C49.1971 33.576 48.7775 33.1562 48.2596 33.1562ZM54.5458 36.5269C55.0637 36.5269 55.4833 36.1071 55.4833 35.5894V16.3415C55.4796 16.1515 55.4172 15.8771 55.2088 15.6786L39.8048 0.274625C39.649 0.1345 39.4517 0 39.1418 0H13.2051C10.6203 0 8.51758 2.10275 8.51758 4.6875V59.3125C8.51758 61.8973 10.6203 64 13.2051 64H50.796C53.3807 64 55.4835 61.8973 55.4835 59.3125V39.9644C55.4835 39.4466 55.0638 39.0269 54.546 39.0269C54.0281 39.0269 53.6085 39.4466 53.6085 39.9644V59.3125C53.6085 60.8634 52.3467 62.125 50.796 62.125H13.2051C11.6543 62.125 10.3926 60.8634 10.3926 59.3125V4.6875C10.3926 3.13663 11.6543 1.875 13.2051 1.875H38.2043V5.625H16.4967C15.2906 5.625 14.3092 6.60637 14.3092 7.8125V12.375C14.3092 13.5811 15.2906 14.5625 16.4967 14.5625H34.9537C35.4716 14.5625 35.8912 14.1427 35.8912 13.625C35.8912 13.1073 35.4716 12.6875 34.9537 12.6875H16.4967C16.3243 12.6875 16.1842 12.5472 16.1842 12.375V7.8125C16.1842 7.64025 16.3243 7.5 16.4967 7.5H38.2043V12.5915C38.2043 15.1763 40.3071 17.279 42.8918 17.279H53.6083V35.5894C53.6083 36.1071 54.0281 36.5269 54.5458 36.5269ZM42.8918 15.404C41.3411 15.404 40.0793 14.1424 40.0793 12.5915V3.20075L52.2826 15.4039L42.8918 15.404ZM22.8713 47.2812H16.1213C15.122 47.2812 14.3088 48.0944 14.3088 49.0938V55.8438C14.3088 56.8431 15.122 57.6562 16.1213 57.6562H22.8713C23.8707 57.6562 24.6838 56.8431 24.6838 55.8438V49.0938C24.6838 48.0944 23.8707 47.2812 22.8713 47.2812ZM22.8088 55.7812H16.1838V49.1562H22.8088V55.7812ZM24.6838 20.8438C24.6838 19.8444 23.8707 19.0312 22.8713 19.0312H16.1213C15.122 19.0312 14.3088 19.8444 14.3088 20.8438V27.5938C14.3088 28.5931 15.122 29.4062 16.1213 29.4062H22.8713C23.8707 29.4062 24.6838 28.5931 24.6838 27.5938V20.8438ZM22.8088 27.5312H16.1838V20.9062H22.8088V27.5312ZM48.2596 19.0312H29.3713C28.8535 19.0312 28.4338 19.451 28.4338 19.9688C28.4338 20.4865 28.8535 20.9062 29.3713 20.9062H48.2596C48.7775 20.9062 49.1971 20.4865 49.1971 19.9688C49.1971 19.451 48.7775 19.0312 48.2596 19.0312ZM48.2596 22.7812H29.3713C28.8535 22.7812 28.4338 23.201 28.4338 23.7188C28.4338 24.2365 28.8535 24.6562 29.3713 24.6562H48.2596C48.7775 24.6562 49.1971 24.2365 49.1971 23.7188C49.1971 23.201 48.7775 22.7812 48.2596 22.7812ZM24.6838 34.9688C24.6838 33.9694 23.8707 33.1562 22.8713 33.1562H16.1213C15.122 33.1562 14.3088 33.9694 14.3088 34.9688V41.7188C14.3088 42.7181 15.122 43.5312 16.1213 43.5312H22.8713C23.8707 43.5312 24.6838 42.7181 24.6838 41.7188V34.9688ZM22.8088 41.6562H16.1838V35.0312H22.8088V41.6562Z" fill="#AD00FF"/>
</svg>
