<svg width="64" height="64" viewBox="0 0 64 64" fill="none" xmlns="http://www.w3.org/2000/svg">
<path d="M27.78 22.15L31.07 30.37C31.1437 30.5565 31.2718 30.7166 31.4377 30.8294C31.6035 30.9422 31.7995 31.0025 32 31.0025C32.2006 31.0025 32.3965 30.9422 32.5624 30.8294C32.7282 30.7166 32.8563 30.5565 32.93 30.37L36.22 22.15C38.5693 21.1741 40.5077 19.414 41.7052 17.1696C42.9026 14.9251 43.2851 12.3349 42.7875 9.84014C42.29 7.34534 40.9431 5.10013 38.9761 3.48678C37.0092 1.87344 34.544 0.991699 32 0.991699C29.4561 0.991699 26.9908 1.87344 25.0239 3.48678C23.057 5.10013 21.7101 7.34534 21.2125 9.84014C20.7149 12.3349 21.0974 14.9251 22.2949 17.1696C23.4923 19.414 25.4307 21.1741 27.78 22.15ZM32 3.00003C34.1095 3.00589 36.1499 3.75256 37.7649 5.10964C39.3799 6.46672 40.4669 8.34798 40.8361 10.4249C41.2053 12.5018 40.8332 14.6425 39.7848 16.473C38.7363 18.3035 37.0783 19.7076 35.1 20.44C34.9698 20.488 34.8509 20.5626 34.7511 20.659C34.6512 20.7554 34.5725 20.8715 34.52 21L32 27.31L29.48 21C29.4275 20.8715 29.3488 20.7554 29.249 20.659C29.1491 20.5626 29.0303 20.488 28.9 20.44C26.9218 19.7076 25.2637 18.3035 24.2153 16.473C23.1669 14.6425 22.7948 12.5018 23.1639 10.4249C23.5331 8.34798 24.6201 6.46672 26.2351 5.10964C27.8501 3.75256 29.8905 3.00589 32 3.00003Z" fill="#D63384"/>
<path d="M25 43C25 44.3845 25.4105 45.7378 26.1797 46.889C26.9489 48.0401 28.0421 48.9373 29.3212 49.4672C30.6003 49.997 32.0078 50.1356 33.3656 49.8655C34.7235 49.5954 35.9708 48.9287 36.9497 47.9497C37.9287 46.9708 38.5954 45.7235 38.8655 44.3656C39.1356 43.0078 38.997 41.6003 38.4672 40.3212C37.9373 39.0421 37.0401 37.9489 35.889 37.1797C34.7378 36.4105 33.3845 36 32 36C30.1435 36 28.363 36.7375 27.0503 38.0503C25.7375 39.363 25 41.1435 25 43ZM37 43C37 44.3261 36.4732 45.5979 35.5355 46.5355C34.5979 47.4732 33.3261 48 32 48C30.6739 48 29.4021 47.4732 28.4645 46.5355C27.5268 45.5979 27 44.3261 27 43C27.0047 42.698 27.0348 42.3969 27.09 42.1C28.6255 41.3758 30.3023 41.0002 32 41.0002C33.6977 41.0002 35.3745 41.3758 36.91 42.1C36.9652 42.3969 36.9953 42.698 37 43ZM32 39C30.8116 38.9993 29.6283 39.154 28.48 39.46C29.4146 38.5439 30.6712 38.0307 31.98 38.0307C33.2888 38.0307 34.5454 38.5439 35.48 39.46C34.3447 39.1574 33.175 39.0028 32 39Z" fill="#D63384"/>
<path d="M14 33C12.6155 33 11.2622 33.4105 10.111 34.1797C8.95987 34.9489 8.06266 36.0421 7.53285 37.3212C7.00303 38.6003 6.86441 40.0078 7.13451 41.3656C7.4046 42.7235 8.07129 43.9708 9.05026 44.9497C10.0292 45.9287 11.2765 46.5954 12.6344 46.8655C13.9922 47.1356 15.3997 46.997 16.6788 46.4672C17.9579 45.9373 19.0511 45.0401 19.8203 43.889C20.5895 42.7378 21 41.3845 21 40C21 38.1435 20.2625 36.363 18.9497 35.0503C17.637 33.7375 15.8565 33 14 33ZM14 35C15.3201 35.0029 16.5854 35.5278 17.52 36.46C15.226 35.8538 12.814 35.8538 10.52 36.46C11.4448 35.5374 12.6938 35.0134 14 35ZM14 45C12.6739 45 11.4022 44.4732 10.4645 43.5355C9.52679 42.5979 9 41.3261 9 40C9.00469 39.698 9.03479 39.3969 9.09 39.1C10.6215 38.364 12.3009 37.9878 14 38C15.6991 37.9878 17.3785 38.364 18.91 39.1C18.9652 39.3969 18.9953 39.698 19 40C19 41.3261 18.4732 42.5979 17.5355 43.5355C16.5979 44.4732 15.3261 45 14 45Z" fill="#D63384"/>
<path d="M50 47C51.3845 47 52.7378 46.5895 53.889 45.8203C55.0401 45.0511 55.9373 43.9579 56.4672 42.6788C56.997 41.3997 57.1356 39.9922 56.8655 38.6344C56.5954 37.2765 55.9287 36.0292 54.9497 35.0503C53.9708 34.0713 52.7235 33.4046 51.3656 33.1345C50.0078 32.8644 48.6003 33.003 47.3212 33.5328C46.0421 34.0627 44.9489 34.9599 44.1797 36.111C43.4105 37.2622 43 38.6155 43 40C43 41.8565 43.7375 43.637 45.0503 44.9498C46.363 46.2625 48.1435 47 50 47ZM50 35C51.3201 35.0029 52.5854 35.5278 53.52 36.46C51.226 35.8538 48.814 35.8538 46.52 36.46C47.4448 35.5374 48.6938 35.0134 50 35ZM45.09 39.1C46.6255 38.3758 48.3023 38.0002 50 38.0002C51.6977 38.0002 53.3745 38.3758 54.91 39.1C54.9652 39.3969 54.9953 39.698 55 40C55 41.3261 54.4732 42.5979 53.5355 43.5355C52.5979 44.4732 51.3261 45 50 45C48.6739 45 47.4021 44.4732 46.4645 43.5355C45.5268 42.5979 45 41.3261 45 40C45.0047 39.698 45.0348 39.3969 45.09 39.1Z" fill="#D63384"/>
<path d="M52 48H48C46.5546 47.9951 45.1227 48.2772 43.7872 48.83C42.4517 49.3827 41.2392 50.1951 40.22 51.22C39.8643 51.5728 39.5304 51.9468 39.22 52.34C37.618 51.4674 35.8242 51.0069 34 51H30C28.1576 50.9982 26.3447 51.4626 24.73 52.35C23.711 50.9985 22.3921 49.9021 20.8771 49.1472C19.3622 48.3923 17.6926 47.9996 16 48H12C9.08262 48 6.28473 49.1589 4.22183 51.2218C2.15893 53.2847 1 56.0826 1 59C1 59.2652 1.10536 59.5196 1.29289 59.7071C1.48043 59.8946 1.73478 60 2 60H19.19C19.0658 60.6595 19.0022 61.3289 19 62C19 62.2652 19.1054 62.5196 19.2929 62.7071C19.4804 62.8946 19.7348 63 20 63H44C44.2652 63 44.5196 62.8946 44.7071 62.7071C44.8946 62.5196 45 62.2652 45 62C44.9978 61.3289 44.9342 60.6595 44.81 60H62C62.2652 60 62.5196 59.8946 62.7071 59.7071C62.8946 59.5196 63 59.2652 63 59C63 56.0826 61.8411 53.2847 59.7782 51.2218C57.7153 49.1589 54.9174 48 52 48ZM3.05 58C3.297 55.7903 4.3532 53.7503 6.01502 52.2731C7.67683 50.796 9.82661 49.9862 12.05 50H12.18L11.18 51.45C11.1009 51.5694 11.0483 51.7044 11.0259 51.8459C11.0035 51.9873 11.0117 52.132 11.05 52.27L12.67 58H3.05ZM14.05 55.36L13.14 52.17L14 50.8L14.91 52.17L14.05 55.36ZM19.76 58H15.33L17 52.27C17.0383 52.132 17.0465 51.9873 17.0241 51.8459C17.0017 51.7044 16.9491 51.5694 16.87 51.45L15.87 50H16C17.3636 50.0035 18.7085 50.3167 19.9333 50.9161C21.1581 51.5155 22.2306 52.3854 23.07 53.46C21.5985 54.6672 20.4593 56.2298 19.76 58ZM21.06 61C21.3059 58.8006 22.3535 56.769 24.0027 55.2932C25.6518 53.8175 27.7869 53.0011 30 53H30.13L29.13 54.45C29.0509 54.5694 28.9983 54.7044 28.9759 54.8459C28.9535 54.9873 28.9617 55.132 29 55.27L30.67 61H21.06ZM32 58.36L31.09 55.17L32 53.8L32.91 55.17L32 58.36ZM33.33 61L35 55.27C35.0383 55.132 35.0465 54.9873 35.0241 54.8459C35.0017 54.7044 34.9491 54.5694 34.87 54.45L33.87 53H34C36.2131 53.0011 38.3482 53.8175 39.9973 55.2932C41.6465 56.769 42.6941 58.8006 42.94 61H33.33ZM44.24 58C43.5387 56.2283 42.3958 54.6654 40.92 53.46C41.1377 53.1679 41.3785 52.8937 41.64 52.64C42.4729 51.8014 43.4639 51.1362 44.5556 50.6831C45.6473 50.2299 46.818 49.9978 48 50H48.13L47.13 51.45C47.0509 51.5694 46.9983 51.7044 46.9759 51.8459C46.9535 51.9873 46.9617 52.132 47 52.27L48.67 58H44.24ZM50 55.36L49.09 52.17L50 50.8L50.91 52.17L50 55.36ZM51.33 58L53 52.27C53.0383 52.132 53.0465 51.9873 53.0241 51.8459C53.0017 51.7044 52.9491 51.5694 52.87 51.45L51.87 50H52C54.2131 50.0011 56.3482 50.8175 57.9973 52.2932C59.6465 53.769 60.6941 55.8006 60.94 58H51.33Z" fill="#D63384"/>
<path d="M62 15H46C45.7348 15 45.4804 15.1054 45.2929 15.2929C45.1054 15.4804 45 15.7348 45 16V26C45 26.2652 45.1054 26.5196 45.2929 26.7071C45.4804 26.8946 45.7348 27 46 27H49.82L49 29.73C48.9423 29.9356 48.952 30.1543 49.0275 30.354C49.1031 30.5538 49.2406 30.7241 49.42 30.84C49.5923 30.9516 49.7948 31.0075 50 31C50.2383 31 50.4689 30.9149 50.65 30.76L55 27H62C62.2652 27 62.5196 26.8946 62.7071 26.7071C62.8946 26.5196 63 26.2652 63 26V16C63 15.7348 62.8946 15.4804 62.7071 15.2929C62.5196 15.1054 62.2652 15 62 15ZM61 25H54.67C54.4317 25 54.2011 25.0851 54.02 25.24L51.88 27.07L52.1 26.27C52.1418 26.1224 52.1492 25.9672 52.1214 25.8163C52.0937 25.6655 52.0316 25.523 51.94 25.4C51.8469 25.2758 51.7261 25.175 51.5872 25.1056C51.4484 25.0361 51.2952 25 51.14 25H47V17H61V25Z" fill="#D63384"/>
<path d="M49 20H51V22H49V20Z" fill="#D63384"/>
<path d="M53 20H55V22H53V20Z" fill="#D63384"/>
<path d="M57 20H59V22H57V20Z" fill="#D63384"/>
<path d="M2 27H9L13.39 30.76C13.5606 30.9063 13.7755 30.9908 14 31C14.1916 30.9995 14.379 30.944 14.54 30.84C14.7266 30.7298 14.8723 30.562 14.9553 30.3618C15.0383 30.1616 15.0539 29.9399 15 29.73L14.18 27H18C18.2652 27 18.5196 26.8946 18.7071 26.7071C18.8946 26.5196 19 26.2652 19 26V16C19 15.7348 18.8946 15.4804 18.7071 15.2929C18.5196 15.1054 18.2652 15 18 15H2C1.73478 15 1.48043 15.1054 1.29289 15.2929C1.10536 15.4804 1 15.7348 1 16V26C1 26.2652 1.10536 26.5196 1.29289 26.7071C1.48043 26.8946 1.73478 27 2 27ZM3 17H17V25H12.86C12.7048 25 12.5516 25.0361 12.4128 25.1056C12.2739 25.175 12.1531 25.2758 12.06 25.4C11.9684 25.523 11.9063 25.6655 11.8786 25.8163C11.8508 25.9672 11.8582 26.1224 11.9 26.27L12.12 27.07L10 25.24C9.81365 25.0805 9.57521 24.9951 9.33 25H3V17Z" fill="#D63384"/>
<path d="M13 20H15V22H13V20Z" fill="#D63384"/>
<path d="M9 20H11V22H9V20Z" fill="#D63384"/>
<path d="M5 20H7V22H5V20Z" fill="#D63384"/>
<path d="M30.5109 16.9999H30.6609C30.797 16.9804 30.9276 16.9331 31.0446 16.8608C31.1616 16.7886 31.2625 16.6929 31.3409 16.5799L36.8209 8.57993L35.1809 7.42993L30.3009 14.5499L28.6209 13.2199L27.3809 14.7799L29.8909 16.7799C30.0668 16.9211 30.2853 16.9986 30.5109 16.9999Z" fill="#D63384"/>
</svg>
