<svg width="64" height="64" viewBox="0 0 64 64" fill="none" xmlns="http://www.w3.org/2000/svg">
<g clip-path="url(#clip0_50_261)">
<path d="M59.5019 0H4.49781C2.02958 0 0.0214844 2.0081 0.0214844 4.47633V47.4597C0.0214844 49.9279 2.02958 51.936 4.49781 51.936H24.3395V62.1244H20.7208C20.2027 62.1244 19.783 62.5443 19.783 63.0622C19.783 63.5801 20.2027 64 20.7208 64H43.2788C43.7969 64 44.2166 63.5801 44.2166 63.0622C44.2166 62.5443 43.7969 62.1244 43.2788 62.1244H39.6601V58.9051C39.6601 58.3872 39.2404 57.9673 38.7223 57.9673C38.2043 57.9673 37.7846 58.3872 37.7846 58.9051V62.1244H26.2151V51.936H37.7846V54.5012C37.7846 55.0191 38.2043 55.439 38.7223 55.439C39.2404 55.439 39.6601 55.0191 39.6601 54.5012V51.936H59.502C61.9702 51.936 63.9783 49.9279 63.9783 47.4597V4.47633C63.9782 2.0081 61.9701 0 59.5019 0ZM1.89704 4.47633C1.89704 3.04228 3.06376 1.87556 4.49781 1.87556H59.5019C60.9359 1.87556 62.1027 3.04228 62.1027 4.47633V40.3207H1.89704V4.47633ZM62.1027 47.4596C62.1027 48.8936 60.9359 50.0604 59.5019 50.0604H4.49781C3.06376 50.0604 1.89704 48.8936 1.89704 47.4596V42.1963H62.1027V47.4596Z" fill="#6AD7C3"/>
<path d="M30.1272 47.066H33.8712C34.3892 47.066 34.809 46.6461 34.809 46.1282C34.809 45.6103 34.3892 45.1904 33.8712 45.1904H30.1272C29.6092 45.1904 29.1895 45.6103 29.1895 46.1282C29.1895 46.6461 29.6093 47.066 30.1272 47.066Z" fill="#6AD7C3"/>
<path d="M25.9263 25.2855V16.9107C25.9263 16.3928 25.5066 15.9729 24.9886 15.9729C24.4705 15.9729 24.0508 16.3928 24.0508 16.9107V25.2855C24.0508 25.8034 24.4705 26.2233 24.9886 26.2233C25.5066 26.2233 25.9263 25.8034 25.9263 25.2855Z" fill="#6AD7C3"/>
<path d="M14.7132 15.9728C14.1951 15.9728 13.7754 16.3927 13.7754 16.9106V22.6734C13.7754 23.9148 14.3467 24.8833 15.5222 25.6341C16.6624 26.3625 18.1628 26.4174 19.3759 25.8063C21.1069 24.9346 21.4703 23.6182 21.4703 22.6673V16.9104C21.4703 16.3925 21.0505 15.9727 20.5325 15.9727C20.0145 15.9727 19.5947 16.3925 19.5947 16.9104V22.6673C19.5947 23.0998 19.474 23.6571 18.5323 24.1312C17.9306 24.4342 17.1016 24.4174 16.532 24.0536C15.9061 23.6538 15.6509 23.2539 15.6509 22.6734V16.9106C15.6509 16.3927 15.2312 15.9728 14.7132 15.9728Z" fill="#6AD7C3"/>
<path d="M44.1498 6.11035C39.1588 6.11035 34.7298 8.56258 32.0043 12.3256C30.7646 10.6119 29.1686 9.16801 27.3331 8.10869C25.068 6.80143 22.4808 6.11048 19.8512 6.11048C16.7214 6.11048 13.7228 7.06551 11.1797 8.87242C10.7574 9.17239 10.6584 9.75781 10.9582 10.1801C11.2581 10.6023 11.8437 10.7015 12.2659 10.4014C14.4898 8.82128 17.1128 7.98603 19.8511 7.98603C24.3813 7.98603 28.4945 10.2513 30.9183 14.0626C29.7976 16.1617 29.1619 18.5572 29.1619 21.0983C29.1619 23.6393 29.7976 26.0346 30.9181 28.1338C28.4937 31.9418 24.3679 34.2106 19.8511 34.2106C12.621 34.2106 6.73884 28.3284 6.73884 21.0983C6.73884 18.2296 7.64811 15.5053 9.36837 13.2202C9.67984 12.8065 9.59694 12.2185 9.18319 11.9071C8.76932 11.5955 8.18164 11.6785 7.86992 12.0923C5.90309 14.705 4.86328 17.8195 4.86328 21.0984C4.86328 29.3628 11.5868 36.0863 19.8511 36.0863C24.7181 36.0863 29.1875 33.7821 32.0048 29.8722C34.7304 33.6345 39.1591 36.0863 44.1497 36.0863C52.414 36.0863 59.1374 29.3628 59.1374 21.0984C59.1375 12.8338 52.4141 6.11035 44.1498 6.11035ZM44.1498 34.2104C36.9197 34.2104 31.0376 28.3283 31.0376 21.0982C31.0376 13.868 36.9197 7.98591 44.1498 7.98591C51.3798 7.98591 57.262 13.868 57.262 21.0982C57.262 28.3283 51.3798 34.2104 44.1498 34.2104Z" fill="#6AD7C3"/>
<path d="M49.9961 20.801L52.3563 17.4507C52.6546 17.0273 52.5532 16.4422 52.1297 16.1439C51.7062 15.8456 51.1212 15.9471 50.8231 16.3705L48.8498 19.1715L46.8797 16.371C46.5818 15.9475 45.9972 15.8454 45.5732 16.1435C45.1495 16.4415 45.0478 17.0265 45.3458 17.4502L47.7025 20.8003L44.9232 24.7454C44.6249 25.1688 44.7263 25.7539 45.1498 26.0522C45.5735 26.3508 46.1561 26.2519 46.4564 25.8256L48.8488 22.4298L51.2373 25.8253C51.5286 26.2391 52.1306 26.3433 52.5439 26.0526C52.9675 25.7546 53.0693 25.1696 52.7712 24.7459L49.9961 20.801Z" fill="#6AD7C3"/>
<path d="M42.1124 15.9729C41.5943 15.9729 41.1746 16.3928 41.1746 16.9107V22.6675C41.1746 23.1 41.0538 23.6573 40.1119 24.1316C39.8272 24.275 39.5053 24.3478 39.1555 24.3478H39.1518C38.7607 24.3473 38.4205 24.2511 38.1118 24.0538C37.486 23.6541 37.2308 23.2542 37.2308 22.6735V16.9107C37.2308 16.3928 36.811 15.9729 36.293 15.9729C35.775 15.9729 35.3552 16.3928 35.3552 16.9107V22.6735C35.3552 23.9149 35.9265 24.8834 37.102 25.6343C38.2233 26.3506 39.7674 26.405 40.9559 25.8066C42.687 24.9348 43.0504 23.6184 43.0504 22.6675V16.9107C43.0501 16.3928 42.6303 15.9729 42.1124 15.9729Z" fill="#6AD7C3"/>
</g>
<defs>
<clipPath id="clip0_50_261">
<rect width="64" height="64" fill="white"/>
</clipPath>
</defs>
</svg>
