<svg width="64" height="64" viewBox="0 0 64 64" fill="none" xmlns="http://www.w3.org/2000/svg">
<path d="M60.5625 8.13439H43.6984C43.6806 8.13439 43.6634 8.13601 43.6459 8.13701C43.0279 7.55689 42.3639 7.01826 41.6558 6.52826C41.2298 6.23389 40.646 6.34026 40.3512 6.76576C40.0568 7.19151 40.163 7.77564 40.5887 8.07026C44.7296 10.935 47.2016 15.6471 47.2016 20.675C47.2016 29.1204 40.3307 35.9913 31.8854 35.9913C23.4401 35.9913 16.5693 29.1204 16.5693 20.675C16.5693 12.2298 23.4401 5.35889 31.8854 5.35889C33.5619 5.35889 35.2095 5.62776 36.7824 6.15814C37.2731 6.32401 37.805 6.06001 37.9702 5.56939C38.1357 5.07876 37.8721 4.54689 37.3815 4.38151C35.6151 3.78589 33.766 3.48389 31.8854 3.48389C22.4061 3.48389 14.6943 11.1958 14.6943 20.675C14.6943 30.1543 22.4061 37.8663 31.8854 37.8663C41.3646 37.8663 49.0766 30.1543 49.0766 20.675C49.0766 16.7568 47.7381 13.0103 45.3651 10.0094H60.5625C61.4241 10.0094 62.125 10.7103 62.125 11.5719V41.0786H54.7098C54.1919 41.0786 53.7723 41.4983 53.7723 42.0161C53.7723 42.534 54.1919 42.9536 54.7098 42.9536H62.125V47.8771C62.125 48.7388 61.4241 49.4396 60.5625 49.4396H3.4375C2.57588 49.4396 1.875 48.7388 1.875 47.8771V42.9536H49.9883C50.5061 42.9536 50.9258 42.534 50.9258 42.0161C50.9258 41.4983 50.5061 41.0786 49.9883 41.0786H1.875V11.5719C1.875 10.7103 2.57588 10.0094 3.4375 10.0094H14.6173C15.1351 10.0094 15.5548 9.58976 15.5548 9.07189C15.5548 8.55401 15.1351 8.13439 14.6173 8.13439H3.4375C1.542 8.13439 0 9.67651 0 11.5719V47.877C0 49.7724 1.542 51.3145 3.4375 51.3145H23.987V58.6413H21.1567C20.6389 58.6413 20.2192 59.0609 20.2192 59.5788C20.2192 60.0966 20.6389 60.5163 21.1567 60.5163H42.614C43.1319 60.5163 43.5515 60.0966 43.5515 59.5788C43.5515 59.0609 43.1319 58.6413 42.614 58.6413H39.7837V51.3145H60.5625C62.458 51.3145 64 49.7724 64 47.877V11.5719C64 9.67651 62.458 8.13439 60.5625 8.13439ZM37.9089 58.6414H25.862V51.3146H37.9089V58.6414Z" fill="#076856"/>
<path d="M25.2055 13.1868C25.0055 12.1269 24.0775 11.3574 22.9987 11.3574H21.9962C21.4783 11.3574 21.0587 11.777 21.0587 12.2949C21.0587 12.8128 21.4783 13.2324 21.9962 13.2324H22.9987C23.1768 13.2324 23.33 13.3594 23.363 13.5345L26.1375 28.23C26.2211 28.6729 26.6081 28.9935 27.0587 28.9935H27.6912C27.4143 29.303 27.2445 29.7104 27.2445 30.1584C27.2445 31.1247 28.0278 31.908 28.9941 31.908C29.9603 31.908 30.7437 31.1247 30.7437 30.1584C30.7437 29.7104 30.574 29.303 30.297 28.9935H34.1537C33.8768 29.303 33.707 29.7104 33.707 30.1584C33.707 31.1247 34.4903 31.908 35.4566 31.908C36.4228 31.908 37.2062 31.1247 37.2062 30.1584C37.2062 29.7104 37.0365 29.303 36.7595 28.9935H37.6031C38.121 28.9935 38.5406 28.5739 38.5406 28.056C38.5406 27.5382 38.121 27.1185 37.6031 27.1185H27.8355L27.453 25.0927H37.9302C38.3807 25.0927 38.7673 24.7724 38.8513 24.3297L40.5153 15.5513C40.5163 15.5457 40.5175 15.54 40.5183 15.5344C40.5742 15.2063 40.4833 14.8723 40.2687 14.6179C40.0541 14.3635 39.7401 14.2177 39.4072 14.2177H25.4001L25.2055 13.1868ZM26.6037 20.5927H29.1615L29.3533 23.2177H27.0995L26.6037 20.5927ZM33.2985 20.5927L33.1066 23.2177H31.2333L31.0415 20.5927H33.2985ZM30.9045 18.7177L30.7126 16.0928H33.6273L33.4355 18.7177H30.9045ZM34.9867 23.2177L35.1786 20.5927H37.6516L37.154 23.2177H34.9867ZM38.0071 18.7177H35.3157L35.5076 16.0928H38.5047L38.0071 18.7177ZM28.8325 16.0928L29.0243 18.7177H26.2497L25.7541 16.0928H28.8325Z" fill="#076856"/>
<path d="M6.10632 34.3877H11.6514C12.1693 34.3877 12.5889 33.9681 12.5889 33.4502C12.5889 32.9323 12.1693 32.5127 11.6514 32.5127H6.10632C5.58845 32.5127 5.16882 32.9323 5.16882 33.4502C5.16882 33.9681 5.58845 34.3877 6.10632 34.3877Z" fill="#076856"/>
<path d="M6.10632 38.6162H16.4531C16.9709 38.6162 17.3906 38.1966 17.3906 37.6787C17.3906 37.1608 16.9709 36.7412 16.4531 36.7412H6.10632C5.58845 36.7412 5.16882 37.1608 5.16882 37.6787C5.16882 38.1966 5.58845 38.6162 6.10632 38.6162Z" fill="#076856"/>
<path d="M55.6159 13.5464C55.098 13.5464 54.6784 13.966 54.6784 14.4839V16.8303H52.332C51.8142 16.8303 51.3945 17.2499 51.3945 17.7678C51.3945 18.2856 51.8142 18.7053 52.332 18.7053H54.6784V21.0516C54.6784 21.5695 55.098 21.9891 55.6159 21.9891C56.1338 21.9891 56.5534 21.5695 56.5534 21.0516V18.7053H58.8997C59.4175 18.7053 59.8372 18.2856 59.8372 17.7678C59.8372 17.2499 59.4175 16.8303 58.8997 16.8303H56.5534V14.4839C56.5534 13.9661 56.1337 13.5464 55.6159 13.5464Z" fill="#076856"/>
</svg>
