<svg width="64" height="64" viewBox="0 0 64 64" fill="none" xmlns="http://www.w3.org/2000/svg">
<path d="M46 19H42.7L39.6 15.46C39.8602 15.0173 39.9983 14.5135 40 14C40 13.4067 39.8241 12.8266 39.4944 12.3333C39.1648 11.8399 38.6962 11.4554 38.148 11.2284C37.5999 11.0013 36.9967 10.9419 36.4147 11.0576C35.8328 11.1734 35.2982 11.4591 34.8787 11.8787C34.4591 12.2982 34.1734 12.8328 34.0576 13.4147C33.9419 13.9967 34.0013 14.5999 34.2284 15.1481C34.4554 15.6962 34.8399 16.1648 35.3333 16.4944C35.8266 16.8241 36.4067 17 37 17C37.3775 16.9995 37.7513 16.9248 38.1 16.78L40.05 19H23.95L25.9 16.78C26.2487 16.9248 26.6225 16.9995 27 17C27.5933 17 28.1734 16.8241 28.6667 16.4944C29.1601 16.1648 29.5446 15.6962 29.7716 15.1481C29.9987 14.5999 30.0581 13.9967 29.9424 13.4147C29.8266 12.8328 29.5409 12.2982 29.1213 11.8787C28.7018 11.4591 28.1672 11.1734 27.5853 11.0576C27.0033 10.9419 26.4001 11.0013 25.8519 11.2284C25.3038 11.4554 24.8352 11.8399 24.5056 12.3333C24.1759 12.8266 24 13.4067 24 14C24.0017 14.5135 24.1398 15.0173 24.4 15.46L21.3 19H18C17.4701 19.0016 16.9623 19.2128 16.5875 19.5875C16.2128 19.9623 16.0016 20.4701 16 21V23C16.0016 23.5299 16.2128 24.0377 16.5875 24.4125C16.9623 24.7872 17.4701 24.9984 18 25H18.07L18.87 36.21C18.9252 36.9662 19.2638 37.6737 19.8182 38.191C20.3726 38.7083 21.1018 38.9972 21.86 39H42.14C42.8982 38.9972 43.6274 38.7083 44.1818 38.191C44.7362 37.6737 45.0748 36.9662 45.13 36.21L45.93 25H46C46.5299 24.9984 47.0377 24.7872 47.4125 24.4125C47.7872 24.0377 47.9984 23.5299 48 23V21C47.9984 20.4701 47.7872 19.9623 47.4125 19.5875C47.0377 19.2128 46.5299 19.0016 46 19ZM37 15C36.8022 15 36.6089 14.9414 36.4444 14.8315C36.28 14.7216 36.1518 14.5654 36.0761 14.3827C36.0004 14.2 35.9806 13.9989 36.0192 13.8049C36.0578 13.6109 36.153 13.4327 36.2929 13.2929C36.4327 13.153 36.6109 13.0578 36.8049 13.0192C36.9989 12.9806 37.2 13.0004 37.3827 13.0761C37.5654 13.1518 37.7216 13.28 37.8315 13.4444C37.9414 13.6089 38 13.8022 38 14C38 14.2652 37.8946 14.5196 37.7071 14.7071C37.5196 14.8946 37.2652 15 37 15ZM27 13C27.1978 13 27.3911 13.0587 27.5556 13.1685C27.72 13.2784 27.8482 13.4346 27.9239 13.6173C27.9996 13.8 28.0194 14.0011 27.9808 14.1951C27.9422 14.3891 27.847 14.5673 27.7071 14.7071C27.5673 14.847 27.3891 14.9422 27.1951 14.9808C27.0011 15.0194 26.8 14.9996 26.6173 14.9239C26.4346 14.8482 26.2784 14.72 26.1685 14.5556C26.0586 14.3911 26 14.1978 26 14C26 13.7348 26.1054 13.4804 26.2929 13.2929C26.4804 13.1054 26.7348 13 27 13ZM43.14 36.07C43.1198 36.322 43.0059 36.5572 42.8208 36.7294C42.6356 36.9015 42.3928 36.9981 42.14 37H21.86C21.6072 36.9981 21.3644 36.9015 21.1792 36.7294C20.9941 36.5572 20.8802 36.322 20.86 36.07L20.07 25H43.93L43.14 36.07ZM46 23H18V21H46V23Z" fill="#DC3545"/>
<path d="M32 35C32.2652 35 32.5196 34.8946 32.7071 34.7071C32.8946 34.5196 33 34.2652 33 34V28C33 27.7348 32.8946 27.4804 32.7071 27.2929C32.5196 27.1054 32.2652 27 32 27C31.7348 27 31.4804 27.1054 31.2929 27.2929C31.1054 27.4804 31 27.7348 31 28V34C31 34.2652 31.1054 34.5196 31.2929 34.7071C31.4804 34.8946 31.7348 35 32 35Z" fill="#DC3545"/>
<path d="M36 35C36.2652 35 36.5196 34.8946 36.7071 34.7071C36.8946 34.5196 37 34.2652 37 34V28C37 27.7348 36.8946 27.4804 36.7071 27.2929C36.5196 27.1054 36.2652 27 36 27C35.7348 27 35.4804 27.1054 35.2929 27.2929C35.1054 27.4804 35 27.7348 35 28V34C35 34.2652 35.1054 34.5196 35.2929 34.7071C35.4804 34.8946 35.7348 35 36 35Z" fill="#DC3545"/>
<path d="M28 35C28.2652 35 28.5196 34.8946 28.7071 34.7071C28.8946 34.5196 29 34.2652 29 34V28C29 27.7348 28.8946 27.4804 28.7071 27.2929C28.5196 27.1054 28.2652 27 28 27C27.7348 27 27.4804 27.1054 27.2929 27.2929C27.1054 27.4804 27 27.7348 27 28V34C27 34.2652 27.1054 34.5196 27.2929 34.7071C27.4804 34.8946 27.7348 35 28 35Z" fill="#DC3545"/>
<path d="M24 35C24.2652 35 24.5196 34.8946 24.7071 34.7071C24.8946 34.5196 25 34.2652 25 34V28C25 27.7348 24.8946 27.4804 24.7071 27.2929C24.5196 27.1054 24.2652 27 24 27C23.7348 27 23.4804 27.1054 23.2929 27.2929C23.1054 27.4804 23 27.7348 23 28V34C23 34.2652 23.1054 34.5196 23.2929 34.7071C23.4804 34.8946 23.7348 35 24 35Z" fill="#DC3545"/>
<path d="M40 35C40.2652 35 40.5196 34.8946 40.7071 34.7071C40.8946 34.5196 41 34.2652 41 34V28C41 27.7348 40.8946 27.4804 40.7071 27.2929C40.5196 27.1054 40.2652 27 40 27C39.7348 27 39.4804 27.1054 39.2929 27.2929C39.1054 27.4804 39 27.7348 39 28V34C39 34.2652 39.1054 34.5196 39.2929 34.7071C39.4804 34.8946 39.7348 35 40 35Z" fill="#DC3545"/>
<path d="M59 12H55V5C54.9976 4.20508 54.6808 3.4434 54.1187 2.8813C53.5566 2.31921 52.7949 2.00237 52 2H12C11.2051 2.00237 10.4434 2.31921 9.8813 2.8813C9.31921 3.4434 9.00237 4.20508 9 5V12H5C4.20508 12.0024 3.4434 12.3192 2.8813 12.8813C2.31921 13.4434 2.00237 14.2051 2 15V49C2.00237 49.7949 2.31921 50.5566 2.8813 51.1187C3.4434 51.6808 4.20508 51.9976 5 52H25V56H19C18.2051 56.0024 17.4434 56.3192 16.8813 56.8813C16.3192 57.4434 16.0024 58.2051 16 59V61C16 61.2652 16.1054 61.5196 16.2929 61.7071C16.4804 61.8946 16.7348 62 17 62H47C47.2652 62 47.5196 61.8946 47.7071 61.7071C47.8946 61.5196 48 61.2652 48 61V59C47.9976 58.2051 47.6808 57.4434 47.1187 56.8813C46.5566 56.3192 45.7949 56.0024 45 56H39V52H59C59.7949 51.9976 60.5566 51.6808 61.1187 51.1187C61.6808 50.5566 61.9976 49.7949 62 49V15C61.9976 14.2051 61.6808 13.4434 61.1187 12.8813C60.5566 12.3192 59.7949 12.0024 59 12ZM55 17H57V41H55V17ZM11 5C11 4.73478 11.1054 4.48043 11.2929 4.29289C11.4804 4.10536 11.7348 4 12 4H52C52.2652 4 52.5196 4.10536 52.7071 4.29289C52.8946 4.48043 53 4.73478 53 5V8H11V5ZM11 10H53V41H11V10ZM45 58C45.2652 58 45.5196 58.1054 45.7071 58.2929C45.8946 58.4804 46 58.7348 46 59V60H18V59C18 58.7348 18.1054 58.4804 18.2929 58.2929C18.4804 58.1054 18.7348 58 19 58H45ZM27 56V52H37V56H27ZM60 49C60 49.2652 59.8946 49.5196 59.7071 49.7071C59.5196 49.8946 59.2652 50 59 50H5C4.73478 50 4.48043 49.8946 4.29289 49.7071C4.10536 49.5196 4 49.2652 4 49V46H60V49ZM60 44H4V15C4 14.7348 4.10536 14.4804 4.29289 14.2929C4.48043 14.1054 4.73478 14 5 14H9V15H6C5.73478 15 5.48043 15.1054 5.29289 15.2929C5.10536 15.4804 5 15.7348 5 16V42C5 42.2652 5.10536 42.5196 5.29289 42.7071C5.48043 42.8946 5.73478 43 6 43H58C58.2652 43 58.5196 42.8946 58.7071 42.7071C58.8946 42.5196 59 42.2652 59 42V16C59 15.7348 58.8946 15.4804 58.7071 15.2929C58.5196 15.1054 58.2652 15 58 15H55V14H59C59.2652 14 59.5196 14.1054 59.7071 14.2929C59.8946 14.4804 60 14.7348 60 15V44ZM9 17V41H7V17H9Z" fill="#DC3545"/>
<path d="M55 47H53C52.7348 47 52.4804 47.1054 52.2929 47.2929C52.1054 47.4804 52 47.7348 52 48C52 48.2652 52.1054 48.5196 52.2929 48.7071C52.4804 48.8946 52.7348 49 53 49H55C55.2652 49 55.5196 48.8946 55.7071 48.7071C55.8946 48.5196 56 48.2652 56 48C56 47.7348 55.8946 47.4804 55.7071 47.2929C55.5196 47.1054 55.2652 47 55 47Z" fill="#DC3545"/>
<path d="M14 5H13C12.7348 5 12.4804 5.10536 12.2929 5.29289C12.1054 5.48043 12 5.73478 12 6C12 6.26522 12.1054 6.51957 12.2929 6.70711C12.4804 6.89464 12.7348 7 13 7H14C14.2652 7 14.5196 6.89464 14.7071 6.70711C14.8946 6.51957 15 6.26522 15 6C15 5.73478 14.8946 5.48043 14.7071 5.29289C14.5196 5.10536 14.2652 5 14 5Z" fill="#DC3545"/>
<path d="M18 5H17C16.7348 5 16.4804 5.10536 16.2929 5.29289C16.1054 5.48043 16 5.73478 16 6C16 6.26522 16.1054 6.51957 16.2929 6.70711C16.4804 6.89464 16.7348 7 17 7H18C18.2652 7 18.5196 6.89464 18.7071 6.70711C18.8946 6.51957 19 6.26522 19 6C19 5.73478 18.8946 5.48043 18.7071 5.29289C18.5196 5.10536 18.2652 5 18 5Z" fill="#DC3545"/>
<path d="M22 5H21C20.7348 5 20.4804 5.10536 20.2929 5.29289C20.1054 5.48043 20 5.73478 20 6C20 6.26522 20.1054 6.51957 20.2929 6.70711C20.4804 6.89464 20.7348 7 21 7H22C22.2652 7 22.5196 6.89464 22.7071 6.70711C22.8946 6.51957 23 6.26522 23 6C23 5.73478 22.8946 5.48043 22.7071 5.29289C22.5196 5.10536 22.2652 5 22 5Z" fill="#DC3545"/>
</svg>
