<svg width="64" height="64" viewBox="0 0 64 64" fill="none" xmlns="http://www.w3.org/2000/svg">
<g clip-path="url(#clip0_129_221)">
<path d="M46.4516 30.9677C53.8508 30.9677 59.871 24.9475 59.871 17.5483H57.8064C57.8064 23.8089 52.7122 28.9032 46.4516 28.9032V30.9677Z" fill="#FFC700"/>
<path d="M46.4516 4.12891C39.0524 4.12891 33.0323 10.1491 33.0323 17.5483H35.0968C35.0968 11.2877 40.1911 6.19342 46.4516 6.19342V4.12891Z" fill="#FFC700"/>
<path d="M14.4516 51.6129C14.4516 53.32 15.8412 54.7097 17.5484 54.7097C19.2555 54.7097 20.6451 53.32 20.6451 51.6129C20.6451 49.9057 19.2555 48.5161 17.5484 48.5161C15.8412 48.5161 14.4516 49.9057 14.4516 51.6129ZM17.5484 50.5806C18.1179 50.5806 18.5806 51.0433 18.5806 51.6129C18.5806 52.1824 18.1179 52.6451 17.5484 52.6451C16.9788 52.6451 16.5161 52.1824 16.5161 51.6129C16.5161 51.0433 16.9788 50.5806 17.5484 50.5806Z" fill="#FFC700"/>
<path d="M26.8387 51.6129C26.8387 53.32 28.2283 54.7097 29.9355 54.7097C31.6426 54.7097 33.0323 53.32 33.0323 51.6129C33.0323 49.9057 31.6426 48.5161 29.9355 48.5161C28.2283 48.5161 26.8387 49.9057 26.8387 51.6129ZM29.9355 50.5806C30.505 50.5806 30.9677 51.0433 30.9677 51.6129C30.9677 52.1824 30.505 52.6451 29.9355 52.6451C29.3659 52.6451 28.9032 52.1824 28.9032 51.6129C28.9032 51.0433 29.3659 50.5806 29.9355 50.5806Z" fill="#FFC700"/>
<path d="M36.129 32.0001H15.194L14.4259 28.671C14.3175 28.2022 13.9002 27.8711 13.4193 27.8711H9.29031V29.9356H12.5978L15.5096 42.5551C15.6079 42.9805 15.9617 43.297 16.3941 43.3489L33.0323 45.3061V46.4517H14.4516V48.5163H34.0645C34.6356 48.5163 35.0968 48.0551 35.0968 47.484V44.3872C35.0968 43.864 34.7046 43.423 34.1855 43.362L33.5 43.2819L37.0983 33.3852C37.2137 33.0687 37.1663 32.7164 36.9743 32.4407C36.7812 32.1644 36.4657 32.0001 36.129 32.0001ZM27.938 42.6271L25.8064 42.3761V34.0646H28.7949L27.938 42.6271ZM23.7419 36.1292H20.996L20.7671 34.0646H23.7419V36.1292ZM23.7419 38.1937V42.1327L21.6351 41.8852L21.2253 38.1937H23.7419ZM18.689 34.0646L18.9183 36.1292H16.1467L15.6699 34.0646H18.689ZM16.6235 38.1937H19.1482L19.5312 41.6372L17.3604 41.3822L16.6235 38.1937ZM29.9889 42.8686L30.2505 40.2582H32.4037L31.3941 43.0339L29.9889 42.8686ZM33.1542 38.1937H30.4566L30.8695 34.0646H34.6547L33.1542 38.1937Z" fill="#FFC700"/>
<path d="M45.4193 10.4695C43.6426 10.9307 42.3226 12.533 42.3226 14.4518C42.3226 16.7291 44.1744 18.5809 46.4516 18.5809C47.5902 18.5809 48.5161 19.5068 48.5161 20.6454C48.5161 21.784 47.5902 22.7099 46.4516 22.7099C45.313 22.7099 44.3871 21.784 44.3871 20.6454H42.3226C42.3226 22.5642 43.6426 24.1666 45.4193 24.6278V26.8389H47.4839V24.6278C49.2606 24.1666 50.5806 22.5642 50.5806 20.6454C50.5806 18.3682 48.7288 16.5164 46.4516 16.5164C45.313 16.5164 44.3871 15.5905 44.3871 14.4518C44.3871 13.3132 45.313 12.3873 46.4516 12.3873C47.5902 12.3873 48.5161 13.3132 48.5161 14.4518H50.5806C50.5806 12.533 49.2606 10.9307 47.4839 10.4695V8.2583H45.4193V10.4695Z" fill="#FFC700"/>
<path d="M56.7742 49.5484C54.4713 49.5484 52.4224 50.6356 51.0978 52.3191L44.0091 49.1684C44.9199 46.7127 45.4194 44.059 45.4194 41.2903C45.4194 39.1008 45.1013 36.9849 44.5202 34.9803C45.1613 35.0504 45.8054 35.0968 46.4516 35.0968C56.128 35.0968 64 27.2248 64 17.5484C64 7.87198 56.128 0 46.4516 0C36.7752 0 28.9032 7.87198 28.9032 17.5484C28.9032 18.1946 28.9496 18.8387 29.0197 19.4798C27.0151 18.8987 24.8992 18.5806 22.7097 18.5806C19.6079 18.5806 16.6502 19.2072 13.9541 20.3387L10.8891 13.443C13.0166 12.184 14.4516 9.87147 14.4516 7.22581C14.4516 3.24244 11.2092 0 7.22581 0C3.24244 0 0 3.24244 0 7.22581C0 11.2092 3.24244 14.4516 7.22581 14.4516C7.83065 14.4516 8.41583 14.369 8.97883 14.2278L12.0887 21.2253C4.90524 25.0439 0 32.6038 0 41.2903C0 53.8125 10.1875 64 22.7097 64C31.7329 64 39.5418 58.7097 43.2031 51.0701L50.0615 54.1179C49.7344 54.941 49.5484 55.8357 49.5484 56.7742C49.5484 60.7576 52.7908 64 56.7742 64C60.7576 64 64 60.7576 64 56.7742C64 52.7908 60.7576 49.5484 56.7742 49.5484ZM2.06452 7.22581C2.06452 4.38004 4.38004 2.06452 7.22581 2.06452C10.0716 2.06452 12.3871 4.38004 12.3871 7.22581C12.3871 10.0716 10.0716 12.3871 7.22581 12.3871C4.38004 12.3871 2.06452 10.0716 2.06452 7.22581ZM30.9677 17.5484C30.9677 9.01059 37.9138 2.06452 46.4516 2.06452C54.9894 2.06452 61.9355 9.01059 61.9355 17.5484C61.9355 26.0862 54.9894 33.0323 46.4516 33.0323C45.5484 33.0323 44.6462 32.9456 43.7626 32.7908C41.4546 27.0958 36.9042 22.5454 31.2092 20.2374C31.0544 19.3538 30.9677 18.4516 30.9677 17.5484ZM22.7097 61.9355C11.3261 61.9355 2.06452 52.6739 2.06452 41.2903C2.06452 29.9068 11.3261 20.6452 22.7097 20.6452C34.0933 20.6452 43.3548 29.9068 43.3548 41.2903C43.3548 52.6739 34.0933 61.9355 22.7097 61.9355ZM56.7742 61.9355C53.9284 61.9355 51.6129 59.62 51.6129 56.7742C51.6129 53.9284 53.9284 51.6129 56.7742 51.6129C59.62 51.6129 61.9355 53.9284 61.9355 56.7742C61.9355 59.62 59.62 61.9355 56.7742 61.9355Z" fill="#FFC700"/>
<path d="M56.7742 57.8067V59.8712C58.4813 59.8712 59.8709 58.4816 59.8709 56.7744H57.8064C57.8064 57.344 57.3437 57.8067 56.7742 57.8067Z" fill="#FFC700"/>
<path d="M7.2258 8.25784V10.3224C8.93296 10.3224 10.3226 8.93274 10.3226 7.22559H8.25806C8.25806 7.79514 7.79536 8.25784 7.2258 8.25784Z" fill="#FFC700"/>
</g>
<defs>
<clipPath id="clip0_129_221">
<rect width="64" height="64" fill="white"/>
</clipPath>
</defs>
</svg>
