<svg width="64" height="64" viewBox="0 0 64 64" fill="none" xmlns="http://www.w3.org/2000/svg">
<path d="M62.9895 19.2351C63.5478 19.2351 64 18.7827 64 18.2246V14.2922C64 11.7148 61.9032 9.61792 59.3259 9.61792H4.67413C2.09688 9.61779 0 11.7145 0 14.2921V49.7078C0 52.2853 2.09688 54.3821 4.67413 54.3821H59.326C61.9034 54.3821 64.0001 52.2853 64 49.7078V21.5029C64 20.9447 63.5476 20.4924 62.9895 20.4924C62.4314 20.4924 61.979 20.9447 61.979 21.5029V49.7075C61.979 51.1706 60.7887 52.3609 59.3259 52.3609H4.67413C3.21126 52.3609 2.021 51.1706 2.021 49.7075V14.2921C2.021 12.8291 3.21126 11.6388 4.67413 11.6389H59.3257C60.7886 11.6389 61.9789 12.8292 61.9789 14.2922V18.2246C61.979 18.7827 62.4313 19.2351 62.9895 19.2351Z" fill="#C33DAB"/>
<path d="M27.0079 29.8162C25.6187 29.8162 24.9159 31.8839 24.9159 33.1935C24.9159 34.1757 25.4016 34.8304 26.2214 34.8304H26.2381C27.5434 34.8304 28.2967 32.8488 28.2967 31.4188C28.2967 30.6262 27.9618 29.8162 27.0079 29.8162Z" fill="#C33DAB"/>
<path d="M35.6012 30.0095C34.6976 30.0095 33.8607 31.0434 33.5597 32.6975L33.2582 34.524C33.5261 34.7652 33.8777 34.9203 34.3629 34.9203C35.6516 34.9203 36.6558 33.0423 36.6558 31.3879C36.6557 30.7161 36.3711 30.0095 35.6012 30.0095Z" fill="#C33DAB"/>
<path d="M57.3045 26.1877C57.3042 26.1877 57.3042 26.1877 57.3042 26.1877C57.3042 26.1877 57.3035 26.1877 57.3028 26.1877H57.3023H54.7583C54.1722 26.1877 53.6283 26.4405 53.252 26.8611C52.8796 26.4455 52.3393 26.1877 51.7456 26.1877H51.5237L51.819 24.8017C52.0172 23.8712 51.5398 22.9286 50.6721 22.5378C50.113 22.286 49.386 22.1528 48.5702 22.1528C47.2165 22.1528 45.9508 22.5838 44.9923 23.3667C44.3946 22.6781 43.5061 22.2558 42.4794 22.2558C40.5202 22.2558 38.9857 23.8021 38.9857 25.7758C38.9857 26.1115 39.0336 26.4367 39.1212 26.7458C38.3997 26.2498 37.5226 25.9726 36.5381 25.9726C35.9544 25.9726 35.3843 26.0731 34.8452 26.2652C34.5954 26.1547 34.3189 26.0933 34.0282 26.0933H34.0277H31.8685C31.284 26.0933 30.753 26.3435 30.3817 26.7467C29.5238 26.2058 28.4827 25.8998 27.3255 25.8998C25.7192 25.8998 24.2303 26.4325 23.0374 27.417C23.0148 27.3908 22.9927 27.364 22.9693 27.3386C22.2365 26.5402 21.1854 26.0973 20.0056 26.0896L20.2259 24.9191C20.2557 24.7815 20.2712 24.6386 20.2712 24.492C20.2712 23.3758 19.3666 22.471 18.2504 22.471H18.2499H15.8396C14.8653 22.471 14.0293 23.1665 13.8523 24.1248L13.4939 26.0662C12.9859 25.9577 12.4318 25.8996 11.8605 25.8996C8.60413 25.8996 6.241 27.9742 6.241 30.8327C6.241 31.3 6.3265 31.9643 6.693 32.6691C6.3385 32.9145 6.06825 33.2696 5.92825 33.6857L5.34237 35.426C5.06325 36.2545 5.34875 37.1686 6.04975 37.6914C6.90375 38.3279 8.27475 38.7222 9.71775 38.7465C9.72351 38.7466 9.72938 38.7466 9.73538 38.7467L9.80413 38.747C10.7249 38.747 11.5773 38.5986 12.3313 38.3135C12.6844 38.5912 13.1231 38.747 13.5803 38.747H15.9905C16.4798 38.747 16.9339 38.5717 17.2876 38.2759C17.6485 38.5779 18.1065 38.747 18.5848 38.747H20.9948C21.7058 38.747 22.3419 38.3756 22.7033 37.8031C23.608 38.4157 24.7197 38.747 25.9202 38.747H25.937C26.6809 38.747 27.3902 38.6332 28.0512 38.4212L27.823 39.653C27.7137 40.2432 27.8724 40.8515 28.2564 41.3132C28.6404 41.775 29.2098 42.0419 29.8103 42.0419H32.2205C33.1963 42.0419 34.0329 41.3445 34.2084 40.3846L34.4951 38.8194C35.6364 38.808 36.7143 38.4992 37.6656 37.9289C38.0488 38.3651 38.6003 38.6179 39.1827 38.6179H41.5929C41.8801 38.6179 42.1546 38.556 42.4042 38.4464C42.6571 38.5572 42.9321 38.6185 43.2151 38.6185H45.6251C45.7715 38.6185 45.9143 38.601 46.0527 38.5711C46.0621 38.6764 46.0776 38.782 46.1043 38.8876L46.6402 41.0069C46.8699 41.9157 47.6873 42.5329 48.5978 42.5329C48.7045 42.5329 48.8121 42.5244 48.9202 42.507C49.8526 42.3572 51.3845 41.7497 52.6355 40.5311C53.8588 39.3477 54.9561 37.6846 56.1918 35.1397L59.0992 29.1361C59.2428 28.8582 59.324 28.5431 59.324 28.2088C59.3237 27.0931 58.42 26.1885 57.3045 26.1877ZM11.3874 36.502C11.3838 36.5032 11.38 36.5042 11.3764 36.5052C11.3164 36.5239 11.2551 36.5412 11.193 36.5574C11.1823 36.5604 11.1715 36.563 11.1604 36.5659C11.1035 36.5802 11.0459 36.5937 10.9873 36.6062C10.9756 36.6089 10.9638 36.6114 10.952 36.6139C10.8873 36.6272 10.8218 36.6394 10.7554 36.6504C10.7513 36.6511 10.7469 36.652 10.7428 36.6526C10.6706 36.6644 10.5978 36.6746 10.5238 36.6835C10.5135 36.6847 10.5033 36.6856 10.4931 36.6866C10.4329 36.6936 10.3724 36.6995 10.3108 36.7046C10.2865 36.7066 10.2619 36.7081 10.2374 36.7099C10.1893 36.7132 10.1405 36.7161 10.0916 36.7184C10.0635 36.7196 10.0353 36.7207 10.0069 36.7217C9.95876 36.7232 9.91001 36.724 9.86138 36.7246C9.84213 36.7247 9.82351 36.7257 9.80426 36.7257C9.78663 36.7257 9.76926 36.7256 9.75163 36.7255C8.73088 36.7084 7.7435 36.4326 7.25788 36.0709L7.844 34.3306C8.31238 34.5717 9.1995 34.9165 9.98601 34.9165C10.6555 34.9165 11.007 34.5719 11.007 34.1584C11.007 33.745 10.7391 33.452 9.98601 33.0727C9.04863 32.5904 8.262 31.884 8.262 30.8328C8.262 29.0752 9.75151 27.9207 11.8604 27.9207C11.9801 27.9207 12.097 27.924 12.2101 27.9302C12.2106 27.9302 12.2113 27.9302 12.2118 27.9303C12.551 27.949 12.8589 27.9933 13.1263 28.0536C13.1263 28.0536 13.1265 28.0537 13.1268 28.0537C13.4791 28.1333 13.7613 28.2403 13.9523 28.3515L13.3835 30.109C13.2328 30.0392 13.0288 29.9597 12.7869 29.8925C12.7181 29.8733 12.6458 29.8557 12.5708 29.8391C12.5628 29.8373 12.5553 29.8356 12.547 29.8337C12.481 29.8196 12.4118 29.8075 12.3415 29.7962C12.3241 29.7933 12.3079 29.7903 12.2901 29.7877C12.2249 29.7783 12.1568 29.7712 12.088 29.7648C12.0656 29.7628 12.0444 29.7598 12.0218 29.7581C11.9315 29.7513 11.8386 29.7473 11.7431 29.7473C11.107 29.7473 10.6886 30.0231 10.6886 30.4882C10.689 30.8325 11.0236 31.1253 11.6766 31.4356C11.7379 31.4672 11.7995 31.5001 11.8611 31.534C11.8683 31.5377 11.8751 31.542 11.8819 31.5458C11.9388 31.5772 11.9954 31.6098 12.0516 31.6433C12.054 31.6447 12.0561 31.6462 12.0585 31.6473C12.8259 32.1057 13.5174 32.7556 13.5174 33.7616C13.5174 35.1625 12.6789 36.0999 11.3874 36.502ZM21.8818 31.901L20.9947 36.7256H18.5846L19.438 32.1079C19.5049 31.7804 19.5385 31.4185 19.5385 31.0738C19.5385 30.5052 19.3209 30.109 18.7183 30.109C17.8649 30.109 17.0111 31.1773 16.7101 32.866L15.9904 36.7255H14.5475H13.5801L15.3894 26.9302L15.8396 24.4916H18.25L17.3295 29.3851H17.3629C18.0493 28.6097 18.9026 28.11 19.9736 28.11C20.062 28.11 20.1477 28.115 20.231 28.1228C20.2555 28.1251 20.2789 28.1292 20.3029 28.1321C20.3623 28.1395 20.4208 28.1482 20.4776 28.1597C20.5022 28.1646 20.526 28.1703 20.55 28.1762C20.6069 28.1897 20.6622 28.2051 20.7158 28.2227C20.735 28.2291 20.7542 28.2352 20.7732 28.242C20.836 28.2647 20.8969 28.2902 20.9555 28.3186C20.9629 28.3222 20.9708 28.3255 20.9784 28.3291C21.6458 28.6633 22.0323 29.3711 22.0323 30.3843C22.0323 30.7808 21.9655 31.4355 21.8818 31.901ZM42.4798 24.2767C42.5414 24.2767 42.6008 24.2812 42.6593 24.2877C42.6739 24.2895 42.6888 24.2913 42.7032 24.2933C42.7571 24.3012 42.8098 24.3108 42.8606 24.3241C42.8642 24.3251 42.8679 24.3256 42.8713 24.3263C42.9268 24.3412 42.9798 24.36 43.0314 24.3812C43.0406 24.385 43.0499 24.3893 43.0591 24.3933C43.1079 24.4147 43.1552 24.4387 43.1998 24.4658C43.2012 24.4668 43.2028 24.4675 43.2039 24.4683C43.2528 24.4982 43.2984 24.5318 43.3418 24.5682C43.3447 24.5708 43.3479 24.5736 43.3507 24.5762C43.4821 24.689 43.5864 24.8311 43.6578 24.999L43.6581 24.9991C43.7288 25.1655 43.7686 25.3561 43.7686 25.5688C43.7688 26.5166 43.0659 27.068 42.2457 27.068H42.2288C42.1567 27.068 42.0869 27.0612 42.0188 27.0506C42.0186 27.0506 42.0183 27.0505 42.0183 27.0505C41.9824 27.0448 41.9478 27.0377 41.9136 27.0295C41.9112 27.029 41.9088 27.0282 41.9064 27.0277C41.8731 27.0192 41.8404 27.0097 41.8082 26.9986C41.8054 26.9978 41.8032 26.9968 41.8006 26.9958C41.7684 26.9845 41.7368 26.9722 41.7064 26.9585C41.7051 26.9578 41.7036 26.957 41.7023 26.9565C41.5466 26.8856 41.4111 26.7825 41.3021 26.6517C41.2976 26.6466 41.2929 26.6417 41.2886 26.6365C41.2733 26.6173 41.2588 26.5971 41.2447 26.577C41.2367 26.566 41.2289 26.5551 41.2212 26.5437C41.2093 26.5252 41.1981 26.5061 41.1869 26.4868C41.1784 26.4725 41.1701 26.4577 41.1622 26.4428C41.1528 26.4246 41.1437 26.4061 41.1351 26.3871C41.1269 26.3697 41.1193 26.3521 41.1119 26.334C41.1046 26.3157 41.0976 26.2976 41.0907 26.2787C41.0836 26.2588 41.0772 26.2382 41.0711 26.2175C41.0656 26.1995 41.0601 26.1815 41.0553 26.1631C41.0496 26.1401 41.0446 26.1162 41.0396 26.0925C41.0362 26.0752 41.0322 26.0581 41.0293 26.0403C41.0246 26.0128 41.0213 25.9845 41.0183 25.956C41.0167 25.941 41.0144 25.9262 41.0131 25.911C41.0097 25.8667 41.0076 25.8217 41.0076 25.7757C41.0071 24.8798 41.6932 24.2767 42.4798 24.2767ZM28.5009 35.9934V35.9935C28.4995 35.9941 28.4985 35.9949 28.4975 35.9955C28.4155 36.0479 28.3313 36.0971 28.2457 36.1442C28.2264 36.1549 28.207 36.1651 28.1878 36.1755C28.1117 36.2161 28.0342 36.2547 27.9555 36.2911C27.9418 36.2975 27.9284 36.3044 27.9147 36.3104C27.8219 36.352 27.7278 36.3907 27.6317 36.4265C27.6173 36.4317 27.6024 36.4365 27.588 36.4417C27.5074 36.4709 27.4257 36.4975 27.343 36.5224C27.3179 36.5299 27.293 36.5372 27.2677 36.5444C27.1813 36.5686 27.094 36.5909 27.0053 36.6102C26.9932 36.613 26.981 36.6161 26.9688 36.6189C26.8688 36.64 26.7675 36.6576 26.6645 36.6725C26.6388 36.6762 26.6124 36.6792 26.5864 36.6825C26.5069 36.6929 26.4267 36.7012 26.3457 36.7079C26.3157 36.7102 26.2859 36.7127 26.2559 36.7147C26.1507 36.7212 26.0444 36.7256 25.9367 36.7256H25.9198C25.8517 36.7256 25.7843 36.7239 25.7177 36.721C25.6964 36.72 25.6754 36.7181 25.6542 36.717C25.6089 36.7142 25.5639 36.7117 25.5194 36.7079C25.4952 36.7056 25.4715 36.7026 25.4475 36.7C25.4067 36.6955 25.366 36.6912 25.326 36.6857C25.3015 36.6825 25.2774 36.6784 25.2532 36.6746C25.2139 36.6685 25.175 36.6622 25.1367 36.6551C25.1129 36.6507 25.0898 36.6459 25.0664 36.641C25.028 36.6329 24.9897 36.6249 24.9517 36.6157C24.9295 36.6104 24.9074 36.6047 24.8857 36.599C24.847 36.5891 24.8089 36.5787 24.7712 36.5677C24.7507 36.5619 24.7303 36.5556 24.7102 36.5494C24.6712 36.5371 24.6328 36.5242 24.5947 36.5111C24.5764 36.5047 24.5583 36.4984 24.5405 36.4917C24.5003 36.4769 24.4608 36.4612 24.4215 36.4451C24.4065 36.4389 24.3915 36.4329 24.3768 36.4265C24.334 36.4081 24.2923 36.389 24.2507 36.3691C24.2399 36.3639 24.2288 36.359 24.218 36.3536C24.1709 36.3305 24.1247 36.3061 24.0794 36.2809C24.0747 36.2782 24.07 36.276 24.0654 36.2734C23.7549 36.0992 23.483 35.8779 23.2543 35.6155C23.254 35.6152 23.254 35.615 23.2538 35.6147C22.733 35.0162 22.4385 34.2036 22.4385 33.245C22.4385 31.7008 22.9938 30.2975 23.9497 29.3196L23.9499 29.3195C23.9787 29.2901 24.0087 29.2621 24.038 29.2335C24.0643 29.2077 24.0904 29.1813 24.1175 29.1561C24.1475 29.1285 24.1783 29.1022 24.2089 29.0752C24.2368 29.0505 24.2647 29.0253 24.2934 29.0012C24.324 28.9756 24.3555 28.9511 24.3868 28.9261C24.4168 28.9023 24.4462 28.8783 24.4768 28.8553C24.508 28.8316 24.5403 28.8088 24.5723 28.786C24.6038 28.7633 24.6355 28.7405 24.6675 28.7186C24.6999 28.6966 24.7328 28.6757 24.7658 28.6545C24.7987 28.6333 24.8318 28.6122 24.8655 28.5917C24.8987 28.5715 24.9327 28.5521 24.9665 28.5327C25.001 28.5131 25.0355 28.4935 25.0704 28.4746C25.1047 28.4561 25.1392 28.4385 25.1739 28.4211C25.2099 28.4027 25.2463 28.3848 25.2829 28.3677C25.3177 28.3513 25.3527 28.3353 25.3879 28.3198C25.4258 28.3031 25.4638 28.2871 25.5022 28.2715C25.5374 28.2571 25.5729 28.2427 25.609 28.2292C25.6483 28.2143 25.688 28.2001 25.728 28.1862C25.7642 28.1737 25.7999 28.1611 25.8363 28.1497C25.8777 28.1363 25.9194 28.1241 25.9613 28.112C25.9974 28.1016 26.0334 28.091 26.0698 28.0812C26.1132 28.0697 26.157 28.0595 26.2012 28.0493C26.2373 28.0408 26.2733 28.0321 26.3099 28.0246C26.3558 28.015 26.402 28.0068 26.4483 27.9986C26.4842 27.9922 26.5193 27.9853 26.5554 27.9798C26.6049 27.972 26.6552 27.9661 26.7052 27.96C26.7392 27.9558 26.7725 27.951 26.8068 27.9473C26.8632 27.9416 26.9199 27.9378 26.977 27.9338C27.006 27.9318 27.0347 27.929 27.0639 27.9275C27.1505 27.923 27.2379 27.9206 27.3263 27.9206C27.3925 27.9206 27.4582 27.9222 27.5229 27.9248C27.5453 27.9258 27.5674 27.9277 27.5894 27.9288C27.6313 27.9313 27.6728 27.9337 27.7139 27.9373C27.7407 27.9397 27.7669 27.9428 27.7932 27.9457C27.829 27.9495 27.8644 27.9532 27.8994 27.9578C27.9282 27.9616 27.9563 27.9663 27.9847 27.9706C28.0162 27.9755 28.0478 27.9803 28.0788 27.986C28.1088 27.9912 28.1382 27.9973 28.1677 28.0032C28.196 28.0091 28.2245 28.015 28.2527 28.0215C28.2835 28.0285 28.3137 28.0358 28.344 28.0437C28.3695 28.0502 28.3952 28.057 28.4203 28.064C28.4515 28.0726 28.4829 28.0817 28.5139 28.0913C28.5365 28.0983 28.5589 28.1055 28.5813 28.1128C28.6139 28.1236 28.6459 28.1346 28.6779 28.1461C28.6972 28.1531 28.7163 28.1603 28.7353 28.1678C28.7693 28.181 28.8029 28.194 28.836 28.208C28.851 28.2143 28.8658 28.2211 28.8805 28.2275C28.9169 28.2433 28.9529 28.2593 28.9882 28.2765C28.9967 28.2805 29.0048 28.285 29.0132 28.289C29.2884 28.425 29.5344 28.595 29.7493 28.7938C29.7495 28.7941 29.7498 28.7942 29.75 28.7945C30.4372 29.431 30.8074 30.3606 30.8074 31.4011C30.8069 33.4212 29.9138 35.0895 28.5009 35.9934ZM36.6918 36.1539C36.6842 36.1586 36.6766 36.1635 36.6692 36.168C36.6217 36.1974 36.5734 36.2256 36.5248 36.2531C36.5132 36.2597 36.5013 36.2661 36.4896 36.2725C36.3479 36.3505 36.2019 36.4206 36.0512 36.4822C36.0261 36.4925 36.0014 36.503 35.9762 36.5129C35.9381 36.5275 35.8994 36.5416 35.8604 36.5551C35.8278 36.5667 35.7949 36.5779 35.7621 36.5886C35.7262 36.6004 35.6906 36.6119 35.6542 36.6226C35.6121 36.6351 35.5697 36.6465 35.5272 36.6576C35.4982 36.6651 35.4696 36.6735 35.4403 36.6805C35.3703 36.6974 35.2992 36.7121 35.2277 36.7255C35.2022 36.7302 35.1763 36.734 35.1506 36.7381C35.0989 36.7467 35.0468 36.7549 34.9943 36.7616C34.9662 36.7652 34.9377 36.7686 34.9093 36.7716C34.8557 36.7774 34.8014 36.7821 34.7469 36.786C34.7216 36.7877 34.6964 36.7899 34.6709 36.7912C34.5912 36.7955 34.5112 36.7984 34.4299 36.7984C33.7773 36.7984 33.2084 36.6261 32.9238 36.4537H32.8736L32.2209 40.0206H29.8107L31.4007 31.4397C31.5843 30.4403 31.7684 28.9758 31.8688 28.1142H34.0279L33.8774 29.4066H33.9108C34.5803 28.4933 35.5508 27.9936 36.5384 27.9936C36.5942 27.9936 36.6489 27.9951 36.7029 27.9978C36.7167 27.9985 36.7297 28.0001 36.7432 28.001C36.7832 28.0038 36.8232 28.0063 36.8622 28.0106C36.8779 28.0123 36.8932 28.0148 36.9088 28.017C36.9449 28.0215 36.9812 28.0258 37.0164 28.0316C37.0308 28.0341 37.0452 28.0373 37.0596 28.0401C37.0952 28.0466 37.1306 28.0531 37.1651 28.0607C37.1783 28.0637 37.1906 28.0675 37.2034 28.0706C37.2391 28.0792 37.2742 28.0878 37.3087 28.0977C37.3194 28.1008 37.3294 28.1047 37.3402 28.1078C37.3763 28.1188 37.4121 28.13 37.4471 28.1425C37.4556 28.1456 37.4633 28.149 37.4718 28.1521C37.5084 28.1657 37.5447 28.1795 37.5803 28.1946C37.5867 28.1973 37.5924 28.2003 37.5988 28.2031C37.6356 28.2192 37.6726 28.2361 37.7083 28.254C37.7131 28.2563 37.7174 28.2591 37.7222 28.2615C37.7588 28.2803 37.7951 28.2996 37.8307 28.3203C37.8341 28.3225 37.8376 28.3246 37.8412 28.327C37.8776 28.3482 37.9131 28.3703 37.9478 28.3936C37.9499 28.395 37.9517 28.3965 37.9539 28.3977C37.9901 28.422 38.0254 28.4471 38.0597 28.4733C38.0608 28.474 38.0616 28.4748 38.0627 28.4755C38.0979 28.5025 38.1327 28.5303 38.1664 28.5592C38.1667 28.5593 38.1669 28.5596 38.1669 28.5597C38.8467 29.1431 39.1829 30.1176 39.1829 31.1987C39.1827 33.2484 38.2448 35.1855 36.6918 36.1539ZM41.5928 36.5966H41.1966H39.2516H39.1826L40.6608 28.5945L40.7392 28.1707H41.6478H43.1326L41.5928 36.5966ZM46.83 30.067L45.6251 36.5972H43.6474H43.2151L44.4201 30.0668H43.3656L43.7002 28.1715H44.7712L44.8383 27.7407C45.0031 26.8318 45.3292 25.8962 45.9822 25.203C45.9919 25.1926 46.0022 25.1823 46.0122 25.172C46.0807 25.1011 46.1513 25.032 46.2272 24.9666C46.8967 24.3978 47.7672 24.174 48.5705 24.174C49.1397 24.174 49.575 24.2602 49.8425 24.3807L49.4573 26.1878L49.424 26.3451C49.2647 26.2821 49.0871 26.238 48.8856 26.2187H48.8853C48.8113 26.2116 48.7348 26.2072 48.654 26.2072C47.8673 26.2072 47.3822 26.9136 47.2316 27.7581L47.1645 28.1716H47.1978H48.7711L48.4198 30.067H47.5434H46.83ZM48.2577 33.4674L48.7232 35.6841C48.5942 35.8242 48.4435 35.957 48.2748 36.0781C48.2682 36.0827 48.2616 36.0874 48.2553 36.0921C48.1537 36.1669 47.9845 36.2689 47.7218 36.3714L48.2577 33.4674ZM54.3736 34.2565C53.286 36.4965 52.315 38.0301 51.2272 39.0811C50.273 40.0116 49.1352 40.4251 48.5996 40.5112L48.0637 38.392C48.4488 38.2714 48.9845 38.0646 49.453 37.7201C50.0053 37.3239 50.474 36.8241 50.792 36.2555C50.8588 36.1347 50.8588 36.0316 50.8253 35.8592L49.2187 28.2088H50.7917H51.746L52.2481 31.879C52.3652 32.7577 52.4488 33.3609 52.516 33.895H52.5493C52.7332 33.3781 52.9175 32.8266 53.2691 31.9135L54.7586 28.2088H57.3026L54.3736 34.2565Z" fill="#C33DAB"/>
</svg>
