<svg width="64" height="64" viewBox="0 0 64 64" fill="none" xmlns="http://www.w3.org/2000/svg">
<path d="M17.1422 25.0557V38.1915C17.2052 38.1894 17.2681 38.1867 17.3317 38.1867C20.4212 38.1867 22.9258 40.6914 22.9258 43.7809C22.9258 46.8704 20.4212 49.375 17.3317 49.375C17.2682 49.375 17.2053 49.3724 17.1422 49.3703V59.3939C17.1422 61.42 18.7847 63.0625 20.8108 63.0625H46.9195C48.9456 63.0625 50.5881 61.42 50.5881 59.3939V39.875V35.5V4.60612C50.5881 2.58 48.9456 0.9375 46.9195 0.9375H20.811C18.7848 0.9375 17.1423 2.58 17.1423 4.60612V10" stroke="#FF800B" stroke-width="1.81641" stroke-miterlimit="10" stroke-linecap="round" stroke-linejoin="round"/>
<path d="M29.6249 54.6245H50.5882" stroke="#FF800B" stroke-width="1.81641" stroke-miterlimit="10" stroke-linecap="round" stroke-linejoin="round"/>
<path d="M17.1422 54.6245H25.25" stroke="#FF800B" stroke-width="1.81641" stroke-miterlimit="10" stroke-linecap="round" stroke-linejoin="round"/>
<path d="M30.1427 58.8022H37.5878" stroke="#FF800B" stroke-width="1.81641" stroke-miterlimit="10" stroke-linecap="round" stroke-linejoin="round"/>
<path d="M34.0123 13.8125C34.0123 12.3962 34.4561 11.0824 35.2101 10H15.1373C14.3506 10 13.7128 10.6378 13.7128 11.4245V23.6314C13.7128 24.4181 14.3506 25.0559 15.1373 25.0559H20.3837V28.9199C20.3837 29.2992 20.8413 29.4905 21.1113 29.224L25.3331 25.0559H37.6907C38.4775 25.0559 39.1152 24.4181 39.1152 23.6314V20.3087C36.1903 19.5951 34.0123 16.954 34.0123 13.8125Z" stroke="#FF800B" stroke-width="1.81641" stroke-miterlimit="10" stroke-linecap="round" stroke-linejoin="round"/>
<path d="M22.0218 14.0537H17.8873" stroke="#FF800B" stroke-width="1.81641" stroke-miterlimit="10" stroke-linecap="round" stroke-linejoin="round"/>
<path d="M33.875 14.0537H24.8707" stroke="#FF800B" stroke-width="1.81641" stroke-miterlimit="10" stroke-linecap="round" stroke-linejoin="round"/>
<path d="M34.8963 17.5278H17.8873" stroke="#FF800B" stroke-width="1.81641" stroke-miterlimit="10" stroke-linecap="round" stroke-linejoin="round"/>
<path d="M34.8963 21.0024H17.8873" stroke="#FF800B" stroke-width="1.81641" stroke-miterlimit="10" stroke-linecap="round" stroke-linejoin="round"/>
<circle cx="46.2062" cy="5.15527" r="0.9375" fill="#FF800B"/>
<circle cx="21.5243" cy="5.15527" r="0.9375" fill="#FF800B"/>
<circle cx="25.0854" cy="5.15527" r="0.9375" fill="#FF800B"/>
<path d="M29.4987 30.2671H33.3743V34.132H28.8431V30.9227C28.8431 30.5606 29.1366 30.2671 29.4987 30.2671Z" stroke="#FF800B" stroke-width="1.81641" stroke-miterlimit="10" stroke-linecap="round" stroke-linejoin="round"/>
<path d="M42.5809 30.2671C42.9431 30.2671 43.2366 30.5606 43.2366 30.9227V34.132H38.7053V30.2671H42.5809Z" stroke="#FF800B" stroke-width="1.81641" stroke-miterlimit="10" stroke-linecap="round" stroke-linejoin="round"/>
<path d="M38.7053 34.1321V29.4569C38.7053 29.0948 38.4118 28.8013 38.0497 28.8013H34.03C33.6678 28.8013 33.3743 29.0948 33.3743 29.4569V34.1321H38.7053Z" stroke="#FF800B" stroke-width="1.81641" stroke-miterlimit="10" stroke-linecap="round" stroke-linejoin="round"/>
<path d="M28.8983 44.7942C30.2318 44.7942 31.3333 45.7744 31.5295 47.0529H39.9723C40.1685 45.7744 41.27 44.7942 42.6035 44.7942C43.0619 44.7942 43.493 44.9101 43.8697 45.1138L47.384 34.1323H25.0434C24.5992 34.1323 24.2835 34.5647 24.419 34.9878L27.656 45.1023C28.027 44.9063 28.4494 44.7942 28.8983 44.7942Z" stroke="#FF800B" stroke-width="1.81641" stroke-miterlimit="10" stroke-linecap="round" stroke-linejoin="round"/>
<path d="M28.8983 50.1249C30.3704 50.1249 31.5638 48.9316 31.5638 47.4594C31.5638 45.9873 30.3704 44.7939 28.8983 44.7939C27.4262 44.7939 26.2328 45.9873 26.2328 47.4594C26.2328 48.9316 27.4262 50.1249 28.8983 50.1249Z" stroke="#FF800B" stroke-width="1.81641" stroke-miterlimit="10" stroke-linecap="round" stroke-linejoin="round"/>
<path d="M42.6034 50.1249C44.0755 50.1249 45.2689 48.9316 45.2689 47.4594C45.2689 45.9873 44.0755 44.7939 42.6034 44.7939C41.1313 44.7939 39.9379 45.9873 39.9379 47.4594C39.9379 48.9316 41.1313 50.1249 42.6034 50.1249Z" stroke="#FF800B" stroke-width="1.81641" stroke-miterlimit="10" stroke-linecap="round" stroke-linejoin="round"/>
<path d="M30.4423 37.4639V41.462" stroke="#FF800B" stroke-width="1.81641" stroke-miterlimit="10" stroke-linecap="round" stroke-linejoin="round"/>
<path d="M34.0406 37.4639V41.462" stroke="#FF800B" stroke-width="1.81641" stroke-miterlimit="10" stroke-linecap="round" stroke-linejoin="round"/>
<path d="M37.639 37.4639V41.462" stroke="#FF800B" stroke-width="1.81641" stroke-miterlimit="10" stroke-linecap="round" stroke-linejoin="round"/>
<path d="M41.2374 37.4639V41.462" stroke="#FF800B" stroke-width="1.81641" stroke-miterlimit="10" stroke-linecap="round" stroke-linejoin="round"/>
<path d="M44.9462 41.7498L48.2848 31.3178C48.3677 31.0589 48.6083 30.8833 48.88 30.8833H52.2624" stroke="#FF800B" stroke-width="1.81641" stroke-miterlimit="10" stroke-linecap="round" stroke-linejoin="round"/>
<path d="M43.3338 7.6665C42.525 7.3185 41.6347 7.125 40.6998 7.125C37.0123 7.125 34.0123 10.125 34.0123 13.8125C34.0123 17.5 37.0123 20.5 40.6998 20.5C44.3873 20.5 47.3873 17.5 47.3873 13.8125C47.3873 12.6552 47.0916 11.5657 46.5721 10.6154" stroke="#FF800B" stroke-width="1.81641" stroke-miterlimit="10" stroke-linecap="round" stroke-linejoin="round"/>
<path d="M42.3994 11.3755H40.0265C39.3535 11.3755 38.808 11.921 38.808 12.594C38.808 13.267 39.3535 13.8125 40.0265 13.8125H41.3732C42.0462 13.8125 42.5917 14.358 42.5917 15.031C42.5917 15.704 42.0462 16.2495 41.3732 16.2495H39.0005" stroke="#FF800B" stroke-width="1.81641" stroke-miterlimit="10" stroke-linecap="round" stroke-linejoin="round"/>
<path d="M40.6998 10.125V11.2794" stroke="#FF800B" stroke-width="1.81641" stroke-miterlimit="10" stroke-linecap="round" stroke-linejoin="round"/>
<path d="M40.6998 16.3457V17.5001" stroke="#FF800B" stroke-width="1.81641" stroke-miterlimit="10" stroke-linecap="round" stroke-linejoin="round"/>
<path d="M17.3317 49.3753C20.4213 49.3753 22.9259 46.8707 22.9259 43.7811C22.9259 40.6916 20.4213 38.187 17.3317 38.187C14.2422 38.187 11.7376 40.6916 11.7376 43.7811C11.7376 46.8707 14.2422 49.3753 17.3317 49.3753Z" stroke="#FF800B" stroke-width="1.81641" stroke-miterlimit="10" stroke-linecap="round" stroke-linejoin="round"/>
<path d="M14.4311 42.7449L17.3317 45.4384L22.7187 37.9795" stroke="#FF800B" stroke-width="1.81641" stroke-miterlimit="10" stroke-linecap="round" stroke-linejoin="round"/>
</svg>
