<svg width="64" height="64" viewBox="0 0 64 64" fill="none" xmlns="http://www.w3.org/2000/svg">
<g clip-path="url(#clip0_129_206)">
<path d="M21.5638 52.5638C21.6254 52.5751 21.688 52.5807 21.7506 52.5806C22.2932 52.5795 22.7454 52.1647 22.7934 51.6242C22.8414 51.0836 22.4692 50.5957 21.9352 50.4991C17.5016 49.6998 13.3822 47.6692 10.048 44.6394C11.0505 44.0955 12.1019 43.6469 13.1882 43.2996C13.5743 44.0413 13.9814 44.7611 14.4231 45.442C14.7383 45.9284 15.3882 46.0673 15.8747 45.752C16.3611 45.4368 16.4999 44.7869 16.1847 44.3005C15.8521 43.7874 15.5426 43.2513 15.2404 42.6973C17.0965 42.2379 18.9822 41.9077 20.884 41.709C21.4518 41.6374 21.8574 41.1238 21.7956 40.5548C21.7338 39.9858 21.2273 39.5713 20.6573 39.6232C18.5122 39.8463 16.387 40.2321 14.3004 40.7774C12.5638 36.6688 11.6378 32.2632 11.5735 27.8032H15.4335C16.0129 27.8032 16.4827 27.3335 16.4827 26.754C16.4827 26.1746 16.0129 25.7048 15.4335 25.7048H11.5567C11.6314 21.2455 12.5573 16.8415 14.2846 12.7296C17.8482 13.6288 21.5053 14.1046 25.1804 14.1471V24.0786C25.1804 24.658 25.6501 25.1278 26.2295 25.1278C26.809 25.1278 27.2787 24.658 27.2787 24.0786V14.1471C30.9381 14.1049 34.5799 13.6334 38.1293 12.7422C39.8819 16.8525 40.8218 21.2633 40.8971 25.7311C40.8988 26.011 41.0144 26.2782 41.2173 26.4712C41.4201 26.6642 41.6928 26.7663 41.9725 26.754C42.5516 26.7391 43.0091 26.2577 42.9944 25.6786C42.9212 21.0209 41.9675 16.419 40.1836 12.1158C41.5035 11.6775 42.7703 11.0934 43.9607 10.3742C47.8549 14.5737 50.1209 20.0263 50.3502 25.7489C50.3745 26.3283 50.864 26.7783 51.4434 26.754C52.0229 26.7297 52.4729 26.2402 52.4486 25.6608C51.8755 11.9356 40.8099 0.97762 27.0798 0.538751C13.3498 0.0998824 1.60693 10.3288 0.158563 23.9894C-1.28981 37.6499 8.04699 50.1138 21.5638 52.5638ZM12.2754 41.3932C10.9621 41.8304 9.70126 42.4121 8.51622 43.1275C4.64251 38.9365 2.38425 33.5052 2.14455 27.8032H9.47517C9.54173 32.4694 10.4919 37.0808 12.2754 41.3932ZM15.2184 10.8065C17.6945 6.19637 21.2228 3.14745 25.1804 2.68896V12.0466C21.8239 12.0054 18.4825 11.5894 15.2184 10.8065ZM27.2787 12.0487V2.69315C31.1733 3.16424 34.6985 6.2226 37.1882 10.8233C33.9404 11.596 30.617 12.007 27.2787 12.0487ZM42.4215 8.85919C41.4169 9.40597 40.3631 9.857 39.274 10.2063C38.1502 7.97619 36.6548 5.95381 34.8517 4.22601C37.6409 5.28667 40.208 6.85789 42.4215 8.85919ZM13.2124 10.2158C12.1182 9.86687 11.0597 9.41474 10.0512 8.86548C12.2823 6.8483 14.8701 5.26495 17.6819 4.19663C15.8611 5.93471 14.3497 7.97019 13.2124 10.2158ZM8.52147 10.3868C9.71404 11.1047 10.9826 11.6881 12.3038 12.1263C10.5047 16.4316 9.53945 21.0394 9.45944 25.7048H2.12462C2.36971 20.0011 4.63737 14.5709 8.52147 10.3868Z" fill="#0084FF"/>
<path d="M60.4496 28.8523H23.957L23.3442 25.4834C23.0233 23.7052 21.5986 22.3329 19.8096 22.0788L15.8867 21.5186C15.313 21.4363 14.7813 21.8346 14.699 22.4083C14.6167 22.9819 15.015 23.5137 15.5887 23.596L19.5126 24.1562C20.4068 24.2839 21.1189 24.9694 21.2805 25.858L22.4524 32.3052L24.8656 45.5584V45.5668V45.5847L26.0679 52.1945C24.1598 52.8996 23.0321 54.8717 23.3922 56.8738C23.7522 58.8759 25.4962 60.3316 27.5305 60.3278H28.4747C28.9458 62.1787 30.6125 63.4743 32.5225 63.4743C34.4324 63.4743 36.0991 62.1787 36.5702 60.3278H49.4604C49.9315 62.1787 51.5982 63.4743 53.5082 63.4743C55.4182 63.4743 57.0848 62.1787 57.5559 60.3278H59.8033C60.3827 60.3278 60.8524 59.858 60.8524 59.2786C60.8524 58.6991 60.3827 58.2294 59.8033 58.2294H57.5559C57.0848 56.3784 55.4182 55.0828 53.5082 55.0828C51.5982 55.0828 49.9315 56.3784 49.4604 58.2294H36.5723C36.1012 56.3784 34.4345 55.0828 32.5246 55.0828C30.6146 55.0828 28.9479 56.3784 28.4768 58.2294H27.5326C26.4404 58.2264 25.533 57.3861 25.4465 56.2974C25.3599 55.2086 26.123 54.2355 27.201 54.06L27.4465 54.019L35.5168 52.7181H35.5221L58.4991 49.0134C59.8219 48.7997 60.8644 47.772 61.0969 46.4523L63.5509 32.5486C63.7133 31.6317 63.4613 30.69 62.8628 29.9767C62.2643 29.2634 61.3807 28.8517 60.4496 28.8523ZM53.5082 57.1802C54.6671 57.1802 55.6065 58.1197 55.6065 59.2786C55.6065 60.4375 54.6671 61.3769 53.5082 61.3769C52.3493 61.3769 51.4098 60.4375 51.4098 59.2786C51.4098 58.1197 52.3493 57.1802 53.5082 57.1802ZM32.5246 57.1802C33.6835 57.1802 34.6229 58.1197 34.6229 59.2786C34.6229 60.4375 33.6835 61.3769 32.5246 61.3769C31.3657 61.3769 30.4262 60.4375 30.4262 59.2786C30.4262 58.1197 31.3657 57.1802 32.5246 57.1802ZM27.1423 46.3674L33.857 45.6182L34.2977 50.7876L28.1233 51.7832L27.1423 46.3674ZM25.8486 39.255L33.2831 38.8405L33.6829 43.5272L26.7656 44.2984L25.8486 39.255ZM41.9672 36.2543L35.201 36.632L34.7163 30.9507H41.9672V36.2543ZM44.0656 30.9507H51.0951L50.6995 35.7675L44.0656 36.1379V30.9507ZM41.9672 38.3569V42.6029L35.7697 43.2943L35.3794 38.7241L41.9672 38.3569ZM35.948 45.3864L41.9672 44.7139V49.5516L36.3803 50.4529L35.948 45.3864ZM44.0656 44.4851L50.0459 43.8189L49.6766 48.3136L44.0656 49.2127V44.4851ZM44.0656 42.3742V38.2394L50.5316 37.8784L50.2169 41.6828L44.0656 42.3742ZM52.6468 37.7662L60.5765 37.3234L59.9984 40.5969L52.3394 41.4509L52.6468 37.7662ZM61.2501 31.3305C61.451 31.5675 61.5353 31.882 61.4798 32.1877L60.9479 35.2009L52.8168 35.6542L53.205 30.9507H60.4496C60.76 30.9489 61.0549 31.0864 61.2532 31.3253L61.2501 31.3305ZM32.6106 30.9507L33.1048 36.7485L25.4709 37.1744L24.341 30.9507H32.6106ZM58.1634 46.9392L51.8096 47.9642L52.1694 43.5765L59.6186 42.7456L59.029 46.0862C58.9512 46.5257 58.604 46.8679 58.1634 46.9392Z" fill="#0084FF"/>
</g>
<defs>
<clipPath id="clip0_129_206">
<rect width="64" height="64" fill="white"/>
</clipPath>
</defs>
</svg>
