<svg width="98" height="100" viewBox="0 0 98 100" fill="none" xmlns="http://www.w3.org/2000/svg">
<rect y="0.222656" width="98" height="98.8533" rx="5" fill="#FFC700"/>
<g clip-path="url(#clip0_67_211)">
<mask id="mask0_67_211" style="mask-type:luminance" maskUnits="userSpaceOnUse" x="20" y="21" width="58" height="58">
<path d="M20 21H78V79H20V21Z" fill="white"/>
</mask>
<g mask="url(#mask0_67_211)">
<path d="M77.1504 60.323H20.8496V52.8183H77.1504V60.323Z" stroke="white" stroke-width="1.73529"/>
<path d="M30.3842 22.7994H77.1504V52.8181H20.8496V22.7994H28.7037" stroke="white" stroke-width="1.73529"/>
<path d="M57.4961 77.2004H64.9319V69.6958H33.0526V77.2004H55.7969" stroke="white" stroke-width="1.73529"/>
</g>
<path d="M57.5731 69.6958L56.0591 60.3228H41.9253L40.4113 69.6958H57.5731Z" stroke="white" stroke-width="1.73529"/>
<mask id="mask1_67_211" style="mask-type:luminance" maskUnits="userSpaceOnUse" x="20" y="21" width="58" height="58">
<path d="M20 21H78V79H20V21Z" fill="white"/>
</mask>
<g mask="url(#mask1_67_211)">
<path d="M49 38.1056H39.1061C39.2631 43.4351 43.6324 47.7075 49 47.7075C49.0019 47.7075 49.0039 47.7074 49.0057 47.7074L49 38.1056Z" stroke="white" stroke-width="1.73529"/>
<path d="M49 38.1056H39.1061C39.2631 43.4351 43.6324 47.7075 49 47.7075C49.0019 47.7075 49.0039 47.7074 49.0057 47.7074L49 38.1056Z" stroke="white" stroke-width="1.73529"/>
<path d="M56.6602 31.5396C54.8449 29.3241 52.0877 27.9102 49 27.9102C43.5332 27.9102 39.1014 32.3419 39.1014 37.8088C39.1014 37.908 39.1033 38.0069 39.1061 38.1055H49L56.6602 31.5396Z" stroke="white" stroke-width="1.73529"/>
<path d="M56.6585 31.5414L49 38.1058L49.0058 47.7076C49.0039 47.7076 49.0019 47.7078 49 47.7078C54.4668 47.7078 58.8986 43.276 58.8986 37.8091C58.8986 35.4299 58.0573 33.2484 56.6585 31.5414Z" stroke="white" stroke-width="1.73529"/>
<path d="M24.6445 56.7898H26.3579" stroke="white" stroke-width="1.73529"/>
<path d="M28.043 56.7898H29.7563" stroke="white" stroke-width="1.73529"/>
<path d="M31.4414 56.7898H33.1548" stroke="white" stroke-width="1.73529"/>
<path d="M69.5924 37.8091H62.7318" stroke="white" stroke-width="1.73529"/>
<path d="M72.9908 37.8091H71.2916" stroke="white" stroke-width="1.73529"/>
<path d="M28.4076 37.8091H35.2682" stroke="white" stroke-width="1.73529"/>
<path d="M25.0092 37.8091H26.7084" stroke="white" stroke-width="1.73529"/>
</g>
</g>
<defs>
<clipPath id="clip0_67_211">
<rect width="58" height="58" fill="white" transform="translate(20 21)"/>
</clipPath>
</defs>
</svg>
