<svg width="98" height="99" viewBox="0 0 98 99" fill="none" xmlns="http://www.w3.org/2000/svg">
<rect y="0.297363" width="98" height="98.704" rx="5" fill="#FF800B"/>
<path d="M41 31.0229H39C38.448 31.0229 38 30.5739 38 30.0229H36C36 31.6769 37.346 33.0229 39 33.0229H41C42.654 33.0229 44 31.6769 44 30.0229C44 28.3689 42.654 27.0229 41 27.0229H39C38.448 27.0229 38 26.5739 38 26.0229C38 25.4719 38.448 25.0229 39 25.0229H41C41.552 25.0229 42 25.4719 42 26.0229H44C44 24.3689 42.654 23.0229 41 23.0229H39C37.346 23.0229 36 24.3689 36 26.0229C36 27.6769 37.346 29.0229 39 29.0229H41C41.552 29.0229 42 29.4719 42 30.0229C42 30.5739 41.552 31.0229 41 31.0229Z" fill="white"/>
<path d="M49 33.0229H52V31.0229H49C48.448 31.0229 48 30.5739 48 30.0229V29.0229H52V27.0229H48V26.0229C48 25.4719 48.448 25.0229 49 25.0229H52V23.0229H49C47.346 23.0229 46 24.3689 46 26.0229V30.0229C46 31.6769 47.346 33.0229 49 33.0229Z" fill="white"/>
<path d="M57 33.0229H59C60.654 33.0229 62 31.6769 62 30.0229V26.0229C62 24.3689 60.654 23.0229 59 23.0229H57C55.346 23.0229 54 24.3689 54 26.0229V30.0229C54 31.6769 55.346 33.0229 57 33.0229ZM56 26.0229C56 25.4719 56.448 25.0229 57 25.0229H59C59.552 25.0229 60 25.4719 60 26.0229V30.0229C60 30.5739 59.552 31.0229 59 31.0229H57C56.448 31.0229 56 30.5739 56 30.0229V26.0229Z" fill="white"/>
<path d="M80 41H76V38C76 35.243 73.757 33 71 33H66V22.0229C66 20.3689 64.654 19.0229 63 19.0229H35C33.346 19.0229 32 20.3689 32 22.0229V33H27C24.243 33 22 35.243 22 38V44.082C19.613 45.468 18 48.047 18 51C18 53.953 19.613 56.532 22 57.918V66C22 68.757 24.243 71 27 71H39V75H38C35.243 75 33 77.243 33 80V81H65V80C65 77.243 62.757 75 60 75H59V71H71C73.757 71 76 68.757 76 66V59H80V41ZM34 22.0229C34 21.4719 34.448 21.0229 35 21.0229H63C63.552 21.0229 64 21.4719 64 22.0229V34.023C64 34.574 63.552 35.023 63 35.023H52.698L46.833 38.9109C46.5 39.135 46 38.865 46 38.4629V35.023H35C34.448 35.023 34 34.574 34 34.023V22.0229ZM24 38C24 36.346 25.346 35 27 35H32.177C32.585 36.173 33.689 37.023 35 37.023H44V38.4629C44 39.8619 45.138 41 46.537 41C47.037 41 47.521 40.854 47.938 40.5779L53.301 37.023H63C64.31 37.023 65.415 36.173 65.823 35H71C72.654 35 74 36.346 74 38V41H66V50H60V45H54V57H52V43H46V57H44V47H38V50H33.931C33.436 46.06 30.072 43 26 43C25.308 43 24.641 43.097 24 43.263V38ZM56 57V47H58V57H56ZM50 57H48V45H50V57ZM42 57H40V49H42V57ZM20 51C20 47.691 22.691 45 26 45C29.309 45 32 47.691 32 51C32 54.309 29.309 57 26 57C22.691 57 20 54.309 20 51ZM62.829 79H35.171C35.584 77.836 36.696 77 38 77H60C61.304 77 62.416 77.836 62.829 79ZM57 75H41V71H57V75ZM71 69H27C25.346 69 24 67.654 24 66V63H74V66C74 67.654 72.654 69 71 69ZM74 61H24V58.737C24.641 58.903 25.308 59 26 59C30.072 59 33.436 55.94 33.931 52H38V57H36V59H62V57H60V52H66V59H74V61ZM78 57H68V43H78V57Z" fill="white"/>
<path d="M45 67C45.5523 67 46 66.5523 46 66C46 65.4477 45.5523 65 45 65C44.4477 65 44 65.4477 44 66C44 66.5523 44.4477 67 45 67Z" fill="white"/>
<path d="M49 67C49.5523 67 50 66.5523 50 66C50 65.4477 49.5523 65 49 65C48.4477 65 48 65.4477 48 66C48 66.5523 48.4477 67 49 67Z" fill="white"/>
<path d="M53 67C53.5523 67 54 66.5523 54 66C54 65.4477 53.5523 65 53 65C52.4477 65 52 65.4477 52 66C52 66.5523 52.4477 67 53 67Z" fill="white"/>
<path d="M30 51C30 48.794 28.206 47 26 47C23.794 47 22 48.794 22 51C22 53.206 23.794 55 26 55C28.206 55 30 53.206 30 51ZM24 51C24 49.897 24.897 49 26 49C27.103 49 28 49.897 28 51C28 52.103 27.103 53 26 53C24.897 53 24 52.103 24 51Z" fill="white"/>
<path d="M70 45H76V47H70V45Z" fill="white"/>
<path d="M70 49H76V51H70V49Z" fill="white"/>
<path d="M70 53H76V55H70V53Z" fill="white"/>
</svg>
