<svg width="98" height="99" viewBox="0 0 98 99" fill="none" xmlns="http://www.w3.org/2000/svg">
<rect y="0.649414" width="98" height="98" rx="5" fill="#0085FF"/>
<path d="M76 28.9999H61.637C60.9644 26.1537 59.3507 23.6178 57.0572 21.803C54.7637 19.9883 51.9246 19.001 49 19.001C46.0754 19.001 43.2363 19.9883 40.9428 21.803C38.6493 23.6178 37.0356 26.1537 36.363 28.9999H22C20.9391 28.9999 19.9217 29.4214 19.1716 30.1715C18.4214 30.9217 18 31.9391 18 32.9999V66.9999C18 68.0608 18.4214 69.0782 19.1716 69.8284C19.9217 70.5785 20.9391 70.9999 22 70.9999H41.82L41.153 74.9999H38C37.7348 74.9999 37.4804 75.1053 37.2929 75.2928C37.1054 75.4804 37 75.7347 37 75.9999V79.9999C37 80.2651 37.1054 80.5195 37.2929 80.707C37.4804 80.8946 37.7348 80.9999 38 80.9999H60C60.2652 80.9999 60.5196 80.8946 60.7071 80.707C60.8946 80.5195 61 80.2651 61 79.9999V75.9999C61 75.7347 60.8946 75.4804 60.7071 75.2928C60.5196 75.1053 60.2652 74.9999 60 74.9999H56.847L56.18 70.9999H76C77.0609 70.9999 78.0783 70.5785 78.8284 69.8284C79.5786 69.0782 80 68.0608 80 66.9999V32.9999C80 31.9391 79.5786 30.9217 78.8284 30.1715C78.0783 29.4214 77.0609 28.9999 76 28.9999ZM49 20.9999C51.1756 20.9999 53.3023 21.6451 55.1113 22.8538C56.9202 24.0625 58.3301 25.7804 59.1627 27.7904C59.9952 29.8004 60.2131 32.0121 59.7886 34.1459C59.3642 36.2797 58.3166 38.2397 56.7782 39.7781C55.2398 41.3165 53.2798 42.3641 51.146 42.7886C49.0122 43.213 46.8005 42.9952 44.7905 42.1626C42.7805 41.33 41.0625 39.9201 39.8538 38.1112C38.6451 36.3023 38 34.1755 38 31.9999C38.0034 29.0836 39.1635 26.2877 41.2256 24.2256C43.2878 22.1634 46.0837 21.0034 49 20.9999ZM22 30.9999H36.051C36.025 31.3309 36 31.6619 36 31.9999C36 35.4477 37.3696 38.7543 39.8076 41.1923C42.2456 43.6303 45.5522 44.9999 49 44.9999C52.4478 44.9999 55.7544 43.6303 58.1924 41.1923C60.6304 38.7543 62 35.4477 62 31.9999C62 31.6619 61.975 31.3309 61.949 30.9999H76C76.5304 30.9999 77.0391 31.2106 77.4142 31.5857C77.7893 31.9608 78 32.4695 78 32.9999V60.9999H20V32.9999C20 32.4695 20.2107 31.9608 20.5858 31.5857C20.9609 31.2106 21.4696 30.9999 22 30.9999ZM59 78.9999H39V76.9999H59V78.9999ZM54.82 74.9999H43.18L43.847 70.9999H54.153L54.82 74.9999ZM76 68.9999H22C21.4696 68.9999 20.9609 68.7892 20.5858 68.4141C20.2107 68.0391 20 67.5304 20 66.9999V62.9999H78V66.9999C78 67.5304 77.7893 68.0391 77.4142 68.4141C77.0391 68.7892 76.5304 68.9999 76 68.9999Z" fill="white"/>
<path d="M46 65H52V67H46V65Z" fill="white"/>
<path d="M49 36.9999C50.4001 37.0037 51.787 36.7298 53.0806 36.1941C54.3741 35.6583 55.5486 34.8714 56.536 33.8789L57.707 32.7069C57.8945 32.5194 57.9998 32.2651 57.9998 31.9999C57.9998 31.7347 57.8945 31.4804 57.707 31.2929L56.536 30.1209C54.5372 28.1226 51.8265 27 49 27C46.1736 27 43.4629 28.1226 41.464 30.1209L40.293 31.2929C40.1056 31.4804 40.0002 31.7347 40.0002 31.9999C40.0002 32.2651 40.1056 32.5194 40.293 32.7069L41.464 33.8789C42.4515 34.8714 43.626 35.6583 44.9195 36.1941C46.213 36.7298 47.6 37.0037 49 36.9999ZM49 29.9999C49.3956 29.9999 49.7823 30.1172 50.1112 30.337C50.4401 30.5567 50.6964 30.8691 50.8478 31.2345C50.9992 31.6 51.0388 32.0021 50.9616 32.3901C50.8844 32.778 50.694 33.1344 50.4142 33.4141C50.1345 33.6938 49.7782 33.8843 49.3902 33.9615C49.0023 34.0386 48.6001 33.999 48.2347 33.8477C47.8692 33.6963 47.5569 33.4399 47.3371 33.111C47.1173 32.7821 47 32.3955 47 31.9999C47 31.4695 47.2107 30.9608 47.5858 30.5857C47.9609 30.2106 48.4696 29.9999 49 29.9999ZM55.586 31.9999L55.122 32.4649C54.2857 33.3008 53.2868 33.9564 52.187 34.3909C52.7143 33.7053 53.0001 32.8647 53.0001 31.9999C53.0001 31.135 52.7143 30.2944 52.187 29.6089C53.2868 30.0434 54.2857 30.6989 55.122 31.5349L55.586 31.9999ZM42.878 31.5349C43.7144 30.6989 44.7133 30.0434 45.813 29.6089C45.2858 30.2944 44.9999 31.135 44.9999 31.9999C44.9999 32.8647 45.2858 33.7053 45.813 34.3909C44.7133 33.9564 43.7144 33.3008 42.878 32.4649L42.414 31.9999L42.878 31.5349Z" fill="white"/>
<path d="M48 38H50V41H48V38Z" fill="white"/>
<path d="M53.2873 37.7092L54.7015 36.295L56.7012 38.2947L55.287 39.7089L53.2873 37.7092Z" fill="white"/>
<path d="M41.2883 38.2937L43.288 36.294L44.7022 37.7082L42.7025 39.7079L41.2883 38.2937Z" fill="white"/>
<path d="M48 23H50V26H48V23Z" fill="white"/>
<path d="M53.2883 26.2957L55.288 24.296L56.7022 25.7102L54.7025 27.7099L53.2883 26.2957Z" fill="white"/>
<path d="M41.2893 25.7092L42.7035 24.295L44.7032 26.2947L43.289 27.7089L41.2893 25.7092Z" fill="white"/>
<path d="M60 46.414L63.293 49.707C63.3943 49.8083 63.5162 49.8866 63.6504 49.9367C63.7846 49.9868 63.928 50.0075 64.0709 49.9973C64.2138 49.9872 64.3528 49.9465 64.4786 49.8779C64.6044 49.8093 64.714 49.7146 64.8 49.6L70.232 42.356L72.445 43.832C72.6373 43.9602 72.8682 44.0179 73.0983 43.9951C73.3284 43.9723 73.5435 43.8705 73.707 43.707L76.707 40.707L75.293 39.293L72.873 41.713L70.555 40.168C70.3423 40.0261 70.0833 39.9711 69.8313 40.0142C69.5793 40.0574 69.3534 40.1954 69.2 40.4L63.892 47.478L60.707 44.293C60.5194 44.1055 60.2651 44.0002 60 44.0002C59.7348 44.0002 59.4805 44.1055 59.293 44.293L51.293 52.293L52.707 53.707L60 46.414Z" fill="white"/>
<path d="M73 45H71V57H69V49H67V57H65V52H63V57H61V49H59V57H57V53H55V57H52V59H76V57H73V45Z" fill="white"/>
<path d="M23 55H26V58C26 58.2652 26.1054 58.5196 26.2929 58.7071C26.4804 58.8946 26.7348 59 27 59H39C39.2652 59 39.5196 58.8946 39.7071 58.7071C39.8946 58.5196 40 58.2652 40 58V44C40 43.7348 39.8946 43.4804 39.7071 43.2929C39.5196 43.1054 39.2652 43 39 43H36V40C36 39.7348 35.8946 39.4804 35.7071 39.2929C35.5196 39.1054 35.2652 39 35 39H23C22.7348 39 22.4804 39.1054 22.2929 39.2929C22.1054 39.4804 22 39.7348 22 40V54C22 54.2652 22.1054 54.5196 22.2929 54.7071C22.4804 54.8946 22.7348 55 23 55ZM36 54V45H38V57H28V55H35C35.2652 55 35.5196 54.8946 35.7071 54.7071C35.8946 54.5196 36 54.2652 36 54ZM24 41H34V53H24V41Z" fill="white"/>
<path d="M28 43H32V45H28V43Z" fill="white"/>
<path d="M26 47H32V49H26V47Z" fill="white"/>
</svg>
