<svg width="98" height="99" viewBox="0 0 98 99" fill="none" xmlns="http://www.w3.org/2000/svg">
<rect y="0.649414" width="98" height="98" rx="5" fill="#DC3545"/>
<g clip-path="url(#clip0_87_507)">
<path d="M76.4296 23.4662H61.8548C61.0387 22.6202 60.143 21.8529 59.1687 21.1772C58.821 20.936 58.3505 20.9785 58.0511 21.2776L56.1485 23.1802C55.1268 22.6029 54.0416 22.1535 52.9083 21.8385V19.1469C52.9083 18.7244 52.6066 18.3622 52.1911 18.286C50.1108 17.9042 47.881 17.9051 45.8052 18.286C45.3897 18.3622 45.088 18.7244 45.088 19.1469V21.8386C43.9577 22.1531 42.8727 22.6026 41.8483 23.1807L39.9452 21.2777C39.6458 20.9781 39.1748 20.9362 38.8268 21.1779C37.8541 21.8539 36.9597 22.6211 36.1447 23.4664H21.5703C19.5306 23.4664 17.871 25.1275 17.871 27.1692V67.355C17.871 69.3949 19.5305 71.0544 21.5703 71.0544H42.5651V73.6659H37.8488C35.5511 73.6659 33.6817 75.5352 33.6817 77.8329V81.1247C33.6817 81.6081 34.0736 82 34.557 82H63.443C63.9263 82 64.3182 81.6081 64.3182 81.1247V77.8329C64.3182 75.5352 62.4488 73.6659 60.1512 73.6659H55.4348V71.0544H76.4297C78.4695 71.0544 80.129 69.3949 80.129 67.355V27.1691C80.1288 25.1274 78.4695 23.4662 76.4296 23.4662ZM39.2366 23.0444L41.0923 24.9C41.3812 25.1889 41.8315 25.2395 42.1772 25.022C43.407 24.2484 44.7458 23.6937 46.1568 23.3736C46.5555 23.2831 46.8383 22.9289 46.8383 22.5201V19.8936C48.2552 19.702 49.7383 19.7015 51.1578 19.8936V22.5202C51.1578 22.929 51.4407 23.2834 51.8393 23.3737C53.2556 23.695 54.5942 24.2495 55.8181 25.0216C56.164 25.2397 56.6148 25.1894 56.904 24.9002L58.7602 23.0441C59.9131 23.9221 60.9372 24.9455 61.8168 26.0984L59.9604 27.9576C59.6716 28.2469 59.6215 28.6974 59.8395 29.043C60.6116 30.2669 61.166 31.6055 61.4873 33.0217C61.5778 33.4204 61.9321 33.7032 62.3408 33.7032H64.9662C65.0629 34.421 65.1118 35.1441 65.1118 35.8612C65.1118 36.5781 65.0628 37.3024 64.966 38.0227H62.3408C61.9322 38.0227 61.578 38.3055 61.4875 38.7039C61.1657 40.1186 60.6113 41.4562 59.8395 42.6795C59.6215 43.0251 59.6716 43.4757 59.9604 43.7649L61.8168 45.6241C60.9372 46.777 59.9131 47.8005 58.7602 48.6784L56.904 46.8222C56.6148 46.533 56.164 46.4826 55.8181 46.7009C54.5942 47.473 53.2556 48.0274 51.8393 48.3487C51.4407 48.4392 51.1578 48.7935 51.1578 49.2022V51.8304C49.731 52.0205 48.2627 52.02 46.8383 51.8304V49.2022C46.8383 48.7935 46.5555 48.4391 46.1568 48.3487C44.7458 48.0286 43.4068 47.474 42.1772 46.7004C41.8313 46.4829 41.3811 46.5335 41.0923 46.8224L39.2366 48.678C38.0848 47.7992 37.0617 46.776 36.183 45.6242L38.0395 43.765C38.3282 43.4757 38.3785 43.0252 38.1603 42.6796C37.3835 41.4482 36.8292 40.1112 36.5128 38.7059C36.423 38.3065 36.0683 38.0227 35.659 38.0227H33.0308C32.9358 37.3097 32.8878 36.5855 32.8878 35.8612C32.8878 35.1369 32.9357 34.4139 33.0305 33.7032H35.6588C36.0683 33.7032 36.4231 33.4192 36.5128 33.0197C36.8287 31.6129 37.383 30.2749 38.1602 29.043C38.3782 28.6974 38.3281 28.2467 38.0393 27.9576L36.1828 26.0984C37.0617 24.9465 38.0848 23.9232 39.2366 23.0444ZM31.4207 39.0529C31.4957 39.4697 31.8586 39.7731 32.2821 39.7731H34.9766C35.2893 40.9007 35.7388 41.9849 36.3192 43.0102L34.416 44.9162C34.1168 45.2159 34.075 45.6865 34.3166 46.0341C35.5437 47.7999 37.0612 49.3174 38.827 50.5445C39.1748 50.7864 39.6458 50.7441 39.9453 50.4446L41.8485 48.5416C42.873 49.1197 43.9578 49.5691 45.0881 49.8837V52.5791C45.0881 53.0027 45.3915 53.3656 45.8083 53.4405C46.8531 53.6284 47.927 53.7236 49 53.7236C50.0707 53.7236 51.1433 53.6284 52.1881 53.4405C52.6051 53.3655 52.9083 53.0026 52.9083 52.5791V49.8837C54.0416 49.5687 55.1268 49.1194 56.1485 48.542L58.0511 50.4446C58.3502 50.7437 58.8207 50.7861 59.1687 50.545C60.9361 49.3194 62.455 47.8017 63.6833 46.034C63.925 45.6864 63.8831 45.2157 63.584 44.9161L61.6806 43.01C62.2576 41.9891 62.707 40.9049 63.0222 39.773H65.7142C66.1378 39.773 66.5007 39.4696 66.5756 39.0527C66.7659 37.9949 66.8622 36.9211 66.8622 35.8611C66.8622 34.7997 66.7657 33.7269 66.5755 32.6725C66.5002 32.2559 66.1376 31.9527 65.7142 31.9527H63.0225C62.7598 31.0079 62.4025 30.097 61.9566 29.2279H74.3672V65.2964H23.6291V29.2279H36.0426C35.5946 30.1 35.237 31.0109 34.9762 31.9527H32.2821C31.8587 31.9527 31.496 32.2557 31.4208 32.6725C31.2328 33.7137 31.1376 34.7865 31.1376 35.8611C31.1376 36.9344 31.2328 38.0081 31.4207 39.0529ZM60.1511 75.4164C61.4836 75.4164 62.5677 76.5005 62.5677 77.833V80.2496H35.4322V77.833C35.4322 76.5005 36.5163 75.4164 37.8488 75.4164H42.5651H44.3155H53.6843H55.4347H60.1511ZM53.6843 73.6659H44.3155V71.0544H53.6843V73.6659ZM78.3785 67.355C78.3785 68.4296 77.5042 69.3039 76.4296 69.3039H55.4348H53.6845H44.3156H42.5652H21.5703C20.4957 69.3039 19.6215 68.4296 19.6215 67.355V27.1691C19.6215 26.0925 20.4957 25.2166 21.5703 25.2166H34.66C34.5441 25.3725 34.4278 25.5281 34.3166 25.6881C34.075 26.0357 34.1168 26.5065 34.416 26.806L35.0863 27.4774H22.7538C22.2705 27.4774 21.8786 27.8692 21.8786 28.3526V66.1715C21.8786 66.6549 22.2705 67.0467 22.7538 67.0467H75.2425C75.7258 67.0467 76.1177 66.6549 76.1177 66.1715V28.3526C76.1177 27.8692 75.7258 27.4774 75.2425 27.4774H62.9135L63.5838 26.806C63.883 26.5064 63.9249 26.0357 63.6832 25.6881C63.5721 25.5281 63.4557 25.3725 63.3398 25.2166H76.4295C77.5041 25.2166 78.3783 26.0925 78.3783 27.1691V67.355H78.3785ZM49 44.8011C53.9295 44.8011 57.94 40.7906 57.94 35.8611C57.94 30.9316 53.9295 26.9211 49 26.9211C44.0705 26.9211 40.06 30.9316 40.06 35.8611C40.06 40.7906 44.0705 44.8011 49 44.8011ZM49 28.6715C52.9643 28.6715 56.1896 31.8967 56.1896 35.8611C56.1896 39.8255 52.9643 43.0507 49 43.0507C45.0356 43.0507 41.8103 39.8255 41.8103 35.8611C41.8103 31.8967 45.0356 28.6715 49 28.6715ZM28.395 57.0685V62.5147C28.395 62.9981 28.7868 63.39 29.2702 63.39H68.7297C69.2131 63.39 69.605 62.9981 69.605 62.5147V57.0685C69.605 56.5851 69.2131 56.1932 68.7297 56.1932H29.2702C28.7868 56.1934 28.395 56.5851 28.395 57.0685ZM30.1455 57.9437H67.8546V61.6395H30.1455V57.9437ZM31.9951 58.6135H33.7455V60.9662H31.9951V58.6135ZM35.5952 58.6135H37.3456V60.9662H35.5952V58.6135ZM39.1953 58.6135H40.9457V60.9662H39.1953V58.6135ZM42.792 58.6135H44.5423V60.9662H42.792V58.6135ZM46.3921 58.6135H48.1425V60.9662H46.3921V58.6135ZM49.9921 58.6135H51.7425V60.9662H49.9921V58.6135ZM53.5922 58.6135H55.3426V60.9662H53.5922V58.6135Z" fill="white"/>
</g>
<defs>
<clipPath id="clip0_87_507">
<rect width="64" height="64" fill="white" transform="translate(17 18)"/>
</clipPath>
</defs>
</svg>
