<svg width="98" height="100" viewBox="0 0 98 100" fill="none" xmlns="http://www.w3.org/2000/svg">
<rect y="0.222656" width="98" height="98.8533" rx="5" fill="#FFC700"/>
<path d="M69.3175 51.0156H28.6826V77.4283H40.2635L38.2318 81.4918H59.7683L57.7365 77.4283H69.3175V51.0156ZM41.4826 79.4601L42.4984 77.4283H55.5016L56.5175 79.4601H41.4826ZM67.2857 75.3966H30.7143V73.3648H67.2857V75.3966ZM67.2857 71.3331H30.7143V53.0474H67.2857V71.3331Z" fill="white"/>
<path d="M45.9524 37.8093H54.0794V39.8411H45.9524V37.8093Z" fill="white"/>
<path d="M38.8413 39.8411H41.8889V37.8094H38.8413C36.6064 37.8094 34.7778 35.9808 34.7778 33.7459C34.7778 32.1205 35.6921 30.6983 37.2159 29.9872L37.8254 29.6824C37.8254 29.6824 37.7238 28.7681 37.7238 28.6665C37.7238 25.8221 39.9588 23.5872 42.8032 23.5872C44.0222 23.5872 45.2413 24.0951 46.1556 24.9078L47.1715 25.7205L47.781 24.6031C49.1016 22.0634 51.6413 20.5396 54.4857 20.5396C58.6508 20.5396 62.1048 23.9935 62.1048 28.1586C62.1048 28.7681 62.0032 29.4792 61.8 30.0888L61.6984 30.5967L62.1048 31.0031C62.8159 31.7142 63.1207 32.73 63.1207 33.7459C63.1207 35.9808 61.2921 37.8094 59.0572 37.8094H58.0413V39.8411H59.0572C62.4096 39.8411 65.1524 37.0983 65.1524 33.7459C65.1524 32.4253 64.7461 31.2062 63.9334 30.0888C64.035 29.4792 64.1365 28.7681 64.1365 28.1586C64.1365 22.8761 59.7683 18.5078 54.4857 18.5078C51.3365 18.5078 48.3905 20.0316 46.5619 22.6729C45.4445 21.9618 44.1238 21.5554 42.8032 21.5554C38.9429 21.5554 35.7937 24.6031 35.6921 28.4634C33.8635 29.5808 32.6445 31.511 32.6445 33.7459C32.7461 37.0983 35.4889 39.8411 38.8413 39.8411Z" fill="white"/>
<path d="M59.8699 45.6316L58.4477 44.2093L57.127 45.53V35.7776H55.0953V45.53L53.7746 44.2093L52.3524 45.6316L56.1111 49.3903L59.8699 45.6316Z" fill="white"/>
<path d="M44.9365 43.9047V34.1523L46.2572 35.4729L47.6794 34.0507L43.9207 30.292L40.1619 34.0507L41.5842 35.4729L42.9048 34.1523V43.9047H44.9365Z" fill="white"/>
</svg>
