<svg width="98" height="99" viewBox="0 0 98 99" fill="none" xmlns="http://www.w3.org/2000/svg">
<rect y="0.649414" width="98" height="98" rx="5" fill="#C33DAB"/>
<path d="M75.234 39H74V24C74 21.243 71.757 19 69 19H65C62.243 19 60 21.243 60 24V27H46V22C46 20.346 44.654 19 43 19H27C25.346 19 24 20.346 24 22V34C24 35.654 25.346 37 27 37H34V39H22.766C20.138 39 18 41.138 18 43.766C18 43.964 18.013 44.162 18.037 44.357L21.596 72.826C21.893 75.206 23.926 77 26.324 77H31.697L37.059 80.575C37.478 80.853 37.964 81 38.465 81C39.862 81 41 79.862 41 78.464V77H71.676C74.074 77 76.108 75.206 76.405 72.826L79.964 44.358C79.987 44.161 80 43.964 80 43.766C80 41.138 77.862 39 75.234 39ZM62 24C62 22.346 63.346 21 65 21H69C70.654 21 72 22.346 72 24V29H62V24ZM62 31H72V33H62V31ZM68 49V35H72V49H68ZM71.382 51L67.553 58.658C67.342 59.081 66.658 59.08 66.448 58.658L62.618 51H71.382ZM62 35H66V49H62V35ZM46 34V29H60V39H36V37H43C44.654 37 46 35.654 46 34ZM27 35C26.448 35 26 34.551 26 34V22C26 21.449 26.448 21 27 21H43C43.552 21 44 21.449 44 22V34C44 34.551 43.552 35 43 35H27ZM77.979 44.108L74.42 72.577C74.247 73.958 73.067 75 71.676 75H39V78.464C39 78.865 38.499 79.13 38.167 78.91L32.303 75H26.324C24.932 75 23.753 73.958 23.58 72.578L20.021 44.108C20.007 43.994 20 43.88 20 43.766C20 42.241 21.24 41 22.766 41H60V50.236L64.382 59H59V61H67C67.998 61 68.895 60.445 69.342 59.553L74 50.236V41H75.234C76.76 41 78 42.241 78 43.766C78 43.88 77.993 43.994 77.979 44.108Z" fill="white"/>
<path d="M52 52.101V46C52 44.346 50.654 43 49 43C47.529 43 46.308 44.066 46.054 45.464C42.412 48.385 37.865 50 33.189 50H29C26.243 50 24 52.243 24 55V59C24 61.757 26.243 64 29 64H30.198L32.199 73H38V64.588C40.927 65.294 43.683 66.633 46.054 68.535C46.308 69.934 47.529 71 49 71C50.654 71 52 69.654 52 68V61.899C54.279 61.434 56 59.415 56 57C56 54.585 54.279 52.566 52 52.101ZM32 62H29C27.698 62 26.598 61.161 26.184 60H30V58H26V56H30V54H26.184C26.598 52.839 27.698 52 29 52H32V62ZM36 71H33.802L32.247 64H33.19C34.135 64 35.072 64.084 36.001 64.213L36 71ZM46 65.992C42.47 63.561 38.297 62.191 34 62.036V51.964C38.297 51.808 42.47 50.439 46 48.008V65.992ZM50 68C50 68.551 49.552 69 49 69C48.448 69 48 68.551 48 68V46C48 45.449 48.448 45 49 45C49.552 45 50 45.449 50 46V68ZM52 59.816V54.185C53.161 54.599 54 55.699 54 57.001C54 58.303 53.161 59.402 52 59.816Z" fill="white"/>
<path d="M38.553 25.658L33.789 23.276C33.428 23.096 33.022 23 32.618 23C31.175 23 30 24.174 30 25.618V30.382C30 31.826 31.175 33 32.618 33C33.022 33 33.428 32.904 33.789 32.724L38.553 30.342C39.445 29.896 40 28.998 40 28C40 27.002 39.445 26.104 38.553 25.658ZM37.658 28.553L32.894 30.935C32.508 31.131 32 30.819 31.999 30.382V25.618C32 25.277 32.277 25 32.618 25C32.714 25 32.809 25.022 32.894 25.065L37.658 27.447C37.869 27.553 38 27.764 38 28C38 28.236 37.869 28.447 37.658 28.553Z" fill="white"/>
<path d="M59 63H73V65H59V63Z" fill="white"/>
<path d="M59 67H73V69H59V67Z" fill="white"/>
<path d="M67 71H69V73H67V71Z" fill="white"/>
<path d="M71 71H73V73H71V71Z" fill="white"/>
<path d="M59 71H61V73H59V71Z" fill="white"/>
<path d="M63 71H65V73H63V71Z" fill="white"/>
</svg>
