<svg width="98" height="99" viewBox="0 0 98 99" fill="none" xmlns="http://www.w3.org/2000/svg">
<rect y="0.649414" width="98" height="98" rx="5" fill="#076856"/>
<path d="M73.3333 27.2222H30.6667C29.4884 27.2236 28.3587 27.6922 27.5255 28.5254C26.6923 29.3586 26.2236 30.4883 26.2222 31.6666V74.3333C26.2236 75.5116 26.6923 76.6412 27.5255 77.4744C28.3587 78.3076 29.4884 78.7763 30.6667 78.7777H73.3333C74.5117 78.7763 75.6413 78.3076 76.4745 77.4744C77.3077 76.6412 77.7764 75.5116 77.7778 74.3333V31.6666C77.7764 30.4883 77.3077 29.3586 76.4745 28.5254C75.6413 27.6922 74.5117 27.2236 73.3333 27.2222ZM76 74.3333C75.9992 75.0403 75.718 75.7181 75.2181 76.218C74.7182 76.718 74.0403 76.9992 73.3333 76.9999H30.6667C29.9597 76.9992 29.2818 76.718 28.7819 76.218C28.282 75.7181 28.0008 75.0403 28 74.3333V35.2222H62.6667C62.9024 35.2222 63.1285 35.1285 63.2952 34.9618C63.4619 34.7951 63.5556 34.569 63.5556 34.3333C63.5556 34.0975 63.4619 33.8714 63.2952 33.7047C63.1285 33.538 62.9024 33.4444 62.6667 33.4444H28V31.6666C28.0008 30.9596 28.282 30.2818 28.7819 29.7818C29.2818 29.2819 29.9597 29.0007 30.6667 28.9999H73.3333C74.0403 29.0007 74.7182 29.2819 75.2181 29.7818C75.718 30.2818 75.9992 30.9596 76 31.6666V74.3333Z" fill="white"/>
<path d="M66.2222 35.2221H69.7778C70.0135 35.2221 70.2396 35.1285 70.4063 34.9618C70.573 34.7951 70.6666 34.569 70.6666 34.3332C70.6666 34.0975 70.573 33.8714 70.4063 33.7047C70.2396 33.538 70.0135 33.4443 69.7778 33.4443H66.2222C65.9865 33.4443 65.7604 33.538 65.5937 33.7047C65.427 33.8714 65.3333 34.0975 65.3333 34.3332C65.3333 34.569 65.427 34.7951 65.5937 34.9618C65.7604 35.1285 65.9865 35.2221 66.2222 35.2221Z" fill="white"/>
<path d="M73.3333 33.4443H72.4444C72.2087 33.4443 71.9826 33.538 71.8159 33.7047C71.6492 33.8714 71.5555 34.0975 71.5555 34.3332C71.5555 34.569 71.6492 34.7951 71.8159 34.9618C71.9826 35.1285 72.2087 35.2221 72.4444 35.2221H73.3333C73.5691 35.2221 73.7952 35.1285 73.9619 34.9618C74.1286 34.7951 74.2222 34.569 74.2222 34.3332C74.2222 34.0975 74.1286 33.8714 73.9619 33.7047C73.7952 33.538 73.5691 33.4443 73.3333 33.4443Z" fill="white"/>
<path d="M32.4444 30.7776H31.5555C31.3198 30.7776 31.0937 30.8712 30.927 31.0379C30.7603 31.2046 30.6666 31.4307 30.6666 31.6665C30.6666 31.9022 30.7603 32.1283 30.927 32.295C31.0937 32.4617 31.3198 32.5554 31.5555 32.5554H32.4444C32.6802 32.5554 32.9062 32.4617 33.0729 32.295C33.2396 32.1283 33.3333 31.9022 33.3333 31.6665C33.3333 31.4307 33.2396 31.2046 33.0729 31.0379C32.9062 30.8712 32.6802 30.7776 32.4444 30.7776Z" fill="white"/>
<path d="M36 30.7776H35.1111C34.8754 30.7776 34.6493 30.8712 34.4826 31.0379C34.3159 31.2046 34.2222 31.4307 34.2222 31.6665C34.2222 31.9022 34.3159 32.1283 34.4826 32.295C34.6493 32.4617 34.8754 32.5554 35.1111 32.5554H36C36.2358 32.5554 36.4618 32.4617 36.6285 32.295C36.7952 32.1283 36.8889 31.9022 36.8889 31.6665C36.8889 31.4307 36.7952 31.2046 36.6285 31.0379C36.4618 30.8712 36.2358 30.7776 36 30.7776Z" fill="white"/>
<path d="M39.5555 30.7776H38.6667C38.4309 30.7776 38.2048 30.8712 38.0381 31.0379C37.8714 31.2046 37.7778 31.4307 37.7778 31.6665C37.7778 31.9022 37.8714 32.1283 38.0381 32.295C38.2048 32.4617 38.4309 32.5554 38.6667 32.5554H39.5555C39.7913 32.5554 40.0174 32.4617 40.1841 32.295C40.3508 32.1283 40.4444 31.9022 40.4444 31.6665C40.4444 31.4307 40.3508 31.2046 40.1841 31.0379C40.0174 30.8712 39.7913 30.7776 39.5555 30.7776Z" fill="white"/>
<path d="M52.9679 41.4677C49.7268 41.3084 46.4969 41.9579 43.5693 43.3577C40.6416 44.7574 38.1082 46.8635 36.1971 49.4861C34.2859 52.1087 33.0572 55.1655 32.6216 58.3811C32.1859 61.5968 32.557 64.8703 33.7014 67.9069C34.024 68.75 34.5945 69.4756 35.3377 69.9881C36.0808 70.5006 36.9619 70.7758 37.8646 70.7776H66.1346C67.0427 70.7731 67.9282 70.4932 68.674 69.9749C69.4197 69.4567 69.9908 68.7244 70.3116 67.8748C71.3922 64.9921 71.7772 61.8952 71.4355 58.8357C71.0937 55.7763 70.0348 52.8406 68.3448 50.2675C66.6548 47.6944 64.3814 45.5563 61.7095 44.0273C59.0376 42.4982 56.0426 41.6212 52.9679 41.4677ZM68.6467 67.2498C68.4542 67.7614 68.111 68.2026 67.6625 68.515C67.214 68.8275 66.6812 68.9965 66.1346 68.9998H37.8646C37.3228 68.9993 36.7939 68.8347 36.3476 68.5276C35.9013 68.2204 35.5585 67.7852 35.3646 67.2793C34.3493 64.5891 34.0015 61.6929 34.3512 58.8388C34.7009 55.9848 35.7377 53.2581 37.3725 50.8927C39.0073 48.5273 41.1914 46.5937 43.7376 45.2577C46.2837 43.9217 49.1159 43.2231 51.9913 43.222C52.2873 43.222 52.5845 43.2292 52.8828 43.2437C55.6777 43.3837 58.4001 44.1812 60.8287 45.5714C63.2574 46.9616 65.3237 48.9053 66.8597 51.2444C68.3957 53.5836 69.3581 56.2522 69.6686 59.0332C69.9791 61.8143 69.629 64.6295 68.6467 67.2498Z" fill="white"/>
<path d="M52 59.2222C51.4726 59.2222 50.957 59.3786 50.5185 59.6716C50.0799 59.9646 49.7381 60.3811 49.5363 60.8684C49.3345 61.3556 49.2817 61.8918 49.3846 62.4091C49.4874 62.9264 49.7414 63.4015 50.1144 63.7745C50.4873 64.1474 50.9625 64.4014 51.4797 64.5043C51.997 64.6072 52.5332 64.5544 53.0205 64.3525C53.5077 64.1507 53.9242 63.8089 54.2172 63.3704C54.5102 62.9318 54.6666 62.4163 54.6666 61.8889C54.6645 61.4928 54.5732 61.1023 54.3994 60.7463L61.5171 53.6287C61.5998 53.5462 61.6655 53.4482 61.7104 53.3404C61.7552 53.2325 61.7784 53.1168 61.7785 52.9999C61.7786 52.8831 61.7557 52.7674 61.711 52.6594C61.6663 52.5514 61.6008 52.4533 61.5182 52.3707C61.4355 52.288 61.3374 52.2225 61.2295 52.1779C61.1215 52.1332 61.0058 52.1103 60.8889 52.1104C60.7721 52.1105 60.6564 52.1336 60.5485 52.1785C60.4406 52.2233 60.3426 52.289 60.2601 52.3718L53.1425 59.4894C52.7866 59.3156 52.3961 59.2243 52 59.2222ZM52 62.7778C51.8242 62.7778 51.6523 62.7256 51.5061 62.6279C51.36 62.5303 51.246 62.3914 51.1788 62.229C51.1115 62.0666 51.0939 61.8879 51.1282 61.7154C51.1625 61.543 51.2471 61.3846 51.3714 61.2603C51.4958 61.136 51.6541 61.0513 51.8266 61.0171C51.999 60.9828 52.1777 61.0004 52.3401 61.0676C52.5026 61.1349 52.6414 61.2488 52.7391 61.395C52.8367 61.5412 52.8889 61.7131 52.8889 61.8889C52.8887 62.1246 52.795 62.3506 52.6283 62.5172C52.4617 62.6839 52.2357 62.7776 52 62.7778Z" fill="white"/>
<path d="M52 44.9998C47.758 45.0047 43.6912 46.692 40.6917 49.6915C37.6922 52.691 36.0049 56.7578 36 60.9998C36 61.2355 36.0936 61.4616 36.2603 61.6283C36.427 61.795 36.6531 61.8886 36.8889 61.8886C37.1246 61.8886 37.3507 61.795 37.5174 61.6283C37.6841 61.4616 37.7778 61.2355 37.7778 60.9998C37.7778 57.2278 39.2762 53.6103 41.9434 50.9431C44.6106 48.2759 48.228 46.7775 52 46.7775C55.772 46.7775 59.3894 48.2759 62.0566 50.9431C64.7238 53.6103 66.2222 57.2278 66.2222 60.9998C66.2222 61.2355 66.3159 61.4616 66.4826 61.6283C66.6493 61.795 66.8754 61.8886 67.1111 61.8886C67.3469 61.8886 67.573 61.795 67.7397 61.6283C67.9064 61.4616 68 61.2355 68 60.9998C67.9951 56.7578 66.3078 52.691 63.3083 49.6915C60.3088 46.692 56.242 45.0047 52 44.9998Z" fill="white"/>
<path d="M58.4679 51.4322C58.5643 51.498 58.6728 51.5441 58.787 51.568C58.9013 51.5918 59.0192 51.593 59.1339 51.5713C59.2486 51.5496 59.3579 51.5055 59.4556 51.4416C59.5532 51.3777 59.6374 51.2952 59.7031 51.1987C59.7689 51.1023 59.8151 50.9938 59.8389 50.8796C59.8628 50.7653 59.8639 50.6474 59.8422 50.5327C59.8205 50.418 59.7765 50.3087 59.7126 50.211C59.6486 50.1134 59.5661 50.0292 59.4696 49.9634C58.0091 48.9671 56.362 48.2765 54.6276 47.9331C54.5132 47.9102 54.3953 47.91 54.2808 47.9326C54.1663 47.9553 54.0574 48.0002 53.9603 48.065C53.7641 48.1957 53.6279 48.399 53.5816 48.6301C53.5354 48.8613 53.5828 49.1013 53.7135 49.2975C53.8442 49.4936 54.0475 49.6298 54.2787 49.6761C55.7793 49.9728 57.2043 50.5701 58.4679 51.4322Z" fill="white"/>
<path d="M64.4445 61.8888C64.5612 61.8889 64.6768 61.8659 64.7847 61.8213C64.8926 61.7767 64.9906 61.7112 65.0731 61.6286C65.1557 61.5461 65.2212 61.4481 65.2658 61.3402C65.3105 61.2323 65.3334 61.1167 65.3333 60.9999C65.336 59.0621 64.9135 57.1473 64.0955 55.3906C63.9959 55.1773 63.8158 55.0122 63.5946 54.9315C63.3735 54.8508 63.1294 54.8612 62.9159 54.9602C62.7023 55.0593 62.5368 55.239 62.4556 55.46C62.3744 55.6809 62.3841 55.9251 62.4826 56.1388C63.1917 57.6612 63.558 59.3206 63.5556 60.9999C63.5555 61.1167 63.5784 61.2323 63.6231 61.3402C63.6677 61.4481 63.7332 61.5461 63.8158 61.6286C63.8983 61.7112 63.9963 61.7767 64.1042 61.8213C64.2121 61.8659 64.3277 61.8889 64.4445 61.8888Z" fill="white"/>
<path d="M60 66.3333H44C43.7642 66.3333 43.5381 66.4269 43.3714 66.5936C43.2047 66.7603 43.1111 66.9864 43.1111 67.2221C43.1111 67.4579 43.2047 67.684 43.3714 67.8507C43.5381 68.0174 43.7642 68.111 44 68.111H60C60.2357 68.111 60.4618 68.0174 60.6285 67.8507C60.7952 67.684 60.8889 67.4579 60.8889 67.2221C60.8889 66.9864 60.7952 66.7603 60.6285 66.5936C60.4618 66.4269 60.2357 66.3333 60 66.3333Z" fill="white"/>
<path d="M66.2222 63.6665H55.5555C55.3198 63.6665 55.0937 63.7602 54.927 63.9269C54.7603 64.0936 54.6666 64.3196 54.6666 64.5554C54.6666 64.7911 54.7603 65.0172 54.927 65.1839C55.0937 65.3506 55.3198 65.4443 55.5555 65.4443H66.2222C66.4579 65.4443 66.684 65.3506 66.8507 65.1839C67.0174 65.0172 67.1111 64.7911 67.1111 64.5554C67.1111 64.3196 67.0174 64.0936 66.8507 63.9269C66.684 63.7602 66.4579 63.6665 66.2222 63.6665Z" fill="white"/>
<path d="M49.3333 64.5554C49.3334 64.4386 49.3104 64.323 49.2658 64.2152C49.2211 64.1073 49.1557 64.0093 49.0731 63.9267C48.9905 63.8441 48.8925 63.7787 48.7846 63.734C48.6768 63.6894 48.5612 63.6664 48.4444 63.6665H37.7777C37.542 63.6665 37.3159 63.7602 37.1492 63.9269C36.9825 64.0936 36.8889 64.3196 36.8889 64.5554C36.8889 64.7911 36.9825 65.0172 37.1492 65.1839C37.3159 65.3506 37.542 65.4443 37.7777 65.4443H48.4444C48.5612 65.4443 48.6768 65.4214 48.7846 65.3768C48.8925 65.3321 48.9905 65.2666 49.0731 65.1841C49.1557 65.1015 49.2211 65.0035 49.2658 64.8956C49.3104 64.7878 49.3334 64.6721 49.3333 64.5554Z" fill="white"/>
</svg>
