<svg width="98" height="99" viewBox="0 0 98 99" fill="none" xmlns="http://www.w3.org/2000/svg">
<rect y="0.649414" width="98" height="98" rx="5" fill="#076856"/>
<path d="M23.625 79H63.5H74.375C74.5064 79 74.6278 78.9701 74.7393 78.9202C74.7683 78.9076 74.791 78.884 74.8172 78.8677C74.9006 78.8197 74.9777 78.768 75.0402 78.6973C75.0493 78.6873 75.0619 78.6846 75.071 78.6747C75.0982 78.6411 75.1082 78.6003 75.1299 78.5641C75.1634 78.5106 75.197 78.4608 75.2187 78.4001C75.2405 78.3393 75.2477 78.2768 75.2568 78.2125C75.2622 78.1717 75.2812 78.1363 75.2812 78.0938V32.7812C75.2812 32.281 74.8762 31.875 74.375 31.875H63.5H62.5938V29.1562C62.5938 24.6594 58.9352 21 54.4375 21C52.3468 21 50.4446 21.7966 49 23.0943C47.5554 21.7966 45.6532 21 43.5625 21C39.0648 21 35.4062 24.6594 35.4062 29.1562V31.875H23.625C23.1238 31.875 22.7188 32.281 22.7188 32.7812V78.0938C22.7188 78.5949 23.1238 79 23.625 79ZM68.9375 74.7433L71.871 77.1875H66.0031L68.9375 74.7433ZM68.0312 73.1375L64.4062 76.158V33.6875H68.0312V73.1375ZM73.4688 76.158L69.8438 73.1375V33.6875H73.4688V76.158ZM60.7812 29.1562V31.875H51.7188V29.1562C51.7188 27.3999 51.1551 25.7759 50.2071 24.4428C51.3309 23.4333 52.8108 22.8125 54.4375 22.8125C57.9347 22.8125 60.7812 25.6581 60.7812 29.1562ZM48.0938 29.1562C48.0938 27.9672 48.4282 26.858 49 25.9055C49.5718 26.858 49.9062 27.9672 49.9062 29.1562V31.875H48.0938V29.1562ZM37.2188 29.1562C37.2188 25.6581 40.0653 22.8125 43.5625 22.8125C45.1892 22.8125 46.6691 23.4333 47.7929 24.4428C46.8449 25.7759 46.2812 27.3999 46.2812 29.1562V31.875H37.2188V29.1562ZM24.5312 33.6875H35.4062V39.125C35.4062 39.6252 35.8113 40.0312 36.3125 40.0312C36.8137 40.0312 37.2188 39.6252 37.2188 39.125V33.6875H49.9062V39.125C49.9062 39.6252 50.3113 40.0312 50.8125 40.0312C51.3137 40.0312 51.7188 39.6252 51.7188 39.125V33.6875H62.5938V77.1875H24.5312V33.6875Z" fill="white"/>
<path d="M33.5883 52.725C35.0873 52.725 36.3071 51.5043 36.3071 50.0054C36.3071 48.5064 35.0873 47.2866 33.5883 47.2866C32.0894 47.2866 30.8696 48.5064 30.8696 50.0054C30.8696 51.5043 32.0894 52.725 33.5883 52.725ZM33.5883 49.0991C34.0886 49.0991 34.4946 49.506 34.4946 50.0054C34.4946 50.5056 34.0886 50.9125 33.5883 50.9125C33.0881 50.9125 32.6821 50.5056 32.6821 50.0054C32.6821 49.506 33.0881 49.0991 33.5883 49.0991Z" fill="white"/>
<path d="M58.8981 66.5862C58.9171 66.5255 58.9289 66.4666 58.9352 66.4041C58.9379 66.3751 58.9524 66.3497 58.9524 66.3198C58.9524 66.2917 58.9388 66.2672 58.9361 66.24C58.9307 66.1793 58.918 66.1213 58.8999 66.0615C58.8818 66.0017 58.86 65.9464 58.831 65.892C58.8174 65.8675 58.8156 65.8404 58.8002 65.8168L47.9252 49.5007C47.7856 49.2904 47.5718 49.159 47.3425 49.1146C47.2854 49.1028 47.2274 49.1137 47.1703 49.1137C47.1123 49.1137 47.0552 49.1028 46.9981 49.1146C46.7679 49.159 46.5558 49.2904 46.4154 49.5007L40.8238 57.8898L38.8573 54.9391C38.7177 54.7288 38.5038 54.5965 38.2736 54.553C38.2165 54.5412 38.1594 54.5521 38.1023 54.5521C38.0453 54.5521 37.9873 54.5412 37.9302 54.553C37.7 54.5965 37.4879 54.7279 37.3474 54.9391L30.0974 65.8168C30.0811 65.8404 30.0793 65.8685 30.0666 65.892C30.0376 65.9464 30.015 66.0008 29.9978 66.0615C29.9796 66.1204 29.9669 66.1793 29.9615 66.24C29.9588 66.2672 29.9452 66.2917 29.9452 66.3198C29.9452 66.3497 29.9597 66.3751 29.9624 66.4041C29.9688 66.4666 29.9805 66.5255 29.9996 66.5862C30.0168 66.6415 30.0367 66.6913 30.063 66.7421C30.0893 66.7919 30.1201 66.8363 30.1573 66.8816C30.198 66.9306 30.2397 66.9732 30.2896 67.014C30.3113 67.0321 30.3249 67.0575 30.3494 67.0738C30.3802 67.0937 30.4137 67.1028 30.4463 67.12C30.4772 67.1354 30.5053 67.1508 30.5397 67.1635C30.6412 67.2015 30.7463 67.226 30.8514 67.226H30.8523H58.0471C58.1522 67.226 58.2573 67.2015 58.3598 67.1635C58.3933 67.1508 58.4214 67.1354 58.4531 67.1191C58.4857 67.1028 58.5193 67.0946 58.5501 67.0738C58.5745 67.0566 58.5881 67.0312 58.6099 67.014C58.6597 66.9732 58.7014 66.9306 58.7422 66.8816C58.7775 66.8363 58.8093 66.7919 58.8364 66.7421C58.8636 66.6922 58.8808 66.6406 58.8981 66.5862ZM41.5805 60.0241C41.5805 60.0231 41.5805 60.0222 41.5814 60.0222L47.1703 51.6367L56.3533 65.4135H37.9873L41.5805 60.0241ZM35.8086 65.4135H32.5434L38.1014 57.0751L39.7336 59.5238L35.8086 65.4135Z" fill="white"/>
</svg>
