<svg width="72" height="72" viewBox="0 0 72 72" fill="none" xmlns="http://www.w3.org/2000/svg">
<g clip-path="url(#clip0_168_1903)">
<path d="M12.3556 50.4722L0 62.8279V66.2324L5.76759 72H9.17212L21.5279 59.6443V56.2398L15.7603 50.4722H12.3556Z" fill="#DC3545"/>
<path d="M22.3604 43.8721L18.676 47.5563L24.4436 53.3239L28.1295 49.638C25.9506 47.9893 24.0189 46.0578 22.3604 43.8721Z" fill="#DC3545"/>
<path d="M46.5764 27.8607C47.7358 27.6728 48.5234 26.5805 48.3354 25.4211C48.1475 24.2617 47.0552 23.4742 45.8958 23.6621C44.7364 23.8501 43.9489 24.9423 44.1368 26.1017C44.3248 27.2612 45.417 28.0487 46.5764 27.8607Z" fill="#DC3545"/>
<path d="M46.2449 15.6023C39.4638 15.6023 33.4109 22.8899 31.2931 25.7561C33.8653 29.5058 40.6933 36.2043 46.2449 35.9079C53.0272 35.9079 59.0816 28.6169 61.1977 25.7529C56.2041 18.9566 50.3558 15.4998 46.2449 15.6023ZM46.2449 32.1007C42.7459 32.1007 39.8992 29.254 39.8992 25.755C39.8992 22.256 42.7459 19.4093 46.2449 19.4093C49.7439 19.4093 52.5906 22.256 52.5906 25.755C52.5906 29.254 49.7439 32.1007 46.2449 32.1007Z" fill="#DC3545"/>
<path d="M46.2449 0C32.0208 0 20.4899 11.531 20.4899 25.755C20.4899 39.9791 32.0208 51.5101 46.2449 51.5101C60.469 51.5101 72 39.9791 72 25.755C72 11.531 60.469 0 46.2449 0ZM46.2449 40.1265C34.5804 39.8938 26.6875 26.3969 26.2125 25.755C26.6875 25.1131 34.5804 11.6163 46.2449 11.3836C57.9093 11.6163 65.8025 25.1132 66.2775 25.755C65.1175 27.5625 57.4159 39.8756 46.2449 40.1265Z" fill="#DC3545"/>
</g>
<defs>
<clipPath id="clip0_168_1903">
<rect width="72" height="72" fill="white"/>
</clipPath>
</defs>
</svg>
