<svg width="72" height="72" viewBox="0 0 72 72" fill="none" xmlns="http://www.w3.org/2000/svg">
<g clip-path="url(#clip0_168_1910)">
<path d="M44.7343 5.9272L39.9944 5.25361L37.8828 1.07818C37.1659 -0.343117 34.834 -0.343117 34.1173 1.07818L32.0058 5.25375L27.2659 5.92734C25.5271 6.17315 24.8325 8.32738 26.1083 9.54463L29.5091 12.7786L28.7079 17.3351C28.4079 19.0497 30.2082 20.3682 31.7504 19.5764L35.9999 17.3929L40.2496 19.5764C41.8134 20.383 43.5889 19.0319 43.2922 17.3351L42.4909 12.7786L45.8919 9.54449C47.1675 8.32724 46.473 6.17315 44.7343 5.9272Z" fill="#0084FF"/>
<path d="M70.1872 18.7919L65.4473 18.1184L63.3358 13.9429C62.6189 12.5216 60.2871 12.5216 59.5703 13.9429L57.4588 18.1184L52.719 18.7919C50.9801 19.0378 50.2856 21.192 51.5613 22.4092L54.9623 25.6433L54.1611 30.1998C53.8611 31.9145 55.6614 33.233 57.2036 32.4411L61.453 30.2575L65.7027 32.441C67.2742 33.2448 69.0406 31.8879 68.7452 30.1997L67.944 25.6432L71.345 22.4091C72.6206 21.192 71.9259 19.0378 70.1872 18.7919Z" fill="#0084FF"/>
<path d="M19.2812 18.7919L14.5413 18.1184L12.4296 13.9429C11.7127 12.5216 9.3809 12.5216 8.66414 13.9429L6.55266 18.1184L1.81276 18.7919C0.0739373 19.0378 -0.620608 21.192 0.655139 22.4092L4.05615 25.6433L3.25487 30.1998C2.95492 31.9145 4.75519 33.233 6.29743 32.4411L10.5468 30.2575L14.7965 32.441C16.3635 33.2449 18.1349 31.8911 17.8391 30.1998L17.0378 25.6433L20.4388 22.4092C21.7144 21.192 21.0198 19.0379 19.2812 18.7919Z" fill="#0084FF"/>
<path d="M43.6045 46.1807C46.6535 43.8677 48.6561 40.2421 48.6561 36.1284C48.6561 29.1493 42.979 23.4722 35.9999 23.4722C29.0208 23.4722 23.3437 29.1493 23.3437 36.1284C23.3437 40.2421 25.3465 43.8675 28.3953 46.1807C21.7079 49.1207 17.0156 55.7887 17.0156 63.5502V69.8783C17.0156 71.0442 17.959 71.9877 19.1249 71.9877H52.8749C54.0408 71.9877 54.9842 71.0442 54.9842 69.8783V63.5502C54.9842 55.7887 50.292 49.1207 43.6045 46.1807Z" fill="#0084FF"/>
</g>
<defs>
<clipPath id="clip0_168_1910">
<rect width="72" height="72" fill="white"/>
</clipPath>
</defs>
</svg>
