<svg width="72" height="72" viewBox="0 0 72 72" fill="none" xmlns="http://www.w3.org/2000/svg">
<g clip-path="url(#clip0_168_1897)">
<path d="M15.5845 15.8203C14.4195 15.8203 13.4751 14.8759 13.4751 13.7109C13.4751 12.546 14.4195 11.6016 15.5845 11.6016H33.81V2.10937C33.81 0.944437 32.8656 0 31.7007 0H2.10938C0.944437 0 0 0.944437 0 2.10937V31.7828C0 32.9477 0.944437 33.8922 2.10938 33.8922H31.7007C32.8656 33.8922 33.81 32.9477 33.81 31.7828V15.8203H15.5845Z" fill="#C33DAB"/>
<path d="M69.8906 0H40.2993C39.1344 0 38.1899 0.944438 38.1899 2.10938V11.6016H46.4195C46.118 10.9908 46.117 10.2458 46.483 9.61172C47.0653 8.60288 48.3554 8.25694 49.3644 8.83969L54.6379 11.8842C55.2905 12.261 55.6926 12.9573 55.6926 13.7109C55.6926 14.4645 55.2905 15.1609 54.6379 15.5377L49.3644 18.5822C49.0323 18.774 48.6696 18.8651 48.3117 18.8651C47.5826 18.8653 46.8737 18.4868 46.483 17.8102C46.117 17.1761 46.118 16.431 46.4195 15.8203H38.1899V30.972L46.0395 23.1224C46.8631 22.2986 48.1988 22.2986 49.0226 23.1224C49.8463 23.9462 49.8463 25.2817 49.0226 26.1055L41.2359 33.892H69.8906C71.0555 33.892 72 32.9476 72 31.7827V2.10938C72 0.944438 71.0555 0 69.8906 0Z" fill="#C33DAB"/>
<path d="M69.8906 38.2485H40.1587C38.9938 38.2485 38.0493 39.193 38.0493 40.3579V56.3204H54.2945C53.993 55.7097 53.992 54.9646 54.358 54.3305C54.9403 53.3217 56.2304 52.9758 57.2394 53.5585L62.5129 56.6031C63.1655 56.9798 63.5676 57.6762 63.5676 58.4298C63.5676 59.1834 63.1655 59.8798 62.5129 60.2565L57.2394 63.301C56.9073 63.4928 56.5446 63.584 56.1867 63.584C55.4576 63.584 54.7487 63.2057 54.358 62.529C53.992 61.8949 53.993 61.1499 54.2945 60.5391H38.0493V69.8907C38.0493 71.0556 38.9938 72.0001 40.1587 72.0001H69.8906C71.0555 72.0001 72 71.0556 72 69.8907V40.3579C72 39.193 71.0555 38.2485 69.8906 38.2485Z" fill="#C33DAB"/>
<path d="M23.4595 60.539C22.2945 60.539 21.3501 59.5946 21.3501 58.4296C21.3501 57.2647 22.2945 56.3203 23.4595 56.3203H33.9507V41.1775L27.2191 47.9091C27.8641 48.1277 28.3916 48.6538 28.5812 49.3611C28.8827 50.4864 28.215 51.6431 27.0897 51.9446L21.2079 53.5207C21.0275 53.5691 20.8441 53.5927 20.6622 53.5927C20.1099 53.5927 19.5713 53.3756 19.1706 52.9748C18.6376 52.442 18.4295 51.6653 18.6247 50.9373L20.2008 45.0555C20.5021 43.9303 21.6585 43.2622 22.7842 43.564C23.4915 43.7536 24.0175 44.2811 24.2363 44.9261L30.9139 38.2485H2.10938C0.944437 38.2485 0 39.193 0 40.3579V69.8906C0 71.0555 0.944437 71.9999 2.10938 71.9999H31.8413C33.0062 71.9999 33.9507 71.0555 33.9507 69.8906V60.539H23.4595Z" fill="#C33DAB"/>
</g>
<defs>
<clipPath id="clip0_168_1897">
<rect width="72" height="72" fill="white"/>
</clipPath>
</defs>
</svg>
