<svg width="98" height="99" viewBox="0 0 98 99" fill="none" xmlns="http://www.w3.org/2000/svg">
<rect y="0.649414" width="98" height="98" rx="5" fill="#DC3545"/>
<g clip-path="url(#clip0_87_1747)">
<path d="M44.8341 37.138C44.8341 35.4679 43.4747 34.1091 41.8038 34.1091C40.1329 34.1091 38.7736 35.4679 38.7736 37.138C38.7736 38.5133 39.6957 39.6766 40.9542 40.0448V44.609C39.6957 44.9771 38.7736 46.1405 38.7736 47.5159C38.7736 48.8912 39.6957 50.0545 40.9542 50.4227V54.9869C39.6957 55.355 38.7736 56.5184 38.7736 57.8938C38.7736 59.5638 40.1329 60.9226 41.8038 60.9226C43.4747 60.9226 44.8341 59.5638 44.8341 57.8938C44.8341 56.5184 43.912 55.3551 42.6534 54.9869V50.4227C43.912 50.0546 44.8341 48.8912 44.8341 47.5159C44.8341 46.1405 43.912 44.9772 42.6534 44.609V40.0448C43.912 39.6767 44.8341 38.5133 44.8341 37.138ZM43.1349 57.8938C43.1349 58.633 42.5378 59.2345 41.8038 59.2345C41.0699 59.2345 40.4728 58.633 40.4728 57.8938C40.4728 57.1545 41.0699 56.553 41.8038 56.553C42.5378 56.553 43.1349 57.1545 43.1349 57.8938ZM43.1349 47.5159C43.1349 48.2551 42.5378 48.8567 41.8038 48.8567C41.0699 48.8567 40.4728 48.2551 40.4728 47.5159C40.4728 46.7766 41.0699 46.1751 41.8038 46.1751C42.5378 46.1751 43.1349 46.7766 43.1349 47.5159ZM41.8038 38.4787C41.0699 38.4787 40.4728 37.8773 40.4728 37.138C40.4728 36.3987 41.0699 35.7972 41.8038 35.7972C42.5378 35.7972 43.1349 36.3987 43.1349 37.138C43.1349 37.8772 42.5378 38.4787 41.8038 38.4787Z" fill="white"/>
<path d="M57.0685 58.688H48.3458C47.8766 58.688 47.4962 59.0659 47.4962 59.532C47.4962 59.9982 47.8766 60.3761 48.3458 60.3761H57.0685C57.5377 60.3761 57.9181 59.9982 57.9181 59.532C57.9181 59.0658 57.5377 58.688 57.0685 58.688Z" fill="white"/>
<path d="M64.7008 34.655H48.3458C47.8766 34.655 47.4962 35.0329 47.4962 35.4991C47.4962 35.9652 47.8766 36.3431 48.3458 36.3431H64.7008C65.1701 36.3431 65.5505 35.9652 65.5505 35.4991C65.5505 35.0329 65.1701 34.655 64.7008 34.655Z" fill="white"/>
<path d="M48.3458 39.6204H57.0685C57.5377 39.6204 57.9181 39.2425 57.9181 38.7764C57.9181 38.3103 57.5377 37.9324 57.0685 37.9324H48.3458C47.8766 37.9324 47.4962 38.3103 47.4962 38.7764C47.4962 39.2425 47.8766 39.6204 48.3458 39.6204Z" fill="white"/>
<path d="M71.6473 35.049V28.3985C71.6473 26.126 69.7988 24.2772 67.5267 24.2772H57.7546V24.0288C57.7546 22.3588 56.3952 21 54.7243 21H46.5467C44.8758 21 43.5164 22.3588 43.5164 24.0288V24.2772H30.4644C28.1923 24.2772 26.3438 26.126 26.3438 28.3985V39.3225C26.3438 40.3903 27.214 41.2589 28.2837 41.2589H29.6148V75.5904C29.6148 77.2605 30.9741 78.6193 32.645 78.6193H64.9189C66.5898 78.6193 67.9492 77.2605 67.9492 75.5904V74.0312H68.6261C70.297 74.0312 71.6563 72.6724 71.6563 71.0024V35.1714C71.6563 35.1299 71.6533 35.0889 71.6473 35.049ZM45.2158 24.0288C45.2158 23.2896 45.8129 22.6881 46.5468 22.6881H54.7244C55.4583 22.6881 56.0554 23.2896 56.0554 24.0288V24.2772H45.2158V24.0288ZM43.7438 25.9653H57.5273V26.2137C57.5273 27.5553 56.4411 28.6468 55.1059 28.6468H46.1652C44.83 28.6468 43.7438 27.5553 43.7438 26.2137V25.9653ZM69.9571 71.0024C69.9571 71.7416 69.36 72.3431 68.6261 72.3431H49C48.5308 72.3431 48.1504 72.721 48.1504 73.1872C48.1504 73.6533 48.5308 74.0312 49 74.0312H66.25V75.5904C66.25 76.3297 65.6529 76.9312 64.9189 76.9312H32.645C31.9111 76.9312 31.314 76.3297 31.314 75.5904V28.3256C31.314 27.8595 30.9336 27.4816 30.4644 27.4816C29.9952 27.4816 29.6148 27.8595 29.6148 28.3256V39.5709H28.2837C28.1509 39.5709 28.043 39.4595 28.043 39.3225V28.3985C28.043 27.0568 29.1292 25.9653 30.4644 25.9653C31.7995 25.9653 32.8858 27.0568 32.8858 28.3987L32.8944 71.003C32.8946 72.6728 34.254 74.0313 35.9246 74.0313H38.5605C39.547 74.7602 40.7654 75.1921 42.0831 75.1921C45.3604 75.1921 48.0266 72.5241 48.0266 69.2444C48.0266 67.9265 47.5945 66.6609 46.8003 65.6261L47.9709 63.811C48.224 63.4184 48.1089 62.8964 47.7137 62.645C47.3186 62.3936 46.7932 62.5079 46.54 62.9004L42.0305 69.8934L40.3748 67.8361C40.0818 67.472 39.5472 67.4127 39.1807 67.7039C38.8142 67.9949 38.7546 68.5261 39.0476 68.8901L41.2358 71.6095C41.4388 71.8853 41.7517 72.0497 42.0818 72.0515C42.0838 72.0515 42.0857 72.0515 42.0876 72.0515C42.4302 72.0515 42.7555 71.8763 42.959 71.5821C42.9641 71.5747 42.9691 71.5673 42.974 71.5596L45.7969 67.1821C46.1424 67.8079 46.3273 68.5147 46.3273 69.2445C46.3273 71.5933 44.4232 73.5042 42.083 73.5042C39.7427 73.5042 37.8386 71.5934 37.8386 69.2445C37.8386 66.8956 39.7427 64.9848 42.083 64.9848C42.3368 64.9848 42.5909 65.0075 42.8382 65.0519C43.3002 65.135 43.7421 64.8307 43.8257 64.372C43.9093 63.9133 43.6029 63.474 43.1412 63.391C42.7943 63.3285 42.4382 63.2969 42.0831 63.2969C38.8057 63.2969 36.1395 65.9649 36.1395 69.2446C36.1395 70.3792 36.459 71.4404 37.0121 72.3435H35.9246C35.1908 72.3435 34.5937 71.7422 34.5936 71.0029L34.585 28.3985C34.585 27.4892 34.289 26.6476 33.7883 25.9653H42.0446V26.2137C42.0446 28.4861 43.8931 30.3349 46.1652 30.3349H55.1059C57.378 30.3349 59.2265 28.4861 59.2265 26.2137V25.9653H67.5267C68.8618 25.9653 69.9481 27.0568 69.9481 28.3985V35.1714C69.9481 35.213 69.9511 35.2538 69.9571 35.2938V71.0024Z" fill="white"/>
<path d="M64.7008 55.4109H48.3458C47.8766 55.4109 47.4962 55.7888 47.4962 56.2549C47.4962 56.7211 47.8766 57.099 48.3458 57.099H64.7008C65.1701 57.099 65.5505 56.7211 65.5505 56.2549C65.5505 55.7888 65.1701 55.4109 64.7008 55.4109Z" fill="white"/>
<path d="M48.3458 49.9984H57.0685C57.5377 49.9984 57.9181 49.6205 57.9181 49.1543C57.9181 48.6882 57.5377 48.3103 57.0685 48.3103H48.3458C47.8766 48.3103 47.4962 48.6882 47.4962 49.1543C47.4962 49.6205 47.8766 49.9984 48.3458 49.9984Z" fill="white"/>
<path d="M64.7008 45.033H48.3458C47.8766 45.033 47.4962 45.4109 47.4962 45.877C47.4962 46.3431 47.8766 46.721 48.3458 46.721H64.7008C65.1701 46.721 65.5505 46.3431 65.5505 45.877C65.5505 45.4109 65.1701 45.033 64.7008 45.033Z" fill="white"/>
</g>
<defs>
<clipPath id="clip0_87_1747">
<rect width="58" height="57.6193" fill="white" transform="translate(20 21)"/>
</clipPath>
</defs>
</svg>
