<svg width="98" height="99" viewBox="0 0 98 99" fill="none" xmlns="http://www.w3.org/2000/svg">
<rect y="0.649414" width="98" height="98" rx="5" fill="#0085FF"/>
<path d="M38.6849 40.2029H22.2866C21.493 40.2029 20.8497 40.842 20.8497 41.6303V53.8436" stroke="white" stroke-width="1.68833" stroke-miterlimit="10" stroke-linecap="round" stroke-linejoin="round"/>
<path d="M20.8497 57.1077V59.7151C20.8497 60.5035 21.493 61.1425 22.2866 61.1425H35.342" stroke="white" stroke-width="1.68833" stroke-miterlimit="10" stroke-linecap="round" stroke-linejoin="round"/>
<path d="M31.866 47.6996C32.0721 47.8411 32.3452 47.8411 32.5513 47.6996C32.942 47.4315 33.658 47.0649 34.6516 47.0649C36.0979 47.0649 37.0945 48.1754 37.0945 49.4686C37.0945 50.9287 35.8017 52.6498 32.4643 54.1622C32.302 54.2357 32.1153 54.2357 31.953 54.1622C28.6156 52.6498 27.3228 50.9287 27.3228 49.4686C27.3228 48.1753 28.3194 47.0649 29.7657 47.0649C30.7593 47.0649 31.4753 47.4314 31.866 47.6996Z" stroke="white" stroke-width="1.68833" stroke-miterlimit="10" stroke-linecap="round" stroke-linejoin="round"/>
<path d="M65.5862 37.3679L64.9061 31.8428" stroke="white" stroke-width="1.68833" stroke-miterlimit="10" stroke-linecap="round" stroke-linejoin="round"/>
<path d="M64.5043 28.5782L64.0211 24.6523C63.955 24.1153 63.4632 23.7332 62.9225 23.7988L38.3461 26.7843C37.8056 26.8499 37.4208 27.3385 37.487 27.8756L40.9514 56.0228" stroke="white" stroke-width="1.68833" stroke-miterlimit="10" stroke-linecap="round" stroke-linejoin="round"/>
<path d="M44.6044 31.9694L58.1064 30.3293" stroke="white" stroke-width="1.68833" stroke-miterlimit="10" stroke-linecap="round" stroke-linejoin="round"/>
<path d="M45.2688 37.3677L56.6425 35.9861" stroke="white" stroke-width="1.68833" stroke-miterlimit="10" stroke-linecap="round" stroke-linejoin="round"/>
<path d="M45.9333 42.766L54.5265 41.7222" stroke="white" stroke-width="1.68833" stroke-miterlimit="10" stroke-linecap="round" stroke-linejoin="round"/>
<path d="M46.5977 48.1646L52.3464 47.4663" stroke="white" stroke-width="1.68833" stroke-miterlimit="10" stroke-linecap="round" stroke-linejoin="round"/>
<path d="M47.2622 53.5629L50.3592 53.1868" stroke="white" stroke-width="1.68833" stroke-miterlimit="10" stroke-linecap="round" stroke-linejoin="round"/>
<path d="M73.2659 53.4635L77.0754 43.0305C77.3096 42.3891 76.976 41.6806 76.3305 41.4479L58.4674 35.0109C57.8219 34.7782 57.1086 35.1096 56.8745 35.7509L53.3655 45.3611C65.7443 43.4215 63.8182 52.5252 73.2659 53.4635Z" stroke="white" stroke-width="1.68833" stroke-miterlimit="10" stroke-linecap="round" stroke-linejoin="round"/>
<path d="M62.6203 61.3596L68.3113 63.4103C68.9569 63.643 69.6701 63.3116 69.9043 62.6703L73.266 53.4634" stroke="white" stroke-width="1.68833" stroke-miterlimit="10" stroke-linecap="round" stroke-linejoin="round"/>
<path d="M53.3656 45.3613L49.7034 55.3911C49.664 55.4992 49.6406 55.609 49.6321 55.7183" stroke="white" stroke-width="1.68833" stroke-miterlimit="10" stroke-linecap="round" stroke-linejoin="round"/>
<path d="M70.5593 46.5243C71.5094 46.5243 72.2796 45.7591 72.2796 44.8152C72.2796 43.8714 71.5094 43.1062 70.5593 43.1062C69.6092 43.1062 68.839 43.8714 68.839 44.8152C68.839 45.7591 69.6092 46.5243 70.5593 46.5243Z" stroke="white" stroke-width="1.68833" stroke-miterlimit="10" stroke-linecap="round" stroke-linejoin="round"/>
<path d="M51.8167 65.1925L47.1919 62.0787C46.6003 61.6804 45.8011 62.1015 45.8011 62.8115V69.0389C45.8011 69.7489 46.6003 70.17 47.1919 69.7716L51.8167 66.6579C52.3382 66.3069 52.3382 65.5436 51.8167 65.1925Z" stroke="white" stroke-width="1.68833" stroke-miterlimit="10" stroke-linecap="round" stroke-linejoin="round"/>
<path d="M62.4108 67.5378V57.4643C62.4108 56.6683 61.7613 56.0229 60.9599 56.0229H37.0491C36.2479 56.0229 35.5982 56.6682 35.5982 57.4643V74.3867C35.5982 75.1827 36.2477 75.828 37.0491 75.828H60.9599C61.7611 75.828 62.4108 75.1828 62.4108 74.3867V70.8019" stroke="white" stroke-width="1.68833" stroke-miterlimit="10" stroke-linecap="round" stroke-linejoin="round"/>
</svg>
