<svg width="98" height="99" viewBox="0 0 98 99" fill="none" xmlns="http://www.w3.org/2000/svg">
<rect y="0.649414" width="98" height="98" rx="5" fill="#076856"/>
<g clip-path="url(#clip0_87_1775)">
<path d="M70.7301 56.8839C71.4611 54.6276 71.8324 52.2743 71.8324 49.8764C71.8324 47.4873 71.4638 45.1425 70.7372 42.8932C72.3351 42.2932 73.7878 41.3325 74.9941 40.055C77.0787 37.8482 78.1788 34.9613 78.0921 31.927C77.9124 25.6625 72.6705 20.7131 66.405 20.8918C63.3703 20.9786 60.5516 22.2419 58.4669 24.4491C57.4142 25.5638 56.6133 26.8519 56.0889 28.2449C53.8392 27.5188 51.4944 27.1502 49.1044 27.1502C46.7131 27.1502 44.3665 27.5197 42.1155 28.2467C40.4919 23.9504 36.3368 20.887 31.479 20.887C25.2118 20.887 20.1132 25.9855 20.1132 32.2523C20.1132 37.1097 23.1771 41.2643 27.4734 42.8874C26.7459 45.1389 26.3769 47.4855 26.3769 49.8764C26.3769 52.2743 26.7481 54.6276 27.4792 56.8839C23.1798 58.5057 20.1132 62.6621 20.1132 67.5217C20.1132 69.2325 20.484 70.8772 21.2155 72.4101C21.4177 72.8336 21.9248 73.0132 22.3483 72.811C22.7714 72.6088 22.951 72.1017 22.7492 71.6782C22.1275 70.3754 21.8124 68.9771 21.8124 67.5217C21.8124 62.1922 26.149 57.8561 31.479 57.8561C36.8094 57.8561 41.1459 62.1922 41.1459 67.5217C41.1459 72.8517 36.8094 77.1878 31.479 77.1878C29.0478 77.1878 26.7243 76.282 24.9365 74.6372C24.5909 74.3195 24.0533 74.3421 23.736 74.6872C23.4183 75.0328 23.4404 75.57 23.786 75.8877C25.8884 77.8219 28.6204 78.887 31.479 78.887C36.3439 78.887 40.5043 75.8143 42.1226 71.5083C44.3709 72.234 46.7153 72.6026 49.1044 72.6026C51.4939 72.6026 53.8388 72.234 56.0871 71.5087C57.7054 75.8147 61.8658 78.887 66.7307 78.887C72.9979 78.887 78.0965 73.7885 78.0965 67.5217C78.0965 62.6621 75.0299 58.5052 70.7301 56.8839ZM59.7024 25.6156C61.4751 23.7385 63.873 22.6641 66.4542 22.5902C66.548 22.5875 66.6409 22.5862 66.7347 22.5862C71.9377 22.5862 76.2437 26.7418 76.3933 31.9753C76.4672 34.556 75.5317 37.011 73.759 38.8885C71.9864 40.7656 69.5884 41.84 67.0073 41.9139C66.9135 41.9166 66.8201 41.9179 66.7267 41.9179C61.5238 41.9179 57.2177 37.7624 57.0682 32.5288C56.9938 29.9481 57.9297 27.4927 59.7024 25.6156ZM55.6106 69.8767C53.5171 70.5573 51.3324 70.9034 49.1044 70.9034C46.8773 70.9034 44.6926 70.5573 42.5991 69.8767C42.7598 69.1165 42.8452 68.3289 42.8452 67.5217C42.8452 61.255 37.7462 56.1569 31.479 56.1569C30.667 56.1569 29.8749 56.2431 29.1107 56.4055C28.4244 54.3045 28.0761 52.1119 28.0761 49.8764C28.0761 47.6479 28.4226 45.4624 29.1045 43.3667C29.8705 43.5304 30.6648 43.6171 31.479 43.6171C33.426 43.6171 35.3469 43.1162 37.0351 42.1688C37.4439 41.9392 37.5895 41.4214 37.3599 41.0121C37.1302 40.6028 36.6125 40.4577 36.2032 40.6873C34.7686 41.4922 33.1348 41.9179 31.479 41.9179C26.1486 41.9179 21.8124 37.5818 21.8124 32.2518C21.8124 26.9223 26.149 22.5862 31.479 22.5862C36.8094 22.5862 41.1459 26.9223 41.1459 32.2523C41.1459 34.4821 40.3685 36.6574 38.9569 38.3783C38.6591 38.7407 38.7122 39.2762 39.075 39.574C39.4374 39.8713 39.9729 39.8187 40.2707 39.4558C41.9305 37.4322 42.8452 34.8737 42.8452 32.2518C42.8452 31.4381 42.758 30.6438 42.5947 29.8778C44.69 29.1959 46.8759 28.8494 49.1044 28.8494C51.3324 28.8494 53.5175 29.1954 55.6119 29.8765C55.4265 30.7535 55.3433 31.6584 55.3694 32.5775C55.546 38.7314 60.6082 43.6176 66.7263 43.6171C66.8356 43.6171 66.9458 43.6158 67.056 43.6123C67.7525 43.5924 68.4375 43.5096 69.1052 43.3685C69.7867 45.4633 70.1331 47.6488 70.1331 49.8764C70.1331 52.1119 69.7845 54.3045 69.0986 56.4055C68.3344 56.2427 67.5423 56.1569 66.7307 56.1569C60.4635 56.1569 55.365 61.255 55.365 67.5217C55.365 68.3293 55.4499 69.117 55.6106 69.8767ZM66.7307 77.1878C61.4003 77.1878 57.0642 72.8517 57.0642 67.5222C57.0642 62.1922 61.4003 57.8561 66.7307 57.8561C72.0611 57.8561 76.3973 62.1922 76.3973 67.5222C76.3973 72.8517 72.0611 77.1878 66.7307 77.1878Z" fill="white"/>
<path d="M37.2643 27.2368C36.9714 27.0376 36.586 27.0407 36.2966 27.2452C36.0072 27.4492 35.6974 27.6195 35.3717 27.7545C34.2044 26.8412 32.5127 26.8518 31.3538 27.8594C30.7515 28.3833 30.375 29.1077 30.2873 29.89C29.0408 29.7046 27.9142 29.0183 27.1752 27.966C26.9991 27.7156 26.7017 27.5797 26.3977 27.6089C26.0928 27.6386 25.8278 27.8297 25.7034 28.1094C25.6791 28.1643 25.1074 29.4705 25.1804 31.0693C25.2361 32.2928 25.6738 33.8699 27.2699 35.0877C26.6951 35.2731 26.088 35.359 25.4831 35.3346C25.0892 35.3191 24.7374 35.5753 24.6312 35.9541C24.525 36.3329 24.6928 36.7351 25.0366 36.9263C26.3694 37.6666 27.7974 38.0374 29.1926 38.0374C30.5329 38.0374 31.8428 37.6949 33.0083 37.0095C34.4699 36.1497 35.5319 34.8333 36.1085 33.2256C36.1266 33.1849 36.1417 33.1424 36.1536 33.0986C36.4501 32.2256 36.6054 31.2693 36.6054 30.2551C36.6054 30.2108 36.6041 30.1662 36.6023 30.1219C37.0873 29.5502 37.4334 28.8727 37.6121 28.1404C37.6953 27.7961 37.5573 27.4359 37.2643 27.2368ZM34.8801 29.99C34.8969 30.0785 34.9058 30.1701 34.9058 30.2577C34.9058 31.0905 34.7819 31.8618 34.546 32.5588C34.5332 32.5906 34.5226 32.6238 34.5137 32.6579C34.0725 33.8925 33.2694 34.8841 32.1468 35.5448C31.1193 36.1497 29.94 36.4072 28.7381 36.3201C29.0134 36.1838 29.2793 36.0289 29.5338 35.8563C29.7886 35.6829 29.9302 35.3851 29.9028 35.0775C29.8754 34.77 29.6833 34.5018 29.4015 34.3766C27.8151 33.6717 26.9668 32.5504 26.8805 31.0445C26.8628 30.7361 26.8783 30.4401 26.9115 30.1688C28.0801 31.1454 29.5771 31.6782 31.1396 31.6379C31.6003 31.626 31.9675 31.2494 31.9675 30.7888V30.2732C31.9675 30.2697 31.9675 30.2657 31.9675 30.2617C31.9618 29.8321 32.1441 29.4236 32.4689 29.1418C33.076 28.6138 33.9991 28.678 34.527 29.2851C34.6332 29.4068 34.7686 29.4931 34.9164 29.5387C34.8646 29.6812 34.8509 29.8365 34.8801 29.99Z" fill="white"/>
<path d="M63.935 32.922H65.1395V37.9883C65.1395 38.4573 65.5201 38.8379 65.9891 38.8379C66.4586 38.8379 66.8387 38.4573 66.8387 37.9883V32.922H68.1507C68.6198 32.922 69.0004 32.5415 69.0004 32.0724C69.0004 31.6034 68.6198 31.2228 68.1507 31.2228H66.8387V28.8457C66.8387 28.0297 67.5029 27.3655 68.3193 27.3655H69.4194C69.8885 27.3655 70.269 26.9849 70.269 26.5159C70.269 26.0464 69.8885 25.6663 69.4194 25.6663H68.3193C66.5661 25.6663 65.1395 27.0925 65.1395 28.8457V31.2228H63.935C63.4659 31.2228 63.0854 31.6034 63.0854 32.0724C63.0854 32.5415 63.4659 32.922 63.935 32.922Z" fill="white"/>
<path d="M29.5514 71.9154C29.7536 71.9154 29.9559 71.8632 30.136 71.7592L35.9191 68.4187C36.2797 68.2107 36.5036 67.8227 36.5036 67.4063C36.5036 66.9903 36.2797 66.6022 35.9191 66.3942L30.136 63.0538C29.7758 62.8454 29.328 62.8454 28.9673 63.0538C28.6067 63.2618 28.3823 63.6498 28.3823 64.0662V70.7467C28.3823 71.1631 28.6067 71.5512 28.9673 71.7592C29.1474 71.8636 29.3492 71.9154 29.5514 71.9154ZM30.0815 64.9849L34.2747 67.4067L30.0815 69.8285V64.9849Z" fill="white"/>
<path d="M70.4226 61.5044H63.0389C61.7566 61.5044 60.7131 62.5478 60.7131 63.8306V71.213C60.7131 72.4958 61.7566 73.5392 63.0389 73.5392H70.4226C71.705 73.5392 72.7484 72.4958 72.7484 71.213V63.8306C72.7484 62.5478 71.705 61.5044 70.4226 61.5044ZM71.0492 71.213C71.0492 71.559 70.7682 71.84 70.4226 71.84H63.0389C62.6933 71.84 62.4124 71.559 62.4124 71.213V63.8306C62.4124 63.485 62.6933 63.2036 63.0389 63.2036H70.4226C70.7682 63.2036 71.0492 63.485 71.0492 63.8306V71.213Z" fill="white"/>
<path d="M66.7308 64.9536C65.3148 64.9536 64.1625 66.1059 64.1625 67.5219C64.1625 68.9379 65.3148 70.0898 66.7308 70.0898C68.1468 70.0898 69.2991 68.9379 69.2991 67.5219C69.2991 66.1059 68.1468 64.9536 66.7308 64.9536ZM66.7308 68.3906C66.2515 68.3906 65.8617 68.0007 65.8617 67.5219C65.8617 67.0427 66.2515 66.6528 66.7308 66.6528C67.21 66.6528 67.5999 67.0427 67.5999 67.5219C67.5999 68.0007 67.21 68.3906 66.7308 68.3906Z" fill="white"/>
<path d="M55.2535 41.0615C54.784 41.0615 54.4039 41.4421 54.4039 41.9111V42.2921C53.2065 42.9979 51.9475 43.6073 50.6532 44.106C49.6169 44.5051 48.5464 44.837 47.4636 45.0967C47.2972 44.9688 47.0902 44.8914 46.8645 44.8914H42.9744C42.0345 44.8914 41.2703 45.6561 41.2703 46.5955V51.0573C41.2703 51.9972 42.0345 52.7614 42.9744 52.7614H43.7519L44.0466 58.4263C44.0701 58.8799 44.4453 59.2317 44.8944 59.2317C44.909 59.2317 44.9241 59.2312 44.9391 59.2304C45.4078 59.206 45.768 58.8064 45.7436 58.3378L45.4533 52.7614H46.8645C47.0897 52.7614 47.2972 52.6844 47.4632 52.5565C48.1526 52.7229 48.8385 52.9185 49.5089 53.141C49.9545 53.2884 50.4351 53.0472 50.5829 52.6021C50.7306 52.1565 50.489 51.6755 50.0439 51.5281C49.3239 51.2892 48.5876 51.079 47.8468 50.9006V46.753C49.0071 46.4751 50.1536 46.1189 51.2639 45.6915C52.3374 45.2777 53.3888 44.7932 54.4034 44.2445V53.4105C54.03 53.2087 53.6525 53.0163 53.2724 52.8335C52.8494 52.6299 52.3418 52.8078 52.1387 53.2309C51.9351 53.6539 52.113 54.1615 52.5361 54.365C53.1689 54.6695 53.7946 55.0049 54.4034 55.3624V55.7416C54.4034 56.2111 54.784 56.5913 55.2531 56.5913C55.7221 56.5913 56.1027 56.2111 56.1027 55.7416V41.9111C56.1031 41.4421 55.7226 41.0615 55.2535 41.0615ZM46.1481 51.0617L42.9695 51.0573L42.9744 46.5906H46.1481V51.0617Z" fill="white"/>
</g>
<defs>
<clipPath id="clip0_87_1775">
<rect width="58" height="58" fill="white" transform="translate(20 21)"/>
</clipPath>
</defs>
</svg>
