<svg width="68" height="69" viewBox="0 0 68 69" fill="none" xmlns="http://www.w3.org/2000/svg">
<g clip-path="url(#clip0_168_1804)">
<path d="M41.3876 20.9341C39.7941 20.9341 38.4648 22.0824 38.1814 23.5947L27.714 27.9426H23.9196C22.2575 27.9426 20.9055 29.2236 20.9055 30.7982V35.7104C20.9055 36.8894 21.6636 37.9037 22.7422 38.339V44.7507C22.7422 46.4515 24.1258 47.8351 25.8266 47.8351C27.5274 47.8351 28.9111 46.4515 28.9111 44.7507V39.0633L38.1814 42.9139C38.4648 44.4262 39.7942 45.5747 41.3876 45.5747C43.1868 45.5747 44.6505 44.1109 44.6505 42.3117V38.636C47.0531 38.0127 48.8255 35.8058 48.8255 33.2543C48.8255 30.7027 47.0531 28.4959 44.6505 27.8727V24.1969C44.6505 22.3977 43.1868 20.9341 41.3876 20.9341ZM28.9111 29.6069L38.1248 25.7797V40.7291L28.9111 36.9019V29.6069ZM22.9016 30.7982C22.9016 30.3243 23.3582 29.9386 23.9194 29.9386H26.9149V36.5698H23.9196C23.3583 36.5698 22.9017 36.1843 22.9017 35.7103V30.7982H22.9016ZM25.8266 45.8391C25.2264 45.8391 24.7382 45.3509 24.7382 44.7507V38.566H26.9149V44.7507C26.915 45.3509 26.4267 45.8391 25.8266 45.8391ZM42.6544 42.3118C42.6544 43.0103 42.0861 43.5786 41.3876 43.5786C40.6891 43.5786 40.1208 43.0103 40.1208 42.3118V24.1969C40.1208 23.4984 40.6891 22.9301 41.3876 22.9301C42.0861 22.9301 42.6544 23.4983 42.6544 24.1969V42.3118ZM46.8295 33.2543C46.8295 34.7083 45.9316 35.9878 44.6505 36.5345V29.9742C45.9315 30.5208 46.8295 31.8001 46.8295 33.2543Z" fill="#FFC700"/>
<path d="M58.8451 51.9858C57.1037 51.9858 55.4508 52.5559 54.0959 53.6047L49.5716 49.0805C52.9765 45.3403 54.7911 40.6604 55.0143 35.9184H58.6404C59.1 38.0504 60.9993 39.6535 63.2668 39.6535C65.8767 39.6536 68 37.5303 68 34.9204C68 32.3105 65.8767 30.1872 63.2668 30.1872C60.9993 30.1872 59.1001 31.7903 58.6404 33.9223H55.0143C54.7911 29.1804 52.9765 24.5005 49.5716 20.7602L54.0959 16.2359C55.4439 17.2792 57.0877 17.8494 58.8195 17.8549H58.8229C59.3725 17.8549 59.819 17.4103 59.8209 16.8602C59.8227 16.309 59.3773 15.8608 58.8261 15.8589C57.2885 15.8538 55.8429 15.2523 54.7555 14.165C52.5006 11.91 52.5006 8.24077 54.7555 5.98575C55.8479 4.89336 57.3002 4.29186 58.8452 4.29186C60.3901 4.29186 61.8424 4.89336 62.9348 5.98575C64.0273 7.07813 64.6288 8.53043 64.6288 10.0753C64.6288 11.6202 64.0273 13.0725 62.9348 14.165C62.6789 14.4209 62.3996 14.653 62.1042 14.8548C61.649 15.1657 61.5323 15.7869 61.8432 16.2419C62.1541 16.6968 62.7752 16.8138 63.2303 16.5028C63.6277 16.2312 64.0033 15.9195 64.3463 15.5763C65.8158 14.1068 66.6249 12.1532 66.6249 10.0752C66.6249 7.99719 65.8156 6.04352 64.3463 4.57421C62.877 3.10491 60.9234 2.29568 58.8452 2.29568C56.7671 2.29568 54.8136 3.10491 53.344 4.57421C50.5502 7.36819 50.332 11.775 52.6851 14.8238L48.1603 19.3487C44.4201 15.9438 39.7403 14.1291 34.9982 13.906V10.28C37.1303 9.82044 38.7333 7.92109 38.7333 5.65358C38.7332 3.04368 36.6099 0.92041 34 0.92041C31.3901 0.92041 29.2668 3.04368 29.2668 5.65358C29.2668 7.92109 30.8699 9.82044 33.0019 10.28V13.9062C28.26 14.1293 23.5801 15.9439 19.8398 19.3488L15.3149 14.8239C17.668 11.7752 17.4498 7.36832 14.656 4.57435C13.1867 3.10504 11.233 2.29582 9.15503 2.29582C7.07705 2.29582 5.12337 3.10504 3.65394 4.57435C2.1845 6.04365 1.37527 7.99746 1.37527 10.0754C1.37527 12.1534 2.1845 14.1071 3.6538 15.5765C5.12311 17.046 7.07678 17.8551 9.1549 17.8551C10.8963 17.8551 12.5492 17.2849 13.9041 16.2361L18.4297 20.7618C17.3207 21.9798 16.3586 23.316 15.5672 24.749C15.3008 25.2315 15.4758 25.8386 15.9584 26.1051C16.4407 26.3717 17.0479 26.1965 17.3145 25.7141C18.1751 24.1558 19.2565 22.7208 20.5284 21.4488C27.9564 14.0208 40.0432 14.0206 47.4714 21.4488C54.8998 28.8772 54.8998 40.9636 47.4714 48.392C40.0432 55.8201 27.9566 55.8201 20.5284 48.392C15.4902 43.3537 13.6878 35.9974 15.825 29.1937C15.9902 28.6679 15.6978 28.1075 15.172 27.9424C14.6452 27.7772 14.0858 28.0698 13.9206 28.5955C13.369 30.3513 13.0581 32.1404 12.9717 33.9225H9.35956C8.90003 31.7904 7.00068 30.1874 4.73317 30.1874C2.12327 30.1872 0 32.3105 0 34.9204C0 37.5303 2.12327 39.6536 4.73317 39.6536C7.00068 39.6536 8.8999 38.0505 9.35956 35.9185H12.9694C13.1945 40.7434 15.0814 45.402 18.4299 49.0792L13.9043 53.6047C12.5493 52.5559 10.8965 51.9858 9.15503 51.9858C7.07691 51.9858 5.12337 52.795 3.65394 54.2644C2.1845 55.7339 1.37541 57.6874 1.37541 59.7654C1.37541 61.8434 2.18463 63.797 3.65394 65.2665C5.12324 66.7359 7.07705 67.545 9.15503 67.545C9.70634 67.545 10.1531 67.0981 10.1531 66.5469C10.1531 65.9957 9.70634 65.5488 9.15503 65.5488C7.61016 65.5488 6.15772 64.9472 5.06547 63.8549C3.97295 62.7626 3.37145 61.3103 3.37145 59.7652C3.37145 58.2204 3.97295 56.7681 5.06547 55.6757C6.15772 54.5833 7.61016 53.9818 9.15503 53.9818C10.6999 53.9818 12.1522 54.5833 13.2447 55.6757C15.4996 57.9307 15.4996 61.5999 13.2449 63.8548C12.9668 64.1328 12.6613 64.3825 12.3367 64.5967C11.8766 64.9004 11.7499 65.5195 12.0537 65.9794C12.3573 66.4395 12.9764 66.5662 13.4364 66.2626C13.8728 65.9745 14.2832 65.6393 14.6563 65.2663C17.4501 62.4722 17.6683 58.0654 15.3151 55.0168L19.8401 50.4919C23.5803 53.8968 28.2602 55.7114 33.0022 55.9345V59.5607C30.8701 60.0202 29.2671 61.9196 29.2671 64.1871C29.2668 66.7971 31.3901 68.9204 34 68.9204C36.6099 68.9204 38.7332 66.7971 38.7332 64.1872C38.7332 61.9197 37.1301 60.0204 34.9981 59.5608V55.9347C39.74 55.7115 44.4199 53.8969 48.1602 50.492L52.685 55.0169C50.3318 58.0656 50.55 62.4725 53.3439 65.2665C54.8134 66.7359 56.767 67.545 58.8451 67.545C60.9232 67.545 62.8768 66.7358 64.3462 65.2665C65.8156 63.7972 66.6247 61.8435 66.6247 59.7655C66.6247 57.6875 65.8155 55.7339 64.3462 54.2644C62.8769 52.795 60.9231 51.9858 58.8451 51.9858ZM31.2629 5.65358C31.2629 4.1443 32.4907 2.91645 34 2.91645C35.5093 2.91645 36.7371 4.1443 36.7371 5.65358C36.7371 7.16286 35.5093 8.39072 34 8.39072C32.4907 8.39072 31.2629 7.16286 31.2629 5.65358ZM5.06547 14.165C3.97295 13.0726 3.37145 11.6203 3.37145 10.0753C3.37145 8.53043 3.97295 7.07813 5.06547 5.98575C6.15772 4.89336 7.61016 4.29186 9.15503 4.29186C10.6999 4.29186 12.1522 4.89336 13.2447 5.98575C15.4996 8.24077 15.4996 11.91 13.2447 14.165C12.1523 15.2574 10.7 15.8589 9.15503 15.8589C7.61002 15.8589 6.15772 15.2574 5.06547 14.165ZM63.2668 32.1833C64.7761 32.1833 66.004 33.4111 66.004 34.9204C66.004 36.4297 64.7761 37.6575 63.2668 37.6575C61.7575 37.6575 60.5297 36.4297 60.5297 34.9204C60.5297 33.4111 61.7575 32.1833 63.2668 32.1833ZM4.73317 37.6575C3.22389 37.6575 1.99604 36.4297 1.99604 34.9204C1.99604 33.4111 3.22389 32.1833 4.73317 32.1833C6.24245 32.1833 7.4703 33.4113 7.4703 34.9204C7.4703 36.4296 6.24245 37.6575 4.73317 37.6575ZM36.7371 64.1872C36.7371 65.6964 35.5093 66.9244 34 66.9244C32.4907 66.9244 31.2629 65.6965 31.2629 64.1872C31.2629 62.678 32.4907 61.4501 34 61.4501C35.5093 61.4501 36.7371 62.678 36.7371 64.1872ZM62.9345 63.8551C61.8423 64.9475 60.3898 65.549 58.845 65.549C57.3001 65.549 55.8477 64.9475 54.7553 63.8551C52.5004 61.6 52.5004 57.9308 54.7553 55.6758C55.8477 54.5834 57.3 53.9819 58.845 53.9819C60.3898 53.9819 61.8421 54.5834 62.9345 55.6758C64.027 56.7682 64.6286 58.2205 64.6286 59.7655C64.6287 61.3103 64.027 62.7626 62.9345 63.8551Z" fill="#FFC700"/>
</g>
<defs>
<clipPath id="clip0_168_1804">
<rect width="68" height="68" fill="white" transform="translate(0 0.92041)"/>
</clipPath>
</defs>
</svg>
