<svg width="68" height="68" viewBox="0 0 68 68" fill="none" xmlns="http://www.w3.org/2000/svg">
<mask id="mask0_168_1713" style="mask-type:luminance" maskUnits="userSpaceOnUse" x="0" y="0" width="68" height="68">
<path d="M67.7344 0H0V67.7344H67.7344V0Z" fill="white"/>
<path d="M33.8672 52.3883C34.5974 52.3883 35.1901 52.981 35.1901 53.7112C35.1901 54.4415 34.5974 55.0342 33.8672 55.0342C33.1369 55.0342 32.5443 54.4415 32.5443 53.7112C32.5443 52.981 33.1369 52.3883 33.8672 52.3883Z" fill="white"/>
</mask>
<g mask="url(#mask0_168_1713)">
<mask id="mask1_168_1713" style="mask-type:luminance" maskUnits="userSpaceOnUse" x="0" y="0" width="68" height="68">
<path d="M0 7.62939e-06H67.7344V67.7344H0V7.62939e-06Z" fill="white"/>
</mask>
<g mask="url(#mask1_168_1713)">
<path d="M33.8671 52.3883C34.5974 52.3883 35.1901 52.981 35.1901 53.7112C35.1901 54.4415 34.5974 55.0342 33.8671 55.0342C33.1369 55.0342 32.5442 54.4415 32.5442 53.7112C32.5442 52.981 33.1369 52.3883 33.8671 52.3883Z" fill="#0084FF"/>
<path d="M62.0456 41.8047C62.0456 45.4574 59.0835 48.4194 55.4309 48.4194C51.7783 48.4194 48.8162 45.4574 48.8162 41.8047C48.8162 38.1521 51.7783 35.1901 55.4309 35.1901C59.0835 35.1901 62.0456 38.1521 62.0456 41.8047Z" stroke="#0084FF" stroke-width="2.65625" stroke-miterlimit="10" stroke-linecap="round" stroke-linejoin="round"/>
<path d="M19.3148 64.2947H1.32291V61.6488C1.32291 55.8041 6.45855 51.0653 12.3033 51.0653C15.8765 51.0653 19.4326 52.8354 21.3482 55.5474" stroke="#0084FF" stroke-width="2.65625" stroke-miterlimit="10" stroke-linecap="round" stroke-linejoin="round"/>
<path d="M46.386 55.5474C48.3017 52.8354 51.8577 51.0653 55.431 51.0653C61.2757 51.0653 66.4113 55.8041 66.4113 61.6488V64.2947H48.4194" stroke="#0084FF" stroke-width="2.65625" stroke-miterlimit="10" stroke-linecap="round" stroke-linejoin="round"/>
<path d="M18.9178 41.8047C18.9178 45.4574 15.9558 48.4194 12.3031 48.4194C8.6505 48.4194 5.68845 45.4574 5.68845 41.8047C5.68845 38.1521 8.6505 35.1901 12.3031 35.1901C15.9558 35.1901 18.9178 38.1521 18.9178 41.8047Z" stroke="#0084FF" stroke-width="2.65625" stroke-miterlimit="10" stroke-linecap="round" stroke-linejoin="round"/>
<path d="M43.1276 36.5131C43.1276 41.6276 38.9815 45.7737 33.8671 45.7737C28.7526 45.7737 24.6065 41.6276 24.6065 36.5131C24.6065 31.3986 28.7526 27.2526 33.8671 27.2526C38.9815 27.2526 43.1276 31.3986 43.1276 36.5131Z" stroke="#0084FF" stroke-width="2.65625" stroke-miterlimit="10" stroke-linecap="round" stroke-linejoin="round"/>
<path d="M33.8194 3.43956L30.9579 9.29091L24.5602 10.2196L29.1905 14.7321L28.0977 21.1047L33.8194 18.0964C35.9692 19.2262 37.4537 20.0067 39.5426 21.1047L38.4484 14.7321L43.0787 10.2196L36.6809 9.29091L33.8194 3.43956Z" stroke="#0084FF" stroke-width="2.65625" stroke-miterlimit="10" stroke-linecap="round" stroke-linejoin="round"/>
<path d="M56.2619 25.743L60.3352 27.8835L59.5573 23.3485L62.8526 20.1351L58.2979 19.4736L56.2619 15.3461L54.2245 19.4736L49.6697 20.1351L52.9651 23.3485L52.1872 27.8835L56.2619 25.743Z" stroke="#0084FF" stroke-width="2.65625" stroke-miterlimit="10" stroke-linecap="round" stroke-linejoin="round"/>
<path d="M11.2819 25.743L15.3552 27.8835L14.5773 23.3485L17.8727 20.1351L13.3179 19.4736L11.2819 15.3461L9.24454 19.4736L4.68967 20.1351L7.9851 23.3485L7.20722 27.8835L11.2819 25.743Z" stroke="#0084FF" stroke-width="2.65625" stroke-miterlimit="10" stroke-linecap="round" stroke-linejoin="round"/>
<path d="M48.4193 64.2947H19.3147V62.9717C19.3147 60.2597 20.0569 57.721 21.3481 55.5474C23.8854 51.2796 28.5422 48.4194 33.867 48.4194C37.8861 48.4194 41.5242 50.048 44.1568 52.6819C45.0127 53.5379 45.7629 54.4997 46.386 55.5474C47.6771 57.721 48.4193 60.2597 48.4193 62.9717V64.2947Z" stroke="#0084FF" stroke-width="2.65625" stroke-miterlimit="10" stroke-linecap="round" stroke-linejoin="round"/>
<path d="M38.9379 55.2259C40.3535 56.156 41.5005 57.463 42.2334 59.0029" stroke="#0084FF" stroke-width="2.65625" stroke-miterlimit="10" stroke-linecap="round" stroke-linejoin="round"/>
</g>
</g>
</svg>
