<svg width="68" height="69" viewBox="0 0 68 69" fill="none" xmlns="http://www.w3.org/2000/svg">
<g clip-path="url(#clip0_168_1814)">
<path d="M65.9106 9.59941C64.3668 9.16512 62.7279 10.1277 62.352 11.6834L62.2201 12.2294C57.6153 10.3142 52.7752 8.85566 47.8142 7.89131C47.2732 7.78639 46.7494 8.13954 46.6442 8.68062C46.539 9.22169 46.8924 9.74551 47.4335 9.85069C52.3673 10.8099 57.1777 12.2705 61.7455 14.1943L57.4908 31.8063C52.6762 30.0796 45.4342 27.5234 34 27.5234C22.5659 27.5234 15.3238 30.0796 10.5092 31.8065L6.25456 14.1939C15.0376 10.4944 24.6118 8.54169 34 8.54169C37.1652 8.54169 40.3876 8.76615 43.5777 9.20868C44.1233 9.28478 44.6275 8.90321 44.7034 8.35735C44.7791 7.81136 44.398 7.30747 43.8521 7.23163C40.5714 6.77648 37.2567 6.54565 34 6.54565C24.4547 6.54565 14.7243 8.50902 5.78002 12.2296L5.64814 11.6835C5.27241 10.128 3.63337 9.16498 2.08956 9.59954C0.600334 10.0183 -0.281674 11.5244 0.0815685 13.0281L8.22922 46.7557C8.35871 47.2915 8.89766 47.6202 9.43369 47.4915C9.96946 47.3621 10.2988 46.8228 10.1695 46.287L2.02183 12.5594C1.91186 12.1039 2.17894 11.6478 2.62997 11.5208C3.09747 11.3893 3.59406 11.681 3.70788 12.1521L15.2841 60.0725C15.3941 60.528 15.127 60.9842 14.6759 61.1111C14.2086 61.2426 13.712 60.9511 13.598 60.4799L11.1079 50.1718C10.9784 49.6359 10.439 49.3068 9.90345 49.4361C9.36769 49.5655 9.03818 50.1048 9.16767 50.6406L11.6578 60.9487C12.0335 62.5041 13.6721 63.4671 15.2163 63.0327C16.7056 62.6138 17.5876 61.1077 17.2242 59.604L10.9806 33.7577C10.9984 33.7514 11.0155 33.7453 11.0333 33.7389C15.7169 32.0587 22.795 29.5194 34 29.5194C45.205 29.5194 52.283 32.0587 56.9668 33.7389C56.9846 33.7453 57.0017 33.7514 57.0195 33.7577L50.7758 59.6038C50.4125 61.1076 51.2945 62.6136 52.7837 63.0325C54.3278 63.467 55.9665 62.5041 56.3423 60.9486L60.6156 43.2585C60.745 42.7227 60.4156 42.1835 59.8799 42.054C59.3438 41.9246 58.8047 42.254 58.6754 42.7898L54.4019 60.4799C54.2881 60.951 53.7913 61.2428 53.324 61.1111C52.8729 60.9842 52.6059 60.5281 52.7158 60.0725L64.292 12.1521C64.406 11.681 64.9024 11.3892 65.3699 11.5208C65.821 11.6476 66.0881 12.1039 65.9781 12.5594L59.6146 38.9013C59.4853 39.4371 59.8147 39.9764 60.3504 40.1058C60.8869 40.2351 61.4255 39.9058 61.5549 39.37L67.9183 13.0281C68.2817 11.5244 67.3998 10.0183 65.9106 9.59941Z" fill="#599A8E"/>
<path d="M17.8476 16.1562C18.3811 16.0176 18.7012 15.4729 18.5627 14.9394C18.424 14.4059 17.8792 14.0861 17.3459 14.2243L13.5312 15.2151C12.9977 15.3536 12.6776 15.8984 12.8162 16.4319L15.2826 25.9288C15.4184 26.4577 15.9709 26.7869 16.5008 26.6493L20.3154 25.6586C20.8489 25.5199 21.169 24.9752 21.0305 24.4417C20.892 23.9082 20.3472 23.5884 19.8136 23.7267L16.965 24.4666L16.2328 21.6474L19.0815 20.9076C19.615 20.7691 19.935 20.2243 19.7965 19.6908C19.658 19.1574 19.1135 18.8372 18.5797 18.9757L15.731 19.7155L14.9988 16.8964L17.8476 16.1562Z" fill="#599A8E"/>
<path d="M36.0626 14.1075C36.6137 14.1075 37.0605 13.6607 37.0605 13.1095C37.0605 12.5584 36.6137 12.1116 36.0626 12.1116H32.1214C31.5702 12.1116 31.1234 12.5584 31.1234 13.1095V22.9214C31.1234 22.9224 31.1235 22.9233 31.1235 22.9242C31.1235 22.9252 31.1234 22.9261 31.1234 22.927C31.1234 23.4782 31.5702 23.925 32.1214 23.925H36.0626C36.6137 23.925 37.0605 23.4782 37.0605 22.927C37.0605 22.3759 36.6137 21.9291 36.0626 21.9291H33.1195V19.0164H36.0626C36.6137 19.0164 37.0605 18.5696 37.0605 18.0184C37.0605 17.4672 36.6137 17.0203 36.0626 17.0203H33.1195V14.1075H36.0626Z" fill="#599A8E"/>
<path d="M26.119 24.3803C27.0275 24.3803 27.8049 23.6995 27.9141 22.7962L29.0639 13.2824C29.13 12.7352 28.7401 12.2379 28.1928 12.1718C27.6449 12.1048 27.1483 12.4956 27.0822 13.0428L26.0173 21.8551L22.3716 13.7619C22.1451 13.2594 21.5544 13.0355 21.0517 13.2619C20.5491 13.4883 20.3252 14.0792 20.5517 14.5818L24.4877 23.3193C24.7843 23.9776 25.4183 24.3803 26.119 24.3803Z" fill="#599A8E"/>
<path d="M41.0076 12.367C40.5581 12.4294 40.2073 12.7872 40.1537 13.2378L38.9968 22.9813C38.9319 23.5287 39.3229 24.0251 39.8702 24.0901C40.4168 24.1555 40.9139 23.7641 40.9789 23.2167L41.6864 17.2587L44.5457 24.1381C44.7231 24.5651 45.1864 24.8184 45.6417 24.7378C46.0697 24.6619 46.4071 24.3045 46.4583 23.8728L47.6159 14.1238C47.6809 13.5765 47.2899 13.08 46.7426 13.0151C46.1952 12.9496 45.6988 13.341 45.6338 13.8885L44.9258 19.8519L42.0662 12.9724C41.8921 12.5534 41.457 12.3045 41.0076 12.367Z" fill="#599A8E"/>
<path d="M50.5482 26.0906C51.0782 26.2126 51.6226 25.8718 51.7447 25.342L53.7229 16.7529L55.8376 17.2399C56.3755 17.3637 56.9238 17.0119 57.0381 16.4727C57.1491 15.9477 56.808 15.4152 56.2855 15.2949L50.1111 13.8727C49.5741 13.7494 49.0384 14.0842 48.9146 14.6213C48.7909 15.1584 49.126 15.6941 49.6631 15.8178L51.7777 16.3048L49.7995 24.8938C49.6759 25.4312 50.0109 25.9668 50.5482 26.0906Z" fill="#599A8E"/>
</g>
<defs>
<clipPath id="clip0_168_1814">
<rect width="68" height="68" fill="white" transform="translate(0 0.84082)"/>
</clipPath>
</defs>
</svg>
