<svg width="68" height="68" viewBox="0 0 68 68" fill="none" xmlns="http://www.w3.org/2000/svg">
<g clip-path="url(#clip0_168_1822)">
<path d="M2.27683 39.7905C2.27683 40.4838 2.84089 41.0478 3.53417 41.0478H7.1658C7.85908 41.0478 8.42313 40.4839 8.42313 39.7905V33.447H9.38576C10.079 33.447 10.6431 32.8829 10.6431 32.1897V28.558C10.6431 27.8647 10.0792 27.3007 9.38576 27.3007H8.42313V27.1907C8.42313 26.5209 8.96806 25.9759 9.63797 25.9759H10.6602C11.3535 25.9759 11.9176 25.4118 11.9176 24.7186V21.0869C11.9176 20.3936 11.3536 19.8296 10.6602 19.8296H9.63797C5.57895 19.8296 2.27683 23.1318 2.27683 27.1907V27.3007H1.31434C0.621062 27.3007 0.0570068 27.8647 0.0570068 28.558V32.1897C0.0570068 32.8829 0.620929 33.447 1.31434 33.447H2.27683V39.7905ZM2.04335 31.4608V29.2869H3.0939C3.7387 29.2869 4.26318 28.7624 4.26318 28.1176V27.1907C4.26318 24.2269 6.67439 21.8158 9.6381 21.8158H9.93135V23.9897H9.63797C7.87289 23.9897 6.43692 25.4256 6.43692 27.1907V28.1176C6.43692 28.7624 6.96153 29.2869 7.6062 29.2869H8.65675V31.4608H7.6062C6.9614 31.4608 6.43692 31.9853 6.43692 32.6301V39.0616H4.26305V32.6301C4.26305 31.9853 3.73857 31.4608 3.09377 31.4608H2.04335Z" fill="#E87882"/>
<path d="M31.8052 34.0313C33.0899 34.0313 34.322 33.557 35.2745 32.6958C35.6815 32.328 35.7131 31.7 35.3452 31.2932C34.9773 30.8864 34.3494 30.8548 33.9426 31.2226C33.3558 31.753 32.5968 32.0452 31.8053 32.0452C31.0138 32.0452 30.2549 31.7531 29.6681 31.2226C29.261 30.8547 28.6332 30.8863 28.2655 31.2932C27.8976 31.7 27.9293 32.3281 28.3361 32.6958C29.2884 33.557 30.5206 34.0313 31.8052 34.0313Z" fill="#E87882"/>
<path d="M36.4341 61.1057C35.9457 61.2689 35.4428 61.3807 34.9312 61.4402C36.7604 58.624 36.9848 54.999 35.4017 51.9311C35.1921 51.525 34.7786 51.2598 34.3223 51.239C33.8683 51.2198 33.4346 51.4436 33.1904 51.8266C32.9175 52.2547 32.5995 52.6567 32.2453 53.0215C31.2512 54.0454 30.026 54.7466 28.6637 55.0781C28.0754 52.5928 25.8435 50.7652 23.202 50.7652C21.2722 50.7652 19.503 51.7439 18.4748 53.35H16.7281C16.3154 53.35 15.9394 53.5595 15.7222 53.9104C15.5053 54.2611 15.4858 54.6907 15.67 55.0595C15.7491 55.2177 15.854 55.4017 15.9906 55.596C15.7261 55.7872 15.5521 56.0797 15.5125 56.4124C15.4638 56.8221 15.6275 57.2203 15.9505 57.4773C16.3059 57.7601 16.9919 58.202 17.9403 58.3401C18.4081 59.5992 19.3116 60.648 20.497 61.2996C20.5825 61.5785 20.6814 61.8508 20.7907 62.1171H4.13978C4.07404 62.1171 4.02065 62.0637 4.02065 61.9979V61.3578C4.02065 57.1884 5.323 53.2156 7.78708 49.8688C8.11233 49.4272 8.01777 48.8054 7.57617 48.4803C7.13457 48.1551 6.51274 48.2496 6.18761 48.6912C3.47054 52.3815 2.0343 56.7617 2.0343 61.3578V61.9979C2.0343 63.1588 2.97873 64.1033 4.13965 64.1033H21.9031C23.6521 66.4946 26.4746 68.0001 29.5657 68.0001C33.1079 68.0001 36.3294 66.0487 37.9732 62.9076C38.2159 62.4439 38.1536 61.887 37.8145 61.489C37.4743 61.0896 36.9324 60.9393 36.4341 61.1057ZM29.5657 66.0139C26.184 66.0139 23.2073 63.7368 22.3265 60.4756C22.2288 60.1154 21.9792 59.8165 21.6417 59.6552C20.6684 59.1905 19.9568 58.3274 19.6892 57.2872C19.5543 56.7623 19.0849 56.3967 18.5466 56.3967C18.5134 56.3966 18.4806 56.3963 18.4485 56.395C18.5231 56.2632 18.5705 56.1154 18.5849 55.9604C18.6051 55.741 18.5572 55.5237 18.454 55.336H18.938C19.3791 55.336 19.7804 55.0925 19.9855 54.7005C20.6148 53.4982 21.8474 52.7512 23.2022 52.7512C25.1311 52.7512 26.7219 54.2591 26.8239 56.1835C26.8398 56.4849 26.9815 56.7686 27.2128 56.9621C27.4433 57.1552 27.7469 57.244 28.0443 57.2072C30.1753 56.9421 32.1734 55.9468 33.6705 54.4049C33.8175 54.2535 33.9596 54.0969 34.0964 53.9358C34.9605 56.555 34.3201 59.4757 32.3523 61.5024C32.3519 61.5028 32.3517 61.5032 32.3513 61.5036C32.3509 61.504 32.3505 61.5044 32.3501 61.5048C32.0458 61.8185 31.9487 62.2685 32.0969 62.6794C32.2452 63.0903 32.6071 63.3747 33.0414 63.4215C33.7874 63.5022 34.5303 63.4934 35.256 63.4016C33.8493 65.0429 31.7871 66.0139 29.5657 66.0139Z" fill="#E87882"/>
<path d="M26.2844 26.0162C27.0615 25.8903 27.5894 25.1582 27.4634 24.3811C27.3374 23.6039 26.6053 23.0761 25.8282 23.2021C25.0511 23.3281 24.5233 24.0601 24.6492 24.8373C24.7752 25.6144 25.5073 26.1422 26.2844 26.0162Z" fill="#E87882"/>
<path d="M37.7676 26.0182C38.5447 25.8922 39.0725 25.1601 38.9465 24.383C38.8206 23.6059 38.0885 23.0781 37.3114 23.204C36.5343 23.33 36.0064 24.0621 36.1324 24.8392C36.2584 25.6163 36.9905 26.1442 37.7676 26.0182Z" fill="#E87882"/>
<path d="M63.3543 33.6878H55.7212C53.1908 33.6878 51.1324 35.7464 51.1324 38.2766V42.6726C48.0408 40.9468 44.5777 40.0189 41.0014 39.974V37.4224C42.1276 36.1307 43.0586 34.6936 43.7731 33.1295C45.0213 32.9578 46.1725 32.3803 47.0663 31.4665C48.1153 30.3944 48.6929 28.9776 48.6929 27.4774V26.3304C48.6929 24.3778 47.2598 22.7535 45.3901 22.4542L45.3799 14.1663C45.3799 13.219 45.611 12.2472 46.0482 11.3562C46.5901 10.2519 46.8648 9.06493 46.8648 7.82805C46.8648 4.13041 44.3705 0.928037 40.7986 0.0403178C40.1613 -0.117995 39.4911 0.195576 39.205 0.78606C38.4375 2.37158 36.8678 3.35651 35.108 3.35651H26.4457C25.1257 3.35651 23.813 3.67712 22.6494 4.28381C22.1631 4.53735 21.9743 5.13713 22.2279 5.62349C22.4814 6.10985 23.0811 6.29831 23.5675 6.04504C24.4614 5.57913 25.4297 5.34272 26.4457 5.34272H35.108C37.4296 5.34272 39.5951 4.08247 40.7568 2.094C43.2052 2.90216 44.8786 5.19836 44.8786 7.82778C44.8786 8.75866 44.6722 9.65129 44.2652 10.4808C43.695 11.6427 43.3937 12.917 43.3937 14.1659V16.0396C42.8742 15.7653 42.2832 15.6091 41.6561 15.6091H21.9545C21.3243 15.6091 20.7305 15.7666 20.2092 16.0434V11.5799C20.2092 10.5621 20.4463 9.59219 20.9137 8.69717C21.1676 8.21108 20.9793 7.61103 20.4932 7.35709C20.0068 7.10302 19.4069 7.29148 19.1531 7.77758C18.5447 8.94261 18.223 10.2575 18.223 11.5797L18.2205 22.4542C16.3509 22.7534 14.9179 24.3777 14.9179 26.3304V27.4774C14.9179 28.9776 15.4955 30.3944 16.5443 31.4665C17.4381 32.3803 18.5893 32.9578 19.8375 33.1295C20.6628 34.936 21.7755 36.5737 23.1468 38.0122V39.974C21.4995 39.996 19.8743 40.2028 18.2974 40.5944C14.9697 41.4142 11.865 43.0275 9.25885 45.3322C8.84793 45.6954 8.80942 46.3231 9.17279 46.734C9.53723 47.146 10.1652 47.1824 10.5746 46.8201C12.6863 44.9527 15.1587 43.5853 17.814 42.7847C18.7519 46.7055 22.2583 49.5381 26.3972 49.5381H37.7511C41.8912 49.5381 45.3982 46.7039 46.3351 42.7818C48.0194 43.2891 49.6312 44.0282 51.1324 44.9843V45.9098C51.1324 48.4401 53.1908 50.4986 55.7212 50.4986H56.8019C58.9767 53.7101 60.1275 57.4564 60.1275 61.3572V61.9974C60.1275 62.0631 60.0741 62.1165 60.0084 62.1165H41.5729C41.0244 62.1165 40.5798 62.5611 40.5798 63.1095C40.5798 63.658 41.0244 64.1027 41.5729 64.1027H60.0084C61.1693 64.1027 62.1137 63.1583 62.1137 61.9974V61.3572C62.1137 57.5009 61.0956 53.7797 59.1557 50.4986H63.3543C65.8847 50.4986 67.9431 48.4401 67.9431 45.9098V38.2766C67.943 35.7463 65.8845 33.6878 63.3543 33.6878ZM20.5341 31.196C18.5325 31.1479 16.9039 29.4798 16.9039 27.4774V26.3304C16.9039 25.261 17.774 24.391 18.8433 24.391H19.2136C19.7621 24.391 20.2066 23.9463 20.2066 23.3979V19.3436C20.2066 18.3799 20.9907 17.5957 21.9545 17.5957H41.6561C42.6199 17.5957 43.404 18.3799 43.404 19.3436V23.3979C43.404 23.9464 43.8487 24.391 44.3971 24.391H44.7673C45.8366 24.391 46.7067 25.261 46.7067 26.3304V27.4774C46.7067 29.4798 45.0783 31.1481 43.0765 31.196C42.6843 31.2054 42.3345 31.4448 42.1836 31.8068C41.4025 33.6811 40.2868 35.3649 38.8671 36.8116L37.9126 37.7843C36.2905 39.4376 34.1215 40.348 31.8054 40.348C29.4891 40.348 27.3202 39.4376 25.6979 37.7843L24.7435 36.8116C23.3238 35.3649 22.2079 33.6809 21.4269 31.8068C21.2761 31.4448 20.9263 31.2054 20.5341 31.196ZM37.751 47.552H26.3971C23.186 47.552 20.4662 45.3529 19.7425 42.3104C20.946 42.0785 22.1765 41.9586 23.4193 41.9586C24.3642 41.9586 25.1329 41.1899 25.1329 40.2451V39.9538C27.0103 41.4954 29.3396 42.3343 31.8052 42.3343C34.5121 42.3343 37.0547 41.3235 39.0151 39.4813V40.2451C39.0151 41.1899 39.7838 41.9586 40.7286 41.9586C41.973 41.9586 43.2029 42.0773 44.406 42.308C43.6833 45.3516 40.9631 47.552 37.751 47.552ZM65.9568 45.9098C65.9568 47.3448 64.7894 48.5124 63.3542 48.5124H55.7211C54.286 48.5124 53.1185 47.3449 53.1185 45.9098V38.2766C53.1185 36.8416 54.2859 35.674 55.7211 35.674H63.3542C64.7892 35.674 65.9568 36.8416 65.9568 38.2766V45.9098Z" fill="#E87882"/>
<path d="M59.5376 38.3457C57.4711 38.3457 55.7898 40.027 55.7898 42.0934C55.7898 44.16 57.4711 45.8411 59.5376 45.8411C61.6042 45.8411 63.2853 44.1598 63.2853 42.0934C63.2855 40.027 61.6042 38.3457 59.5376 38.3457ZM59.5376 43.8549C58.5664 43.8549 57.776 43.0647 57.776 42.0934C57.776 41.1221 58.5662 40.3319 59.5376 40.3319C60.5089 40.3319 61.2991 41.1221 61.2991 42.0934C61.2993 43.0648 60.509 43.8549 59.5376 43.8549Z" fill="#E87882"/>
<path d="M63.5356 39.128C64.1526 39.128 64.6528 38.6278 64.6528 38.0108C64.6528 37.3937 64.1526 36.8936 63.5356 36.8936C62.9185 36.8936 62.4183 37.3937 62.4183 38.0108C62.4183 38.6278 62.9185 39.128 63.5356 39.128Z" fill="#E87882"/>
<path d="M21.6935 56.8629C22.3105 56.8629 22.8107 56.3627 22.8107 55.7456C22.8107 55.1286 22.3105 54.6284 21.6935 54.6284C21.0765 54.6284 20.5763 55.1286 20.5763 55.7456C20.5763 56.3627 21.0765 56.8629 21.6935 56.8629Z" fill="#E87882"/>
</g>
<defs>
<clipPath id="clip0_168_1822">
<rect width="68" height="68" fill="white"/>
</clipPath>
</defs>
</svg>
