<svg width="68" height="68" viewBox="0 0 68 68" fill="none" xmlns="http://www.w3.org/2000/svg">
<g clip-path="url(#clip0_168_1808)">
<path d="M53.6644 28.5604C64.7476 28.6559 71.725 16.0628 65.7769 6.7285C65.1162 5.67172 63.3969 6.67937 64.0879 7.78422C69.2045 15.8159 63.1989 26.6519 53.6642 26.5684C46.8912 26.5685 41.3808 21.0582 41.3808 14.2849C41.2966 4.44243 52.7599 -1.50068 60.7404 4.2435C61.7585 4.96246 62.9539 3.36799 61.8893 2.61637C52.6121 -4.06084 39.2909 2.84597 39.3889 14.2851C39.3889 22.1565 45.793 28.5604 53.6644 28.5604Z" fill="#FF800B"/>
<path d="M64.9364 61.9948H63.0955V51.1299C63.0955 50.5799 62.6497 50.1339 62.0995 50.1339H51.0775C50.5274 50.1339 50.0816 50.5799 50.0816 51.1299V61.9948H47.9994V43.2873C47.9994 42.7373 47.5536 42.2913 47.0034 42.2913H35.9814C35.4312 42.2913 34.9854 42.7373 34.9854 43.2873V61.9948H32.9032V28.3744C32.9032 27.8244 32.4573 27.3784 31.9072 27.3784H20.8852C20.3352 27.3784 19.8893 27.8244 19.8893 28.3744V61.9948H17.8071V13.4982C17.8071 12.9481 17.3611 12.5022 16.8111 12.5022H5.78909C5.23906 12.5022 4.79313 12.9481 4.79313 13.4982V61.9948H2.95166C-0.920247 61.9948 -0.920247 68.0007 2.95166 68.0007H8.57938C9.82567 68.0007 9.8825 66.0088 8.57938 66.0088H2.95166C1.68692 66.0088 1.62902 63.9867 2.95166 63.9867H64.9364C66.2012 63.9867 66.2591 66.0088 64.9364 66.0088H13.8863C12.64 66.0088 12.5832 68.0007 13.8863 68.0007H64.9364C68.8083 68.0006 68.8083 61.9948 64.9364 61.9948ZM6.78519 61.9948V14.4941H15.8153V61.9948H6.78519ZM21.8812 61.9948V29.3704H30.9113V61.9948H21.8812ZM36.9774 61.9948V44.2833H46.0074V61.9948H36.9774ZM52.0735 61.9948V52.1259H61.1036V61.9948H52.0735Z" fill="#FF800B"/>
<path d="M53.5753 24.3206C54.1254 24.3206 54.5712 23.8747 54.5712 23.3247V22.1686C56.8059 21.7302 58.1531 19.8939 58.4001 18.1662C58.8434 15.0657 56.4715 13.4216 54.5712 12.9439V8.23396C55.3132 8.41164 55.7554 8.78692 55.7938 8.82052C56.1984 9.1869 56.8236 9.15941 57.1942 8.75744C57.5672 8.35308 57.5417 7.72297 57.1374 7.35008C57.0807 7.29789 56.1293 6.4403 54.5712 6.20645V5.24474C54.5712 4.69471 54.1254 4.24878 53.5753 4.24878C53.0251 4.24878 52.5793 4.69471 52.5793 5.24474V6.28187C50.9301 6.64507 49.6646 7.91114 49.3499 9.5813C48.8919 12.0117 50.5818 13.392 52.5793 14.2808V20.2526C51.8099 20.196 51.2771 20.0074 50.4036 19.436C49.3605 18.7537 48.2227 20.3896 49.3132 21.103C50.5865 21.9359 51.4561 22.1844 52.5793 22.2474V23.3245C52.5793 23.8747 53.0252 24.3206 53.5753 24.3206ZM51.7483 11.5329C51.3511 11.2213 51.182 10.6148 51.3074 9.95021C51.4196 9.35449 51.8126 8.63806 52.5793 8.3487V12.0647C52.2662 11.8949 51.9839 11.7177 51.7483 11.5329ZM56.4358 17.836C56.2824 18.7483 55.6487 19.7182 54.5712 20.1028V15.0657C56.4382 15.9944 56.5144 17.3687 56.4358 17.836Z" fill="#FF800B"/>
<path d="M55.9516 44.7106H54.4054C53.8552 44.7106 53.4094 45.1565 53.4094 45.7065C53.4094 46.2566 53.8552 46.7025 54.4054 46.7025H58.4583C59.0005 46.7025 59.4542 46.2485 59.4542 45.7065V41.4251C59.4542 40.875 59.0084 40.4291 58.4583 40.4291C57.9081 40.4291 57.4623 40.875 57.4623 41.4251V43.3972L11.9837 0.479949C10.9932 -0.391984 9.68926 0.991343 10.6166 1.92861L55.9516 44.7106Z" fill="#FF800B"/>
</g>
<defs>
<clipPath id="clip0_168_1808">
<rect width="68" height="68" fill="white"/>
</clipPath>
</defs>
</svg>
