<svg width="72" height="72" viewBox="0 0 72 72" fill="none" xmlns="http://www.w3.org/2000/svg">
<path d="M52.3014 52.5064C50.9902 52.5064 49.7071 52.3513 48.4664 52.0693L48.0717 64.2231V64.3641C48.0717 66.6764 49.9609 68.5658 52.3014 68.5658C54.6843 68.5658 56.5878 66.5918 56.5172 64.2231L56.1084 52.0693C54.8817 52.3513 53.6127 52.5064 52.3014 52.5064Z" fill="#DC3545"/>
<path d="M66.4004 35.5799C66.4004 27.7836 60.0845 21.4678 52.3023 21.4678C44.5061 21.4678 38.1901 27.7836 38.1901 35.5799C38.1901 43.3621 44.5061 49.6921 52.3023 49.6921C60.0845 49.6921 66.4004 43.3621 66.4004 35.5799ZM49.7918 41.7789C49.038 41.7789 48.3295 41.4856 47.7973 40.9521L44.9967 38.1515C44.4459 37.6007 44.4459 36.7085 44.9967 36.1577C45.5475 35.6069 46.4397 35.6069 46.9905 36.1577L49.7918 38.959L57.6003 31.1505C58.1511 30.5998 59.0433 30.5998 59.5941 31.1505C60.1448 31.7013 60.1448 32.5936 59.5941 33.1443L51.7856 40.9527C51.2527 41.4856 50.545 41.7789 49.7918 41.7789Z" fill="#DC3545"/>
<path d="M26.3532 3.43408H6.36083C4.72615 3.43408 3.39685 4.76339 3.39685 6.39806V12.8528H26.3532V3.43408ZM9.37185 9.6211H8.78571C7.96728 9.6211 7.30372 8.95753 7.30372 8.13911C7.30372 7.32069 7.96728 6.65712 8.78571 6.65712H9.37185C10.1903 6.65712 10.8538 7.32069 10.8538 8.13911C10.8538 8.95753 10.1903 9.6211 9.37185 9.6211ZM15.1674 9.6211H14.5805C13.7621 9.6211 13.0985 8.95753 13.0985 8.13911C13.0985 7.32069 13.7621 6.65712 14.5805 6.65712H15.1674C15.9858 6.65712 16.6494 7.32069 16.6494 8.13911C16.6494 8.95753 15.9858 9.6211 15.1674 9.6211ZM20.9629 9.6211H20.3761C19.5576 9.6211 18.8941 8.95753 18.8941 8.13911C18.8941 7.32069 19.5576 6.65712 20.3761 6.65712H20.9629C21.7813 6.65712 22.4449 7.32069 22.4449 8.13911C22.4449 8.95753 21.7813 9.6211 20.9629 9.6211Z" fill="#DC3545"/>
<path d="M68.5955 6.38938C68.5955 5.57376 68.264 4.8343 67.7291 4.298C67.1929 3.7646 66.4548 3.43408 65.6402 3.43408H29.317V12.8528H68.5955V6.38938ZM61.6046 9.6211H36.3073C35.4888 9.6211 34.8253 8.95753 34.8253 8.13911C34.8253 7.32069 35.4888 6.65712 36.3073 6.65712H61.6046C62.423 6.65712 63.0866 7.32069 63.0866 8.13911C63.0866 8.95753 62.423 9.6211 61.6046 9.6211Z" fill="#DC3545"/>
<path d="M9.32458 34.4062H13.6826V38.7493H9.32458V34.4062Z" fill="#DC3545"/>
<path d="M9.32458 21.752H13.6826V26.095H9.32458V21.752Z" fill="#DC3545"/>
<path d="M9.32458 47.062H13.6826V51.4051H9.32458V47.062Z" fill="#DC3545"/>
<path d="M59.0449 51.2442L59.2524 57.3351H65.6398C67.2699 57.3351 68.6038 56.0013 68.6038 54.3712V40.6035C67.1366 45.3903 63.6095 49.288 59.0449 51.2442Z" fill="#DC3545"/>
<path d="M3.39612 15.8096V54.371C3.39612 56.0011 4.72995 57.3349 6.3601 57.3349H45.3364L45.5291 51.244C39.4678 48.6208 35.2292 42.5743 35.2292 35.5794C35.2292 26.1687 42.8911 18.5068 52.3018 18.5068C59.9636 18.5068 66.4548 23.59 68.6037 30.5554V15.8096L3.39612 15.8096ZM21.595 20.463H31.6577C32.4727 20.463 33.1397 21.13 33.1397 21.945C33.1397 22.7601 32.4727 23.427 31.6577 23.427H21.595C20.7798 23.427 20.113 22.7601 20.113 21.945C20.113 21.13 20.7798 20.463 21.595 20.463ZM21.595 26.0946H29.9979C30.8129 26.0946 31.4798 26.7615 31.4798 27.5766C31.4798 28.3917 30.8129 29.0586 29.9979 29.0586H21.595C20.7798 29.0586 20.113 28.3917 20.113 27.5766C20.113 26.7615 20.7798 26.0946 21.595 26.0946ZM21.595 33.1192H28.5899C29.405 33.1192 30.0719 33.7861 30.0719 34.6012C30.0719 35.4164 29.405 36.0832 28.5899 36.0832H21.595C20.7798 36.0832 20.113 35.4164 20.113 34.6012C20.113 33.7861 20.7798 33.1192 21.595 33.1192ZM21.595 38.7508H29.2272C30.0423 38.7508 30.7092 39.4177 30.7092 40.2328C30.7092 41.0479 30.0423 41.7148 29.2272 41.7148H21.595C20.7798 41.7148 20.113 41.0479 20.113 40.2328C20.113 39.4177 20.7798 38.7508 21.595 38.7508ZM21.595 45.7755H31.6577C32.4727 45.7755 33.1397 46.4424 33.1397 47.2574C33.1397 48.0725 32.4727 48.7394 31.6577 48.7394H21.595C20.7798 48.7394 20.113 48.0725 20.113 47.2574C20.113 46.4424 20.7798 45.7755 21.595 45.7755ZM16.6451 51.407C16.6451 53.0371 15.3113 54.371 13.6811 54.371H9.32408C7.69392 54.371 6.3601 53.0371 6.3601 51.407V47.0648C6.3601 45.4345 7.69392 44.1008 9.32408 44.1008H13.6811C15.3113 44.1008 16.6451 45.4345 16.6451 47.0648V51.407ZM16.6451 38.7508C16.6451 40.381 15.3113 41.7148 13.6811 41.7148H9.32408C7.69392 41.7148 6.3601 40.381 6.3601 38.7508V34.4085C6.3601 32.7784 7.69392 31.4445 9.32408 31.4445H13.6811C15.3113 31.4445 16.6451 32.7784 16.6451 34.4085V38.7508ZM16.6451 26.0946C16.6451 27.7248 15.3113 29.0586 13.6811 29.0586H9.32408C7.69392 29.0586 6.3601 27.7248 6.3601 26.0946V21.7524C6.3601 20.1222 7.69392 18.7884 9.32408 18.7884H13.6811C15.3113 18.7884 16.6451 20.1222 16.6451 21.7524V26.0946ZM37.2003 51.407C38.0154 51.407 38.6823 52.0739 38.6823 52.889C38.6823 53.7041 38.0154 54.371 37.2003 54.371H21.595C20.7798 54.371 20.113 53.7041 20.113 52.889C20.113 52.0739 20.7798 51.407 21.595 51.407H37.2003Z" fill="#DC3545"/>
</svg>
