<svg width="72" height="72" viewBox="0 0 72 72" fill="none" xmlns="http://www.w3.org/2000/svg">
<path fill-rule="evenodd" clip-rule="evenodd" d="M56.135 31.2243L60.1632 39.7291L55.2888 39.2963L52.1868 43.0393L49.0122 34.1887C49.8672 33.7295 50.6017 33.0444 51.2281 32.1623C51.704 31.4923 52.4367 31.1886 53.247 31.326C54.271 31.4995 55.2371 31.4743 56.135 31.2243ZM41.2079 32.1623C40.7319 31.4922 39.9991 31.1888 39.1888 31.3261C38.1541 31.5013 37.1789 31.4739 36.2734 31.2167L32.2537 39.7034L37.1281 39.2706L40.2301 43.0136L43.4001 34.1759C42.5552 33.7169 41.8286 33.0362 41.2079 32.1623ZM30.5383 17.2116C30.5383 15.7024 31.2082 14.6582 32.4073 13.8065C33.6968 12.8906 34.3088 11.4132 34.0446 9.85364C33.7992 8.40338 34.0635 7.19161 35.1308 6.12441C36.1977 5.05749 37.4102 4.79241 38.86 5.03822C40.4196 5.30246 41.897 4.69046 42.813 3.40079C43.6646 2.20168 44.7089 1.53174 46.218 1.53174C47.727 1.53174 48.7713 2.20168 49.623 3.40079C50.5389 4.69046 52.0165 5.30232 53.576 5.03808C55.0263 4.79255 56.238 5.05693 57.3052 6.12427C58.3722 7.19119 58.6372 8.40366 58.3914 9.8535C58.1272 11.413 58.7392 12.8904 60.0287 13.8063C61.2278 14.6581 61.8978 15.7022 61.8978 17.2114C61.8978 18.7206 61.2278 19.7648 60.0287 20.6165C58.7392 21.5324 58.1272 23.01 58.3914 24.5693C58.6368 26.0196 58.3726 27.2314 57.3052 28.2986C56.2383 29.3655 55.026 29.6306 53.576 29.3846C52.0165 29.1204 50.5391 29.7324 49.623 31.0221C48.7714 32.2212 47.7271 32.8911 46.218 32.8911C44.7088 32.8911 43.6646 32.2212 42.813 31.0221C41.8971 29.7324 40.4196 29.1205 38.86 29.3848C37.4098 29.6302 36.198 29.3658 35.1308 28.2986C34.0639 27.2317 33.7988 26.0192 34.0446 24.5693C34.3088 23.0098 33.6968 21.5324 32.4073 20.6165C31.2082 19.7649 30.5383 18.7208 30.5383 17.2116ZM37.7805 17.2116C37.7805 21.8588 41.5707 25.6491 46.218 25.6491C50.8652 25.6491 54.6555 21.8588 54.6555 17.2116C54.6555 12.5643 50.8652 8.77407 46.218 8.77407C41.5707 8.77407 37.7805 12.5643 37.7805 17.2116ZM43.8511 20.003C44.0042 20.2681 44.2727 20.4469 44.575 20.4863C44.619 20.4923 44.6611 20.4952 44.7045 20.4952C44.9634 20.4952 45.215 20.3928 45.4006 20.2065L49.9975 15.6089C50.3826 15.2245 50.3826 14.601 49.9975 14.2167C49.6139 13.8323 48.9911 13.8323 48.6053 14.2167L44.9153 17.9074L43.9861 16.2989C43.715 15.8285 43.1131 15.6665 42.6413 15.9389C42.1702 16.2107 42.0103 16.8126 42.2814 17.2837L43.8512 20.0031L43.8511 20.003ZM65.8827 44.6118C60.2511 47.8632 51.3042 54.1758 43.8429 54.4079C40.0234 54.5014 35.5411 53.5595 33.7205 52.6119C33.165 52.3232 32.9487 51.6388 33.2376 51.0833C33.5263 50.5279 34.2108 50.3117 34.7663 50.6004C36.342 51.4206 40.3266 52.233 43.7899 52.1483C45.1159 52.1158 46.3361 51.9603 47.2416 51.6309C49.9351 50.6509 49.1415 46.7946 45.9039 46.9169C26.7543 46.9169 25.7836 32.1109 9.53227 51.4988L9.53916 51.5055L20.5092 62.4754C20.5182 62.4844 20.5269 62.4937 20.5357 62.5027C24.1178 60.6683 28.1128 60.6232 32.4032 60.8798C35.5781 61.0698 39.3671 61.5283 42.8432 61.4513C47.7004 61.3441 50.6772 60.0257 54.9423 57.7663C59.7982 55.194 68.2377 50.0708 69.7101 48.1356C71.817 45.3655 69.0968 42.7567 65.8828 44.6121L65.8827 44.6118ZM8.14711 52.8973C7.24134 51.9915 5.75902 51.9915 4.85325 52.8973L1.54688 56.2038L15.8106 70.4677L19.1171 67.1611C20.0229 66.2554 20.0229 64.773 19.1171 63.8673L8.14711 52.8974V52.8973Z" fill="#0084FF"/>
</svg>
