<svg width="72" height="72" viewBox="0 0 72 72" fill="none" xmlns="http://www.w3.org/2000/svg">
<path d="M22.32 7.40869V27.2721H28.6481L32.2322 33.976L35.8164 27.2721H49.68V7.40869H22.32ZM43.3519 23.0262H28.6481C28.4571 23.0262 28.274 22.9504 28.139 22.8153C28.0039 22.6803 27.9281 22.4972 27.9281 22.3062C27.9281 22.1153 28.0039 21.9321 28.139 21.7971C28.274 21.6621 28.4571 21.5862 28.6481 21.5862H43.3519C43.5429 21.5862 43.726 21.6621 43.861 21.7971C43.9961 21.9321 44.0719 22.1153 44.0719 22.3062C44.0719 22.4972 43.9961 22.6803 43.861 22.8153C43.726 22.9504 43.5429 23.0262 43.3519 23.0262ZM43.3519 18.0582H28.6481C28.4571 18.0582 28.274 17.9824 28.139 17.8473C28.0039 17.7123 27.9281 17.5292 27.9281 17.3382C27.9281 17.1473 28.0039 16.9641 28.139 16.8291C28.274 16.6941 28.4571 16.6182 28.6481 16.6182H43.3519C43.5429 16.6182 43.726 16.6941 43.861 16.8291C43.9961 16.9641 44.0719 17.1473 44.0719 17.3382C44.0719 17.5292 43.9961 17.7123 43.861 17.8473C43.726 17.9824 43.5429 18.0582 43.3519 18.0582ZM43.3519 13.0902H28.6481C28.4571 13.0902 28.274 13.0144 28.139 12.8793C28.0039 12.7443 27.9281 12.5612 27.9281 12.3702C27.9281 12.1793 28.0039 11.9961 28.139 11.8611C28.274 11.7261 28.4571 11.6502 28.6481 11.6502H43.3519C43.5429 11.6502 43.726 11.7261 43.861 11.8611C43.9961 11.9961 44.0719 12.1793 44.0719 12.3702C44.0719 12.5612 43.9961 12.7443 43.861 12.8793C43.726 13.0144 43.5429 13.0902 43.3519 13.0902Z" fill="#C33DAB"/>
<path d="M57.8217 36.6215C60.3941 36.6215 62.4794 34.5362 62.4794 31.9638C62.4794 29.3915 60.3941 27.3062 57.8217 27.3062C55.2494 27.3062 53.1641 29.3915 53.1641 31.9638C53.1641 34.5362 55.2494 36.6215 57.8217 36.6215Z" fill="#C33DAB"/>
<path d="M14.1775 36.6215C16.7499 36.6215 18.8352 34.5362 18.8352 31.9638C18.8352 29.3915 16.7499 27.3062 14.1775 27.3062C11.6052 27.3062 9.51984 29.3915 9.51984 31.9638C9.51984 34.5362 11.6052 36.6215 14.1775 36.6215Z" fill="#C33DAB"/>
<path d="M29.7972 55.1174C29.8047 55.4185 29.7519 55.718 29.6418 55.9984C29.5317 56.2787 29.3666 56.5342 29.1562 56.7497C28.9459 56.9652 28.6945 57.1365 28.4169 57.2533C28.1393 57.3702 27.8412 57.4303 27.54 57.4301H16.9027C16.2265 57.4295 15.5781 57.1607 15.0998 56.6825C14.6216 56.2044 14.3525 55.5561 14.3518 54.8798V52.1935C14.3518 52.0026 14.2759 51.8194 14.1409 51.6844C14.0059 51.5494 13.8227 51.4735 13.6318 51.4735C13.4408 51.4735 13.2577 51.5494 13.1227 51.6844C12.9876 51.8194 12.9118 52.0026 12.9118 52.1935V54.8798C12.9129 55.813 13.2406 56.7164 13.8381 57.4332C14.4355 58.1501 15.265 58.6352 16.1827 58.8045V64.5876H7.20001V47.7288C7.20001 44.1576 10.0635 41.2322 13.5785 41.207H13.6318C15.337 41.2091 16.9718 41.8874 18.1777 43.0931C19.3835 44.2988 20.062 45.9336 20.0643 47.6388V52.1935C20.0643 52.3845 20.1401 52.5676 20.2751 52.7026C20.4102 52.8377 20.5933 52.9135 20.7843 52.9135H27.4803C28.728 52.9135 29.7691 53.9021 29.7972 55.1174Z" fill="#C33DAB"/>
<path d="M54.3773 58.8701V64.5905L17.6227 64.5876V58.8701H54.3773Z" fill="#C33DAB"/>
<path d="M64.8 47.7361V64.5913H55.8172V58.8046C56.7349 58.6353 57.5644 58.1502 58.1619 57.4333C58.7593 56.7164 59.087 55.8131 59.0882 54.8799V52.1936C59.0882 52.0026 59.0124 51.8195 58.8773 51.6845C58.7423 51.5494 58.5592 51.4736 58.3682 51.4736C58.1773 51.4736 57.9941 51.5494 57.8591 51.6845C57.7241 51.8195 57.6482 52.0026 57.6482 52.1936V54.8799C57.6474 55.5562 57.3784 56.2045 56.9002 56.6826C56.4219 57.1607 55.7735 57.4296 55.0972 57.4301H44.46C44.1588 57.4302 43.8606 57.3701 43.583 57.2532C43.3054 57.1363 43.0539 56.9651 42.8435 56.7496C42.633 56.5341 42.4678 56.2787 42.3575 55.9984C42.2472 55.7181 42.1941 55.4186 42.2013 55.1175C42.2301 53.9021 43.2698 52.9136 44.519 52.9136H51.215C51.406 52.9136 51.5891 52.8377 51.7241 52.7027C51.8592 52.5677 51.935 52.3845 51.935 52.1936V47.6432C51.935 45.9376 52.6124 44.3019 53.8183 43.0958C55.0242 41.8896 56.6598 41.2118 58.3653 41.2114H58.4157C61.9365 41.2373 64.8 44.162 64.8 47.7361Z" fill="#C33DAB"/>
</svg>
