<svg width="72" height="72" viewBox="0 0 72 72" fill="none" xmlns="http://www.w3.org/2000/svg">
<g clip-path="url(#clip0_118_354)">
<path d="M21.7485 8.61988C22.2048 8.92686 22.7299 9.11641 23.2771 9.17171C23.8242 9.227 24.3766 9.14632 24.8851 8.93684C29.1738 7.17857 33.8188 6.46437 38.4376 6.85307C43.0563 7.24177 47.5167 8.72225 51.4512 11.1726C52.3517 11.725 53.2183 12.3311 54.0461 12.9875L50.9546 16.0796C50.7973 16.2369 50.6902 16.4374 50.6467 16.6556C50.6033 16.8738 50.6256 17.1 50.7107 17.3056C50.7959 17.5111 50.94 17.6868 51.125 17.8104C51.31 17.934 51.5275 18 51.75 18H63C63.1478 18 63.2941 17.971 63.4306 17.9145C63.5671 17.8579 63.6911 17.7751 63.7956 17.6706C63.9001 17.5661 63.9829 17.4421 64.0395 17.3056C64.096 17.1691 64.1251 17.0228 64.125 16.875V5.62501C64.125 5.40252 64.059 5.18502 63.9354 5.00003C63.8118 4.81504 63.6361 4.67086 63.4306 4.58572C63.225 4.50058 62.9988 4.47831 62.7806 4.52173C62.5624 4.56515 62.362 4.6723 62.2046 4.82963L58.8527 8.18153C57.932 7.42731 56.952 6.70167 55.9292 6.01613C51.0202 2.75525 45.386 0.74873 39.5209 0.17256C33.6557 -0.403611 27.7388 0.46817 22.2891 2.71144C21.68 2.96765 21.1609 3.39925 20.7978 3.95133C20.4347 4.5034 20.244 5.15101 20.25 5.81176C20.2496 6.36697 20.3861 6.91372 20.6475 7.40355C20.9089 7.89338 21.287 8.31117 21.7485 8.61988Z" fill="#076856"/>
<path d="M8.61876 50.252C8.92584 49.7955 9.11549 49.2703 9.17088 48.723C9.22626 48.1756 9.14568 47.6231 8.93627 47.1143C7.17837 42.8257 6.46437 38.1808 6.85306 33.5622C7.24176 28.9436 8.72203 24.4833 11.172 20.5488C11.725 19.6484 12.3314 18.7818 12.988 17.9539L16.0796 21.0454C16.2369 21.2027 16.4374 21.3099 16.6556 21.3533C16.8738 21.3967 17.1 21.3744 17.3055 21.2893C17.5111 21.2042 17.6868 21.06 17.8104 20.875C17.934 20.69 18 20.4725 18 20.25V9C18 8.85225 17.971 8.70594 17.9144 8.56944C17.8579 8.43293 17.775 8.30889 17.6706 8.20442C17.5661 8.09995 17.4421 8.01708 17.3056 7.96056C17.169 7.90403 17.0227 7.87496 16.875 7.875H5.62499C5.4025 7.875 5.185 7.94098 5.00001 8.06459C4.81502 8.1882 4.67084 8.36389 4.5857 8.56945C4.50056 8.77501 4.47829 9.0012 4.52171 9.21941C4.56513 9.43762 4.67228 9.63806 4.82961 9.79537L8.18154 13.1479C7.42569 14.0707 6.69949 15.0502 6.01614 16.0713C2.75527 20.9802 0.748742 26.6141 0.172564 32.4791C-0.403614 38.3441 0.468161 44.2608 2.71142 49.7104C2.96757 50.3195 3.39913 50.8388 3.95121 51.202C4.50329 51.5652 5.15093 51.7559 5.81174 51.75C6.36677 51.7506 6.91337 51.6142 7.40303 51.3529C7.8927 51.0916 8.3103 50.7134 8.61876 50.252Z" fill="#076856"/>
<path d="M50.2515 63.3801C49.7952 63.0731 49.2701 62.8836 48.7229 62.8283C48.1758 62.773 47.6234 62.8537 47.1149 63.0632C42.8262 64.8214 38.1812 65.5356 33.5624 65.1469C28.9437 64.7582 24.4833 63.2778 20.5489 60.8275C19.6483 60.275 18.7817 59.669 17.9539 59.0125L21.0454 55.9204C21.2027 55.7631 21.3099 55.5626 21.3533 55.3444C21.3967 55.1262 21.3744 54.9 21.2893 54.6945C21.2042 54.4889 21.06 54.3132 20.875 54.1896C20.69 54.066 20.4725 54 20.25 54H9C8.85225 54 8.70594 54.029 8.56944 54.0856C8.43293 54.1421 8.30889 54.2249 8.20442 54.3294C8.09995 54.4339 8.01708 54.5579 7.96056 54.6944C7.90403 54.8309 7.87496 54.9773 7.875 55.125V66.375C7.875 66.5975 7.94098 66.815 8.06459 67C8.1882 67.185 8.36389 67.3292 8.56945 67.4143C8.77501 67.4994 9.0012 67.5217 9.21941 67.4783C9.43762 67.4349 9.63806 67.3277 9.79537 67.1704L13.1473 63.8184C14.068 64.5727 15.0479 65.2983 16.0708 65.9838C20.9798 69.2447 26.614 71.2512 32.4791 71.8274C38.3442 72.4036 44.2612 71.5318 49.7109 69.2885C50.32 69.0323 50.8391 68.6007 51.2022 68.0487C51.5653 67.4966 51.756 66.849 51.75 66.1882C51.7505 65.633 51.6139 65.0863 51.3525 64.5965C51.0912 64.1066 50.713 63.6888 50.2515 63.3801Z" fill="#076856"/>
<path d="M63.8185 58.8523C64.5743 57.9305 65.2994 56.9511 65.9839 55.9288C69.2447 51.02 71.2513 45.386 71.8274 39.521C72.4036 33.6561 71.5318 27.7393 69.2886 22.2898C69.0324 21.6806 68.6009 21.1614 68.0488 20.7982C67.4967 20.435 66.8491 20.2442 66.1882 20.2501C65.6358 20.249 65.0916 20.3839 64.6036 20.6428C64.1156 20.9018 63.6988 21.2769 63.3901 21.735C63.0813 22.1931 62.89 22.7201 62.8331 23.2696C62.7762 23.8191 62.8554 24.3742 63.0637 24.8858C64.8216 29.1745 65.5356 33.8193 65.1469 38.438C64.7583 43.0566 63.278 47.5168 60.828 51.4513C60.275 52.3518 59.6686 53.2183 59.012 54.0463L55.9204 50.9548C55.7631 50.7974 55.5626 50.6903 55.3444 50.6469C55.1262 50.6034 54.9 50.6257 54.6945 50.7108C54.4889 50.796 54.3132 50.9402 54.1896 51.1252C54.066 51.3102 54 51.5276 54 51.7501V63.0001C54 63.1479 54.029 63.2942 54.0856 63.4307C54.1421 63.5672 54.2249 63.6912 54.3294 63.7957C54.4339 63.9002 54.5579 63.9831 54.6944 64.0396C54.8309 64.0961 54.9773 64.1252 55.125 64.1251H66.375C66.5975 64.1251 66.815 64.0592 67 63.9355C67.185 63.8119 67.3292 63.6362 67.4143 63.4307C67.4994 63.2251 67.5217 62.9989 67.4783 62.7807C67.4349 62.5625 67.3277 62.3621 67.1704 62.2048L63.8185 58.8523Z" fill="#076856"/>
<path d="M36 42.75C39.7279 42.75 42.75 39.7279 42.75 36C42.75 32.2721 39.7279 29.25 36 29.25C32.2721 29.25 29.25 32.2721 29.25 36C29.25 39.7279 32.2721 42.75 36 42.75Z" fill="#076856"/>
<path d="M54 33.5276C54.0025 33.015 53.8289 32.517 53.508 32.1172C53.1872 31.7174 52.7388 31.44 52.2378 31.3314L49.5769 30.7398L49.3198 30.119L50.7832 27.8196C51.0605 27.3885 51.1813 26.8752 51.1255 26.3657C51.0698 25.8561 50.8407 25.3812 50.4767 25.0203L46.9798 21.5233C46.6187 21.1596 46.1439 20.9307 45.6344 20.8748C45.125 20.8189 44.6118 20.9394 44.1804 21.2162L41.881 22.6796L41.2603 22.4231L40.6692 19.7622C40.5605 19.2613 40.283 18.813 39.8832 18.4922C39.4834 18.1714 38.9856 17.9976 38.473 18H33.527C33.0144 17.9976 32.5166 18.1714 32.1168 18.4922C31.717 18.813 31.4396 19.2613 31.3308 19.7622L30.7398 22.4231L30.119 22.6796L27.8185 21.2162C27.3875 20.9391 26.8743 20.8184 26.3649 20.8744C25.8555 20.9304 25.3808 21.1597 25.0203 21.5239L21.5222 25.0208C21.1586 25.3819 20.9299 25.8568 20.8743 26.3661C20.8187 26.8755 20.9396 27.3886 21.2168 27.8196L22.6802 30.119L22.4231 30.7397L19.7622 31.3314C19.2613 31.44 18.8128 31.7174 18.492 32.1172C18.1712 32.517 17.9975 33.0149 18 33.5276V38.4725C17.9975 38.9851 18.1712 39.483 18.492 39.8828C18.8128 40.2826 19.2613 40.5601 19.7622 40.6687L22.4231 41.2603L22.6802 41.881L21.2168 44.1804C20.9396 44.6116 20.8187 45.1248 20.8745 45.6344C20.9303 46.1439 21.1594 46.6189 21.5233 46.9798L25.0203 50.4767C25.3811 50.8408 25.856 51.07 26.3656 51.1259C26.8751 51.1818 27.3884 51.061 27.8196 50.7838L30.119 49.3204L30.7398 49.5769L31.3308 52.2378C31.4396 52.7387 31.717 53.1871 32.1168 53.5079C32.5166 53.8286 33.0144 54.0024 33.527 54H38.473C38.9856 54.0024 39.4834 53.8287 39.8832 53.5079C40.283 53.1871 40.5605 52.7387 40.6692 52.2378L41.2603 49.5769L41.881 49.3204L44.1815 50.7838C44.6127 51.0606 45.1258 51.181 45.6351 51.1251C46.1444 51.0691 46.619 50.84 46.9798 50.4762L50.4778 46.9792C50.8414 46.6182 51.0701 46.1433 51.1257 45.6339C51.1813 45.1245 51.0604 44.6115 50.7832 44.1805L49.3198 41.881L49.5769 41.2603L52.2378 40.6687C52.7388 40.5601 53.1872 40.2827 53.5081 39.8828C53.8289 39.483 54.0026 38.9851 54 38.4725V33.5276ZM36 45C34.22 45 32.4799 44.4722 30.9999 43.4832C29.5199 42.4943 28.3663 41.0887 27.6851 39.4442C27.0039 37.7996 26.8257 35.99 27.173 34.2442C27.5202 32.4984 28.3774 30.8947 29.6361 29.6361C30.8947 28.3774 32.4984 27.5202 34.2442 27.173C35.99 26.8257 37.7996 27.0039 39.4442 27.6851C41.0887 28.3663 42.4943 29.5198 43.4833 30.9999C44.4722 32.4799 45 34.22 45 36C44.9973 38.3861 44.0482 40.6737 42.361 42.361C40.6737 44.0482 38.3861 44.9973 36 45Z" fill="#076856"/>
</g>
<defs>
<clipPath id="clip0_118_354">
<rect width="72" height="72" fill="white"/>
</clipPath>
</defs>
</svg>
