<svg width="64" height="64" viewBox="0 0 64 64" fill="none" xmlns="http://www.w3.org/2000/svg">
<path d="M61.3342 39.7166C61.1275 39.5225 60.9425 39.3509 60.7762 39.1966C60.1244 38.592 59.7971 38.2884 59.6359 38.009C59.4745 37.7296 59.3754 37.2946 59.1775 36.4277C59.127 36.2066 59.0709 35.9605 59.0061 35.6844C58.6392 34.1185 57.3139 33.0064 55.7081 32.917C55.425 32.9012 55.1727 32.8886 54.9462 32.8775C54.0582 32.8332 53.6126 32.811 53.3094 32.7006C53.0062 32.5904 52.6505 32.3207 51.9419 31.7839C51.7611 31.647 51.5599 31.4945 51.3329 31.3246C50.0455 30.3609 48.3152 30.3609 47.0277 31.3246C46.8008 31.4945 46.5996 31.6469 46.4189 31.7838C45.7101 32.3208 45.3544 32.5903 45.0511 32.7006C44.9242 32.7469 44.7717 32.7775 44.5729 32.8009C41.2931 29.8566 37.3665 27.8266 33.1441 26.849C37.7111 24.6562 40.8719 19.9854 40.8719 14.5899C40.872 7.09637 34.7756 1 27.2821 1C19.7886 1 13.6922 7.09637 13.6922 14.5899C13.6922 19.9856 16.8532 24.6567 21.4206 26.8494C17.1674 27.835 13.2079 29.8876 9.91648 32.8641C5.18473 37.1432 2.20648 42.9784 1.5306 49.2946C1.50035 49.5767 1.59148 49.8584 1.7811 50.0694C1.97073 50.2804 2.2411 50.401 2.52485 50.401L27.2804 50.4009C27.2809 50.4009 27.2815 50.401 27.282 50.401C27.2825 50.401 27.2831 50.4009 27.2836 50.4009H37.3566C37.7107 51.22 38.3672 51.8964 39.24 52.2702C39.5006 52.3819 39.7334 52.48 39.9422 52.568C40.0486 52.6128 40.1477 52.6546 40.2409 52.6941L37.4544 58.6791C37.2601 59.0965 37.3135 59.5826 37.5935 59.9476C37.8734 60.3126 38.3286 60.49 38.7821 60.4108L41.5942 59.9195L43.0285 62.3876C43.2501 62.7691 43.6539 63.0001 44.0919 63.0001C44.1106 63.0001 44.1295 62.9997 44.1484 62.9989C44.6079 62.978 45.0141 62.706 45.2086 62.2886L47.9507 56.3988C48.5615 56.2124 48.9084 56.1185 49.1804 56.1185C49.4524 56.1185 49.7992 56.2124 50.4101 56.3988L53.1521 62.2885C53.3462 62.7058 53.7524 62.9779 54.212 62.9989C54.231 62.9997 54.25 63.0001 54.2689 63.0001C54.7069 63.0001 55.1105 62.7691 55.3322 62.3876L56.7665 59.9195L59.5786 60.4109C60.0325 60.49 60.4879 60.3124 60.7677 59.947C61.0475 59.5817 61.1005 59.0956 60.9061 58.6789L58.1197 52.6941C58.2129 52.6546 58.312 52.6129 58.4184 52.568C58.6272 52.48 58.86 52.3819 59.1206 52.2702C60.599 51.6371 61.4641 50.1388 61.2732 48.5418C61.2396 48.2601 61.2081 48.0096 61.18 47.7846C61.0694 46.9024 61.0137 46.4596 61.0699 46.1419C61.126 45.8241 61.3295 45.427 61.7352 44.6359C61.8386 44.4341 61.9538 44.2095 62.0817 43.9565C62.8074 42.5211 62.507 40.8174 61.3342 39.7166ZM36.279 43.9565C36.4069 44.2095 36.5221 44.4341 36.6255 44.636C37.0312 45.4272 37.2349 45.8242 37.2909 46.142C37.3469 46.4597 37.2914 46.9025 37.1807 47.7848C37.1574 47.9713 37.1317 48.1764 37.1045 48.401H29.535L32.0575 45.6123C32.2712 45.3759 32.3596 45.0516 32.2952 44.7395L31.01 38.5085L31.26 38.8049C31.451 39.0314 31.7312 39.1601 32.0242 39.1601C32.0556 39.1601 32.0872 39.1586 32.1189 39.1556C32.4454 39.1246 32.736 38.9355 32.8965 38.6495L37.4892 30.4648C38.997 31.1777 40.433 32.0509 41.7734 33.0752C40.5784 33.4456 39.6519 34.416 39.3546 35.6847C39.2899 35.9608 39.2337 36.207 39.1834 36.428C38.9856 37.2949 38.8863 37.73 38.725 38.0094C38.5636 38.2887 38.2365 38.5924 37.5846 39.197C37.4184 39.3511 37.2332 39.5229 37.0265 39.717C35.8539 40.8172 35.5535 42.5211 36.279 43.9565ZM22.7057 36.4121L18.9249 29.6744C19.6257 29.4141 20.3421 29.1864 21.0717 28.9916L25.8456 32.6891L22.7057 36.4121ZM26.2572 35.3031L27.282 34.088L28.3066 35.303L30.2339 44.6468L27.2819 47.9104L24.3299 44.6468L26.2572 35.3031ZM28.7186 32.6891L33.4872 28.9958C34.2142 29.1908 34.9307 29.42 35.6346 29.6825L31.8584 36.4121L28.7186 32.6891ZM15.6922 14.5899C15.6922 8.19925 20.8915 3 27.2821 3C33.6727 3 38.872 8.19925 38.872 14.5899C38.872 20.9789 33.6755 26.177 27.2871 26.1798C27.2854 26.1798 27.2837 26.1798 27.282 26.1798C27.2804 26.1798 27.2787 26.1798 27.277 26.1798C20.8887 26.1769 15.6922 20.9789 15.6922 14.5899ZM27.2821 28.1798H27.2871C28.5114 28.18 29.7239 28.2746 30.9166 28.457L27.282 31.2721L23.6445 28.4548C24.8301 28.2746 26.043 28.18 27.277 28.1798C27.2787 28.1796 27.2805 28.1798 27.2821 28.1798ZM17.0694 30.4546L21.6677 38.6493C21.8282 38.9352 22.1187 39.1244 22.4454 39.1554C22.477 39.1584 22.5085 39.1599 22.54 39.1599C22.833 39.1599 23.1134 39.031 23.3042 38.8046L23.5541 38.5084L22.2689 44.7394C22.2045 45.0516 22.2927 45.3758 22.5066 45.6123L25.0291 48.401L3.66335 48.4011C4.89935 40.3595 10.0642 33.7536 17.0694 30.4546ZM44.0175 60.1086L42.9735 58.3119C42.7631 57.9499 42.3497 57.7575 41.9367 57.8293L39.8899 58.1869L41.8986 53.8722C42.0335 54.0686 42.1917 54.3136 42.3917 54.6232C42.5147 54.8136 42.6517 55.0258 42.8069 55.2631C43.4336 56.2214 44.4387 56.7948 45.5211 56.879L44.0175 60.1086ZM56.4241 57.8293C56.0116 57.7571 55.5977 57.9496 55.3874 58.3119L54.3434 60.1085L52.8405 56.8804C53.9226 56.7959 54.9275 56.2212 55.554 55.263C55.7091 55.0257 55.8461 54.8136 55.9691 54.6232C56.1691 54.3135 56.3274 54.0686 56.4622 53.8722L58.471 58.1869L56.4241 57.8293ZM60.2969 43.0542C60.1709 43.3034 60.0575 43.5246 59.9556 43.7233C58.9594 45.666 58.924 45.8674 59.1956 48.0335C59.2234 48.255 59.2543 48.5018 59.2875 48.779C59.3735 49.4979 58.9989 50.1466 58.3334 50.4316C58.0766 50.5415 57.8475 50.6381 57.6417 50.7249C55.63 51.5728 55.4732 51.7041 54.289 53.5382C54.1679 53.7257 54.0331 53.9346 53.8802 54.1684C53.484 54.7742 52.7799 55.0305 52.0871 54.821C51.8199 54.7402 51.5822 54.6669 51.3689 54.601C50.3257 54.2791 49.7531 54.1183 49.1805 54.1183C48.6079 54.1183 48.0351 54.2793 46.9921 54.601C46.7787 54.6669 46.5412 54.7401 46.2739 54.821C45.581 55.03 44.877 54.7742 44.4807 54.1684C44.3279 53.9346 44.1931 53.7257 44.072 53.5382C42.8876 51.7043 42.731 51.5728 40.7192 50.7249C40.5135 50.6383 40.2844 50.5416 40.0276 50.4316C39.3621 50.1466 38.9876 49.4979 39.0735 48.779C39.1066 48.5018 39.1376 48.255 39.1654 48.0335C39.437 45.8674 39.4016 45.666 38.4052 43.7233C38.3034 43.5246 38.19 43.3034 38.064 43.0542C37.7374 42.4081 37.8675 41.6704 38.3952 41.175C38.5989 40.9839 38.7811 40.8148 38.9449 40.6629C40.5453 39.1782 40.6476 39.0011 41.1332 36.8725C41.1829 36.6549 41.2382 36.4125 41.3019 36.1406C41.467 35.4356 42.0409 34.9541 42.7637 34.914C43.0426 34.8984 43.291 34.8861 43.514 34.875C45.6944 34.7664 45.8865 34.6964 47.6269 33.3779C47.8047 33.2431 48.0029 33.093 48.2264 32.9256C48.8061 32.4918 49.555 32.4919 50.1346 32.9256C50.3582 33.0929 50.5564 33.2431 50.7344 33.378C52.4745 34.6962 52.6666 34.7663 54.847 34.8749C55.07 34.886 55.3184 34.8984 55.5972 34.9139C56.3201 34.954 56.894 35.4355 57.0591 36.1405C57.1229 36.4124 57.1781 36.6549 57.2279 36.8725C57.7135 39.0009 57.8157 39.178 59.4162 40.6628C59.58 40.8146 59.7622 40.9836 59.9657 41.1748C60.4935 41.6704 60.6236 42.4081 60.2969 43.0542ZM49.1804 36.2596C45.052 36.2596 41.6932 39.6184 41.6932 43.7466C41.6932 47.8749 45.052 51.2336 49.1804 51.2336C53.3087 51.2336 56.6675 47.875 56.6675 43.7467C56.6675 39.6185 53.3089 36.2596 49.1804 36.2596ZM49.1804 49.2337C46.1547 49.2337 43.6932 46.7723 43.6932 43.7467C43.6932 40.7212 46.1547 38.2598 49.1804 38.2598C52.206 38.2598 54.6675 40.7212 54.6675 43.7467C54.6675 46.7723 52.206 49.2337 49.1804 49.2337Z" fill="#0084FF"/>
</svg>
