<svg width="64" height="64" viewBox="0 0 64 64" fill="none" xmlns="http://www.w3.org/2000/svg">
<path d="M51.2 61.9638H12.897C10.0848 61.9638 7.95151 59.8305 7.95151 57.0183V13.382C7.95151 10.5699 10.0848 8.43652 12.897 8.43652H21.7212C22.303 8.43652 22.6909 8.8244 22.6909 9.40622C22.6909 9.98804 22.303 10.3759 21.7212 10.3759H12.897C11.2485 10.3759 9.8909 11.7335 9.8909 13.382V57.0183C9.8909 58.6668 11.2485 60.0244 12.897 60.0244H51.2C52.8485 60.0244 54.2061 58.6668 54.2061 57.0183V13.382C54.2061 11.7335 52.8485 10.3759 51.2 10.3759H42.3758C41.7939 10.3759 41.4061 9.98804 41.4061 9.40622C41.4061 8.8244 41.7939 8.43652 42.3758 8.43652H51.2C54.0121 8.43652 56.1455 10.5699 56.1455 13.382V57.0183C56.1455 59.8305 54.0121 61.9638 51.2 61.9638Z" fill="#D63384"/>
<path d="M42.2788 13.9637H21.7212C21.1394 13.9637 20.7515 13.5758 20.7515 12.994V9.40612C20.7515 7.17582 22.497 5.43036 24.7273 5.43036H24.9212V2.90915C24.9212 2.32733 25.3091 1.93945 25.8909 1.93945H38.206C38.7879 1.93945 39.1757 2.32733 39.1757 2.90915V5.43036H39.2727C41.503 5.43036 43.2485 7.17582 43.2485 9.40612V12.994C43.2485 13.5758 42.8606 13.9637 42.2788 13.9637ZM22.6909 12.0243H41.3091V9.40612C41.3091 8.33945 40.3394 7.36976 39.2727 7.36976H38.1091C37.5273 7.36976 37.1394 6.98188 37.1394 6.40006C37.1394 6.20612 37.1394 6.10915 37.2363 6.01218V3.87885H26.8606V6.40006C26.8606 6.98188 26.4727 7.36976 25.8909 7.36976H24.7273C23.6606 7.36976 22.6909 8.33945 22.6909 9.40612V12.0243Z" fill="#D63384"/>
<path d="M19.103 57.0184H14.7394C14.1576 57.0184 13.7697 56.6305 13.7697 56.0487V47.0305C13.7697 46.4487 14.1576 46.0608 14.7394 46.0608H19.103C19.6848 46.0608 20.0727 46.4487 20.0727 47.0305V56.0487C20.0727 56.6305 19.6848 57.0184 19.103 57.0184ZM15.7091 55.079H18.1333V48.0002H15.7091V55.079Z" fill="#D63384"/>
<path d="M29.2848 57.0182H24.9212C24.3394 57.0182 23.9515 56.6304 23.9515 56.0486V43.1516C23.9515 42.5698 24.3394 42.1819 24.9212 42.1819H29.2848C29.8667 42.1819 30.2545 42.5698 30.2545 43.1516V56.0486C30.2545 56.6304 29.8667 57.0182 29.2848 57.0182ZM25.8909 55.0789H28.3151V44.1213H25.8909V55.0789Z" fill="#D63384"/>
<path d="M49.2606 57.1152H44.8969C44.3151 57.1152 43.9272 56.7273 43.9272 56.1455V35.9758C43.9272 35.394 44.3151 35.0061 44.8969 35.0061H49.2606C49.8424 35.0061 50.2303 35.394 50.2303 35.9758V56.1455C50.2303 56.7273 49.8424 57.1152 49.2606 57.1152ZM45.8666 55.1758H48.2909V36.9455H45.8666V55.1758Z" fill="#D63384"/>
<path d="M39.0788 57.0183H34.7151C34.1333 57.0183 33.7455 56.6304 33.7455 56.0486V39.9516C33.7455 39.3698 34.1333 38.9819 34.7151 38.9819H39.0788C39.6606 38.9819 40.0485 39.3698 40.0485 39.9516V56.0486C40.0485 56.6304 39.6606 57.0183 39.0788 57.0183ZM35.6848 55.0789H38.1091V40.9213H35.6848V55.0789Z" fill="#D63384"/>
<path d="M27.1515 39.9516C25.503 39.9516 24.1454 38.594 24.1454 36.9455C24.1454 35.297 25.503 33.9395 27.1515 33.9395C28.8 33.9395 30.1576 35.297 30.1576 36.9455C30.1576 38.594 28.8 39.9516 27.1515 39.9516ZM27.1515 35.8788C26.5697 35.8788 26.0848 36.3637 26.0848 36.9455C26.0848 37.5273 26.5697 38.0122 27.1515 38.0122C27.7333 38.0122 28.2182 37.5273 28.2182 36.9455C28.2182 36.3637 27.7333 35.8788 27.1515 35.8788Z" fill="#D63384"/>
<path d="M16.9697 44.3153C15.3212 44.3153 13.9636 42.9578 13.9636 41.3093C13.9636 39.6608 15.3212 38.3032 16.9697 38.3032C18.6182 38.3032 19.9757 39.6608 19.9757 41.3093C19.9757 42.9578 18.6182 44.3153 16.9697 44.3153ZM16.9697 40.2426C16.3879 40.2426 15.903 40.7275 15.903 41.3093C15.903 41.8911 16.3879 42.376 16.9697 42.376C17.5515 42.376 18.0364 41.8911 18.0364 41.3093C18.0364 40.7275 17.5515 40.2426 16.9697 40.2426Z" fill="#D63384"/>
<path d="M36.8485 36.2668C35.2 36.2668 33.8424 34.9092 33.8424 33.2607C33.8424 31.6122 35.2 30.2546 36.8485 30.2546C38.497 30.2546 39.8545 31.6122 39.8545 33.2607C39.8545 34.9092 38.497 36.2668 36.8485 36.2668ZM36.8485 32.194C36.2666 32.194 35.7818 32.6789 35.7818 33.2607C35.7818 33.8425 36.2666 34.3274 36.8485 34.3274C37.4303 34.3274 37.9151 33.8425 37.9151 33.2607C37.9151 32.6789 37.4303 32.194 36.8485 32.194Z" fill="#D63384"/>
<path d="M47.0303 32.6789C45.3818 32.6789 44.0242 31.3213 44.0242 29.6728C44.0242 28.0243 45.3818 26.6667 47.0303 26.6667C48.6788 26.6667 50.0363 28.0243 50.0363 29.6728C50.0363 31.3213 48.6788 32.6789 47.0303 32.6789ZM47.0303 28.6061C46.4485 28.6061 45.9636 29.091 45.9636 29.6728C45.9636 30.2546 46.4485 30.7395 47.0303 30.7395C47.6121 30.7395 48.097 30.2546 48.097 29.6728C48.097 29.091 47.6121 28.6061 47.0303 28.6061Z" fill="#D63384"/>
<path d="M28.9939 37.2366C28.6061 37.2366 28.2182 37.0426 28.1212 36.6547C27.9273 36.1699 28.2182 35.5881 28.703 35.3941L34.7151 33.0669C35.2 32.8729 35.7818 33.1638 35.9757 33.6487C36.1697 34.1335 35.8788 34.7153 35.3939 34.9093L29.3818 37.2366C29.1879 37.2366 29.0909 37.2366 28.9939 37.2366Z" fill="#D63384"/>
<path d="M38.7879 33.5515C38.4 33.5515 38.0121 33.2606 37.9151 32.8727C37.7212 32.3879 38.0121 31.806 38.497 31.6121L44.897 29.3818C45.3818 29.1879 45.9636 29.4788 46.1576 29.9636C46.3515 30.4485 46.0606 31.0303 45.5758 31.2242L39.1758 33.4545C38.9818 33.5515 38.8848 33.5515 38.7879 33.5515Z" fill="#D63384"/>
<path d="M18.9091 42.2789C18.6182 42.2789 18.2303 42.085 18.0363 41.794C17.7454 41.3092 17.9394 40.7274 18.4242 40.4365L24.7272 36.8486C25.2121 36.5577 25.7939 36.7516 26.0848 37.2365C26.3757 37.7213 26.1818 38.3031 25.6969 38.5941L19.3939 42.1819C19.2 42.2789 19.103 42.2789 18.9091 42.2789Z" fill="#D63384"/>
<path d="M20.9455 32.0001C16.5818 32.0001 13.0909 28.5092 13.0909 24.1456C13.0909 19.7819 16.5818 16.291 20.9455 16.291C25.3091 16.291 28.8 19.7819 28.8 24.1456C28.8 28.5092 25.3091 32.0001 20.9455 32.0001ZM20.9455 18.2304C17.6485 18.2304 15.0303 20.8486 15.0303 24.1456C15.0303 27.4425 17.6485 30.0607 20.9455 30.0607C24.2424 30.0607 26.8606 27.4425 26.8606 24.1456C26.8606 20.8486 24.2424 18.2304 20.9455 18.2304Z" fill="#D63384"/>
<path d="M25.6 30.1576C25.3091 30.1576 25.1151 30.0606 24.9212 29.8667L20.2666 24.8242C20.0727 24.5333 19.9757 24.2424 20.0727 23.8545L22.1091 17.2606C22.303 16.7758 22.7879 16.4848 23.3697 16.5818C23.8545 16.7758 24.1454 17.2606 24.0485 17.8424L22.206 23.8545L26.4727 28.5091C26.8606 28.897 26.7636 29.4788 26.3757 29.8667C26.0848 30.0606 25.7939 30.1576 25.6 30.1576Z" fill="#D63384"/>
<path d="M49.0667 19.2001H35.006C34.4242 19.2001 34.0363 18.8123 34.0363 18.2304C34.0363 17.6486 34.4242 17.2607 35.006 17.2607H49.0667C49.6485 17.2607 50.0363 17.6486 50.0363 18.2304C50.0363 18.8123 49.6485 19.2001 49.0667 19.2001Z" fill="#D63384"/>
<path d="M49.0667 24.3395H35.006C34.4242 24.3395 34.0363 23.9517 34.0363 23.3698C34.0363 22.788 34.4242 22.4001 35.006 22.4001H49.0667C49.6485 22.4001 50.0363 22.788 50.0363 23.3698C50.0363 23.9517 49.6485 24.3395 49.0667 24.3395Z" fill="#D63384"/>
</svg>
