<svg width="64" height="64" viewBox="0 0 64 64" fill="none" xmlns="http://www.w3.org/2000/svg">
<g clip-path="url(#clip0_16_212)">
<path d="M26.6808 4.2793C14.3143 4.2793 4.28931 14.3043 4.28931 26.6708C4.28931 39.0373 14.3143 49.0623 26.6808 49.0623C39.0473 49.0623 49.0723 39.0373 49.0723 26.6708C49.0589 14.3099 39.0417 4.29276 26.6808 4.2793ZM26.6808 6.41182C33.2671 6.41702 39.439 9.627 43.2249 15.0166L40.5593 17.6822C39.9106 17.2897 39.1679 17.0796 38.4097 17.0744C36.0542 17.0744 34.1447 18.984 34.1447 21.3395C34.1484 22.0985 34.3572 22.8424 34.7492 23.4923L27.7673 30.4742C26.4453 29.6681 24.7838 29.6681 23.4618 30.4742L18.6124 25.6248C19.0044 24.9749 19.2132 24.2311 19.217 23.472C19.2199 21.1212 17.3166 19.2131 14.9658 19.2102C13.0216 19.2078 11.3229 20.5229 10.8383 22.4058H6.88246C8.90129 13.083 17.142 6.42582 26.6808 6.41182ZM40.5422 21.3395C40.5422 22.5173 39.5875 23.472 38.4097 23.472C37.2319 23.472 36.2772 22.5173 36.2772 21.3395C36.2772 20.1617 37.2319 19.207 38.4097 19.207C39.5875 19.207 40.5422 20.1617 40.5422 21.3395ZM27.7471 34.1346C27.7471 35.3125 26.7924 36.2672 25.6146 36.2672C24.4367 36.2672 23.482 35.3125 23.482 34.1346C23.482 32.9568 24.4367 32.0021 25.6146 32.0021C26.7924 32.0021 27.7471 32.9568 27.7471 34.1346ZM17.0845 23.472C17.0845 24.6498 16.1298 25.6045 14.9519 25.6045C13.7741 25.6045 12.8194 24.6498 12.8194 23.472C12.8194 22.2942 13.7741 21.3395 14.9519 21.3395C16.1298 21.3395 17.0845 22.2942 17.0845 23.472ZM36.5243 44.3849C33.5132 46.0568 30.1251 46.9327 26.6808 46.9297C15.4997 46.9373 6.42943 37.8795 6.42183 26.6984C6.4213 25.9768 6.45942 25.2556 6.53592 24.5381H10.8383C11.323 26.4154 13.0131 27.7296 14.9519 27.7369C15.711 27.7332 16.4548 27.5243 17.1047 27.1324L21.9541 31.9817C21.5621 32.6316 21.3532 33.3755 21.3495 34.1345C21.3495 36.49 23.259 38.3996 25.6146 38.3996C27.9701 38.3996 29.8796 36.49 29.8796 34.1345C29.8759 33.3755 29.667 32.6316 29.275 31.9817L36.2569 24.9998C36.9068 25.3918 37.6507 25.6007 38.4097 25.6044C40.7652 25.6044 42.6748 23.6949 42.6748 21.3394C42.671 20.5803 42.4622 19.8365 42.0702 19.1866L44.3946 16.8632C49.8212 26.6366 46.2975 38.9584 36.5243 44.3849Z" fill="#FD7E14"/>
<path d="M53.3374 10.6768C55.2762 10.6695 56.9663 9.35542 57.451 7.478H64V5.34548H57.451C56.9663 3.46806 55.2762 2.15402 53.3374 2.14669C50.9819 2.14669 49.0723 4.05623 49.0723 6.41174C49.0761 7.17079 49.2849 7.91464 49.6769 8.56452L47.8035 10.4379C38.8395 -1.24042 22.1056 -3.44092 10.4273 5.52301C-1.25112 14.4869 -3.45162 31.221 5.51232 42.8994C13.9736 53.9228 29.4839 56.5968 41.1479 49.043L44.3658 52.261L45.8735 53.7687L54.457 62.3521C56.64 64.5352 60.1792 64.5352 62.3622 62.3521C64.5453 60.1691 64.5453 56.6299 62.3622 54.4469L53.7788 45.8634L52.2711 44.3558L49.0531 41.1378C54.7655 32.339 54.7655 21.0026 49.0531 12.2037L51.1857 10.0712C51.8351 10.4633 52.5787 10.6725 53.3374 10.6768ZM53.3374 4.27922C54.5152 4.27922 55.4699 5.23392 55.4699 6.41174C55.4699 7.58956 54.5152 8.54427 53.3374 8.54427C52.1596 8.54427 51.2049 7.58956 51.2049 6.41174C51.2049 5.23392 52.1597 4.27922 53.3374 4.27922ZM60.8545 55.9546C62.2201 57.2895 62.2451 59.4788 60.9101 60.8444C59.5751 62.2101 57.3858 62.235 56.0202 60.9C56.0014 60.8818 55.983 60.8632 55.9647 60.8444L47.3812 52.261L52.2711 47.3711L60.8545 55.9546ZM50.7634 45.8634L45.8735 50.7533L42.9221 47.8019C43.0725 47.6868 43.2132 47.5599 43.3614 47.4415C43.5096 47.3232 43.6813 47.1814 43.8402 47.0481C44.0737 46.8519 44.304 46.6536 44.5301 46.4499C44.6463 46.3433 44.7572 46.2366 44.8713 46.13C45.3084 45.7206 45.7317 45.2973 46.1412 44.8601C46.2478 44.746 46.3544 44.6351 46.4611 44.5189C46.6647 44.2928 46.863 44.0625 47.0592 43.829C47.1929 43.6712 47.3241 43.5117 47.4527 43.3503C47.57 43.2031 47.6969 43.0624 47.812 42.912L50.7634 45.8634ZM46.6285 40.9107C46.2926 41.3798 45.946 41.8394 45.5803 42.2819C45.4737 42.4109 45.3596 42.5356 45.2498 42.6625C44.9235 43.0421 44.5866 43.4104 44.239 43.7672C44.0876 43.9235 43.9336 44.0775 43.7773 44.2289C43.4218 44.5765 43.0537 44.9134 42.6726 45.2397C42.5457 45.3463 42.421 45.4625 42.292 45.5702C41.8495 45.936 41.3899 46.2825 40.9208 46.6184C29.8828 54.504 14.5421 51.9486 6.65641 40.9107C-1.22926 29.8727 1.32617 14.532 12.3641 6.64632C23.4021 -1.23936 38.7428 1.31594 46.6285 12.354C52.7303 20.8951 52.7303 32.3696 46.6285 40.9107Z" fill="#FD7E14"/>
</g>
<defs>
<clipPath id="clip0_16_212">
<rect width="64" height="64" fill="white"/>
</clipPath>
</defs>
</svg>
