<svg width="64" height="64" viewBox="0 0 64 64" fill="none" xmlns="http://www.w3.org/2000/svg">
<path fill-rule="evenodd" clip-rule="evenodd" d="M18.5735 43.041H11.8C10.761 43.041 9.91575 43.8862 9.91575 44.9253V51.6987C9.91575 52.7378 10.761 53.583 11.8 53.583H18.5735C19.6125 53.583 20.4576 52.7378 20.4576 51.6987V44.9253C20.4578 43.8862 19.6125 43.041 18.5735 43.041ZM18.4578 51.583H11.9157V45.041H18.4578V51.583ZM12.6779 48.8439C12.2872 48.4533 12.2874 47.8202 12.6779 47.4297C13.0685 47.0392 13.7017 47.0392 14.092 47.4297L14.7911 48.1289L16.2111 46.3735C16.5585 45.9441 17.188 45.8776 17.6175 46.225C18.0469 46.5724 18.1134 47.202 17.766 47.6314L15.6471 50.2508C15.4689 50.4711 15.2054 50.6055 14.9222 50.6205C14.9046 50.6214 14.8871 50.6219 14.8696 50.6219C14.6051 50.6219 14.3506 50.517 14.1626 50.329L12.6779 48.8439ZM62.8674 30.983L62.568 29.8659C62.2996 28.864 61.6553 28.0256 60.7539 27.5051C59.8525 26.9846 58.8044 26.846 57.8025 27.1145L49.8068 29.257V9.813C49.8068 7.77825 48.1514 6.12288 46.1167 6.12288H36.76V5.497C36.76 4.94475 36.3122 4.497 35.76 4.497H30.5776C29.7431 2.40363 27.7161 1 25.4034 1C23.0908 1 21.0637 2.40363 20.2291 4.49713H15.0466C14.4944 4.49713 14.0466 4.94488 14.0466 5.49713V6.123H4.69012C2.65538 6.123 1 7.77837 1 9.813V59.3099C1 61.3446 2.65538 63 4.69012 63H46.1167C46.9585 63 47.7565 62.7146 48.3979 62.208L48.8969 62.707C49.0844 62.8945 49.3387 62.9999 49.604 62.9999C49.8693 62.9999 50.1236 62.8945 50.3111 62.707L61.3769 51.6413C61.5644 51.4538 61.6698 51.1994 61.6698 50.9341C61.6698 50.6689 61.5644 50.4145 61.3769 50.227L59.4707 48.3209C57.337 46.187 57.2803 45.8029 56.9115 43.3036C56.8334 42.7741 56.7449 42.1741 56.6217 41.4551C56.3555 39.9002 55.8681 38.432 55.171 37.0732L60.116 35.7482C61.1179 35.4797 61.9562 34.8355 62.4766 33.9341C62.997 33.033 63.1357 31.9847 62.8674 30.983ZM40.3866 31.7811C40.0072 31.5032 39.5756 31.2944 39.1066 31.1688C38.115 30.9031 37.082 31.0379 36.1976 31.5486C35.4841 31.9605 34.9344 32.581 34.6092 33.3293L30.0357 34.5547C30.0397 34.5257 30.0415 34.497 30.0467 34.4679C30.145 33.9296 30.4431 33.5109 30.8441 33.3478L31.5807 33.048C31.583 33.0471 31.5852 33.0462 31.5875 33.0452L36.8597 30.9001C38.019 30.4285 39.1311 30.3202 40.3595 30.5595L43.0153 31.0766L40.3866 31.7811ZM15.0468 13.4913H35.76C36.3122 13.4913 36.76 13.0435 36.76 12.4913V11.8652H44.0646V29.2435L40.742 28.5965C39.1147 28.2796 37.6418 28.4229 36.1063 29.0476L31.0005 31.125H24.855C24.3027 31.125 23.855 31.5728 23.855 32.125C23.855 32.6772 24.3027 33.125 24.855 33.125H28.3991C28.2526 33.4284 28.1432 33.7581 28.0793 34.1087C27.9732 34.6896 28.0002 35.2741 28.1427 35.8151L27.9595 35.9984H24.855C24.3027 35.9984 23.855 36.4461 23.855 36.9984C23.855 37.5506 24.3027 37.9984 24.855 37.9984H25.9595L24.0758 39.8821C23.8231 40.1348 23.7244 40.503 23.8169 40.8481C23.9094 41.1931 24.1789 41.4627 24.524 41.5552L31.226 43.351C31.2453 43.3561 31.265 43.3586 31.2844 43.3626C31.3021 43.3662 31.3195 43.3705 31.3374 43.3731C31.3806 43.3796 31.4241 43.3832 31.4679 43.384C31.4734 43.3841 31.4786 43.3854 31.4841 43.3854C31.5275 43.3854 31.5711 43.3824 31.615 43.3766C31.6582 43.371 31.7011 43.3624 31.7435 43.3511L32.4066 43.1734C32.2722 43.5243 32.2012 43.9005 32.2012 44.2884C32.2012 44.4879 32.2203 44.6842 32.2566 44.8758H24.855C24.3027 44.8758 23.855 45.3235 23.855 45.8758C23.855 46.428 24.3027 46.8758 24.855 46.8758H33.591C34.0599 47.1863 34.6044 47.3641 35.178 47.3864C35.2084 48.1702 35.5266 48.9014 36.0819 49.4566C36.1955 49.5703 36.3174 49.6735 36.4454 49.7664L24.8564 49.7491C24.8559 49.7491 24.8554 49.7491 24.8549 49.7491C24.3033 49.7491 23.8558 50.1959 23.8549 50.7476C23.8541 51.2999 24.3011 51.7483 24.8534 51.7491L38.902 51.7701C39.3911 52.8574 40.1039 53.9355 41.1854 55.0137L43.4366 57.2583H6.74225V11.8652H14.0468V12.4913C14.0468 13.0435 14.4944 13.4913 15.0468 13.4913ZM37.6959 46.4815C37.7699 47.0969 37.8434 47.7051 37.9383 48.3078C37.7741 48.2556 37.6213 48.1671 37.4961 48.0419C37.2894 47.8352 37.1756 47.5583 37.1756 47.262C37.1756 46.9658 37.2895 46.6887 37.4961 46.482C37.5098 46.4684 37.5219 46.4538 37.5345 46.4395C37.5501 46.4256 37.566 46.4123 37.581 46.3971L37.6745 46.3036C37.6816 46.3631 37.6889 46.4225 37.6959 46.4815ZM37.3228 43.825L36.6375 44.509L36.1619 44.9881C36.1489 45.0011 36.1375 45.0151 36.1255 45.0286C36.111 45.0416 36.096 45.0539 36.0821 45.0679C35.8754 45.2745 35.5984 45.3884 35.3021 45.3884C35.0059 45.3884 34.7289 45.2745 34.5221 45.0679C34.3155 44.8612 34.2016 44.5842 34.2016 44.288C34.2016 43.9917 34.3155 43.7147 34.5221 43.508L35.7539 42.2762L36.9154 41.965C37.0851 42.6092 37.2165 43.228 37.3228 43.825ZM29.1715 37.6146L30.0707 40.9706L26.7148 40.0714L29.1715 37.6146ZM32.192 41.16L30.9139 36.3898L34.3304 35.4744C34.4018 35.9295 34.5551 36.3714 34.7904 36.7808C35.443 37.9465 35.9342 39.0332 36.3122 40.056L32.192 41.16ZM46.1167 8.123C47.0486 8.123 47.8068 8.88112 47.8068 9.81312V29.793L47.0421 29.9979C46.7209 29.8844 46.3955 29.7789 46.0646 29.6861V10.8652C46.0646 10.313 45.6169 9.86525 45.0646 9.86525H36.76V8.123H46.1167ZM16.0467 6.49713H20.958C21.42 6.49713 21.8217 6.18062 21.9301 5.73163C22.318 4.12325 23.7463 3 25.4034 3C27.0605 3 28.4888 4.12325 28.8766 5.7315C28.9849 6.18062 29.3867 6.49713 29.8487 6.49713H34.76V11.4913H16.0467V6.49713ZM46.1167 61H4.69012C3.75813 61 3 60.2419 3 59.3099V9.813C3 8.88112 3.75813 8.12288 4.69012 8.12288H14.0468V9.86512H5.74225C5.19 9.86512 4.74225 10.3129 4.74225 10.8651V58.2576C4.74225 58.8099 5.19 59.2576 5.74225 59.2576H45.0646C45.178 59.2576 45.2866 59.2379 45.3882 59.203L46.9475 60.7575C46.9479 60.7579 46.9484 60.7583 46.9487 60.7586L46.9608 60.7706C46.7076 60.9178 46.4186 61 46.1167 61ZM49.604 60.5858L49.08 60.0617C49.0781 60.0599 49.0764 60.0581 49.0745 60.0563L48.446 59.4277L58.0976 49.7762L59.2555 50.934L49.604 60.5858ZM54.6504 41.7929C54.7696 42.489 54.8563 43.0769 54.9329 43.5956C55.2573 45.7944 55.4576 46.7838 56.733 48.3126L47.0299 58.0158L45.7719 56.7615C45.7717 56.7614 45.7718 56.7614 45.7716 56.7612L42.5978 53.597C41.0853 52.089 40.4545 50.6591 40.1 49.027C40.0955 49.0001 40.0899 48.9735 40.0831 48.9468C39.9069 48.1114 39.7996 47.2226 39.6818 46.2426C39.5979 45.5451 39.5085 44.8039 39.3823 44.0155C39.3798 43.9997 39.3778 43.9839 39.3745 43.9683C39.2029 42.906 38.9627 41.7581 38.5776 40.5155C38.5752 40.5057 38.5739 40.4959 38.5713 40.486C38.5607 40.4468 38.5474 40.4091 38.5327 40.3724C38.0885 38.9714 37.4585 37.4513 36.5325 35.7981C36.5304 35.7944 36.5283 35.7906 36.5261 35.7869C36.2841 35.3678 36.2214 34.8739 36.3494 34.3963C36.4774 33.9186 36.7786 33.5224 37.1978 33.2804C37.6195 33.0369 38.1135 32.9729 38.5891 33.1004C39.0628 33.2273 39.4574 33.5278 39.7011 33.9469C40.6631 35.6661 41.1859 37.3071 41.6914 38.8942C42.4596 41.306 43.2539 43.7999 45.537 46.4622C45.8965 46.8812 46.5277 46.9299 46.947 46.5704C47.3662 46.2109 47.4146 45.5795 47.0551 45.1604C45.5443 43.3984 44.7725 41.7256 44.1695 40.0213L53.1878 37.6049C53.9018 38.8874 54.3934 40.2926 54.6504 41.7929ZM59.5984 33.8166L53.4036 35.4765C53.4012 35.4771 53.3988 35.4777 53.3964 35.4784L43.543 38.1185C43.0732 36.645 42.5759 35.1249 41.7269 33.4925L58.32 29.0464C58.8059 28.9161 59.3151 28.9839 59.7539 29.2372C60.1926 29.4906 60.5059 29.8976 60.6361 30.3835L60.9355 31.5006C61.2054 32.5078 60.6055 33.5467 59.5984 33.8166ZM18.5735 29.2905H11.8C10.761 29.2905 9.91575 30.1357 9.91575 31.1747V37.9482C9.91575 38.9873 10.761 39.8325 11.8 39.8325H18.5735C19.6125 39.8325 20.4576 38.9873 20.4576 37.9482V31.1747C20.4578 30.1357 19.6125 29.2905 18.5735 29.2905ZM18.4578 37.8325H11.9157V31.2905H18.4578V37.8325ZM12.6779 35.0935C12.2872 34.7029 12.2874 34.0699 12.6779 33.6794C13.0685 33.2889 13.7017 33.2889 14.092 33.6794L14.7911 34.3785L16.2111 32.6231C16.5585 32.1937 17.188 32.1272 17.6175 32.4746C18.0469 32.822 18.1134 33.4516 17.766 33.881L15.6471 36.5004C15.4689 36.7207 15.2054 36.8551 14.9222 36.8701C14.9046 36.871 14.8871 36.8715 14.8696 36.8715C14.6051 36.8715 14.3506 36.7666 14.1626 36.5786L12.6779 35.0935ZM9.91575 17.4242V24.1978C9.91575 25.2367 10.761 26.082 11.8 26.082H18.5735C19.6125 26.082 20.4576 25.2367 20.4576 24.1978V17.4242C20.4576 16.3853 19.6124 15.54 18.5735 15.54H11.8C10.761 15.54 9.91575 16.3854 9.91575 17.4242ZM11.9157 17.54H18.4578V24.082H11.9157V17.54ZM23.855 18.3744C23.855 17.8221 24.3027 17.3744 24.855 17.3744H39.8911C40.4434 17.3744 40.8911 17.8221 40.8911 18.3744C40.8911 18.9266 40.4434 19.3744 39.8911 19.3744H24.855C24.3027 19.3744 23.855 18.9268 23.855 18.3744ZM23.855 23.2477C23.855 22.6955 24.3027 22.2477 24.855 22.2477H39.891C40.4432 22.2477 40.891 22.6955 40.891 23.2477C40.891 23.8 40.4432 24.2477 39.891 24.2477H24.855C24.3027 24.2477 23.855 23.8 23.855 23.2477ZM17.766 20.1303L15.6471 22.7496C15.4689 22.97 15.2054 23.1044 14.9222 23.1194C14.9046 23.1203 14.8871 23.1208 14.8696 23.1208C14.6051 23.1208 14.3506 23.0159 14.1626 22.8279L12.6779 21.3431C12.2874 20.9526 12.2874 20.3195 12.6779 19.929C13.0684 19.5385 13.7015 19.5385 14.092 19.929L14.7911 20.628L16.2111 18.8726C16.5585 18.4433 17.188 18.3769 17.6175 18.7241C18.0469 19.0712 18.1134 19.7009 17.766 20.1303ZM24.1936 5.74888C24.1936 5.08263 24.737 4.53925 25.4034 4.53925C26.0696 4.53925 26.613 5.08263 26.613 5.74888C26.613 6.41512 26.0696 6.9585 25.4034 6.9585C24.737 6.95862 24.1936 6.41525 24.1936 5.74888Z" fill="#2E63D7"/>
</svg>
