<svg width="72" height="72" viewBox="0 0 72 72" fill="none" xmlns="http://www.w3.org/2000/svg">
<g clip-path="url(#clip0_105_457)">
<path d="M21.0755 40.0474L14.9864 46.1364L25.8638 57.0124L31.9514 50.9233C27.4416 48.3189 23.6798 44.5572 21.0755 40.0474ZM2.25141 58.8714C1.88859 59.2328 0 61.196 0 64.3094C0 67.4214 1.88859 69.3846 2.25141 69.7474H2.25281C2.61563 70.1088 4.57734 72.0002 7.69078 72.0002C10.8042 72.0002 12.7673 70.1088 13.1287 69.7474L22.8811 59.9964L12.0037 49.1191L2.25141 58.8714Z" fill="#C33DAB"/>
<path d="M44.5683 23.2129H34.7386C35.6189 18.2137 39.5705 14.2621 44.5683 13.3818V23.2129Z" fill="#C33DAB"/>
<path d="M45.8044 27.4316L53.6259 35.2532C51.6572 36.6355 49.2609 37.4498 46.6776 37.4498C40.7109 37.4498 35.7398 33.1157 34.7386 27.4316H45.8044Z" fill="#C33DAB"/>
<path d="M58.8066 25.3223C58.8066 27.9056 57.991 30.3004 56.61 32.2692L48.787 24.4476V13.3818C54.4725 14.3831 58.8066 19.3542 58.8066 25.3223Z" fill="#C33DAB"/>
<path d="M46.6776 0C32.7164 0 21.3567 11.3597 21.3567 25.3223C21.3567 39.2836 32.7164 50.6433 46.6776 50.6433C60.6403 50.6433 72 39.2836 72 25.3223C72 11.3597 60.6403 0 46.6776 0ZM58.3847 36.7186C58.3397 36.7748 58.2904 36.8283 58.2384 36.8817C58.185 36.9338 58.1315 36.983 58.0739 37.028C55.1278 39.8981 51.1059 41.6686 46.6776 41.6686C37.665 41.6686 30.3314 34.335 30.3314 25.3223C30.3314 16.3083 37.665 8.97469 46.6776 8.97469C55.6917 8.97469 63.0253 16.3083 63.0253 25.3223C63.0253 29.7492 61.2548 33.7711 58.3847 36.7186Z" fill="#C33DAB"/>
</g>
<defs>
<clipPath id="clip0_105_457">
<rect width="72" height="72" fill="white"/>
</clipPath>
</defs>
</svg>
