<svg width="64" height="64" viewBox="0 0 64 64" fill="none" xmlns="http://www.w3.org/2000/svg">
<g clip-path="url(#clip0_9_24)">
<path d="M62.279 50.6013C62.2308 50.5561 43.9751 33.4276 43.7866 33.2507C43.6134 33.0882 43.4741 32.9438 43.2236 32.8748C43.2183 32.8733 38.5377 31.5853 38.5377 31.5853L35.7961 29.013C36.9502 27.4585 37.8212 25.7737 38.407 24.0221C39.4451 24.2041 40.5207 24.3244 41.6308 24.3718C42.115 24.3924 42.6081 24.3991 43.0926 24.3719C53.8797 23.9146 61.3793 16.4718 63.454 14.1589C64.0233 13.5237 64.0233 12.602 63.4538 11.9667C62.8623 11.3072 61.8684 10.274 60.4929 9.09663C60.1108 8.76971 59.5183 8.79494 59.1695 9.15366C58.821 9.51226 58.848 10.0681 59.2303 10.3954C60.5057 11.4871 61.4297 12.4429 61.9883 13.063C60.6023 14.6016 56.7859 18.4171 51.2353 20.7404C53.2226 18.7201 54.4388 16.0224 54.4388 13.0629C54.4388 10.1071 53.2257 7.41242 51.2427 5.39296C52.8253 6.05876 54.3887 6.89728 55.9272 7.90831C56.3512 8.18735 56.9351 8.0903 57.2319 7.69275C57.5287 7.29519 57.4257 6.7472 57.002 6.46875C54.829 5.04069 52.4718 3.84838 49.9663 3.02123C47.3311 2.15114 44.4703 1.63718 41.6689 1.75194C38.0483 1.90015 34.7976 2.83572 31.9971 4.10172C24.2812 -1.74134 12.9166 -1.30236 5.75095 5.42088C-1.91698 12.6155 -1.91698 24.3217 5.75095 31.5163C9.58492 35.1135 14.6211 36.912 19.6572 36.912C23.5954 36.912 27.5336 35.8121 30.897 33.6124L33.7303 36.2708C33.8605 36.6873 34.9279 40.102 34.9924 40.3079C35.0623 40.5316 35.1179 40.7366 35.2989 40.9064L44.2285 49.2846C44.5944 49.6277 45.1873 49.6277 45.5533 49.2846C45.9191 48.9413 45.9191 48.3849 45.5533 48.0416L37.286 40.2849L42.9602 34.9612L60.9543 51.8444C62.5186 53.3121 62.5186 55.7003 60.9544 57.168C59.3899 58.636 56.8444 58.6357 55.2803 57.168L48.6112 50.9108C48.2453 50.5677 47.6524 50.5677 47.2864 50.9108C46.9206 51.2542 46.9206 51.8105 47.2864 52.1539L53.9555 58.4111C55.1029 59.4876 56.61 60.0259 58.1171 60.0259C59.6243 60.0259 61.1315 59.4875 62.279 58.411C64.5737 56.2577 64.5737 52.7544 62.279 50.6013ZM38.7982 36.38L36.4155 38.6156L35.617 36.0608L38.4581 33.3952L41.1809 34.1444L38.7982 36.38ZM50.6787 8.83191C50.6787 10.7406 49.0236 12.2935 46.9891 12.2935C44.9548 12.2935 43.2997 10.7406 43.2997 8.83191C43.2997 6.9231 44.9548 5.37019 46.9891 5.37019C49.0236 5.37007 50.6787 6.92298 50.6787 8.83191ZM46.9891 14.0513C47.6187 14.0513 48.2234 13.9512 48.7882 13.7696C48.4136 16.7851 45.676 19.1337 42.363 19.1337C38.7952 19.1337 35.8924 16.4102 35.8924 13.0627C35.8924 9.90183 38.4809 7.29871 41.7732 7.01815C41.5492 7.58338 41.4263 8.19438 41.4263 8.83191C41.4263 11.7098 43.9217 14.0513 46.9891 14.0513ZM41.7861 3.50644C42.9529 3.46045 44.1117 3.58647 45.2176 3.88534C44.3419 4.16215 43.5635 4.63786 42.9429 5.25555C42.7511 5.24276 42.5582 5.23407 42.363 5.23407C37.7621 5.23407 34.019 8.74601 34.019 13.0628C34.019 17.3796 37.762 20.8916 42.363 20.8916C46.9637 20.8916 50.7069 17.3797 50.7069 13.0628C50.7069 12.9473 50.7029 12.8327 50.6972 12.7185C51.3765 12.1474 51.9059 11.4225 52.2221 10.6024C52.4493 11.4042 52.5654 12.233 52.5654 13.0628C52.5654 18.1597 48.2976 22.3379 42.9388 22.6193C42.5471 22.6398 42.1788 22.6398 41.787 22.6193C36.4283 22.338 32.1603 18.1598 32.1603 13.0628C32.1604 7.96615 36.4278 3.7883 41.7861 3.50644ZM33.4905 5.38545C31.5032 7.40573 30.2869 10.1033 30.2869 13.0628C30.2869 16.0224 31.5031 18.72 33.4905 20.7403C27.9396 18.417 24.1235 14.6014 22.7374 13.0628C24.1235 11.5241 27.9396 7.70859 33.4905 5.38545ZM21.2721 14.1589C22.6654 15.7123 26.506 19.5805 32.1465 22.0918C31.5406 23.9417 30.4611 25.6833 28.904 27.1445C26.4341 29.4618 23.1503 30.7381 19.6572 30.7381C16.1642 30.7381 12.8804 29.4617 10.4106 27.1443C5.31198 22.3606 5.31198 14.5766 10.4106 9.79294C12.8805 7.47543 16.1643 6.19921 19.6572 6.19921C21.8946 6.19921 24.0452 6.72444 25.9521 7.71011C23.6707 9.42836 22.0701 11.0771 21.2722 11.9667C20.7024 12.6018 20.7024 13.5238 21.2721 14.1589ZM7.07576 30.2733C3.71503 27.1202 1.86421 22.9279 1.86421 18.4685C1.86421 14.0094 3.71503 9.81699 7.07576 6.66389C10.5444 3.40928 15.1008 1.78198 19.6572 1.78198C23.3569 1.78198 27.056 2.85566 30.1734 5.0015C29.2439 5.50021 28.3752 6.02813 27.5698 6.56415C25.2192 5.1828 22.4994 4.44143 19.6572 4.44143C15.6638 4.44143 11.9095 5.90058 9.08567 8.54982C3.25667 14.019 3.25667 22.918 9.08567 28.3872C11.9095 31.0366 15.6638 32.4957 19.6572 32.4957C23.6506 32.4957 27.405 31.0365 30.2288 28.3872C31.9577 26.7651 33.172 24.8408 33.8754 22.7941C34.7423 23.1134 35.6458 23.3964 36.5835 23.6325C35.7285 26.1091 34.2575 28.3791 32.2388 30.2732C25.3012 36.7825 14.0131 36.7825 7.07576 30.2733ZM33.5635 31.5163C33.9426 31.1606 34.3009 30.793 34.6423 30.4163L36.8128 32.4528L34.5616 34.5649L32.3921 32.5294C32.7935 32.2091 33.1845 31.8718 33.5635 31.5163Z" fill="#FD7E14"/>
</g>
<defs>
<clipPath id="clip0_9_24">
<rect width="64" height="64" fill="white"/>
</clipPath>
</defs>
</svg>
