<svg width="64" height="62" viewBox="0 0 64 62" fill="none" xmlns="http://www.w3.org/2000/svg">
<path d="M59.9125 2.8606H13.6561C11.9536 2.8606 10.5685 4.20244 10.5685 5.85173V23.2016C6.40373 26.1935 4.31836 31.4563 5.73948 36.5948C6.41561 39.0388 7.79361 41.1222 9.60648 42.6977L7.78736 45.7499C7.62298 45.7518 7.45773 45.77 7.29411 45.8099C6.75123 45.9425 6.29498 46.2708 6.00923 46.7343L1.29573 54.3757C0.704109 55.3348 1.02811 56.5813 2.01811 57.1543L4.95298 58.8534C5.28811 59.0475 5.65748 59.1398 6.02223 59.1398C6.73473 59.1398 7.43023 58.7876 7.82161 58.1533L12.535 50.5122C12.8211 50.0486 12.9034 49.5037 12.7667 48.9779C12.707 48.7485 12.6069 48.5363 12.4752 48.3455L14.2832 45.3118C15.5671 45.7186 16.9234 45.9366 18.3079 45.9366C19.4191 45.9366 20.5486 45.7973 21.6717 45.5057C24.1167 44.871 26.2686 43.5916 27.9289 41.8169H59.9125C61.615 41.8169 63.0001 40.4751 63.0001 38.8257V5.85173C63.0001 4.20244 61.615 2.8606 59.9125 2.8606ZM13.6561 4.7981H59.9125C60.5122 4.7981 61.0001 5.27072 61.0001 5.85173V10.5523H12.5684V5.85173C12.5684 5.27072 13.0564 4.7981 13.6561 4.7981ZM10.818 49.5181L6.10461 57.1593C6.07998 57.1991 6.01948 57.2139 5.97861 57.1902L3.04373 55.4911C3.02323 55.4792 3.00973 55.4608 3.00336 55.4364C2.99698 55.4119 2.99998 55.3894 3.01223 55.3694L7.72586 47.7279C7.73811 47.7081 7.75711 47.695 7.78236 47.6888C7.80748 47.6826 7.83086 47.6856 7.85148 47.6974L10.7864 49.3963C10.8069 49.4083 10.8205 49.4267 10.8269 49.4512C10.8334 49.4756 10.8304 49.4982 10.818 49.5181ZM10.8594 47.1814L9.65786 46.4858L11.2077 43.8855C11.599 44.1321 12.0039 44.3578 12.42 44.5627L10.8594 47.1814ZM21.1539 43.6342C20.2031 43.881 19.2479 43.9989 18.3072 43.9988C13.4472 43.9986 8.98761 40.8523 7.67136 36.0934C6.10036 30.4134 9.59223 24.5542 15.4554 23.0323C21.3184 21.5104 27.3669 24.8932 28.9379 30.5731C30.5091 36.2529 27.017 42.1122 21.1539 43.6342ZM59.9125 39.8794H29.4199C29.4707 39.7983 29.521 39.7167 29.5702 39.6342C31.3075 36.7191 31.7691 33.3231 30.8697 30.0717C29.0131 23.3598 21.8669 19.3624 14.9377 21.1606C14.1055 21.3767 13.3142 21.6674 12.5684 22.0221V12.49H61.0001V38.8257C61.0001 39.4067 60.5122 39.8794 59.9125 39.8794ZM17.0441 7.67516C17.0441 7.02416 17.5922 6.49317 18.2642 6.49317C18.9364 6.49317 19.4844 7.02416 19.4844 7.67516C19.4844 8.32616 18.9364 8.85716 18.2642 8.85716C17.5921 8.85716 17.0441 8.32616 17.0441 7.67516ZM21.7276 7.67516C21.7276 7.02416 22.2759 6.49317 22.9477 6.49317C23.6197 6.49317 24.168 7.02416 24.168 7.67516C24.168 8.32616 23.6197 8.85716 22.9477 8.85716C22.2759 8.85716 21.7276 8.32616 21.7276 7.67516ZM26.4114 7.67516C26.4114 7.02416 26.9596 6.49317 27.6315 6.49317C28.3034 6.49317 28.8516 7.02416 28.8516 7.67516C28.8516 8.32616 28.3034 8.85716 27.6315 8.85716C26.9596 8.85716 26.4114 8.32616 26.4114 7.67516ZM58.3096 17.3266C58.3096 17.8616 57.8619 18.2953 57.3096 18.2953H20.5301C19.9779 18.2953 19.5301 17.8616 19.5301 17.3266C19.5301 16.7916 19.9779 16.3578 20.5301 16.3578H57.3096C57.8619 16.3578 58.3096 16.7916 58.3096 17.3266ZM58.3096 21.8251C58.3096 22.3601 57.8619 22.7938 57.3096 22.7938H30.1401C29.5879 22.7938 29.1401 22.3601 29.1401 21.8251C29.1401 21.2901 29.5879 20.8563 30.1401 20.8563H57.3096C57.8619 20.8563 58.3096 21.2901 58.3096 21.8251ZM58.3096 26.3235C58.3096 26.8585 57.8619 27.2922 57.3096 27.2922H34.6582C34.106 27.2922 33.6582 26.8585 33.6582 26.3235C33.6582 25.7885 34.106 25.3547 34.6582 25.3547H57.3096C57.8619 25.3547 58.3096 25.7885 58.3096 26.3235ZM58.3096 30.8221C58.3096 31.3571 57.8619 31.7909 57.3096 31.7909H35.1137C34.5615 31.7909 34.1137 31.3571 34.1137 30.8221C34.1137 30.2871 34.5615 29.8534 35.1137 29.8534H57.3096C57.8619 29.8534 58.3096 30.2871 58.3096 30.8221ZM58.3096 35.3205C58.3096 35.8555 57.8619 36.2893 57.3096 36.2893H35.1137C34.5615 36.2893 34.1137 35.8555 34.1137 35.3205C34.1137 34.7855 34.5615 34.3518 35.1137 34.3518H57.3096C57.8619 34.3518 58.3096 34.7855 58.3096 35.3205ZM15.8482 24.4519C10.7931 25.764 7.78248 30.8158 9.13698 35.7128C10.272 39.8161 14.1165 42.5287 18.307 42.5287C19.1176 42.5287 19.9417 42.4271 20.7612 42.2144C25.8164 40.9022 28.827 35.8505 27.4725 30.9534C26.1179 26.0561 20.9027 23.1396 15.8482 24.4519ZM20.2436 40.343C16.2531 41.3786 12.1379 39.0767 11.0689 35.2115C9.99973 31.3462 12.376 27.3591 16.3659 26.3235C17.013 26.1555 17.6629 26.0754 18.303 26.0754C21.6102 26.0754 24.645 28.2167 25.5406 31.455C26.6096 35.3201 24.2335 39.3073 20.2436 40.343Z" fill="#D63384"/>
</svg>
