<svg width="64" height="64" viewBox="0 0 64 64" fill="none" xmlns="http://www.w3.org/2000/svg">
<path d="M25.6262 56.3919L24.2254 57.7927C23.588 58.3861 24.0769 59.5305 24.9324 59.4997C25.1882 59.4998 25.4441 59.4021 25.6394 59.2068L28.6381 56.2081C29.025 55.8366 29.0254 55.1629 28.6381 54.7914L25.6394 51.7927C24.7119 50.8735 23.3038 52.277 24.2254 53.2068L25.3814 54.3628C-4.49383 50.1906 -2.37664 7.54212 27.9326 6.4997C41.1658 6.49976 51.9324 17.2664 51.9324 30.4998C51.9324 31.052 52.3797 31.4998 52.9324 31.4998C53.4851 31.4998 53.9324 31.052 53.9324 30.4998C53.9324 16.1633 42.2693 4.49976 27.9324 4.49976C-5.17492 5.66798 -7.09643 52.3796 25.6262 56.3919Z" fill="#2E63D7"/>
<path d="M30.2253 26.7928L28.2693 28.7483L25.8513 23.1057C25.3115 21.907 23.5161 22.6773 24.0134 23.8938L27.0134 30.8938C27.2667 31.531 28.1662 31.7066 28.6394 31.2068L31.6394 28.2068C32.5588 27.2785 31.155 25.8716 30.2253 26.7928Z" fill="#2E63D7"/>
<path d="M56.9324 34.4997H47.53C50.1437 22.3197 40.4124 10.3571 27.9323 10.4998C16.9041 10.4997 7.93238 19.4718 7.93238 30.4997C7.71076 43.7539 21.3813 53.7641 33.9324 49.563V53.4997C33.9324 56.2565 36.1755 58.4997 38.9324 58.4997H56.9324C59.6892 58.4997 61.9324 56.2565 61.9324 53.4997V39.4997C61.9324 36.7428 59.6892 34.4997 56.9324 34.4997ZM33.9324 47.4494C22.5588 51.74 9.70789 42.674 9.93256 30.4995C9.93238 20.5744 18.0076 12.4997 27.9324 12.4997C39.3085 12.355 48.1492 23.4547 45.4744 34.4997H43.4231C46.1215 24.5888 38.2234 14.3554 27.9323 14.4998C19.1101 14.4997 11.9324 21.6774 11.9324 30.4997C11.7154 41.6128 23.7315 49.6822 33.9324 45.3257V47.4494ZM33.9324 39.4997V43.1263C32.3491 43.879 30.6744 44.3179 28.9324 44.4401V43.4997C28.9324 42.9469 28.4851 42.4997 27.9324 42.4997C27.3796 42.4997 26.9324 42.9469 26.9324 43.4997V44.449C20.0111 43.9563 14.4757 38.4209 13.983 31.4997H14.9324C15.4851 31.4997 15.9324 31.0519 15.9324 30.4997C15.9324 29.9474 15.4851 29.4997 14.9324 29.4997H13.983C14.4757 22.5784 20.0111 17.043 26.9324 16.5503V17.4997C26.9324 18.0519 27.3796 18.4997 27.9324 18.4997C28.4851 18.4997 28.9324 18.0519 28.9324 17.4997V16.5503C35.8536 17.043 41.389 22.5784 41.8817 29.4997H40.9324C40.3796 29.4997 39.9324 29.9474 39.9324 30.4997C39.9324 31.0519 40.3796 31.4997 40.9324 31.4997H41.8902C41.8177 32.5224 41.629 33.5247 41.3358 34.4997H38.9324C36.1755 34.4997 33.9324 36.7428 33.9324 39.4997ZM59.9324 53.4997C59.9324 55.154 58.5867 56.4997 56.9324 56.4997H38.9324C37.2781 56.4997 35.9324 55.154 35.9324 53.4997V39.4997C35.9324 37.8454 37.2781 36.4997 38.9324 36.4997H56.9324C58.5867 36.4997 59.9324 37.8454 59.9324 39.4997V53.4997Z" fill="#2E63D7"/>
<path d="M51.0613 40.8788L46.1824 45.7577L44.8035 44.3788C41.9368 41.6551 37.8359 45.7508 40.5613 48.621L44.0613 52.1209C45.1782 53.2846 47.1866 53.2851 48.3035 52.1209L55.3035 45.1209C58.0256 42.2545 53.9334 38.1531 51.0613 40.8788ZM53.8894 43.7069L46.8894 50.7069C46.5105 51.0838 45.8542 51.0838 45.4753 50.7069L41.9753 47.2069C41.5857 46.8172 41.5857 46.1825 41.9753 45.7928C42.3657 45.4032 42.999 45.4032 43.3894 45.7928L45.4753 47.8788C45.866 48.2694 46.4988 48.2694 46.8894 47.8788L52.4753 42.2928C53.3997 41.3738 54.8115 42.7762 53.8894 43.7069Z" fill="#2E63D7"/>
</svg>
