<svg width="52" height="52" viewBox="0 0 52 52" fill="none" xmlns="http://www.w3.org/2000/svg">
<g clip-path="url(#clip0_683_47)">
<path d="M12.4831 37.8733C12.3394 37.4167 11.8527 37.1624 11.396 37.306C10.939 37.4496 10.6851 37.9364 10.8287 38.3934L11.646 40.9932C11.7594 41.3542 12.0939 41.5998 12.472 41.6002C12.56 41.5998 12.6477 41.5863 12.7318 41.5601C12.9512 41.4911 13.1341 41.3379 13.2404 41.134C13.3467 40.9305 13.3678 40.6925 13.2987 40.4735L12.4831 37.8733Z" fill="#FD7E14"/>
<path d="M16.4559 32.9333H18.1892C18.6681 32.9333 19.0561 32.5453 19.0561 32.0668C19.0561 31.588 18.6681 31.2 18.1892 31.2H16.4559C15.9774 31.2 15.5894 31.588 15.5894 32.0668C15.5894 32.5453 15.9774 32.9333 16.4559 32.9333Z" fill="#FD7E14"/>
<path d="M9.74008 34.9268C9.85394 35.2878 10.1884 35.5334 10.5669 35.5334C10.6553 35.533 10.743 35.5199 10.8271 35.4933C11.0461 35.4247 11.2294 35.2712 11.3353 35.0677C11.4416 34.8637 11.4627 34.6261 11.3936 34.4067L10.9311 32.9333H12.9893C13.4681 32.9333 13.8561 32.5453 13.8561 32.0668C13.8561 31.588 13.4681 31.2 12.9893 31.2H9.75079C9.47467 31.2 9.21521 31.3313 9.05176 31.5538C8.8887 31.7764 8.84109 32.0632 8.92361 32.3267L9.74008 34.9268Z" fill="#FD7E14"/>
<path d="M17.3228 37.2667C17.3228 38.6691 18.6018 39.3078 19.5353 39.7799C20.2693 40.1422 20.7894 40.4266 20.7894 40.7333C20.76 41.1994 20.3887 41.5708 19.9225 41.6001C19.4441 41.6001 19.0561 41.2121 19.0561 40.7333C19.0561 40.2548 18.6681 39.8668 18.1892 39.8668C17.7108 39.8668 17.3228 40.2548 17.3228 40.7333C17.3228 42.1694 18.4868 43.3334 19.9225 43.3334C21.3436 43.2973 22.4866 42.154 22.5227 40.7333C22.5227 39.3308 21.2436 38.6921 20.3101 38.22C19.5762 37.8578 19.0561 37.5733 19.0561 37.2667C19.0854 36.8005 19.4568 36.4292 19.9225 36.3998C20.4014 36.3998 20.7894 36.7878 20.7894 37.2667C20.7894 37.7451 21.1774 38.1331 21.6558 38.1331C22.1347 38.1331 22.5227 37.7451 22.5227 37.2667C22.5227 35.8305 21.3587 34.6665 19.9225 34.6665C18.5018 34.7026 17.3589 35.846 17.3228 37.2667Z" fill="#FD7E14"/>
<path d="M25.9893 43.3334H27.7226C28.2014 43.3334 28.5894 42.9454 28.5894 42.4666C28.5894 41.9881 28.2014 41.6001 27.7226 41.6001H25.9893V39.8668H27.7226C28.2014 39.8668 28.5894 39.4784 28.5894 39C28.5894 38.5215 28.2014 38.1331 27.7226 38.1331H25.9893V36.3998H27.7226C28.2014 36.3998 28.5894 36.0118 28.5894 35.5334C28.5894 35.0545 28.2014 34.6665 27.7226 34.6665H25.9893C25.032 34.6665 24.256 35.4425 24.256 36.3998V41.6001C24.256 42.5574 25.032 43.3334 25.9893 43.3334Z" fill="#FD7E14"/>
<path d="M33.3561 43.3334C35.0311 43.3334 36.3895 41.975 36.3895 40.3V37.6999C36.3895 36.0249 35.0311 34.6665 33.3561 34.6665C31.6808 34.6665 30.3228 36.0249 30.3228 37.6999V40.3C30.3228 41.1046 30.6421 41.8759 31.211 42.4448C31.7799 43.0137 32.5516 43.3334 33.3561 43.3334ZM32.0561 37.6999C32.0561 36.9818 32.6381 36.3998 33.3561 36.3998C34.0738 36.3998 34.6558 36.9818 34.6558 37.6999V40.3C34.6558 41.0181 34.0738 41.6001 33.3561 41.6001C32.6381 41.6001 32.0561 41.0181 32.0561 40.3V37.6999Z" fill="#FD7E14"/>
<path d="M1.86581 44.9799C1.87891 45.0517 1.90112 45.1215 1.93167 45.1882L4.40924 50.498C4.83731 51.4113 5.75296 51.996 6.76144 52H45.2171C46.2276 51.9972 47.1456 51.412 47.5745 50.4972L50.0473 45.1854C50.0775 45.1191 50.0997 45.0493 50.1132 44.9775C50.5321 42.6824 50.0001 40.3156 48.6397 38.4204L45.9531 34.6856L46.6263 32.5417C46.9758 31.4384 46.7735 30.2343 46.0832 29.3055C45.3393 28.3105 44.1678 27.727 42.9256 27.7333H40.765C39.6375 26.5197 38.2732 25.5501 36.7561 24.8848C34.9879 24.1183 33.5406 23.4399 32.4528 22.8722L32.4433 22.8654C31.9597 22.6123 31.5907 22.4033 31.3031 22.2299C32.0608 21.2547 32.6365 20.151 33.0023 18.9712C33.3113 18.8787 33.6021 18.7343 33.8632 18.5451C34 18.8609 34.3115 19.066 34.6558 19.0668H37.256C38.2133 19.0668 38.9893 18.2908 38.9893 17.3335V13.8669C38.9893 12.9095 38.2133 12.1331 37.256 12.1331H37.0429C37.5837 9.33859 36.9247 6.44525 35.2271 4.1601C33.1959 1.47781 29.9145 0 25.9893 0C22.0641 0 18.7831 1.47781 16.7515 4.1601C15.0523 6.44446 14.3921 9.3378 14.9317 12.1331H14.7226C13.7653 12.1331 12.9893 12.9095 12.9893 13.8669V17.3335C12.9893 18.2908 13.7653 19.0668 14.7226 19.0668H17.0125C17.752 19.5813 18.576 19.9626 19.4468 20.1935C19.7607 20.9254 20.1744 21.611 20.6759 22.2299C20.3879 22.4033 20.0189 22.6123 19.5353 22.8654L19.5258 22.8722C18.438 23.4399 16.9907 24.1183 15.2229 24.8848C13.7054 25.5501 12.341 26.5197 11.2135 27.7333H9.05295C7.81277 27.7285 6.64322 28.3117 5.90094 29.3055C5.21024 30.2343 5.0083 31.4384 5.35742 32.5417L6.03107 34.6856L3.34402 38.4204C1.98126 40.3156 1.44766 42.6832 1.86581 44.9799ZM10.3895 49.3998C10.3895 48.9214 10.7775 48.5334 11.256 48.5334H40.7226C41.2014 48.5334 41.5895 48.9214 41.5895 49.3998C41.5895 49.8787 41.2014 50.2667 40.7226 50.2667H11.256C10.7775 50.2667 10.3895 49.8787 10.3895 49.3998ZM47.2297 39.4332C48.2942 40.9142 48.725 42.7578 48.4275 44.557L46.0007 49.7656C45.8575 50.0707 45.5516 50.2663 45.2148 50.2675H43.1744C43.2006 50.1949 43.2145 50.1159 43.2335 50.0406C43.2466 49.9894 43.2636 49.941 43.2732 49.8886C43.3053 49.7279 43.3216 49.5641 43.3228 49.3998C43.3196 49.1892 43.2906 48.9797 43.2359 48.7762C43.2212 48.7163 43.2006 48.6607 43.1823 48.6028C43.1367 48.4596 43.0788 48.3207 43.0089 48.1874C42.9812 48.1355 42.957 48.0835 42.9225 48.0343C42.8185 47.8629 42.6955 47.7038 42.5555 47.5602C42.4131 47.4214 42.2552 47.2996 42.085 47.1968C42.0651 47.1849 42.0504 47.1667 42.0306 47.1544L45.2977 36.7545L47.2297 39.4332ZM38.2093 27.7333H30.8429C31.7169 26.9978 32.36 26.025 32.694 24.9324C33.6473 25.397 34.7653 25.9099 36.0737 26.4757C36.8343 26.8065 37.5512 27.2287 38.2093 27.7333ZM20.8675 24.1183L20.877 24.1132C21.0937 23.9937 21.2956 23.8783 21.4836 23.7664L21.5824 23.7085C21.7772 23.5907 21.9585 23.4764 22.1144 23.3697L22.4663 23.5351C22.5286 23.5645 22.6016 23.6002 22.6603 23.6272C22.7817 23.6835 22.89 23.7303 22.9968 23.7779L23.1812 23.8593C23.2769 23.8993 23.3641 23.9315 23.451 23.9644C23.5038 23.9842 23.5617 24.0076 23.6121 24.0259C23.6986 24.0536 23.7759 24.0743 23.8557 24.0969C23.9033 24.11 23.9545 24.127 24.0021 24.1385C24.0834 24.1576 24.1683 24.1703 24.2516 24.1834C24.2984 24.1913 24.3445 24.2024 24.3929 24.2088C24.4849 24.2207 24.5861 24.2278 24.6868 24.2346C24.7344 24.2346 24.7733 24.2441 24.8281 24.2469C24.9431 24.2528 25.0768 24.2556 25.2101 24.258H25.349H25.9937H26.6395H26.772C26.9081 24.258 27.0434 24.2528 27.16 24.2469C27.208 24.2469 27.2469 24.2389 27.2929 24.2354C27.3969 24.2278 27.5008 24.2207 27.5945 24.2088C27.6405 24.2024 27.6809 24.1929 27.7278 24.1854C27.8146 24.1715 27.9011 24.1576 27.988 24.1385C28.0328 24.127 28.0804 24.1116 28.1265 24.0985C28.209 24.0759 28.2911 24.0544 28.378 24.0247C28.4256 24.0084 28.4811 23.9858 28.5311 23.9668C28.618 23.933 28.7108 23.9001 28.8084 23.8585C28.8632 23.8358 28.9283 23.8057 28.9818 23.7803C29.0901 23.7327 29.2012 23.6843 29.3286 23.6264L29.5142 23.5395L29.8729 23.3661C30.0288 23.4728 30.2101 23.5871 30.4049 23.7049L30.5037 23.7632C30.6881 23.8727 30.8905 23.9886 31.1107 24.11L31.1202 24.1151C30.7004 26.1837 28.5617 27.7333 25.9893 27.7333C23.4169 27.7333 21.2781 26.1837 20.8675 24.1183ZM19.6896 9.51593C19.6984 9.46912 19.7095 9.4223 19.719 9.37549C19.7388 9.2775 19.7599 9.1799 19.7856 9.08191C19.8003 9.02716 19.8178 8.97241 19.8344 8.91806C19.861 8.83118 19.8896 8.73953 19.9209 8.65027C19.9416 8.59393 19.9642 8.5376 19.9868 8.4769C20.0225 8.39001 20.0598 8.30353 20.1002 8.22101C20.1268 8.16348 20.1558 8.10794 20.1871 8.05478C20.2312 7.96829 20.2796 7.88141 20.33 7.80365C20.3621 7.75049 20.3934 7.69852 20.4272 7.64655C20.4843 7.56006 20.5466 7.47318 20.61 7.39264C20.6446 7.34741 20.6767 7.30179 20.7132 7.25735C20.7953 7.15698 20.8866 7.05978 20.9731 6.96378C20.9965 6.93958 21.0171 6.91418 21.0417 6.88998C21.1635 6.76898 21.292 6.65472 21.4265 6.54761C21.4594 6.52182 21.4955 6.49841 21.5297 6.47223C21.636 6.39169 21.7451 6.31195 21.8621 6.23737C21.9161 6.20206 21.976 6.16992 22.0355 6.1358C22.1386 6.0755 22.2438 6.01559 22.3545 5.96283C22.4211 5.92871 22.4925 5.89697 22.5623 5.86484C22.6718 5.81445 22.7837 5.76685 22.8996 5.72162C22.9769 5.69147 23.0555 5.6629 23.1364 5.63513C23.255 5.59427 23.378 5.55618 23.5046 5.52048C23.5915 5.49628 23.6779 5.47287 23.7644 5.45145C23.8973 5.41931 24.0366 5.39075 24.177 5.36456C24.2639 5.3475 24.3504 5.33005 24.4476 5.31537C24.6063 5.29117 24.7733 5.27292 24.9415 5.25626C25.028 5.24753 25.1038 5.23642 25.1887 5.23047C25.4485 5.21143 25.7084 5.19992 25.9909 5.19992C26.2737 5.19992 26.5364 5.21143 26.7935 5.23047C26.8803 5.23642 26.9573 5.24753 27.0406 5.25626C27.2088 5.27292 27.3759 5.29117 27.5345 5.31537C27.6274 5.33005 27.7159 5.3475 27.8051 5.36456C27.9456 5.39075 28.0848 5.41931 28.2177 5.45145C28.3042 5.47287 28.3907 5.49628 28.4776 5.52048C28.6041 5.55618 28.7271 5.59427 28.8457 5.63513C28.9267 5.6629 29.0052 5.69147 29.0826 5.72162C29.1984 5.76685 29.3103 5.81445 29.4198 5.86484C29.4896 5.89697 29.561 5.92871 29.6277 5.96283C29.7384 6.01917 29.8435 6.07867 29.9467 6.1358C30.003 6.16992 30.0625 6.20206 30.12 6.23737C30.2371 6.31195 30.3462 6.39169 30.4525 6.47223C30.4866 6.49841 30.5227 6.52182 30.5556 6.54761C30.6901 6.65472 30.8187 6.76898 30.9405 6.88998C30.9651 6.91418 30.9857 6.93958 31.0091 6.96378C31.1019 7.05978 31.1912 7.15698 31.2733 7.25735C31.3098 7.30179 31.342 7.34424 31.3765 7.39264C31.4399 7.47952 31.5022 7.56085 31.5594 7.64655C31.5931 7.69852 31.6244 7.75049 31.6566 7.80365C31.7065 7.89014 31.7553 7.96988 31.7994 8.05478C31.8279 8.10953 31.8565 8.16507 31.8863 8.22101C31.9267 8.30789 31.964 8.39438 31.9997 8.4769C32.0223 8.53403 32.0446 8.59036 32.0656 8.65027C32.0985 8.73676 32.1271 8.8288 32.1521 8.91806C32.1687 8.97241 32.1862 9.02716 32.2009 9.08191C32.2267 9.1799 32.2477 9.2775 32.2675 9.37549C32.277 9.4223 32.2882 9.46912 32.2969 9.51593L32.3012 9.54807C30.7802 8.43564 28.8001 8.16705 27.0378 8.83475C26.3701 9.10056 25.6259 9.10056 24.9582 8.83475C23.1959 8.16785 21.2159 8.43604 19.6948 9.54807L19.6896 9.51593ZM37.256 17.3335H35.5227V15.3228C35.5227 15.2804 35.5227 15.236 35.5227 15.1971V13.8669H37.256V17.3335ZM18.1341 5.20706C19.8301 2.96674 22.6199 1.73331 25.9893 1.73331C29.3591 1.73331 32.1489 2.96674 33.8449 5.20706C35.3084 7.19705 35.829 9.72739 35.2696 12.1331H34.6558C34.3333 12.1359 34.0389 12.3188 33.8941 12.6072C33.9592 12.2502 34.0096 11.8586 34.0461 11.4373C34.0461 11.4159 34.058 11.3956 34.0599 11.3742C34.0849 11.064 34.0996 10.7398 34.0996 10.3998C34.0996 6.9491 31.5915 3.46661 25.9893 3.46661C20.3871 3.46661 17.879 6.9491 17.879 10.3998C17.879 10.7398 17.8936 11.064 17.919 11.3742C17.919 11.3956 17.9294 11.4159 17.9329 11.4373C17.969 11.8586 18.0194 12.2502 18.0845 12.6072C17.9397 12.3188 17.6453 12.1359 17.3228 12.1331H16.709C16.1496 9.72739 16.6701 7.19705 18.1341 5.20706ZM14.7226 13.8669H16.4559V15.1971V15.3228V17.3335H14.7226V13.8669ZM24.256 19.0668C23.0713 19.0791 21.8883 18.9648 20.7279 18.726C20.6327 18.459 20.5486 18.2019 20.4894 17.9797C20.3895 17.5989 20.0451 17.3335 19.6515 17.3335C19.1842 17.3335 18.6589 16.8383 18.3741 16.1286C18.092 15.6133 18.1174 14.9844 18.4399 14.4933C18.5371 14.4131 18.6609 14.3731 18.7863 14.3806C18.8601 14.381 18.9335 14.3885 19.0057 14.4032C19.2977 14.4608 19.5984 14.3643 19.8031 14.1481C20.0074 13.9319 20.0864 13.626 20.013 13.338C19.8729 12.7937 19.7674 12.2411 19.6972 11.6837C21.5051 10.2459 22.8674 9.87735 24.3099 10.4486C25.3878 10.8751 26.5876 10.8751 27.6655 10.4486C29.1076 9.87735 30.4699 10.2459 32.2778 11.6837C32.2076 12.2411 32.1025 12.7937 31.9624 13.338C31.8886 13.626 31.968 13.9319 32.1723 14.1481C32.3766 14.3643 32.6777 14.4608 32.9693 14.4032C33.1621 14.3457 33.3704 14.3774 33.5371 14.4897C33.8596 14.9809 33.885 15.6097 33.6029 16.125C33.3181 16.8352 32.7928 17.3299 32.3254 17.3299C31.9311 17.3295 31.5863 17.5957 31.4868 17.9774C31.2785 18.7764 30.4172 21.1841 29.2333 21.7483C28.2721 22.3695 27.1283 22.6465 25.9893 22.5334C25.7874 22.5334 25.6104 22.5334 25.4537 22.5334C25.1728 22.5358 24.8923 22.5183 24.6138 22.4814C23.9568 22.3338 23.3257 22.0883 22.7421 21.7526C22.2858 21.4852 21.9073 21.1032 21.6447 20.6442C22.5108 20.7517 23.3832 20.8036 24.256 20.8001C24.7348 20.8001 25.1228 20.4121 25.1228 19.9332C25.1228 19.4548 24.7348 19.0668 24.256 19.0668ZM15.9116 26.4757C17.2176 25.9099 18.3384 25.397 19.2917 24.9324C19.625 26.0246 20.2669 26.9974 21.1405 27.7333H13.7693C14.4294 27.2283 15.1491 26.8062 15.9116 26.4757ZM7.29861 30.3335C7.71002 29.7788 8.36264 29.4563 9.05295 29.4666H42.9256C43.6159 29.4563 44.2686 29.7788 44.68 30.3335C45.0418 30.8175 45.1489 31.4467 44.9676 32.0235L40.3259 46.8001H11.6531L7.0094 32.0215C6.82889 31.4451 6.9368 30.8171 7.29861 30.3335ZM4.74924 39.4332L6.68011 36.7509L9.94717 47.1512C9.92734 47.1631 9.91266 47.1813 9.89282 47.1936C9.72263 47.296 9.56473 47.4178 9.4223 47.5566C9.28226 47.7003 9.15927 47.8593 9.05572 48.0307C9.02438 48.0799 9.00018 48.1319 8.96884 48.1839C8.89981 48.3172 8.84149 48.4556 8.79547 48.5984C8.77722 48.6564 8.75659 48.7119 8.74191 48.7718C8.68716 48.9769 8.6586 49.188 8.65582 49.3998C8.65701 49.5637 8.67368 49.7271 8.70541 49.8878C8.71493 49.9398 8.73239 49.9886 8.74509 50.0386C8.76453 50.1151 8.77801 50.1937 8.8042 50.2667H6.76144C6.42462 50.2663 6.11835 50.0711 5.97632 49.7656L3.54953 44.5562C3.25238 42.757 3.68402 40.9134 4.74924 39.4332Z" fill="#FD7E14"/>
</g>
<defs>
<clipPath id="clip0_683_47">
<rect width="52" height="52" fill="white"/>
</clipPath>
</defs>
</svg>
