<svg width="52" height="52" viewBox="0 0 52 52" fill="none" xmlns="http://www.w3.org/2000/svg">
<g clip-path="url(#clip0_684_304)">
<path d="M44.6912 0H42.4555C41.4727 0 41.4727 1.52366 42.4555 1.52366H44.6912C47.0001 1.52366 48.8785 3.39532 48.8785 5.69584V23.3268C48.8785 25.6274 47.0002 27.4991 44.6912 27.4991H42.1556C41.9883 27.4991 41.8256 27.5541 41.6927 27.6558L37.0398 31.2149V28.2609C37.0398 27.8402 36.6988 27.4991 36.278 27.4991H27.006C26.2467 27.4991 25.517 27.2987 24.8734 26.9177V18.3657C24.8734 16.7638 24.0575 15.3485 22.8186 14.5112V5.69584C22.8186 3.39532 24.6971 1.52366 27.006 1.52366H37.6814C38.664 1.52366 38.664 0 37.6814 0H27.006C23.8569 0 21.2949 2.55517 21.2949 5.69584V13.8416C20.9461 13.7583 20.5827 13.7129 20.2087 13.7129H6.26254C3.6905 13.7129 1.59791 15.8001 1.59791 18.3657V20.0107C1.59791 20.9934 3.12157 20.9934 3.12157 20.0107V18.3657C3.12157 16.6403 4.53054 15.2366 6.26254 15.2366H20.2088C21.9408 15.2366 23.3499 16.6403 23.3499 18.3657V27.221C23.3407 27.2882 23.3411 27.356 23.3499 27.4227V32.2691C23.3499 32.3649 23.3441 32.4603 23.3354 32.5552H21.7643C20.0332 32.5552 18.5899 33.8047 18.2907 35.4469C18.2214 35.473 18.1549 35.5095 18.0932 35.557L14.6858 38.1879V36.1601C14.6858 35.7393 14.3448 35.3982 13.924 35.3982H6.26254C4.53054 35.3982 3.12157 33.9945 3.12157 32.2691V24.5817C3.12157 23.599 1.59791 23.599 1.59791 24.5817V32.2692C1.59791 34.8348 3.6905 36.922 6.26254 36.922H13.1623V39.7387C13.1623 40.3498 13.9043 40.7164 14.3897 40.3418L18.2329 37.3744V45.945C18.2329 47.8876 19.8172 49.468 21.7644 49.468H26.4395V51.2457C26.4395 51.8566 27.1815 52.2236 27.6669 51.8488L30.7504 49.468H31.6613C33.6085 49.468 35.1928 47.8876 35.1928 45.945V44.5924C35.1928 43.6097 33.6692 43.6097 33.6692 44.5924V45.945C33.6692 47.0475 32.7685 47.9443 31.6613 47.9443H30.4904C30.3219 47.9443 30.1582 48.0002 30.0249 48.1031L27.9631 49.6949V48.7061C27.9631 48.2853 27.6221 47.9442 27.2013 47.9442H21.7643C20.6572 47.9442 19.7565 47.0473 19.7565 45.9449V36.0783C19.7565 34.9758 20.6571 34.0789 21.7643 34.0789H31.6613C32.7684 34.0789 33.6692 34.9759 33.6692 36.0783V39.8183C33.6692 40.8009 35.1928 40.8009 35.1928 39.8183V36.0784C35.1928 34.1357 33.6085 32.5554 31.6613 32.5554H24.8648C24.8706 32.4602 24.8735 28.6124 24.8735 28.6124C25.5452 28.8825 26.2654 29.0228 27.0061 29.0228H35.5163V32.7568C35.5163 33.3664 36.2551 33.7334 36.741 33.3619L42.4137 29.0228H44.6913C47.8403 29.0228 50.4023 26.4677 50.4023 23.3269V5.69584C50.4022 2.55517 47.8402 0 44.6912 0Z" fill="#EDDC46"/>
<path d="M37.7522 5.62862C36.7849 5.38168 35.7992 6.14595 35.7992 7.14547C35.7992 8.23752 35.4012 9.28996 34.6791 10.1084L32.5801 12.4836C32.4442 12.275 32.2093 12.137 31.9419 12.137H27.8442C27.4234 12.137 27.0824 12.4781 27.0824 12.8988V22.1185C27.0824 22.5392 27.4234 22.8803 27.8442 22.8803H31.9419C32.2497 22.8803 32.5142 22.6973 32.6344 22.4347C33.464 22.9415 34.4253 23.2156 35.4034 23.2156H42.645C43.7516 23.2156 44.6645 22.2554 44.6126 21.1516C44.5895 20.6629 44.6147 14.0996 44.6147 13.9539C44.6147 12.8678 43.7311 11.9841 42.6473 11.9841L38.8815 11.9728L39.0374 11.6036C39.75 9.91609 39.6327 7.9593 38.724 6.36891C38.5119 5.99734 38.1666 5.73456 37.7522 5.62862C38.1666 5.73456 37.3375 5.52277 37.7522 5.62862C38.1666 5.73456 36.785 5.38168 37.7522 5.62862ZM31.18 21.3566H28.6061V13.6606H31.18V21.3566ZM42.645 13.5077C42.8911 13.5077 43.0912 13.7078 43.0912 13.9538C43.0912 14.0987 43.0897 14.4921 43.0876 15.0255C43.0763 17.9704 43.0688 20.7596 43.0906 21.2232C43.0985 21.3904 43.0171 21.502 42.968 21.5536C42.8828 21.6428 42.7682 21.6918 42.645 21.6918H35.4034C34.5402 21.6918 33.6954 21.3927 33.0244 20.8495L32.7037 20.5899V14.6445L35.8212 11.1168C36.7895 10.0194 37.3228 8.60899 37.3228 7.14537C37.3228 7.1023 37.3816 7.09112 37.4011 7.12464C38.0758 8.30528 38.1628 9.75793 37.6338 11.0107L37.0326 12.4347C36.9334 12.6696 36.9584 12.9385 37.0988 13.1512C37.2395 13.3639 37.4772 13.4921 37.7321 13.4929L42.645 13.5077Z" fill="#EDDC46"/>
<path d="M8.1212 26.4606C7.70036 26.4606 7.35937 26.8017 7.35937 27.2224C7.35937 27.6432 7.70036 27.9843 8.1212 27.9843H10.3669L9.94735 30.5216C9.87869 30.9366 10.1596 31.3288 10.5747 31.3975C10.6168 31.4045 10.6586 31.4078 10.6998 31.4078C11.0659 31.4078 11.3888 31.1432 11.4506 30.7701L11.9111 27.9844H13.749L13.3295 30.5217C13.2608 30.9367 13.5418 31.3289 13.9568 31.3976C13.999 31.4046 14.0407 31.4079 14.0819 31.4079C14.448 31.4079 14.7709 31.1433 14.8327 30.7702L15.2933 27.9845H18.35C18.7709 27.9845 19.1118 27.6434 19.1118 27.2226C19.1118 26.8019 18.7709 26.4608 18.35 26.4608H15.5452L15.8524 24.6024H18.35C18.7709 24.6024 19.1118 24.2613 19.1118 23.8405C19.1118 23.4198 18.7709 23.0787 18.35 23.0787H16.1044L16.5239 20.5414C16.5925 20.1264 16.3116 19.7342 15.8965 19.6655C15.481 19.5966 15.0893 19.8778 15.0206 20.2929L14.5601 23.0786H12.7222L13.1418 20.5413C13.2104 20.1263 12.9295 19.7341 12.5144 19.6654C12.0983 19.5965 11.7073 19.8777 11.6385 20.2927L11.178 23.0785H8.1212C7.70036 23.0785 7.35937 23.4196 7.35937 23.8403C7.35937 24.2611 7.70036 24.6022 8.1212 24.6022H10.926L10.6188 26.4606H8.1212ZM12.4704 24.6022H14.3083L14.001 26.4606H12.1632L12.4704 24.6022Z" fill="#EDDC46"/>
<path d="M26.7036 38.0098C26.0885 37.5033 25.2701 37.3035 24.4491 37.5031C23.3971 37.7585 22.3355 38.742 22.3355 40.3631C22.3355 41.3721 22.7037 42.2479 23.4612 43.0406C24.0799 43.6881 24.9727 44.3039 26.356 45.0373C26.4677 45.0965 26.5903 45.126 26.7129 45.126C26.8355 45.126 26.9581 45.0965 27.0697 45.0373C29.483 43.7579 31.0901 42.4735 31.0901 40.3631C31.0901 38.7332 29.9909 37.7598 28.9013 37.5181C28.0828 37.3365 27.2893 37.5293 26.7036 38.0098ZM29.5664 40.3631C29.5664 41.5014 28.8114 42.3431 26.7128 43.4984C24.6142 42.343 23.8591 41.5013 23.8591 40.3631C23.8591 39.5161 24.3495 39.0952 24.8085 38.9837C24.8931 38.9632 24.9837 38.9516 25.0769 38.9516C25.4221 38.9516 25.8017 39.111 26.0358 39.5648C26.1691 39.823 26.4387 39.9831 26.7279 39.9771C27.0183 39.9713 27.2803 39.8009 27.4031 39.5376C27.6496 39.0092 28.1681 38.9162 28.5711 39.0057C29.0524 39.1123 29.5664 39.525 29.5664 40.3631Z" fill="#EDDC46"/>
</g>
<defs>
<clipPath id="clip0_684_304">
<rect width="52" height="52" fill="white"/>
</clipPath>
</defs>
</svg>
