<svg width="64" height="64" viewBox="0 0 64 64" fill="none" xmlns="http://www.w3.org/2000/svg">
<g clip-path="url(#clip0_115_932)">
<path d="M12.0185 29.0946L12.4765 30.4421C12.6435 30.9341 12.4035 31.4676 11.9365 31.6756L7.23549 34.0046C6.75249 34.2411 6.16899 34.0516 5.91599 33.5816L2.30349 26.8766C2.07949 26.4601 2.18049 25.9546 2.52149 25.6556L14.9785 13.8481L12.407 10.6426C12.063 10.2136 12.132 9.58563 12.5615 9.24163C12.6125 9.19713 12.669 9.16263 12.7255 9.13413V9.13063C14.297 8.31363 15.8495 8.34863 17.3325 8.86263C18.585 9.29463 19.765 10.0681 20.857 10.9356C22.6905 10.8441 24.394 11.0741 25.969 11.5726C30.4875 13.0021 33.896 16.5991 36.2495 20.9506C38.556 25.2166 39.853 30.2276 40.181 34.5881C40.399 37.4971 40.187 40.1446 39.563 42.1231C39.43 42.5431 39.0485 42.8146 38.6315 42.8231C37.7575 42.8961 36.8745 43.3096 36.1645 43.9376C35.5735 44.4581 35.11 45.1171 34.8735 45.8466C34.643 46.5466 34.6215 47.3161 34.905 48.0896C35.2245 48.9541 35.9185 49.8406 37.121 50.6776C37.575 50.9931 37.6855 51.6141 37.373 52.0691C37.1775 52.3466 36.868 52.4976 36.5525 52.4976H11.3815C10.9115 52.4976 10.514 52.1726 10.4095 51.7311C10.183 50.9616 8.11249 43.2401 14.799 36.5536C19.7085 31.6441 20.166 30.2586 19.374 28.3971C17.9855 29.6996 16.023 29.4226 14.221 29.1701C13.3095 29.0406 12.4605 28.9206 12.0185 29.0946ZM10.3055 30.2596L9.92949 29.1551C9.84449 28.9026 9.85999 28.6126 9.99899 28.3596C10.908 26.6876 12.618 26.9271 14.4955 27.1926C16.1015 27.4191 17.897 27.6751 18.5785 26.0436V26.0471C18.667 25.8386 18.824 25.6556 19.039 25.5451C19.5255 25.2896 20.128 25.4786 20.3835 25.9651L20.5505 26.2866C20.56 26.3026 20.569 26.3216 20.579 26.3376C22.463 29.9156 23.084 31.0991 16.212 37.9686C11.2015 42.9821 11.766 48.5671 12.16 50.4981H34.005C33.5605 49.9366 33.2415 49.3596 33.0305 48.7786C32.5795 47.5521 32.6105 46.3331 32.974 45.2296C33.3275 44.1566 33.9995 43.1936 34.842 42.4491C35.7005 41.6921 36.7415 41.1491 37.8235 40.9286C38.2435 39.2556 38.3665 37.1071 38.187 34.7371C37.8805 30.6226 36.6595 25.9051 34.4915 21.8946C32.3685 17.9661 29.335 14.7351 25.366 13.4791C23.9145 13.0216 22.3275 12.8226 20.6075 12.9521V12.9491C20.3615 12.9676 20.1095 12.8956 19.901 12.7251C18.8785 11.8856 17.7835 11.1256 16.6825 10.7436C16.086 10.5386 15.48 10.4466 14.868 10.5196L17.105 13.3121L17.1085 13.3156C17.4305 13.7166 17.3985 14.3031 17.0195 14.6626L4.42099 26.6026L7.21649 31.7861L10.3055 30.2596Z" fill="#DC3545"/>
<path d="M8.00198 50.4985H39.543C40.1085 50.4985 40.619 50.729 40.991 51.101C41.36 51.47 41.5905 51.985 41.5905 52.549V55.957C41.5905 56.5215 41.36 57.032 40.991 57.405C40.619 57.774 40.108 58.0035 39.543 58.0035H8.00198C7.44048 58.0035 6.92598 57.774 6.55648 57.405C6.18448 57.032 5.95398 56.521 5.95398 55.957V52.549C5.95398 51.9845 6.18448 51.47 6.55648 51.101H6.55998C6.92948 50.729 7.44048 50.4985 8.00198 50.4985ZM39.543 52.4985H8.00198C7.98948 52.4985 7.97648 52.5055 7.96698 52.511L7.97048 52.515C7.96098 52.524 7.95498 52.5365 7.95498 52.549V55.957C7.95498 55.9695 7.96148 55.9825 7.97048 55.9885C7.97998 55.9985 7.98948 56.004 8.00198 56.004H39.543C39.5555 56.004 39.5685 55.998 39.5745 55.9885C39.5845 55.9825 39.59 55.97 39.59 55.957V52.549C39.59 52.5365 39.584 52.5235 39.5745 52.515C39.5685 52.505 39.556 52.4995 39.543 52.4995V52.4985Z" fill="#DC3545"/>
<path d="M2.51452 62.0119H45.03C45.159 62.0119 45.273 61.9609 45.355 61.8789V61.8759C45.44 61.7899 45.4905 61.6769 45.4905 61.5479V58.4679C45.4905 58.3389 45.4395 58.2219 45.3575 58.1399L45.3545 58.1369C45.2725 58.0549 45.158 58.0039 45.0295 58.0039H2.51452C2.38852 58.0039 2.27152 58.0549 2.18952 58.1369L2.18652 58.1399C2.10452 58.2219 2.05352 58.3389 2.05352 58.4679V61.5479C2.05352 61.6769 2.10702 61.7909 2.18902 61.8759V61.8789C2.27152 61.9614 2.38852 62.0119 2.51452 62.0119ZM45.0305 64.0119H2.51452C1.84252 64.0119 1.22752 63.7344 0.779516 63.2864L0.776516 63.2894C0.331516 62.8449 0.0540161 62.2259 0.0540161 61.5484V58.4684C0.0540161 57.7934 0.331516 57.1784 0.776516 56.7299H0.779516V56.7269C1.22752 56.2814 1.84252 56.0044 2.51452 56.0044H45.03C45.702 56.0044 46.317 56.2819 46.7655 56.7269L46.7685 56.7299C47.214 57.1779 47.491 57.7934 47.491 58.4684V61.5484C47.491 62.2259 47.2135 62.8454 46.7685 63.2894V63.2864C46.3215 63.7349 45.702 64.0119 45.0305 64.0119Z" fill="#DC3545"/>
<path d="M46.043 13.2075C46.043 12.6555 46.491 12.207 47.043 12.207C47.5955 12.207 48.044 12.655 48.044 13.2075V26.738H57.0145C57.5665 26.738 58.0145 27.183 58.0145 27.735V39.785C58.0145 40.337 57.5665 40.785 57.0145 40.785C56.462 40.785 56.0135 40.337 56.0135 39.785V28.735H47.043C46.491 28.735 46.043 28.287 46.043 27.7345V13.2075Z" fill="#DC3545"/>
<path d="M43.954 18.1868C43.61 18.6158 42.9825 18.6823 42.5535 18.3383C42.124 17.9943 42.0545 17.3668 42.402 16.9373L46.2635 12.1568C46.611 11.7278 47.239 11.6618 47.668 12.0053C47.7255 12.0528 47.7755 12.1033 47.8195 12.1568V12.1538L51.6845 16.9308C52.032 17.3598 51.966 17.9908 51.536 18.3378C51.1075 18.6848 50.4765 18.6188 50.129 18.1893L47.04 14.3713L43.954 18.1868Z" fill="#DC3545"/>
<path d="M47.043 0.0117188C48.1105 0.0117188 49.075 0.443719 49.7765 1.14472C50.474 1.84222 50.9055 2.81072 50.9055 3.87722C50.9055 4.94422 50.474 5.90922 49.7765 6.61022C49.0755 7.30772 48.1105 7.73972 47.043 7.73972C45.9765 7.73972 45.008 7.30772 44.3105 6.61022C43.6105 5.90972 43.1775 4.94422 43.1775 3.87722C43.1775 2.81072 43.61 1.84222 44.3105 1.14472C45.008 0.444219 45.9765 0.0117188 47.043 0.0117188ZM48.3625 2.55822C48.0245 2.22022 47.558 2.01222 47.044 2.01222C46.5295 2.01222 46.0625 2.22022 45.7245 2.55822C45.3865 2.89622 45.1785 3.36272 45.1785 3.87722C45.1785 4.39172 45.3865 4.85872 45.7245 5.19622C46.0625 5.53072 46.529 5.74222 47.044 5.74222C47.5575 5.74222 48.0245 5.53072 48.3625 5.19622C48.6975 4.85822 48.9085 4.39172 48.9085 3.87722C48.908 3.35972 48.6975 2.89572 48.3625 2.55822Z" fill="#DC3545"/>
<path d="M57.0145 44.7705C58.081 44.7705 59.0466 45.203 59.7471 45.9005C60.4446 46.6005 60.877 47.5665 60.877 48.633C60.877 49.7035 60.4446 50.668 59.7471 51.3655C59.0471 52.0665 58.081 52.4985 57.0145 52.4985C55.944 52.4985 54.9795 52.067 54.281 51.3655C53.581 50.668 53.149 49.7035 53.149 48.633C53.149 47.5665 53.5805 46.601 54.281 45.9005C54.9795 45.203 55.9445 44.7705 57.0145 44.7705ZM58.3301 47.3175C57.9961 46.9795 57.528 46.7715 57.0145 46.7715C56.497 46.7715 56.033 46.9795 55.695 47.3175C55.357 47.6515 55.149 48.1185 55.149 48.633C55.149 49.1505 55.357 49.6145 55.695 49.9525C56.033 50.2895 56.497 50.4985 57.0145 50.4985C57.528 50.4985 57.9961 50.2895 58.3301 49.9525C58.6681 49.6145 58.876 49.1505 58.876 48.633C58.876 48.118 58.6681 47.6515 58.3301 47.3175Z" fill="#DC3545"/>
<path d="M62.3465 12.7058C62.738 12.3148 63.369 12.3148 63.7605 12.7058C64.151 13.0938 64.151 13.7283 63.7605 14.1193L58.5535 19.3258C58.163 19.7168 57.528 19.7168 57.1405 19.3258C56.749 18.9348 56.749 18.3033 57.1405 17.9123L62.3465 12.7058Z" fill="#DC3545"/>
<path d="M63.7605 17.9123C64.151 18.3033 64.151 18.9348 63.7605 19.3258C63.369 19.7168 62.738 19.7168 62.3465 19.3258L57.1405 14.1193C56.749 13.7283 56.749 13.0938 57.1405 12.7058C57.528 12.3148 58.163 12.3148 58.5535 12.7058L63.7605 17.9123Z" fill="#DC3545"/>
<path d="M34.794 3.58085C35.1855 3.18985 35.8165 3.18985 36.208 3.58085C36.5985 3.96885 36.5985 4.60335 36.208 4.99435L31.001 10.2003C30.6105 10.5913 29.9755 10.5913 29.588 10.2003C29.1965 9.80935 29.1965 9.17785 29.588 8.78685L34.794 3.58085Z" fill="#DC3545"/>
<path d="M36.208 8.78685C36.5995 9.17785 36.5995 9.80935 36.208 10.2003C35.8165 10.5913 35.1855 10.5913 34.794 10.2003L29.588 4.99435C29.197 4.60335 29.197 3.96835 29.588 3.58085C29.976 3.18985 30.6105 3.18985 31.0015 3.58085L36.208 8.78685Z" fill="#DC3545"/>
<path d="M23.5675 16.9307C23.0625 16.7102 22.832 16.1232 23.05 15.6182C23.2705 15.1132 23.8575 14.8827 24.3625 15.1007C27.2715 16.3662 30.418 19.2282 32.6075 23.6737C34.346 27.2077 35.4915 31.7547 35.4415 37.3087C35.4375 37.8577 34.9865 38.3027 34.4375 38.2962C33.8855 38.2932 33.4435 37.8422 33.45 37.2922C33.497 32.0832 32.4305 27.8392 30.818 24.5572C28.8525 20.5692 26.0945 18.0292 23.5675 16.9307Z" fill="#DC3545"/>
</g>
<defs>
<clipPath id="clip0_115_932">
<rect width="64" height="64" fill="white"/>
</clipPath>
</defs>
</svg>
