<svg width="52" height="52" viewBox="0 0 52 52" fill="none" xmlns="http://www.w3.org/2000/svg">
<path fill-rule="evenodd" clip-rule="evenodd" d="M15.2105 46.9473L15.6232 47.6766C15.6236 47.6773 15.624 47.6779 15.6244 47.6786C16.0955 48.5165 15.7966 49.5857 14.9635 50.0562L13.1909 51.061C13.19 51.0614 13.1892 51.0619 13.1884 51.0623C12.3505 51.5334 11.2813 51.2345 10.8106 50.401L5.59794 41.1903C5.1225 40.3515 5.42144 39.2812 6.25569 38.8101L8.03042 37.8053L8.03113 37.8049C8.86486 37.334 9.93454 37.6298 10.4093 38.4636L10.4104 38.4654L10.7268 39.0245L15.205 36.4317C16.6484 35.597 18.1258 35.0648 19.711 35.5796C21.1978 36.0617 23.6247 37.1022 26.1019 37.5498C26.1378 37.5564 26.1733 37.5652 26.2081 37.5765C27.5586 38.0138 28.3754 39.3815 28.0067 40.7527C27.9901 40.8144 27.972 40.8747 27.9523 40.9338C28.0758 40.8807 28.1982 40.819 28.3194 40.7483L34.64 37.0672C37.0188 35.6814 38.6085 35.8626 39.5061 36.4648C40.3026 36.9991 40.6754 37.9098 40.6515 38.8054C40.6275 39.7121 40.1897 40.5753 39.4786 41.0132L28.0096 48.0745C26.7577 48.8473 25.3864 49.0293 23.9658 48.6503L23.9648 48.6501L15.9715 46.5078L15.2105 46.9473ZM11.5302 40.4443L14.407 45.5275L15.4485 44.9261C15.6358 44.8179 15.8585 44.7886 16.0675 44.8446L24.3865 47.0741C25.358 47.3333 26.2967 47.2147 27.1529 46.6863L27.1536 46.6858L38.6231 39.6241C38.8932 39.4578 39.0116 39.1064 39.0208 38.762C39.0491 37.6969 37.9716 37.0143 35.4612 38.4768L29.1408 42.1578C28.0883 42.7711 26.9854 42.942 25.7833 42.7506C25.7824 42.7505 25.7815 42.7504 25.7806 42.7502L24.9972 42.6228C24.9968 42.6227 24.9965 42.6227 24.9962 42.6226C24.9851 42.6208 24.9742 42.6188 24.9631 42.6166C24.9627 42.6165 24.9624 42.6164 24.962 42.6163C23.532 42.3227 22.2057 41.891 20.734 41.4955C20.2993 41.3787 20.0411 40.9309 20.1579 40.4961C20.2748 40.0613 20.7226 39.8033 21.1574 39.9201C22.5845 40.3036 23.8711 40.7244 25.2562 41.0113C25.851 41.0743 26.294 40.8403 26.4311 40.3296L26.4312 40.3292C26.5688 39.8174 26.2445 39.3261 25.7501 39.144C23.213 38.6758 20.7309 37.6253 19.2077 37.1314L19.2074 37.1313C18.0789 36.7648 17.0493 37.2497 16.0218 37.8439L11.5302 40.4443ZM8.9915 39.2706L8.99079 39.2694C8.95867 39.2149 8.88852 39.1943 8.83346 39.2254L7.05934 40.2297L7.05873 40.2301C7.00418 40.2609 6.98613 40.3311 7.01713 40.3859L7.01744 40.3864L12.2304 49.5975L12.2307 49.5981C12.2619 49.6533 12.333 49.6714 12.3885 49.6405L14.1591 48.6369L14.1602 48.6363C14.2155 48.6051 14.2335 48.534 14.2025 48.4784L8.9915 39.2706ZM8.48934 40.1466C8.89168 40.0867 9.26526 40.3645 9.32511 40.7668C9.38262 41.1691 9.10478 41.5451 8.70244 41.6026C8.3002 41.6624 7.92662 41.3822 7.86667 40.9799C7.80926 40.5777 8.08701 40.2041 8.48934 40.1466ZM24.4485 29.9417C24.2461 26.5566 23.2763 25.2835 22.5378 23.9771C21.9554 22.9468 21.4932 21.8998 21.4932 20.0831C21.4932 15.5809 25.1431 11.931 29.6454 11.931C34.1477 11.931 37.7976 15.5809 37.7976 20.0831C37.7976 21.8998 37.3354 22.9468 36.753 23.9771C36.0128 25.2865 35.0402 26.5625 34.8409 29.9653L34.8399 31.1101C34.8399 31.9251 34.349 32.6293 33.6499 32.9436V33.495C33.6499 34.322 33.1423 35.0355 32.4256 35.3425V35.8798C32.4256 36.9816 31.5217 37.8879 30.4199 37.8879H28.8709C27.7696 37.8879 26.8628 36.9811 26.8628 35.8798V35.3422C26.1458 35.0351 25.6409 34.3218 25.6409 33.495V32.9444C24.9395 32.6305 24.4485 31.9255 24.4485 31.1101V29.9417ZM33.2088 30.7333H26.0798V31.1101C26.0798 31.3175 26.2492 31.4868 26.4566 31.4868H32.8342C33.0404 31.4868 33.2085 31.317 33.2085 31.1097L33.2088 30.7333ZM32.0185 33.1182H27.2723V33.495C27.2723 33.7023 27.4416 33.8717 27.649 33.8717H30.7942V33.8674H31.6979C31.8783 33.8402 32.0185 33.6832 32.0185 33.495V33.1182ZM28.4942 35.5031V35.8798C28.4942 36.0864 28.6643 36.2566 28.8709 36.2566H30.4199C30.626 36.2566 30.7942 36.086 30.7942 35.8798V35.5031H28.4942ZM31.7272 29.102H33.2716C33.5315 26.4204 34.2527 25.0368 34.9304 23.8676C35.5585 22.7839 36.1662 21.9244 36.1662 20.0831C36.1662 16.4818 33.2467 13.5623 29.6454 13.5623C26.044 13.5623 23.1246 16.4818 23.1246 20.0831C23.1246 21.9244 23.7323 22.7839 24.3604 23.8676C25.0381 25.0368 25.7593 26.4204 26.0192 29.102H27.5636V22.6567H26.6729C25.2877 22.6567 24.1534 21.5224 24.1534 20.1373C24.1534 18.7488 25.2881 17.6153 26.6729 17.6153C28.0611 17.6153 29.1949 18.7491 29.1949 20.1373V21.0254H30.0959V20.1373C30.0959 18.7491 31.2297 17.6153 32.6179 17.6153C34.0027 17.6153 35.1374 18.7488 35.1374 20.1373C35.1374 21.5224 34.0031 22.6567 32.6179 22.6567H31.7272V29.102ZM29.1949 29.102H30.0959V22.6567H29.1949V29.102ZM31.7272 21.0254H32.6179C33.1061 21.0254 33.506 20.6255 33.506 20.1373C33.506 19.6474 33.1064 19.2466 32.6179 19.2466C32.1276 19.2466 31.7272 19.647 31.7272 20.1373V21.0254ZM27.5636 21.0254V20.1373C27.5636 19.647 27.1632 19.2466 26.6729 19.2466C26.1843 19.2466 25.7847 19.6474 25.7847 20.1373C25.7847 20.6255 26.1846 21.0254 26.6729 21.0254H27.5636ZM22.0532 28.7688C22.4648 28.5865 22.947 28.7726 23.1293 29.1843C23.3117 29.5959 23.1255 30.078 22.7139 30.2603L20.0881 31.4235C19.7799 31.56 19.4193 31.4929 19.181 31.2545L16.0881 28.1617C15.8495 27.923 15.7824 27.562 15.9195 27.2535L16.9153 25.0143C16.2844 23.9212 15.7994 22.7487 15.4682 21.5291L13.1822 20.6493C12.8672 20.5281 12.6594 20.2256 12.6594 19.8881V15.5133C12.6594 15.1758 12.8672 14.8731 13.1822 14.7519L15.4678 13.8723C15.7992 12.6497 16.2842 11.4792 16.9155 10.3833L15.9195 8.14342C15.7824 7.83499 15.8495 7.47395 16.0881 7.23526L19.181 4.14238C19.4196 3.90369 19.7807 3.8367 20.0891 3.97384L22.3289 4.96979C23.4248 4.33865 24.595 3.85383 25.8144 3.52552L26.6979 1.23578C26.8193 0.921235 27.1218 0.713745 27.4589 0.713745H31.8338C32.1714 0.713745 32.4741 0.921745 32.5952 1.23691L33.4746 3.52572C34.6938 3.85404 35.8638 4.33876 36.9593 4.96979L39.1992 3.97384C39.5076 3.8367 39.8687 3.90369 40.1074 4.14238L43.2002 7.23526C43.4386 7.47364 43.5057 7.83407 43.3692 8.1423L42.3768 10.3826C43.0083 11.4788 43.4933 12.6498 43.8217 13.8727L46.1061 14.7519C46.4211 14.8731 46.6289 15.1758 46.6289 15.5133V19.8881C46.6289 20.2256 46.4211 20.5281 46.1061 20.6493L43.8213 21.5286C43.4924 22.7478 43.005 23.9178 42.3764 25.0132L43.3692 27.2545C43.5057 27.5628 43.4386 27.9233 43.2002 28.1617L40.1074 31.2545C39.869 31.4929 39.5085 31.56 39.2002 31.4235L36.5744 30.2603C36.1628 30.078 35.9766 29.5959 36.159 29.1843C36.3414 28.7726 36.8235 28.5865 37.2351 28.7688L39.3494 29.7054L41.6511 27.4037L40.7146 25.2895C40.606 25.0443 40.6247 24.7615 40.7648 24.5329C41.4863 23.3553 42.0216 22.074 42.3409 20.7304C42.4031 20.4686 42.5904 20.2544 42.8415 20.1578L44.9975 19.328V16.0733L42.8415 15.2436C42.5902 15.1468 42.4028 14.9323 42.3407 14.6703C42.0217 13.3233 41.4912 12.0427 40.7658 10.8657C40.6248 10.6369 40.6057 10.3532 40.7146 10.1075L41.6511 7.99313L39.35 5.69218L37.2362 6.63206C36.9902 6.74136 36.7061 6.7224 36.4769 6.58108C35.2997 5.85583 34.0191 5.32523 32.6762 5.00609C32.4142 4.94389 32.1999 4.75639 32.1034 4.50505L31.2734 2.34512H28.0185L27.1846 4.50618C27.0878 4.7569 26.8737 4.944 26.6122 5.00609C25.2692 5.32523 23.9885 5.85583 22.8115 6.58108C22.5823 6.7224 22.2981 6.74136 22.0522 6.63206L19.9383 5.69218L17.6379 7.99262L18.5778 10.1064C18.6872 10.3524 18.6681 10.6366 18.5269 10.8657C17.8011 12.0434 17.2704 13.3249 16.947 14.6726C16.8844 14.9336 16.6973 15.1471 16.4468 15.2436L14.2908 16.0733V19.328L16.4468 20.1578C16.6971 20.2541 16.8841 20.4673 16.9469 20.7281C17.2702 22.0714 17.8006 23.3568 18.5262 24.5301C18.668 24.7595 18.6874 25.044 18.5778 25.2905L17.6379 27.4043L19.9389 29.7054L22.0532 28.7688ZM30.4611 10.2658C30.4611 10.7161 30.0955 11.0815 29.6454 11.0815C29.1952 11.0815 28.8297 10.7161 28.8297 10.2658V8.5375C28.8297 8.08724 29.1952 7.72182 29.6454 7.72182C30.0955 7.72182 30.4611 8.08724 30.4611 8.5375V10.2658ZM24.8178 11.3411C25.0426 11.7311 24.9084 12.2303 24.5184 12.4551C24.1283 12.68 23.6291 12.5458 23.4044 12.1557L22.5414 10.6584C22.3166 10.2684 22.4507 9.76919 22.8407 9.54436C23.2308 9.31964 23.7299 9.45372 23.9548 9.84382L24.8178 11.3411ZM20.4698 15.094C20.8596 15.3193 20.9932 15.8186 20.7679 16.2084C20.5426 16.5982 20.0432 16.7317 19.6535 16.5065L18.1562 15.641C17.7664 15.4157 17.6329 14.9164 17.8582 14.5266C18.0834 14.1369 18.5828 14.0033 18.9725 14.2285L20.4698 15.094ZM35.8834 12.1566C35.6582 12.5464 35.1589 12.6799 34.7691 12.4546C34.3793 12.2293 34.2458 11.73 34.4711 11.3402L35.3365 9.84291C35.5618 9.45321 36.0612 9.31964 36.4509 9.54487C36.8407 9.77021 36.9742 10.2695 36.7489 10.6593L35.8834 12.1566ZM39.6377 16.5061C39.2482 16.7317 38.7488 16.5985 38.5232 16.2089C38.2976 15.8193 38.4308 15.3198 38.8204 15.0943L40.3153 14.2289C40.7049 14.0033 41.2043 14.1365 41.4298 14.5261C41.6555 14.9157 41.5222 15.4152 41.1326 15.6407L39.6377 16.5061Z" fill="#E83A25"/>
</svg>
