<svg width="64" height="64" viewBox="0 0 64 64" fill="none" xmlns="http://www.w3.org/2000/svg">
<path d="M62 55H59V23H57V55H7V22H12V23H9C8.447 23 8 23.447 8 24V53C8 53.553 8.447 54 9 54H55C55.553 54 56 53.553 56 53V24H54V52H10V25H12V31C12 31.553 12.447 32 13 32H27C27.553 32 28 31.553 28 31V25H37V23H28V22H37V20H28V17C28 16.447 27.553 16 27 16H13C12.447 16 12 16.447 12 17V20H6C5.447 20 5 20.447 5 21V55H2C1.447 55 1 55.447 1 56V60C1 61.654 2.346 63 4 63H60C61.654 63 63 61.654 63 60V56C63 55.447 62.553 55 62 55ZM14 18H26V30H14V18ZM61 60C61 60.552 60.552 61 60 61H4C3.448 61 3 60.552 3 60V57H61V60Z" fill="#FF800B"/>
<path d="M38 16H39.466C39.642 16.559 39.866 17.1 40.139 17.619L39.101 18.657C38.71 19.048 38.71 19.68 39.101 20.071L41.929 22.899C42.32 23.29 42.952 23.29 43.343 22.899L44.381 21.861C44.901 22.133 45.442 22.358 46 22.534V24C46 24.553 46.447 25 47 25H51C51.553 25 52 24.553 52 24V22.534C52.559 22.358 53.1 22.134 53.619 21.861L54.657 22.899C55.048 23.29 55.68 23.29 56.071 22.899L58.899 20.071C59.29 19.68 59.29 19.048 58.899 18.657L57.861 17.619C58.133 17.099 58.358 16.558 58.534 16H60C60.553 16 61 15.553 61 15V11C61 10.447 60.553 10 60 10H58.534C58.358 9.441 58.134 8.9 57.861 8.381L58.899 7.343C59.29 6.952 59.29 6.32 58.899 5.929L56.071 3.101C55.68 2.71 55.048 2.71 54.657 3.101L53.619 4.139C53.1 3.866 52.559 3.642 52 3.466V2C52 1.447 51.553 1 51 1H47C46.447 1 46 1.447 46 2V3.466C45.441 3.642 44.9 3.866 44.381 4.139L43.343 3.101C42.952 2.71 42.32 2.71 41.929 3.101L39.101 5.929C38.71 6.32 38.71 6.952 39.101 7.343L40.139 8.381C39.866 8.9 39.642 9.441 39.466 10H38C37.447 10 37 10.447 37 11V15C37 15.553 37.447 16 38 16ZM39 12H40.23C40.697 12 41.101 11.677 41.205 11.222C41.405 10.345 41.751 9.513 42.232 8.748C42.481 8.352 42.423 7.838 42.093 7.508L41.221 6.636L42.635 5.222L43.507 6.094C43.838 6.426 44.353 6.482 44.747 6.233C45.512 5.752 46.344 5.406 47.221 5.206C47.677 5.102 48 4.697 48 4.23V3H50V4.23C50 4.697 50.323 5.101 50.778 5.205C51.655 5.405 52.487 5.751 53.252 6.232C53.647 6.481 54.161 6.425 54.492 6.093L55.364 5.221L56.778 6.635L55.906 7.507C55.576 7.837 55.518 8.352 55.767 8.747C56.248 9.512 56.594 10.344 56.794 11.221C56.898 11.677 57.303 12 57.77 12H59V14H57.77C57.303 14 56.899 14.323 56.795 14.778C56.595 15.655 56.249 16.487 55.768 17.252C55.519 17.648 55.577 18.162 55.907 18.492L56.779 19.364L55.365 20.778L54.493 19.906C54.162 19.575 53.647 19.518 53.253 19.767C52.488 20.248 51.656 20.594 50.779 20.794C50.323 20.898 50 21.303 50 21.77V23H48V21.77C48 21.303 47.677 20.899 47.222 20.795C46.345 20.595 45.513 20.249 44.748 19.768C44.353 19.519 43.839 19.576 43.508 19.907L42.636 20.779L41.222 19.365L42.094 18.493C42.424 18.163 42.482 17.648 42.233 17.253C41.752 16.488 41.406 15.656 41.206 14.779C41.102 14.323 40.697 14 40.23 14H39V12Z" fill="#FF800B"/>
<path d="M49 20C52.859 20 56 16.859 56 13C56 9.141 52.859 6 49 6C45.141 6 42 9.141 42 13C42 16.859 45.141 20 49 20ZM49 8C51.757 8 54 10.243 54 13C54 15.757 51.757 18 49 18C46.243 18 44 15.757 44 13C44 10.243 46.243 8 49 8Z" fill="#FF800B"/>
<path d="M53 35V33H51.92C51.75 31.817 51.284 30.731 50.598 29.816L51.364 29.05L49.95 27.636L49.184 28.402C48.269 27.716 47.183 27.25 46 27.08V26H44V27.08C42.817 27.25 41.731 27.716 40.816 28.402L40.05 27.636L38.636 29.05L39.402 29.816C38.716 30.731 38.25 31.817 38.08 33H37V35H38.08C38.25 36.183 38.716 37.269 39.402 38.184L38.636 38.95L40.05 40.364L40.816 39.598C41.731 40.284 42.817 40.749 44 40.92V42H46V40.92C47.183 40.75 48.269 40.284 49.184 39.598L49.95 40.364L51.364 38.95L50.598 38.184C51.284 37.269 51.749 36.183 51.92 35H53ZM50 34C50 36.757 47.757 39 45 39C42.243 39 40 36.757 40 34C40 31.243 42.243 29 45 29C47.757 29 50 31.243 50 34Z" fill="#FF800B"/>
<path d="M45 30C42.794 30 41 31.794 41 34C41 36.206 42.794 38 45 38C47.206 38 49 36.206 49 34C49 31.794 47.206 30 45 30ZM45 36C43.897 36 43 35.103 43 34C43 32.897 43.897 32 45 32C46.103 32 47 32.897 47 34C47 35.103 46.103 36 45 36Z" fill="#FF800B"/>
<path d="M27 34H13C12.447 34 12 34.447 12 35V49C12 49.553 12.447 50 13 50H27C27.553 50 28 49.553 28 49V35C28 34.447 27.553 34 27 34ZM26 48H14V36H26V48Z" fill="#FF800B"/>
<path d="M18.925 26.2332L16.8 23.4002L15.2 24.6002L18.2 28.6002C18.39 28.8532 18.686 29.0002 19 29.0002C19.014 29.0002 19.028 29.0002 19.042 28.9992C19.372 28.9852 19.673 28.8102 19.848 28.5302L24.848 20.5302L23.153 19.4692L18.925 26.2332Z" fill="#FF800B"/>
<path d="M16.707 46.707L20 43.414L23.293 46.707L24.707 45.293L21.414 42L24.707 38.707L23.293 37.293L20 40.586L16.707 37.293L15.293 38.707L18.586 42L15.293 45.293L16.707 46.707Z" fill="#FF800B"/>
</svg>
