<svg width="52" height="52" viewBox="0 0 52 52" fill="none" xmlns="http://www.w3.org/2000/svg">
<g clip-path="url(#clip0_684_313)">
<path d="M3.80859 3.04687C3.38792 3.04687 3.04687 3.38792 3.04687 3.80859C3.04687 4.22926 3.38792 4.5703 3.80859 4.5703C4.22926 4.5703 4.5703 4.22926 4.5703 3.80859C4.5703 3.38792 4.22926 3.04687 3.80859 3.04687ZM9.90232 3.04687C9.48165 3.04687 9.14061 3.38792 9.14061 3.80859C9.14061 4.22926 9.48165 4.5703 9.90232 4.5703C10.323 4.5703 10.664 4.22926 10.664 3.80859C10.664 3.38792 10.323 3.04687 9.90232 3.04687ZM6.85546 3.04687C6.43478 3.04687 6.09374 3.38792 6.09374 3.80859C6.09374 4.22926 6.43478 4.5703 6.85546 4.5703C7.27613 4.5703 7.61717 4.22926 7.61717 3.80859C7.61717 3.38792 7.27613 3.04687 6.85546 3.04687ZM44.3979 29.7578H39.3884C38.6883 29.7578 38.1189 30.3272 38.1189 31.0273V33.0585C38.1189 33.7586 38.6883 34.3281 39.3884 34.3281H44.3979C45.0979 34.3281 45.6674 33.7586 45.6674 33.0585V31.0273C45.6674 30.3272 45.0978 29.7578 44.3979 29.7578ZM44.144 32.8046H39.6423V31.2812H44.144V32.8046ZM39.6132 12.061C39.6132 12.59 39.7552 13.086 40.0021 13.5144L31.4047 22.1118C30.9762 21.8647 30.48 21.7226 29.9508 21.7226C29.4217 21.7226 28.9255 21.8647 28.497 22.1118L21.9449 15.5589C22.1904 15.1314 22.3317 14.6365 22.3317 14.1091C22.3317 12.4989 21.0217 11.1887 19.4114 11.1887C17.8011 11.1887 16.491 12.4988 16.491 14.1091C16.491 14.6399 16.634 15.1376 16.8825 15.567L10.9202 21.5293C10.4917 21.2822 9.99546 21.14 9.46642 21.14C7.85615 21.14 6.546 22.45 6.546 24.0604C6.546 25.6708 7.85605 26.9807 9.46642 26.9807C11.0766 26.9807 12.3867 25.6707 12.3867 24.0604C12.3867 23.5313 12.2446 23.035 11.9975 22.6065L17.9614 16.6425C18.389 16.8882 18.8839 17.0296 19.4114 17.0296C19.9423 17.0296 20.4399 16.8865 20.8693 16.6379L27.4197 23.1892C27.1726 23.6177 27.0304 24.1139 27.0304 24.6431C27.0304 26.2533 28.3405 27.5634 29.9507 27.5634C31.561 27.5634 32.8711 26.2533 32.8711 24.6431C32.8711 24.1139 32.729 23.6176 32.4819 23.1892L41.0791 14.592C41.5077 14.8393 42.0041 14.9815 42.5334 14.9815C44.1436 14.9815 45.4538 13.6714 45.4538 12.0611C45.4538 10.4509 44.1438 9.14061 42.5335 9.14061C40.9233 9.14061 39.6132 10.4507 39.6132 12.061ZM9.46642 25.4574C8.69607 25.4574 8.06943 24.8308 8.06943 24.0605C8.06943 23.2903 8.69607 22.6635 9.46642 22.6635C10.2367 22.6635 10.8633 23.2902 10.8633 24.0605C10.8633 24.8307 10.2367 25.4574 9.46642 25.4574ZM19.4114 15.5061C18.6411 15.5061 18.0144 14.8795 18.0144 14.1092C18.0144 13.339 18.6411 12.7122 19.4114 12.7122C20.1816 12.7122 20.8083 13.3389 20.8083 14.1092C20.8083 14.8794 20.1816 15.5061 19.4114 15.5061ZM29.9508 26.04C29.1806 26.04 28.5539 25.4133 28.5539 24.6431C28.5539 23.8728 29.1806 23.2461 29.9508 23.2461C30.7212 23.2461 31.3478 23.8727 31.3478 24.6431C31.3478 25.4133 30.7212 26.04 29.9508 26.04ZM43.9305 12.061C43.9305 12.8313 43.3038 13.4579 42.5335 13.4579C41.7632 13.4579 41.1366 12.8313 41.1366 12.061C41.1366 11.2908 41.7632 10.664 42.5335 10.664C43.3038 10.664 43.9305 11.2907 43.9305 12.061ZM48.1913 0H3.80859C1.70858 0 0 1.70848 0 3.80859V38.8476C0 40.9477 1.70858 42.6562 3.80859 42.6562H19.6646C19.9052 43.9193 19.6952 45.2478 19.0635 46.3762L17.3964 49.3544C16.7394 50.4977 17.6024 52.0128 18.9473 51.9999H33.0527C34.3711 52.0111 35.2621 50.5065 34.6036 49.3544L32.9365 46.3762C32.3048 45.2478 32.0948 43.9193 32.3354 42.6562H48.1913C50.2914 42.6562 51.9999 40.9477 51.9999 38.8476V3.80859C51.9999 1.70848 50.2914 0 48.1913 0ZM1.52343 3.80859C1.52343 2.5485 2.5486 1.52343 3.80859 1.52343H19.5413C19.3936 1.84894 19.3106 2.20979 19.3106 2.58984V5.02733C19.3106 5.61538 18.8323 6.09374 18.2442 6.09374H1.52343V3.80859ZM33.2742 50.0985C33.3719 50.2902 33.2671 50.4681 33.0526 50.4765H18.9473C18.7334 50.4681 18.628 50.2901 18.7257 50.0985L20.3928 47.1203C21.1519 45.7644 21.4332 44.1822 21.208 42.6562H30.7918C30.5666 44.1822 30.848 45.7644 31.607 47.1203L33.2742 50.0985ZM50.4765 6.09374H44.0537C43.6329 6.09374 43.2919 6.43478 43.2919 6.85546C43.2919 7.27613 43.6329 7.61717 44.0537 7.61717H50.4765V35.8515H14.8948C14.474 35.8515 14.1331 36.1925 14.1331 36.6132C14.1331 37.0339 14.474 37.3749 14.8948 37.3749H50.4765V38.8476C50.4765 40.1077 49.4513 41.1327 48.1913 41.1327H3.80859C2.5486 41.1327 1.52343 40.1077 1.52343 38.8476V37.3749H11.34C11.7608 37.3749 12.1018 37.0339 12.1018 36.6132C12.1018 36.1925 11.7608 35.8515 11.34 35.8515H1.52343V7.61717H18.2442C19.6723 7.61717 20.8341 6.4554 20.8341 5.02733V2.58984C20.8341 2.00179 21.3124 1.52343 21.9005 1.52343H30.0995C30.6876 1.52343 31.1659 2.00179 31.1659 2.58984V5.02733C31.1659 6.4554 32.3277 7.61717 33.7558 7.61717H40.4991C40.9199 7.61717 41.2608 7.27613 41.2608 6.85546C41.2608 6.43478 40.9199 6.09374 40.4991 6.09374H33.7558C33.1677 6.09374 32.6894 5.61538 32.6894 5.02733V2.58984C32.6894 2.20979 32.6064 1.84894 32.4587 1.52343H48.1913C49.4513 1.52343 50.4765 2.5485 50.4765 3.80859V6.09374ZM12.6116 29.7578H7.60214C6.90207 29.7578 6.33261 30.3272 6.33261 31.0273V33.0585C6.33261 33.7586 6.90207 34.3281 7.60214 34.3281H12.6116C13.3117 34.3281 13.8811 33.7586 13.8811 33.0585V31.0273C13.8811 30.3272 13.3117 29.7578 12.6116 29.7578ZM12.3577 32.8046H7.85605V31.2812H12.3577V32.8046ZM23.207 29.7578H18.1975C17.4975 29.7578 16.928 30.3272 16.928 31.0273V33.0585C16.928 33.7586 17.4975 34.3281 18.1975 34.3281H23.207C23.9071 34.3281 24.4765 33.7586 24.4765 33.0585V31.0273C24.4765 30.3272 23.9071 29.7578 23.207 29.7578ZM22.9531 32.8046H18.4514V31.2812H22.9531V32.8046ZM33.8025 29.7578H28.7929C28.0928 29.7578 27.5234 30.3272 27.5234 31.0273V33.0585C27.5234 33.7586 28.0928 34.3281 28.7929 34.3281H33.8024C34.5024 34.3281 35.0719 33.7586 35.0719 33.0585V31.0273C35.072 30.3272 34.5024 29.7578 33.8025 29.7578ZM33.5486 32.8046H29.0468V31.2812H33.5485V32.8046H33.5486Z" fill="#4CFF89"/>
</g>
<defs>
<clipPath id="clip0_684_313">
<rect width="52" height="52" fill="white"/>
</clipPath>
</defs>
</svg>
