<svg width="64" height="64" viewBox="0 0 64 64" fill="none" xmlns="http://www.w3.org/2000/svg">
<path d="M16.1431 11.395H9.87314C9.32089 11.395 8.87314 11.8428 8.87314 12.395V18.665C8.87314 19.2173 9.32089 19.665 9.87314 19.665H16.1431C16.6954 19.665 17.1431 19.2173 17.1431 18.665V12.395C17.1431 11.8428 16.6953 11.395 16.1431 11.395ZM15.1431 17.665H10.8731V13.395H15.1431V17.665ZM20.9021 13.1416C20.9021 12.5894 21.3499 12.1416 21.9021 12.1416H42.785C43.3373 12.1416 43.785 12.5894 43.785 13.1416C43.785 13.6939 43.3373 14.1416 42.785 14.1416H21.9021C21.3499 14.1416 20.9021 13.694 20.9021 13.1416ZM20.9021 17.9184C20.9021 17.3661 21.3499 16.9184 21.9021 16.9184H42.785C43.3373 16.9184 43.785 17.3661 43.785 17.9184C43.785 18.4706 43.3373 18.9184 42.785 18.9184H21.9021C21.3499 18.9184 20.9021 18.4708 20.9021 17.9184ZM16.1431 23.1784H9.87314C9.32089 23.1784 8.87314 23.6261 8.87314 24.1784V30.4484C8.87314 31.0006 9.32089 31.4484 9.87314 31.4484H16.1431C16.6954 31.4484 17.1431 31.0006 17.1431 30.4484V24.1784C17.1431 23.6261 16.6953 23.1784 16.1431 23.1784ZM15.1431 29.4484H10.8731V25.1784H15.1431V29.4484ZM16.1431 34.9618H9.87314C9.32089 34.9618 8.87314 35.4095 8.87314 35.9618V42.2319C8.87314 42.7841 9.32089 43.2319 9.87314 43.2319H16.1431C16.6954 43.2319 17.1431 42.7841 17.1431 42.2319V35.9618C17.1431 35.4094 16.6953 34.9618 16.1431 34.9618ZM15.1431 41.2318H10.8731V36.9616H15.1431V41.2318ZM59.3364 40.0205L56.7471 39.0239C56.3718 37.6416 55.8223 36.316 55.1086 35.0713L56.2356 32.5342C56.4035 32.1561 56.3214 31.7137 56.0288 31.4212L52.4806 27.8734C52.1881 27.5809 51.7459 27.4987 51.3678 27.6666L48.8298 28.7939C48.7654 28.757 48.6999 28.7224 48.6351 28.6864V9.36512C48.6351 8.79237 48.4211 8.27562 48.0163 7.87075L41.7644 1.619C41.3594 1.214 40.8426 1 40.2699 1H6.13639C4.97101 1 4.02289 1.94813 4.02289 3.1135V56.116C4.02289 57.2814 4.97101 58.2295 6.13639 58.2295H27.5763L28.3985 59.0518C28.6911 59.3442 29.1333 59.4265 29.5115 59.2586L32.0496 58.1314C33.2943 58.8449 34.6193 59.3943 36.0009 59.7696L36.9978 62.3594C37.1463 62.7455 37.5173 63.0001 37.931 63.0001H42.9485C43.3623 63.0001 43.7331 62.7454 43.8818 62.3594L44.8784 59.7704C46.2606 59.395 47.5861 58.8454 48.831 58.1317L51.368 59.2586C51.7458 59.4266 52.1885 59.3445 52.481 59.0519L56.029 55.5039C56.3215 55.2114 56.4036 54.769 56.2358 54.3909L55.1084 51.8527C55.8219 50.608 56.3714 49.2829 56.7465 47.9015L59.3365 46.9046C59.7225 46.7561 59.9773 46.3851 59.9773 45.9714V40.9539C59.9771 40.54 59.7224 40.1691 59.3364 40.0205ZM45.221 7.904H41.7313V4.41425L45.221 7.904ZM6.13639 56.2294C6.07489 56.2294 6.02289 56.1774 6.02289 56.1159V3.1135C6.02289 3.05313 6.07601 3 6.13639 3H39.7313V8.34725C39.7313 9.20562 40.4296 9.904 41.2879 9.904H46.6351V27.7409C46.0611 27.5145 45.4755 27.3177 44.8784 27.1556L43.8815 24.5659C43.733 24.1797 43.362 23.9251 42.9483 23.9251H42.7861C42.7858 23.9251 42.7853 23.9251 42.7849 23.9251H21.9021C21.3499 23.9251 20.9021 24.3729 20.9021 24.9251C20.9021 25.4774 21.3499 25.9251 21.9021 25.9251H36.4745L36.0008 27.1558C34.6804 27.5145 33.4125 28.0339 32.2161 28.7019H31.8423L29.5115 27.6667C29.1333 27.4986 28.6911 27.581 28.3985 27.8735L27.5701 28.7019H21.9021C21.3499 28.7019 20.9021 29.1496 20.9021 29.7019C20.9021 30.2541 21.3499 30.7019 21.9021 30.7019H25.5701L24.8505 31.4215C24.558 31.714 24.4759 32.1564 24.6438 32.5345L25.7709 35.0723C25.6508 35.2819 25.537 35.4945 25.4261 35.7085H21.9021C21.3499 35.7085 20.9021 36.1562 20.9021 36.7085C20.9021 37.2607 21.3499 37.7085 21.9021 37.7085H24.5506C24.3941 38.1408 24.2533 38.579 24.1324 39.0239L21.5428 40.0207C21.1568 40.1694 20.902 40.5402 20.902 40.954V45.9715C20.902 46.3853 21.1568 46.7561 21.5428 46.9048L24.1319 47.9014C24.5075 49.284 25.0569 50.6094 25.7704 51.8539L24.6435 54.3909C24.4756 54.7689 24.5578 55.2114 24.8503 55.5039L25.576 56.2296H6.13639V56.2294ZM57.9771 45.2846L55.5459 46.2204C55.2381 46.3387 55.0086 46.6013 54.9324 46.9221C54.5674 48.4554 53.962 49.9155 53.133 51.2619C52.9601 51.5428 52.9369 51.8908 53.0706 52.192L54.129 54.5747L51.5521 57.1517L49.1703 56.0939C48.8691 55.96 48.521 55.9832 48.24 56.1562C46.8938 56.9852 45.4333 57.5909 43.899 57.9559C43.5783 58.0322 43.3156 58.2617 43.1973 58.5695L42.2618 61H38.6175L37.6818 58.5689C37.5634 58.2611 37.3008 58.0316 36.98 57.9552C35.4464 57.5904 33.9864 56.985 32.6404 56.156C32.3594 55.983 32.0113 55.9599 31.7101 56.0935L29.3273 57.1517L26.7503 54.575L27.8081 52.1931C27.9419 51.8918 27.9186 51.5436 27.7456 51.2629C26.9169 49.9171 26.3114 48.4566 25.9461 46.9219C25.8699 46.6011 25.6403 46.3386 25.3326 46.2202L22.9023 45.2848V41.6405L25.3331 40.7048C25.6409 40.5864 25.8704 40.3237 25.9466 40.003C26.3116 38.4692 26.9171 37.009 27.746 35.6629C27.919 35.382 27.9423 35.034 27.8085 34.7326L26.7504 32.3501L29.3273 29.7731L31.2369 30.6213C31.2389 30.6221 31.2409 30.6231 31.243 30.624L31.7101 30.8314C32.0113 30.9653 32.3595 30.942 32.6403 30.769C33.9865 29.9401 35.4465 29.3347 36.9801 28.9697C37.3008 28.8934 37.5634 28.6639 37.6818 28.3561L38.6176 25.925H42.2618L43.1975 28.3561C43.3159 28.6639 43.5785 28.8934 43.8991 28.9697C45.4328 29.3346 46.8928 29.94 48.239 30.769C48.5198 30.942 48.868 30.9653 49.1691 30.8314L51.5519 29.7731L54.1289 32.35L53.0709 34.7318C52.9371 35.0332 52.9604 35.3812 53.1334 35.6621C53.9624 37.0083 54.5679 38.4688 54.9329 40.003C55.0091 40.3237 55.2386 40.5864 55.5464 40.7048L57.9769 41.6403V45.2846H57.9771ZM40.4396 33.7121C35.0633 33.7121 30.6893 38.0861 30.6893 43.4625C30.6893 48.8389 35.0633 53.2129 40.4396 53.2129C45.8161 53.2129 50.1901 48.8389 50.1901 43.4625C50.1901 38.0861 45.816 33.7121 40.4396 33.7121ZM40.4396 51.2129C36.1661 51.2129 32.6893 47.7361 32.6893 43.4625C32.6893 39.1889 36.166 35.7121 40.4396 35.7121C44.7133 35.7121 48.1901 39.1889 48.1901 43.4625C48.1901 47.7361 44.7133 51.2129 40.4396 51.2129ZM42.8359 39.2359L39.2864 42.8206L38.041 41.5754C37.6069 41.1413 37.0298 40.9022 36.4158 40.9022C35.8018 40.9022 35.2246 41.1413 34.7905 41.5754C34.3565 42.0095 34.1174 42.5866 34.1174 43.2005C34.1174 43.8145 34.3565 44.3918 34.7905 44.8256L37.6675 47.7026C38.1156 48.1506 38.7043 48.3746 39.2928 48.3746C39.8814 48.3746 40.47 48.1506 40.918 47.7025C42.007 46.6135 43.1051 45.4996 44.167 44.4225C44.8094 43.771 45.4516 43.1195 46.0956 42.4696C46.9856 41.5714 46.9809 40.1156 46.0848 39.2246C45.6493 38.7914 45.0689 38.5581 44.4564 38.5565C43.8428 38.5589 43.2673 38.8001 42.8359 39.2359ZM44.6745 40.6427C44.79 40.7576 44.7901 40.9456 44.6749 41.062C44.0298 41.713 43.3863 42.3657 42.7428 43.0184C41.6833 44.093 40.5878 45.2043 39.5036 46.2884C39.3874 46.4048 39.1979 46.4046 39.0816 46.2884L36.2046 43.4115C36.1325 43.3394 36.1174 43.257 36.1174 43.2005C36.1174 43.1441 36.1325 43.0617 36.2048 42.9895C36.2629 42.9314 36.3393 42.9022 36.4158 42.9022C36.4923 42.9022 36.5686 42.9312 36.6268 42.9895L38.5828 44.9454C38.7703 45.1329 39.0246 45.2383 39.2898 45.2383H39.2923C39.5584 45.2376 39.8133 45.1309 40.0004 44.9419L44.2569 40.643C44.3273 40.5719 44.4084 40.5566 44.4639 40.5565C44.5065 40.5527 44.5986 40.5672 44.6745 40.6427Z" fill="#FFC700"/>
</svg>
