<svg width="52" height="52" viewBox="0 0 52 52" fill="none" xmlns="http://www.w3.org/2000/svg">
<path d="M48.0385 33.4624C47.6012 32.7324 45.8099 30.5629 41.1168 33.2961L32.9664 38.0433C32.6304 38.2389 32.2897 38.3864 31.9374 38.4868C32.0517 38.2704 32.1443 38.0336 32.2128 37.7779C32.6417 36.1769 31.6916 34.506 30.0498 33.9737C30.0151 33.9624 29.9795 33.9535 29.9435 33.947C27.6084 33.5258 25.3003 32.6914 23.4458 32.021C22.7997 31.7874 22.1894 31.5668 21.6697 31.3983C19.5498 30.7105 17.6414 31.557 16.0544 32.476L10.0686 35.9416L9.54129 35.0098C9.27713 34.5432 8.8459 34.2069 8.32691 34.0631C7.80823 33.9193 7.26518 33.9856 6.7985 34.2496L4.51182 35.5438C3.54606 36.0905 3.20511 37.3208 3.75162 38.2865L10.4748 50.1659C10.7389 50.6326 11.1702 50.9689 11.6891 51.1127C11.8686 51.1624 12.0509 51.187 12.2319 51.187C12.5744 51.187 12.9123 51.099 13.2176 50.9262L15.5044 49.6319C16.4702 49.0853 16.8112 47.855 16.2646 46.8892L15.615 45.7414L16.8886 45.0062L27.2919 47.7937C27.8758 47.9502 28.4565 48.028 29.0279 48.0279C30.1835 48.0279 31.2999 47.7097 32.3204 47.0815L47.1115 37.9737C48.4989 37.1194 48.9408 34.9691 48.0385 33.4624ZM14.7039 48.2176L12.417 49.5119C12.2971 49.5799 12.1814 49.5628 12.123 49.5468C12.0647 49.5306 11.9568 49.4855 11.8889 49.3656L5.16578 37.4862C5.06229 37.3034 5.12942 37.0615 5.31213 36.9581L7.59891 35.6639C7.66564 35.6261 7.73115 35.6146 7.78609 35.6146C7.82986 35.6146 7.86704 35.622 7.89293 35.6292C7.95123 35.6453 8.05909 35.6903 8.12704 35.8102L14.8503 47.6895C14.9538 47.8724 14.8866 48.1142 14.7039 48.2176ZM28.5998 40.0158L29.6135 40.1806C31.1505 40.4264 32.5147 40.1866 33.7841 39.4475L41.9346 34.7003C44.2329 33.3616 45.9936 33.2109 46.6443 34.2973C47.0899 35.0412 46.8956 36.1982 46.2592 36.5899L31.4682 45.6977C30.317 46.4064 29.0535 46.5836 27.7123 46.2241L16.9839 43.3494C16.7758 43.2939 16.5541 43.3229 16.3674 43.4306L14.8145 44.3271L10.869 37.3557L16.8685 33.8821C18.21 33.1054 19.6593 32.454 21.1683 32.9437C21.6624 33.104 22.2327 33.3102 22.8932 33.549C24.7899 34.2347 27.1465 35.0867 29.5955 35.5352C30.3985 35.8191 30.8475 36.594 30.6429 37.3571C30.3736 38.3623 29.5303 38.4868 28.8581 38.4101C27.6631 38.1641 26.5257 37.8396 25.3223 37.4959C24.7496 37.3324 24.1574 37.1632 23.5483 37C23.115 36.8841 22.6694 37.1411 22.5532 37.5745C22.437 38.008 22.6942 38.4534 23.1277 38.5696C23.7239 38.7294 24.3096 38.8966 24.876 39.0583C26.1219 39.4141 27.2986 39.7502 28.5673 40.0096M8.21854 37.8805C8.28375 38.3267 7.975 38.7412 7.52873 38.8064C7.08257 38.8716 6.66799 38.5629 6.60279 38.1166C6.53758 37.6705 6.84633 37.2559 7.2926 37.1907C7.73876 37.1255 8.15334 37.4343 8.21854 37.8805ZM20.2027 13.5034C20.5786 14.2364 20.7673 14.6043 20.8212 14.9102C20.8752 15.216 20.8237 15.6262 20.7213 16.4436C20.6955 16.6493 20.6668 16.8783 20.636 17.1356C20.4668 18.5511 21.2336 19.8793 22.544 20.4406C22.7823 20.5427 22.995 20.6322 23.1859 20.7128C23.2206 20.7274 23.2538 20.7414 23.287 20.7554L20.2671 27.2416C20.1393 27.516 20.1747 27.8386 20.3588 28.0789C20.5429 28.3191 20.8452 28.4372 21.1435 28.3849L24.4629 27.805L26.1558 30.7184C26.3016 30.9694 26.5698 31.1226 26.8582 31.1226C26.8705 31.1226 26.8829 31.1223 26.8952 31.1218C27.1975 31.1081 27.4672 30.9274 27.5949 30.6531L30.5928 24.2141L30.5336 24.1866C31.0468 24.0313 31.3497 23.9532 31.598 23.9532C31.9086 23.9532 32.3037 24.0751 33.0908 24.318C33.1734 24.3435 33.2608 24.3705 33.3516 24.3984L35.5151 29.4213C35.6348 29.6992 35.8991 29.8876 36.2009 29.9101C36.2212 29.9116 36.2414 29.9123 36.2615 29.9123C36.541 29.9123 36.8028 29.7682 36.9517 29.5282L38.7284 26.6652L42.0294 27.3413C42.326 27.402 42.6317 27.2928 42.8226 27.0581C43.0137 26.8233 43.0583 26.5018 42.9387 26.2239L40.4797 20.5144C40.5356 20.4907 40.5931 20.4661 40.6521 20.4408C41.9626 19.8796 42.7294 18.5513 42.5602 17.1358C42.5294 16.8785 42.5008 16.6495 42.475 16.4439C42.3724 15.6265 42.321 15.2163 42.3749 14.9104C42.4289 14.6046 42.6176 14.2366 42.9933 13.5037C43.0879 13.3192 43.1932 13.1139 43.3102 12.8826C43.9534 11.6103 43.687 10.1 42.6476 9.1245C42.4586 8.94707 42.2895 8.79015 42.1376 8.64919C41.5337 8.08887 41.2305 7.80774 41.0752 7.5387C40.9199 7.26976 40.8279 6.86666 40.6448 6.06361C40.5987 5.8615 40.5474 5.63644 40.4882 5.38405C40.1631 3.996 38.9882 3.01023 37.5648 2.93112C37.306 2.91669 37.0756 2.90532 36.8686 2.89496C36.0459 2.85403 35.6329 2.83341 35.341 2.72718C35.0491 2.62094 34.7196 2.3713 34.0631 1.87385C33.8978 1.74872 33.7139 1.60938 33.5064 1.45399C32.3651 0.599647 30.8315 0.599647 29.6903 1.45399C29.4828 1.60938 29.2989 1.74872 29.1336 1.87385C28.477 2.3713 28.1475 2.62094 27.8557 2.72718C27.5638 2.83341 27.1509 2.85403 26.3281 2.89496C26.1211 2.90532 25.8905 2.91669 25.6318 2.93112C24.2084 3.01033 23.0336 3.9961 22.7085 5.38405C22.6494 5.63644 22.5981 5.8614 22.5519 6.06351C22.3686 6.86666 22.2767 7.26966 22.1213 7.5387C21.966 7.80764 21.6629 8.08887 21.0591 8.64908C20.9072 8.79005 20.738 8.94707 20.5489 9.1244C19.5095 10.1 19.2432 11.6102 19.8862 12.8825C20.0028 13.1137 20.1082 13.319 20.2027 13.5034ZM26.7788 28.5559L25.5834 26.4988C25.4125 26.2047 25.0766 26.0483 24.741 26.1067L22.3973 26.5162L24.714 21.5401C24.9058 21.7537 25.1198 22.0848 25.4729 22.6317C25.5853 22.8059 25.7106 22.9998 25.8524 23.2168C26.4552 24.1385 27.4522 24.6611 28.5039 24.6611C28.5337 24.6611 28.5637 24.6587 28.5936 24.6579L26.7788 28.5559ZM38.4996 24.9594C38.1663 24.8912 37.8256 25.0378 37.6463 25.327L36.3918 27.3486L35.2147 24.6156C36.0667 24.4726 36.8419 23.9839 37.3435 23.2168C37.4854 22.9999 37.6105 22.8061 37.723 22.6319C38.1698 21.9399 38.3941 21.5925 38.632 21.3928C38.7249 21.3149 38.84 21.2428 38.9906 21.165L40.8304 25.4368L38.4996 24.9594ZM21.6606 10.3091C21.8471 10.1341 22.014 9.97925 22.164 9.84021C23.6062 8.50233 23.6983 8.34267 24.1359 6.42476C24.1814 6.2254 24.232 6.00348 24.2904 5.75445C24.4521 5.06423 25.014 4.59278 25.7218 4.55337C25.9772 4.53915 26.2044 4.52788 26.4087 4.51762C28.3735 4.41982 28.5467 4.35675 30.1147 3.16877C30.2776 3.04527 30.4592 2.90776 30.664 2.7545C30.9477 2.54203 31.2729 2.4359 31.5982 2.4359C31.9234 2.4359 32.2486 2.54203 32.5325 2.7545C32.7373 2.90765 32.9187 3.04517 33.0817 3.16867C34.6497 4.35665 34.8228 4.41962 36.7877 4.51752C36.9919 4.52768 37.2192 4.53895 37.4745 4.55327C38.1824 4.59268 38.7443 5.06413 38.906 5.75435C38.9643 6.00338 39.0149 6.2254 39.0604 6.42476C39.498 8.34257 39.5901 8.50222 41.0324 9.84011C41.1823 9.97915 41.3491 10.134 41.5356 10.309C42.0526 10.7942 42.1799 11.5165 41.86 12.1492C41.7446 12.3774 41.6407 12.5801 41.5475 12.762C40.6499 14.5125 40.6179 14.694 40.8627 16.6459C40.8881 16.8487 40.9164 17.0746 40.9468 17.3285C41.0309 18.0324 40.6642 18.6676 40.0125 18.9467C39.7775 19.0474 39.5676 19.1358 39.3791 19.2152C37.5663 19.9792 37.4252 20.0976 36.358 21.7502C36.2471 21.922 36.1236 22.1132 35.9836 22.3272C35.5956 22.9204 34.9065 23.1713 34.2277 22.9664C33.9829 22.8923 33.7654 22.8253 33.5701 22.765C31.6905 22.185 31.5061 22.1849 29.6261 22.765C29.4308 22.8253 29.2132 22.8923 28.9685 22.9664C28.29 23.1714 27.6005 22.9205 27.2126 22.3272C27.0726 22.1132 26.949 21.9219 26.8381 21.7501C25.771 20.0976 25.6298 19.9791 23.8169 19.2152C23.6285 19.1358 23.4188 19.0475 23.1837 18.9467C22.532 18.6676 22.1652 18.0324 22.2494 17.3284C22.2798 17.0745 22.3081 16.8485 22.3336 16.6457C22.5784 14.6938 22.5464 14.5124 21.6487 12.7618C21.5554 12.5799 21.4515 12.3773 21.3362 12.1491C21.0163 11.5166 21.1437 10.7943 21.6606 10.3091ZM31.5979 20.1867C35.7059 20.1867 39.048 16.8446 39.048 12.7366C39.048 8.62857 35.7059 5.28655 31.5979 5.28655C27.4899 5.28655 24.1479 8.62867 24.1479 12.7366C24.1479 16.8446 27.49 20.1867 31.5979 20.1867ZM31.5979 6.91145C34.8098 6.91145 37.423 9.52455 37.423 12.7365C37.423 15.9484 34.8099 18.5616 31.5979 18.5616C28.3859 18.5616 25.7729 15.9485 25.7729 12.7365C25.7729 9.52445 28.386 6.91145 31.5979 6.91145ZM29.5296 15.6157L27.4386 13.5246C27.1213 13.2073 27.1214 12.6929 27.4386 12.3756C27.756 12.0582 28.2705 12.0583 28.5876 12.3756L30.1313 13.9194L34.6368 9.83046C34.9691 9.52882 35.4829 9.5538 35.7845 9.88611C36.0861 10.2184 36.0612 10.7323 35.7289 11.0339L30.6501 15.6429C30.4949 15.7837 30.2993 15.8537 30.1042 15.8537C29.8958 15.8536 29.6878 15.7739 29.5296 15.6157Z" fill="#BC30FF"/>
</svg>
