<svg width="52" height="52" viewBox="0 0 52 52" fill="none" xmlns="http://www.w3.org/2000/svg">
<path d="M9.50249 5.61346C7.60795 5.61346 6.06663 7.15427 6.06663 9.048C6.06663 10.9417 7.60795 12.4825 9.50249 12.4825C11.3986 12.4825 12.9412 10.9417 12.9412 9.048C12.9412 7.15427 11.3986 5.61346 9.50249 5.61346ZM9.50249 10.4342C8.73742 10.4342 8.11505 9.81236 8.11505 9.048C8.11505 8.28364 8.73742 7.66188 9.50249 7.66188C10.2691 7.66188 10.8929 8.28375 10.8929 9.0481C10.8929 9.81246 10.2691 10.4342 9.50249 10.4342Z" fill="#FFA858"/>
<path d="M39.5448 5.61346H30.4621C28.5676 5.61346 27.0263 7.15427 27.0263 9.048C27.0263 10.9417 28.5676 12.4825 30.4621 12.4825H39.5448C41.4393 12.4825 42.9806 10.9417 42.9806 9.048C42.9806 7.15427 41.4393 5.61346 39.5448 5.61346ZM39.5448 10.4342H30.4621C29.6971 10.4342 29.0747 9.81236 29.0747 9.048C29.0747 8.28364 29.6972 7.66178 30.4621 7.66178H39.5448C40.3099 7.66178 40.9322 8.28364 40.9322 9.048C40.9322 9.81236 40.3099 10.4342 39.5448 10.4342Z" fill="#FFA858"/>
<path d="M18.4067 5.61346C16.5121 5.61346 14.9708 7.15427 14.9708 9.048C14.9708 10.9417 16.5121 12.4825 18.4067 12.4825C20.3028 12.4825 21.8454 10.9417 21.8454 9.048C21.8454 7.15427 20.3028 5.61346 18.4067 5.61346ZM18.4067 10.4342C17.6416 10.4342 17.0192 9.81236 17.0192 9.048C17.0192 8.28364 17.6417 7.66178 18.4067 7.66178C19.1733 7.66178 19.7971 8.28364 19.7971 9.048C19.7971 9.81236 19.1733 10.4342 18.4067 10.4342Z" fill="#FFA858"/>
<path d="M16.7367 22.592C16.1867 22.4602 15.6339 22.7998 15.5025 23.35L13.4706 31.8526C13.3392 32.4028 13.6785 32.9554 14.2287 33.0868C14.3087 33.1059 14.3889 33.1152 14.4677 33.1152C14.9307 33.1152 15.3506 32.7989 15.4629 32.3288L17.4948 23.8262C17.6263 23.276 17.2869 22.7235 16.7367 22.592Z" fill="#FFA858"/>
<path d="M20.4968 32.0875C20.692 32.2614 20.9354 32.3469 21.1777 32.3469C21.4597 32.3469 21.7406 32.2312 21.943 32.004L24.815 28.78C25.2889 28.2524 25.2889 27.4263 24.8179 26.9022L21.9429 23.6748C21.5665 23.2523 20.919 23.2151 20.4968 23.5912C20.0743 23.9675 20.037 24.615 20.4133 25.0373L22.9094 27.8393L20.4133 30.6414C20.0371 31.0639 20.0744 31.7114 20.4968 32.0875Z" fill="#FFA858"/>
<path d="M10.4687 23.5913C10.0462 23.215 9.3989 23.2527 9.02261 23.6749L6.15093 26.8986C5.67643 27.4262 5.67643 28.2527 6.14768 28.7767L9.02271 32.0041C9.22512 32.2314 9.50584 32.347 9.78798 32.347C10.0303 32.347 10.2738 32.2615 10.4689 32.0876C10.8914 31.7114 10.9287 31.0639 10.5524 30.6416L8.05634 27.8396L10.5524 25.0375C10.9285 24.615 10.8912 23.9675 10.4687 23.5913Z" fill="#FFA858"/>
<path d="M49.7038 34.4837H49.3235C49.1244 33.8386 48.8663 33.2158 48.5514 32.6206L48.8228 32.3483C49.2562 31.9176 49.4954 31.3425 49.4963 30.7288C49.4972 30.1138 49.2588 29.5363 48.825 29.1025L48.2962 28.5741V6.75846C48.2962 3.70356 46.1405 1.21832 43.4905 1.21832H4.80573C2.15577 1.21832 0 3.70356 0 6.75846V35.3842C0 38.439 2.15577 40.9243 4.80573 40.9243H10.8148C11.3804 40.9243 11.8389 40.4657 11.8389 39.9001C11.8389 39.3345 11.3804 38.876 10.8148 38.876H4.80573C3.31114 38.876 2.04841 37.2769 2.04841 35.3843V16.803H46.2477V27.1527C46.131 27.1347 46.0128 27.123 45.8924 27.123C45.8912 27.123 45.89 27.123 45.8889 27.123C45.2752 27.124 44.7001 27.3628 44.2727 27.7926L43.9959 28.0682C43.3882 27.7472 42.7554 27.486 42.1028 27.2867V26.9219C42.1028 25.656 41.0728 24.6262 39.8066 24.6262H37.9532C36.6886 24.6262 35.6599 25.656 35.6599 26.9219V27.3117C35.0197 27.5129 34.4015 27.7717 33.8106 28.0862L33.5453 27.8217C33.1145 27.3887 32.5392 27.1497 31.9256 27.1488C31.9244 27.1488 31.9233 27.1488 31.9221 27.1488C31.3084 27.1488 30.7321 27.3869 30.2991 27.8196L28.9897 29.1284C28.5558 29.5621 28.3175 30.1397 28.3184 30.7546C28.3193 31.3683 28.5584 31.9434 28.9885 32.3708L29.2713 32.6545C28.9643 33.2405 28.7121 33.8518 28.517 34.4835H28.128C26.8634 34.4835 25.8347 35.5119 25.8347 36.7762V38.6314C25.8347 38.7139 25.8392 38.7953 25.8478 38.8756H19.8886C19.323 38.8756 18.8644 39.3341 18.8644 39.8997C18.8644 40.4653 19.323 40.9239 19.8886 40.9239H28.1279H28.5209C28.7189 41.5616 28.975 42.1778 29.2873 42.7676L29.0105 43.0432C28.1195 43.939 28.1203 45.3932 29.0126 46.2849L30.3228 47.5945C30.7536 48.0275 31.3289 48.2665 31.9425 48.2675H31.9459C32.5597 48.2675 33.136 48.0293 33.5689 47.5965L33.8433 47.3224C34.4384 47.6361 35.0572 47.8925 35.6942 48.0894V48.4858C35.6942 49.7517 36.723 50.7814 37.9876 50.7814H39.8439C41.1084 50.7814 42.1372 49.7517 42.1372 48.4858V48.0919C42.7802 47.8935 43.4015 47.6361 43.996 47.3223L44.2691 47.5944C44.6998 48.0275 45.2749 48.2664 45.8886 48.2675H45.8921C46.5059 48.2675 47.0821 48.0293 47.5159 47.5958L48.8225 46.287C49.2559 45.8563 49.4951 45.2811 49.496 44.6675C49.4969 44.0524 49.2585 43.4749 48.8245 43.0412L48.5512 42.7679C48.8629 42.1776 49.1188 41.561 49.3165 40.924H49.7036C50.9697 40.924 51.9998 39.8956 51.9998 38.6314V36.7762C52 35.5121 50.97 34.4837 49.7038 34.4837ZM2.04841 14.7546V6.75846C2.04841 4.86584 3.31114 3.26674 4.80573 3.26674H43.4905C44.9851 3.26674 46.2478 4.86584 46.2478 6.75846V14.7547L2.04841 14.7546ZM49.9516 38.6316C49.9516 38.7617 49.8358 38.8758 49.7037 38.8758H48.5325C48.0549 38.8758 47.6407 39.2057 47.5341 39.6712C47.3129 40.6366 46.9329 41.552 46.4047 42.3925C46.1503 42.7972 46.2097 43.3241 46.5479 43.662L47.3767 44.4902C47.4386 44.5522 47.4478 44.6261 47.4478 44.6647C47.4477 44.7108 47.4357 44.7778 47.3759 44.8371L46.0673 46.1479C46.0053 46.2099 45.9312 46.2192 45.8922 46.2192C45.8921 46.2192 45.892 46.2192 45.892 46.2192C45.8455 46.2192 45.7784 46.2072 45.7184 46.1467L44.8866 45.3184C44.5483 44.9815 44.0224 44.9231 43.6185 45.177C42.7768 45.7065 41.8575 46.087 40.8858 46.3081C40.4197 46.4143 40.089 46.8287 40.089 47.3069V48.4861C40.089 48.6177 39.9745 48.7333 39.8441 48.7333H37.9878C37.8573 48.7333 37.7429 48.6178 37.7429 48.4861V47.3039C37.7429 46.8254 37.4114 46.4105 36.9446 46.305C35.9853 46.088 35.0676 45.7081 34.2171 45.1759C34.0495 45.071 33.8612 45.0198 33.6741 45.0198C33.4095 45.0198 33.1473 45.1221 32.9497 45.3197L32.1211 46.1479C32.059 46.2099 31.985 46.2192 31.946 46.2192C31.9459 46.2192 31.9458 46.2192 31.9457 46.2192C31.8993 46.2192 31.832 46.2072 31.7732 46.148L30.4609 44.8364C30.369 44.7446 30.37 44.5819 30.4597 44.4917L31.2914 43.6633C31.6312 43.3249 31.6906 42.7962 31.4346 42.3907C30.9056 41.5531 30.5251 40.6382 30.3037 39.6715C30.1971 39.2061 29.7829 38.876 29.3053 38.876H28.1281C27.9954 38.876 27.8832 38.7642 27.8832 38.6318V36.7766C27.8832 36.6442 27.9954 36.5323 28.1281 36.5323H29.3023C29.7804 36.5323 30.1949 36.2015 30.3011 35.7355C30.5196 34.775 30.8952 33.8639 31.4173 33.0272C31.6694 32.6233 31.6099 32.0989 31.2736 31.7617L30.4357 30.9214C30.3789 30.8649 30.3669 30.798 30.3668 30.7519C30.3668 30.7133 30.3759 30.6394 30.4379 30.5775L31.7472 29.2688C31.8093 29.2068 31.8833 29.1975 31.9223 29.1975H31.9226C31.969 29.1976 32.0363 29.2096 32.0963 29.27L32.9222 30.0926C33.2615 30.4305 33.7893 30.4884 34.1934 30.2321C35.0302 29.7015 35.9468 29.3172 36.9176 29.09C37.3807 28.9816 37.7082 28.5685 37.7082 28.0928V26.9222C37.7082 26.7882 37.8204 26.675 37.9531 26.675H39.8065C39.9409 26.675 40.0544 26.7882 40.0544 26.9222V28.0755C40.0544 28.5554 40.3875 28.9709 40.8561 29.0752C41.8305 29.2922 42.7603 29.6755 43.6194 30.2145C44.0231 30.4676 44.5485 30.4091 44.8865 30.0725L45.7216 29.2407C45.7783 29.1838 45.8454 29.1718 45.8918 29.1717H45.8921C45.9311 29.1717 46.0052 29.181 46.0671 29.243L47.3766 30.5516C47.4385 30.6136 47.4477 30.6875 47.4477 30.7261C47.4476 30.7722 47.4356 30.8391 47.3754 30.8989L46.5465 31.7302C46.209 32.0687 46.1505 32.5956 46.4055 32.9999C46.9358 33.8405 47.3173 34.7611 47.5395 35.7359C47.6457 36.2018 48.0601 36.5324 48.5381 36.5324H49.7037C49.8357 36.5324 49.9516 36.6467 49.9516 36.7767V38.6316Z" fill="#FFA858"/>
<path d="M38.9174 31.449C35.4661 31.449 32.6583 34.2556 32.6583 37.7054C32.6583 41.1535 35.4661 43.9589 38.9174 43.9589C42.3672 43.9589 45.1737 41.1536 45.1737 37.7054C45.1737 34.2557 42.3672 31.449 38.9174 31.449ZM38.9174 41.9105C36.5957 41.9105 34.7068 40.0241 34.7068 37.7054C34.7068 35.3851 36.5957 33.4975 38.9174 33.4975C41.2376 33.4975 43.1253 35.3851 43.1253 37.7054C43.1253 40.0241 41.2375 41.9105 38.9174 41.9105Z" fill="#FFA858"/>
<path d="M15.382 38.8759H15.3619C14.7963 38.8759 14.3378 39.3344 14.3378 39.9C14.3378 40.4656 14.7963 40.9242 15.3619 40.9242H15.382C15.9476 40.9242 16.4062 40.4656 16.4062 39.9C16.4062 39.3344 15.9476 38.8759 15.382 38.8759Z" fill="#FFA858"/>
</svg>
