<svg width="52" height="52" viewBox="0 0 52 52" fill="none" xmlns="http://www.w3.org/2000/svg">
<g clip-path="url(#clip0_683_103)">
<path fill-rule="evenodd" clip-rule="evenodd" d="M39.8758 31.9555C39.6321 31.9555 39.3884 31.8641 39.2361 31.6204L37.4083 29.0615L35.4892 31.6508C34.8799 32.4733 33.6309 31.529 34.2402 30.7065L36.464 27.7211L34.3011 24.7053C33.6919 23.8828 34.9713 22.9385 35.5806 23.7914L37.4388 26.4112L39.3275 23.8828C39.9367 23.0603 41.1857 24.0047 40.5765 24.8272L38.4136 27.7516L40.5155 30.7065C40.8811 31.2244 40.4851 31.9555 39.8758 31.9555ZM41.0639 13.4646H10.9057C9.90041 13.4646 9.90041 11.9109 10.9057 11.9109H41.0639C42.0996 11.9109 42.0996 13.4646 41.0639 13.4646ZM41.0639 17.8817H10.9057C9.90041 17.8817 9.90041 16.2976 10.9057 16.2976H41.0639C42.0996 16.2976 42.0996 17.8817 41.0639 17.8817ZM46.7604 39.7235V12.0023C46.7604 7.73754 44.2929 4.29525 41.2771 4.29525H10.7229C7.67663 4.29525 5.2396 7.73754 5.2396 12.0023V39.7235H21.3849H21.4153H21.4458H21.4763H21.5067H21.5372L21.5677 39.7539H21.5981H21.6286L21.659 39.7844H21.6895H21.72V39.8149H21.7504L21.7809 39.8453H21.8114L21.8418 39.8758L21.8723 39.9063H21.9028V39.9367H21.9332C21.9332 39.9672 22.1465 40.2718 22.1465 40.5155V42.8612H29.8231V40.5155C29.8231 39.9367 30.1277 39.9063 30.4628 39.7235H30.5847H30.6151H30.6456H46.7604ZM3.65554 39.7235V12.0023C3.65554 6.88459 6.82367 2.71118 10.7229 2.71118H41.2771C45.1763 2.71118 48.3445 6.88459 48.3445 12.0023V39.7235H51.208C51.6344 39.7235 52 40.0586 52 40.5155C52 45.3286 48.0703 49.2583 43.2267 49.2583H8.77329C3.9297 49.2583 0 45.3286 0 40.5155C0 40.0586 0.365554 39.7235 0.792033 39.7235H3.65554ZM20.5929 41.2771H1.61453C2.01054 44.8717 5.05682 47.7047 8.77329 47.7047H43.2267C46.9127 47.7047 49.9895 44.8717 50.3855 41.2771H31.4071V43.6532C31.4071 44.0797 31.0416 44.4452 30.6151 44.4452H21.3544C20.9279 44.4452 20.5929 44.1101 20.5929 43.6532V41.2771ZM21.9637 33.6614C21.4458 33.6614 21.0498 33.174 21.2021 32.6561L24.0961 21.8114C24.3702 20.8365 25.8934 21.263 25.6192 22.2378L22.7252 33.0826C22.6339 33.4177 22.2988 33.6614 21.9637 33.6614ZM29.7012 31.9859C27.9648 31.9859 26.6549 30.8588 26.7463 29.0615V24.2179C26.7463 23.2126 28.2999 23.2126 28.2999 24.2179C28.2999 25.1927 28.3609 28.4827 28.2999 29.1834C28.1476 30.8283 31.2244 30.8283 31.0721 29.1834C31.0111 28.5132 31.0721 25.1623 31.0721 24.2179C31.0721 23.2126 32.6561 23.2126 32.6561 24.2179V29.0615C32.717 30.8588 31.4071 31.9859 29.7012 31.9859ZM14.2261 31.4681C12.4897 31.4681 11.1798 30.3409 11.2712 28.5436V23.7001C11.2712 22.6948 12.8248 22.6948 12.8248 23.7001C12.8248 24.7053 12.8858 27.9039 12.8248 28.6655C12.703 30.3105 15.7493 30.3105 15.597 28.6655C15.536 27.9039 15.597 24.7053 15.597 23.7001C15.597 22.6948 17.181 22.6948 17.181 23.7001V28.5436C17.2419 30.3409 15.932 31.4681 14.2261 31.4681ZM19.4962 31.4376C19.0697 31.4376 18.7042 31.1025 18.7042 30.6456V23.7305C18.7042 22.6948 20.2882 22.6948 20.2882 23.7305V30.6456C20.2882 31.1025 19.9227 31.4376 19.4962 31.4376Z" fill="#5227FF"/>
</g>
<defs>
<clipPath id="clip0_683_103">
<rect width="52" height="52" fill="white"/>
</clipPath>
</defs>
</svg>
