<svg width="64" height="64" viewBox="0 0 64 64" fill="none" xmlns="http://www.w3.org/2000/svg">
<path d="M61.28 43.4993L58.4283 43.1699C58.2024 42.4641 57.9106 41.777 57.553 41.1088L59.2283 38.7558C59.4918 38.3794 59.4447 37.8711 59.1247 37.5417L55.9342 34.3511C55.5953 34.0123 55.0589 33.9841 54.6824 34.2852L52.433 36.0735C51.7742 35.7346 51.0777 35.4523 50.3624 35.2358L49.8824 32.384C49.8071 31.9229 49.4118 31.5935 48.9506 31.5935H45.4306C45.2141 27.0758 43.3977 22.9723 40.5459 19.8194C40.5452 19.8186 40.5444 19.8179 40.5436 19.8171L43.2261 17.1347C43.2268 17.1355 43.2276 17.1362 43.2283 17.137C46.4189 20.5911 48.5554 25.0523 49.0918 30.0594C49.1483 30.577 49.6188 30.9535 50.1271 30.897C50.6447 30.8405 51.0212 30.37 50.9648 29.8617C50.3718 24.4123 48.0471 19.5558 44.5647 15.8005C44.564 15.7998 44.5632 15.799 44.5625 15.7983L45.4262 14.9346H45.4306L50.6259 14.9158C50.88 14.9158 51.1153 14.8123 51.2942 14.6429L56.8659 9.07113C57.1106 8.82641 57.2048 8.45934 57.1012 8.12053C56.9977 7.79116 56.7153 7.54644 56.3671 7.48055L52.3012 6.7182L51.5483 2.6523C51.4918 2.30407 51.2377 2.0311 50.9083 1.92758C50.5694 1.82406 50.2118 1.90879 49.9577 2.15345L44.3765 7.73462C44.2071 7.91344 44.1035 8.14874 44.1035 8.40287L44.0941 13.5982V13.6049L43.2316 14.4674C43.2304 14.4663 43.2294 14.4651 43.2283 14.4641C38.8236 10.3794 32.9224 7.92287 26.4942 7.92287C12.9224 7.92287 1.88239 18.9629 1.88239 32.5347C1.88239 46.1064 12.9224 57.1464 26.4942 57.1464C29.233 57.1464 31.8965 56.6946 34.3906 55.8382C34.4283 55.9606 34.5035 56.0641 34.5977 56.1676L37.7883 59.3582C38.1271 59.697 38.6636 59.7253 39.04 59.4335L41.2989 57.6358C41.9577 57.9746 42.6447 58.257 43.36 58.4735L43.84 61.3346C43.9153 61.7864 44.3106 62.1158 44.7718 62.1158H49.2894C49.7695 62.1158 50.1741 61.7582 50.2212 61.2782L50.5506 58.417C51.2659 58.1911 51.953 57.8994 52.6024 57.5417L54.9648 59.2264C55.3412 59.49 55.8588 59.4429 56.1789 59.1229L59.36 55.9323C59.6989 55.5935 59.7271 55.057 59.4354 54.6805L57.6471 52.4311C57.9953 51.7629 58.2682 51.0664 58.4847 50.3511L61.3365 49.8711C61.7883 49.7958 62.1177 49.4005 62.1177 48.9394V44.4311C62.1177 43.9511 61.76 43.5464 61.28 43.4993ZM45.9859 8.79816L50.0236 4.75112L50.5694 7.697C50.6353 8.08291 50.9365 8.38404 51.3224 8.44993L54.2682 9.00525L50.24 13.0335L45.9765 13.0523L45.9859 8.79816ZM39.2188 21.1464C41.8448 24.0923 43.4824 27.9417 43.5671 32.177C43.5294 32.2523 43.5106 32.337 43.5012 32.4311L43.1718 35.3017C42.4565 35.5276 41.7694 35.8194 41.12 36.1676L39.5671 35.0664C39.7271 34.2382 39.8118 33.3911 39.8118 32.5347C39.8118 29.2029 38.5788 26.1535 36.5459 23.8194C36.5452 23.8185 36.5444 23.8178 36.5437 23.8169L39.2165 21.1441C39.2173 21.1449 39.2181 21.1456 39.2188 21.1464ZM3.76474 32.5347C3.76474 19.9982 13.9577 9.80524 26.4942 9.80524C32.4142 9.80524 37.8353 12.0547 41.8918 15.8005C41.893 15.8016 41.8941 15.8027 41.8953 15.8038L39.2127 18.4862C39.2115 18.4852 39.2106 18.484 39.2094 18.4829C35.84 15.4335 31.3789 13.57 26.4942 13.57C16.0377 13.5699 7.52944 22.0782 7.52944 32.5347C7.52944 42.9911 16.0377 51.4993 26.4942 51.4993C27.0118 51.4993 27.4353 51.0759 27.4353 50.5582C27.4353 50.0405 27.0118 49.617 26.4942 49.617C17.073 49.617 9.4118 41.9559 9.4118 32.5347C9.4118 23.1135 17.073 15.4523 26.4942 15.4523C30.8706 15.4523 34.8612 17.1088 37.8824 19.8099C37.8835 19.811 37.8845 19.8122 37.8857 19.8132L35.2128 22.486C35.2117 22.485 35.2106 22.4839 35.2094 22.4829C32.8753 20.4499 29.8259 19.217 26.4942 19.217C19.153 19.217 13.1765 25.1935 13.1765 32.5347C13.1765 39.8758 19.153 45.8523 26.4942 45.8523C27.7271 45.8523 28.9506 45.6829 30.1271 45.3535C30.6259 45.2123 30.9177 44.6852 30.7765 44.1864C30.6353 43.6876 30.1177 43.3958 29.6095 43.537C28.6024 43.8288 27.5577 43.9699 26.4942 43.9699C20.1883 43.9699 15.0589 38.8406 15.0589 32.5347C15.0589 26.2288 20.1883 21.0994 26.4942 21.0994C29.3083 21.0994 31.8871 22.1158 33.8824 23.8099C33.8835 23.8109 33.8846 23.8121 33.8858 23.813L31.2034 26.4953C31.2022 26.4944 31.2013 26.4932 31.2001 26.4923C29.9012 25.4758 28.2729 24.8641 26.4942 24.8641C22.2682 24.864 18.8236 28.3088 18.8236 32.5347C18.8236 36.7605 22.2682 40.2052 26.4942 40.2052C30.72 40.2052 34.1647 36.7605 34.1647 32.5347C34.1647 30.7558 33.553 29.1276 32.5365 27.8288C32.5358 27.8279 32.535 27.8272 32.5343 27.8263L35.2166 25.144C35.2173 25.1449 35.2182 25.1455 35.2188 25.1464C36.9129 27.1417 37.9294 29.7206 37.9294 32.5347C37.9294 33.1652 37.873 33.7958 37.7694 34.417C37.6847 34.4641 37.6095 34.5205 37.5436 34.5864L34.3624 37.777C34.0236 38.1158 33.9953 38.6523 34.2965 39.0287L36.0848 41.2876C35.7365 41.9464 35.4541 42.6429 35.2377 43.3582L32.3953 43.8382C31.9341 43.9135 31.6047 44.3088 31.6047 44.77V49.2782C31.6047 49.7582 31.9624 50.1629 32.4423 50.2099L35.2942 50.5394C35.52 51.264 35.8118 51.9511 36.1694 52.61L35.6518 53.3346C32.8283 54.577 29.7224 55.264 26.4942 55.264C13.9577 55.264 3.76474 45.0711 3.76474 32.5347ZM31.2001 29.1652C31.8777 30.1158 32.2824 31.2829 32.2824 32.5347C32.2824 35.7253 29.6847 38.3229 26.4942 38.3229C23.3036 38.3229 20.7059 35.7253 20.7059 32.5347C20.7059 29.3441 23.3036 26.7464 26.4942 26.7464C27.7459 26.7464 28.9129 27.1511 29.8635 27.8288C29.8647 27.8297 29.8658 27.8308 29.867 27.8317L25.8282 31.8704C25.4605 32.2381 25.4605 32.8337 25.8282 33.2013C26.1958 33.5689 26.7914 33.569 27.159 33.2013L31.1978 29.1626C31.1985 29.1636 31.1994 29.1643 31.2001 29.1652ZM60.2353 48.1488L57.5718 48.5911C57.1953 48.657 56.9036 48.9394 56.8094 49.3064C56.5836 50.257 56.2165 51.1888 55.7083 52.0546C55.5106 52.384 55.5389 52.8076 55.7836 53.1088L57.4401 55.1982L55.4071 57.2311L53.2048 55.6594C52.8942 55.4429 52.48 55.4241 52.16 55.6311C51.3318 56.1394 50.4189 56.5252 49.4588 56.7605C49.073 56.8641 48.7906 57.1841 48.7435 57.5699L48.4518 60.2335H45.5624L45.12 57.5605C45.0541 57.1935 44.7718 56.8923 44.4047 56.7982C43.4541 56.5723 42.5318 56.1959 41.6847 55.697C41.3459 55.4993 40.9224 55.5276 40.6212 55.7723L38.5318 57.4288L36.4895 55.3958C36.5571 55.3013 38.1535 53.0702 38.0518 53.2123C38.2583 52.9198 38.2822 52.4889 38.0894 52.1676C38.0258 52.0396 37.3454 51.0448 36.9318 49.4382C36.8406 49.0936 36.5627 48.8038 36.1318 48.7323C36.0376 48.7219 33.3134 48.4213 33.4871 48.4405V45.5605L36.1506 45.1182C36.5271 45.0523 36.8188 44.77 36.9129 44.4029C37.1389 43.4335 37.5153 42.5205 38.0236 41.6735C38.2212 41.3441 38.193 40.9111 37.9483 40.61L36.2918 38.5111C36.3862 38.4163 38.446 36.3469 38.3153 36.4782C38.4099 36.5457 40.6613 38.1525 40.5177 38.0499C40.8283 38.2664 41.233 38.2852 41.553 38.0876C42.4746 37.5347 43.4287 37.1504 44.273 36.9394C44.6589 36.8453 44.9318 36.5252 44.9788 36.1394L45.2706 33.4758H45.4306H48.16L48.6118 36.1488C48.6683 36.5252 48.9506 36.817 49.3177 36.9111C50.2777 37.137 51.2001 37.5135 52.0471 38.0123C52.3859 38.2099 52.8094 38.1817 53.12 37.937L55.2 36.2805L57.233 38.3135L55.6706 40.5064C55.5577 40.6664 55.5012 40.8735 55.5012 41.0617C55.5012 41.2406 55.5483 41.41 55.633 41.5512C56.16 42.4076 56.5365 43.3206 56.7812 44.2711C56.8753 44.6476 57.1953 44.9299 57.5812 44.977L60.2353 45.2687V48.1488Z" fill="#C33DAB"/>
</svg>
