<svg width="52" height="52" viewBox="0 0 52 52" fill="none" xmlns="http://www.w3.org/2000/svg">
<path d="M24.0541 40.9785H27.946C28.1076 40.9785 28.2626 40.9143 28.3768 40.8C28.4911 40.6857 28.5553 40.5307 28.5553 40.3691C28.5553 40.2075 28.4911 40.0525 28.3768 39.9382C28.2626 39.8239 28.1076 39.7597 27.946 39.7597H24.0541C23.8925 39.7597 23.7375 39.8239 23.6232 39.9382C23.5089 40.0525 23.4447 40.2075 23.4447 40.3691C23.4447 40.5307 23.5089 40.6857 23.6232 40.8C23.7375 40.9143 23.8925 40.9785 24.0541 40.9785Z" fill="#D63384"/>
<path d="M28.4741 30.5256H27.8037C27.6421 30.5256 27.4871 30.5898 27.3728 30.7041C27.2586 30.8184 27.1944 30.9734 27.1944 31.135C27.1944 31.2966 27.2586 31.4516 27.3728 31.5659C27.4871 31.6802 27.6421 31.7444 27.8037 31.7444H28.4741C28.6357 31.7444 28.7907 31.6802 28.9049 31.5659C29.0192 31.4516 29.0834 31.2966 29.0834 31.135C29.0834 30.9734 29.0192 30.8184 28.9049 30.7041C28.7907 30.5898 28.6357 30.5256 28.4741 30.5256Z" fill="#D63384"/>
<path d="M26.0203 30.5256H23.5259C23.3643 30.5256 23.2093 30.5898 23.095 30.7041C22.9808 30.8184 22.9166 30.9734 22.9166 31.135C22.9166 31.2966 22.9808 31.4516 23.095 31.5659C23.2093 31.6802 23.3643 31.7444 23.5259 31.7444H26.0203C26.1819 31.7444 26.3369 31.6802 26.4512 31.5659C26.5655 31.4516 26.6297 31.2966 26.6297 31.135C26.6297 30.9734 26.5655 30.8184 26.4512 30.7041C26.3369 30.5898 26.1819 30.5256 26.0203 30.5256Z" fill="#D63384"/>
<path d="M49.6438 24.2166V15.6284C49.6427 14.8649 49.3389 14.1329 48.799 13.5929C48.259 13.053 47.527 12.7492 46.7635 12.7481H41.2872C41.6187 11.8746 41.7894 10.9483 41.791 10.0141C41.8145 8.99384 41.6338 7.97922 41.2596 7.02981C40.8855 6.08041 40.3253 5.21536 39.6121 4.48551C38.8988 3.75566 38.0469 3.17572 37.1064 2.77978C36.1658 2.38384 35.1557 2.17987 34.1352 2.17987C33.1147 2.17987 32.1045 2.38384 31.164 2.77978C30.2234 3.17572 29.3715 3.75566 28.6583 4.48551C27.945 5.21536 27.3849 6.08041 27.0107 7.02981C26.6365 7.97922 26.4559 8.99384 26.4794 10.0141C26.481 10.9483 26.6516 11.8746 26.9831 12.7481H25.0534C25.3849 11.8746 25.5556 10.9483 25.5572 10.0141C25.5807 8.99384 25.4001 7.97922 25.0259 7.02981C24.6517 6.08041 24.0915 5.21536 23.3783 4.48551C22.6651 3.75566 21.8132 3.17572 20.8726 2.77978C19.9321 2.38384 18.9219 2.17987 17.9014 2.17987C16.8809 2.17987 15.8707 2.38384 14.9302 2.77978C13.9897 3.17572 13.1378 3.75566 12.4245 4.48551C11.7113 5.21536 11.1511 6.08041 10.777 7.02981C10.4028 7.97922 10.2221 8.99384 10.2456 10.0141C10.2472 10.9483 10.4179 11.8746 10.7494 12.7481H5.23657C4.473 12.7492 3.741 13.053 3.20107 13.5929C2.66114 14.1329 2.35734 14.8649 2.35626 15.6284C2.35626 27.5803 2.35626 12.2687 2.35626 41.0597C2.35734 41.8233 2.66114 42.5552 3.20107 43.0952C3.741 43.6351 4.473 43.9389 5.23657 43.94H20.0444V48.6119H16.7578C16.5962 48.6119 16.4412 48.6761 16.3269 48.7903C16.2127 48.9046 16.1484 49.0596 16.1484 49.2212C16.1484 49.3829 16.2127 49.5379 16.3269 49.6521C16.4412 49.7664 16.5962 49.8306 16.7578 49.8306H35.291C35.4526 49.8306 35.6076 49.7664 35.7218 49.6521C35.8361 49.5379 35.9003 49.3829 35.9003 49.2212C35.9003 49.0596 35.8361 48.9046 35.7218 48.7903C35.6076 48.6761 35.4526 48.6119 35.291 48.6119H32.0044V43.94H46.7635C47.527 43.9389 48.259 43.6351 48.799 43.0952C49.3389 42.5552 49.6427 41.8233 49.6438 41.0597V24.9194C49.6438 24.8016 49.6438 24.6878 49.6438 24.57C49.6438 24.4522 49.6478 24.3344 49.6438 24.2166ZM34.125 3.57499C35.4002 3.57177 36.6477 3.94702 37.7095 4.65322C38.7712 5.35943 39.5996 6.36482 40.0896 7.54209C40.5797 8.71937 40.7094 10.0156 40.4623 11.2666C40.2152 12.5176 39.6024 13.6672 38.7015 14.5698C37.8007 15.4723 36.6523 16.0872 35.4017 16.3367C34.1512 16.5862 32.8547 16.459 31.6765 15.9712C30.4983 15.4834 29.4914 14.6569 28.7832 13.5964C28.0749 12.536 27.6973 11.2892 27.6981 10.0141C27.7003 8.30907 28.3777 6.67436 29.5822 5.46761C30.7866 4.26087 32.42 3.58036 34.125 3.57499ZM27.5803 13.9669C28.2834 15.1237 29.2799 16.0739 30.4688 16.7212L26 22.3437L21.5313 16.7497C22.7303 16.1031 23.7335 15.1462 24.436 13.9791L27.5803 13.9669ZM26 33.0728H21.2631V26.4062H30.7369V33.0728H28.4741C28.3354 33.0739 28.2011 33.1211 28.0922 33.2069L26.6094 34.4256V33.6822C26.6094 33.5206 26.5452 33.3656 26.4309 33.2513C26.3166 33.137 26.1616 33.0728 26 33.0728ZM17.9035 3.57499C19.1781 3.57419 20.4244 3.95149 21.4846 4.65916C22.5448 5.36683 23.3712 6.37307 23.8594 7.55056C24.3476 8.72805 24.4755 10.0239 24.227 11.2741C23.9786 12.5243 23.3648 13.6728 22.4635 14.5741C21.5622 15.4754 20.4137 16.0892 19.1635 16.3376C17.9133 16.5861 16.6175 16.4582 15.44 15.97C14.2625 15.4818 13.2562 14.6554 12.5486 13.5952C11.8409 12.535 11.4636 11.2887 11.4644 10.0141C11.4665 8.30697 12.1456 6.67041 13.3527 5.46332C14.5598 4.25623 16.1964 3.57714 17.9035 3.57499ZM3.57501 15.6284C3.57501 15.1878 3.75007 14.7651 4.06167 14.4535C4.37328 14.1419 4.7959 13.9669 5.23657 13.9669H11.3303C12.2365 15.4673 13.6298 16.6116 15.2777 17.2089C16.9256 17.8063 18.7285 17.8206 20.3856 17.2494L24.7366 22.7012H17.4241C17.0593 21.2611 16.2826 19.9586 15.189 18.953C14.0955 17.9474 12.7326 17.2823 11.267 17.0392C9.80144 16.7961 8.29677 16.9855 6.93713 17.5841C5.57749 18.1828 4.42184 19.1648 3.61157 20.41L3.57501 15.6284ZM3.57501 24.2166C3.66655 22.5417 4.408 20.9688 5.64159 19.8323C6.87519 18.6958 8.50356 18.0855 10.1802 18.1313C11.8569 18.1771 13.4496 18.8753 14.6193 20.0774C15.789 21.2795 16.4435 22.8906 16.4435 24.568C16.4435 26.2453 15.789 27.8564 14.6193 29.0585C13.4496 30.2606 11.8569 30.9588 10.1802 31.0046C8.50356 31.0504 6.87519 30.4401 5.64159 29.3036C4.408 28.1672 3.66655 26.5942 3.57501 24.9194V24.2166ZM30.7938 48.6119H21.2631V43.94H30.7856L30.7938 48.6119ZM48.4331 41.0597C48.4331 41.5004 48.2581 41.923 47.9465 42.2346C47.6349 42.5462 47.2122 42.7212 46.7716 42.7212H5.23657C4.7959 42.7212 4.37328 42.5462 4.06167 42.2346C3.75007 41.923 3.57501 41.5004 3.57501 41.0597V37.8544H48.425L48.4331 41.0597ZM48.4331 36.6356H3.57501V28.7259C4.47174 30.112 5.79283 31.1709 7.34095 31.7443C8.88908 32.3176 10.5812 32.3748 12.1644 31.9072C13.7477 31.4396 15.1373 30.4724 16.1255 29.15C17.1138 27.8275 17.6477 26.2209 17.6475 24.57C17.6475 24.3506 17.6475 24.1312 17.615 23.92H25.3947V25.1956H20.6538C20.4921 25.1956 20.3371 25.2598 20.2229 25.3741C20.1086 25.4884 20.0444 25.6434 20.0444 25.805V33.6822C20.0444 33.8438 20.1086 33.9988 20.2229 34.1131C20.3371 34.2273 20.4921 34.2916 20.6538 34.2916H25.3906V34.9944C25.3891 35.174 25.4387 35.3504 25.5336 35.5029C25.6286 35.6554 25.765 35.7777 25.9269 35.8556C26.082 35.9321 26.2558 35.9628 26.4277 35.9441C26.5997 35.9254 26.7628 35.8581 26.8978 35.75L28.6894 34.3037H31.3463C31.5079 34.3037 31.6629 34.2395 31.7772 34.1253C31.8914 34.011 31.9556 33.856 31.9556 33.6944V25.805C31.9556 25.6434 31.8914 25.4884 31.7772 25.3741C31.6629 25.2598 31.5079 25.1956 31.3463 25.1956H26.6297V23.92H34.385C34.385 24.1312 34.3525 24.3506 34.3525 24.57C34.3523 26.2209 34.8862 27.8275 35.8745 29.15C36.8627 30.4724 38.2523 31.4396 39.8356 31.9072C41.4189 32.3748 43.1109 32.3176 44.6591 31.7443C46.2072 31.1709 47.5283 30.112 48.425 28.7259L48.4331 36.6356ZM48.4331 24.9194C48.3416 26.5942 47.6002 28.1672 46.3666 29.3036C45.133 30.4401 43.5046 31.0504 41.8279 31.0046C40.1512 30.9588 38.5586 30.2606 37.3888 29.0585C36.2191 27.8564 35.5646 26.2453 35.5646 24.568C35.5646 22.8906 36.2191 21.2795 37.3888 20.0774C38.5586 18.8753 40.1512 18.1771 41.8279 18.1313C43.5046 18.0855 45.133 18.6958 46.3666 19.8323C47.6002 20.9688 48.3416 22.5417 48.4331 24.2166V24.9194ZM48.4331 20.41C47.6229 19.1648 46.4672 18.1828 45.1076 17.5841C43.7479 16.9855 42.2433 16.7961 40.7777 17.0392C39.3121 17.2823 37.9492 17.9474 36.8557 18.953C35.7621 19.9586 34.9855 21.2611 34.6206 22.7012H27.3081L31.6063 17.2372C33.2634 17.8202 35.0707 17.8154 36.7247 17.2236C38.3787 16.6318 39.7788 15.4891 40.69 13.9872H46.7838C47.2244 13.9872 47.6471 14.1622 47.9587 14.4738C48.2703 14.7854 48.4453 15.2081 48.4453 15.6487L48.4331 20.41Z" fill="#D63384"/>
<path d="M23.5259 29.1525H24.1963C24.3579 29.1525 24.5129 29.0883 24.6271 28.974C24.7414 28.8598 24.8056 28.7048 24.8056 28.5432C24.8056 28.3815 24.7414 28.2265 24.6271 28.1123C24.5129 27.998 24.3579 27.9338 24.1963 27.9338H23.5259C23.3643 27.9338 23.2093 27.998 23.095 28.1123C22.9808 28.2265 22.9166 28.3815 22.9166 28.5432C22.9166 28.7048 22.9808 28.8598 23.095 28.974C23.2093 29.0883 23.3643 29.1525 23.5259 29.1525Z" fill="#D63384"/>
<path d="M26 29.1525H28.4944C28.656 29.1525 28.811 29.0883 28.9253 28.974C29.0395 28.8598 29.1037 28.7048 29.1037 28.5432C29.1037 28.3815 29.0395 28.2265 28.9253 28.1123C28.811 27.998 28.656 27.9338 28.4944 27.9338H26C25.8384 27.9338 25.6834 27.998 25.5691 28.1123C25.4548 28.2265 25.3906 28.3815 25.3906 28.5432C25.3906 28.7048 25.4548 28.8598 25.5691 28.974C25.6834 29.0883 25.8384 29.1525 26 29.1525Z" fill="#D63384"/>
<path d="M31.8906 14.4463H36.1563C36.6095 14.4452 37.0439 14.2647 37.3644 13.9441C37.685 13.6236 37.8655 13.1892 37.8666 12.736V10.591C37.8655 10.1377 37.685 9.70329 37.3644 9.38277C37.0439 9.06226 36.6095 8.88172 36.1563 8.88065H33.9991L34.4053 7.70659C34.5004 7.31031 34.4431 6.89278 34.2448 6.53676C34.0465 6.18074 33.7217 5.91222 33.3348 5.78442C32.9478 5.65663 32.5269 5.67889 32.1556 5.8468C31.7843 6.01471 31.4896 6.316 31.33 6.69096L30.7003 8.59627C30.5264 9.12043 30.4372 9.669 30.4363 10.2213V12.9675C30.4351 13.3558 30.5873 13.7289 30.8595 14.0058C31.1318 14.2826 31.5023 14.4409 31.8906 14.4463ZM31.6388 10.2294C31.6391 9.80414 31.7077 9.38169 31.8419 8.97815L32.4716 7.07284C32.5169 6.99063 32.5893 6.92666 32.6764 6.89178C32.7635 6.8569 32.8601 6.85328 32.9496 6.88152C33.0391 6.90976 33.1161 6.96813 33.1674 7.0467C33.2188 7.12527 33.2413 7.2192 33.2313 7.31252L32.7925 8.63284C32.738 8.79924 32.7236 8.97618 32.7506 9.14919C32.7776 9.3222 32.8452 9.48636 32.9479 9.62823C33.0505 9.7701 33.1853 9.88565 33.3412 9.96543C33.497 10.0452 33.6696 10.0869 33.8447 10.0872H36.1563C36.2866 10.0872 36.4117 10.139 36.5038 10.2312C36.596 10.3234 36.6478 10.4484 36.6478 10.5788V12.7238C36.6494 12.7893 36.6379 12.8546 36.614 12.9156C36.59 12.9767 36.554 13.0323 36.5082 13.0793C36.4624 13.1262 36.4077 13.1635 36.3472 13.189C36.2868 13.2144 36.2218 13.2275 36.1563 13.2275H31.8906C31.8238 13.2275 31.7598 13.201 31.7125 13.1538C31.6653 13.1065 31.6388 13.0424 31.6388 12.9756V10.2294Z" fill="#D63384"/>
<path d="M15.7341 13.9913H20.0687C20.5479 13.9913 21.0075 13.8015 21.3471 13.4635C21.6866 13.1254 21.8785 12.6667 21.8806 12.1875V7.84877C21.8806 7.36786 21.6899 6.90658 21.3502 6.56615C21.0105 6.22571 20.5497 6.03391 20.0687 6.03284H15.7341C15.2531 6.03391 14.7923 6.22571 14.4526 6.56615C14.1129 6.90658 13.9222 7.36786 13.9222 7.84877V12.1875C13.9243 12.6667 14.1162 13.1254 14.4557 13.4635C14.7953 13.8015 15.2549 13.9913 15.7341 13.9913ZM15.1409 7.84877C15.1409 7.69109 15.2033 7.53981 15.3144 7.42793C15.4255 7.31605 15.5764 7.25266 15.7341 7.25159H20.0687C20.2264 7.25266 20.3773 7.31605 20.4884 7.42793C20.5995 7.53981 20.6619 7.69109 20.6619 7.84877V10.3066L20.1378 9.86784C20.0293 9.778 19.8928 9.72885 19.7519 9.72885C19.611 9.72885 19.4745 9.778 19.3659 9.86784L18.3341 10.6803L17.0909 9.38034C16.9843 9.27467 16.8424 9.21209 16.6925 9.20459C16.5425 9.19709 16.3951 9.24521 16.2784 9.33971L15.1612 10.2863L15.1409 7.84877ZM15.1409 11.9113L16.6075 10.6641L17.8262 11.9519C17.9318 12.0585 18.0727 12.1228 18.2225 12.1325C18.3722 12.1423 18.5203 12.0968 18.6387 12.0047L19.7153 11.1394L20.6375 11.9113V12.1875C20.6375 12.3448 20.575 12.4957 20.4638 12.6069C20.3525 12.7182 20.2017 12.7806 20.0444 12.7806H15.7341C15.5767 12.7806 15.4259 12.7182 15.3147 12.6069C15.2034 12.4957 15.1409 12.3448 15.1409 12.1875V11.9113Z" fill="#D63384"/>
<path d="M45.8494 22.1569C45.7095 22.0751 45.5503 22.032 45.3883 22.032C45.2262 22.032 45.0671 22.0751 44.9272 22.1569L43.9969 22.6728C43.9969 22.3496 43.8685 22.0396 43.6399 21.811C43.4114 21.5824 43.1014 21.454 42.7781 21.454H38.9309C38.6077 21.454 38.2977 21.5824 38.0692 21.811C37.8406 22.0396 37.7122 22.3496 37.7122 22.6728V26.4875C37.7122 26.8107 37.8406 27.1207 38.0692 27.3493C38.2977 27.5778 38.6077 27.7062 38.9309 27.7062H42.77C43.0932 27.7062 43.4032 27.5778 43.6318 27.3493C43.8603 27.1207 43.9887 26.8107 43.9887 26.4875L44.915 27.0034C45.0568 27.0816 45.2165 27.1215 45.3785 27.1194C45.5404 27.1172 45.699 27.073 45.8387 26.991C45.9784 26.9091 46.0944 26.7923 46.1753 26.652C46.2562 26.5117 46.2993 26.3529 46.3003 26.1909V22.9612C46.3019 22.7994 46.2612 22.6401 46.1821 22.4989C46.1029 22.3578 45.9882 22.2399 45.8494 22.1569ZM42.77 26.4956H38.9228V22.6484H42.7619L42.77 26.4956ZM45.0897 25.6831L43.9969 25.0778V24.054L45.0938 23.4487L45.0897 25.6831Z" fill="#D63384"/>
<path d="M7.36937 27.0481H8.21437L9.92875 28.1897C10.1048 28.3084 10.3099 28.3769 10.522 28.388C10.734 28.399 10.9451 28.3521 11.1326 28.2524C11.32 28.1526 11.4768 28.0037 11.5861 27.8216C11.6953 27.6395 11.753 27.4311 11.7528 27.2187V27.0643H12.6181C13.0667 27.0633 13.4966 26.8843 13.8134 26.5667C14.1302 26.2491 14.3081 25.8189 14.3081 25.3703V22.4412C14.3081 21.993 14.1301 21.5631 13.8131 21.2462C13.4962 20.9293 13.0663 20.7512 12.6181 20.7512H7.36937C6.92257 20.7534 6.49479 20.9324 6.17961 21.2491C5.86443 21.5658 5.68749 21.9944 5.6875 22.4412V25.354C5.68749 25.8012 5.8643 26.2303 6.17936 26.5476C6.49443 26.865 6.9222 27.0449 7.36937 27.0481ZM6.90625 22.4412C6.90625 22.3162 6.9559 22.1964 7.04428 22.108C7.13265 22.0196 7.25252 21.97 7.3775 21.97H12.6181C12.7431 21.97 12.863 22.0196 12.9513 22.108C13.0397 22.1964 13.0894 22.3162 13.0894 22.4412V25.354C13.0894 25.4794 13.0399 25.5997 12.9516 25.6887C12.8633 25.7777 12.7435 25.8283 12.6181 25.8293H11.1394C11.0589 25.8288 10.979 25.8443 10.9046 25.875C10.8301 25.9057 10.7626 25.9509 10.7058 26.008C10.6491 26.0652 10.6043 26.133 10.5741 26.2077C10.5439 26.2823 10.5289 26.3623 10.53 26.4428V27.1253L8.73438 25.9309C8.63474 25.8639 8.51724 25.8285 8.39719 25.8293H7.36937C7.24544 25.8262 7.12765 25.7747 7.04113 25.6859C6.95461 25.5971 6.90621 25.478 6.90625 25.354V22.4412Z" fill="#D63384"/>
</svg>
