<svg width="52" height="52" viewBox="0 0 52 52" fill="none" xmlns="http://www.w3.org/2000/svg">
<path fill-rule="evenodd" clip-rule="evenodd" d="M46.67 3.55774H5.33C3.2307 3.55774 1.52344 5.26501 1.52344 7.3643V35.5682C1.52344 37.6675 3.2307 39.3748 5.33 39.3748H20.8884L20.1195 44.6418H16.7284C15.6802 44.6418 14.8281 45.4939 14.8281 46.542C14.8281 47.5902 15.6802 48.4423 16.7284 48.4423H35.2727C36.3208 48.4423 37.1729 47.5902 37.1729 46.542C37.1729 45.4939 36.3208 44.6418 35.2727 44.6418H31.8612L31.0923 39.3748H46.67C48.7693 39.3748 50.4766 37.6675 50.4766 35.5682V7.3643C50.4766 5.26501 48.7693 3.55774 46.67 3.55774ZM5.33 4.77649H46.67C48.097 4.77649 49.2578 5.93735 49.2578 7.3643V32.4695H2.74219V7.3643C2.74219 5.93735 3.90305 4.77649 5.33 4.77649ZM35.9541 46.542C35.9541 46.9178 35.6484 47.2235 35.2727 47.2235H16.7284C16.3526 47.2235 16.0469 46.9178 16.0469 46.542C16.0469 46.1663 16.3526 45.8605 16.7284 45.8605H35.2727C35.6474 45.8605 35.9541 46.1663 35.9541 46.542ZM30.6292 44.6418H21.3505L22.1193 39.3748H29.8594L30.6292 44.6418ZM46.67 38.156H5.33C3.90305 38.156 2.74219 36.9952 2.74219 35.5682V33.6893H49.2578V35.5682C49.2578 36.9952 48.097 38.156 46.67 38.156ZM40.3863 35.487C40.4391 35.6149 40.4686 35.752 40.4686 35.8942C40.4686 36.0364 40.4391 36.1745 40.3863 36.3015C40.3376 36.4203 40.2675 36.528 40.1822 36.6204C40.1741 36.6306 40.1649 36.6407 40.1548 36.6509C40.0583 36.7473 39.9395 36.8266 39.8064 36.8824C39.6784 36.9352 39.5413 36.9647 39.3991 36.9647C39.257 36.9647 39.1188 36.9352 38.9919 36.8824C38.8609 36.8286 38.743 36.7494 38.6455 36.6519L38.6435 36.6498C38.546 36.5513 38.4668 36.4335 38.412 36.3025C38.3591 36.1745 38.3297 36.0374 38.3297 35.8952C38.3297 35.7531 38.3591 35.6149 38.412 35.488C38.4658 35.357 38.545 35.2391 38.6425 35.1416L38.6445 35.1396C38.743 35.0421 38.8609 34.9629 38.9919 34.9081C39.1198 34.8552 39.257 34.8258 39.3991 34.8258C39.5413 34.8258 39.6795 34.8552 39.8064 34.9081C39.9374 34.9619 40.0552 35.0411 40.1527 35.1386L40.1548 35.1406C40.2533 35.2381 40.3325 35.3559 40.3863 35.487ZM26.9628 26.9598C26.9628 27.2959 27.236 27.5691 27.5722 27.5691H47.0021C47.3383 27.5691 47.6115 27.2959 47.6115 26.9598C47.6115 26.6236 47.3383 26.3504 47.0021 26.3504H46.0992V15.143C46.0992 14.8068 45.826 14.5336 45.4898 14.5336H42.6989C42.3627 14.5336 42.0895 14.8068 42.0895 15.143V26.3514H41.5106V19.7275C41.5106 19.3913 41.2374 19.1181 40.9012 19.1181H38.1103C37.7741 19.1181 37.5009 19.3913 37.5009 19.7275V26.3514H36.922V21.5851C36.922 21.2489 36.6488 20.9757 36.3127 20.9757H33.5217C33.1855 20.9757 32.9123 21.2489 32.9123 21.5851V26.3514H32.3334V23.8357C32.3334 23.4995 32.0602 23.2263 31.7241 23.2263H28.9352C28.599 23.2263 28.3258 23.4995 28.3258 23.8357V26.3514H27.5722C27.236 26.3504 26.9628 26.6236 26.9628 26.9598ZM43.3093 15.7523H44.8815V26.3514H43.3093V15.7523ZM38.7207 20.3359H40.2929V26.3504H38.7207V20.3359ZM34.1331 22.1934H35.7053V26.3504H34.1331V22.1934ZM29.5445 24.4441H31.1167V26.3504H29.5445V24.4441ZM28.015 21.1057C27.9632 20.7736 28.1907 20.4618 28.5238 20.41L30.1397 20.1581L32.5833 17.094C32.6818 16.9701 32.826 16.8888 32.9834 16.8695L35.6474 16.5313L37.4674 14.105C37.5639 13.977 37.7061 13.8917 37.8645 13.8684L40.0583 13.5393L41.0577 11.9752L40.4036 12.1601C40.0796 12.2515 39.7434 12.0636 39.651 11.7396C39.5596 11.4156 39.7475 11.0795 40.0715 10.987L42.1891 10.3868C42.3445 10.3431 42.511 10.3624 42.6522 10.4406C42.7934 10.5198 42.897 10.6509 42.9416 10.8063L43.5419 12.9238C43.6333 13.2478 43.4454 13.584 43.1214 13.6764C43.0655 13.6916 43.0097 13.6998 42.9548 13.6998C42.6888 13.6998 42.445 13.5251 42.3688 13.2559L42.1586 12.5135L40.9358 14.427C40.8413 14.5752 40.687 14.6758 40.5123 14.7012L38.2911 15.0343L36.467 17.4667C36.3685 17.5988 36.2202 17.6851 36.0557 17.7054L33.3805 18.0446L30.943 21.1006C30.8476 21.2205 30.7115 21.2997 30.5602 21.3231L28.7087 21.6105C28.6772 21.6156 28.6457 21.6176 28.6142 21.6176C28.3207 21.6216 28.0617 21.4063 28.015 21.1057ZM5.98508 21.2763H13.3463C13.6216 22.4281 14.6595 23.2873 15.8935 23.2873C17.1285 23.2873 18.1655 22.4281 18.4407 21.2763H25.802C26.2651 21.2763 26.6734 21.0956 26.9841 20.7523C27.2949 20.409 27.4351 19.9845 27.3904 19.5244C27.1111 16.6847 25.7918 14.0573 23.6752 12.1276C21.5434 10.1847 18.7799 9.11422 15.8935 9.11422C13.0071 9.11422 10.2436 10.1847 8.1118 12.1276C5.99422 14.0583 4.67492 16.6847 4.39664 19.5244C4.35094 19.9845 4.49211 20.409 4.80289 20.7523C5.11367 21.0945 5.52195 21.2763 5.98508 21.2763ZM15.8935 22.0675C15.1206 22.0675 14.492 21.4388 14.492 20.6659C14.492 19.8931 15.1206 19.2644 15.8935 19.2644C16.6664 19.2644 17.2951 19.8931 17.2951 20.6659C17.2951 21.4388 16.6664 22.0675 15.8935 22.0675ZM5.6093 19.6432C5.8307 17.3885 6.75594 15.3695 8.1575 13.7922L9.55195 15.1866C9.67078 15.3055 9.82719 15.3654 9.98258 15.3654C10.139 15.3654 10.2944 15.3055 10.4132 15.1866C10.6509 14.949 10.6509 14.5631 10.4132 14.3244L9.01977 12.9309C10.7067 11.4329 12.8883 10.4884 15.2852 10.3513V12.3073C15.2852 12.6435 15.5584 12.9167 15.8945 12.9167C16.2307 12.9167 16.5039 12.6435 16.5039 12.3073V10.3513C18.8998 10.4894 21.0813 11.4339 22.7683 12.9309L21.3748 14.3244C21.1372 14.562 21.1372 14.948 21.3748 15.1866C21.4937 15.3055 21.6501 15.3654 21.8055 15.3654C21.9619 15.3654 22.1173 15.3055 22.2361 15.1866L23.6305 13.7922C25.0311 15.3695 25.9573 17.3885 26.1788 19.6432C26.1899 19.76 26.1615 19.8463 26.0823 19.9337C26.0041 20.02 25.9198 20.0576 25.803 20.0576H18.4417C18.2955 19.4441 17.9319 18.914 17.4383 18.5524L18.8205 14.8789C18.9394 14.5641 18.7799 14.2127 18.4651 14.0938C18.1502 13.975 17.7988 14.1345 17.68 14.4493L16.314 18.0802C16.1779 18.0578 16.0377 18.0466 15.8945 18.0466C14.6595 18.0466 13.6226 18.9059 13.3473 20.0576H5.98508C5.86828 20.0576 5.78398 20.021 5.70578 19.9337C5.62656 19.8463 5.59812 19.76 5.6093 19.6432ZM24.179 24.5538C24.179 24.8899 23.9058 25.1631 23.5696 25.1631H8.50586C8.16969 25.1631 7.89648 24.8899 7.89648 24.5538C7.89648 24.2176 8.16969 23.9444 8.50586 23.9444H23.5696C23.9068 23.9444 24.179 24.2166 24.179 24.5538ZM24.179 27.5234C24.179 27.8596 23.9058 28.1328 23.5696 28.1328H8.50586C8.16969 28.1328 7.89648 27.8596 7.89648 27.5234C7.89648 27.1873 8.16969 26.9141 8.50586 26.9141H23.5696C23.9068 26.9141 24.179 27.1863 24.179 27.5234ZM43.1498 35.487C43.2027 35.6149 43.2321 35.752 43.2321 35.8942C43.2321 36.0364 43.2027 36.1745 43.1498 36.3015C43.1011 36.4203 43.031 36.528 42.9457 36.6204C42.9376 36.6306 42.9284 36.6407 42.9183 36.6509C42.8218 36.7473 42.703 36.8266 42.5699 36.8824C42.442 36.9352 42.3048 36.9647 42.1627 36.9647C42.0205 36.9647 41.8823 36.9352 41.7554 36.8824C41.6244 36.8286 41.5066 36.7494 41.4091 36.6519L41.407 36.6498C41.3095 36.5513 41.2303 36.4335 41.1755 36.3025C41.1227 36.1745 41.0932 36.0374 41.0932 35.8952C41.0932 35.7531 41.1227 35.6149 41.1755 35.488C41.2293 35.357 41.3085 35.2391 41.406 35.1416L41.408 35.1396C41.5066 35.0421 41.6244 34.9629 41.7554 34.9081C41.8834 34.8552 42.0205 34.8258 42.1627 34.8258C42.3048 34.8258 42.443 34.8552 42.5699 34.9081C42.7009 34.9619 42.8187 35.0411 42.9162 35.1386L42.9183 35.1406C43.0168 35.2381 43.096 35.3559 43.1498 35.487ZM45.9144 35.487C45.9672 35.6149 45.9966 35.752 45.9966 35.8942C45.9966 36.0364 45.9672 36.1745 45.9144 36.3015C45.8656 36.4203 45.7955 36.528 45.7102 36.6204C45.7021 36.6306 45.693 36.6407 45.6828 36.6509C45.5863 36.7473 45.4675 36.8266 45.3345 36.8824C45.2065 36.9352 45.0694 36.9647 44.9272 36.9647C44.785 36.9647 44.6469 36.9352 44.5199 36.8824C44.3889 36.8286 44.2711 36.7494 44.1736 36.6519L44.1716 36.6498C44.0741 36.5513 43.9948 36.4335 43.94 36.3025C43.8872 36.1745 43.8577 36.0374 43.8577 35.8952C43.8577 35.7531 43.8872 35.6149 43.94 35.488C43.9938 35.357 44.073 35.2391 44.1705 35.1416L44.1726 35.1396C44.2711 35.0421 44.3889 34.9629 44.5199 34.9081C44.6479 34.8552 44.785 34.8258 44.9272 34.8258C45.0694 34.8258 45.2075 34.8552 45.3345 34.9081C45.4655 34.9619 45.5833 35.0411 45.6808 35.1386L45.6828 35.1406C45.7803 35.2381 45.8595 35.3559 45.9144 35.487Z" fill="#55DAF5"/>
</svg>
