<svg width="64" height="64" viewBox="0 0 64 64" fill="none" xmlns="http://www.w3.org/2000/svg">
<path d="M52.608 62.7199H15.4881C14.9761 62.7199 14.4641 62.3359 14.4641 61.6959C14.4641 61.0559 14.8481 60.6719 15.4881 60.6719H51.84C51.84 60.4159 51.968 60.2879 51.968 60.0319C52.224 58.8799 52.48 58.2399 52.48 56.7039C52.48 48.1279 50.0481 44.0319 44.0321 42.3679C42.6241 41.9839 40.8321 41.5999 38.784 41.4719C38.528 41.4719 38.2721 41.4719 38.0161 41.3439C37.7601 41.3439 37.6321 41.3439 37.3761 41.3439C36.8641 41.3439 36.352 40.9599 36.352 40.3199C36.352 39.6799 36.7361 39.2959 37.3761 39.2959C37.6321 39.2959 38.016 39.2959 38.272 39.4239H38.912C41.216 39.5519 43.136 39.9359 44.5441 40.3199C51.4561 42.1119 54.528 46.9759 54.528 56.4479C54.528 58.2399 54.272 59.1359 53.8881 60.2879C53.76 60.6719 53.632 61.0559 53.5041 61.5679C53.376 62.4639 52.9921 62.7199 52.608 62.7199Z" fill="#FF800B"/>
<path d="M20.096 43.2637C19.712 43.2637 19.328 43.0077 19.2 42.6237C19.072 42.1117 19.328 41.5997 19.84 41.4717C20.224 41.3437 20.608 41.2157 20.864 41.0877C21.248 40.9597 21.632 40.8317 22.016 40.7037C23.68 40.1917 25.344 39.9357 27.52 39.8077C28.16 39.6797 28.672 39.6797 29.184 39.6797C29.696 39.6797 30.208 40.0637 30.208 40.7037C30.208 41.3437 29.824 41.7277 29.184 41.7277C28.672 41.7277 28.288 41.7277 27.904 41.8557H27.776C25.728 41.9837 24.192 42.2397 22.656 42.7517C22.272 42.8797 22.016 43.0077 21.632 43.1357C21.248 43.2637 20.864 43.3917 20.48 43.5197C20.352 43.2637 20.224 43.2637 20.096 43.2637Z" fill="#FF800B"/>
<path d="M33.28 39.0398C32 39.0398 30.72 38.7838 29.568 38.1438C25.344 36.0958 22.272 30.7198 22.144 25.3438C22.144 24.8318 22.528 24.3198 23.04 24.3198C23.552 24.3198 24.064 24.7038 24.064 25.2158C24.192 29.8238 26.88 34.5598 30.464 36.2238C31.36 36.6078 32.384 36.8638 33.408 36.8638C34.304 36.8638 35.2 36.6078 36.48 36.0958C39.808 34.3038 42.496 29.8238 42.752 25.3438C42.752 24.8318 43.264 24.4478 43.776 24.4478C44.288 24.4478 44.672 24.9598 44.672 25.4718C44.416 30.5918 41.344 35.7118 37.376 37.7598C36.096 38.5278 34.688 39.0398 33.28 39.0398Z" fill="#FF800B"/>
<path d="M43.3921 26.6238C43.2641 26.6238 43.1361 26.6238 43.0081 26.4958C42.4961 26.2398 42.3681 25.7278 42.4961 25.2158C43.1361 23.8078 43.6481 20.9918 43.3921 20.0958C43.1361 18.1758 42.1121 15.1038 38.4001 14.9758C38.1441 14.9758 37.7601 14.8478 37.6321 14.5918C36.8641 13.4398 34.9441 12.9278 30.9761 12.9278C27.0081 12.9278 22.9121 14.9758 22.9121 18.8158C22.9121 19.7118 23.5521 24.3198 23.8081 25.0878C23.9361 25.5998 23.6801 26.1118 23.1681 26.2398C22.6561 26.3678 22.1441 26.1118 22.0161 25.5998C21.7601 24.7038 21.1201 19.8398 21.1201 18.8158C21.1201 13.8238 26.2401 11.0078 31.1041 11.0078C35.4561 11.0078 37.7601 11.6478 39.0401 13.0558C42.4961 13.3118 44.8001 15.8718 45.3121 19.7118C45.5681 21.2478 44.9281 24.5758 44.1601 25.9838C44.1601 26.3678 43.7761 26.6238 43.3921 26.6238Z" fill="#FF800B"/>
<path d="M37.504 42.4959C36.992 42.4959 36.48 42.1119 36.48 41.4719V41.0879L36.352 40.7039L35.968 38.3999C34.432 38.9119 32.384 39.0399 30.592 38.5279L30.08 41.2159V41.5999C30.08 42.1119 29.696 42.6239 29.056 42.6239C28.416 42.6239 28.16 42.1119 28.16 41.5999V41.0879C28.16 40.9599 28.16 40.9599 28.16 40.8319L28.288 40.3199L28.928 36.9919C28.928 36.7359 29.184 36.4799 29.44 36.3519C29.696 36.2239 30.08 36.2239 30.336 36.3519C31.232 36.7359 32.256 36.9919 33.28 36.9919C34.176 36.9919 35.072 36.7359 36.352 36.2239C36.608 36.0959 36.992 36.0959 37.248 36.2239C37.504 36.3519 37.632 36.6079 37.76 36.8639L38.528 40.8319V41.0879V41.5999C38.4 42.1119 38.016 42.4959 37.504 42.4959Z" fill="#FF800B"/>
<path d="M47.1041 62.72C46.5921 62.72 46.0801 62.336 46.0801 61.696V56.96C46.0801 56.448 46.4641 55.936 47.1041 55.936C47.7441 55.936 48.1281 56.32 48.1281 56.96V61.696C48.0001 62.336 47.6161 62.72 47.1041 62.72Z" fill="#FF800B"/>
<path d="M19.3281 62.7197C18.8161 62.7197 18.3041 62.3357 18.3041 61.6957V59.2637C18.3041 58.7517 18.6881 58.2397 19.3281 58.2397C19.9681 58.2397 20.3521 58.6237 20.3521 59.2637V61.6957C20.3521 62.3357 19.8401 62.7197 19.3281 62.7197Z" fill="#FF800B"/>
<path d="M29.568 28.2877H29.184C28.672 28.2877 28.16 27.9037 28.16 27.2637C28.16 26.6237 28.544 26.2397 29.184 26.2397H29.568C30.08 26.2397 30.592 26.6237 30.592 27.2637C30.592 27.9037 30.08 28.2877 29.568 28.2877Z" fill="#FF800B"/>
<path d="M37.2481 28.2877H36.9921C36.4801 28.2877 35.9681 27.9037 35.9681 27.2637C35.9681 26.6237 36.3521 26.2397 36.9921 26.2397H37.2481C37.7601 26.2397 38.2721 26.6237 38.2721 27.2637C38.2721 27.9037 37.7601 28.2877 37.2481 28.2877Z" fill="#FF800B"/>
<path d="M33.2801 35.3279C32.3841 35.3279 31.4881 34.9439 30.8481 34.3039C30.4641 33.9199 30.4641 33.2799 30.8481 32.8959C31.2321 32.5119 31.8721 32.5119 32.2561 32.8959C32.8961 33.5359 33.7921 33.5359 34.4321 32.8959C34.8161 32.5119 35.4561 32.5119 35.8401 32.8959C36.2241 33.2799 36.2241 33.9199 35.8401 34.3039C35.0721 34.9439 34.1761 35.3279 33.2801 35.3279Z" fill="#FF800B"/>
<path d="M43.264 27.392C39.1681 27.392 37.1201 24.704 36.0961 22.144C31.8721 27.392 23.4241 27.008 22.9121 27.008C22.4001 27.008 22.0161 26.496 22.0161 25.984C22.0161 25.472 22.5281 25.088 23.0401 25.088C23.1681 25.088 32.64 25.6 35.5841 19.328C35.7121 18.944 36.2241 18.688 36.6081 18.816C36.9921 18.944 37.3761 19.2 37.3761 19.712C37.3761 19.968 38.1441 25.6 43.264 25.472C43.7761 25.472 44.288 25.856 44.288 26.368C44.288 26.88 43.9041 27.392 43.3921 27.392H43.264Z" fill="#FF800B"/>
<path d="M33.28 62.7201C33.152 62.7201 33.152 62.7201 33.024 62.7201C19.968 59.3921 20.992 41.7281 20.992 41.6001C20.992 41.0881 21.504 40.7041 22.016 40.7041C22.528 40.7041 22.912 41.2161 22.912 41.7281C22.912 41.8561 21.888 57.7281 33.28 60.8001C44.416 57.7281 43.648 42.1121 43.648 41.8561C43.648 41.3441 44.032 40.8321 44.544 40.8321C45.056 40.8321 45.568 41.2161 45.568 41.7281C45.952 45.4401 45.056 59.9041 33.536 62.7201C33.408 62.7201 33.408 62.7201 33.28 62.7201Z" fill="#FF800B"/>
<path d="M37.76 48.3839C37.504 48.3839 37.376 48.3839 37.248 48.2559L32.768 44.7999C32.512 44.5439 32.384 44.2879 32.384 44.0319C32.384 43.6479 32.64 43.3919 32.896 43.2639L37.12 40.8319L38.528 39.9359C39.04 39.6799 39.552 39.8079 39.808 40.1919C40.064 40.5759 39.936 41.2159 39.552 41.4719L38.144 42.3679L35.2 44.0319L37.888 46.0799L43.776 40.8319C44.16 40.4479 44.8 40.5759 45.184 40.9599C45.568 41.3439 45.44 41.9839 45.056 42.3679L38.4 48.1279C38.272 48.2559 38.016 48.3839 37.76 48.3839Z" fill="#FF800B"/>
<path d="M28.672 48.384C28.416 48.384 28.16 48.256 28.032 48.128L21.632 42.368C21.248 41.984 21.248 41.344 21.504 40.96C21.888 40.576 22.528 40.576 22.912 40.832L28.672 46.08L31.488 44.032L28.544 42.368L27.136 41.472C26.752 41.216 26.496 40.576 26.88 40.192C27.136 39.808 27.776 39.552 28.16 39.936L29.568 40.832L33.792 43.264C34.048 43.392 34.304 43.776 34.304 44.032C34.304 44.416 34.176 44.672 33.92 44.8L29.312 48.128C29.056 48.256 28.928 48.384 28.672 48.384Z" fill="#FF800B"/>
<path d="M33.152 59.5199C32.896 59.5199 32.64 59.3919 32.512 59.2639L29.696 56.5759C29.44 56.3199 29.312 55.9359 29.44 55.5519L32.384 47.8719C32.512 47.4879 32.896 47.3599 33.28 47.2319C33.664 47.2319 34.048 47.4879 34.176 47.8719L36.992 55.5519C37.12 55.9359 36.992 56.3199 36.736 56.5759L33.792 59.2639C33.664 59.3919 33.408 59.5199 33.152 59.5199ZM31.488 55.5519L33.152 57.2159L34.944 55.5519L33.28 50.8159L31.488 55.5519Z" fill="#FF800B"/>
<path d="M33.2801 49.0238C33.0241 49.0238 32.8961 49.0238 32.7681 48.8958L29.9521 46.8478C29.6961 46.7198 29.4401 46.3358 29.4401 46.0798C29.4401 45.8238 29.5681 45.4398 29.8241 45.3118L32.6401 43.2638C33.0241 43.0078 33.4081 43.0078 33.7921 43.2638L36.4801 45.3118C36.7361 45.4398 36.8641 45.8238 36.8641 46.0798C36.8641 46.3358 36.7361 46.7198 36.4801 46.8478L33.7921 48.8958C33.6641 49.0238 33.5361 49.0238 33.2801 49.0238ZM32.1281 46.0798L33.2801 46.9758L34.4321 46.0798L33.2801 45.1838L32.1281 46.0798Z" fill="#FF800B"/>
<path d="M54.528 17.7918C49.92 17.7918 46.336 14.0798 46.336 9.47179C46.336 4.86379 49.92 1.27979 54.528 1.27979C59.136 1.27979 62.72 4.86379 62.72 9.47179C62.72 14.0798 59.136 17.7918 54.528 17.7918ZM54.528 3.19979C51.072 3.19979 48.256 6.01579 48.256 9.47179C48.256 12.9278 51.072 15.8718 54.528 15.8718C57.984 15.8718 60.928 13.0558 60.928 9.47179C60.928 5.88779 57.984 3.19979 54.528 3.19979Z" fill="#FF800B"/>
<path d="M54.528 4.47986C54.016 4.47986 53.504 4.09586 53.504 3.45586V2.17586C53.504 1.66386 53.888 1.15186 54.528 1.15186C55.168 1.15186 55.552 1.53586 55.552 2.17586V3.45586C55.424 3.96786 55.04 4.47986 54.528 4.47986Z" fill="#FF800B"/>
<path d="M54.528 17.7918C54.016 17.7918 53.504 17.4078 53.504 16.7678V15.6158C53.504 15.1038 53.888 14.5918 54.528 14.5918C55.168 14.5918 55.552 14.9758 55.552 15.6158V16.7678C55.424 17.2798 55.04 17.7918 54.528 17.7918Z" fill="#FF800B"/>
<path d="M61.824 10.3678H60.544C60.032 10.3678 59.52 9.98382 59.52 9.34382C59.52 8.70382 59.904 8.31982 60.544 8.31982H61.824C62.336 8.44782 62.72 8.95982 62.72 9.47182C62.72 9.98382 62.336 10.3678 61.824 10.3678Z" fill="#FF800B"/>
<path d="M48.384 10.3678H47.232C46.72 10.3678 46.208 9.98382 46.208 9.34382C46.208 8.70382 46.592 8.31982 47.232 8.31982H48.384C48.896 8.31982 49.408 8.70382 49.408 9.34382C49.408 9.98382 48.896 10.3678 48.384 10.3678Z" fill="#FF800B"/>
<path d="M51.456 5.12022C51.072 5.12022 50.816 4.86422 50.56 4.60822L50.048 3.58422C49.792 3.07222 50.048 2.56022 50.432 2.30422C50.944 2.04822 51.456 2.30422 51.712 2.68822L52.352 3.84022C52.608 4.35222 52.352 4.86422 51.968 5.12022C51.712 5.12022 51.584 5.12022 51.456 5.12022Z" fill="#FF800B"/>
<path d="M58.112 16.6402C57.728 16.6402 57.472 16.3842 57.216 16.1282L56.704 15.1042C56.448 14.5922 56.704 14.0802 57.088 13.8242C57.6 13.5682 58.112 13.8242 58.368 14.2082L58.88 15.2322C59.136 15.7442 58.88 16.2562 58.496 16.5122C58.368 16.6402 58.24 16.6402 58.112 16.6402Z" fill="#FF800B"/>
<path d="M59.776 7.42414C59.392 7.42414 59.136 7.16814 58.88 6.91214C58.624 6.40014 58.88 5.88814 59.264 5.63214L60.288 5.12014C60.8 4.86414 61.312 5.12014 61.568 5.50414C61.824 6.01614 61.568 6.52814 61.184 6.78414L60.16 7.29614C60.032 7.29614 59.904 7.42414 59.776 7.42414Z" fill="#FF800B"/>
<path d="M48.256 14.0804C47.872 14.0804 47.616 13.8244 47.36 13.5684C47.104 13.0564 47.36 12.5444 47.744 12.2884L48.768 11.7764C49.28 11.5204 49.792 11.7764 50.048 12.1604C50.304 12.6724 50.048 13.1844 49.664 13.4404L48.64 13.9524C48.512 13.9524 48.384 14.0804 48.256 14.0804Z" fill="#FF800B"/>
<path d="M49.28 7.4237C49.152 7.4237 49.024 7.4237 48.896 7.2957L47.872 6.7837C47.36 6.5277 47.232 6.0157 47.488 5.5037C47.744 4.9917 48.256 4.8637 48.768 5.1197L49.792 5.6317C50.304 5.8877 50.432 6.3997 50.176 6.9117C49.92 7.1677 49.664 7.4237 49.28 7.4237Z" fill="#FF800B"/>
<path d="M60.8 14.0795C60.672 14.0795 60.544 14.0795 60.416 13.9515L59.392 13.4395C58.88 13.1835 58.752 12.6715 59.008 12.1595C59.264 11.6475 59.776 11.5195 60.288 11.7755L61.312 12.2875C61.824 12.5435 61.952 13.0555 61.696 13.5675C61.44 13.8235 61.184 14.0795 60.8 14.0795Z" fill="#FF800B"/>
<path d="M57.6 5.11978C57.472 5.11978 57.344 5.11978 57.216 4.99178C56.704 4.73578 56.576 4.22378 56.832 3.71178L57.344 2.68778C57.6 2.17578 58.112 2.04778 58.624 2.30378C59.136 2.55978 59.264 3.07178 59.008 3.58378L58.496 4.60778C58.24 4.99178 57.984 5.11978 57.6 5.11978Z" fill="#FF800B"/>
<path d="M50.944 16.6398C50.816 16.6398 50.688 16.6398 50.56 16.5118C50.048 16.2558 49.92 15.7438 50.176 15.2318L50.688 14.2078C50.944 13.6958 51.456 13.5678 51.968 13.8238C52.48 14.0798 52.608 14.5918 52.352 15.1038L51.84 16.1278C51.584 16.5118 51.328 16.6398 50.944 16.6398Z" fill="#FF800B"/>
<path d="M58.112 10.3682H54.528C54.016 10.3682 53.504 9.98418 53.504 9.34418V7.80818C53.504 7.29618 53.888 6.78418 54.528 6.78418C55.168 6.78418 55.552 7.16818 55.552 7.80818V8.44818H58.24C58.752 8.44818 59.264 8.83218 59.264 9.47218C59.264 10.1122 58.624 10.3682 58.112 10.3682Z" fill="#FF800B"/>
<path d="M15.744 36.0958H6.52803C6.01603 36.0958 5.50403 35.7118 5.50403 35.0718V25.8558C5.50403 25.3438 5.88803 24.9598 6.27203 24.9598C8.44803 24.5758 8.70403 20.6078 8.70403 20.6078C8.70403 20.4798 8.70403 20.4798 8.70403 20.3518C8.96003 19.5838 9.72803 19.0718 10.496 19.0718C12.672 19.0718 13.056 20.3518 13.056 20.9918C13.056 20.9918 13.312 23.0398 13.184 24.9598H15.488C16.64 24.9598 17.536 25.8558 17.536 27.0078L17.664 33.9198C17.92 35.0718 16.896 36.0958 15.744 36.0958ZM7.55203 34.1758H15.744C15.872 34.1758 15.872 34.0478 16 34.0478L15.872 27.1358C15.872 27.0078 15.744 26.8798 15.744 26.8798H12.16C11.904 26.8798 11.648 26.7518 11.392 26.4958C11.136 26.2398 11.136 25.9838 11.136 25.7278C11.52 23.9358 11.136 21.2478 11.136 21.1198V20.9918C11.136 20.9918 10.752 20.9918 10.624 20.9918C10.496 22.0158 10.112 25.5998 7.42403 26.6238V34.1758H7.55203Z" fill="#FF800B"/>
<path d="M5.76003 36.8639H2.30403C1.79203 36.8639 1.28003 36.4799 1.28003 35.8399C1.28003 35.1999 1.66403 34.8159 2.30403 34.8159H5.76003C5.76003 34.3039 6.14403 33.9199 6.65603 33.9199C7.16803 33.9199 7.68003 34.5599 7.68003 35.0719C7.68003 36.0959 6.78403 36.8639 5.76003 36.8639Z" fill="#FF800B"/>
<path d="M6.65603 26.8797C6.14403 26.8797 5.63203 26.4957 5.63203 25.8557V25.5997H2.17603C1.79203 25.5997 1.28003 25.2157 1.28003 24.7037C1.28003 24.1917 1.66403 23.6797 2.30403 23.6797H5.76003C6.78403 23.6797 7.68003 24.5757 7.68003 25.5997V25.9837C7.68003 26.4957 7.16803 26.8797 6.65603 26.8797Z" fill="#FF800B"/>
<path d="M56.32 28.9282C56.192 28.9282 55.936 28.9282 55.808 28.9282C53.632 28.6722 51.84 26.8802 51.456 24.8322C51.2 22.7842 52.224 20.7362 54.144 19.7122C54.4 19.5842 54.784 19.5842 55.04 19.7122C55.296 19.8402 55.552 20.2242 55.552 20.4802V22.5282C55.552 23.0402 55.936 23.2962 56.448 23.2962C56.96 23.2962 57.344 22.9122 57.344 22.5282V20.4802C57.344 20.0962 57.472 19.8402 57.856 19.7122C58.112 19.5842 58.496 19.5842 58.752 19.7122C60.416 20.4802 61.44 22.2722 61.44 24.0642C61.44 25.4722 60.928 26.7522 59.776 27.7762C58.752 28.4162 57.472 28.9282 56.32 28.9282ZM53.632 22.7842C53.376 23.2962 53.248 23.8082 53.376 24.4482C53.632 25.7282 54.656 26.7522 56.064 27.0082C56.96 27.1362 57.856 26.8802 58.496 26.2402C59.136 25.7282 59.52 24.8322 59.52 23.9362C59.52 23.5522 59.392 23.1682 59.264 22.7842C59.136 24.1922 57.984 25.3442 56.576 25.3442C54.912 25.3442 53.632 24.1922 53.632 22.7842Z" fill="#FF800B"/>
<path d="M58.112 45.8239C57.984 45.8239 57.728 45.8239 57.6 45.6959C57.344 45.5679 57.088 45.1839 57.088 44.9279V42.8799C57.088 42.3679 56.704 41.9839 56.192 41.9839C55.68 41.9839 55.296 42.3679 55.296 42.8799V44.7999C55.296 45.1839 55.168 45.4399 54.784 45.5679C54.528 45.6959 54.144 45.6959 53.888 45.5679C51.968 44.5439 50.944 42.4959 51.2 40.4479C51.584 38.2719 53.248 36.6079 55.424 36.3519C56.96 36.2239 58.368 36.6079 59.392 37.6319C60.416 38.5279 61.056 39.9359 61.056 41.3439C61.056 43.1359 60.032 44.7999 58.368 45.6959C58.368 45.6959 58.24 45.8239 58.112 45.8239ZM56.32 38.2719C56.192 38.2719 56.064 38.2719 55.936 38.2719C54.656 38.3999 53.504 39.5519 53.376 40.8319C53.248 41.4719 53.376 41.9839 53.632 42.4959C53.76 41.0879 54.912 39.9359 56.32 39.9359C57.728 39.9359 58.88 40.9599 59.008 42.4959C59.136 42.1119 59.264 41.7279 59.264 41.3439C59.264 40.4479 58.88 39.6799 58.24 39.0399C57.728 38.5279 57.088 38.2719 56.32 38.2719Z" fill="#FF800B"/>
<path d="M54.528 38.656C54.016 38.656 53.504 38.272 53.504 37.632V27.648C53.504 27.136 53.888 26.624 54.528 26.624C55.168 26.624 55.552 27.008 55.552 27.648V37.632C55.424 38.144 55.04 38.656 54.528 38.656Z" fill="#FF800B"/>
<path d="M58.112 38.656C57.6 38.656 57.216 38.272 57.088 37.76L56.96 27.776C56.96 27.264 57.344 26.752 57.856 26.752C58.368 26.752 58.88 27.136 58.88 27.648L59.008 37.632C59.136 38.144 58.624 38.528 58.112 38.656Z" fill="#FF800B"/>
<path d="M12.288 60.1598H9.60003C9.08803 60.1598 8.70403 59.7758 8.70403 59.2638L8.57603 57.8558C8.19203 57.7278 7.80803 57.5998 7.55203 57.3438L6.40003 58.2398C6.01603 58.4958 5.50403 58.4958 5.12003 58.1118L3.20003 56.1918C2.81603 55.8078 2.81603 55.2958 3.07203 54.9118L3.84003 53.8878C3.58403 53.5038 3.45603 53.1198 3.32803 52.7358L2.04803 52.6078C1.53603 52.4798 1.28003 52.0958 1.28003 51.5838V48.8958C1.28003 48.3838 1.66403 47.9998 2.17603 47.9998L3.45603 47.8718C3.58403 47.4878 3.71203 47.1038 3.96803 46.7198L3.20003 45.6958C2.94403 45.3118 2.94403 44.7998 3.32803 44.4158L5.12003 42.6238C5.50403 42.2398 6.01603 42.2398 6.40003 42.4958L7.42403 43.2638C7.80803 43.1358 8.19203 42.8798 8.57603 42.7518L8.70403 41.3438C8.70403 40.8318 9.21603 40.4478 9.60003 40.4478H12.288C12.8 40.4478 13.184 40.8318 13.184 41.3438L13.312 42.7518C13.696 42.8798 14.08 43.0078 14.336 43.2638L15.36 42.4958C15.744 42.2398 16.256 42.2398 16.64 42.6238L18.56 44.5438C18.944 44.9278 18.944 45.4398 18.688 45.8238L17.92 46.8478C18.176 47.2318 18.304 47.6158 18.432 47.9998L19.712 48.1278C20.224 48.1278 20.608 48.6398 20.608 49.0238V51.7118C20.608 52.2238 20.224 52.6078 19.712 52.6078L18.432 52.7358C18.304 53.1198 18.176 53.5038 17.92 53.8878L18.688 54.9118C18.944 55.2958 18.944 55.8078 18.56 56.1918L16.64 58.1118C16.256 58.4958 15.744 58.4958 15.36 58.2398L14.336 57.4718C13.952 57.7278 13.568 57.8558 13.184 57.9838L13.056 59.2638C13.184 59.7758 12.8 60.1598 12.288 60.1598ZM10.496 58.2398H11.52L11.648 57.2158C11.648 56.8318 12.032 56.4478 12.416 56.4478C13.056 56.3198 13.568 56.1918 14.08 55.8078C14.464 55.5518 14.848 55.5518 15.232 55.8078L16.128 56.4478L16.896 55.6798L16.256 54.7838C16 54.5278 16 54.0158 16.256 53.7598C16.64 53.2478 16.768 52.4798 17.024 51.7118C17.152 51.3278 17.408 51.0718 17.792 51.0718L18.816 50.9438V49.9198L17.792 49.7918C17.408 49.7918 17.024 49.4078 17.024 49.0238C16.896 48.3838 16.64 47.8718 16.256 47.3598C16 46.9758 16.128 46.5918 16.256 46.3358L16.896 45.4398L16.128 44.6718L15.232 45.3118C14.976 45.5678 14.464 45.5678 14.208 45.3118C13.824 45.0558 13.184 44.7998 12.672 44.6718L12.288 44.5438C11.904 44.4158 11.776 44.1598 11.648 43.7758L11.52 42.7518H10.496L10.24 43.6478C10.24 44.0318 9.85603 44.4158 9.47203 44.4158C8.83203 44.5438 8.32003 44.7998 7.80803 45.1838C7.42403 45.4398 7.04003 45.3118 6.78403 45.1838L5.88803 44.5438L5.12003 45.1838L5.76003 46.0798C6.01603 46.3358 6.01603 46.8478 5.76003 47.1038C5.37603 47.7438 5.12003 48.3838 4.99203 48.8958C4.86403 49.2798 4.60803 49.6638 4.22403 49.6638L3.20003 49.7918V50.8158L4.22403 50.9438C4.60803 50.9438 4.99203 51.3278 4.99203 51.7118C5.12003 52.3518 5.37603 52.8638 5.76003 53.3758C6.01603 53.7598 5.88803 54.1438 5.76003 54.3998L5.12003 55.4238L5.88803 56.1918L6.78403 55.5518C7.04003 55.2958 7.55203 55.2958 7.80803 55.5518C8.19203 55.8078 8.70403 56.0638 9.21603 56.1918L9.72803 56.3198C9.98403 56.4478 10.24 56.7038 10.24 57.0878L10.496 58.2398Z" fill="#FF800B"/>
<path d="M10.8801 53.7601C8.96006 53.7601 7.55206 52.2241 7.55206 50.3041C7.55206 48.3841 9.08806 46.9761 10.8801 46.9761C12.6721 46.9761 14.2081 48.5121 14.2081 50.3041C14.2081 52.2241 12.8001 53.7601 10.8801 53.7601ZM10.8801 48.8961C10.1121 48.8961 9.47206 49.5361 9.47206 50.3041C9.47206 51.0721 10.1121 51.8401 10.8801 51.8401C11.6481 51.8401 12.2881 51.2001 12.2881 50.3041C12.2881 49.5361 11.6481 48.8961 10.8801 48.8961Z" fill="#FF800B"/>
<path d="M18.432 12.9278H3.32803C2.17603 12.9278 1.28003 12.0318 1.28003 10.8798V3.19979C1.28003 2.04779 2.17603 1.27979 3.32803 1.27979H18.432C19.584 1.27979 20.48 2.04779 20.48 3.19979V10.8798C20.48 12.0318 19.456 12.9278 18.432 12.9278ZM3.32803 3.19979L3.20003 10.8798V11.1358H18.304L18.432 11.0078V3.32779L3.32803 3.19979Z" fill="#FF800B"/>
<path d="M10.88 9.47211C10.624 9.47211 10.496 9.47211 10.368 9.34411L2.30404 3.45611C1.79204 3.20011 1.66404 2.56011 2.04804 2.17611C2.30404 1.79211 2.94404 1.66411 3.32804 1.92011L10.88 7.29611L12.16 6.40011L18.304 1.92011C18.688 1.66411 19.328 1.66411 19.584 2.17611C19.84 2.56011 19.84 3.20011 19.328 3.45611L11.392 9.21611C11.264 9.34411 11.136 9.47211 10.88 9.47211Z" fill="#FF800B"/>
<path d="M2.81604 12.5441C2.56004 12.5441 2.17604 12.2881 2.04804 12.0321C1.79204 11.6481 1.79204 11.0081 2.30404 10.7521L8.57604 6.40009C8.96004 6.14409 9.60004 6.14409 9.85604 6.65609C10.24 7.04009 10.112 7.68009 9.60004 7.93609L3.32804 12.2881C3.20004 12.4161 2.94404 12.5441 2.81604 12.5441Z" fill="#FF800B"/>
<path d="M18.8161 12.5443C18.6881 12.5443 18.4321 12.5443 18.3041 12.4163L12.1601 7.93628C11.6481 7.68028 11.5201 7.04028 11.9041 6.65628C12.1601 6.27228 12.8001 6.14428 13.1841 6.40028L19.3281 10.7523C19.7121 11.0083 19.8401 11.6483 19.5841 12.0323C19.4561 12.2883 19.0721 12.5443 18.8161 12.5443Z" fill="#FF800B"/>
</svg>
