<svg width="42" height="42" viewBox="0 0 42 42" fill="none" xmlns="http://www.w3.org/2000/svg">
<path d="M38.5939 5.01335H23.9438C23.4373 5.01405 22.9518 5.21553 22.5936 5.57363C22.2355 5.93172 22.0339 6.41722 22.0331 6.9237V28.0067H19.9659V6.9237C19.9653 6.41711 19.7638 5.93144 19.4057 5.5732C19.0475 5.21496 18.5618 5.01339 18.0553 5.0127H3.40579C2.89918 5.0133 2.41349 5.21485 2.0553 5.57311C1.6971 5.93137 1.49564 6.41708 1.49512 6.9237V35.0768C1.49564 35.5834 1.6971 36.0691 2.0553 36.4274C2.41349 36.7857 2.89918 36.9872 3.40579 36.9878H18.0559C18.5625 36.9871 19.0481 36.7856 19.4063 36.4273C19.7645 36.0691 19.966 35.5834 19.9666 35.0768V29.1551H22.0338V35.0768C22.0344 35.5834 22.2359 36.0691 22.594 36.4273C22.9522 36.7856 23.4379 36.9871 23.9444 36.9878H38.5939C39.1005 36.9872 39.5862 36.7857 39.9444 36.4274C40.3026 36.0691 40.5041 35.5834 40.5046 35.0768V6.9237C40.5039 6.4172 40.3024 5.93165 39.9442 5.57353C39.586 5.21541 39.1004 5.01396 38.5939 5.01335ZM13.9452 6.16179L13.5248 7.62424C13.4948 7.72716 13.4322 7.81759 13.3465 7.88205C13.2608 7.94651 13.1566 7.98153 13.0494 7.9819H8.41134C8.30411 7.98153 8.19988 7.94651 8.1142 7.88205C8.02851 7.81759 7.96596 7.72716 7.93588 7.62424L7.51555 6.16179H13.9452ZM18.0549 35.8387H3.40579C3.20377 35.8385 3.01009 35.7581 2.86721 35.6153C2.72433 35.4725 2.6439 35.2788 2.64355 35.0768V34.0193H18.8181V35.0768C18.8178 35.2788 18.7374 35.4725 18.5945 35.6153C18.4516 35.7581 18.2579 35.8385 18.0559 35.8387H18.0549ZM18.8172 32.8702H2.64355V6.9237C2.64373 6.72156 2.72408 6.52775 2.86698 6.38479C3.00988 6.24183 3.20366 6.16139 3.40579 6.16113H6.32085L6.8324 7.94088C6.93195 8.28295 7.13955 8.5836 7.42415 8.79788C7.70876 9.01217 8.05508 9.12857 8.41134 9.12968H13.0504C13.4066 9.12857 13.7529 9.01217 14.0376 8.79788C14.3222 8.5836 14.5298 8.28295 14.6293 7.94088L15.1412 6.16113H18.0559C18.258 6.16139 18.4518 6.24183 18.5947 6.38479C18.7376 6.52775 18.818 6.72156 18.8181 6.9237V28.0067H13.0845C12.9441 27.4305 12.5974 26.9258 12.11 26.588C11.6225 26.2502 11.0282 26.1027 10.4394 26.1734C9.85065 26.2441 9.30818 26.5282 8.91464 26.9718C8.5211 27.4154 8.30377 27.9879 8.30377 28.5809C8.30377 29.174 8.5211 29.7464 8.91464 30.1901C9.30818 30.6337 9.85065 30.9177 10.4394 30.9885C11.0282 31.0592 11.6225 30.9117 12.11 30.5739C12.5974 30.236 12.9441 29.7313 13.0845 29.1551H18.8181L18.8172 32.8702ZM12.0092 28.5799C12.0094 28.8324 11.9348 29.0792 11.7947 29.2892C11.6547 29.4992 11.4555 29.663 11.2224 29.7599C10.9893 29.8568 10.7327 29.8824 10.4851 29.8335C10.2375 29.7845 10.0099 29.6633 9.8311 29.4851C9.65233 29.3069 9.5304 29.0797 9.48072 28.8322C9.43105 28.5847 9.45585 28.328 9.552 28.0946C9.64816 27.8612 9.81134 27.6616 10.0209 27.5209C10.2305 27.3802 10.4771 27.3048 10.7295 27.3042C11.0684 27.3038 11.3935 27.4379 11.6335 27.6771C11.8735 27.9164 12.0086 28.2411 12.0092 28.5799ZM34.4858 6.1608L34.0651 7.62326C34.0352 7.72618 33.9727 7.81663 33.887 7.8811C33.8014 7.94557 33.6972 7.98058 33.59 7.98091H28.9493C28.8421 7.98055 28.7379 7.94552 28.6522 7.88107C28.5665 7.81661 28.504 7.72618 28.4739 7.62326L28.0545 6.16179L34.4858 6.1608ZM29.9373 30.8374C29.9906 30.8908 30.0539 30.9331 30.1236 30.962C30.1933 30.9909 30.268 31.0058 30.3434 31.0058C30.4188 31.0058 30.4935 30.9909 30.5632 30.962C30.6328 30.9331 30.6961 30.8908 30.7494 30.8374L32.6001 28.9868C32.6534 28.9335 32.6958 28.8702 32.7246 28.8005C32.7535 28.7309 32.7684 28.6562 32.7684 28.5808C32.7684 28.5053 32.7535 28.4307 32.7246 28.361C32.6958 28.2913 32.6534 28.228 32.6001 28.1747L30.7494 26.3241C30.6961 26.2708 30.6328 26.2285 30.5631 26.1996C30.4935 26.1707 30.4188 26.1559 30.3434 26.1559C30.268 26.1559 30.1933 26.1707 30.1236 26.1996C30.0539 26.2285 29.9906 26.2708 29.9373 26.3241C29.884 26.3774 29.8417 26.4407 29.8128 26.5104C29.784 26.5801 29.7691 26.6547 29.7691 26.7301C29.7691 26.8056 29.784 26.8802 29.8128 26.9499C29.8417 27.0196 29.884 27.0829 29.9373 27.1362L30.8082 28.007H23.1816V6.9237C23.1817 6.72156 23.2621 6.52775 23.405 6.38479C23.5479 6.24183 23.7417 6.16139 23.9438 6.16113H26.8585L27.3704 7.94088C27.4699 8.28295 27.6775 8.5836 27.9622 8.79788C28.2468 9.01217 28.5931 9.12857 28.9493 9.12968H33.5884C33.9446 9.12851 34.2909 9.01209 34.5755 8.79782C34.8601 8.58354 35.0677 8.28292 35.1673 7.94088L35.6789 6.16113H38.5939C38.796 6.16139 38.9898 6.24183 39.1327 6.38479C39.2756 6.52775 39.356 6.72156 39.3561 6.9237V32.8695H23.1816V29.1551H30.8082L29.9373 30.0257C29.8297 30.1333 29.7693 30.2793 29.7693 30.4316C29.7693 30.5838 29.8297 30.7298 29.9373 30.8374ZM38.5939 35.8387H23.9438C23.7417 35.8385 23.5479 35.758 23.405 35.6151C23.2621 35.4721 23.1817 35.2783 23.1816 35.0762V34.0186H39.3561V35.0768C39.3558 35.2788 39.2754 35.4725 39.1325 35.6153C38.9896 35.7581 38.7959 35.8385 38.5939 35.8387Z" fill="#FEAA64"/>
<path d="M5.08203 16.3245H16.3797C16.4551 16.3246 16.5298 16.3098 16.5994 16.2809C16.6691 16.2521 16.7324 16.2098 16.7857 16.1566C16.839 16.1033 16.8813 16.04 16.9102 15.9703C16.9391 15.9007 16.9539 15.826 16.9539 15.7506V11.5693C16.954 11.4939 16.9391 11.4192 16.9103 11.3495C16.8815 11.2799 16.8392 11.2165 16.7858 11.1632C16.7325 11.1099 16.6692 11.0676 16.5995 11.0387C16.5298 11.0099 16.4551 10.9951 16.3797 10.9951H5.08203C5.00661 10.9951 4.93192 11.0099 4.86224 11.0387C4.79255 11.0676 4.72923 11.1099 4.6759 11.1632C4.62257 11.2165 4.58028 11.2799 4.55143 11.3495C4.52259 11.4192 4.50777 11.4939 4.50781 11.5693V15.7506C4.50781 15.826 4.52267 15.9007 4.55153 15.9703C4.58039 16.04 4.62269 16.1033 4.67602 16.1566C4.72934 16.2098 4.79265 16.2521 4.86231 16.2809C4.93198 16.3098 5.00664 16.3246 5.08203 16.3245ZM5.65625 12.1436H15.8055V15.1761H5.65625V12.1436Z" fill="#FEAA64"/>
<path d="M37.492 23.0911V11.5693C37.492 11.417 37.4315 11.271 37.3238 11.1633C37.2161 11.0556 37.0701 10.9951 36.9178 10.9951H25.6201C25.5447 10.9951 25.47 11.0099 25.4003 11.0387C25.3306 11.0676 25.2673 11.1099 25.214 11.1632C25.1607 11.2165 25.1184 11.2799 25.0895 11.3495C25.0607 11.4192 25.0459 11.4939 25.0459 11.5693V23.0911C25.0459 23.1665 25.0607 23.2412 25.0895 23.3109C25.1184 23.3806 25.1607 23.4439 25.214 23.4972C25.2673 23.5506 25.3306 23.5929 25.4003 23.6217C25.47 23.6506 25.5447 23.6654 25.6201 23.6653H36.9178C37.0701 23.6653 37.2161 23.6048 37.3238 23.4972C37.4315 23.3895 37.492 23.2434 37.492 23.0911ZM36.3436 22.5169H26.1943V12.1436H36.3436V22.5169Z" fill="#FEAA64"/>
<path d="M16.9539 23.0908C16.954 23.0154 16.9391 22.9407 16.9103 22.871C16.8815 22.8013 16.8392 22.738 16.7858 22.6847C16.7325 22.6314 16.6692 22.5891 16.5995 22.5602C16.5298 22.5314 16.4551 22.5166 16.3797 22.5166H5.08203C4.92974 22.5166 4.78368 22.5771 4.676 22.6848C4.56831 22.7925 4.50781 22.9385 4.50781 23.0908C4.50781 23.2431 4.56831 23.3892 4.676 23.4969C4.78368 23.6045 4.92974 23.665 5.08203 23.665H16.3797C16.4551 23.6651 16.5298 23.6503 16.5995 23.6214C16.6692 23.5926 16.7325 23.5503 16.7858 23.4969C16.8392 23.4436 16.8815 23.3803 16.9103 23.3106C16.9391 23.2409 16.954 23.1662 16.9539 23.0908Z" fill="#FEAA64"/>
<path d="M5.08203 19.9941H16.3797C16.532 19.9941 16.6781 19.9336 16.7857 19.826C16.8934 19.7183 16.9539 19.5722 16.9539 19.4199C16.9539 19.2676 16.8934 19.1216 16.7857 19.0139C16.6781 18.9062 16.532 18.8457 16.3797 18.8457H5.08203C4.92974 18.8457 4.78368 18.9062 4.676 19.0139C4.56831 19.1216 4.50781 19.2676 4.50781 19.4199C4.50781 19.5722 4.56831 19.7183 4.676 19.826C4.78368 19.9336 4.92974 19.9941 5.08203 19.9941Z" fill="#FEAA64"/>
</svg>
