<svg width="42" height="42" viewBox="0 0 42 42" fill="none" xmlns="http://www.w3.org/2000/svg">
<g clip-path="url(#clip0_6_134)">
<path d="M40.5614 26.6559H39.9445V5.34483C39.9445 4.09853 38.9305 3.08454 37.6842 3.08454H24.9655V1.43834C24.9655 0.645258 24.3202 0 23.5272 0H18.4724C17.6793 0 17.0341 0.645258 17.0341 1.43834V3.08454H12.6855C12.345 3.08454 12.069 3.36049 12.069 3.701C12.069 4.04152 12.345 4.31747 12.6855 4.31747H37.6843C38.2508 4.31747 38.7117 4.77832 38.7117 5.34491V26.656H29.003C28.6625 26.656 28.3865 26.9319 28.3865 27.2724C28.3865 27.6129 28.6625 27.8889 29.003 27.8889H40.5614C40.6748 27.8889 40.7669 27.981 40.7669 28.0944V29.5351C40.7669 29.6485 40.6748 29.7406 40.5614 29.7406H7.67848C7.33796 29.7406 7.06201 30.0165 7.06201 30.3571C7.06201 30.6976 7.33796 30.9735 7.67848 30.9735H11.2608L9.19015 41.2622C9.15373 41.4433 9.2004 41.6314 9.31754 41.7743C9.4346 41.9174 9.60966 42.0002 9.79447 42.0002H13.4924C13.7859 42.0002 14.0389 41.7933 14.0968 41.5054L14.7725 38.1478H27.2653L27.941 41.5054C27.999 41.7933 28.2518 42.0002 28.5453 42.0002H32.2433C32.4281 42.0002 32.6033 41.9173 32.7202 41.7743C32.8374 41.6314 32.8841 41.4434 32.8476 41.2622L30.777 30.9735H40.5614C41.3545 30.9735 41.9998 30.3283 41.9998 29.5352V28.0945C41.9998 27.3011 41.3545 26.6559 40.5614 26.6559ZM18.2669 1.43834C18.2669 1.32497 18.359 1.23285 18.4724 1.23285H23.5272C23.6405 1.23285 23.7326 1.32497 23.7326 1.43834V3.08454H18.2669V1.43834ZM25.8214 30.9733L26.4873 34.282H15.5504L16.2164 30.9733H25.8214ZM12.9877 40.7672H10.5474L12.5184 30.9734H14.9588L12.9877 40.7672ZM15.0206 36.9147L15.3023 35.5149H26.7354L27.0171 36.9147H15.0206ZM31.4903 40.7672H29.0499L27.0789 30.9734H29.5193L31.4903 40.7672Z" fill="#44F4FF"/>
<path d="M5.21292 29.74H1.43834C1.32497 29.74 1.23285 29.6478 1.23285 29.5345V28.0938C1.23285 27.9804 1.32497 27.8883 1.43834 27.8883H26.5374C26.8779 27.8883 27.1539 27.6123 27.1539 27.2718C27.1539 26.9313 26.8779 26.6553 26.5374 26.6553H3.28806V5.34436C3.28806 4.77785 3.74891 4.31691 4.31542 4.31691H10.2199C10.5605 4.31691 10.8364 4.04096 10.8364 3.70045C10.8364 3.35994 10.5605 3.08398 10.2199 3.08398H4.3155C3.0692 3.08398 2.05521 4.09797 2.05521 5.34427V26.6553H1.43834C0.645258 26.6554 0 27.3007 0 28.0938V29.5345C0 30.3275 0.645258 30.9728 1.43834 30.9728H5.21292C5.55343 30.9728 5.82939 30.6969 5.82939 30.3563C5.82939 30.0158 5.55343 29.74 5.21292 29.74Z" fill="#44F4FF"/>
<path d="M14.8707 10.4828C14.627 10.245 14.2366 10.25 13.999 10.4938L11.9976 12.5461L11.157 11.7287C10.9128 11.4913 10.5227 11.4969 10.2853 11.741C10.048 11.985 10.0534 12.3753 10.2976 12.6126L11.5794 13.8592C11.6991 13.9757 11.8542 14.0336 12.0091 14.0336C12.1694 14.0336 12.3296 13.9715 12.4505 13.8476L14.8817 11.3546C15.1193 11.1107 15.1144 10.7205 14.8707 10.4828Z" fill="#44F4FF"/>
<path d="M17.1835 12.0588C17.1835 9.5224 15.12 7.45898 12.5837 7.45898C10.0473 7.45898 7.98389 9.52248 7.98389 12.0588C7.98389 14.5952 10.0474 16.6586 12.5837 16.6586C15.1201 16.6586 17.1835 14.5952 17.1835 12.0588ZM12.5837 15.4258C10.7272 15.4258 9.21673 13.9153 9.21673 12.0588C9.21673 10.2023 10.7272 8.69183 12.5837 8.69183C14.4402 8.69183 15.9507 10.2023 15.9507 12.0588C15.9507 13.9153 14.4402 15.4258 12.5837 15.4258Z" fill="#44F4FF"/>
<path d="M14.3992 19.5819C14.1583 19.3412 13.7681 19.3412 13.5274 19.5819L12.5837 20.5256L11.64 19.5819C11.3992 19.3412 11.0089 19.3412 10.7682 19.5819C10.5275 19.8226 10.5275 20.2129 10.7682 20.4537L11.7118 21.3974L10.7682 22.3411C10.5275 22.5818 10.5275 22.9721 10.7682 23.2129C10.8886 23.3332 11.0463 23.3935 11.2041 23.3935C11.3618 23.3935 11.5196 23.3332 11.64 23.2129L12.5837 22.2692L13.5274 23.2129C13.6478 23.3332 13.8055 23.3935 13.9633 23.3935C14.121 23.3935 14.2788 23.3332 14.3992 23.2129C14.6399 22.9721 14.6399 22.5818 14.3992 22.3411L13.4555 21.3974L14.3992 20.4537C14.6399 20.2129 14.6399 19.8227 14.3992 19.5819Z" fill="#44F4FF"/>
<path d="M33.1993 19.5819C32.9585 19.3412 32.5682 19.3412 32.3275 19.5819L31.3838 20.5256L30.4401 19.5819C30.1993 19.3412 29.809 19.3412 29.5683 19.5819C29.3275 19.8226 29.3275 20.2129 29.5683 20.4537L30.512 21.3974L29.5683 22.3411C29.3275 22.5818 29.3275 22.9721 29.5683 23.2129C29.6887 23.3332 29.8464 23.3935 30.0042 23.3935C30.1619 23.3935 30.3197 23.3332 30.4401 23.2129L31.3838 22.2692L32.3275 23.2129C32.4479 23.3332 32.6056 23.3935 32.7634 23.3935C32.9211 23.3935 33.0789 23.3332 33.1993 23.2129C33.4401 22.9721 33.4401 22.5818 33.1993 22.3411L32.2556 21.3974L33.1993 20.4537C33.4401 20.2129 33.4401 19.8227 33.1993 19.5819Z" fill="#44F4FF"/>
<path d="M20.538 13.9863C20.6584 14.1067 20.8162 14.1669 20.9739 14.1669C21.1317 14.1669 21.2894 14.1067 21.4098 13.9863L22.3535 13.0426L23.2972 13.9863C23.4176 14.1067 23.5753 14.1669 23.7331 14.1669C23.8909 14.1669 24.0486 14.1067 24.169 13.9863C24.4097 13.7456 24.4097 13.3552 24.169 13.1145L23.2253 12.1708L24.169 11.2271C24.4097 10.9863 24.4097 10.596 24.169 10.3553C23.9283 10.1147 23.538 10.1147 23.2972 10.3553L22.3535 11.299L21.4098 10.3553C21.1691 10.1147 20.7788 10.1146 20.538 10.3553C20.2973 10.596 20.2973 10.9863 20.538 11.2271L21.4817 12.1708L20.538 13.1145C20.2972 13.3552 20.2972 13.7456 20.538 13.9863Z" fill="#44F4FF"/>
<path d="M19.7415 21.3974C19.7415 22.8377 20.9133 24.0095 22.3537 24.0095C23.794 24.0095 24.9658 22.8377 24.9658 21.3974C24.9658 19.9571 23.794 18.7852 22.3537 18.7852C20.9134 18.7852 19.7415 19.9571 19.7415 21.3974ZM23.7328 21.3974C23.7328 22.1579 23.1141 22.7766 22.3536 22.7766C21.5931 22.7766 20.9743 22.1579 20.9743 21.3974C20.9743 20.6368 21.5931 20.0181 22.3536 20.0181C23.1141 20.0181 23.7328 20.6368 23.7328 21.3974Z" fill="#44F4FF"/>
<path d="M18.4123 16.7401C18.3516 17.0751 18.574 17.3958 18.909 17.4565C19.0098 17.4747 20.0736 17.6604 21.5535 17.6604C23.5814 17.6604 26.3906 17.3116 28.5712 15.7053C30.3492 14.3956 31.4045 12.4748 31.708 9.99603C31.7495 9.65814 31.5089 9.35061 31.1711 9.30927C30.8341 9.26817 30.5257 9.50836 30.4843 9.84624C30.2239 11.973 29.3356 13.6093 27.844 14.7097C24.5047 17.1735 19.1818 16.2529 19.1284 16.2433C18.7939 16.1832 18.473 16.4051 18.4123 16.7401Z" fill="#44F4FF"/>
</g>
<defs>
<clipPath id="clip0_6_134">
<rect width="42" height="42" fill="white"/>
</clipPath>
</defs>
</svg>
