<svg width="42" height="42" viewBox="0 0 42 42" fill="none" xmlns="http://www.w3.org/2000/svg">
<path fill-rule="evenodd" clip-rule="evenodd" d="M19.4703 40.7273C20.2929 40.7273 20.9635 40.0573 20.9635 39.2324C20.9635 38.4076 20.2929 37.7365 19.4703 37.7365C18.6477 37.7365 17.9715 38.4076 17.9715 39.2324C17.9715 40.0573 18.6477 40.7273 19.4703 40.7273ZM9.7731 11.4686L9.86886 12.6418L10.2408 12.6012C11.4461 12.4688 12.5415 13.3477 12.6693 14.5496C12.7313 15.1328 12.5678 15.7075 12.196 16.1672C12.196 16.1706 12.1904 16.1751 12.1847 16.1785C12.1903 16.1819 12.196 16.1842 12.2016 16.1876C12.658 16.556 12.9454 17.0801 13.013 17.6633C13.075 18.2471 12.9059 18.8212 12.5397 19.2815C12.534 19.2843 12.534 19.2889 12.5284 19.2922C12.534 19.2956 12.5397 19.2984 12.5397 19.3007C13.5041 20.071 13.6453 21.4588 12.8722 22.4071C12.8778 22.4099 12.8835 22.4122 12.8835 22.415C13.3454 22.784 13.6329 23.3081 13.6948 23.8913C13.7286 24.1623 13.7061 24.4323 13.6385 24.6897L13.9878 27.8017L15.0585 30.0273C15.2137 30.3399 15.6002 30.4809 15.9205 30.3271C16.1516 30.2134 16.2136 30.1018 16.236 30.0285C16.3149 29.7879 16.1966 29.4047 16.0275 29.0256L15.4359 27.8366L15.402 27.6658L15.1147 23.5008C15.0921 23.1503 15.357 22.8466 15.7063 22.8224C16.0612 22.7976 16.3598 23.0624 16.3881 23.4135L16.6642 27.4626L16.8163 27.7527C16.9402 27.9899 17.0755 28.2458 17.1938 28.5123L18.2419 30.5993C18.615 31.3504 19.6319 31.1093 19.7971 30.5853C19.8704 30.3509 19.8196 30.0353 19.7126 29.695L18.6364 27.4997L18.5857 27.3453L18.4505 23.4783C18.4392 23.1267 18.7153 22.8325 19.0646 22.8214C19.414 22.8084 19.7126 23.0845 19.7239 23.4355L19.8422 27.0613C19.9155 27.2044 20 27.3651 20.0957 27.5324C20.3775 28.0514 20.693 28.6334 20.8959 29.2245L21.6227 30.7165C21.8873 31.2549 22.6244 31.3789 23.0483 30.8946C22.3517 29.7823 22.061 28.3064 21.6622 27.0619C21.2621 25.8099 20.924 19.0513 21.0818 16.4187H18.7153C17.47 16.4187 16.4558 15.4062 16.4558 14.1626V13.9919C16.4558 12.7478 17.47 11.7353 18.7153 11.7353H22.5693C23.3705 11.7353 23.7608 12.0709 24.378 12.4841L23.437 10.1266C23.1215 9.32593 22.6368 8.73146 21.9213 8.25414L20.2422 7.13627C19.5097 6.64719 18.9688 6.0612 18.5405 5.29152L17.2277 2.92781C13.7999 3.80038 10.755 5.61581 8.33634 8.26089C9.19271 9.16403 9.66607 10.2143 9.7731 11.4686ZM8.20675 14.3805C8.3645 14.185 8.58426 14.0639 8.83217 14.0369L10.3761 13.8661C10.6285 13.8396 10.8609 13.9078 11.0579 14.0662C11.7171 14.5962 11.3846 15.6261 10.5846 15.7149L9.03515 15.8856C8.52245 15.9419 8.06596 15.5729 8.00965 15.0624C7.9813 14.8172 8.0489 14.5755 8.20675 14.3805ZM9.03496 24.4045C8.97864 23.8946 9.35047 23.4348 9.85758 23.3778L11.4071 23.2082C11.647 23.1791 11.896 23.2526 12.0889 23.4082C12.7444 23.9374 12.4125 24.9686 11.6099 25.0558L10.0605 25.2264C9.55335 25.2824 9.09137 24.9144 9.03496 24.4045ZM11.5086 28.8496C11.2776 28.3762 11.1648 27.9519 11.1198 27.4291L11.0296 26.4002C11.5468 26.3436 12.0457 26.3328 12.5172 26.0915L12.737 28.0512C12.7444 28.1848 12.876 28.4858 12.9229 28.6028C13.4187 29.8425 13.3624 30.1208 12.9342 30.327C12.613 30.4814 12.2299 30.3462 12.0777 30.0272L11.5086 28.8496ZM8.69129 21.2902C8.63498 20.7809 9.0069 20.3205 9.51391 20.2647L11.0634 20.0939C11.3066 20.0663 11.5484 20.138 11.7451 20.2945C12.3926 20.8097 12.0847 21.853 11.2662 21.9426L9.7167 22.1128C9.21209 22.1687 8.74973 21.7981 8.69129 21.2902ZM8.34763 18.1766C8.30009 17.6595 8.66931 17.2054 9.17024 17.1505L10.7197 16.9803C10.9616 16.9509 11.2061 17.0252 11.4016 17.1804C12.0481 17.6938 11.7433 18.7389 10.9226 18.8291L9.37872 18.9999C8.86901 19.0546 8.40625 18.6871 8.34763 18.1766ZM25.1442 31.0054C24.7273 30.7834 24.3611 30.5907 24.1526 30.2605C23.5319 29.2918 23.2551 27.8404 22.8792 26.6729C22.4791 25.444 22.1297 17.3883 22.4115 15.8985C22.483 15.5127 22.1788 15.1457 21.7861 15.1457H18.7153C18.1687 15.1457 17.7292 14.7045 17.7292 14.1624V13.9917C17.7292 13.4497 18.1687 13.0073 18.7153 13.0073H22.5693C22.7778 13.0073 22.9413 13.0575 23.1159 13.173L27.6292 16.1819C28.4856 16.7538 29.0322 17.5144 29.297 18.5107L30.2661 22.1383C30.4859 22.9569 30.8465 23.6348 31.4044 24.2732L36.7572 30.3879C35.4951 32.3127 33.8666 33.9979 31.9396 35.3328C31.0957 35.9204 30.4361 36.2897 29.5224 36.7476L26.6262 32.1943C26.2317 31.5785 25.657 31.2736 25.1442 31.0054ZM27.4996 1.27284C26.6769 1.27284 26.0064 1.94397 26.0064 2.7688C26.0064 3.59364 26.6769 4.26419 27.4996 4.26419C28.3279 4.26419 28.9983 3.59364 28.9983 2.7688C28.9983 1.94397 28.3279 1.27284 27.4996 1.27284ZM6.60085 8.28057C7.0879 7.67655 7.56734 7.16857 8.11659 6.62453L8.35322 6.39629C10.4098 4.45743 12.8722 2.98287 15.5486 2.09372C15.5543 2.09198 15.5599 2.08976 15.5599 2.08813C16.198 1.88466 16.7559 1.72103 17.4137 1.57484C17.6898 1.51458 17.9715 1.64128 18.1068 1.88756L19.6563 4.67275C19.9831 5.26665 20.3832 5.70047 20.9523 6.0775L22.6258 7.19538C23.5555 7.81405 24.2091 8.61806 24.6204 9.65436L26.2432 13.7287L28.3392 15.1227C29.4493 15.8637 30.1874 16.8931 30.5311 18.1828L31.4946 21.8098C31.6637 22.442 31.9341 22.9424 32.3624 23.4348L37.4447 29.2458C38.9098 26.6094 39.7267 23.5999 39.7267 20.4677C39.7267 13.6296 35.8557 7.38524 29.7929 4.32176C29.2914 5.0548 28.4519 5.53654 27.4997 5.53654C25.9726 5.53654 24.7331 4.29524 24.7331 2.7688C24.7331 1.24236 25.9726 0 27.4997 0C29.1961 0 30.4741 1.52837 30.2437 3.12549C36.8022 6.38221 41 13.1026 41 20.4676C41 28.1074 36.4936 35.0329 29.5449 38.141C29.2613 38.2679 28.9216 38.1725 28.7504 37.902L25.55 32.8782C25.2452 32.3965 24.5166 32.1507 23.9498 31.7902C23.0387 32.7806 21.4462 32.6665 20.6704 31.5891C19.7565 32.6748 17.8578 32.6522 17.1037 31.1631L17.053 31.0673C16.2455 31.8805 14.9042 31.8694 14.1624 30.9659C13.2593 32.0115 11.5541 31.8672 10.9281 30.5804L10.359 29.4017C9.85767 28.3585 9.85699 27.5958 9.76172 26.4966C8.02421 26.3411 7.1286 24.287 8.25168 22.9147C7.80658 22.5614 7.49666 22.038 7.42906 21.4294C7.36147 20.8203 7.54738 20.2416 7.90801 19.7993C7.90801 19.7971 7.90233 19.7948 7.89673 19.792C7.44035 19.423 7.1473 18.8984 7.0854 18.3157C6.97836 17.3095 7.56435 16.71 7.56435 16.6874C6.05247 15.4874 6.71492 13.0644 8.60672 12.7825L8.49969 11.5761C8.42641 10.6684 8.09961 9.90044 7.50235 9.23664C5.02311 12.3615 3.5581 16.2934 3.5581 20.4675C3.5581 28.7537 9.06311 35.8645 17.0135 37.9538C17.4755 37.0692 18.4052 36.4635 19.4702 36.4635C20.9972 36.4635 22.2368 37.7059 22.2368 39.2323C22.2368 40.7586 20.9972 42 19.4702 42C17.9367 42 16.7036 40.772 16.7036 39.1866C8.22565 36.9503 2.28469 29.256 2.28469 20.4674C2.28478 16.0399 3.81739 11.712 6.60085 8.28057Z" fill="#FC61FF"/>
</svg>
