<svg width="42" height="42" viewBox="0 0 42 42" fill="none" xmlns="http://www.w3.org/2000/svg">
<path d="M24.6209 41.3636H4.79822C3.16276 41.3636 1.83276 40.0273 1.83276 38.3918V10.5573C1.83276 8.9218 3.16276 7.5918 4.79822 7.5918H5.88004C6.14095 7.5918 6.35731 7.80816 6.35731 8.06907C6.35731 8.32998 6.14095 8.54634 5.88004 8.54634H4.79822C3.69095 8.54634 2.78731 9.44998 2.78731 10.5573V38.3918C2.78731 39.5054 3.69095 40.4091 4.79822 40.4091H24.6209C25.7346 40.4091 26.6382 39.5054 26.6382 38.3918V37.3163C26.6382 37.0554 26.8546 36.8391 27.1155 36.8391C27.3764 36.8391 27.5928 37.0554 27.5928 37.3163V38.3918C27.5928 40.0273 26.2628 41.3636 24.6209 41.3636Z" fill="#CC61FF"/>
<path d="M28.1974 37.7938H8.3683C6.72648 37.7938 5.39648 36.4638 5.39648 34.822V6.98744C5.39648 5.34562 6.72648 4.01562 8.3683 4.01562L23.5901 4.06653C23.851 4.06653 24.0674 4.2829 24.0674 4.54381C24.0674 4.80472 23.851 5.02108 23.5901 5.02108L8.3683 4.97017C7.25467 4.97017 6.35103 5.87381 6.35103 6.98744V34.822C6.35103 35.9356 7.25467 36.8393 8.3683 36.8393H28.191C29.3047 36.8393 30.2083 35.9356 30.2083 34.822V14.2802C30.2083 14.0193 30.4247 13.8029 30.6856 13.8029C30.9465 13.8029 31.1628 14.0193 31.1628 14.2802V34.822C31.1692 36.4574 29.8328 37.7938 28.1974 37.7938Z" fill="#CC61FF"/>
<path d="M18.2827 15.6101H9.0554C8.79449 15.6101 8.57812 15.3937 8.57812 15.1328V8.41282C8.57812 8.15191 8.79449 7.93555 9.0554 7.93555H18.2827C18.5436 7.93555 18.7599 8.15191 18.7599 8.41282V15.1328C18.7599 15.3937 18.5436 15.6101 18.2827 15.6101ZM9.53267 14.6555H17.8054V8.89009H9.53267V14.6555Z" fill="#CC61FF"/>
<path d="M27.5099 33.8733H20.1408C19.8799 33.8733 19.6636 33.657 19.6636 33.3961V27.4333C19.6636 27.1724 19.8799 26.9561 20.1408 26.9561H27.5163C27.7772 26.9561 27.9936 27.1724 27.9936 27.4333V33.3961C27.9872 33.657 27.7772 33.8733 27.5099 33.8733ZM20.6181 32.9188H27.039V27.9106H20.6181V32.9188Z" fill="#CC61FF"/>
<path d="M27.389 18.9702H14.9927C14.7317 18.9702 14.5154 18.7538 14.5154 18.4929C14.5154 18.232 14.7317 18.0156 14.9927 18.0156H27.389C27.6499 18.0156 27.8663 18.232 27.8663 18.4929C27.8663 18.7538 27.6563 18.9702 27.389 18.9702Z" fill="#CC61FF"/>
<path d="M12.619 18.9702H9.0554C8.79449 18.9702 8.57812 18.7538 8.57812 18.4929C8.57812 18.232 8.79449 18.0156 9.0554 18.0156H12.619C12.8799 18.0156 13.0963 18.232 13.0963 18.4929C13.0963 18.7538 12.8799 18.9702 12.619 18.9702Z" fill="#CC61FF"/>
<path d="M27.3891 21.9487H19.4155C19.1546 21.9487 18.9382 21.7323 18.9382 21.4714C18.9382 21.2105 19.1546 20.9941 19.4155 20.9941H27.3891C27.6501 20.9941 27.8664 21.2105 27.8664 21.4714C27.8664 21.7323 27.6564 21.9487 27.3891 21.9487Z" fill="#CC61FF"/>
<path d="M17.029 21.9487H9.0554C8.79449 21.9487 8.57812 21.7323 8.57812 21.4714C8.57812 21.2105 8.79449 20.9941 9.0554 20.9941H17.029C17.2899 20.9941 17.5063 21.2105 17.5063 21.4714C17.5063 21.7323 17.2899 21.9487 17.029 21.9487Z" fill="#CC61FF"/>
<path d="M27.3891 24.9331H19.4155C19.1546 24.9331 18.9382 24.7167 18.9382 24.4558C18.9382 24.1949 19.1546 23.9785 19.4155 23.9785H27.3891C27.6501 23.9785 27.8664 24.1949 27.8664 24.4558C27.8664 24.7167 27.6564 24.9331 27.3891 24.9331Z" fill="#CC61FF"/>
<path d="M16.7299 24.9331H9.0554C8.79449 24.9331 8.57812 24.7167 8.57812 24.4558C8.57812 24.1949 8.79449 23.9785 9.0554 23.9785H16.7363C16.9972 23.9785 17.2136 24.1949 17.2136 24.4558C17.2136 24.7167 16.9972 24.9331 16.7299 24.9331Z" fill="#CC61FF"/>
<path d="M17.0672 27.9106H9.0554C8.79449 27.9106 8.57812 27.6942 8.57812 27.4333C8.57812 27.1724 8.79449 26.9561 9.0554 26.9561H17.0672C17.3281 26.9561 17.5445 27.1724 17.5445 27.4333C17.5445 27.6942 17.3281 27.9106 17.0672 27.9106Z" fill="#CC61FF"/>
<path d="M17.0673 30.8891H14.3564C14.0955 30.8891 13.8792 30.6728 13.8792 30.4118C13.8792 30.1509 14.0955 29.9346 14.3564 29.9346H17.0673C17.3282 29.9346 17.5446 30.1509 17.5446 30.4118C17.5446 30.6728 17.3282 30.8891 17.0673 30.8891Z" fill="#CC61FF"/>
<path d="M11.76 30.8891H9.04905C8.78814 30.8891 8.57178 30.6728 8.57178 30.4118C8.57178 30.1509 8.78814 29.9346 9.04905 29.9346H11.76C12.0209 29.9346 12.2372 30.1509 12.2372 30.4118C12.2372 30.6728 12.0272 30.8891 11.76 30.8891Z" fill="#CC61FF"/>
<path d="M17.0672 33.8735H9.0554C8.79449 33.8735 8.57812 33.6571 8.57812 33.3962C8.57812 33.1353 8.79449 32.9189 9.0554 32.9189H17.0672C17.3281 32.9189 17.5445 33.1353 17.5445 33.3962C17.5445 33.6571 17.3281 33.8735 17.0672 33.8735Z" fill="#CC61FF"/>
<path d="M31.1119 14.764C29.6037 14.764 28.1783 14.4904 26.8674 13.9431L21.9674 13.9749C21.7892 13.9749 21.6301 13.8794 21.5474 13.7267C21.4646 13.574 21.471 13.3831 21.5665 13.2367L23.0746 10.9649C22.4064 9.95945 22.0565 8.83945 22.0565 7.70036C22.0628 3.80581 26.1228 0.636719 31.1119 0.636719C36.1074 0.636719 40.1737 3.80581 40.1737 7.70036C40.1737 11.5949 36.1074 14.764 31.1119 14.764ZM27.3065 13.0967C28.4774 13.574 29.7564 13.8158 31.1119 13.8158C35.5792 13.8158 39.2192 11.0731 39.2192 7.70672C39.2192 4.34035 35.5855 1.59763 31.1119 1.59763C26.6446 1.59763 23.0174 4.34035 23.0174 7.70672C23.0174 8.75035 23.3546 9.73672 24.0228 10.6467C24.1119 10.7549 24.1564 10.8949 24.131 11.0349C24.1183 11.1049 24.0928 11.1749 24.0546 11.2322L22.8646 13.0204L27.0137 12.9949C27.1155 12.9822 27.2237 13.0267 27.3065 13.0967Z" fill="#CC61FF"/>
<path d="M34.2363 5.32076H27.4209C27.16 5.32076 26.9436 5.10439 26.9436 4.84348C26.9436 4.58257 27.16 4.36621 27.4209 4.36621H34.2363C34.4972 4.36621 34.7136 4.58257 34.7136 4.84348C34.7136 5.10439 34.5036 5.32076 34.2363 5.32076Z" fill="#CC61FF"/>
<path d="M34.2363 8.1772H27.4209C27.16 8.1772 26.9436 7.96084 26.9436 7.69993C26.9436 7.43902 27.16 7.22266 27.4209 7.22266H34.2363C34.4972 7.22266 34.7136 7.43902 34.7136 7.69993C34.7136 7.96084 34.5036 8.1772 34.2363 8.1772Z" fill="#CC61FF"/>
<path d="M30.6981 11.0346H27.4209C27.16 11.0346 26.9436 10.8183 26.9436 10.5574C26.9436 10.2964 27.16 10.0801 27.4209 10.0801H30.6981C30.9591 10.0801 31.1754 10.2964 31.1754 10.5574C31.1754 10.8183 30.9654 11.0346 30.6981 11.0346Z" fill="#CC61FF"/>
</svg>
