<svg width="42" height="42" viewBox="0 0 42 42" fill="none" xmlns="http://www.w3.org/2000/svg">
<path d="M4.08516 21.8366C4.30939 22.0608 4.67288 22.0608 4.89711 21.8366L6.07024 20.6637V29.6132C6.07024 29.9302 6.32749 30.1874 6.64446 30.1874C6.96144 30.1874 7.21869 29.9302 7.21869 29.6132V20.6637L8.39182 21.8366C8.50408 21.9488 8.65079 22.0048 8.79779 22.0048C8.94479 22.0048 9.09151 21.9488 9.20377 21.8366C9.42799 21.6123 9.42799 21.2488 9.20377 21.0246L7.05045 18.8713C6.82622 18.6471 6.46273 18.6471 6.2385 18.8713L4.08516 21.0246C3.86094 21.2488 3.86094 21.6123 4.08516 21.8366Z" fill="#FFF680"/>
<path d="M21 9.51562C18.7835 9.51562 16.9805 11.3187 16.9805 13.5352C16.9805 15.7516 18.7835 17.5547 21 17.5547C23.2165 17.5547 25.0195 15.7516 25.0195 13.5352C25.0195 11.3187 23.2165 9.51562 21 9.51562ZM21 16.4062C19.4169 16.4062 18.1289 15.1183 18.1289 13.5352C18.1289 11.952 19.4169 10.6641 21 10.6641C22.5831 10.6641 23.8711 11.952 23.8711 13.5352C23.8711 15.1183 22.5831 16.4062 21 16.4062Z" fill="#FFF680"/>
<path d="M15.4854 6.24057C15.3433 5.80331 14.9723 5.49036 14.5173 5.42432L12.3996 5.11683L11.5354 3.36604C11.3134 2.91584 10.8586 2.625 10.3769 2.625C9.89511 2.625 9.44033 2.91584 9.21839 3.36603L8.35419 5.11682L6.23647 5.42431C5.7814 5.49035 5.41046 5.8033 5.26834 6.24056C5.12623 6.67783 5.2425 7.14898 5.57181 7.46996L7.1044 8.9638L6.77998 10.8558C6.69528 11.3502 6.89453 11.8403 7.30022 12.1352C7.70619 12.4301 8.2339 12.4683 8.67777 12.2348L10.3769 11.3413L12.076 12.2345C12.2689 12.3362 12.4779 12.3861 12.6861 12.3861C12.9563 12.3861 13.2244 12.3014 13.4538 12.1349C13.8595 11.8401 14.059 11.35 13.9741 10.8556L13.6496 8.9635L15.1822 7.46967C15.5113 7.14898 15.6275 6.67813 15.4854 6.24057ZM14.3803 6.64769L12.6315 8.35254C12.4963 8.48433 12.4343 8.67439 12.4664 8.86072L12.842 11.0502C12.8558 11.1312 12.815 11.1797 12.7785 11.2064C12.7418 11.2331 12.6829 11.2566 12.6103 11.2185L10.6439 10.1846C10.5606 10.1406 10.4688 10.1185 10.3769 10.1185C10.285 10.1185 10.1934 10.1406 10.1096 10.1846L8.14317 11.2185C8.07053 11.2566 8.01168 11.2328 7.97493 11.2061C7.93846 11.1797 7.89741 11.1309 7.91148 11.0502L8.28702 8.86071C8.31889 8.67438 8.25716 8.4843 8.12193 8.35253L6.37314 6.64769C6.36482 6.63964 6.35046 6.62558 6.36051 6.59543C6.37028 6.56557 6.3898 6.5627 6.40157 6.56098L8.81816 6.20985C9.00507 6.18257 9.16671 6.06515 9.25055 5.89575L10.2483 3.87422C10.3166 3.73583 10.4375 3.73583 10.5055 3.87422L11.5032 5.89575C11.587 6.06515 11.7484 6.18286 11.9356 6.20985L14.3522 6.56098C14.364 6.5627 14.3835 6.56557 14.3933 6.59543C14.403 6.62558 14.3889 6.63936 14.3803 6.64769Z" fill="#FFF680"/>
<path d="M36.7315 6.24057C36.5894 5.80331 36.2184 5.49036 35.7634 5.42432L33.6456 5.11683L32.7815 3.36604C32.5595 2.91584 32.1047 2.625 31.623 2.625C31.1412 2.625 30.6864 2.91584 30.4645 3.36603L29.6003 5.11682L27.4826 5.42431C27.0275 5.49035 26.6566 5.8033 26.5144 6.24056C26.3723 6.67783 26.4886 7.14898 26.8179 7.46996L28.3505 8.9638L28.0261 10.8558C27.9414 11.3502 28.1406 11.8403 28.5463 12.1352C28.9523 12.4301 29.48 12.4683 29.9239 12.2348L31.623 11.3413L33.3221 12.2345C33.515 12.3362 33.724 12.3861 33.9322 12.3861C34.2024 12.3861 34.4705 12.3014 34.6999 12.1349C35.1056 11.8401 35.3052 11.35 35.2202 10.8556L34.8957 8.9635L36.4283 7.46967C36.7573 7.14898 36.8736 6.67813 36.7315 6.24057ZM35.6264 6.64769L33.8776 8.35254C33.7424 8.48433 33.6804 8.67439 33.7126 8.86072L34.0881 11.0502C34.1019 11.1312 34.0611 11.1797 34.0246 11.2064C33.9879 11.2331 33.929 11.2566 33.8564 11.2185L31.89 10.1846C31.8064 10.1406 31.7146 10.1185 31.6227 10.1185C31.5308 10.1185 31.4392 10.1406 31.3554 10.1846L29.389 11.2185C29.3163 11.2566 29.2575 11.2328 29.2207 11.2061C29.1843 11.1797 29.1432 11.1309 29.1573 11.0502L29.5328 8.86071C29.5647 8.67438 29.503 8.4843 29.3677 8.35253L27.619 6.64768C27.6106 6.63963 27.5963 6.62557 27.6063 6.59542C27.6161 6.56556 27.6356 6.56269 27.6474 6.56097L30.064 6.20984C30.2509 6.18256 30.4125 6.06514 30.4964 5.89574L31.4941 3.87421C31.5624 3.73582 31.6833 3.73582 31.7513 3.87421L32.749 5.89574C32.8329 6.06514 32.9942 6.18285 33.1814 6.20984L35.598 6.56097C35.6098 6.56269 35.6293 6.56556 35.6391 6.59542C35.6491 6.62558 35.635 6.63936 35.6264 6.64769Z" fill="#FFF680"/>
<path d="M24.3061 18.7031H17.6939C17.3873 18.7031 17.0988 18.5837 16.8817 18.3666L12.0749 13.5599C11.6213 13.1062 11.0184 12.8564 10.377 12.8564C9.73555 12.8564 9.13262 13.1062 8.67899 13.5599C7.74273 14.4961 7.74273 16.0195 8.67899 16.9558L15.5653 23.8421C16.1077 24.3845 16.4063 25.1054 16.4063 25.8723V37.6524C16.4063 37.8536 16.441 38.0469 16.5047 38.2266H12.9609V29.8513L14.1341 31.0241C14.2463 31.1364 14.393 31.1924 14.54 31.1924C14.687 31.1924 14.8338 31.1364 14.946 31.0241C15.1702 30.7999 15.1702 30.4364 14.946 30.2122L12.7927 28.0589C12.5685 27.8347 12.205 27.8347 11.9808 28.0589L9.82744 30.2122C9.60321 30.4364 9.60321 30.7999 9.82744 31.0241C10.0517 31.2484 10.4152 31.2484 10.6394 31.0241L11.8125 29.8513V38.2266H8.36719C8.05022 38.2266 7.79297 38.4838 7.79297 38.8008C7.79297 39.1178 8.05022 39.375 8.36719 39.375H33.6328C33.9498 39.375 34.207 39.1178 34.207 38.8008C34.207 38.4838 33.9498 38.2266 33.6328 38.2266H30.1875V29.8513L31.3606 31.0241C31.4729 31.1364 31.6196 31.1924 31.7666 31.1924C31.9136 31.1924 32.0603 31.1364 32.1726 31.0241C32.3968 30.7999 32.3968 30.4364 32.1726 30.2122L30.0193 28.0589C29.795 27.8347 29.4315 27.8347 29.2073 28.0589L27.054 30.2122C26.8298 30.4364 26.8298 30.7999 27.054 31.0241C27.2782 31.2484 27.6417 31.2484 27.8659 31.0241L29.0391 29.8513V38.2266H25.4927C25.557 38.0469 25.5938 37.8542 25.5938 37.6524V25.8726C25.5938 25.1057 25.8924 24.3845 26.4347 23.8424L33.321 16.9561C34.2573 16.0198 34.2573 14.4964 33.321 13.5601C32.8674 13.1065 32.2645 12.8567 31.6231 12.8567C30.9817 12.8567 30.3787 13.1065 29.9251 13.5601L25.118 18.3669C24.9012 18.5837 24.6127 18.7031 24.3061 18.7031ZM30.737 14.3718C30.9736 14.1352 31.2883 14.0049 31.6231 14.0049C31.9578 14.0049 32.2725 14.1352 32.5091 14.3718C32.9975 14.8605 32.9975 15.6552 32.5091 16.1438L25.6228 23.0302C24.8634 23.7896 24.4453 24.7988 24.4453 25.8723V37.6524C24.4453 37.969 24.1878 38.2266 23.8711 38.2266H21.5742V31.9102C21.5742 31.5932 21.317 31.336 21 31.336C20.683 31.336 20.4258 31.5932 20.4258 31.9102V38.2266H18.1289C17.8122 38.2266 17.5547 37.9691 17.5547 37.6524V25.8726C17.5547 24.7991 17.1367 23.7896 16.3772 23.0305L9.49092 16.1438C9.00255 15.6552 9.00255 14.8605 9.49092 14.3718C9.7275 14.1352 10.0422 14.0049 10.3769 14.0049C10.7117 14.0049 11.0264 14.1352 11.263 14.3718L16.07 19.1789C16.5036 19.6127 17.0807 19.8516 17.6939 19.8516H24.3058C24.9193 19.8516 25.4961 19.6127 25.9299 19.1789L30.737 14.3718Z" fill="#FFF680"/>
<path d="M35.7614 18.8713C35.5371 18.6471 35.1736 18.6471 34.9494 18.8713L32.7961 21.0246C32.5719 21.2488 32.5719 21.6123 32.7961 21.8366C33.0203 22.0608 33.3838 22.0608 33.608 21.8366L34.7812 20.6637V29.6132C34.7812 29.9302 35.0384 30.1874 35.3554 30.1874C35.6724 30.1874 35.9296 29.9302 35.9296 29.6132V20.6637L37.1027 21.8366C37.215 21.9488 37.3617 22.0048 37.5087 22.0048C37.6557 22.0048 37.8024 21.9488 37.9147 21.8366C38.1389 21.6123 38.1389 21.2488 37.9147 21.0246L35.7614 18.8713Z" fill="#FFF680"/>
</svg>
