<svg width="42" height="42" viewBox="0 0 42 42" fill="none" xmlns="http://www.w3.org/2000/svg">
<g clip-path="url(#clip0_6_74)">
<path d="M35.2324 30.7617H36.4629V31.9922H35.2324V30.7617Z" fill="#FF72B8"/>
<path d="M40.7695 28.4066V6.04652C41.4856 5.79255 42 5.10866 42 4.30664C42 3.28896 41.172 2.46094 40.1543 2.46094H22.8457V0H19.1543V2.46094H1.8457C0.828023 2.46094 0 3.28896 0 4.30664C0 5.10866 0.514418 5.79255 1.23047 6.04652V28.4066C0.514418 28.6606 0 29.3445 0 30.1465C0 31.1642 0.828023 31.9922 1.8457 31.9922H19.1543V38.3086H15.463V42H26.537V38.3086H22.8457V31.9922H34.002V30.7617H1.8457C1.50642 30.7617 1.23047 30.4858 1.23047 30.1465C1.23047 29.8072 1.50642 29.5312 1.8457 29.5312H40.1543C40.4936 29.5312 40.7695 29.8072 40.7695 30.1465C40.7695 30.4858 40.4936 30.7617 40.1543 30.7617H37.6934V31.9922H40.1543C41.172 31.9922 42 31.1642 42 30.1465C42 29.3445 41.4856 28.6606 40.7695 28.4066ZM25.3066 39.5391V40.7695H16.6934V39.5391H20.3848V31.9922H21.6152V39.5391H25.3066ZM20.3848 1.23047H21.6152V2.46094H20.3848V1.23047ZM1.8457 3.69141H40.1543C40.4936 3.69141 40.7695 3.96736 40.7695 4.30664C40.7695 4.64592 40.4936 4.92188 40.1543 4.92188H6.15234V6.15234H39.5391V28.3008H2.46094V6.15234H4.92188V4.92188H1.8457C1.50642 4.92188 1.23047 4.64592 1.23047 4.30664C1.23047 3.96736 1.50642 3.69141 1.8457 3.69141Z" fill="#FF72B8"/>
<path d="M24.3839 25.2248H35.4582V9.22852H15.7705V17.8419H24.3839V25.2248ZM34.2277 23.9943H25.6143V20.2409C26.8178 19.9956 27.768 19.0454 28.0133 17.8419H34.2277V23.9943ZM25.6143 15.4868C26.1378 15.6725 26.5532 16.0879 26.7389 16.6114H25.6143V15.4868ZM26.7389 17.8419C26.5533 18.3654 26.1378 18.7808 25.6143 18.9665V17.8419H26.7389ZM34.2277 10.459V16.6114H28.0133C27.768 15.4078 26.8178 14.4577 25.6143 14.2124V10.459H34.2277ZM17.001 15.4868C17.5245 15.6725 17.9399 16.0879 18.1255 16.6114H17.001V15.4868ZM19.4 16.6114C19.1547 15.4078 18.2045 14.4577 17.001 14.2124V10.459H24.3839V16.6114H19.4Z" fill="#FF72B8"/>
<path d="M7.15723 19.0723H8.3877V20.3027H7.15723V19.0723Z" fill="#FF72B8"/>
<path d="M7.15723 16.6113H8.3877V17.8418H7.15723V16.6113Z" fill="#FF72B8"/>
<path d="M9.61816 19.0723H13.3096V20.3027H9.61816V19.0723Z" fill="#FF72B8"/>
<path d="M7.15723 21.5332H8.3877V22.7637H7.15723V21.5332Z" fill="#FF72B8"/>
<path d="M7.15723 11.6895H8.3877V12.9199H7.15723V11.6895Z" fill="#FF72B8"/>
<path d="M9.61816 14.1504H13.3096V15.3809H9.61816V14.1504Z" fill="#FF72B8"/>
<path d="M9.61816 16.6113H13.3096V17.8418H9.61816V16.6113Z" fill="#FF72B8"/>
<path d="M9.61816 11.6895H13.3096V12.9199H9.61816V11.6895Z" fill="#FF72B8"/>
<path d="M9.61816 21.5332H13.3096V22.7637H9.61816V21.5332Z" fill="#FF72B8"/>
<path d="M7.15723 14.1504H8.3877V15.3809H7.15723V14.1504Z" fill="#FF72B8"/>
<path d="M37.0781 9.84375H38.3086V11.0742H37.0781V9.84375Z" fill="#FF72B8"/>
<path d="M37.0781 7.38281H38.3086V8.61328H37.0781V7.38281Z" fill="#FF72B8"/>
</g>
<defs>
<clipPath id="clip0_6_74">
<rect width="42" height="42" fill="white"/>
</clipPath>
</defs>
</svg>
