<svg width="42" height="42" viewBox="0 0 42 42" fill="none" xmlns="http://www.w3.org/2000/svg">
<g clip-path="url(#clip0_6_115)">
<path d="M6.867 0.931641H2.12576C1.31545 0.931641 0.65625 1.58978 0.65625 2.39877V9.65361C0.65625 10.4626 1.31545 11.1207 2.12576 11.1207H6.867C7.67722 11.1207 8.33643 10.4626 8.33643 9.65361V2.39877C8.33643 1.58978 7.67722 0.931641 6.867 0.931641ZM7.18799 9.65361C7.18799 9.82637 7.04099 9.9723 6.867 9.9723H2.12576C1.95169 9.9723 1.80469 9.82637 1.80469 9.65361V2.39877C1.80469 2.22601 1.95169 2.08008 2.12576 2.08008H6.867C7.04099 2.08008 7.18799 2.22601 7.18799 2.39877V9.65361ZM6.867 30.8789H2.12576C1.31545 30.8789 0.65625 31.537 0.65625 32.346V39.6008C0.65625 40.4098 1.31545 41.068 2.12576 41.068H6.867C7.67722 41.068 8.33643 40.4098 8.33643 39.6008V32.346C8.33643 31.537 7.67722 30.8789 6.867 30.8789ZM7.18799 39.6008C7.18799 39.7736 7.04099 39.9195 6.867 39.9195H2.12576C1.95169 39.9195 1.80469 39.7736 1.80469 39.6008V32.346C1.80469 32.1732 1.95169 32.0273 2.12576 32.0273H6.867C7.04099 32.0273 7.18799 32.1732 7.18799 32.346V39.6008ZM6.867 15.9041H2.12576C1.31545 15.9041 0.65625 16.5633 0.65625 17.3736V24.6261C0.65625 25.4363 1.31545 26.0955 2.12576 26.0955H6.867C7.67722 26.0955 8.33643 25.4363 8.33643 24.6261V17.3736C8.33643 16.5634 7.67722 15.9041 6.867 15.9041ZM7.18799 24.6261C7.18799 24.8031 7.04394 24.9471 6.867 24.9471H2.12576C1.94873 24.9471 1.80469 24.8031 1.80469 24.6261V17.3736C1.80469 17.1966 1.94873 17.0525 2.12576 17.0525H6.867C7.04394 17.0525 7.18799 17.1965 7.18799 17.3736V24.6261ZM23.4321 15.0692C23.4321 15.3864 23.175 15.6435 22.8578 15.6435H19.1421C18.8249 15.6435 18.5679 15.3864 18.5679 15.0692C18.5679 14.7521 18.8249 14.495 19.1421 14.495H22.8578C23.175 14.495 23.4321 14.7521 23.4321 15.0692ZM23.4321 12.6975C23.4321 13.0146 23.175 13.2717 22.8578 13.2717H21.4069C21.0897 13.2717 20.8327 13.0146 20.8327 12.6975C20.8327 12.3803 21.0897 12.1232 21.4069 12.1232H22.8578C23.175 12.1232 23.4321 12.3803 23.4321 12.6975ZM18.5679 12.6975C18.5679 12.3803 18.8249 12.1232 19.1421 12.1232H19.7281C20.0452 12.1232 20.3023 12.3803 20.3023 12.6975C20.3023 13.0146 20.0452 13.2717 19.7281 13.2717H19.1421C18.8249 13.2717 18.5679 13.0146 18.5679 12.6975ZM23.4321 17.441C23.4321 17.7581 23.175 18.0152 22.8578 18.0152H19.1421C18.8249 18.0152 18.5679 17.7581 18.5679 17.441C18.5679 17.1239 18.8249 16.8668 19.1421 16.8668H22.8578C23.175 16.8668 23.4321 17.1239 23.4321 17.441ZM23.4321 19.8128C23.4321 20.1299 23.175 20.387 22.8578 20.387H21.4069C21.0897 20.387 20.8327 20.1299 20.8327 19.8128C20.8327 19.4956 21.0897 19.2386 21.4069 19.2386H22.8578C23.175 19.2386 23.4321 19.4956 23.4321 19.8128ZM18.5679 19.8128C18.5679 19.4956 18.8249 19.2386 19.1421 19.2386H19.7281C20.0452 19.2386 20.3023 19.4956 20.3023 19.8128C20.3023 20.1299 20.0452 20.387 19.7281 20.387H19.1421C18.8249 20.387 18.5679 20.1299 18.5679 19.8128ZM23.4321 22.1868C23.4321 22.504 23.175 22.7611 22.8578 22.7611H19.1421C18.8249 22.7611 18.5679 22.504 18.5679 22.1868C18.5679 21.8697 18.8249 21.6126 19.1421 21.6126H22.8578C23.175 21.6126 23.4321 21.8697 23.4321 22.1868ZM23.4321 24.5587C23.4321 24.8758 23.175 25.1329 22.8578 25.1329H21.4069C21.0897 25.1329 20.8327 24.8758 20.8327 24.5587C20.8327 24.2416 21.0897 23.9845 21.4069 23.9845H22.8578C23.175 23.9845 23.4321 24.2416 23.4321 24.5587ZM18.5679 24.5587C18.5679 24.2416 18.8249 23.9845 19.1421 23.9845H19.7281C20.0452 23.9845 20.3023 24.2416 20.3023 24.5587C20.3023 24.8758 20.0452 25.1329 19.7281 25.1329H19.1421C18.8249 25.1329 18.5679 24.8758 18.5679 24.5587ZM23.4321 26.9305C23.4321 27.2476 23.175 27.5047 22.8578 27.5047H19.1421C18.8249 27.5047 18.5679 27.2476 18.5679 26.9305C18.5679 26.6133 18.8249 26.3562 19.1421 26.3562H22.8578C23.175 26.3562 23.4321 26.6133 23.4321 26.9305ZM23.4321 29.3022C23.4321 29.6194 23.175 29.8764 22.8578 29.8764H21.4069C21.0897 29.8764 20.8327 29.6194 20.8327 29.3022C20.8327 28.9851 21.0897 28.728 21.4069 28.728H22.8578C23.175 28.728 23.4321 28.9851 23.4321 29.3022ZM20.3023 29.3022C20.3023 29.6194 20.0452 29.8764 19.7281 29.8764H19.1421C18.8249 29.8764 18.5679 29.6194 18.5679 29.3022C18.5679 28.9851 18.8249 28.728 19.1421 28.728H19.7281C20.0452 28.728 20.3023 28.9851 20.3023 29.3022ZM39.8766 0.931641H35.1331C34.3228 0.931641 33.6636 1.58978 33.6636 2.39877V9.65361C33.6636 10.4626 34.3228 11.1207 35.1331 11.1207H39.8766C40.6855 11.1207 41.3438 10.4626 41.3438 9.65361V2.39877C41.3438 1.58978 40.6856 0.931641 39.8766 0.931641ZM40.1953 9.65361C40.1953 9.82637 40.0494 9.9723 39.8766 9.9723H35.1331C34.959 9.9723 34.812 9.82637 34.812 9.65361V2.39877C34.812 2.22601 34.959 2.08008 35.1331 2.08008H39.8766C40.0493 2.08008 40.1953 2.22601 40.1953 2.39877V9.65361ZM39.8766 30.8789H35.1331C34.3228 30.8789 33.6636 31.537 33.6636 32.346V39.6008C33.6636 40.4098 34.3228 41.068 35.1331 41.068H39.8766C40.6855 41.068 41.3438 40.4098 41.3438 39.6008V32.346C41.3438 31.537 40.6856 30.8789 39.8766 30.8789ZM40.1953 39.6008C40.1953 39.7736 40.0494 39.9195 39.8766 39.9195H35.1331C34.959 39.9195 34.812 39.7736 34.812 39.6008V32.346C34.812 32.1732 34.959 32.0273 35.1331 32.0273H39.8766C40.0493 32.0273 40.1953 32.1732 40.1953 32.346V39.6008ZM39.8766 15.9041H35.1331C34.3228 15.9041 33.6636 16.5633 33.6636 17.3736V24.6261C33.6636 25.4363 34.3228 26.0955 35.1331 26.0955H39.8766C40.6855 26.0955 41.3438 25.4363 41.3438 24.6261V17.3736C41.3438 16.5634 40.6856 15.9041 39.8766 15.9041ZM40.1953 24.6261C40.1953 24.8001 40.0494 24.9471 39.8766 24.9471H35.1331C34.959 24.9471 34.812 24.8001 34.812 24.6261V17.3736C34.812 17.1995 34.959 17.0525 35.1331 17.0525H39.8766C40.0493 17.0525 40.1953 17.1995 40.1953 17.3736V24.6261ZM30.6469 7.4893C30.7604 7.61817 30.9188 7.68396 31.078 7.68396C31.2129 7.68396 31.3482 7.63671 31.4573 7.54065L32.6875 6.4571C32.8113 6.34808 32.8821 6.19107 32.8821 6.02619C32.8821 5.86131 32.8113 5.7043 32.6875 5.59528L31.4573 4.51173C31.2195 4.30206 30.8565 4.32511 30.6469 4.56308C30.4372 4.80105 30.4603 5.16388 30.6982 5.37355L30.7873 5.45197H28.0991C27.7819 5.45197 27.5248 5.70906 27.5248 6.02619V20.4245H25.6969V11.2418C25.6969 10.3034 24.9324 9.53984 23.9927 9.53984H18.0074C17.069 9.53984 16.3054 10.3033 16.3054 11.2418V20.4245H14.4752V6.02619C14.4752 5.70906 14.2181 5.45197 13.9009 5.45197H11.2127L11.3018 5.37347C11.5397 5.16388 11.5628 4.80097 11.3531 4.56308C11.1435 4.32511 10.7806 4.30214 10.5427 4.51173L9.3126 5.59528C9.18881 5.7043 9.11794 5.86123 9.11794 6.02611C9.11794 6.19099 9.18881 6.348 9.3126 6.45694L10.5427 7.54049C10.6518 7.63663 10.7871 7.68388 10.922 7.68388C11.0811 7.68388 11.2396 7.61809 11.3531 7.48922C11.5627 7.25125 11.5397 6.88842 11.3018 6.67883L11.2127 6.60033H13.3267V20.4244H11.2151L11.3014 20.3486C11.5396 20.1393 11.5629 19.7764 11.3536 19.5382C11.1443 19.3001 10.7814 19.2766 10.5432 19.486L9.31317 20.5673C9.18914 20.6762 9.1181 20.8332 9.11802 20.9982C9.11794 21.1632 9.18881 21.3203 9.31268 21.4294L10.5427 22.5129C10.6518 22.6091 10.7872 22.6563 10.9221 22.6563C11.0812 22.6563 11.2397 22.5905 11.3532 22.4616C11.5628 22.2237 11.5398 21.8608 11.3019 21.6513L11.2127 21.5728H13.3267V35.3991H11.2127L11.3018 35.3206C11.5397 35.111 11.5627 34.7481 11.3531 34.5102C11.1435 34.2723 10.7806 34.2493 10.5427 34.459L9.3126 35.5425C9.18881 35.6515 9.11794 35.8085 9.11794 35.9733C9.11794 36.1382 9.18881 36.2952 9.3126 36.4042L10.5427 37.4877C10.6518 37.5839 10.7871 37.6311 10.922 37.6311C11.0811 37.6311 11.2396 37.5653 11.3531 37.4364C11.5628 37.1985 11.5397 36.8357 11.3018 36.626L11.2128 36.5476H13.9009C14.2181 36.5476 14.4752 36.2905 14.4752 35.9733V21.5728H16.3054V30.7577C16.3054 31.6961 17.069 32.4597 18.0074 32.4597H23.9927C24.9324 32.4597 25.6969 31.6961 25.6969 30.7577V21.5728H27.5248V35.9733C27.5248 36.2905 27.7819 36.5476 28.0991 36.5476H30.7873L30.6982 36.626C30.4603 36.8357 30.4372 37.1985 30.6469 37.4364C30.7604 37.5653 30.9187 37.6311 31.078 37.6311C31.2129 37.6311 31.3482 37.5839 31.4573 37.4878L32.6875 36.4042C32.8113 36.2952 32.8821 36.1383 32.8821 35.9733C32.8821 35.8084 32.8113 35.6514 32.6875 35.5424L31.4573 34.4589C31.2195 34.2492 30.8565 34.2723 30.6469 34.5102C30.4372 34.7482 30.4603 35.111 30.6982 35.3207L30.7873 35.3992H28.6733V21.5728H30.7873L30.6982 21.6513C30.4603 21.861 30.4372 22.2238 30.6469 22.4618C30.7604 22.5907 30.9187 22.6566 31.078 22.6565C31.2129 22.6565 31.3482 22.6092 31.4573 22.5132L32.6875 21.4296C32.8114 21.3205 32.8822 21.1634 32.8821 20.9984C32.8821 20.8333 32.811 20.6763 32.687 20.5674L31.4569 19.4861C31.2188 19.2768 30.8559 19.3002 30.6465 19.5383C30.4371 19.7765 30.4604 20.1393 30.6987 20.3487L30.7849 20.4244H28.6734V6.60041H30.7874L30.6983 6.67891C30.4603 6.88859 30.4373 7.25141 30.647 7.48938L30.6469 7.4893ZM24.5485 30.7578C24.5485 31.063 24.2991 31.3113 23.9927 31.3113H18.0074C17.7022 31.3113 17.4539 31.063 17.4539 30.7578V11.2417C17.4539 10.9365 17.7022 10.6882 18.0074 10.6882H23.9927C24.2991 10.6882 24.5485 10.9365 24.5485 11.2417V30.7578Z" fill="#A2FC94"/>
</g>
<defs>
<clipPath id="clip0_6_115">
<rect width="42" height="42" fill="white"/>
</clipPath>
</defs>
</svg>
