<svg width="42" height="42" viewBox="0 0 42 42" fill="none" xmlns="http://www.w3.org/2000/svg">
<g clip-path="url(#clip0_6_10)">
<path fill-rule="evenodd" clip-rule="evenodd" d="M0.987276 32.5399L0.987638 32.5403V32.5396L0.987276 32.5399ZM5.07387 27.2559H3.25885V28.0418H5.07387V27.2559ZM17.6184 27.2559H15.8034V28.0418H17.6184V27.2559ZM8.65143 33.617L8.89036 32.8815C8.95848 32.6721 9.15279 32.5391 9.36164 32.5391V32.5383H11.5157C11.7476 32.5383 11.9423 32.6973 11.9969 32.9122L12.2209 33.6016L19.8036 32.5736C19.8375 32.569 19.866 32.5582 19.8842 32.543L19.8815 28.1464L18.6115 28.1418V28.5384C18.6115 28.8126 18.3891 29.0349 18.115 29.0349H15.307C15.0328 29.0349 14.8105 28.8126 14.8105 28.5384V28.1418H6.06702V28.5384C6.06702 28.8126 5.8447 29.0349 5.57054 29.0349H2.76255C2.48838 29.0349 2.26606 28.8126 2.26606 28.5384V28.1418L0.997032 28.1455L0.997936 28.1464L0.993329 32.5449L1.07391 32.5736L8.65161 33.617H8.65143ZM10.1392 36.7447L8.40508 35.4848C8.22134 35.3517 8.15594 35.1161 8.23028 34.9131L8.34058 34.5737L1.76552 33.6684V40.7022C1.76552 40.8689 1.90364 41.0071 2.0704 41.0071H18.8069C18.9737 41.0071 19.1118 40.869 19.1118 40.7022V33.6666L12.5319 34.5587L12.6526 34.9303C12.7208 35.1399 12.6415 35.3621 12.4721 35.4848L10.7295 36.7511C10.5485 36.8823 10.3084 36.8733 10.1391 36.7448L10.1392 36.7447ZM20.1048 37.8129H42.368V36.5405H20.1048V37.8129ZM34.7522 35.5474H40.18V1.94156H34.7522V35.5474ZM25.7172 35.5474H31.145V11.5999H25.7172V35.5474ZM9.47772 34.2812L9.72145 33.5312H11.156L11.5987 34.8939L10.4387 35.7367L9.27872 34.8939L9.47781 34.2813L9.47772 34.2812ZM16.8212 23.2421V19.5158H22.2491V35.5473H20.1049V33.5195C20.5452 33.395 20.8772 33.033 20.8772 32.553V28.1563C20.8772 27.8805 20.7637 27.6287 20.5807 27.4452L20.5817 27.4442C20.3993 27.2619 20.1472 27.1487 19.8696 27.1487H18.6115V26.7593C18.6115 26.5282 18.4536 26.3339 18.2397 26.2786V25.7969C18.2397 24.734 17.684 23.782 16.8212 23.242V23.2421ZM2.6378 26.2786V25.797C2.6378 24.1363 3.98894 22.7852 5.64958 22.7852H15.228C15.4335 22.7852 15.6343 22.8059 15.8283 22.8453V19.0193C15.8283 18.7451 16.0506 18.5228 16.3248 18.5228H22.7457C23.0198 18.5228 23.2421 18.7451 23.2421 19.0193V35.5474H24.7244V11.1034C24.7244 10.8292 24.9467 10.6069 25.2208 10.6069H31.6416C31.9158 10.6069 32.1381 10.8292 32.1381 11.1034V35.5474H33.7594V1.44507C33.7594 1.1709 33.9817 0.948589 34.2558 0.948589H40.6767C40.9509 0.948589 41.1732 1.1709 41.1732 1.44507V35.5474H42.8647C43.1389 35.5474 43.3612 35.7697 43.3612 36.0439V38.3093C43.3612 38.5835 43.1389 38.8058 42.8647 38.8058H20.1049V40.7021C20.1049 41.417 19.5218 42 18.8069 42H2.07031C1.35557 42 0.772458 41.417 0.772458 40.7021V33.5194C0.58718 33.467 0.418795 33.3716 0.28808 33.241H0.286183C0.109487 33.0643 0 32.83 0 32.5531V28.1564C0 27.8788 0.11319 27.6267 0.295578 27.4443C0.304792 27.4443 0.554389 27.1488 1.0076 27.1488H2.26579V26.7594C2.26579 26.5282 2.42379 26.334 2.63761 26.2786H2.6378ZM15.2013 26.2742C15.2013 26.075 15.2317 25.9081 15.1063 25.7828C15.0478 25.7243 14.9674 25.6879 14.8794 25.6879H5.998C5.82203 25.6879 5.67623 25.8336 5.67623 26.0096V26.2741C5.89963 26.3226 6.06693 26.5214 6.06693 26.7593V27.1487H14.8104V26.7593C14.8104 26.5214 14.9778 26.3226 15.2012 26.2741L15.2013 26.2742ZM4.68326 26.2629V26.0097C4.68326 25.2856 5.27396 24.6949 5.998 24.6949H14.8794C15.6035 24.6949 16.1943 25.2856 16.1943 26.0097V26.2629H17.2467V25.797C17.2467 24.6754 16.3317 23.7783 15.2279 23.7783H5.64949C4.53701 23.7783 3.63076 24.6845 3.63076 25.797V26.2629H4.68326ZM19.2676 5.11748C17.6611 3.03154 14.6729 2.64617 12.5908 4.24981C10.5054 5.85597 10.1191 8.84418 11.7231 10.9268C13.3293 13.0123 16.3176 13.3983 18.4001 11.7944C20.4855 10.1883 20.8716 7.19998 19.2677 5.11748H19.2676ZM16.2341 2.31916C14.66 2.11482 13.1518 2.56821 11.9857 3.46624C9.47041 5.40348 9.00139 9.01536 10.9395 11.5318C12.8768 14.0471 16.4887 14.5161 19.0051 12.5779C21.5204 10.6406 21.9894 7.02889 20.0512 4.51232C19.1536 3.3469 17.8103 2.52368 16.2341 2.31916ZM22.5793 8.32439C22.6554 6.53349 22.0516 4.71395 20.7501 3.2862L20.7459 3.28222L20.7461 3.28186C19.4404 1.84336 17.6487 1.07271 15.8523 0.996286C14.0615 0.920133 12.2419 1.52394 10.8142 2.8254L10.8102 2.82955L10.8098 2.82937C9.57258 3.95242 8.82731 5.44151 8.5975 6.97297C8.36389 8.52963 8.65016 10.1521 9.46806 11.5571C9.60112 11.7566 9.57294 12.0288 9.391 12.1963L9.07682 12.4848C9.01466 12.5419 9.01313 12.637 9.06715 12.6958L10.3252 14.0657L10.3315 14.0718L10.3312 14.0722C10.4001 14.1472 10.4888 14.1586 10.556 14.0971L10.8703 13.8084L10.8713 13.8095C11.039 13.6549 11.2973 13.6327 11.4909 13.7696C12.826 14.7151 14.4274 15.1435 16.0068 15.0425C19.5919 14.8131 22.4266 11.9103 22.5792 8.32448L22.5793 8.32439ZM7.38872 17.182L5.73775 15.3869C5.67289 15.3164 5.5634 15.3143 5.49619 15.3759L1.72405 18.8328L1.72487 18.8338C1.62441 18.9262 1.57084 19.0505 1.56551 19.1764C1.55585 19.4041 1.69433 19.5282 1.69433 19.5356L1.69533 19.5348L2.90528 20.8504C3.09074 21.052 3.40827 21.0655 3.60944 20.8811C4.86673 19.7282 6.12023 18.5689 7.3823 17.4215C7.45078 17.358 7.45222 17.2496 7.38872 17.182ZM8.35504 16.8993L10.3124 15.1165C10.6359 15.1574 11.0029 15.0524 11.2427 14.8126L11.2423 14.8122L11.2551 14.8005C12.7092 15.724 14.4012 16.1382 16.069 16.0315C20.1612 15.7697 23.394 12.4611 23.5683 8.36323C23.6552 6.32283 22.9672 4.24918 21.4847 2.62115C21.4733 2.60697 21.4611 2.59333 21.4479 2.58014L21.4474 2.58059C19.9507 0.958977 17.9379 0.0942863 15.8912 0.00729325C13.8508 -0.0795191 11.7772 0.608295 10.1492 2.09088C10.135 2.10226 10.1214 2.11446 10.1082 2.12765L10.1086 2.1281C8.71331 3.41601 7.87815 5.08541 7.61636 6.82961C7.36839 8.48193 7.63741 10.2026 8.43399 11.7299C8.15765 11.9838 8.02125 12.2978 8.04013 12.6571L6.08183 14.4408C5.66629 14.2584 5.1717 14.329 4.82509 14.6468L1.05494 18.1037L1.05575 18.1047H1.05376C0.753036 18.3813 0.5926 18.7563 0.57634 19.1377C0.56017 19.5171 0.688447 19.9033 0.965054 20.2049L0.966047 20.2041L2.176 21.5216C2.73003 22.1239 3.67629 22.1644 4.28045 21.6105C5.50351 20.4891 6.89106 19.3132 8.05142 18.1528C8.40156 17.817 8.51475 17.3381 8.35495 16.8994L8.35504 16.8993ZM6.82511 15.1045C7.13388 15.439 7.44319 15.7734 7.75087 16.1089L9.44195 14.5686L8.518 13.5627L6.82511 15.1045Z" fill="#A1BFFF"/>
</g>
<defs>
<clipPath id="clip0_6_10">
<rect width="42" height="42" fill="white"/>
</clipPath>
</defs>
</svg>
