<svg width="42" height="42" viewBox="0 0 42 42" fill="none" xmlns="http://www.w3.org/2000/svg">
<g clip-path="url(#clip0_6_96)">
<path d="M2.66027 19.2133H3.74227L3.87253 20.2176C3.90895 20.4982 4.08745 20.7404 4.34487 20.8581C4.45364 20.9078 4.57004 20.9324 4.68595 20.9324C4.84436 20.9324 5.00194 20.8865 5.13827 20.7965L7.53449 19.2133H16.661C18.1279 19.2133 19.3213 18.0154 19.3213 16.5431V3.51297C19.3213 2.04059 18.1279 0.842773 16.661 0.842773H2.66027C1.19339 0.842773 0 2.04059 0 3.51297V16.5431C0 18.0154 1.19339 19.2133 2.66027 19.2133ZM1.64062 3.51297C1.64062 2.94532 2.09803 2.4834 2.66027 2.4834H16.661C17.2233 2.4834 17.6807 2.94523 17.6807 3.51297V16.5431C17.6807 17.1107 17.2233 17.5726 16.661 17.5726H7.28798C7.1272 17.5726 6.96995 17.6199 6.83575 17.7086L5.33039 18.7031L5.2765 18.2875C5.2235 17.8786 4.8752 17.5727 4.46299 17.5727H2.66027C2.09803 17.5727 1.64062 17.1109 1.64062 16.5431V3.51297Z" fill="#FF273C"/>
<path d="M39.3397 0.842773H25.339C23.8721 0.842773 22.6787 2.04059 22.6787 3.51297V16.5431C22.6787 18.0154 23.8721 19.2133 25.339 19.2133H34.4655L36.8618 20.7965C36.9981 20.8865 37.1557 20.9324 37.3141 20.9324C37.43 20.9324 37.5464 20.9079 37.6552 20.8581C37.9126 20.7404 38.091 20.4983 38.1275 20.2176L38.2578 19.2133H39.3398C40.8066 19.2133 42 18.0154 42 16.5431V3.51297C41.9999 2.04059 40.8066 0.842773 39.3397 0.842773ZM40.3593 16.5431C40.3593 17.1107 39.9019 17.5726 39.3397 17.5726H37.5369C37.1247 17.5726 36.7764 17.8785 36.7234 18.2874L36.6695 18.703L35.1641 17.7085C35.0299 17.6198 34.8727 17.5726 34.7119 17.5726H25.339C24.7767 17.5726 24.3193 17.1107 24.3193 16.543V3.51297C24.3193 2.94532 24.7767 2.4834 25.339 2.4834H39.3397C39.9019 2.4834 40.3593 2.94523 40.3593 3.51297V16.5431Z" fill="#FF273C"/>
<path d="M41.1797 39.5171H39.6578V37.7331C39.6578 35.3605 38.119 33.3405 35.9871 32.6187C37.1908 31.5819 37.9548 30.0427 37.9548 28.3274C37.9548 25.2127 35.4358 22.6787 32.3394 22.6787C29.2431 22.6787 26.7241 25.2127 26.7241 28.3274C26.7241 30.0427 27.488 31.5818 28.6917 32.6187C26.5598 33.3405 25.0211 35.3605 25.0211 37.7331V39.5171H16.9792V37.7331C16.9792 35.3605 15.4404 33.3405 13.3085 32.6187C14.5121 31.5819 15.2762 30.0427 15.2762 28.3274C15.2762 25.2127 12.7572 22.6787 9.66082 22.6787C6.56447 22.6787 4.04545 25.2127 4.04545 28.3274C4.04545 30.0427 4.80941 31.5818 6.01314 32.6187C3.88114 33.3405 2.3424 35.3605 2.3424 37.7331V39.5171H0.820312C0.367336 39.5171 0 39.8844 0 40.3374C0 40.7905 0.367336 41.1577 0.820312 41.1577H41.1797C41.6327 41.1577 42 40.7905 42 40.3374C42 39.8844 41.6327 39.5171 41.1797 39.5171ZM28.3646 28.3275C28.3646 26.1175 30.1476 24.3194 32.3393 24.3194C34.5311 24.3194 36.3141 26.1174 36.3141 28.3275C36.3141 30.5376 34.5311 32.3354 32.3393 32.3354C30.1476 32.3354 28.3646 30.5375 28.3646 28.3275ZM5.68583 28.3275C5.68583 26.1175 7.46886 24.3194 9.66057 24.3194C11.8523 24.3194 13.6353 26.1174 13.6353 28.3275C13.6353 30.5376 11.8523 32.3354 9.66057 32.3354C7.46886 32.3354 5.68583 30.5375 5.68583 28.3275ZM3.98278 39.5171V37.7331C3.98278 35.6615 5.6682 33.9761 7.73989 33.9761H11.5814C13.653 33.9761 15.3384 35.6615 15.3384 37.7331V39.5171H3.98278ZM26.6616 39.5171V37.7331C26.6616 35.6615 28.347 33.9761 30.4187 33.9761H34.2602C36.3319 33.9761 38.0173 35.6615 38.0173 37.7331V39.5171H26.6616Z" fill="#FF273C"/>
<path d="M6.59861 13.9737C7.02206 14.1349 7.49587 13.9224 7.65715 13.4991L8.11209 12.3045H11.213L11.6629 13.4968C11.7869 13.8253 12.099 14.0277 12.4305 14.0277C12.5268 14.0277 12.6246 14.0106 12.72 13.9746C13.1439 13.8147 13.3577 13.3413 13.1978 12.9175L10.587 5.9993C10.5842 5.99183 10.5813 5.98437 10.5783 5.97698C10.4266 5.60825 10.0712 5.37012 9.67257 5.37012H9.67151C9.27251 5.37053 8.91706 5.6094 8.76604 5.97879C8.7635 5.98494 8.76104 5.99109 8.75874 5.99733L6.12398 12.9153C5.96279 13.3386 6.17525 13.8124 6.59861 13.9737ZM9.66978 8.21504L10.5939 10.6639H8.73709L9.66978 8.21504Z" fill="#FF273C"/>
<path d="M34.2514 9.17021C34.5162 8.78065 34.6711 8.31061 34.6711 7.80505C34.6711 6.46245 33.5788 5.37012 32.2362 5.37012H30.198C29.745 5.37012 29.3777 5.73737 29.3777 6.19043V13.2072C29.3777 13.4254 29.4646 13.6346 29.6192 13.7886C29.773 13.9416 29.9811 14.0275 30.198 14.0275H30.2016C30.2016 14.0275 32.0756 14.0192 32.5922 14.0192C34.086 14.0192 35.3012 12.804 35.3012 11.3102C35.3012 10.441 34.8897 9.66626 34.2514 9.17021ZM32.2362 7.01074C32.6742 7.01074 33.0305 7.36709 33.0305 7.80505C33.0305 8.24302 32.6742 8.59928 32.2362 8.59928C32.0873 8.59928 31.8079 8.6001 31.5025 8.60116H31.0184V7.01074H32.2362ZM32.5921 12.3785C32.3032 12.3785 31.5918 12.3812 31.0182 12.3835V10.2436C31.1767 10.2429 31.3432 10.2424 31.5025 10.2418H32.592C33.1811 10.2418 33.6604 10.7211 33.6604 11.3102C33.6604 11.8992 33.1812 12.3785 32.5921 12.3785Z" fill="#FF273C"/>
</g>
<defs>
<clipPath id="clip0_6_96">
<rect width="42" height="42" fill="white"/>
</clipPath>
</defs>
</svg>
