<svg width="72" height="72" viewBox="0 0 72 72" fill="none" xmlns="http://www.w3.org/2000/svg">
<g clip-path="url(#clip0_131_387)">
<path d="M71.8622 45.0828C71.6189 45.8998 71.0733 46.6254 70.2717 47.06L43.8863 61.4178C42.6389 62.0956 41.3635 62.4978 40.0669 62.6173C38.7675 62.7411 37.4358 62.5807 36.0844 62.1476L30.3835 60.3139C28.7213 59.7753 27.0675 59.584 25.4363 59.7359C23.9499 59.8751 22.4902 60.3026 21.0755 61.0114L12.683 46.4342L22.6758 40.9976C24.4491 40.0329 26.2758 39.4592 28.125 39.2876C29.9827 39.1118 31.8839 39.3354 33.8091 39.957L49.4114 44.9829C50.026 45.1784 50.5477 45.5496 50.9344 46.0193C51.6403 46.8729 51.8906 48.0092 51.5756 49.0765C51.556 49.1286 51.5363 49.1806 51.5236 49.2354C50.9414 50.8934 49.14 51.8145 47.4581 51.3209C47.3977 51.297 47.3428 51.2815 47.2824 51.2646L34.1325 47.0318C33.4913 46.8251 32.805 47.1795 32.6011 47.8165C32.3944 48.4578 32.7488 49.144 33.3858 49.3507L46.6327 53.6159C48.1359 54.0982 49.7025 53.9225 51.0131 53.2531C52.3491 52.5668 53.4249 51.3392 53.8678 49.9006C54.0394 49.3704 54.1308 48.8318 54.1434 48.2778L67.0992 41.2268C67.9008 40.7923 68.805 40.7248 69.6263 40.9681C70.4391 41.2071 71.1647 41.757 71.5992 42.5586C72.038 43.3573 72.1013 44.2657 71.8622 45.0828ZM52.8202 44.4612C53.1549 44.8634 53.4263 45.3064 53.6372 45.7732L61.1353 41.6951C61.0791 41.5629 61.0158 41.4364 60.9483 41.3084C59.7558 39.1161 56.9855 38.299 54.7931 39.4901L49.4199 42.4165L50.161 42.6556C51.2016 42.9903 52.1227 43.6161 52.8202 44.4612ZM8.09861 43.3728C7.77236 42.8061 7.04673 42.612 6.48001 42.9382L0.593451 46.3301C0.0267324 46.6536 -0.16733 47.382 0.15892 47.9445L13.4058 70.9451C13.732 71.5104 14.4577 71.7059 15.0244 71.3796L20.9124 67.9878C21.4791 67.6643 21.6731 66.9359 21.3469 66.3734L8.09861 43.3728ZM54.5906 16.4895V15.7442C53.7174 15.4489 52.8961 14.8667 52.2872 13.9343C52.1156 13.6798 51.9638 13.3929 51.833 13.0737C51.5855 12.4803 51.8653 11.8025 52.4588 11.555C53.0494 11.3117 53.7258 11.5915 53.9733 12.1807C54.045 12.3607 54.1322 12.5196 54.2278 12.6673C54.5541 13.1693 54.997 13.4604 55.4513 13.5842C55.9139 13.7079 56.3836 13.6714 56.7703 13.5082C56.8547 13.4731 56.9377 13.4281 57.0178 13.3761C57.0853 13.3325 57.1416 13.2889 57.1852 13.2411C57.3244 13.1018 57.413 12.9303 57.4369 12.7503C57.4566 12.5942 57.4242 12.4311 57.3258 12.2806C57.2864 12.2201 57.2414 12.1695 57.1936 12.1217C57.0024 11.9346 56.4638 11.8067 55.8942 11.6717C54.8944 11.4368 53.8256 11.1851 52.9763 10.3118C52.657 9.98559 52.4264 9.59465 52.283 9.17559C52.096 8.62152 52.0636 8.01965 52.1874 7.4459C52.3153 6.85949 52.6092 6.30121 53.0719 5.84699C53.4108 5.52074 53.8299 5.25355 54.3361 5.08199C54.4163 5.05387 54.5035 5.02996 54.5906 5.00605V4.08496C54.5906 3.44371 55.1095 2.9248 55.7508 2.9248C56.392 2.9248 56.911 3.44371 56.911 4.08496V4.96246C57.0783 4.99902 57.2456 5.04965 57.4045 5.11012C58.3495 5.45746 59.1469 6.13809 59.5097 7.20684C59.5378 7.29824 59.566 7.39387 59.5941 7.49371C59.746 8.11527 59.3663 8.74527 58.7447 8.89715C58.1231 9.04902 57.4974 8.66934 57.3413 8.04777C57.3328 8.01965 57.3258 7.9873 57.3131 7.95215C57.202 7.6259 56.9349 7.40652 56.6072 7.28699C56.1881 7.1309 55.6945 7.11965 55.2516 7.22652C55.1995 7.24199 55.1405 7.25887 55.0758 7.27855C54.9127 7.3348 54.7847 7.41356 54.6891 7.50918C54.5653 7.62449 54.4894 7.77637 54.4542 7.93527C54.4177 8.10262 54.4261 8.2784 54.4781 8.43027C54.5147 8.53434 54.5653 8.62574 54.637 8.69746C55.0083 9.07996 55.7367 9.25152 56.4188 9.41465C57.3117 9.62137 58.1484 9.82105 58.8066 10.4637C58.9894 10.6395 59.1413 10.8223 59.265 11.0093C59.6869 11.6548 59.8233 12.372 59.7277 13.0625C59.6405 13.7276 59.3255 14.3618 58.8474 14.8568C58.6758 15.0326 58.4888 15.1873 58.2891 15.3195C58.0936 15.4475 57.8827 15.5586 57.6591 15.65C57.4242 15.7498 57.1725 15.83 56.9095 15.8806V16.73C56.9095 17.3684 56.3991 17.8817 55.7649 17.8901C56.2908 18.6242 56.7408 19.4173 57.1008 20.2625C61.9524 19.6001 65.6944 15.4432 65.6944 10.4089C65.6944 4.91605 61.2422 0.463867 55.7494 0.463867C50.2566 0.463867 45.8044 4.91605 45.8044 10.4089C45.8044 11.2301 45.9085 12.0275 46.0955 12.7925C49.4241 12.867 52.4222 14.269 54.5906 16.4895ZM34.5122 20.2611C34.8708 19.4159 35.3208 18.6228 35.8481 17.8887C35.2139 17.8803 34.7035 17.367 34.7035 16.7286V15.7442C33.8302 15.4489 33.0089 14.8667 32.4 13.9343C32.2285 13.6798 32.0766 13.3929 31.9458 13.0737C31.6983 12.4803 31.9781 11.8025 32.5716 11.555C33.1622 11.3117 33.8386 11.5915 34.0861 12.1807C34.1578 12.3607 34.245 12.5196 34.3406 12.6673C34.6669 13.1693 35.1099 13.4604 35.5641 13.5842C36.0267 13.7079 36.4964 13.6714 36.8831 13.5082C36.9675 13.4731 37.0505 13.4281 37.1306 13.3761C37.1981 13.3325 37.2544 13.2889 37.298 13.2411C37.433 13.1018 37.5258 12.9303 37.5497 12.7503C37.5694 12.5942 37.5385 12.4311 37.4386 12.2806C37.3992 12.2201 37.3542 12.1695 37.3064 12.1217C37.111 11.9346 36.5766 11.8067 36.007 11.6717C35.0058 11.4368 33.9384 11.1851 33.0891 10.3118C32.7699 9.98559 32.5392 9.59465 32.3958 9.17559C32.2088 8.62152 32.1722 8.01965 32.3002 7.4459C32.4281 6.85949 32.722 6.30121 33.1847 5.84699C33.5194 5.52074 33.9427 5.25355 34.4489 5.08199C34.5291 5.05387 34.612 5.02996 34.7035 5.00605V4.08496C34.7035 3.44371 35.2224 2.9248 35.8636 2.9248C36.5049 2.9248 37.0238 3.44371 37.0238 4.08496V4.96246C37.1911 4.99902 37.3585 5.04965 37.5174 5.11012C38.4624 5.45746 39.2597 6.13809 39.6225 7.20684C39.6506 7.29824 39.6788 7.39387 39.7069 7.49371C39.8588 8.11527 39.4791 8.74527 38.8575 8.89715C38.236 9.04902 37.6059 8.66934 37.4541 8.04777C37.4456 8.01965 37.4386 7.9873 37.426 7.95215C37.3149 7.6259 37.0477 7.40652 36.72 7.28699C36.2981 7.1309 35.8074 7.11965 35.3644 7.22652C35.3081 7.24199 35.2533 7.25887 35.1886 7.27855C35.0255 7.3348 34.8975 7.41356 34.7977 7.50918C34.6781 7.62449 34.6022 7.77637 34.567 7.93527C34.5305 8.10262 34.5389 8.2784 34.591 8.43027C34.6275 8.53434 34.6781 8.62574 34.747 8.69746C35.1211 9.07996 35.851 9.25152 36.533 9.41465C37.4217 9.62137 38.2627 9.82105 38.9208 10.4637C39.1036 10.6395 39.2555 10.8223 39.3792 11.0093C39.7983 11.6548 39.9375 12.372 39.8419 13.0625C39.7547 13.7276 39.4397 14.3618 38.9616 14.8568C38.9419 14.8765 38.9222 14.8962 38.9053 14.9131C40.7953 13.6221 43.0664 12.8487 45.5189 12.7925C45.706 12.0275 45.8058 11.2301 45.8058 10.4089C45.8058 4.91605 41.3578 0.463867 35.8636 0.463867C30.3694 0.463867 25.9172 4.91324 25.9172 10.4075C25.9172 15.4418 29.6606 19.5987 34.5122 20.2611ZM37.0224 15.8792V16.4895C37.3767 16.1267 37.7522 15.7878 38.146 15.4686C38.0264 15.5361 37.9027 15.5965 37.7719 15.6486C37.5328 15.7484 37.2825 15.8286 37.0224 15.8792ZM35.8636 25.0521C35.8636 19.5748 40.3285 15.11 45.8058 15.11C51.2831 15.11 55.7508 19.5748 55.7508 25.0521C55.7508 30.5295 51.2817 34.9971 45.8058 34.9971C40.3299 34.9971 35.8636 30.5295 35.8636 25.0521ZM43.0102 29.0895C43.0102 28.4482 42.4913 27.9251 41.85 27.9251C41.2088 27.9251 40.6899 28.4468 40.6899 29.0895V30.4732C40.6899 31.1145 41.2088 31.6376 41.85 31.6376C42.4913 31.6376 43.0102 31.1159 43.0102 30.4732V29.0895ZM46.9688 27.2726C46.9688 26.6314 46.447 26.1082 45.8044 26.1082C45.166 26.1082 44.6442 26.63 44.6442 27.2726V30.4732C44.6442 31.1145 45.166 31.6376 45.8044 31.6376C46.4456 31.6376 46.9688 31.1159 46.9688 30.4732V27.2726ZM50.9231 25.4543C50.9231 24.8131 50.4042 24.2942 49.763 24.2942C49.1217 24.2942 48.5986 24.8131 48.5986 25.4543V30.4732C48.5986 31.1145 49.1203 31.6376 49.763 31.6376C50.4042 31.6376 50.9231 31.1159 50.9231 30.4732V25.4543ZM40.4114 25.8411C40.7306 26.3951 41.4366 26.5864 41.9906 26.2671L48.4805 22.5195C48.4692 23.0539 48.8306 23.5446 49.3692 23.6712C49.9908 23.8189 50.6166 23.4364 50.7642 22.8148L51.3267 20.4593C51.4744 19.8378 51.0919 19.2162 50.4703 19.0686L48.1149 18.5061C47.4933 18.3542 46.8717 18.7409 46.7241 19.3625C46.6088 19.8448 46.8155 20.3271 47.2022 20.5901L40.8403 24.2618C40.2835 24.5825 40.0922 25.287 40.4114 25.8411Z" fill="#FFC700"/>
</g>
<defs>
<clipPath id="clip0_131_387">
<rect width="72" height="72" fill="white"/>
</clipPath>
</defs>
</svg>
