<svg width="72" height="72" viewBox="0 0 72 72" fill="none" xmlns="http://www.w3.org/2000/svg">
<path d="M9.84371 69.9156H64.582C65.3861 69.9145 66.157 69.5946 66.7256 69.026C67.2942 68.4574 67.6142 67.6865 67.6153 66.8824V41.02H6.80762V66.8824C6.80873 67.687 7.12906 68.4583 7.69827 69.027C8.26749 69.5957 9.03909 69.9153 9.84371 69.9156ZM30.5479 49.781C30.5478 49.3455 30.6624 48.9176 30.8801 48.5405C31.0978 48.1633 31.4109 47.8501 31.788 47.6323C32.1652 47.4145 32.593 47.2999 33.0284 47.2999C33.4639 47.2998 33.8917 47.4145 34.2689 47.6322L43.3125 52.8522C43.6894 53.0701 44.0024 53.3834 44.22 53.7606C44.4376 54.1378 44.5522 54.5655 44.5522 55.001C44.5522 55.4364 44.4376 55.8642 44.22 56.2413C44.0024 56.6185 43.6894 56.9318 43.3125 57.1497L34.2703 62.3697C33.8932 62.5874 33.4656 62.702 33.0302 62.702C32.5948 62.7021 32.1671 62.5875 31.7901 62.3699C31.413 62.1523 31.0998 61.8393 30.882 61.4623C30.6642 61.0854 30.5495 60.6577 30.5493 60.2224L30.5479 49.781Z" fill="#DC3545"/>
<path d="M26.4938 39.3327L33.6896 26.8677H23.0007L15.8035 39.3327H26.4938Z" fill="#DC3545"/>
<path d="M51.7697 39.3327L58.9654 26.8677H48.2765L41.0793 39.3327H51.7697Z" fill="#DC3545"/>
<path d="M28.4414 39.3327H39.1317L46.3275 26.8677H35.6386L28.4414 39.3327Z" fill="#DC3545"/>
<path d="M6.80762 39.3327H13.8557L21.0515 26.8677H6.80762V39.3327Z" fill="#DC3545"/>
<path d="M65.8392 26.8677H60.9173L53.7188 39.3327H67.6167V28.6452C67.6167 28.1738 67.4294 27.7216 67.0961 27.3883C66.7628 27.0549 66.3106 26.8677 65.8392 26.8677Z" fill="#DC3545"/>
<path d="M37.9237 6.88066L47.174 17.9057L57.7012 16.0494L48.4509 5.02441L37.9237 6.88066Z" fill="#DC3545"/>
<path d="M13.0317 11.2693L22.2835 22.2943L32.8092 20.4381L23.5589 9.41309L13.0317 11.2693Z" fill="#DC3545"/>
<path d="M7.50093 12.244C7.10835 12.3129 6.73322 12.4586 6.39699 12.6726C6.06077 12.8867 5.77005 13.165 5.54147 13.4915C5.3129 13.818 5.15096 14.1864 5.06491 14.5756C4.97886 14.9648 4.97039 15.3671 5.03999 15.7596L6.67687 25.0479L20.3639 22.6404L11.1094 11.6069L7.50093 12.244Z" fill="#DC3545"/>
<path d="M66.5606 14.4842L64.9237 5.20293C64.7831 4.41077 64.334 3.70676 63.6748 3.24538C63.0157 2.78401 62.2005 2.60297 61.4081 2.74199L50.369 4.68543L59.625 15.7118L66.5606 14.4842Z" fill="#DC3545"/>
<path d="M25.4771 9.07402L34.7288 20.1004L45.256 18.2442L36.0042 7.21777L25.4771 9.07402Z" fill="#DC3545"/>
</svg>
