<svg width="72" height="72" viewBox="0 0 72 72" fill="none" xmlns="http://www.w3.org/2000/svg">
<path d="M35.9795 9.49098C20.2857 -4.2355 0.331267 7.82498 0.00405759 24.1749C-0.0793267 28.3417 1.12349 32.4006 3.51773 36.1424H19.0365L21.7967 31.5418C22.5982 30.2061 24.5379 30.1631 25.3848 31.4947L31.2086 40.6463L39.6979 22.7249C40.4383 21.1611 42.6446 21.1115 43.4612 22.6279L50.7383 36.1424H68.4413C81.5553 15.6465 55.6377 -7.70263 35.9795 9.49098Z" fill="#C33DAB"/>
<path d="M47.6214 39.2515L41.7246 28.3003L33.386 45.9038C32.6766 47.4015 30.5901 47.5315 29.7004 46.1333L23.6582 36.6386L22.0393 39.3367C21.6581 39.972 20.9716 40.3606 20.2307 40.3606H6.85437C7.27368 40.7995 5.0389 38.5692 34.4918 67.8696C35.3144 68.6881 36.6442 68.6882 37.4669 67.8696C66.4667 39.02 64.6859 40.7987 65.1044 40.3606H49.4785C48.7024 40.3608 47.9893 39.9347 47.6214 39.2515Z" fill="#C33DAB"/>
</svg>
