<svg width="72" height="72" viewBox="0 0 72 72" fill="none" xmlns="http://www.w3.org/2000/svg">
<path d="M70.5925 18.0499L36.7019 6.0924C36.2478 5.93209 35.7524 5.93209 35.2983 6.0924L1.40766 18.0499C0.565033 18.3472 0.00112669 19.1431 1.68568e-06 20.0366C-0.00112331 20.9302 0.560955 21.7274 1.40288 22.0266L35.2935 34.0749C35.522 34.1562 35.7611 34.1969 36 34.1969C36.2391 34.1969 36.478 34.1562 36.7065 34.0749L70.5971 22.0266C71.439 21.7274 72.001 20.9302 72 20.0366C71.9989 19.1431 71.435 18.3472 70.5925 18.0499Z" fill="#076856"/>
<path d="M66.9337 46.2055V27.8062L62.715 29.3059V46.2055C61.4443 46.9369 60.588 48.3073 60.588 49.8788C60.588 51.4501 61.4443 52.8207 62.715 53.5521V63.9184C62.715 65.0833 63.6594 66.0278 64.8243 66.0278C65.9893 66.0278 66.9337 65.0833 66.9337 63.9184V53.5522C68.2044 52.8209 69.0607 51.4503 69.0607 49.8789C69.0607 48.3075 68.2045 46.9369 66.9337 46.2055Z" fill="#076856"/>
<path d="M35.9999 38.4157C35.2759 38.4157 34.5628 38.2926 33.8803 38.0501L14.828 31.2769V40.5592C14.828 42.8302 17.1971 44.7507 21.8695 46.2672C25.9422 47.5891 30.9605 48.3171 35.9999 48.3171C41.0394 48.3171 46.0576 47.5891 50.1304 46.2672C54.8028 44.7507 57.1719 42.8302 57.1719 40.5592V31.2769L38.1197 38.0501C37.4371 38.2926 36.724 38.4157 35.9999 38.4157Z" fill="#076856"/>
</svg>
