<svg width="72" height="72" viewBox="0 0 72 72" fill="none" xmlns="http://www.w3.org/2000/svg">
<g clip-path="url(#clip0_130_373)">
<path d="M28.7481 0.00292969H12.3969V9.9738L28.7481 7.24863V0.00292969Z" fill="#0084FF"/>
<path d="M64.7454 67.7787V20.5727H38.1094V67.7787H33.8906V16.3539V10.6685L7.25456 15.1077V67.7787H0V71.9974H72V67.7787H64.7454ZM54.3293 26.6388H58.8104V30.8576H54.3293V26.6388ZM54.3293 36.9238H58.8104V41.1426H54.3293V36.9238ZM54.3293 47.2087H58.8104V51.4275H54.3293V47.2087ZM54.3293 57.4938H58.8104V61.7125H54.3293V57.4938ZM44.0445 26.6388H48.5255V30.8576H44.0445V26.6388ZM44.0445 36.9238H48.5255V41.1426H44.0445V36.9238ZM44.0445 47.2087H48.5255V51.4275H44.0445V47.2087ZM44.0445 57.4938H48.5255V61.7125H44.0445V57.4938ZM23.4745 16.3539H27.9555V20.5727H23.4745V16.3539ZM23.4745 26.6388H27.9555V30.8576H23.4745V26.6388ZM23.4745 36.9238H27.9555V41.1426H23.4745V36.9238ZM23.4745 47.2087H27.9555V51.4275H23.4745V47.2087ZM13.1896 26.6388H17.6707V30.8576H13.1896V26.6388ZM13.1896 36.9238H17.6707V41.1426H13.1896V36.9238ZM13.1896 47.2087H17.6707V51.4275H13.1896V47.2087ZM13.3207 57.4938H27.8245V67.7787H23.6057V61.7125H17.5395V67.7787H13.3207V57.4938Z" fill="#0084FF"/>
</g>
<defs>
<clipPath id="clip0_130_373">
<rect width="72" height="72" fill="white"/>
</clipPath>
</defs>
</svg>
