<svg xmlns="http://www.w3.org/2000/svg" width="74" height="74" viewBox="0 0 74 74" fill="none"><path d="M2 37C2 20.501 2 12.2515 7.124 7.124C12.255 2 20.501 2 37 2C53.499 2 61.7485 2 66.8725 7.124C72 12.255 72 20.501 72 37C72 53.499 72 61.7485 66.8725 66.8725C61.752 72 53.499 72 37 72C20.501 72 12.2515 72 7.124 66.8725C2 61.752 2 53.499 2 37Z" stroke="white" stroke-width="2.59673"></path><path d="M19.5 44.002L25.7895 36.456C28.2815 33.4635 29.5275 31.969 31.1655 31.969C32.807 31.969 34.053 33.4635 36.545 36.456L37.455 37.548C39.947 40.5405 41.193 42.035 42.8345 42.035C44.476 42.035 45.7185 40.5405 48.2105 37.548L54.5 30.002" stroke="white" stroke-width="2.59673" stroke-linecap="round"></path></svg>