<svg width="98" height="99" viewBox="0 0 98 99" fill="none" xmlns="http://www.w3.org/2000/svg">
<rect y="0.649414" width="98" height="98" rx="5" fill="#076856"/>
<g clip-path="url(#clip0_87_2496)">
<path d="M49.0013 21C33.0098 21 20.0007 34.0084 20.0007 49.9988C20.0007 65.9904 33.0104 79 49.0007 79C64.9905 79 77.9989 65.9904 77.9989 49.9988C77.9995 34.009 64.9911 21 49.0013 21ZM22.9272 49.9988C22.9272 46.2195 23.7378 42.6301 25.1848 39.3884L37.6225 73.4652C28.9255 69.2381 22.9272 60.3194 22.9272 49.9988ZM49.0013 76.0741C46.4418 76.0741 43.9715 75.6986 41.6356 75.0116L49.4582 52.2799L57.4741 74.2366C57.526 74.3661 57.5892 74.4843 57.6597 74.5958C54.9496 75.5492 52.0375 76.0741 49.0013 76.0741ZM52.5938 37.7744C54.1631 37.6919 55.5788 37.5261 55.5788 37.5261C56.983 37.3598 56.8184 35.2957 55.4118 35.3783C55.4118 35.3783 51.189 35.7091 48.462 35.7091C45.9007 35.7091 41.594 35.3783 41.594 35.3783C40.1886 35.2957 40.0247 37.4436 41.4295 37.5261C41.4295 37.5261 42.7602 37.6919 44.1638 37.7744L48.2257 48.905L42.5197 66.0175L33.0266 37.775C34.5984 37.6931 36.011 37.5267 36.011 37.5267C37.4152 37.361 37.2495 35.2957 35.8435 35.3801C35.8435 35.3801 31.6224 35.7109 28.8948 35.7109C28.4048 35.7109 27.8281 35.6983 27.217 35.6796C31.878 28.6001 39.8927 23.9265 49.0013 23.9265C55.7903 23.9265 61.97 26.5216 66.608 30.7709C66.4953 30.7649 66.3863 30.7498 66.2694 30.7498C63.7093 30.7498 61.8916 32.9809 61.8916 35.3777C61.8916 37.5255 63.1301 39.3444 64.4517 41.4922C65.4443 43.2291 66.6014 45.4608 66.6014 48.6832C66.6014 50.9154 65.7444 53.5045 64.6169 57.112L62.0164 65.803L52.5938 37.7744ZM62.1086 72.5371L70.0727 49.5106C71.5619 45.7916 72.0555 42.8175 72.0555 40.1712C72.0555 39.2124 71.9928 38.3211 71.8795 37.49C73.9165 41.2042 75.0754 45.4668 75.0742 50C75.0736 59.6185 69.8594 68.0171 62.1086 72.5371Z" fill="white"/>
</g>
<defs>
<clipPath id="clip0_87_2496">
<rect width="58" height="58" fill="white" transform="translate(20 21)"/>
</clipPath>
</defs>
</svg>
