<svg width="98" height="100" viewBox="0 0 98 100" fill="none" xmlns="http://www.w3.org/2000/svg">
<rect y="0.222656" width="98" height="98.8533" rx="5" fill="#FFC700"/>
<g clip-path="url(#clip0_87_2508)">
<path d="M25.1259 25.2551H26.0238" stroke="white" stroke-width="1.69811" stroke-miterlimit="10" stroke-linecap="round" stroke-linejoin="round"/>
<path d="M29.2664 25.2551H30.1644" stroke="white" stroke-width="1.69811" stroke-miterlimit="10" stroke-linecap="round" stroke-linejoin="round"/>
<path d="M33.407 25.2551H34.3048" stroke="white" stroke-width="1.69811" stroke-miterlimit="10" stroke-linecap="round" stroke-linejoin="round"/>
<path d="M43.9828 78.1503H75.1465C76.2533 78.1503 77.1503 77.2531 77.1503 76.1465V28.6609H20.8495V76.1464C20.8495 77.253 21.7467 78.1502 22.8534 78.1502H40.6977" stroke="white" stroke-width="1.69811" stroke-miterlimit="10" stroke-linecap="round" stroke-linejoin="round"/>
<path d="M27.3035 21.8496H22.8534C21.7468 21.8496 20.8496 22.7468 20.8496 23.8534V28.661H77.1504V23.8534C77.1504 22.7468 76.2532 21.8496 75.1466 21.8496H30.5886" stroke="white" stroke-width="1.69811" stroke-miterlimit="10" stroke-linecap="round" stroke-linejoin="round"/>
<path d="M50.1801 59.21C49.6595 54.9533 49.0977 50.132 49.0397 49.6571C49.0046 49.3712 48.7446 49.1677 48.4586 49.2026L35.4589 50.7922C35.173 50.8271 34.9696 51.0872 35.0044 51.3732C35.0843 52.0262 36.9019 66.891 37.0463 68.0728C37.0813 68.3587 37.3414 68.5622 37.6274 68.5273L41.6884 68.0308" stroke="white" stroke-width="1.69811" stroke-miterlimit="10" stroke-linecap="round" stroke-linejoin="round"/>
<path d="M38.8216 53.9831L45.9634 53.1099" stroke="white" stroke-width="1.69811" stroke-miterlimit="10" stroke-linecap="round" stroke-linejoin="round"/>
<path d="M39.1467 56.6423L46.2887 55.769" stroke="white" stroke-width="1.69811" stroke-miterlimit="10" stroke-linecap="round" stroke-linejoin="round"/>
<path d="M39.4717 59.3015L46.6137 58.4282" stroke="white" stroke-width="1.69811" stroke-miterlimit="10" stroke-linecap="round" stroke-linejoin="round"/>
<path d="M39.7971 61.9609L46.9389 61.0876" stroke="white" stroke-width="1.69811" stroke-miterlimit="10" stroke-linecap="round" stroke-linejoin="round"/>
<path d="M40.1222 64.6201L41.7498 64.4211" stroke="white" stroke-width="1.69811" stroke-miterlimit="10" stroke-linecap="round" stroke-linejoin="round"/>
<path d="M60.9446 62.9809L62.9596 57.4259C63.0834 57.0845 62.907 56.7072 62.5656 56.5834L53.1169 53.156C52.7755 53.0322 52.3981 53.2086 52.2743 53.55L50.4182 58.6669C56.9661 57.634 55.9474 62.4812 60.9446 62.9809Z" stroke="white" stroke-width="1.69811" stroke-miterlimit="10" stroke-linecap="round" stroke-linejoin="round"/>
<path d="M56.3731 67.5694L58.3239 68.2771C58.6654 68.4009 59.0427 68.2245 59.1665 67.8831L60.9447 62.981" stroke="white" stroke-width="1.69811" stroke-miterlimit="10" stroke-linecap="round" stroke-linejoin="round"/>
<path d="M50.4184 58.6667L48.7252 63.3347" stroke="white" stroke-width="1.69811" stroke-miterlimit="10" stroke-linecap="round" stroke-linejoin="round"/>
<path d="M50.6264 68.5677L48.1802 66.9098C47.8672 66.6978 47.4445 66.9219 47.4445 67.3V70.6157C47.4445 70.9937 47.8673 71.2179 48.1802 71.0058L50.6264 69.348C50.9022 69.1611 50.9022 68.7546 50.6264 68.5677Z" stroke="white" stroke-width="1.69811" stroke-miterlimit="10" stroke-linecap="round" stroke-linejoin="round"/>
<path d="M59.3097 58.0486L59.085 58.5229" stroke="white" stroke-width="1.69811" stroke-miterlimit="10" stroke-linecap="round" stroke-linejoin="round"/>
<path d="M55.4628 63.6853H42.8152C42.3913 63.6853 42.0477 64.0289 42.0477 64.4527V73.4629C42.0477 73.8867 42.3913 74.2303 42.8152 74.2303C47.5251 74.2303 51.262 74.2303 55.4628 74.2303C55.8866 74.2303 56.2303 73.8867 56.2303 73.4629C56.2303 72.2627 56.2303 65.2694 56.2303 64.4527C56.2302 64.0289 55.8866 63.6853 55.4628 63.6853Z" stroke="white" stroke-width="1.69811" stroke-miterlimit="10" stroke-linecap="round" stroke-linejoin="round"/>
<path d="M46.2827 41.8445L47.3358 36.0095C47.3621 35.8729 47.5528 35.8601 47.5971 35.992L49.3103 41.7991C49.3519 41.9228 49.5271 41.9219 49.5674 41.7978L51.2222 35.993C51.2651 35.8607 51.4558 35.8714 51.4835 36.0077L52.599 41.8445" stroke="white" stroke-width="1.69811" stroke-miterlimit="10" stroke-linecap="round" stroke-linejoin="round"/>
<path d="M43.672 36.4111C43.1939 36.088 42.6175 35.8994 41.9969 35.8994C40.3423 35.8994 39.001 37.2408 39.001 38.8954C39.001 40.5499 40.3423 41.8913 41.9969 41.8913C42.6689 41.8913 43.2217 41.6701 43.6412 41.2965C43.728 41.2192 43.8091 41.1354 43.8844 41.0456" stroke="white" stroke-width="1.69811" stroke-miterlimit="10" stroke-linecap="round" stroke-linejoin="round"/>
<path d="M58.8008 36.5154C58.8008 36.5154 57.7257 35.6116 56.4577 35.9935C55.2935 36.3442 55.1306 37.6866 55.973 38.2357C55.973 38.2357 56.7995 38.6044 57.7161 38.9426C59.9227 39.7565 58.9722 41.8913 57.1958 41.8913C56.3062 41.8913 55.5597 41.5017 55.1077 41.003" stroke="white" stroke-width="1.69811" stroke-miterlimit="10" stroke-linecap="round" stroke-linejoin="round"/>
<path d="M55.3939 45.9042H61.6524C62.1082 45.9042 62.4777 45.5347 62.4777 45.0789V32.7117C62.4777 32.256 62.1082 31.8865 61.6524 31.8865H36.3477C35.8919 31.8865 35.5223 32.256 35.5223 32.7117V45.0789C35.5223 45.5346 35.8919 45.9042 36.3477 45.9042H52.1088" stroke="white" stroke-width="1.69811" stroke-miterlimit="10" stroke-linecap="round" stroke-linejoin="round"/>
</g>
<defs>
<clipPath id="clip0_87_2508">
<rect width="58" height="58" fill="white" transform="translate(20 21)"/>
</clipPath>
</defs>
</svg>
