<svg width="64" height="64" viewBox="0 0 64 64" fill="none" xmlns="http://www.w3.org/2000/svg">
<g clip-path="url(#clip0_87_2653)">
<g clip-path="url(#clip1_87_2653)">
<path d="M14.3643 22.0608C13.7936 23.2491 13.4738 24.5807 13.4738 25.9871C13.4738 31.0013 17.5387 35.0662 22.553 35.0662C27.5672 35.0662 31.6321 31.0013 31.6321 25.9871C31.6321 20.9728 27.5672 16.908 22.553 16.908C20.384 16.908 18.3926 17.6686 16.831 18.9377" stroke="#C33DAB" stroke-width="1.89194" stroke-miterlimit="10" stroke-linecap="round" stroke-linejoin="round"/>
<path d="M36.8133 41.5474C33.3105 37.5374 28.1713 35.0662 22.5529 35.0662H20.7679C12.9112 35.0662 6.11541 40.5395 4.44141 48.2159C3.94466 50.4939 5.67966 52.6482 8.01128 52.6482H24.4392" stroke="#C33DAB" stroke-width="1.89194" stroke-miterlimit="10" stroke-linecap="round" stroke-linejoin="round"/>
<path d="M23.4952 1.24832L25.1006 3.94845C25.1897 4.09832 25.3366 4.20507 25.5067 4.24345L28.5708 4.93582C29.0408 5.04207 29.2262 5.61245 28.9083 5.97457L26.8364 8.33582C26.7214 8.46695 26.6653 8.63957 26.6813 8.8132L26.9696 11.9413C27.0138 12.4212 26.5286 12.7737 26.0859 12.5833L23.2001 11.3426C23.0398 11.2737 22.8583 11.2737 22.6981 11.3426L19.8122 12.5834C19.3694 12.7738 18.8843 12.4213 18.9286 11.9414L19.2168 8.81332C19.2328 8.6397 19.1767 8.46707 19.0617 8.33595L16.9898 5.9747C16.6719 5.61245 16.8573 5.04207 17.3273 4.93595L20.3914 4.24357C20.5616 4.20507 20.7084 4.09845 20.7976 3.94857L22.4029 1.24845C22.6492 0.834197 23.2489 0.834197 23.4952 1.24832Z" stroke="#C33DAB" stroke-width="1.89194" stroke-miterlimit="10" stroke-linecap="round" stroke-linejoin="round"/>
<path d="M6.72368 3.30937L8.03855 5.52087C8.11155 5.64362 8.2318 5.73099 8.37118 5.76249L10.8807 6.32962C11.2657 6.41662 11.4174 6.88374 11.1572 7.18037L9.46018 9.11424C9.36593 9.22162 9.32005 9.36299 9.33318 9.50524L9.5693 12.0672C9.60555 12.4602 9.20818 12.749 8.84555 12.5931L6.48193 11.5769C6.35068 11.5205 6.20205 11.5205 6.0708 11.5769L3.70718 12.5931C3.34455 12.749 2.94718 12.4604 2.98343 12.0672L3.21955 9.50524C3.23268 9.36299 3.18668 9.22162 3.09255 9.11424L1.39568 7.18037C1.1353 6.88374 1.28718 6.41662 1.67218 6.32962L4.18168 5.76249C4.32105 5.73099 4.4413 5.64362 4.5143 5.52087L5.82918 3.30937C6.0308 2.97012 6.52205 2.97012 6.72368 3.30937Z" stroke="#C33DAB" stroke-width="1.89194" stroke-miterlimit="10" stroke-linecap="round" stroke-linejoin="round"/>
<path d="M38.3542 3.30937L37.0394 5.52087C36.9664 5.64362 36.8461 5.73099 36.7067 5.76249L34.1972 6.32962C33.8122 6.41662 33.6605 6.88374 33.9207 7.18037L35.6176 9.11424C35.7119 9.22162 35.7577 9.36299 35.7446 9.50524L35.5085 12.0672C35.4722 12.4602 35.8696 12.749 36.2322 12.5931L38.5959 11.5769C38.7271 11.5205 38.8757 11.5205 39.007 11.5769L41.3706 12.5931C41.7332 12.749 42.1306 12.4604 42.0944 12.0672L41.8582 9.50524C41.8451 9.36299 41.8911 9.22162 41.9852 9.11424L43.6821 7.18037C43.9425 6.88374 43.7906 6.41662 43.4056 6.32962L40.8961 5.76249C40.7567 5.73099 40.6365 5.64362 40.5635 5.52087L39.2486 3.30937C39.0471 2.97012 38.5559 2.97012 38.3542 3.30937Z" stroke="#C33DAB" stroke-width="1.89194" stroke-miterlimit="10" stroke-linecap="round" stroke-linejoin="round"/>
<path d="M60.1426 47.5143H57.0651M60.1426 52.6972H57.0651M60.1426 57.8799H57.0651M62.7341 44.9229C62.7341 43.4918 61.5738 42.3315 60.1427 42.3315L50.7242 42.317C49.4902 42.3152 48.4907 41.3142 48.4907 40.0802V33.388C48.4907 32.0078 47.7824 30.7239 46.6144 29.9879C45.6822 29.4004 44.4458 29.8702 44.1361 30.9278L40.3932 43.7082C39.7934 45.756 37.9152 47.1632 35.7812 47.1632H33.2212V60.532H37.1807C39.2748 60.532 41.3578 60.9269 43.2783 61.7619C45.1904 62.5933 47.2531 63.0223 49.3378 63.0223L60.1426 63.0628C61.5738 63.0628 62.7339 61.9027 62.7339 60.4714C62.7339 59.0403 61.5737 57.88 60.1426 57.88C61.5738 57.88 62.7339 56.7198 62.7339 55.2887C62.7339 53.8574 61.5737 52.6973 60.1426 52.6973C61.5738 52.6973 62.7339 51.537 62.7339 50.1059C62.7339 48.6748 61.5737 47.5145 60.1426 47.5145C61.5738 47.5143 62.7341 46.354 62.7341 44.9229Z" stroke="#C33DAB" stroke-width="1.89194" stroke-miterlimit="10" stroke-linecap="round" stroke-linejoin="round"/>
<path d="M32.1929 62.5274H25.9924C25.4245 62.5274 24.9641 62.067 24.9641 61.499V45.6902C24.9641 45.1224 25.4244 44.6619 25.9924 44.6619H32.1929C32.7608 44.6619 33.2213 45.1222 33.2213 45.6902V61.499C33.2213 62.067 32.7609 62.5274 32.1929 62.5274Z" stroke="#C33DAB" stroke-width="1.89194" stroke-miterlimit="10" stroke-linecap="round" stroke-linejoin="round"/>
</g>
</g>
<defs>
<clipPath id="clip0_87_2653">
<rect width="64" height="64" fill="white"/>
</clipPath>
<clipPath id="clip1_87_2653">
<rect width="64" height="64" fill="white"/>
</clipPath>
</defs>
</svg>
