<svg width="64" height="64" viewBox="0 0 64 64" fill="none" xmlns="http://www.w3.org/2000/svg">
<g clip-path="url(#clip0_167_1315)">
<path d="M5.69754 23.8482C6.28166 23.8482 6.75519 23.3747 6.75519 22.7906C6.75519 22.2064 6.28166 21.7329 5.69754 21.7329C5.11342 21.7329 4.63989 22.2064 4.63989 22.7906C4.63989 23.3747 5.11342 23.8482 5.69754 23.8482Z" fill="#0084FF"/>
<path d="M9.51846 23.8482C10.1026 23.8482 10.5761 23.3747 10.5761 22.7906C10.5761 22.2064 10.1026 21.7329 9.51846 21.7329C8.93434 21.7329 8.46082 22.2064 8.46082 22.7906C8.46082 23.3747 8.93434 23.8482 9.51846 23.8482Z" fill="#0084FF"/>
<path d="M13.3394 23.8482C13.9235 23.8482 14.397 23.3747 14.397 22.7906C14.397 22.2064 13.9235 21.7329 13.3394 21.7329C12.7553 21.7329 12.2817 22.2064 12.2817 22.7906C12.2817 23.3747 12.7553 23.8482 13.3394 23.8482Z" fill="#0084FF"/>
<path d="M61.1653 7.50244H47.5144C45.9515 7.50244 44.6798 8.77405 44.6798 10.3371V19.0652H3.37163C1.51874 19.0652 0.0112676 20.5727 0.0112676 22.4256V25.4472C0.00463222 25.4924 0 25.5382 0 25.5851C0 25.6321 0.00463222 25.6779 0.0112676 25.7231V53.1368C0.0112676 54.9898 1.51874 56.4973 3.37163 56.4973H55.3212C57.1741 56.4973 58.6816 54.9898 58.6816 53.1368V42.2427H61.1653C62.7284 42.2427 64.0001 40.9711 64.0001 39.408V10.3371C64 8.77405 62.7284 7.50244 61.1653 7.50244ZM47.5144 9.38037H61.1653C61.6929 9.38037 62.1222 9.80954 62.1222 10.3371V12.4051H46.5579V10.3371C46.5578 9.80954 46.987 9.38037 47.5144 9.38037ZM3.37163 20.943H44.6799V24.6462H1.88919V22.4256C1.88919 21.6081 2.55411 20.943 3.37163 20.943ZM56.8037 53.1368C56.8037 53.9543 56.1386 54.6194 55.3212 54.6194H3.37163C2.55423 54.6194 1.88919 53.9543 1.88919 53.1368V26.5241H44.6799V28.5755C44.6799 29.0941 45.1002 29.5145 45.6189 29.5145C46.1375 29.5145 46.5578 29.0941 46.5578 28.5755V14.2829H62.1221V34.5283H46.5578V32.3314C46.5578 31.8128 46.1375 31.3924 45.6189 31.3924C45.1002 31.3924 44.6799 31.8128 44.6799 32.3314V39.408C44.6799 40.9711 45.9515 42.2427 47.5146 42.2427H56.8037V53.1368ZM61.1653 40.3648H47.5144C46.9869 40.3648 46.5577 39.9356 46.5577 39.408V36.4061H62.1219V39.408C62.1221 39.9356 61.6928 40.3648 61.1653 40.3648Z" fill="#0084FF"/>
<path d="M54.3399 39.6807C55.0539 39.6807 55.6326 39.102 55.6326 38.388C55.6326 37.674 55.0539 37.0952 54.3399 37.0952C53.6259 37.0952 53.0471 37.674 53.0471 38.388C53.0471 39.102 53.6259 39.6807 54.3399 39.6807Z" fill="#0084FF"/>
<path d="M49.3744 26.6768H59.3055C60.1008 26.6768 60.7479 26.0298 60.7479 25.2344V17.5002C60.7479 16.7049 60.1007 16.0579 59.3055 16.0579H49.3744C48.579 16.0579 47.932 16.7049 47.932 17.5002V25.2344C47.9319 26.0297 48.579 26.6768 49.3744 26.6768ZM51.3706 24.7989L54.1168 22.3298C54.2432 22.2162 54.433 22.2167 54.5592 22.3304L57.2897 24.7987H51.3706V24.7989ZM58.8701 17.9357V23.696L55.8187 20.9375C54.9766 20.1762 53.7051 20.1744 52.8612 20.9333L49.8099 23.6767V17.9357H58.8701Z" fill="#0084FF"/>
<path d="M56.9536 20.4556C57.4322 20.4556 57.8201 20.0677 57.8201 19.5891C57.8201 19.1106 57.4322 18.7227 56.9536 18.7227C56.4751 18.7227 56.0872 19.1106 56.0872 19.5891C56.0872 20.0677 56.4751 20.4556 56.9536 20.4556Z" fill="#0084FF"/>
<path d="M49.8088 32.8743H50.7085C51.7434 32.8743 52.5853 32.0323 52.5853 30.9975V29.9096C52.5853 28.8747 51.7433 28.0327 50.7085 28.0327H49.8088C48.7738 28.0327 47.932 28.8747 47.932 29.9096V30.9975C47.9319 32.0323 48.7738 32.8743 49.8088 32.8743ZM50.7072 29.9096L50.7095 30.9963L49.8098 30.9975L49.8087 29.9106L50.7072 29.9096Z" fill="#0084FF"/>
<path d="M58.871 28.0327H55.3753C54.3403 28.0327 53.4985 28.8747 53.4985 29.9096V30.9975C53.4985 32.0323 54.3405 32.8743 55.3753 32.8743H58.871C59.906 32.8743 60.7478 32.0323 60.7478 30.9975V29.9096C60.748 28.8747 59.906 28.0327 58.871 28.0327ZM55.3765 30.9975L55.3753 29.9106L58.8699 29.9096L58.8722 30.9963L55.3765 30.9975Z" fill="#0084FF"/>
<path d="M33.488 37.895C33.1369 37.6141 32.636 37.6212 32.2933 37.9123L26.7343 42.6334L20.3452 37.0731C19.9987 36.7718 19.4856 36.7651 19.1316 37.0569L6.63635 47.3571V32.5235C6.63635 32.4249 6.71673 32.3445 6.81538 32.3445H38.2664C38.7851 32.3445 39.2054 31.9241 39.2054 31.4055C39.2054 30.887 38.7851 30.4666 38.2664 30.4666H6.81538C5.68111 30.4666 4.75842 31.3892 4.75842 32.5235V47.807C4.75842 48.9412 5.68111 49.8639 6.81538 49.8639H14.1576C14.6763 49.8639 15.0965 49.4435 15.0965 48.9249C15.0965 48.4064 14.6763 47.986 14.1576 47.986H8.82589L19.7124 39.0119L30.0241 47.986H17.9134C17.3947 47.986 16.9745 48.4064 16.9745 48.9249C16.9745 49.4435 17.3947 49.8639 17.9134 49.8639H48.1777C48.6964 49.8639 49.1167 49.4435 49.1167 48.9249C49.1167 48.4064 48.6964 47.986 48.1777 47.986H46.0922L33.488 37.895ZM28.1672 43.8802L32.9188 39.8449L43.0875 47.986H32.8849L28.1672 43.8802Z" fill="#0084FF"/>
<path d="M36.797 36.1864C36.797 37.7116 38.0379 38.9525 39.5632 38.9525C41.0886 38.9525 42.3295 37.7116 42.3295 36.1864C42.3295 34.6611 41.0886 33.4202 39.5632 33.4202C38.0379 33.4202 36.797 34.6611 36.797 36.1864ZM39.5632 35.2981C40.0529 35.2981 40.4516 35.6966 40.4516 36.1864C40.4516 36.6761 40.0529 37.0746 39.5632 37.0746C39.0734 37.0746 38.6749 36.6761 38.6749 36.1864C38.6749 35.6966 39.0734 35.2981 39.5632 35.2981Z" fill="#0084FF"/>
<path d="M51.4023 49.8638H53.2264C53.7451 49.8638 54.1654 49.4434 54.1654 48.9248C54.1654 48.4062 53.7451 47.9858 53.2264 47.9858H51.4023C50.8837 47.9858 50.4634 48.4062 50.4634 48.9248C50.4634 49.4434 50.8838 49.8638 51.4023 49.8638Z" fill="#0084FF"/>
</g>
<defs>
<clipPath id="clip0_167_1315">
<rect width="64" height="64" fill="white"/>
</clipPath>
</defs>
</svg>
