<svg width="64" height="64" viewBox="0 0 64 64" fill="none" xmlns="http://www.w3.org/2000/svg">
<g clip-path="url(#clip0_167_1272)">
<mask id="mask0_167_1272" style="mask-type:luminance" maskUnits="userSpaceOnUse" x="0" y="0" width="64" height="64">
<path d="M0 7.62939e-06H64V64H0V7.62939e-06Z" fill="white"/>
</mask>
<g mask="url(#mask0_167_1272)">
<path d="M53.0781 0.937431H45.3846V6.74906C45.3846 7.37493 45.892 7.8823 46.518 7.8823H46.6393C46.9459 7.8823 47.235 7.7538 47.4525 7.53755C48.0233 6.97018 48.8096 6.61968 49.6779 6.61968C51.5396 6.61968 53.025 8.23143 52.8148 10.1357C52.6563 11.5713 51.5096 12.7334 50.076 12.9087C49.0534 13.0338 48.1124 12.6693 47.4558 12.0183C47.2369 11.8013 46.9471 11.6704 46.6388 11.6704H46.518C45.892 11.6704 45.3846 12.1778 45.3846 12.8037V18.6153H51.1963C51.8221 18.6153 52.3295 19.1227 52.3295 19.7486V19.8693C52.3295 20.1777 52.1986 20.4674 51.9816 20.6864C51.3306 21.3431 50.9661 22.2841 51.0913 23.3067C51.2665 24.7402 52.4286 25.8868 53.8643 26.0453C55.7685 26.2556 57.3803 24.7703 57.3803 22.9084C57.3803 22.0402 57.0298 21.2538 56.4624 20.6832C56.2461 20.4657 56.1176 20.1766 56.1176 19.8698V19.7486C56.1176 19.1227 56.625 18.6153 57.2509 18.6153H63.0625V2.20018C63.0625 1.50268 62.4973 0.937431 61.7998 0.937431H57.4576" stroke="#DC3545" stroke-width="1.80166" stroke-miterlimit="10" stroke-linecap="round" stroke-linejoin="round"/>
<path d="M51.0913 50.076C50.9663 49.0534 51.3306 48.1125 51.9816 47.4559C52.1986 47.2369 52.3295 46.9471 52.3295 46.6388V46.518C52.3295 45.892 51.8221 45.3846 51.1963 45.3846H45.3846V51.1963C45.3846 51.8221 44.8773 52.3295 44.2514 52.3295H44.1306C43.8223 52.3295 43.5325 52.1986 43.3135 51.9816C42.6569 51.3306 41.7159 50.9663 40.6933 51.0913C39.2598 51.2665 38.1131 52.4286 37.9546 53.8643C37.7444 55.7686 39.2296 57.3804 41.0915 57.3804C41.9598 57.3804 42.7461 57.0298 43.3168 56.4624C43.5343 56.2461 43.8234 56.1176 44.1301 56.1176H45.3846V63.0625H61.7998C62.4973 63.0625 63.0625 62.4973 63.0625 61.7999V45.3846H57.2509C56.625 45.3846 56.1176 45.892 56.1176 46.518V46.6393C56.1176 46.9459 56.2461 47.235 56.4624 47.4525C57.0298 48.0233 57.3804 48.8096 57.3804 49.6779C57.3804 51.5396 55.7685 53.025 53.8643 52.8148C52.4286 52.6563 51.2665 51.5096 51.0913 50.076Z" stroke="#DC3545" stroke-width="1.80166" stroke-miterlimit="10" stroke-linecap="round" stroke-linejoin="round"/>
<path d="M8.66075 63.0625H18.6154V57.2514C18.6154 56.6253 18.1077 56.1176 17.4816 56.1176H17.3609C17.0541 56.1176 16.765 56.2461 16.5475 56.4624C15.9769 57.0298 15.1905 57.3803 14.3222 57.3803C12.4604 57.3803 10.975 55.7685 11.1854 53.8643C11.3439 52.4286 12.4904 51.2666 13.924 51.0913C14.9466 50.9661 15.8875 51.3306 16.5442 51.9816C16.7632 52.1986 17.053 52.3295 17.3612 52.3295H17.4816C18.1077 52.3295 18.6154 51.8219 18.6154 51.1958V45.3846H12.8039C12.1779 45.3846 11.6705 44.8773 11.6705 44.2514V44.1306C11.6705 43.8223 11.8014 43.5325 12.0185 43.3135C12.6694 42.6569 13.0339 41.7159 12.9087 40.6933C12.7335 39.2598 11.5714 38.1131 10.1357 37.9546C8.2315 37.7444 6.61975 39.2296 6.61975 41.0915C6.61975 41.9598 6.97037 42.7461 7.53775 43.3168C7.75387 43.5343 7.88237 43.8234 7.88237 44.1301V44.2514C7.88237 44.8773 7.375 45.3846 6.74912 45.3846H0.9375V61.7998C0.9375 62.4972 1.50288 63.0625 2.20025 63.0625H4.28312" stroke="#DC3545" stroke-width="1.80166" stroke-miterlimit="10" stroke-linecap="round" stroke-linejoin="round"/>
<path d="M12.9087 13.9241C13.0337 14.9467 12.6694 15.8876 12.0184 16.5442C11.8014 16.7632 11.6705 17.053 11.6705 17.3614V17.4821C11.6705 18.1081 12.1779 18.6155 12.8037 18.6155H18.6154V12.8039C18.6154 12.178 19.1227 11.6706 19.7486 11.6706H19.8694C20.1777 11.6706 20.4675 11.8015 20.6865 12.0185C21.3431 12.6695 22.2841 13.0339 23.3067 12.9089C24.7402 12.7336 25.8869 11.5715 26.0454 10.1359C26.2556 8.23148 24.7704 6.61973 22.9085 6.61973C22.0402 6.61973 21.2539 6.97036 20.6832 7.53773C20.4657 7.75398 20.1766 7.88248 19.8699 7.88248H19.7486C19.1227 7.88248 18.6154 7.37511 18.6154 6.74923V0.937605H2.20025C1.50275 0.937605 0.9375 1.50286 0.9375 2.20023V18.6155H6.74912C7.375 18.6155 7.88237 18.1081 7.88237 17.4821V17.3609C7.88237 17.0542 7.75387 16.7651 7.53762 16.5476C6.97025 15.9769 6.61962 15.1905 6.61962 14.3222C6.61962 12.4605 8.2315 10.9751 10.1357 11.1854C11.5714 11.3439 12.7335 12.4905 12.9087 13.9241Z" stroke="#DC3545" stroke-width="1.80166" stroke-miterlimit="10" stroke-linecap="round" stroke-linejoin="round"/>
<path d="M29.8483 9.90259H30.5983" stroke="#DC3545" stroke-width="1.80166" stroke-linecap="round" stroke-linejoin="round"/>
<path d="M34.7929 9.90259H38.7544" stroke="#DC3545" stroke-width="1.80166" stroke-linecap="round" stroke-linejoin="round" stroke-dasharray="1.79 4.03"/>
<path d="M40.8517 9.90259H41.6017" stroke="#DC3545" stroke-width="1.80166" stroke-linecap="round" stroke-linejoin="round"/>
<path d="M54.0974 29.8484V30.5984" stroke="#DC3545" stroke-width="1.80166" stroke-linecap="round" stroke-linejoin="round"/>
<path d="M54.0974 34.7929V38.7544" stroke="#DC3545" stroke-width="1.80166" stroke-linecap="round" stroke-linejoin="round" stroke-dasharray="1.79 4.03"/>
<path d="M54.0974 40.8516V41.6016" stroke="#DC3545" stroke-width="1.80166" stroke-linecap="round" stroke-linejoin="round"/>
<path d="M34.1517 54.0972H33.4017" stroke="#DC3545" stroke-width="1.80166" stroke-linecap="round" stroke-linejoin="round"/>
<path d="M29.2072 54.0972H25.2457" stroke="#DC3545" stroke-width="1.80166" stroke-linecap="round" stroke-linejoin="round" stroke-dasharray="1.79 4.03"/>
<path d="M23.1484 54.0972H22.3984" stroke="#DC3545" stroke-width="1.80166" stroke-linecap="round" stroke-linejoin="round"/>
<path d="M9.90277 34.1516V33.4016" stroke="#DC3545" stroke-width="1.80166" stroke-linecap="round" stroke-linejoin="round"/>
<path d="M9.90277 29.207V25.2455" stroke="#DC3545" stroke-width="1.80166" stroke-linecap="round" stroke-linejoin="round" stroke-dasharray="1.79 4.03"/>
<path d="M9.90277 23.1484V22.3984" stroke="#DC3545" stroke-width="1.80166" stroke-linecap="round" stroke-linejoin="round"/>
<path d="M32 34.4399C30.6524 34.4399 29.56 33.3476 29.56 31.9999C29.56 30.6523 30.6524 29.5599 32 29.5599C33.3476 29.5599 34.44 30.6523 34.44 31.9999C34.44 33.3476 33.3476 34.4399 32 34.4399ZM42.1515 31.9999C42.1515 31.6006 42.1284 31.2064 42.0835 30.8191C42.0221 30.2893 42.2705 29.7719 42.7323 29.5053L44.708 28.3647C45.3468 27.9958 45.5658 27.1789 45.1969 26.5401L43.3269 23.3011C42.958 22.6622 42.141 22.4433 41.5023 22.8122L39.5255 23.9534C39.0624 24.2208 38.4884 24.1768 38.0596 23.8572C37.434 23.3912 36.753 22.9957 36.0281 22.6821C35.5331 22.4679 35.2058 21.9884 35.2058 21.4491V19.1769C35.2058 18.4392 34.6078 17.8412 33.87 17.8412H30.13C29.3923 17.8412 28.7943 18.4392 28.7943 19.1769V21.4491C28.7943 21.9884 28.4669 22.4679 27.9719 22.6821C27.247 22.9957 26.566 23.3912 25.9404 23.8572C25.5116 24.1768 24.9376 24.2208 24.4745 23.9534L22.4978 22.8122C21.859 22.4433 21.042 22.6622 20.6731 23.3011L18.8031 26.5401C18.4343 27.1789 18.6533 27.9958 19.292 28.3647L21.2678 29.5053C21.7295 29.7719 21.9779 30.2893 21.9165 30.8191C21.8716 31.2064 21.8485 31.6006 21.8485 31.9999C21.8485 32.3993 21.8716 32.7934 21.9165 33.1808C21.9779 33.7106 21.7295 34.2279 21.2678 34.4946L19.292 35.6352C18.6533 36.0041 18.4343 36.8209 18.8031 37.4598L20.6731 40.6988C21.042 41.3377 21.859 41.5566 22.4978 41.1877L24.4745 40.0464C24.9376 39.7791 25.5116 39.8231 25.9404 40.1427C26.566 40.6087 27.247 41.0042 27.9719 41.3178C28.4669 41.5319 28.7943 42.0114 28.7943 42.5508V44.8229C28.7943 45.5607 29.3923 46.1587 30.13 46.1587H33.87C34.6078 46.1587 35.2058 45.5607 35.2058 44.8229V42.5508C35.2058 42.0114 35.5331 41.5319 36.0281 41.3178C36.753 41.0042 37.434 40.6087 38.0596 40.1427C38.4884 39.8231 39.0624 39.7791 39.5255 40.0464L41.5023 41.1877C42.141 41.5566 42.958 41.3377 43.3269 40.6988L45.1969 37.4598C45.5658 36.8209 45.3468 36.0041 44.708 35.6352L42.7323 34.4946C42.2705 34.2279 42.0221 33.7106 42.0835 33.1808C42.1284 32.7934 42.1515 32.3993 42.1515 31.9999Z" stroke="#DC3545" stroke-width="1.80166" stroke-miterlimit="10" stroke-linecap="round" stroke-linejoin="round"/>
<path d="M32 38.3135C28.5131 38.3135 25.6865 35.4869 25.6865 32C25.6865 28.5131 28.5131 25.6864 32 25.6864C35.4869 25.6864 38.3135 28.5131 38.3135 32C38.3135 35.4869 35.4869 38.3135 32 38.3135Z" stroke="#DC3545" stroke-width="1.80166" stroke-miterlimit="10" stroke-linecap="round" stroke-linejoin="round"/>
</g>
</g>
<defs>
<clipPath id="clip0_167_1272">
<rect width="64" height="64" fill="white"/>
</clipPath>
</defs>
</svg>
