<svg width="64" height="64" viewBox="0 0 64 64" fill="none" xmlns="http://www.w3.org/2000/svg">
<mask id="mask0_167_1337" style="mask-type:luminance" maskUnits="userSpaceOnUse" x="0" y="0" width="64" height="64">
<path d="M0 7.62939e-06H64V64H0V7.62939e-06Z" fill="white"/>
</mask>
<g mask="url(#mask0_167_1337)">
<path d="M5.82942 42.7818H10.8289C11.9663 42.7818 12.8982 43.7138 12.8982 44.8512V57.9722C12.8982 59.1061 11.9663 60.0381 10.8289 60.0381H5.82942C4.69192 60.0381 3.76367 59.1061 3.76367 57.9722V44.8512C3.76367 43.7138 4.69192 42.7818 5.82942 42.7818Z" stroke="#FF800B" stroke-width="2.41999" stroke-miterlimit="10" stroke-linecap="round" stroke-linejoin="round"/>
<path d="M12.8982 45.0601H15.4991C16.4876 45.0176 16.6293 45.0211 17.7064 44.596C22.7167 42.6187 26.8091 42.3883 31.8228 47.1082C32.4499 47.6963 32.5917 47.8628 33.5909 47.8628H40.3904C42.2436 47.8628 43.7637 49.3795 43.7637 51.2362C43.7637 53.0893 42.2436 54.606 40.3904 54.606H29.3708" stroke="#FF800B" stroke-width="2.41999" stroke-miterlimit="10" stroke-linecap="round" stroke-linejoin="round"/>
<path d="M44.288 37.4242C46.2014 36.9955 47.9907 36.2407 49.5958 35.2237L50.7438 36.3719C51.3462 36.9777 52.3348 36.9777 52.937 36.3719L56.0127 33.2997C56.615 32.6974 56.615 31.7087 56.0127 31.1065L54.8647 29.9584C55.8815 28.3496 56.6328 26.5602 57.065 24.6505H58.6843C59.5383 24.6505 60.2363 23.9489 60.2363 23.0985V18.7507C60.2363 17.8967 59.5383 17.1987 58.6843 17.1987H57.065C56.6328 15.2889 55.8815 13.4995 54.8647 11.8907L56.0127 10.7427C56.615 10.1404 56.615 9.15174 56.0127 8.54937L52.937 5.47724C52.3348 4.87137 51.3462 4.87137 50.7438 5.47724L49.5958 6.62537C47.9907 5.60837 46.2014 4.85362 44.288 4.42137V2.80199C44.288 1.94812 43.59 1.24999 42.736 1.24999H38.3921C37.5381 1.24999 36.8401 1.94812 36.8401 2.80199V4.42137C34.9267 4.85362 33.1373 5.60837 31.5287 6.62537L30.3807 5.47724C29.7783 4.87137 28.7898 4.87137 28.1874 5.47724L25.1154 8.54937C24.5131 9.15174 24.5131 10.1404 25.1154 10.7427L26.2634 11.8907C25.2466 13.4995 24.4918 15.2889 24.0631 17.1987H22.4403C21.5863 17.1987 20.8883 17.8967 20.8883 18.7507V23.0985C20.8883 23.9489 21.5863 24.6505 22.4403 24.6505H24.0631C24.4918 26.5602 25.2466 28.3496 26.2634 29.9584L25.1154 31.1065C24.5131 31.7087 24.5131 32.6974 25.1154 33.2997L28.1874 36.3719C28.7898 36.9777 29.7783 36.9777 30.3807 36.3719L31.5287 35.2237C33.1373 36.2407 34.9267 36.9955 36.8401 37.4242V39.0471C36.8401 39.901 37.5381 40.5991 38.3921 40.5991H42.736C43.59 40.5991 44.288 39.901 44.288 39.0471V37.4242Z" stroke="#FF800B" stroke-width="2.41999" stroke-miterlimit="10" stroke-linecap="round" stroke-linejoin="round"/>
<path d="M44.2881 37.4243V29.5439C48.0298 28.1549 50.7156 24.5407 50.7156 20.3276C50.7156 16.9649 49.0042 13.9849 46.4069 12.2097C43.6857 10.3494 44.2101 13.2904 44.2101 13.7866V19.6862C44.2101 21.7484 42.5943 23.4528 40.5641 23.5874C38.5338 23.4528 36.9146 21.7484 36.9146 19.6862V13.7866C36.9146 13.2904 37.4424 10.3494 34.7177 12.2097C32.1204 13.9849 30.4091 16.9649 30.4091 20.3276C30.4091 24.5407 33.0948 28.1549 36.8401 29.5439V37.4243" stroke="#FF800B" stroke-width="2.41999" stroke-miterlimit="10" stroke-linecap="round" stroke-linejoin="round"/>
<path d="M44.1569 59.1804L41.6872 60.9416C37.3644 63.8223 35.5397 62.6883 30.9901 61.4588L18.0502 57.9969C17.2742 57.7879 17.3202 57.7632 16.7922 57.7632H12.8982M43.3491 49.6204L54.2092 44.0432C55.8037 43.2247 57.7524 43.5756 58.6913 45.0992C59.6338 46.6228 59.0918 48.5433 57.6354 49.5814L53.3021 52.6677M48.7348 55.9206L48.7313 55.9241" stroke="#FF800B" stroke-width="2.41999" stroke-miterlimit="10" stroke-linecap="round" stroke-linejoin="round"/>
</g>
</svg>
