<svg width="72" height="72" viewBox="0 0 72 72" fill="none" xmlns="http://www.w3.org/2000/svg">
<path d="M10.5469 60.75V65.6719C10.5469 69.1612 13.3857 72 16.875 72H21.0938C24.5831 72 27.4219 69.1612 27.4219 65.6719V60.75H10.5469Z" fill="#0084FF"/>
<path d="M18.9844 17.1558C8.51639 17.1558 0 25.6722 0 36.1401C0 41.7717 2.47852 47.0777 6.79978 50.6978C8.62341 52.2252 9.8505 54.2809 10.3257 56.5308H16.875V42.6388L12.5709 38.3349C11.7471 37.5111 11.7471 36.1756 12.5709 35.3518C13.3947 34.528 14.7302 34.528 15.554 35.3518L18.9844 38.7821L22.4148 35.3517C23.2386 34.5279 24.5741 34.5279 25.3979 35.3517C26.2216 36.1754 26.2216 37.5109 25.3979 38.3347L21.0938 42.6388V56.5308H27.6431C28.1183 54.2808 29.3453 52.2252 31.169 50.6978C35.4902 47.0777 37.9688 41.7717 37.9688 36.1401C37.9688 25.6722 29.4524 17.1558 18.9844 17.1558Z" fill="#0084FF"/>
<path d="M69.3736 56.0285C69.3968 55.7168 69.408 55.419 69.408 55.1245C69.408 54.83 69.3968 54.5321 69.3736 54.2204L71.3569 52.3026C72.0527 51.6298 72.2014 50.5698 71.7174 49.7315L68.2017 43.6422C67.7178 42.8039 66.7252 42.4033 65.7948 42.6688L63.1382 43.4287C62.6371 43.094 62.1155 42.7924 61.5769 42.5254L60.9074 39.8472C60.6727 38.9083 59.8289 38.2495 58.861 38.2495H51.8297C50.8618 38.2495 50.0181 38.9083 49.7834 39.8473L49.1139 42.5255C48.5753 42.7924 48.0537 43.0942 47.5525 43.4289L44.896 42.6689C43.9653 42.4027 42.9729 42.8041 42.489 43.6423L38.9734 49.7317C38.4895 50.57 38.638 51.63 39.3338 52.3027L41.3172 54.2206C41.294 54.5322 41.2827 54.8302 41.2827 55.1247C41.2827 55.4191 41.294 55.717 41.3172 56.0286L39.3338 57.9464C38.638 58.6192 38.4894 59.6792 38.9734 60.5175L42.489 66.6068C42.9729 67.4451 43.9654 67.8459 44.896 67.5802L47.5524 66.8203C48.0535 67.155 48.575 67.4566 49.1139 67.7238L49.7834 70.402C50.0181 71.3411 50.8618 71.9998 51.8297 71.9998H58.861C59.8289 71.9998 60.6727 71.341 60.9074 70.402L61.5769 67.7238C62.1158 67.4568 62.6372 67.155 63.1384 66.8203L65.7948 67.5802C66.7254 67.8467 67.7178 67.4451 68.2017 66.6068L71.7174 60.5175C72.2012 59.6792 72.0527 58.6192 71.3569 57.9464L69.3736 56.0285ZM55.3454 61.4526C51.856 61.4526 49.0172 58.6138 49.0172 55.1245C49.0172 51.6352 51.856 48.7964 55.3454 48.7964C58.8347 48.7964 61.6735 51.6352 61.6735 55.1245C61.6735 58.6138 58.8347 61.4526 55.3454 61.4526Z" fill="#0084FF"/>
<path d="M62.462 24.5242C61.6382 23.7004 60.3027 23.7004 59.4789 24.5242L57.4547 26.5483V10.5469C57.4547 4.73133 52.7234 0 46.9079 0H27.4219C21.6063 0 16.875 4.73133 16.875 10.5469V13.0344C17.57 12.9714 18.2732 12.9375 18.9844 12.9375C19.6955 12.9375 20.3988 12.9714 21.0938 13.0344V10.5469C21.0938 7.05755 23.9325 4.21875 27.4219 4.21875H46.9079C50.3972 4.21875 53.236 7.05755 53.236 10.5469V26.5482L51.2118 24.524C50.3881 23.7002 49.0525 23.7002 48.2288 24.524C47.405 25.3478 47.405 26.6833 48.2288 27.5071L53.8538 33.1321C54.6775 33.9559 56.0131 33.9559 56.8368 33.1321L62.4618 27.5071C63.2858 26.6835 63.2858 25.3478 62.462 24.5242Z" fill="#0084FF"/>
</svg>
