<svg width="72" height="72" viewBox="0 0 72 72" fill="none" xmlns="http://www.w3.org/2000/svg">
<g clip-path="url(#clip0_167_1469)">
<path d="M24.7552 33.1287L30.9375 37.2501V29.0073L24.7552 33.1287Z" fill="#DC3545"/>
<path d="M0 19.3359V60.1992C0 63.3979 2.6021 66 5.80078 66H60.1992C63.3979 66 66 63.3979 66 60.1992V19.3359C65.1358 19.3359 3.73712 19.3359 0 19.3359ZM7.73438 25.3945C7.73438 24.3558 8.6808 23.4609 9.66797 23.4609H32.8711C33.8164 23.4609 34.8047 24.3197 34.8047 25.3945V40.8633C34.8047 41.8361 33.9355 42.7969 32.8711 42.7969H9.66797C8.57033 42.7969 7.73438 41.8365 7.73438 40.8633V25.3945ZM58.2656 56.332C58.2656 57.4008 57.4008 58.2656 56.332 58.2656H9.66797C8.59921 58.2656 7.73438 57.4008 7.73438 56.332V48.5977C7.73438 47.5289 8.59921 46.6641 9.66797 46.6641H56.332C57.4008 46.6641 58.2656 47.5289 58.2656 48.5977V56.332ZM56.332 42.7969H40.7344C39.6656 42.7969 38.8008 41.932 38.8008 40.8633C38.8008 39.7945 39.6656 38.9297 40.7344 38.9297H56.332C57.4008 38.9297 58.2656 39.7945 58.2656 40.8633C58.2656 41.932 57.4008 42.7969 56.332 42.7969ZM56.332 35.0625H40.7344C39.6656 35.0625 38.8008 34.1977 38.8008 33.1289C38.8008 32.0601 39.6656 31.1953 40.7344 31.1953H56.332C57.4008 31.1953 58.2656 32.0601 58.2656 33.1289C58.2656 34.1977 57.4008 35.0625 56.332 35.0625ZM56.332 27.3281H40.7344C39.6656 27.3281 38.8008 26.4633 38.8008 25.3945C38.8008 24.3258 39.6656 23.4609 40.7344 23.4609H56.332C57.4008 23.4609 58.2656 24.3258 58.2656 25.3945C58.2656 26.4633 57.4008 27.3281 56.332 27.3281Z" fill="#DC3545"/>
<path d="M5.80078 0C2.6021 0 0 2.6021 0 5.80078V15.4688H42.668V0H5.80078ZM13.5352 11.6016H9.66797C8.59921 11.6016 7.73438 10.7367 7.73438 9.66797C7.73438 8.59921 8.59921 7.73438 9.66797 7.73438H13.5352C14.6039 7.73438 15.4688 8.59921 15.4688 9.66797C15.4688 10.7367 14.6039 11.6016 13.5352 11.6016ZM25.1367 11.6016H21.2695C20.2008 11.6016 19.3359 10.7367 19.3359 9.66797C19.3359 8.59921 20.2008 7.73438 21.2695 7.73438H25.1367C26.2055 7.73438 27.0703 8.59921 27.0703 9.66797C27.0703 10.7367 26.2055 11.6016 25.1367 11.6016ZM36.8672 11.6016H32.8711C31.8023 11.6016 30.9375 10.7367 30.9375 9.66797C30.9375 8.59921 31.8023 7.73438 32.8711 7.73438H36.8672C37.9359 7.73438 38.8008 8.59921 38.8008 9.66797C38.8008 10.7367 37.9359 11.6016 36.8672 11.6016Z" fill="#DC3545"/>
<path d="M21.2695 35.4526L16.0541 38.9296H26.4849L21.2695 35.4526Z" fill="#DC3545"/>
<path d="M11.6016 29.0073V37.2501L17.7838 33.1287L11.6016 29.0073Z" fill="#DC3545"/>
<path d="M16.0541 27.3281L21.2695 30.8051L26.4849 27.3281H16.0541Z" fill="#DC3545"/>
<path d="M60.1992 0H46.5352V15.4688H66V5.80078C66 2.6021 63.3979 0 60.1992 0Z" fill="#DC3545"/>
<path d="M54.3984 50.5312H11.6016V54.3984H54.3984V50.5312Z" fill="#DC3545"/>
</g>
<defs>
<clipPath id="clip0_167_1469">
<rect width="72" height="72" fill="white"/>
</clipPath>
</defs>
</svg>
