<svg width="72" height="72" viewBox="0 0 72 72" fill="none" xmlns="http://www.w3.org/2000/svg">
<g clip-path="url(#clip0_167_1501)">
<path d="M61.125 4.15527H10.875C7.08413 4.15527 4 7.2394 4 11.0303V19.1553H68V11.0303C68 7.2394 64.9159 4.15527 61.125 4.15527ZM13.5 13.5303C12.4645 13.5303 11.625 12.6908 11.625 11.6553C11.625 10.6198 12.4645 9.78027 13.5 9.78027C14.5355 9.78027 15.375 10.6198 15.375 11.6553C15.375 12.6908 14.5355 13.5303 13.5 13.5303ZM21 13.5303C19.9645 13.5303 19.125 12.6908 19.125 11.6553C19.125 10.6198 19.9645 9.78027 21 9.78027C22.0355 9.78027 22.875 10.6198 22.875 11.6553C22.875 12.6908 22.0355 13.5303 21 13.5303ZM28.5 13.5303C27.4645 13.5303 26.625 12.6908 26.625 11.6553C26.625 10.6198 27.4645 9.78027 28.5 9.78027C29.5355 9.78027 30.375 10.6198 30.375 11.6553C30.375 12.6908 29.5355 13.5303 28.5 13.5303Z" fill="#076856"/>
<path d="M29.0972 38.6269C29.3881 37.0359 29.7803 35.562 30.2668 34.2646C30.3537 34.0329 30.4425 33.8129 30.5322 33.5991C27.6828 34.9102 25.3805 37.2125 24.0695 40.0619C24.2832 39.9721 24.5032 39.8834 24.735 39.7965C26.0323 39.3101 27.5063 38.9177 29.0972 38.6269Z" fill="#076856"/>
<path d="M33.0234 52.9233C33.2349 53.8425 33.4867 54.7008 33.7782 55.4783C34.7506 58.0715 35.7326 58.6551 35.9999 58.6551C36.2673 58.6551 37.2493 58.0715 38.2217 55.4783C38.5133 54.7008 38.7649 53.8425 38.9764 52.9233C38.0036 52.9933 37.0086 53.0301 35.9999 53.0301C34.9913 53.0301 33.9963 52.9933 33.0234 52.9233Z" fill="#076856"/>
<path d="M30.5323 57.4603C30.4426 57.2466 30.3538 57.0266 30.267 56.7948C29.7805 55.4974 29.3881 54.0234 29.0973 52.4326C27.5063 52.1417 26.0325 51.7494 24.7351 51.2629C24.5033 51.1761 24.2833 51.0873 24.0696 50.9976C25.3806 53.8469 27.6828 56.1492 30.5323 57.4603Z" fill="#076856"/>
<path d="M38.9764 38.137C38.7649 37.2179 38.5132 36.3595 38.2217 35.582C37.2493 32.9889 36.2673 32.4053 35.9999 32.4053C35.7326 32.4053 34.7506 32.9889 33.7782 35.582C33.4866 36.3595 33.2349 37.2179 33.0234 38.137C33.9963 38.067 34.9913 38.0303 35.9999 38.0303C37.0086 38.0303 38.0036 38.067 38.9764 38.137Z" fill="#076856"/>
<path d="M36 49.2803C37.2281 49.2803 38.4287 49.2223 39.5812 49.1115C39.692 47.959 39.75 46.7584 39.75 45.5303C39.75 44.3021 39.692 43.1015 39.5812 41.949C38.4287 41.8383 37.2281 41.7803 36 41.7803C34.7719 41.7803 33.5713 41.8383 32.4188 41.949C32.308 43.1015 32.25 44.3021 32.25 45.5303C32.25 46.7584 32.308 47.959 32.4188 49.1115C33.5713 49.2223 34.7719 49.2803 36 49.2803Z" fill="#076856"/>
<path d="M28.6068 48.5067C28.5368 47.5338 28.5 46.5388 28.5 45.5302C28.5 44.5216 28.5368 43.5266 28.6068 42.5537C27.6876 42.7652 26.8293 43.017 26.0518 43.3085C23.4586 44.2808 22.875 45.2628 22.875 45.5302C22.875 45.7976 23.4586 46.7796 26.0518 47.752C26.8293 48.0436 27.6876 48.2953 28.6068 48.5067Z" fill="#076856"/>
<path d="M47.9305 50.9976C47.7168 51.0873 47.4968 51.1761 47.265 51.2629C45.9676 51.7494 44.4936 52.1418 42.9028 52.4326C42.6119 54.0236 42.2196 55.4974 41.7331 56.7948C41.6463 57.0266 41.5575 57.2466 41.4678 57.4603C44.3171 56.1493 46.6194 53.8471 47.9305 50.9976Z" fill="#076856"/>
<path d="M4 61.2803C4 65.0711 7.08413 68.1553 10.875 68.1553H61.125C64.9159 68.1553 68 65.0711 68 61.2803V22.9053H4V61.2803ZM36 28.6553C45.3049 28.6553 52.875 36.2254 52.875 45.5303C52.875 54.8351 45.3049 62.4053 36 62.4053C26.6951 62.4053 19.125 54.8351 19.125 45.5303C19.125 36.2254 26.6951 28.6553 36 28.6553Z" fill="#076856"/>
<path d="M42.9028 38.6269C44.4938 38.9177 45.9676 39.31 47.265 39.7965C47.4968 39.8834 47.7168 39.9721 47.9305 40.0619C46.6194 37.2125 44.3171 34.9101 41.4678 33.5991C41.5575 33.8129 41.6463 34.0329 41.7331 34.2646C42.2195 35.562 42.6119 37.036 42.9028 38.6269Z" fill="#076856"/>
<path d="M43.3933 42.5537C43.4633 43.5266 43.5001 44.5216 43.5001 45.5302C43.5001 46.5388 43.4633 47.5338 43.3933 48.5067C44.3124 48.2952 45.1708 48.0435 45.9483 47.752C48.5414 46.7796 49.1251 45.7976 49.1251 45.5302C49.1251 45.2628 48.5414 44.2808 45.9483 43.3085C45.1708 43.0168 44.3124 42.7651 43.3933 42.5537Z" fill="#076856"/>
</g>
<defs>
<clipPath id="clip0_167_1501">
<rect width="64" height="64" fill="white" transform="translate(4 4.15527)"/>
</clipPath>
</defs>
</svg>
