<svg width="72" height="72" viewBox="0 0 72 72" fill="none" xmlns="http://www.w3.org/2000/svg">
<g clip-path="url(#clip0_167_1520)">
<path d="M66.125 4H5.875C4.84 4 4 4.84 4 5.875V16.915H68V5.875C68 4.84 67.1613 4 66.125 4ZM25.6688 12.3325H13.375C12.34 12.3325 11.5 11.4925 11.5 10.4575C11.5 9.4225 12.34 8.5825 13.375 8.5825H25.6688C26.7038 8.5825 27.5438 9.4225 27.5438 10.4575C27.5438 11.4925 26.7038 12.3325 25.6688 12.3325ZM43.625 12.3325C42.59 12.3325 41.75 11.4925 41.75 10.4575C41.75 9.4225 42.59 8.5825 43.625 8.5825C44.6613 8.5825 45.5 9.4225 45.5 10.4575C45.5 11.4925 44.6613 12.3325 43.625 12.3325ZM51.125 12.3325C50.09 12.3325 49.25 11.4925 49.25 10.4575C49.25 9.4225 50.09 8.5825 51.125 8.5825C52.1613 8.5825 53 9.4225 53 10.4575C53 11.4925 52.1613 12.3325 51.125 12.3325ZM58.625 12.3325C57.59 12.3325 56.75 11.4925 56.75 10.4575C56.75 9.4225 57.59 8.5825 58.625 8.5825C59.6613 8.5825 60.5 9.4225 60.5 10.4575C60.5 11.4925 59.6613 12.3325 58.625 12.3325Z" fill="#FF800B"/>
<path d="M36 45.166C34.1037 45.166 32.56 46.7085 32.56 48.6048C32.56 50.5023 34.1037 52.0448 36 52.0448C37.8962 52.0448 39.44 50.5023 39.44 48.6048C39.44 46.7085 37.8962 45.166 36 45.166Z" fill="#FF800B"/>
<path d="M4 57.375C4 58.41 4.84 59.25 5.875 59.25H15.7338C15.6675 58.4588 15.7738 57.6525 16.055 56.8938C14.1513 56.025 12.855 54.1075 12.855 51.9088V45.3013C12.855 43.1288 14.1238 41.2288 15.9963 40.3463C15.2913 38.4025 15.7325 36.1613 17.2662 34.6188L21.9275 29.9375C22.9625 28.8963 24.3425 28.3225 25.8113 28.3225C26.4625 28.3225 27.1063 28.44 27.7113 28.6638C28.5788 26.7575 30.4963 25.4613 32.6963 25.4613H39.3037C41.48 25.4613 43.3812 26.73 44.2612 28.6038C44.855 28.3888 45.485 28.2763 46.1225 28.2763C47.5813 28.2763 48.9538 28.8438 49.9863 29.8713L54.6738 34.5375C56.2275 36.0888 56.6712 38.3575 55.945 40.3188C57.8488 41.1875 59.145 43.105 59.145 45.3013V51.9088C59.145 54.085 57.8763 55.985 56.005 56.8663C56.2838 57.635 56.3825 58.45 56.3063 59.25H66.125C67.1613 59.25 68 58.41 68 57.375V20.665H4V57.375Z" fill="#FF800B"/>
<path d="M53.8567 43.5837L49.3007 43.0791L52.1576 39.493C52.706 38.8041 52.6483 37.8133 52.0251 37.1913L47.3412 32.5293C46.718 31.9084 45.7261 31.8554 45.0396 32.4072L41.5192 35.2376L41.0216 30.7483C40.9248 29.8728 40.1852 29.2104 39.304 29.2104H32.6962C31.815 29.2104 31.0753 29.8728 30.9786 30.7483L30.4728 35.3043L26.888 32.4486C26.1991 31.8991 25.2072 31.9567 24.5863 32.5811L19.9243 37.2638C19.3035 37.8882 19.2505 38.879 19.8022 39.5654L22.6326 43.0858L18.1433 43.5835C17.2678 43.6813 16.6055 44.421 16.6055 45.301V51.9087C16.6055 52.79 17.2678 53.5296 18.1433 53.6263L22.6993 54.1321L19.8425 57.7172C19.2941 58.4061 19.3517 59.398 19.975 60.0188L24.6588 64.6808C25.2821 65.3018 26.274 65.3547 26.9605 64.803L30.4808 61.9726L30.9785 66.4618C31.0752 67.3373 31.8148 67.9997 32.6961 67.9997H39.3038C40.1851 67.9997 40.9247 67.3373 41.0215 66.4618L41.5272 61.9058L45.1122 64.7627C45.8011 65.3111 46.793 65.2546 47.4138 64.6302L52.0758 59.9475C52.6967 59.3231 52.7497 58.3312 52.198 57.6446L49.3676 54.1242L53.8568 53.6266C54.7323 53.5298 55.3947 52.7902 55.3947 51.9089V45.3012C55.3946 44.4212 54.7322 43.6816 53.8567 43.5837ZM36 55.7946C32.0361 55.7946 28.8105 52.5691 28.8105 48.6051C28.8105 44.6411 32.036 41.4156 36 41.4156C39.9638 41.4156 43.1895 44.6411 43.1895 48.6051C43.1895 52.5691 39.9638 55.7946 36 55.7946Z" fill="#FF800B"/>
</g>
<defs>
<clipPath id="clip0_167_1520">
<rect width="64" height="64" fill="white" transform="translate(4 4)"/>
</clipPath>
</defs>
</svg>
