<svg width="72" height="72" viewBox="0 0 72 72" fill="none" xmlns="http://www.w3.org/2000/svg">
<g clip-path="url(#clip0_87_2836)">
<path d="M29.7603 13.0439C20.5428 13.0439 13.0436 20.5431 13.0436 29.7606C13.0436 38.9781 20.5428 46.4772 29.7603 46.4772C38.9778 46.4772 46.4769 38.9782 46.4769 29.7606C46.4769 20.5429 38.978 13.0439 29.7603 13.0439ZM39.9483 29.7606C39.9483 24.1429 35.378 19.5726 29.7603 19.5726V15.7704C37.4744 15.7704 43.7504 22.0464 43.7504 29.7606H39.9483Z" fill="#C33DAB"/>
<path d="M66.0791 56.805L54.4169 45.1426L51.124 48.4355L49.2617 46.5733C53.16 42.0579 55.5207 36.1798 55.5207 29.7603C55.5207 15.5561 43.9646 4 29.7604 4C15.5561 4 4 15.5561 4 29.7604C4 43.9646 15.5561 55.5206 29.7603 55.5206C36.1796 55.5206 42.0578 53.16 46.5732 49.2616L48.4355 51.1239L45.1426 54.4168L56.805 66.079C58.0436 67.3176 59.6905 67.9999 61.4421 67.9999C63.1937 67.9999 64.8406 67.3178 66.0793 66.0791C67.3177 64.8406 68 63.1938 68 61.4421C68 59.6905 67.3177 58.0435 66.0791 56.805ZM29.7603 50.2791C18.4462 50.2791 9.2415 41.0745 9.2415 29.7604C9.2415 18.4463 18.4462 9.24163 29.7603 9.24163C41.0742 9.24163 50.279 18.4464 50.279 29.7604C50.279 41.0744 41.0745 50.2791 29.7603 50.2791Z" fill="#C33DAB"/>
</g>
<defs>
<clipPath id="clip0_87_2836">
<rect width="64" height="64" fill="white" transform="translate(4 4)"/>
</clipPath>
</defs>
</svg>
