<svg width="100" height="100" viewBox="0 0 100 100" fill="none" xmlns="http://www.w3.org/2000/svg">
<path d="M50.0163 0C29.1418 0 23.0368 0.021543 21.8501 0.12C17.5663 0.476182 14.9006 1.15087 11.9965 2.5971C9.75852 3.70878 7.99344 4.99733 6.25146 6.80364C3.079 10.0978 1.15628 14.1504 0.460242 18.9678C0.121861 21.3064 0.0234037 21.7833 0.00340997 33.729C-0.00426247 37.7109 0.00340997 42.9513 0.00340997 49.9804C0.00340997 70.8437 0.026465 76.9442 0.126471 78.1289C0.472563 82.2985 1.12627 84.9218 2.51063 87.7913C5.1563 93.284 10.2092 97.4075 16.1619 98.9461C18.2231 99.4769 20.4996 99.7692 23.4221 99.9077C24.6603 99.9615 37.281 100 49.9094 100C62.5378 100 75.1662 99.9846 76.3736 99.9231C79.7577 99.7638 81.7227 99.5 83.8953 98.9384C89.8865 97.3921 94.8472 93.3302 97.5466 87.7605C98.9041 84.9602 99.5924 82.2369 99.9039 78.2851C99.9715 77.4235 100 63.6861 100 49.9673C100 36.2461 99.9692 22.5342 99.9016 21.6726C99.5862 17.6569 98.8979 14.9567 97.4966 12.1025C96.3469 9.76619 95.0702 8.02141 93.2167 6.23747C89.9089 3.07718 85.8634 1.15393 81.0428 0.458495C78.7071 0.120756 78.2418 0.0207496 66.2902 0H50.0163Z" fill="url(#paint0_radial_372_1211)"/>
<path d="M50.0163 0C29.1418 0 23.0368 0.021543 21.8501 0.12C17.5663 0.476182 14.9006 1.15087 11.9965 2.5971C9.75852 3.70878 7.99344 4.99733 6.25146 6.80364C3.079 10.0978 1.15628 14.1504 0.460242 18.9678C0.121861 21.3064 0.0234037 21.7833 0.00340997 33.729C-0.00426247 37.7109 0.00340997 42.9513 0.00340997 49.9804C0.00340997 70.8437 0.026465 76.9442 0.126471 78.1289C0.472563 82.2985 1.12627 84.9218 2.51063 87.7913C5.1563 93.284 10.2092 97.4075 16.1619 98.9461C18.2231 99.4769 20.4996 99.7692 23.4221 99.9077C24.6603 99.9615 37.281 100 49.9094 100C62.5378 100 75.1662 99.9846 76.3736 99.9231C79.7577 99.7638 81.7227 99.5 83.8953 98.9384C89.8865 97.3921 94.8472 93.3302 97.5466 87.7605C98.9041 84.9602 99.5924 82.2369 99.9039 78.2851C99.9715 77.4235 100 63.6861 100 49.9673C100 36.2461 99.9692 22.5342 99.9016 21.6726C99.5862 17.6569 98.8979 14.9567 97.4966 12.1025C96.3469 9.76619 95.0702 8.02141 93.2167 6.23747C89.9089 3.07718 85.8634 1.15393 81.0428 0.458495C78.7071 0.120756 78.2418 0.0207496 66.2902 0H50.0163Z" fill="url(#paint1_radial_372_1211)"/>
<path d="M50.0163 0C29.1418 0 23.0368 0.021543 21.8501 0.12C17.5663 0.476182 14.9006 1.15087 11.9965 2.5971C9.75852 3.70878 7.99344 4.99733 6.25146 6.80364C3.079 10.0978 1.15628 14.1504 0.460242 18.9678C0.121861 21.3064 0.0234037 21.7833 0.00340997 33.729C-0.00426247 37.7109 0.00340997 42.9513 0.00340997 49.9804C0.00340997 70.8437 0.026465 76.9442 0.126471 78.1289C0.472563 82.2985 1.12627 84.9218 2.51063 87.7913C5.1563 93.284 10.2092 97.4075 16.1619 98.9461C18.2231 99.4769 20.4996 99.7692 23.4221 99.9077C24.6603 99.9615 37.281 100 49.9094 100C62.5378 100 75.1662 99.9846 76.3736 99.9231C79.7577 99.7638 81.7227 99.5 83.8953 98.9384C89.8865 97.3921 94.8472 93.3302 97.5466 87.7605C98.9041 84.9602 99.5924 82.2369 99.9039 78.2851C99.9715 77.4235 100 63.6861 100 49.9673C100 36.2461 99.9692 22.5342 99.9016 21.6726C99.5862 17.6569 98.8979 14.9567 97.4966 12.1025C96.3469 9.76619 95.0702 8.02141 93.2167 6.23747C89.9089 3.07718 85.8634 1.15393 81.0428 0.458495C78.7071 0.120756 78.2418 0.0207496 66.2902 0H50.0163Z" fill="url(#paint2_radial_372_1211)"/>
<path d="M50.0163 0C29.1418 0 23.0368 0.021543 21.8501 0.12C17.5663 0.476182 14.9006 1.15087 11.9965 2.5971C9.75852 3.70878 7.99344 4.99733 6.25146 6.80364C3.079 10.0978 1.15628 14.1504 0.460242 18.9678C0.121861 21.3064 0.0234037 21.7833 0.00340997 33.729C-0.00426247 37.7109 0.00340997 42.9513 0.00340997 49.9804C0.00340997 70.8437 0.026465 76.9442 0.126471 78.1289C0.472563 82.2985 1.12627 84.9218 2.51063 87.7913C5.1563 93.284 10.2092 97.4075 16.1619 98.9461C18.2231 99.4769 20.4996 99.7692 23.4221 99.9077C24.6603 99.9615 37.281 100 49.9094 100C62.5378 100 75.1662 99.9846 76.3736 99.9231C79.7577 99.7638 81.7227 99.5 83.8953 98.9384C89.8865 97.3921 94.8472 93.3302 97.5466 87.7605C98.9041 84.9602 99.5924 82.2369 99.9039 78.2851C99.9715 77.4235 100 63.6861 100 49.9673C100 36.2461 99.9692 22.5342 99.9016 21.6726C99.5862 17.6569 98.8979 14.9567 97.4966 12.1025C96.3469 9.76619 95.0702 8.02141 93.2167 6.23747C89.9089 3.07718 85.8634 1.15393 81.0428 0.458495C78.7071 0.120756 78.2418 0.0207496 66.2902 0H50.0163Z" fill="url(#paint3_radial_372_1211)"/>
<path d="M50.0203 12.8398C39.9226 12.8398 38.6554 12.884 34.6894 13.0643C30.7312 13.2454 28.0294 13.8716 25.6653 14.7904C23.2199 15.7393 21.1455 17.0087 19.0789 19.0746C17.0108 21.1397 15.7404 23.2125 14.7876 25.6554C13.8659 28.0185 13.2384 30.719 13.0603 34.6727C12.8829 38.6357 12.8364 39.9028 12.8364 49.993C12.8364 60.0832 12.8814 61.3456 13.061 65.3086C13.2431 69.2638 13.8697 71.9636 14.7884 74.326C15.7388 76.7696 17.0092 78.8424 19.0766 80.9075C21.1425 82.9741 23.2168 84.2467 25.6607 85.1956C28.0263 86.1143 30.7289 86.7405 34.6863 86.9217C38.6523 87.102 39.9187 87.1461 50.0156 87.1461C60.1141 87.1461 61.3774 87.102 65.3434 86.9217C69.3016 86.7405 72.0065 86.1143 74.3721 85.1955C76.8167 84.2467 78.888 82.9741 80.9539 80.9075C83.022 78.8424 84.2924 76.7696 85.2452 74.3268C86.1592 71.9636 86.7866 69.2631 86.9725 65.3094C87.1506 61.3464 87.1971 60.0832 87.1971 49.993C87.1971 39.9028 87.1506 38.6365 86.9725 34.6735C86.7866 30.7182 86.1592 28.0185 85.2452 25.6561C84.2924 23.2125 83.022 21.1397 80.9539 19.0746C78.8857 17.0079 76.8175 15.7386 74.3698 14.7904C71.9995 13.8716 69.2962 13.2454 65.338 13.0643C61.372 12.884 60.1094 12.8398 50.0087 12.8398H50.0203ZM46.6848 19.5352C47.6748 19.5336 48.7794 19.5352 50.0203 19.5352C59.9475 19.5352 61.1241 19.5708 65.0444 19.7488C68.6695 19.9144 70.637 20.5197 71.9476 21.0282C73.6827 21.7016 74.9198 22.5066 76.2203 23.807C77.5216 25.1074 78.3272 26.3458 79.0027 28.0796C79.5116 29.3877 80.1181 31.3537 80.2831 34.9762C80.4612 38.8927 80.5 40.0692 80.5 49.9845C80.5 59.8997 80.4612 61.0763 80.2831 64.9928C80.1173 68.6152 79.5116 70.5812 79.0027 71.8893C78.3288 73.6232 77.5216 74.8577 76.2203 76.1573C74.919 77.4577 73.6835 78.2626 71.9476 78.936C70.6385 79.4469 68.6695 80.0506 65.0444 80.2163C61.1249 80.3943 59.9475 80.433 50.0203 80.433C40.0922 80.433 38.9156 80.3943 34.9961 80.2163C31.371 80.0491 29.4036 79.4438 28.0922 78.9353C26.357 78.2619 25.1177 77.4569 23.8164 76.1565C22.515 74.8562 21.7095 73.6209 21.034 71.8862C20.5251 70.5781 19.9186 68.6121 19.7536 64.9897C19.5754 61.0731 19.5398 59.8966 19.5398 49.9752C19.5398 40.0538 19.5754 38.8834 19.7536 34.9669C19.9194 31.3444 20.5251 29.3784 21.034 28.0688C21.7079 26.335 22.515 25.0965 23.8164 23.7962C25.1177 22.4958 26.357 21.6908 28.0922 21.0159C29.4028 20.505 31.371 19.9013 34.9961 19.7348C38.4261 19.58 39.7553 19.5336 46.6849 19.5258L46.6848 19.5352ZM69.8671 25.7041C67.4038 25.7041 65.4053 27.6988 65.4053 30.1609C65.4053 32.6223 67.4038 34.6193 69.8671 34.6193C72.3302 34.6193 74.3287 32.6223 74.3287 30.1609C74.3287 27.6995 72.3302 25.7026 69.867 25.7026L69.8671 25.7041ZM50.0203 30.9133C39.4756 30.9133 30.9264 39.4562 30.9264 49.993C30.9264 60.5298 39.4756 69.0688 50.0203 69.0688C60.5649 69.0688 69.111 60.5298 69.111 49.993C69.111 39.4562 60.5641 30.9133 50.0195 30.9133H50.0203ZM50.0203 37.6086C56.8646 37.6086 62.4139 43.1529 62.4139 49.993C62.4139 56.8323 56.8646 62.3774 50.0203 62.3774C43.1752 62.3774 37.6267 56.8323 37.6267 49.993C37.6267 43.1529 43.1752 37.6086 50.0203 37.6086Z" fill="white"/>
<defs>
<radialGradient id="paint0_radial_372_1211" cx="0" cy="0" r="1" gradientUnits="userSpaceOnUse" gradientTransform="translate(96.771 46.8712) rotate(164.25) scale(63.8943 46.0328)">
<stop stop-color="#FF005F"/>
<stop offset="1" stop-color="#FC01D8"/>
</radialGradient>
<radialGradient id="paint1_radial_372_1211" cx="0" cy="0" r="1" gradientUnits="userSpaceOnUse" gradientTransform="translate(26.5617 107.702) rotate(-90) scale(79.8219 84.6893)">
<stop stop-color="#FFCC00"/>
<stop offset="0.1242" stop-color="#FFCC00"/>
<stop offset="0.5672" stop-color="#FE4A05"/>
<stop offset="0.6942" stop-color="#FF0F3F"/>
<stop offset="1" stop-color="#FE0657" stop-opacity="0"/>
</radialGradient>
<radialGradient id="paint2_radial_372_1211" cx="0" cy="0" r="1" gradientUnits="userSpaceOnUse" gradientTransform="translate(52.5269 98.5897) rotate(-59.8703) scale(33.007 42.9715)">
<stop stop-color="#FFCC00"/>
<stop offset="1" stop-color="#FFCC00" stop-opacity="0"/>
</radialGradient>
<radialGradient id="paint3_radial_372_1211" cx="0" cy="0" r="1" gradientUnits="userSpaceOnUse" gradientTransform="translate(13.5679 4.07197) rotate(164.274) scale(63.1856 21.5273)">
<stop stop-color="#780CFF"/>
<stop offset="1" stop-color="#820BFF" stop-opacity="0"/>
</radialGradient>
</defs>
</svg>
