<svg width="100" height="100" viewBox="0 0 100 100" fill="none" xmlns="http://www.w3.org/2000/svg">
<g clip-path="url(#clip0_372_1254)">
<path d="M86.0878 80.7345C45.6079 99.9995 20.4857 83.8811 4.40418 74.0911C3.40907 73.4741 1.71771 74.2353 3.18519 75.9209C8.54276 82.4171 26.1006 98.0747 49.0187 98.0747C71.9526 98.0747 85.5962 85.5609 87.3029 83.3779C88.9981 81.2134 87.8007 80.0195 86.0874 80.7345H86.0878ZM97.4564 74.4561C96.3694 73.0405 90.8464 72.7767 87.3706 73.2036C83.8894 73.6183 78.6642 75.7459 79.1185 77.0233C79.3516 77.5018 79.8274 77.2872 82.2188 77.0722C84.6168 76.8329 91.3345 75.9851 92.7343 77.815C94.1406 79.6575 90.5918 88.4347 89.9436 89.8502C89.3174 91.2658 90.1829 91.6308 91.3592 90.688C92.5193 89.7456 94.6196 87.3049 96.0289 83.8511C97.4287 80.3783 98.2827 75.5339 97.4564 74.4561Z" fill="#FF9900"/>
<path fill-rule="evenodd" clip-rule="evenodd" d="M58.8697 41.4249C58.8697 46.4798 58.9974 50.6953 56.4425 55.1843C54.3803 58.8343 51.1137 61.0788 47.4641 61.0788C42.4819 61.0788 39.5804 57.283 39.5804 51.6808C39.5804 40.6218 49.4893 38.6146 58.8697 38.6146V41.4249ZM71.9539 73.0502C71.0961 73.8165 69.8552 73.8715 68.8882 73.3603C64.5815 69.7837 63.8149 68.1231 61.4427 64.7104C54.3257 71.9736 49.2889 74.145 40.0551 74.145C29.1423 74.145 20.6382 67.4111 20.6382 53.9253C20.6382 43.3959 26.3504 36.2239 34.4706 32.7204C41.5149 29.6178 51.3511 29.0704 58.8697 28.213V26.5339C58.8697 23.4497 59.1066 19.8001 57.3002 17.1359C55.7124 14.7452 52.6832 13.7597 50.0186 13.7597C45.0734 13.7597 40.6571 16.2962 39.5804 21.5518C39.3612 22.72 38.5038 23.8698 37.3359 23.9244L24.7441 22.5742C23.6859 22.3365 22.518 21.4791 22.81 19.8547C25.7115 4.59901 39.4889 0 51.825 0C58.1392 0 66.3875 1.67905 71.3696 6.46039C77.6838 12.3546 77.0815 20.2197 77.0815 28.7784V48.9981C77.0815 55.075 79.5998 57.7392 81.972 61.0242C82.8114 62.192 82.9941 63.5976 81.9355 64.4731C79.2894 66.681 74.5812 70.7873 71.9901 73.0868L71.9535 73.0502" fill="white"/>
<path d="M86.0878 80.7345C45.6079 99.9995 20.4857 83.8811 4.40418 74.0911C3.40907 73.4741 1.71771 74.2353 3.18519 75.9209C8.54276 82.4171 26.1006 98.0747 49.0187 98.0747C71.9526 98.0747 85.5962 85.5609 87.3029 83.3779C88.9981 81.2134 87.8007 80.0195 86.0874 80.7345H86.0878ZM97.4564 74.4561C96.3694 73.0405 90.8464 72.7767 87.3706 73.2036C83.8894 73.6183 78.6642 75.7459 79.1185 77.0233C79.3516 77.5018 79.8274 77.2872 82.2188 77.0722C84.6168 76.8329 91.3345 75.9851 92.7343 77.815C94.1406 79.6575 90.5918 88.4347 89.9436 89.8502C89.3174 91.2658 90.1829 91.6308 91.3592 90.688C92.5193 89.7456 94.6196 87.3049 96.0289 83.8511C97.4287 80.3783 98.2827 75.5339 97.4564 74.4561Z" fill="#FF9900"/>
<path fill-rule="evenodd" clip-rule="evenodd" d="M58.8697 41.4249C58.8697 46.4798 58.9974 50.6953 56.4425 55.1843C54.3803 58.8343 51.1137 61.0788 47.4641 61.0788C42.4819 61.0788 39.5804 57.283 39.5804 51.6808C39.5804 40.6218 49.4893 38.6146 58.8697 38.6146V41.4249ZM71.9539 73.0502C71.0961 73.8165 69.8552 73.8715 68.8882 73.3603C64.5815 69.7837 63.8149 68.1231 61.4427 64.7104C54.3257 71.9736 49.2889 74.145 40.0551 74.145C29.1423 74.145 20.6382 67.4111 20.6382 53.9253C20.6382 43.3959 26.3504 36.2239 34.4706 32.7204C41.5149 29.6178 51.3511 29.0704 58.8697 28.213V26.5339C58.8697 23.4497 59.1066 19.8001 57.3002 17.1359C55.7124 14.7452 52.6832 13.7597 50.0186 13.7597C45.0734 13.7597 40.6571 16.2962 39.5804 21.5518C39.3612 22.72 38.5038 23.8698 37.3359 23.9244L24.7441 22.5742C23.6859 22.3365 22.518 21.4791 22.81 19.8547C25.7115 4.59901 39.4889 0 51.825 0C58.1392 0 66.3875 1.67905 71.3696 6.46039C77.6838 12.3546 77.0815 20.2197 77.0815 28.7784V48.9981C77.0815 55.075 79.5998 57.7392 81.972 61.0242C82.8114 62.192 82.9941 63.5976 81.9355 64.4731C79.2894 66.681 74.5812 70.7873 71.9901 73.0868L71.9535 73.0502" fill="white"/>
</g>
<defs>
<clipPath id="clip0_372_1254">
<rect width="100" height="100" fill="white"/>
</clipPath>
</defs>
</svg>
