<svg width="100" height="100" viewBox="0 0 100 100" fill="none" xmlns="http://www.w3.org/2000/svg">
<g clip-path="url(#clip0_372_1234)">
<path d="M6.83646 92.081H22.7882V49.3953L0 30.4238V84.522C0 88.672 3.08311 92.081 6.83646 92.081Z" fill="#4285F4"/>
<path d="M77.3459 92.081H93.2977C97.051 92.081 100.134 88.672 100.134 84.522V30.4238L77.3459 49.247" fill="#34A853"/>
<path d="M77.3459 16.6401V49.3955L100.134 30.5722V20.3455C100.134 11.008 90.4827 5.67225 83.7803 11.3044" fill="#FBBC04"/>
<path d="M22.7881 49.395V16.6396L50.1339 39.3164L77.3457 16.6396V49.395L49.9999 71.9236" fill="#EA4335"/>
<path d="M0 20.3456V30.4242L22.7882 49.2474V16.6403L16.3539 11.3046C9.65147 5.82063 0 11.1563 0 20.3456Z" fill="#C5221F"/>
</g>
<defs>
<clipPath id="clip0_372_1234">
<rect width="100" height="100" fill="white"/>
</clipPath>
</defs>
</svg>
