<svg width="100" height="100" viewBox="0 0 100 100" fill="none" xmlns="http://www.w3.org/2000/svg">
<path d="M2.06348 70.9786L35.3136 13.126L64.1254 29.8357L30.8794 87.6883L2.06348 70.9786Z" fill="#FBBC04"/>
<path d="M97.6539 70.7772L64.3834 12.904C60.0884 4.74452 50.0245 1.62713 41.9014 5.9413C33.7782 10.2555 30.6788 20.3644 34.9697 28.5239C35.158 28.8817 35.3586 29.2312 35.5715 29.5767L68.8421 87.4499C73.3295 95.5025 83.467 98.3772 91.4837 93.8698C99.5005 89.3623 102.362 79.1794 97.875 71.1268C97.8013 70.9952 97.7276 70.8677 97.6539 70.7402V70.7772Z" fill="#4285F4"/>
<path d="M16.6353 95.9135C25.8227 95.9135 33.2706 88.4324 33.2706 79.2038C33.2706 69.9753 25.8227 62.4941 16.6353 62.4941C7.44787 62.4941 0 69.9753 0 79.2038C0 88.4324 7.44787 95.9135 16.6353 95.9135Z" fill="#34A853"/>
</svg>
