<svg width="100" height="100" viewBox="0 0 100 100" fill="none" xmlns="http://www.w3.org/2000/svg">
<path d="M97.9102 25.9307C96.7602 21.628 93.3721 18.2398 89.0693 17.0898C81.271 15 50 15 50 15C50 15 18.7291 15 10.9306 17.0898C6.62818 18.2398 3.23952 21.628 2.08962 25.9307C0 33.7291 0 50 0 50C0 50 0 66.2707 2.08962 74.0698C3.23952 78.372 6.62818 81.7602 10.9306 82.9106C18.7291 85 50 85 50 85C50 85 81.271 85 89.0693 82.9106C93.3721 81.7602 96.7602 78.372 97.9102 74.0698C100 66.2707 100 50 100 50C100 50 100 33.7291 97.9102 25.9307Z" fill="#ED1D24"/>
<path d="M39.7727 64.7725L65.9091 50.0005L39.7727 35.2271V64.7725Z" fill="white"/>
</svg>
