<svg width="100" height="100" viewBox="0 0 100 100" fill="none" xmlns="http://www.w3.org/2000/svg">
<g clip-path="url(#clip0_372_1265)">
<path fill-rule="evenodd" clip-rule="evenodd" d="M0 23.9707H99.9512V91.6469C99.9512 96.2467 96.223 99.9753 91.6227 99.9753H8.32845C3.72865 99.9753 0 96.2452 0 91.6469V23.9707Z" fill="#518FF5"/>
<path fill-rule="evenodd" clip-rule="evenodd" d="M35.2642 71.7706L61.221 48.0361L99.9999 86.7572L99.9818 91.6467C99.9648 96.2467 96.2227 99.9761 91.6217 99.9761H63.5938L35.2642 71.7706Z" fill="url(#paint0_linear_372_1265)"/>
<path fill-rule="evenodd" clip-rule="evenodd" d="M0 8.3536C0 3.75355 3.72816 0.0244141 8.32845 0.0244141H91.6227C96.2226 0.0244141 99.9512 3.75306 99.9512 8.3536V23.971H0V8.3536Z" fill="#4758B8"/>
<path fill-rule="evenodd" clip-rule="evenodd" d="M45.8108 11.4772H35.9184C33.9064 11.4772 32.2759 13.1087 32.2759 15.1214C32.2759 17.1343 33.9067 18.7654 35.9184 18.7654H64.0326C66.0445 18.7654 67.6751 17.1339 67.6751 15.1214C67.6751 13.1082 66.0443 11.4772 64.0326 11.4772H54.14V10.4362C54.14 8.13508 52.2756 6.27148 49.9755 6.27148C47.6749 6.27148 45.8108 8.13605 45.8108 10.4362V11.4772Z" fill="white"/>
<g filter="url(#filter0_d_372_1265)">
<path d="M33.5042 49.0241C31.4154 49.0241 29.7219 47.3306 29.7219 45.2418C29.7219 43.153 31.4154 41.4594 33.5042 41.4594C35.5931 41.4594 37.2866 43.153 37.2866 45.2418C37.2866 47.3306 35.5931 49.0241 33.5042 49.0241ZM73.8566 60.6473L51.0162 37.8069C50.1026 36.8933 48.8337 36.335 47.4379 36.335H29.6731C29.0059 36.3327 28.3448 36.4624 27.728 36.7166C27.1111 36.9709 26.5507 37.3447 26.0789 37.8164C25.6071 38.2882 25.2333 38.8487 24.9791 39.4655C24.7248 40.0824 24.5951 40.7434 24.5974 41.4106V59.1754C24.5974 60.5712 25.1558 61.8401 26.0948 62.7537L48.9098 85.5941C49.8488 86.5078 51.1177 87.0915 52.5135 87.0915C53.9093 87.0915 55.1782 86.5078 56.0918 85.5941L73.8566 67.8294C74.7956 66.9158 75.3539 65.6468 75.3539 64.251C75.3539 62.8299 74.7702 61.561 73.8566 60.6473Z" fill="black"/>
</g>
<path d="M33.5042 49.0241C31.4154 49.0241 29.7219 47.3306 29.7219 45.2418C29.7219 43.153 31.4154 41.4594 33.5042 41.4594C35.5931 41.4594 37.2866 43.153 37.2866 45.2418C37.2866 47.3306 35.5931 49.0241 33.5042 49.0241ZM73.8566 60.6473L51.0162 37.8069C50.1026 36.8933 48.8337 36.335 47.4379 36.335H29.6731C29.0059 36.3327 28.3448 36.4624 27.728 36.7166C27.1111 36.9709 26.5507 37.3447 26.0789 37.8164C25.6071 38.2882 25.2333 38.8487 24.9791 39.4655C24.7248 40.0824 24.5951 40.7434 24.5974 41.4106V59.1754C24.5974 60.5712 25.1558 61.8401 26.0948 62.7537L48.9098 85.5941C49.8488 86.5078 51.1177 87.0915 52.5135 87.0915C53.9093 87.0915 55.1782 86.5078 56.0918 85.5941L73.8566 67.8294C74.7956 66.9158 75.3539 65.6468 75.3539 64.251C75.3539 62.8299 74.7702 61.561 73.8566 60.6473Z" fill="white"/>
</g>
<defs>
<filter id="filter0_d_372_1265" x="-30.3074" y="-18.5699" width="209.371" height="209.371" filterUnits="userSpaceOnUse" color-interpolation-filters="sRGB">
<feFlood flood-opacity="0" result="BackgroundImageFix"/>
<feColorMatrix in="SourceAlpha" type="matrix" values="0 0 0 0 0 0 0 0 0 0 0 0 0 0 0 0 0 0 127 0" result="hardAlpha"/>
<feOffset dx="24.4021" dy="24.4021"/>
<feGaussianBlur stdDeviation="39.6535"/>
<feColorMatrix type="matrix" values="0 0 0 0 0 0 0 0 0 0 0 0 0 0 0 0 0 0 0.16 0"/>
<feBlend mode="normal" in2="BackgroundImageFix" result="effect1_dropShadow_372_1265"/>
<feBlend mode="normal" in="SourceGraphic" in2="effect1_dropShadow_372_1265" result="shape"/>
</filter>
<linearGradient id="paint0_linear_372_1265" x1="6508.84" y1="5242.03" x2="1438.3" y2="-1077.67" gradientUnits="userSpaceOnUse">
<stop stop-color="#4385F5"/>
<stop offset="1" stop-color="#3569D3"/>
</linearGradient>
<clipPath id="clip0_372_1265">
<rect width="100" height="100" fill="white"/>
</clipPath>
</defs>
</svg>
