<svg width="100" height="100" viewBox="0 0 100 100" fill="none" xmlns="http://www.w3.org/2000/svg">
<g clip-path="url(#clip0_372_1247)">
<path d="M100 90C100 95.5 95.5 100 90 100H10C4.5 100 0 95.5 0 90V10C0 4.5 4.5 0 10 0H90C95.5 0 100 4.5 100 10V90Z" fill="#1AB7EA"/>
<path d="M84.1667 33.2501C83.8334 40.2501 78.9167 49.9167 69.4168 62.1668C59.5834 74.9168 51.2501 81.3334 44.5001 81.3334C40.2501 81.3334 36.7501 77.4168 33.8334 69.6668C31.9167 62.5001 29.9167 55.4168 28.0001 48.2501C25.8334 40.5001 23.5001 36.5834 21.0001 36.5834C20.5001 36.5834 18.5834 37.7501 15.3334 40.0001L11.9167 35.5834C15.5001 32.4168 19.0001 29.3334 22.5001 26.1667C27.2501 22.0834 30.8334 19.9168 33.2501 19.6668C38.8334 19.1668 42.3334 23.0001 43.6668 31.1668C45.0834 40.0834 46.0834 45.5834 46.5834 47.7501C48.1668 55.0834 50.0001 58.8334 51.9167 58.8334C53.4168 58.8334 55.6668 56.4168 58.7501 51.6668C61.7501 46.9168 63.4168 43.2501 63.5834 40.7501C64.0001 36.6668 62.4168 34.5834 58.7501 34.5834C57.0001 34.5834 55.2501 35.0001 53.4167 35.7501C57.0001 24.0834 63.7501 18.5001 73.7501 18.8334C81.0834 19.0001 84.5834 23.8334 84.1667 33.2501Z" fill="white"/>
</g>
<defs>
<clipPath id="clip0_372_1247">
<rect width="100" height="100" fill="white"/>
</clipPath>
</defs>
</svg>
