<svg width="100" height="100" viewBox="0 0 100 100" fill="none" xmlns="http://www.w3.org/2000/svg">
<g clip-path="url(#clip0_372_1231)">
<path d="M50 0C22.3868 0 0 22.3868 0 50C0 71.1934 13.1687 89.3004 31.7695 96.5844C31.3169 92.6338 30.9465 86.5432 31.9342 82.2222C32.8395 78.3128 37.7778 57.3663 37.7778 57.3663C37.7778 57.3663 36.2963 54.3621 36.2963 49.9589C36.2963 43.0041 40.3292 37.8189 45.3498 37.8189C49.6296 37.8189 51.6872 41.0288 51.6872 44.856C51.6872 49.1358 48.9712 55.5556 47.5309 61.5226C46.3374 66.5021 50.0411 70.5761 54.9383 70.5761C63.8272 70.5761 70.6584 61.1934 70.6584 47.6955C70.6584 35.7202 62.0576 27.3663 49.7531 27.3663C35.5144 27.3663 27.1605 38.0247 27.1605 49.0535C27.1605 53.3333 28.8066 57.9424 30.8642 60.4527C31.2757 60.9465 31.3169 61.3992 31.1934 61.893C30.823 63.4568 29.9588 66.8724 29.7942 67.572C29.5885 68.4774 29.0535 68.6831 28.107 68.2305C21.8519 65.3086 17.9424 56.214 17.9424 48.8477C17.9424 33.0864 29.3827 18.6008 50.9877 18.6008C68.3128 18.6008 81.8107 30.9465 81.8107 47.4897C81.8107 64.7325 70.9465 78.6008 55.8848 78.6008C50.823 78.6008 46.0494 75.9671 44.4444 72.8395C44.4444 72.8395 41.9342 82.3868 41.3169 84.7325C40.2058 89.0947 37.1605 94.5268 35.1029 97.8601C39.7942 99.3004 44.7325 100.082 49.9177 100.082C77.5309 100.082 99.9177 77.6955 99.9177 50.0823C100 22.3868 77.6132 0 50 0Z" fill="#E60023"/>
</g>
<defs>
<clipPath id="clip0_372_1231">
<rect width="100" height="100" fill="white"/>
</clipPath>
</defs>
</svg>
