<svg width="100" height="100" viewBox="0 0 100 100" fill="none" xmlns="http://www.w3.org/2000/svg">
<g clip-path="url(#clip0_372_1220)">
<path d="M84.0662 0C92.8647 0 100 7.13384 100 15.9353V84.0662C100 92.8647 92.8647 100 84.0662 100H15.9353C7.13532 100 0 92.8647 0 84.0662V15.9353C0 7.13384 7.13532 0 15.9353 0H84.0662Z" fill="#FFFC00"/>
<path d="M83.7158 67.1428C83.4211 66.1674 82.0107 65.4798 82.0107 65.4798C81.8774 65.4096 81.7581 65.3464 81.6599 65.2973C79.3092 64.1606 77.2252 62.7923 75.471 61.2416C74.0606 59.9925 72.8537 58.6172 71.8853 57.1577C70.6995 55.3754 70.1452 53.8879 69.9066 53.0809C69.7733 52.5546 69.7943 52.3441 69.9066 52.0705C69.9978 51.8389 70.2715 51.6214 70.3978 51.5161C71.1907 50.9548 72.4677 50.1268 73.2536 49.6216C73.9343 49.1795 74.5167 48.8006 74.8605 48.562C75.9622 47.7902 76.72 47.0043 77.162 46.1552C77.7374 45.0606 77.8076 43.8537 77.3585 42.6678C76.7551 41.068 75.2605 40.1137 73.3589 40.1137C72.9379 40.1137 72.5028 40.1628 72.0678 40.254C70.9802 40.4926 69.9487 40.8785 69.0856 41.2153C69.0224 41.2434 68.9523 41.1943 68.9593 41.1241C69.0505 38.984 69.1558 36.107 68.9172 33.3775C68.7067 30.9075 68.1945 28.8235 67.3665 27.0061C66.5315 25.1817 65.4438 23.8345 64.5948 22.8591C63.7878 21.9329 62.3634 20.5646 60.2162 19.3367C57.199 17.6105 53.7607 16.7334 49.9997 16.7334C46.2456 16.7334 42.8144 17.6105 39.7901 19.3367C37.5166 20.6348 36.0641 22.1013 35.4045 22.8591C34.5555 23.8345 33.4678 25.1817 32.6328 27.0061C31.7978 28.8235 31.2926 30.9005 31.0821 33.3775C30.8435 36.1211 30.9418 38.7664 31.04 41.1241C31.04 41.1943 30.9769 41.2434 30.9067 41.2153C30.0436 40.8785 29.0121 40.4926 27.9245 40.254C27.4965 40.1628 27.0614 40.1137 26.6334 40.1137C24.7388 40.1137 23.2442 41.068 22.6338 42.6678C22.1847 43.8537 22.2549 45.0606 22.8302 46.1552C23.2793 47.0043 24.0301 47.7902 25.1318 48.562C25.4686 48.8006 26.058 49.1795 26.7386 49.6216C27.5035 50.1198 28.7455 50.9267 29.5454 51.4811C29.6436 51.5512 29.9805 51.8038 30.0857 52.0705C30.198 52.3512 30.219 52.5617 30.0717 53.123C29.8261 53.937 29.2717 55.4105 28.1069 57.1577C27.1386 58.6243 25.9317 59.9925 24.5213 61.2416C22.7671 62.7923 20.6831 64.1606 18.3324 65.2973C18.2201 65.3535 18.0868 65.4166 17.9465 65.5008C17.9465 65.5008 16.5431 66.2165 16.2765 67.1428C15.8835 68.5111 16.929 69.7952 17.9886 70.4828C19.7288 71.6055 21.8479 72.209 23.0758 72.5388C23.4197 72.63 23.7284 72.7142 24.0091 72.7984C24.1845 72.8545 24.6266 73.0229 24.816 73.2685C25.0546 73.5773 25.0827 73.9562 25.1669 74.3842C25.3002 75.1069 25.6019 75.9981 26.4931 76.6156C27.4754 77.2892 28.7174 77.3383 30.2962 77.4015C31.9452 77.4646 33.9941 77.5418 36.3448 78.3207C37.4324 78.6785 38.4218 79.289 39.5585 79.9907C41.9443 81.4572 44.9124 83.2816 49.9786 83.2816C55.0518 83.2816 58.041 81.4502 60.4408 79.9767C61.5775 79.282 62.5529 78.6785 63.6194 78.3277C65.9701 77.5488 68.019 77.4716 69.668 77.4085C71.2468 77.3453 72.4888 77.3032 73.4712 76.6226C74.4255 75.963 74.6991 74.9806 74.8254 74.2439C74.8956 73.879 74.9377 73.5492 75.1482 73.2825C75.3306 73.051 75.7376 72.8896 75.9271 72.8264C76.2148 72.7352 76.5375 72.651 76.8954 72.5528C78.1234 72.223 79.6671 71.8371 81.5406 70.7775C83.8 69.4934 83.9544 67.9216 83.7158 67.1428Z" fill="white"/>
<path d="M85.6665 66.3845C85.1683 65.0233 84.214 64.3005 83.1334 63.6971C82.9299 63.5778 82.7404 63.4795 82.586 63.4094C82.2633 63.241 81.9335 63.0796 81.6037 62.9112C78.2285 61.1219 75.5902 58.8624 73.7658 56.189C73.1483 55.2838 72.7203 54.4699 72.4186 53.8033C72.2642 53.3542 72.2712 53.1016 72.3835 52.87C72.4677 52.6946 72.6922 52.5121 72.8185 52.4209C73.4009 52.035 73.9974 51.6491 74.4043 51.3894C75.1271 50.9193 75.7025 50.5474 76.0673 50.2948C77.4567 49.3265 78.425 48.295 79.0285 47.1442C79.8845 45.5233 79.9898 43.6709 79.3302 41.9307C78.418 39.5169 76.1305 38.0152 73.3658 38.0152C72.7904 38.0152 72.208 38.0784 71.6327 38.2047C71.4783 38.2398 71.3309 38.2749 71.1836 38.3099C71.2116 36.668 71.1695 34.9138 71.0222 33.2017C70.5029 27.1671 68.3909 24.0025 66.1875 21.4834C65.2683 20.4309 63.6685 18.8942 61.2687 17.5189C57.9216 15.5963 54.1325 14.6279 49.9996 14.6279C45.8807 14.6279 42.0915 15.5963 38.7445 17.5119C36.3307 18.8872 34.7308 20.4309 33.8186 21.4764C31.6153 23.9955 29.5032 27.1601 28.984 33.1946C28.8366 34.9068 28.8015 36.661 28.8226 38.3029C28.6752 38.2678 28.5209 38.2328 28.3735 38.1977C27.7981 38.0714 27.2087 38.0082 26.6403 38.0082C23.8757 38.0082 21.5882 39.5098 20.676 41.9237C20.0164 43.6638 20.1216 45.5163 20.9777 47.1372C21.5811 48.288 22.5565 49.3195 23.9388 50.2878C24.3107 50.5474 24.8791 50.9193 25.6018 51.3824C25.9948 51.635 26.5631 52.0069 27.1245 52.3788C27.2087 52.435 27.5104 52.6595 27.6157 52.87C27.735 53.1086 27.735 53.3682 27.5595 53.8454C27.2648 54.4979 26.8368 55.2978 26.2334 56.182C24.444 58.7993 21.8829 61.0166 18.62 62.7849C16.8868 63.7041 15.0905 64.3146 14.3327 66.3775C13.7573 67.9353 14.1362 69.7106 15.5887 71.2052C16.0659 71.7174 16.6693 72.1735 17.4271 72.5945C19.2094 73.5769 20.7251 74.061 21.918 74.3908C22.1285 74.454 22.6126 74.6083 22.8231 74.7978C23.3564 75.2609 23.2792 75.9626 23.9879 76.9871C24.416 77.6256 24.9072 78.0607 25.3141 78.3413C26.7947 79.3658 28.4647 79.429 30.233 79.4991C31.8258 79.5623 33.6362 79.6324 35.6991 80.3131C36.5552 80.5938 37.4463 81.1411 38.4708 81.7726C40.9408 83.2953 44.3299 85.3723 49.9926 85.3723C55.6622 85.3723 59.0654 83.2812 61.5564 81.7586C62.5809 81.1341 63.465 80.5867 64.293 80.3131C66.356 79.6324 68.1663 79.5623 69.7591 79.4991C71.5274 79.429 73.1904 79.3658 74.678 78.3413C75.1411 78.0186 75.7305 77.4923 76.1936 76.6924C76.6989 75.8293 76.6918 75.2188 77.169 74.8048C77.3655 74.6364 77.7935 74.4891 78.0251 74.4189C79.2249 74.0891 80.7616 73.6049 82.579 72.6015C83.386 72.1594 84.0105 71.6753 84.5087 71.1209C84.5157 71.1139 84.5227 71.1069 84.5297 71.0999C85.884 69.6264 86.2278 67.9072 85.6665 66.3845ZM80.6353 69.086C77.5619 70.7841 75.52 70.6017 73.9342 71.6191C72.587 72.4892 73.3799 74.3628 72.4045 75.0364C71.1976 75.8714 67.64 74.9802 63.044 76.4959C59.2549 77.7519 56.834 81.3516 50.0066 81.3516C43.1651 81.3516 40.8145 77.7659 36.9692 76.4959C32.3731 74.9802 28.8086 75.8714 27.6087 75.0364C26.6333 74.3628 27.4262 72.4892 26.079 71.6191C24.4932 70.5947 22.4512 70.7771 19.3778 69.086C17.4201 68.0054 18.5288 67.3388 19.1814 67.0231C30.3102 61.6411 32.0784 53.3191 32.1626 52.6946C32.2609 51.9508 32.3661 51.3614 31.5451 50.5965C30.7522 49.8598 27.2227 47.6775 26.2474 46.9969C24.6265 45.8671 23.9178 44.7374 24.444 43.3481C24.8089 42.3868 25.7071 42.0289 26.6544 42.0289C26.9491 42.0289 27.2508 42.064 27.5385 42.1271C29.3138 42.5131 31.0399 43.4042 32.0363 43.6428C32.1767 43.6779 32.2959 43.6919 32.4012 43.6919C32.9345 43.6919 33.1169 43.4253 33.0818 42.8148C32.9696 40.8711 32.6889 37.082 32.9976 33.5385C33.4187 28.6687 34.9904 26.2549 36.8569 24.1148C37.7551 23.0903 41.9652 18.6416 50.0136 18.6416C58.083 18.6416 62.2721 23.0903 63.1703 24.1148C65.0368 26.2479 66.6086 28.6617 67.0296 33.5385C67.3383 37.082 67.0717 40.8711 66.9454 42.8148C66.9033 43.4533 67.0997 43.6919 67.626 43.6919C67.7313 43.6919 67.8576 43.6779 67.9909 43.6428C68.9873 43.4042 70.7134 42.5131 72.4887 42.1271C72.7764 42.064 73.0781 42.0289 73.3728 42.0289C74.3201 42.0289 75.2183 42.3938 75.5832 43.3481C76.1094 44.7374 75.3937 45.8671 73.7798 46.9969C72.8045 47.6775 69.275 49.8598 68.4821 50.5965C67.6611 51.3544 67.7663 51.9438 67.8646 52.6946C67.9418 53.3191 69.717 61.6411 80.8458 67.0231C81.4774 67.3388 82.593 68.0054 80.6353 69.086Z" fill="black"/>
</g>
<defs>
<clipPath id="clip0_372_1220">
<rect width="100" height="100" fill="white"/>
</clipPath>
</defs>
</svg>
