<svg width="100" height="100" viewBox="0 0 100 100" fill="none" xmlns="http://www.w3.org/2000/svg">
<path fill-rule="evenodd" clip-rule="evenodd" d="M85.4294 14.5315C76.0303 5.16537 63.5294 0.00475195 50.21 0C22.7642 0 0.42735 22.2273 0.4178 49.5486C0.413025 58.2826 2.70735 66.8076 7.06442 74.3205L0 100L26.3954 93.1096C33.6675 97.0586 41.8564 99.1375 50.1886 99.14H50.21C77.6511 99.14 99.9906 76.9102 100 49.5889C100.005 36.3478 94.8311 23.8999 85.4294 14.5338V14.5315ZM50.21 90.7717H50.1933C42.7683 90.7695 35.4844 88.783 29.1292 85.0313L27.6178 84.1382L11.9539 88.2271L16.1343 73.0278L15.1506 71.4692C11.0084 64.9117 8.81917 57.3321 8.82394 49.5511C8.8335 26.8438 27.3982 8.36817 50.2269 8.36817C61.2806 8.37293 71.6708 12.6616 79.4847 20.4476C87.2989 28.2314 91.5986 38.5812 91.5939 49.5842C91.5842 72.2939 73.0197 90.7695 50.21 90.7695V90.7717ZM72.9097 59.9269C71.6658 59.3068 65.5494 56.3129 64.4081 55.8996C63.2669 55.486 62.4386 55.2795 61.61 56.5197C60.7817 57.7601 58.3967 60.5494 57.6708 61.3738C56.945 62.2006 56.2192 62.3029 54.9753 61.6826C53.7317 61.0625 49.7231 59.7557 44.9697 55.5383C41.2717 52.2547 38.7742 48.2015 38.0486 46.961C37.3228 45.7209 37.9722 45.0508 38.5928 44.4354C39.1514 43.8795 39.8367 42.9885 40.4597 42.2662C41.0831 41.5438 41.2883 41.0261 41.7036 40.2014C42.1192 39.3746 41.9114 38.6525 41.6011 38.0322C41.2906 37.4121 38.8031 31.3176 37.7644 28.8395C36.7544 26.4256 35.7281 26.7535 34.9664 26.7131C34.2406 26.6774 33.4122 26.6703 32.5814 26.6703C31.7506 26.6703 30.4039 26.9792 29.2628 28.2195C28.1217 29.4596 24.9081 32.4557 24.9081 38.5477C24.9081 44.6397 29.3656 50.5299 29.9886 51.3568C30.6117 52.1836 38.7622 64.6883 51.2414 70.0533C54.2092 71.3291 56.5272 72.0918 58.3344 72.6621C61.3142 73.6053 64.0261 73.4724 66.17 73.1539C68.56 72.7976 73.5306 70.1578 74.5667 67.2662C75.6028 64.3746 75.6028 61.894 75.2925 61.3785C74.9822 60.8629 74.1514 60.5516 72.9075 59.9316L72.9097 59.9269Z" fill="#25D366"/>
</svg>
