<svg width="307" height="105" viewBox="0 0 307 105" fill="none" xmlns="http://www.w3.org/2000/svg">
<rect width="307" height="105" fill="white"/>
<path d="M27.2114 32.5876V40.2577H37.5591V71.542H46.3425V40.2577H56.4495V32.5876H27.2114Z" fill="#0E7BD0"/>
<path d="M64.5114 32.5875L52.4792 71.5418H61.6237L70.1665 41.6467L78.6492 71.5418H87.8538L75.581 32.5875H64.5114Z" fill="#0E7BD0"/>
<path d="M111.196 32.5875L99.705 46.599V32.5875H91.1021V71.5418H99.5246V59.1006L106.202 52.0949L112.519 71.5418H121.483L112.339 45.2703L121.483 32.5875H111.196Z" fill="#0E7BD0"/>
<path d="M147.894 32.5875H124.01V39.8952H147.894V32.5875Z" fill="#0E7BD0"/>
<path d="M147.894 48.4116H124.01V55.7193H147.894V48.4116Z" fill="#0E7BD0"/>
<path d="M147.894 64.2954H124.01V71.6031H147.894V64.2954Z" fill="#0E7BD0"/>
<path d="M151.744 32.5875V71.5418H175.628V64.2945H160.528V32.5875H151.744Z" fill="#15406D"/>
<path d="M262.079 45.0897C262.44 37.4197 251.611 39.4731 251.611 39.4731V50.7064C251.611 50.7064 261.718 52.7598 262.079 45.0897ZM256.905 32.5881C256.905 32.5881 270.682 31.8634 270.682 44.8482C270.682 60.6111 251.551 57.531 251.551 57.531V71.5424H243.129V33.7356C243.129 33.7356 246.798 32.5881 256.905 32.5881Z" fill="#15406D"/>
<path d="M202.46 32.8895H178.576V40.1972H202.46V32.8895Z" fill="#15406D"/>
<path d="M202.46 48.7135H178.576V56.0212H202.46V48.7135Z" fill="#15406D"/>
<path d="M202.46 64.5359H178.576V71.8436H202.46V64.5359Z" fill="#15406D"/>
<path d="M216.838 32.8895L204.806 71.8438H214.01L222.493 41.8883L231.036 71.8438H240.18L227.968 32.8895H216.838Z" fill="#15406D"/>
<path d="M276.938 36.2114H277.359C277.66 36.2114 277.841 36.2114 277.901 36.151C277.961 36.151 278.021 36.0906 278.081 36.0302C278.141 35.9698 278.141 35.9094 278.141 35.7886C278.141 35.6678 278.141 35.6075 278.081 35.5471C278.021 35.4867 277.961 35.4263 277.841 35.4263C277.781 35.4263 277.66 35.4263 277.42 35.4263H276.938V36.2114ZM276.337 37.9628V34.9431H277.54C277.841 34.9431 278.081 35.0035 278.202 35.0035C278.322 35.0639 278.442 35.1847 278.502 35.3055C278.563 35.4263 278.623 35.6075 278.623 35.7886C278.623 36.0302 278.563 36.2114 278.442 36.3322C278.322 36.5134 278.141 36.5738 277.901 36.6342C278.021 36.6946 278.141 36.8153 278.202 36.8757C278.262 36.9361 278.382 37.1173 278.502 37.3589L278.863 37.9628H278.202L277.781 37.2985C277.6 37.0569 277.54 36.9361 277.48 36.8757C277.42 36.8153 277.359 36.7549 277.299 36.7549C277.239 36.7549 277.119 36.6945 276.998 36.6945H276.878V37.9628H276.337Z" fill="#15406D"/>
<path d="M277.42 33.4945C275.735 33.4945 274.412 34.8232 274.412 36.5142C274.412 38.2052 275.735 39.5339 277.42 39.5339C279.104 39.5339 280.428 38.2052 280.428 36.5142C280.428 34.8835 279.104 33.4945 277.42 33.4945ZM277.42 40.0775C275.434 40.0775 273.87 38.4468 273.87 36.5142C273.87 34.5212 275.494 32.9509 277.42 32.9509C279.345 32.9509 280.969 34.5816 280.969 36.5142C281.029 38.5072 279.405 40.0775 277.42 40.0775Z" fill="#15406D"/>
</svg>
