<svg width="30" height="30" viewBox="0 0 30 30" fill="none" xmlns="http://www.w3.org/2000/svg">
<path d="M8.38747 11.637C8.50311 11.5212 8.64047 11.4292 8.79169 11.3665C8.9429 11.3038 9.10501 11.2715 9.26872 11.2715C9.43243 11.2715 9.59453 11.3038 9.74575 11.3665C9.89696 11.4292 10.0343 11.5212 10.15 11.637L15 16.487L19.85 11.637C20.0837 11.4033 20.4007 11.272 20.7312 11.272C21.0617 11.272 21.3787 11.4033 21.6125 11.637C21.8462 11.8708 21.9775 12.1878 21.9775 12.5183C21.9775 12.8488 21.8462 13.1658 21.6125 13.3995L15.875 19.137C15.7593 19.2529 15.622 19.3449 15.4707 19.4076C15.3195 19.4703 15.1574 19.5026 14.9937 19.5026C14.83 19.5026 14.6679 19.4703 14.5167 19.4076C14.3655 19.3449 14.2281 19.2529 14.1125 19.137L8.37497 13.3995C7.89997 12.9245 7.89997 12.1245 8.38747 11.637Z" fill="white"/>
</svg>
