<svg width="37" height="37" viewBox="0 0 37 37" fill="none" xmlns="http://www.w3.org/2000/svg">
<circle cx="18.5" cy="18.5" r="18.5" fill="#855BFF"/>
<path d="M10.1427 15.1526L9.96653 14.9752C9.82895 15.1119 9.75114 15.2975 9.75002 15.4915L10 15.4929M10.1427 15.1526L9.96528 14.9765C10.033 14.9082 10.1136 14.854 10.2024 14.817C10.2911 14.7801 10.3863 14.761 10.4825 14.761C10.5787 14.761 10.6739 14.7801 10.7626 14.817C10.8513 14.854 10.9318 14.9081 10.9994 14.9762C10.9995 14.9763 10.9996 14.9764 10.9997 14.9765L18.4944 22.483L25.9886 14.9786C26.0549 14.9085 26.1344 14.8522 26.2226 14.813C26.3123 14.7731 26.409 14.7517 26.507 14.7501C26.6051 14.7485 26.7025 14.7666 26.7934 14.8034C26.8843 14.8403 26.9668 14.895 27.0361 14.9644C27.1054 15.0338 27.16 15.1164 27.1967 15.2074C27.2335 15.2983 27.2515 15.3957 27.2499 15.4937C27.2483 15.5918 27.227 15.6885 27.1872 15.7782C27.1481 15.8664 27.0919 15.9461 27.0219 16.0125L19.0122 24.0332C19.012 24.0334 19.0118 24.0336 19.0116 24.0338C18.9441 24.1022 18.8637 24.1565 18.775 24.1936C18.6861 24.2308 18.5907 24.25 18.4943 24.25C18.398 24.25 18.3025 24.2308 18.2136 24.1936C18.125 24.1565 18.0446 24.1021 17.9771 24.0338C17.9769 24.0336 17.9767 24.0334 17.9765 24.0332L9.9673 16.0113C9.89805 15.9441 9.8431 15.8635 9.80577 15.7745C9.76808 15.6846 9.74912 15.588 9.75003 15.4906L10 15.4929M10.1427 15.1526C10.0521 15.2426 10.0008 15.365 10 15.4929M10.1427 15.1526L10.0363 15.6778C10.0118 15.6193 9.99943 15.5564 10 15.4929" fill="white" stroke="white" stroke-width="0.5"/>
</svg>
