<svg width="37" height="37" viewBox="0 0 37 37" fill="none" xmlns="http://www.w3.org/2000/svg">
<circle cx="18.5" cy="18.5" r="18.5" fill="#855BFF"/>
<path d="M15.1526 26.8573L14.9752 27.0335C15.1119 27.1711 15.2975 27.2489 15.4915 27.25L15.4929 27M15.1526 26.8573L14.9765 27.0347C14.9082 26.967 14.854 26.8864 14.8171 26.7976C14.7801 26.7089 14.761 26.6137 14.761 26.5175C14.761 26.4213 14.7801 26.3261 14.8171 26.2374C14.854 26.1487 14.9081 26.0682 14.9762 26.0006C14.9763 26.0005 14.9764 26.0004 14.9765 26.0003L22.483 18.5056L14.9786 11.0114C14.9085 10.9451 14.8522 10.8656 14.813 10.7774C14.7731 10.6877 14.7517 10.591 14.7501 10.493C14.7485 10.3949 14.7666 10.2975 14.8034 10.2066C14.8403 10.1157 14.895 10.0332 14.9644 9.9639C15.0338 9.89461 15.1164 9.83999 15.2074 9.80327C15.2983 9.76655 15.3957 9.74847 15.4937 9.7501C15.5918 9.75173 15.6885 9.77304 15.7782 9.81277C15.8664 9.85188 15.9461 9.90806 16.0125 9.97807L24.0332 17.9878C24.0334 17.988 24.0336 17.9882 24.0338 17.9884C24.1022 18.0559 24.1565 18.1363 24.1936 18.225C24.2308 18.3139 24.25 18.4093 24.25 18.5057C24.25 18.602 24.2308 18.6975 24.1936 18.7864C24.1565 18.875 24.1021 18.9554 24.0338 19.0229C24.0336 19.0231 24.0334 19.0233 24.0332 19.0235L16.0113 27.0327C15.9441 27.102 15.8635 27.1569 15.7745 27.1942C15.6846 27.2319 15.588 27.2509 15.4906 27.25L15.4929 27M15.1526 26.8573C15.2426 26.9479 15.365 26.9992 15.4929 27M15.1526 26.8573L15.6778 26.9637C15.6193 26.9882 15.5564 27.0006 15.4929 27" fill="white" stroke="white" stroke-width="0.5"/>
</svg>
