<svg width="24" height="25" viewBox="0 0 24 25" fill="none" xmlns="http://www.w3.org/2000/svg">
<g clip-path="url(#clip0_128_1665)">
<path fill-rule="evenodd" clip-rule="evenodd" d="M8.6554 0.97329C6.33599 1.64893 4.27406 3.00795 2.73862 4.87305C1.20318 6.73815 0.265523 9.02272 0.0479736 11.4287H5.53369C5.85346 7.76743 6.915 4.20952 8.65369 0.971576L8.6554 0.97329ZM5.53369 13.5716H0.0479736C0.26507 15.9777 1.20233 18.2625 2.73747 20.1279C4.27261 21.9933 6.33434 23.3527 8.65369 24.0287C6.915 20.7908 5.85346 17.2329 5.53369 13.5716ZM11.4034 24.4864C9.32497 21.19 8.05068 17.4512 7.6834 13.5716H16.3148C15.9476 17.4512 14.6733 21.19 12.5948 24.4864C12.1979 24.5062 11.8003 24.5062 11.4034 24.4864ZM15.3463 24.027C17.6654 23.3511 19.7269 21.9919 21.262 20.1269C22.7971 18.2618 23.7345 15.9774 23.952 13.5716H18.4663C18.1465 17.2329 17.0849 20.7908 15.3463 24.0287V24.027ZM18.4663 11.4287H23.952C23.7349 9.02263 22.7976 6.73784 21.2625 4.87243C19.7273 3.00702 17.6656 1.64762 15.3463 0.971576C17.0849 4.20952 18.1465 7.76743 18.4663 11.4287ZM11.4034 0.513862C11.8009 0.494077 12.1991 0.494077 12.5965 0.513862C14.6744 3.8104 15.9481 7.54928 16.3148 11.4287H7.68512C8.05712 7.52529 9.33426 3.783 11.4034 0.513862Z" fill="white"/>
</g>
<defs>
<clipPath id="clip0_128_1665">
<rect width="24" height="24" fill="white" transform="translate(0 0.5)"/>
</clipPath>
</defs>
</svg>
