<svg width="96" height="96" viewBox="0 0 96 96" fill="none" xmlns="http://www.w3.org/2000/svg">
<circle cx="48" cy="48" r="48" fill="#0A0B0F"/>
<path d="M67.7442 28.3217C68.1876 28.8687 68.9901 28.9525 69.5367 28.5096L74.4539 24.5245C75.0008 24.0813 75.0848 23.2787 74.6418 22.732C74.1984 22.1852 73.3959 22.1014 72.8492 22.5441L67.932 26.5292C67.385 26.9724 67.3011 27.775 67.7442 28.3217Z" fill="white"/>
<path d="M63.8315 23.3409C64.4451 23.6833 65.2219 23.4651 65.5656 22.8494L68.8901 16.896C69.2332 16.2815 69.0132 15.5051 68.3986 15.1619C67.7841 14.8189 67.0078 15.0385 66.6646 15.6533L63.3401 21.6068C62.9969 22.2212 63.2169 22.9977 63.8315 23.3409Z" fill="white"/>
<path d="M80.9404 30.6607C80.7322 29.9885 80.0185 29.6119 79.3459 29.8204L72.8358 31.8369C72.1635 32.0452 71.7872 32.759 71.9956 33.4314C72.203 34.1015 72.9159 34.4808 73.5901 34.2717L80.1001 32.2552C80.7724 32.0469 81.1487 31.333 80.9404 30.6607Z" fill="white"/>
<path d="M34.221 47.3415C33.7778 46.7945 32.9751 46.7107 32.4285 47.1538L26.5278 51.9358C25.9809 52.379 25.8969 53.1816 26.3399 53.7283C26.7829 54.2752 27.5859 54.3592 28.1325 53.916L34.0332 49.1341C34.5801 48.6909 34.6641 47.8883 34.221 47.3415Z" fill="white"/>
<path d="M38.203 52.2624C37.7597 51.7154 36.957 51.6315 36.4104 52.0747L30.5097 56.8567C29.9628 57.2999 29.8788 58.1025 30.3219 58.6492C30.7649 59.1961 31.5678 59.2801 32.1144 58.8369L38.0151 54.055C38.562 53.6118 38.646 52.8092 38.203 52.2624Z" fill="white"/>
<path d="M41.9969 58.9761C42.5438 58.5328 42.6278 57.7303 42.1848 57.1836C41.7415 56.6366 40.9389 56.5527 40.3922 56.9958L34.4915 61.7778C33.9446 62.2211 33.8607 63.0236 34.3037 63.5704C34.7467 64.1172 35.5496 64.2012 36.0962 63.7581L41.9969 58.9761Z" fill="white"/>
<path d="M55.5462 17.2443C53.7366 15.0077 50.4626 14.6626 48.2264 16.4745C46.4482 17.9154 45.8703 20.2963 46.6244 22.3333C46.3525 28.3873 43.5104 34.0312 38.7969 37.8512L35.1713 40.7894C33.8806 40.1315 32.2703 40.2489 31.071 41.2207L21.0084 49.3758C19.813 50.3445 19.3644 51.8979 19.7382 53.2967L17.5933 55.035C15.7495 56.5291 15.464 59.2455 16.9568 61.0904L25.1531 71.2199C26.6424 73.0603 29.3528 73.3643 31.2131 71.8568L33.3542 70.1216C34.6389 70.776 36.2467 70.6693 37.4539 69.6909L38.0028 69.2461L44.9725 77.8596C46.9773 80.3373 50.6048 80.7201 53.082 78.7125C55.5521 76.7108 55.9344 73.0714 53.9343 70.5996L46.9632 61.9843L47.5166 61.5359C48.712 60.5673 49.1606 59.0138 48.7868 57.6149L52.4134 54.6758C57.1257 50.8569 63.2316 49.2478 69.2028 50.2394C71.0374 51.4055 73.4831 51.3358 75.2673 49.8898C77.4967 48.0831 77.8417 44.7981 76.0364 42.567L55.5462 17.2443ZM29.6082 69.8763C28.8584 70.4842 27.7498 70.3769 27.1345 69.6164L18.9382 59.487C18.3289 58.7339 18.4454 57.6253 19.198 57.0152L21.088 55.4834L31.496 68.3464L29.6082 69.8763ZM34.1127 67.528L22.4308 53.0909C22.0032 52.5624 22.0849 51.7842 22.6132 51.3562L32.676 43.2012C33.205 42.7723 33.9818 42.852 34.4121 43.3837L46.0939 57.8208C46.5215 58.3493 46.4398 59.1275 45.9115 59.5556C45.9052 59.5608 35.85 67.7097 35.8489 67.7106C35.3186 68.14 34.5421 68.0586 34.1127 67.528ZM51.9527 72.2027C53.0694 73.5829 52.8561 75.6146 51.4772 76.7321C50.0925 77.8539 48.0708 77.6362 46.9539 76.2562L39.9829 67.6411L44.9828 63.589L51.9527 72.2027ZM50.8084 52.6956L47.4366 55.428L37.0287 42.5652L40.4018 39.8316C44.88 36.2023 47.8504 31.1032 48.8358 25.5011L66.5707 47.4188C60.8892 47.2185 55.2871 49.066 50.8084 52.6956ZM73.6622 47.9096C72.5219 48.8334 70.8522 48.6581 69.9286 47.5167L49.4385 22.194C48.5168 21.0547 48.6928 19.3772 49.8312 18.4548C50.9712 17.5312 52.6408 17.7059 53.5648 18.8476L74.0547 44.1702C74.9767 45.3096 74.8005 46.987 73.6622 47.9096Z" fill="white"/>
</svg>
