<svg width="96" height="96" viewBox="0 0 96 96" fill="none" xmlns="http://www.w3.org/2000/svg">
<circle cx="48" cy="48" r="48" fill="#0A0B0F"/>
<path fill-rule="evenodd" clip-rule="evenodd" d="M80.9993 48.5003C80.9993 66.4491 66.4484 81 48.4996 81C30.5509 81 16 66.4491 16 48.5003C16 47.8967 16.4889 47.4078 17.0924 47.4078H79.9075C80.197 47.4078 80.4756 47.5225 80.6805 47.7274C80.8853 47.9322 81 48.2108 81 48.5003L80.9993 48.5003ZM47.4726 34.6534C44.8725 34.6534 42.3518 35.5464 40.3307 37.1824C38.3096 38.8184 36.9114 41.0961 36.3679 43.6387H58.5745C58.0337 41.0961 56.6327 38.8156 54.6117 37.1824C52.5907 35.5465 50.0699 34.6534 47.4726 34.6534ZM42.6413 33.3561C40.0932 34.3338 37.9001 36.0572 36.3461 38.2994H22.8517C23.447 35.5136 25.0666 33.0529 27.388 31.4061C29.7122 29.7592 32.5689 29.0464 35.3955 29.4069C38.2194 29.7674 40.8062 31.1767 42.6413 33.3561ZM52.3008 33.3561C54.1334 31.1767 56.7197 29.7675 59.5462 29.407C62.3702 29.0465 65.2296 29.7593 67.5508 31.4061C69.875 33.053 71.4945 35.5137 72.0899 38.2994H58.5955C57.0415 36.0572 54.8489 34.3338 52.3008 33.3561ZM59.8279 40.484C60.4015 41.7649 60.7675 43.1305 60.9204 44.526C60.9805 44.8456 60.8958 45.176 60.6882 45.4273C60.4807 45.6786 60.1721 45.8206 59.8471 45.8206L35.0955 45.8179C34.7896 45.8179 34.4974 45.6868 34.2899 45.4601C34.085 45.2307 33.984 44.9275 34.0113 44.6216C34.156 43.1933 34.5275 41.7949 35.1146 40.484H21.5796C21.2547 40.484 20.946 40.3393 20.7385 40.0907C20.5309 39.8395 20.4463 39.509 20.5064 39.1895C20.7904 36.6058 21.8118 34.1588 23.4477 32.1405C25.0836 30.1223 27.263 28.6174 29.7319 27.8036C27.558 26.0201 26.7414 23.0624 27.6891 20.4134C28.6367 17.7645 31.1466 16 33.9569 16C36.7699 16 39.2798 17.767 40.2247 20.4162C41.1724 23.0654 40.353 26.0231 38.1791 27.8063C39.1268 28.1176 40.039 28.5355 40.8965 29.0489C40.5906 27.1235 41.1423 25.1598 42.4068 23.6768C43.6714 22.1939 45.523 21.339 47.473 21.339C49.4203 21.339 51.2719 22.1939 52.5364 23.6768C53.8037 25.1598 54.3554 27.1235 54.0468 29.0489C54.9043 28.5355 55.8165 28.1176 56.7642 27.8063H56.7669C54.5902 26.0229 53.7709 23.0651 54.7186 20.4162C55.6663 17.767 58.1734 16 60.9864 16C63.7994 16 66.3066 17.767 67.257 20.4134C68.2047 23.0626 67.3854 26.0204 65.2114 27.8036C67.6803 28.6175 69.8597 30.1223 71.4956 32.1405C73.1315 34.1588 74.153 36.6058 74.437 39.1895C74.4971 39.509 74.4124 39.8395 74.2048 40.0907C73.9973 40.3393 73.6887 40.484 73.3637 40.484L59.8279 40.484ZM47.4724 23.521C45.6618 23.521 44.0313 24.6107 43.3375 26.2821C42.6466 27.9536 43.0289 29.879 44.3071 31.1572C45.5879 32.438 47.5106 32.8204 49.1821 32.1267C50.8535 31.4357 51.9432 29.8053 51.9432 27.9945C51.9432 26.8092 51.4734 25.6704 50.635 24.8319C49.7938 23.9935 48.6577 23.521 47.4724 23.521ZM60.9858 18.1845C59.1778 18.1845 57.5473 19.2742 56.8536 20.9456C56.1626 22.617 56.545 24.5397 57.8231 25.8206C59.104 27.0988 61.0267 27.4811 62.6981 26.7902C64.3695 26.0965 65.4592 24.466 65.4592 22.658C65.4592 21.47 64.9868 20.3338 64.1483 19.4954C63.3099 18.6542 62.1738 18.1845 60.9858 18.1845ZM33.9563 18.1845C32.1484 18.1845 30.5151 19.2742 29.8242 20.9456C29.1305 22.617 29.5155 24.5397 30.7937 25.8206C32.0718 27.0988 33.9972 27.4811 35.6687 26.7902C37.3401 26.0965 38.4298 24.466 38.4298 22.658C38.4298 21.47 37.9573 20.3338 37.1189 19.4954C36.2805 18.657 35.1416 18.1845 33.9563 18.1845ZM69.1736 70.6704C67.1662 69.8839 65.1043 69.2447 63.0041 68.7613C61.4392 72.2271 59.339 75.417 56.6926 77.6945C61.3546 76.3863 65.6341 73.9775 69.1739 70.6729L69.1736 70.6704ZM40.3061 77.6949C37.6569 75.4171 35.5594 72.2272 33.9946 68.7645V68.7618C31.8944 69.2452 29.8324 69.8843 27.8251 70.6708C31.3645 73.9782 35.6441 76.3839 40.3061 77.6949ZM26.167 69.0015C28.4284 68.0511 30.7607 67.2891 33.1477 66.7238C31.266 61.8133 30.1217 55.9302 30.0042 49.5916H18.2031C18.4544 56.8041 21.2781 63.6893 26.167 69.0015ZM32.1891 49.5914C32.3092 55.7992 33.4427 61.5289 35.2998 66.2482H35.297C39.2871 65.4671 43.3401 65.0493 47.4064 65.0001V49.5913L32.1891 49.5914ZM49.5918 49.5914V65.0002C53.6584 65.0494 57.7111 65.4672 61.7012 66.2484C63.5583 61.5263 64.6917 55.7994 64.8119 49.5916L49.5918 49.5914ZM66.9945 49.5914C66.8771 55.9303 65.7328 61.8127 63.851 66.7236C66.238 67.289 68.5704 68.0509 70.8317 69.0014C75.7204 63.6921 78.5441 56.8045 78.7958 49.5913L66.9945 49.5914ZM60.8196 68.2968C57.1162 67.6031 53.361 67.2289 49.5918 67.1852V78.7458C54.4012 78.1395 58.2984 73.6797 60.8196 68.2997V68.2968ZM47.4069 67.1852C43.638 67.2289 39.8826 67.6031 36.1792 68.2968C38.7027 73.677 42.5999 78.1395 47.4069 78.7429V67.1852Z" fill="white"/>
</svg>
