<svg width="96" height="96" viewBox="0 0 96 96" fill="none" xmlns="http://www.w3.org/2000/svg">
<circle cx="48" cy="48" r="48" fill="#0A0B0F"/>
<path fill-rule="evenodd" clip-rule="evenodd" d="M16.5176 67.6926V69.5877C16.5176 70.6319 17.3684 71.4828 18.4127 71.4828H77.8683C78.9126 71.4828 79.7635 70.6319 79.7635 69.5877V67.6926H16.5176ZM77.868 73H18.4124C16.5317 73 15 71.4684 15 69.5877V66.9339C15 66.5156 15.3404 66.1753 15.7586 66.1753H80.5214C80.9396 66.1753 81.28 66.5157 81.28 66.9339V69.5877C81.28 71.4684 79.7488 73 77.868 73Z" fill="white"/>
<path fill-rule="evenodd" clip-rule="evenodd" d="M19.4852 66.1749H76.7913V28.9764C76.7913 26.5188 74.7924 24.517 72.3318 24.517H23.9416C21.484 24.517 19.4821 26.5159 19.4821 28.9764V66.1749H19.4852ZM77.5534 67.6922H18.7269C18.3086 67.6922 17.9683 67.3518 17.9683 66.9336V28.9767C17.9683 25.6826 20.648 23 23.945 23H72.3352C75.6293 23 78.312 25.6826 78.312 28.9767V66.9336C78.312 67.3518 77.9716 67.6922 77.5534 67.6922Z" fill="white"/>
<path fill-rule="evenodd" clip-rule="evenodd" d="M24.1644 61.4965H72.1168V29.1931H24.1644V61.4965ZM72.8781 63.0138H23.4061C22.9878 63.0138 22.6475 62.6734 22.6475 62.2552V28.974C22.6475 28.2702 23.2417 27.676 23.9455 27.676H72.3357C73.0395 27.676 73.6337 28.2702 73.6337 28.974V62.2552C73.6337 62.6734 73.2934 63.0138 72.8752 63.0138H72.8781Z" fill="white"/>
<path fill-rule="evenodd" clip-rule="evenodd" d="M52.9978 70.3465H43.283C42.8648 70.3465 42.5244 70.0062 42.5244 69.5879C42.5244 69.1697 42.8648 68.8293 43.283 68.8293H52.9978C53.4161 68.8293 53.7564 69.1697 53.7564 69.5879C53.7564 70.0062 53.416 70.3465 52.9978 70.3465Z" fill="white"/>
<path fill-rule="evenodd" clip-rule="evenodd" d="M59.0815 54.2308H28.9556C28.5374 54.2308 28.197 53.8904 28.197 53.4722C28.197 53.054 28.5374 52.7136 28.9556 52.7136H59.0815C59.4997 52.7136 59.8401 53.054 59.8401 53.4722C59.8401 53.8904 59.4997 54.2308 59.0815 54.2308ZM67.8038 54.2308H64.501C64.0828 54.2308 63.7424 53.8904 63.7424 53.4722C63.7424 53.054 64.0828 52.7136 64.501 52.7136H67.8038C68.2221 52.7136 68.5624 53.054 68.5624 53.4722C68.5624 53.8904 68.222 54.2308 67.8038 54.2308Z" fill="white"/>
<path fill-rule="evenodd" clip-rule="evenodd" d="M34.7999 58.4073H28.9559C28.5376 58.4073 28.1973 58.0669 28.1973 57.6487C28.1973 57.2305 28.5376 56.8901 28.9559 56.8901H34.7999C35.221 56.8901 35.5585 57.2305 35.5585 57.6487C35.5585 58.0669 35.221 58.4073 34.7999 58.4073ZM67.8041 58.4073H41.0677C40.6495 58.4073 40.3091 58.0669 40.3091 57.6487C40.3091 57.2305 40.6495 56.8901 41.0677 56.8901H67.8041C68.2224 56.8901 68.5627 57.2305 68.5627 57.6487C68.5627 58.0669 68.2224 58.4073 67.8041 58.4073Z" fill="white"/>
<path fill-rule="evenodd" clip-rule="evenodd" d="M34.5309 47.3767H35.5924L36.0337 45.5999C36.0943 45.3519 36.2789 45.1499 36.5212 45.0663C36.674 45.0115 36.8269 44.948 36.974 44.8788C37.2048 44.7663 37.4759 44.7807 37.6952 44.9105L39.2643 45.8537L40.0143 45.1038L39.0682 43.5346C38.9355 43.3154 38.924 43.0442 39.0365 42.8135C39.1057 42.6664 39.1692 42.5164 39.224 42.3606C39.3076 42.1183 39.5095 41.9366 39.7576 41.8731L41.5344 41.4318V40.3703L39.7576 39.929C39.5095 39.8684 39.3076 39.6867 39.224 39.4444C39.1721 39.2915 39.1086 39.1386 39.0365 38.9915C38.9269 38.7636 38.9384 38.4896 39.0682 38.2733L40.0143 36.7041L39.2643 35.9541L37.6952 36.9002C37.4759 37.0329 37.2048 37.0444 36.974 36.9348C36.8298 36.8627 36.6769 36.7993 36.5241 36.7473C36.2818 36.6637 36.1 36.4618 36.0366 36.2137L35.5952 34.4369H34.5337L34.0924 36.2137C34.0318 36.4618 33.8472 36.6637 33.6049 36.7473C33.4549 36.7993 33.302 36.8627 33.1549 36.9348C32.9242 37.0444 32.653 37.0329 32.4338 36.9002L30.8646 35.9541L30.1147 36.7041L31.0608 38.2733C31.1935 38.4925 31.205 38.7636 31.0954 38.9944C31.0233 39.1415 30.9598 39.2915 30.9079 39.4473C30.8242 39.6895 30.6223 39.8713 30.3743 39.9318L28.5974 40.3732V41.4347L30.3743 41.876C30.6223 41.9366 30.8242 42.1212 30.9079 42.3635C30.9598 42.5164 31.0233 42.6692 31.0954 42.8135C31.205 43.0442 31.1935 43.3154 31.0608 43.5346L30.1176 45.1038L30.8675 45.8537L32.4367 44.9105C32.6559 44.7778 32.9242 44.7663 33.1549 44.8788C33.302 44.948 33.4549 45.0115 33.6078 45.0663C33.8501 45.1499 34.0318 45.3518 34.0924 45.5999L34.5337 47.3767L34.5309 47.3767ZM36.1837 48.894H33.9366C33.5876 48.894 33.2847 48.6546 33.2011 48.3171L32.7482 46.4912L31.1358 47.4604C30.8358 47.6421 30.4522 47.5931 30.207 47.3479L28.6177 45.7585C28.3725 45.5134 28.3263 45.1297 28.5052 44.8297L29.4744 43.2173L27.6484 42.7644C27.3109 42.6808 27.0715 42.375 27.0715 42.0289V39.7818C27.0715 39.4328 27.3081 39.1299 27.6484 39.0463L29.4744 38.5934L28.5052 36.981C28.3263 36.681 28.3725 36.2974 28.6177 36.0522L30.207 34.4629C30.4551 34.2177 30.8358 34.1715 31.1358 34.3504L32.7482 35.3196L33.2011 33.4936C33.2847 33.1562 33.5876 32.9167 33.9366 32.9167H36.1837C36.5327 32.9167 36.8385 33.1533 36.9192 33.4936L37.375 35.3196L38.9874 34.3504C39.2874 34.1715 39.6682 34.2177 39.9134 34.4629L41.5027 36.0522C41.7479 36.2974 41.7969 36.681 41.6152 36.981L40.646 38.5934L42.4719 39.0463C42.8094 39.1299 43.0488 39.4328 43.0488 39.7818V42.0289C43.0488 42.3779 42.8094 42.6808 42.4719 42.7644L40.646 43.2173L41.6152 44.8297C41.7969 45.1297 41.7479 45.5105 41.5027 45.7585L39.9134 47.3479C39.6682 47.5931 39.2845 47.6421 38.9846 47.4604L37.3721 46.4912L36.9164 48.3171C36.8327 48.6546 36.5298 48.894 36.1808 48.894H36.1837Z" fill="white"/>
<path fill-rule="evenodd" clip-rule="evenodd" d="M35.0649 39.6152C34.3524 39.6152 33.7726 40.1949 33.7726 40.9074C33.7726 41.6199 34.3524 42.1968 35.0649 42.1968C35.7774 42.1968 36.3543 41.617 36.3543 40.9074C36.3543 40.1949 35.7745 39.6152 35.0649 39.6152ZM35.0649 43.714C33.5159 43.714 32.2554 42.4535 32.2554 40.9074C32.2554 39.3584 33.5159 38.0979 35.0649 38.0979C36.6139 38.0979 37.8715 39.3584 37.8715 40.9074C37.8715 42.4564 36.611 43.714 35.0649 43.714Z" fill="white"/>
<path fill-rule="evenodd" clip-rule="evenodd" d="M50.1621 41.8503C49.9861 41.8503 49.8102 41.7898 49.6688 41.6686C49.5044 41.5273 49.415 41.3311 49.4064 41.1292C49.2967 41.2994 49.1208 41.4263 48.9073 41.4667C48.4949 41.5417 48.0996 41.2734 48.0189 40.8609L47.1911 36.4909C47.1132 36.0784 47.3843 35.6832 47.7968 35.6054C48.2093 35.5275 48.6045 35.7986 48.6823 36.2111L49.5102 40.5783C49.516 40.6129 49.5217 40.6504 49.5246 40.685C49.5419 40.6533 49.565 40.6273 49.5881 40.5985L52.2419 37.512C52.5159 37.1948 52.9947 37.1573 53.312 37.4313C53.6293 37.7053 53.6668 38.1841 53.3928 38.5014L50.7419 41.5878C50.5919 41.7609 50.3785 41.8503 50.165 41.8503H50.1621ZM56.8541 46.0444C56.5397 46.0444 56.2455 45.8483 56.1359 45.5338L53.7274 38.5678C53.5889 38.1726 53.7995 37.7399 54.1975 37.6043C54.5927 37.4659 55.0254 37.6764 55.161 38.0745L57.5695 45.0406C57.7051 45.4358 57.4945 45.8684 57.0993 46.0069C57.0186 46.0357 56.9349 46.0502 56.8513 46.0502L56.8541 46.0444ZM66.1887 46.3011C65.8829 46.3011 65.5945 46.1136 65.4791 45.8108L63.8955 41.6311C63.7484 41.2388 63.9446 40.8004 64.3369 40.6533C64.7291 40.5033 65.1676 40.7023 65.3147 41.0946L66.8983 45.2743C67.0482 45.6666 66.8492 46.105 66.4569 46.2521C66.3675 46.2838 66.2752 46.3011 66.1887 46.3011ZM58.5422 46.405C58.3547 46.405 58.1701 46.3357 58.023 46.2002C57.7172 45.9146 57.7028 45.4329 57.9884 45.1271L62.3209 40.5004C62.6094 40.1947 63.0882 40.1803 63.3939 40.4658C63.6996 40.7514 63.7141 41.2331 63.4285 41.5388L59.096 46.1656C58.946 46.3242 58.7441 46.405 58.5422 46.405Z" fill="white"/>
<path fill-rule="evenodd" clip-rule="evenodd" d="M66.7771 46.1914C66.3762 46.1914 66.0098 46.4597 65.9002 46.8635C65.8368 47.0972 65.8685 47.3424 65.9925 47.5529C66.1137 47.7635 66.3098 47.9135 66.5435 47.977C67.0252 48.1068 67.5242 47.8183 67.654 47.3366C67.7838 46.852 67.4954 46.353 67.0108 46.2232C66.9329 46.203 66.855 46.1943 66.7771 46.1914ZM66.7771 49.5259C66.5694 49.5259 66.3589 49.4971 66.1512 49.4423C65.5252 49.275 65.0031 48.874 64.6772 48.3116C64.3541 47.7491 64.2676 47.0972 64.4349 46.4713C64.781 45.179 66.1137 44.4088 67.4059 44.755C68.6982 45.1012 69.4655 46.4337 69.1193 47.726C68.8308 48.8077 67.8472 49.523 66.7742 49.523L66.7771 49.5259Z" fill="white"/>
<path fill-rule="evenodd" clip-rule="evenodd" d="M64.0137 38.8936C63.6127 38.8936 63.2435 39.1619 63.1368 39.5657C63.007 40.0503 63.2954 40.5493 63.7771 40.6762C64.0108 40.7397 64.256 40.7079 64.4665 40.5839C64.6771 40.4628 64.8271 40.2666 64.8905 40.033C65.0203 39.5484 64.7319 39.0494 64.2502 38.9224C64.1723 38.9023 64.0944 38.8907 64.0165 38.8907L64.0137 38.8936ZM64.0165 42.2281C63.806 42.2281 63.5925 42.1992 63.3848 42.1444C62.0926 41.7983 61.3224 40.4657 61.6686 39.1734C62.0147 37.8812 63.3473 37.111 64.6396 37.4571C65.9318 37.8033 66.702 39.1359 66.3558 40.4281C66.1885 41.0541 65.7876 41.5762 65.2252 41.9021C64.8531 42.1185 64.4377 42.2281 64.0165 42.2281Z" fill="white"/>
<path fill-rule="evenodd" clip-rule="evenodd" d="M57.4001 45.9522C56.9992 45.9522 56.6299 46.2205 56.5232 46.6243C56.4598 46.8579 56.4915 47.1031 56.6155 47.3137C56.7367 47.5242 56.9328 47.6742 57.1665 47.7377C57.6511 47.8675 58.1501 47.5791 58.277 47.0973C58.4068 46.6127 58.1184 46.1137 57.6366 45.9839C57.5588 45.9637 57.4809 45.9551 57.403 45.9551L57.4001 45.9522ZM57.3972 49.2867C57.1896 49.2867 56.979 49.2578 56.7713 49.203C56.1454 49.0357 55.6233 48.6348 55.2973 48.0723C54.9742 47.5098 54.8877 46.858 55.055 46.232C55.4012 44.9397 56.7338 44.1696 58.026 44.5157C59.3183 44.8619 60.0885 46.1945 59.7423 47.4867C59.4538 48.5684 58.4702 49.2838 57.3972 49.2838L57.3972 49.2867Z" fill="white"/>
<path fill-rule="evenodd" clip-rule="evenodd" d="M53.9007 35.8358C53.7449 35.8358 53.5892 35.8762 53.4478 35.957C53.2373 36.0781 53.0873 36.2743 53.0238 36.5079C52.894 36.9925 53.1825 37.4886 53.6642 37.6184C54.1488 37.7482 54.6478 37.4598 54.7747 36.9752C54.8382 36.7416 54.8064 36.4964 54.6824 36.2887C54.5613 36.0781 54.3651 35.9281 54.1315 35.8647C54.0536 35.8445 53.9728 35.8358 53.8949 35.8358L53.9007 35.8358ZM53.9036 39.1703C53.6959 39.1703 53.4853 39.1415 53.2777 39.0866C51.9854 38.7405 51.2152 37.4079 51.5614 36.1156C51.7287 35.4897 52.1296 34.9676 52.6921 34.6445C53.2546 34.3215 53.9064 34.2321 54.5324 34.4022C55.8247 34.7484 56.5948 36.081 56.2487 37.3732C55.9602 38.4549 54.9766 39.1703 53.9036 39.1703Z" fill="white"/>
<path fill-rule="evenodd" clip-rule="evenodd" d="M49.0784 41.4493C48.6774 41.4493 48.311 41.7176 48.2015 42.1214C48.0717 42.606 48.3601 43.1021 48.8447 43.2319C49.3264 43.3618 49.8254 43.0733 49.9552 42.5887C50.0187 42.3551 49.987 42.1099 49.8629 41.8993C49.7418 41.6887 49.5456 41.5388 49.312 41.4753C49.2341 41.4551 49.1562 41.4464 49.0783 41.4436L49.0784 41.4493ZM49.0755 44.7838C48.8678 44.7838 48.6572 44.7578 48.4495 44.703C47.1573 44.3569 46.39 43.0243 46.7333 41.732C47.0794 40.4398 48.412 39.6696 49.7043 40.0186C50.9965 40.3648 51.7638 41.6974 51.4177 42.9896C51.1292 44.0713 50.1456 44.7867 49.0725 44.7867L49.0755 44.7838Z" fill="white"/>
<path fill-rule="evenodd" clip-rule="evenodd" d="M47.6302 33.8023C47.2292 33.8023 46.86 34.0705 46.7504 34.4744C46.6206 34.959 46.909 35.458 47.3936 35.5878C47.8782 35.7176 48.3772 35.4291 48.5042 34.9474C48.634 34.4628 48.3455 33.9638 47.8638 33.8369C47.7859 33.8167 47.7052 33.8052 47.6302 33.8052L47.6302 33.8023ZM47.6302 37.1368C47.4225 37.1368 47.2119 37.1108 47.0042 37.0531C45.712 36.707 44.9418 35.3744 45.288 34.0821C45.6341 32.7898 46.9667 32.0197 48.259 32.3658C49.5512 32.712 50.3214 34.0446 49.9752 35.3368C49.6868 36.4185 48.7031 37.1339 47.6301 37.1339L47.6302 37.1368Z" fill="white"/>
</svg>
