<svg width="96" height="96" viewBox="0 0 96 96" fill="none" xmlns="http://www.w3.org/2000/svg">
<circle cx="48" cy="48" r="48" fill="#0A0B0F"/>
<path d="M31.731 40.9427C31.8709 41.4631 31.7399 41.9537 31.3587 42.3343L30.2391 43.4523C28.8068 44.8826 28.8068 47.1959 30.2391 48.6262L31.3587 49.7442C31.7399 50.1337 31.8798 50.6303 31.7399 51.1417L31.329 52.673C31.0729 53.6126 31.2039 54.5998 31.6952 55.4472C32.1865 56.2947 32.9697 56.8982 33.9106 57.148L35.4501 57.5584C35.6913 57.6208 35.8937 57.7368 36.0575 57.8855L30.7602 71.6647C30.5964 72.084 30.7066 72.5568 31.0312 72.86C31.3587 73.1693 31.8322 73.2496 32.2461 73.0712L36.3613 71.2395L38.1955 75.3488C38.3742 75.7443 38.7702 76 39.2079 76H39.2377C39.6903 75.9851 40.0863 75.7056 40.2412 75.2923L44.8685 63.2288L45.4134 63.7729C46.1281 64.4806 47.0631 64.8374 48.004 64.8374C48.9449 64.8374 49.88 64.4806 50.5946 63.7729L51.1395 63.2288L55.7669 75.2923C55.9307 75.7116 56.3267 75.9911 56.7704 76H56.8001C57.2349 76 57.6339 75.7443 57.8125 75.3488L59.6468 71.2395L63.762 73.0712C64.1729 73.2496 64.6493 73.1722 64.9769 72.86C65.3045 72.5508 65.4116 72.0751 65.2479 71.6647L59.9595 57.8855C60.1232 57.7368 60.3257 57.6208 60.5669 57.5584L62.1004 57.148C63.0414 56.8983 63.8364 56.2947 64.3248 55.4472C64.8161 54.5998 64.9471 53.6156 64.6911 52.673L64.2801 51.1417C64.1402 50.6214 64.2712 50.1248 64.6523 49.7502L65.772 48.6321C66.4628 47.9482 66.8439 47.0235 66.8439 46.0541C66.8439 45.0758 66.4628 44.1511 65.772 43.4613L64.6434 42.3433C64.2623 41.9627 64.1313 41.4661 64.2712 40.9458L64.6821 39.4145C64.9382 38.4749 64.8072 37.4877 64.3159 36.6403C63.8246 35.7928 63.0414 35.1893 62.0915 34.9395L60.558 34.5291C60.0369 34.3894 59.6706 34.0236 59.5396 33.5032L59.1287 31.9719C58.6076 30.0214 56.5917 28.8647 54.6413 29.3851L53.1078 29.7895C52.5867 29.9292 52.0895 29.7984 51.7143 29.4178L50.5857 28.2908C49.1623 26.8695 46.8367 26.8695 45.4044 28.2908L44.2848 29.4178C43.9036 29.7984 43.4064 29.9292 42.8853 29.7895L41.3518 29.3851C39.3984 28.8647 37.3914 30.0214 36.8644 31.9719L36.4535 33.5032C36.3135 34.0325 35.9562 34.3894 35.4351 34.5291L33.8957 34.9395C32.9547 35.1952 32.1686 35.7928 31.6803 36.6403C31.1889 37.4877 31.0579 38.4719 31.314 39.4145L31.731 40.9427ZM39.1276 72.018L37.9305 69.3301C37.6804 68.7711 37.0283 68.5213 36.4685 68.7711L33.7856 69.9664L37.2397 60.9804C38.0496 62.3869 39.729 63.1332 41.3608 62.6961L42.8556 62.3006L39.1276 72.018ZM59.5395 68.7711C58.9797 68.5213 58.3246 68.7711 58.0775 69.3301L56.8804 72.0091L53.1553 62.3007L54.6501 62.6962C55.5911 62.9519 56.5796 62.8211 57.4283 62.3305C57.997 62.0034 58.4616 61.5395 58.7831 60.9776L62.2283 69.9636L59.5395 68.7711ZM32.9217 43.8919C33.8716 42.9375 34.2141 41.6559 33.8716 40.3654L33.4607 38.8282C33.3595 38.4565 33.4131 38.0759 33.6096 37.734C33.8031 37.4009 34.1158 37.1601 34.482 37.059L36.0215 36.6487C37.3138 36.2978 38.2607 35.3582 38.6032 34.0618L39.0141 32.5305C39.2255 31.7604 40.0176 31.3024 40.7888 31.5136L42.3223 31.918C43.6057 32.2599 44.9188 31.9091 45.8628 30.9695L46.9824 29.8514C47.5512 29.2924 48.4683 29.2835 49.0281 29.8514L50.1567 30.9784C51.0887 31.9091 52.4138 32.2688 53.6883 31.9269L55.2218 31.5225C55.993 31.3114 56.7851 31.7723 56.9965 32.5394L57.4074 34.0707C57.7409 35.3523 58.7146 36.3156 59.998 36.6635L61.5315 37.0738C61.9037 37.1749 62.2163 37.4158 62.4099 37.7488C62.6034 38.0818 62.66 38.4714 62.5587 38.843L62.1478 40.3803C61.8054 41.6529 62.1568 42.9731 63.0977 43.9157L64.2263 45.0337C64.4973 45.3043 64.6462 45.6701 64.6462 46.0596C64.6462 46.4491 64.4973 46.806 64.2263 47.0765L63.0977 48.2035C62.1657 49.1342 61.8054 50.4573 62.1478 51.7389L62.5587 53.2702C62.66 53.6419 62.6064 54.0314 62.4099 54.3644C62.2163 54.6974 61.9037 54.9383 61.5315 55.0394L59.998 55.4497C59.0183 55.7143 58.2233 56.3358 57.7498 57.1892C57.7409 57.1981 57.7409 57.2041 57.7349 57.213C57.595 57.4687 57.4788 57.7423 57.4014 58.0366L56.9964 59.5679C56.8952 59.9396 56.654 60.2518 56.3205 60.4451C55.987 60.6383 55.5969 60.6948 55.2247 60.5937L53.6912 60.1566C52.8425 59.9306 51.9879 60.008 51.2256 60.3588C51.1631 60.3826 51.1006 60.4123 51.047 60.445C50.7284 60.6145 50.4246 60.8346 50.1596 61.0962L49.031 62.2232C48.4712 62.7822 47.5541 62.7822 46.9853 62.2232L45.8657 61.0962C45.5947 60.8256 45.282 60.5997 44.9545 60.4272C44.9247 60.4123 44.883 60.3885 44.8532 60.3737C44.3708 60.1418 43.8408 60.0228 43.3049 60.0228C42.9862 60.0228 42.6587 60.0615 42.3401 60.1477L40.8066 60.558C40.0354 60.7691 39.2433 60.3083 39.0319 59.5411L38.621 58.0098C38.2696 56.7134 37.3287 55.7738 36.0304 55.423L34.4909 55.0126C34.1247 54.9115 33.815 54.6796 33.6185 54.3436C33.4249 54.0106 33.3684 53.6211 33.4696 53.2494L33.8805 51.7181C34.2319 50.4276 33.8805 49.1401 32.9306 48.1827L31.811 47.0646C31.2512 46.5056 31.2512 45.5898 31.811 45.0219L32.9217 43.8919ZM48.0037 57.8729C54.5368 57.8729 59.849 52.5683 59.849 46.0446C59.849 39.521 54.5368 34.2163 48.0037 34.2163C41.4707 34.2163 36.1584 39.521 36.1584 46.0446C36.1584 52.5683 41.4707 57.8729 48.0037 57.8729ZM48.0037 36.4192C53.316 36.4192 57.6338 40.7367 57.6338 46.0355C57.6338 51.3401 53.3101 55.6517 48.0037 55.6517C42.6915 55.6517 38.3737 51.3343 38.3737 46.0355C38.3737 40.7398 42.6914 36.4192 48.0037 36.4192ZM43.2989 48.0009C43.0667 48.994 42.888 49.9902 42.7629 50.9595C42.6706 51.6344 42.9416 52.2886 43.4955 52.7079C43.823 52.9487 44.2101 53.0736 44.5913 53.0736C44.8473 53.0736 45.1034 53.0201 45.3536 52.9101C46.2171 52.5206 47.0895 52.0626 47.9501 51.5363C48.8136 52.0656 49.6861 52.5235 50.5466 52.9101C51.169 53.1807 51.8598 53.1123 52.4225 52.699C52.9734 52.2886 53.2384 51.6345 53.1461 50.9744C53.0211 49.9961 52.8424 49 52.6101 48.0069C53.2474 47.433 53.9173 46.8027 54.6648 46.0563C55.1561 45.5657 55.3347 44.8759 55.1323 44.2158C54.9387 43.5556 54.4176 43.065 53.7328 42.9253C52.8007 42.732 51.8419 42.5982 50.8146 42.515C50.4424 41.6527 50.0285 40.8052 49.5848 39.9816C49.2573 39.375 48.6438 39.0093 47.9501 39.0093C47.2592 39.0093 46.6429 39.3751 46.3153 39.9816C45.8478 40.8439 45.4131 41.7359 45.0319 42.6458C44.2398 42.732 43.3763 42.8391 42.3639 42.9967H42.349C41.6641 43.1126 41.0954 43.5884 40.878 44.2544C40.6606 44.9294 40.8393 45.6519 41.3366 46.1426C42.0215 46.8205 42.6677 47.4359 43.2989 48.0009ZM45.9045 44.7866C46.3243 44.7479 46.6816 44.4833 46.8365 44.0967C47.17 43.2641 47.5452 42.4435 47.9562 41.6347C48.3522 42.4048 48.7095 43.1958 49.0371 43.9897C49.2009 44.3852 49.5731 44.6587 50.0108 44.6796C50.9368 44.7271 51.8004 44.8193 52.6252 44.9591C51.9165 45.6489 51.2793 46.2317 50.6659 46.7758C50.3473 47.0464 50.2133 47.4746 50.3145 47.879C50.5408 48.7888 50.7254 49.7046 50.8654 50.6056C50.0942 50.2339 49.326 49.7909 48.5637 49.3003C48.1974 49.0594 47.7239 49.0594 47.3577 49.3003C46.5954 49.7968 45.8182 50.231 45.056 50.6056C45.1959 49.7046 45.3835 48.7948 45.6068 47.879C45.7081 47.4746 45.5771 47.0464 45.2555 46.7758C44.6629 46.2555 44.0584 45.6964 43.4122 45.075C44.3562 44.9412 45.1571 44.849 45.9045 44.7866ZM65.4649 28.5989C65.0302 28.1648 65.0302 27.466 65.4649 27.0378C65.8997 26.6037 66.5995 26.6037 67.0282 27.0378C72.1142 32.1105 74.9165 38.8661 74.9165 46.0442C74.9165 53.2224 72.1174 59.9719 67.0282 65.0507C66.8109 65.2677 66.531 65.3778 66.2422 65.3778C65.9623 65.3778 65.6734 65.2677 65.4561 65.0507C65.0213 64.6166 65.0213 63.9178 65.4561 63.4896C70.1222 58.8302 72.6979 52.6394 72.6979 46.0535C72.7068 39.4495 70.1399 33.2529 65.4649 28.5989ZM21.0818 46.0441C21.0818 38.8602 23.8809 32.1103 28.9701 27.0376C29.4048 26.6035 30.1046 26.6035 30.5334 27.0376C30.9681 27.4718 30.9681 28.1705 30.5334 28.5987C25.8673 33.2581 23.3005 39.4489 23.3005 46.0439C23.3005 52.6301 25.8673 58.8298 30.5334 63.48C30.9681 63.9141 30.9681 64.6129 30.5334 65.0411C30.316 65.2582 30.0361 65.3682 29.7473 65.3682C29.4674 65.3682 29.1786 65.2582 28.9612 65.0411C23.8812 59.9713 21.0818 53.2222 21.0818 46.0441ZM72.7479 21.3286C79.3584 27.9297 83 36.7072 83 46.0441C83 55.381 79.3583 64.1493 72.7479 70.7535C72.5305 70.9705 72.2506 71.0805 71.9618 71.0805C71.673 71.0805 71.3931 70.9705 71.1757 70.7535C70.741 70.3193 70.741 69.6206 71.1757 69.1924C77.3664 63.0106 80.7822 54.792 80.7822 46.0473C80.7822 37.3026 77.3756 29.0839 71.1757 22.9022C70.741 22.4681 70.741 21.7693 71.1757 21.3411C71.6194 20.8921 72.3191 20.8915 72.7479 21.3286ZM23.2521 70.7504C16.6416 64.1493 13 55.3779 13 46.041C13 36.7041 16.6417 27.9267 23.2521 21.3256C23.6868 20.8915 24.3866 20.8915 24.8154 21.3256C25.2502 21.7597 25.2502 22.4585 24.8154 22.8867C18.6247 29.0685 15.2151 37.2871 15.2151 46.0318C15.2151 54.7764 18.6216 62.9951 24.8154 69.1769C25.2502 69.611 25.2502 70.3097 24.8154 70.7379C24.598 70.955 24.3181 71.065 24.0293 71.065C23.7405 71.0709 23.4694 70.9704 23.2521 70.7504Z" fill="white"/>
</svg>
