<svg width="96" height="96" viewBox="0 0 96 96" fill="none" xmlns="http://www.w3.org/2000/svg">
<circle cx="48" cy="48" r="48" fill="#0A0B0F"/>
<path d="M44.2378 80.9999H51.7696C52.3353 80.9999 52.7883 80.5381 52.7883 79.9741L52.7856 53.2306H54.8367C55.5478 53.2306 56.1849 52.8049 56.4512 52.1413C56.7231 51.4833 56.5721 50.7257 56.0723 50.2198L49.4082 43.5097C49.0348 43.1281 48.5323 42.918 48.0024 42.918H47.9942C47.4642 42.918 46.9617 43.1281 46.5883 43.5041L39.9242 50.2143C39.4217 50.7202 39.2707 51.4722 39.5453 52.1357C39.8171 52.7938 40.4487 53.2195 41.1598 53.2195H43.211V79.9574C43.2192 80.538 43.6777 80.9999 44.2378 80.9999ZM41.8709 51.1789L48.0023 45.0052L54.1419 51.1789H51.775C51.2094 51.1789 50.7564 51.6406 50.7564 52.2046V78.9425H45.262V52.2046C45.262 51.6351 44.8035 51.1789 44.2433 51.1789H41.8709ZM46.2889 24.2337C45.7288 25.2816 45.2126 26.3653 44.754 27.4629C43.771 27.5652 42.7029 27.7007 41.5112 27.8887C40.7946 28.0048 40.2344 28.4887 40.012 29.1826C39.7896 29.8683 39.9681 30.612 40.4788 31.118C41.3108 31.9474 42.0933 32.6912 42.8457 33.3713C42.5738 34.5546 42.3514 35.7628 42.1922 36.9599C42.0988 37.6539 42.3789 38.3174 42.9308 38.7294C43.2685 38.981 43.6612 39.1109 44.0566 39.1109C44.3147 39.1109 44.5811 39.0528 44.831 38.945C45.8771 38.475 46.8958 37.9276 47.9447 37.2778C48.9854 37.9276 50.026 38.4833 51.0502 38.945C51.6873 39.2326 52.3984 39.1551 52.9585 38.7349C53.5186 38.3146 53.7905 37.6511 53.6972 36.9654C53.5406 35.7461 53.3182 34.538 53.0437 33.3685C53.8317 32.6607 54.65 31.881 55.5258 31.0074C56.0283 30.5015 56.2013 29.802 55.9981 29.1302C55.8032 28.4445 55.2733 27.9523 54.5703 27.8003C53.4665 27.5681 52.2886 27.4022 51.0694 27.3165C50.6328 26.2825 50.1359 25.2512 49.5976 24.2393C49.2599 23.6117 48.6448 23.244 47.9337 23.244C47.2417 23.2357 46.6184 23.6061 46.2889 24.2337ZM49.4439 28.6822C49.5949 29.0499 49.9463 29.3043 50.3417 29.3237C51.5828 29.3817 52.78 29.5255 53.892 29.7494C52.9585 30.6812 52.0908 31.4968 51.2451 32.2349C50.9513 32.4865 50.8277 32.8847 50.9293 33.2607C51.2314 34.4523 51.4757 35.6881 51.646 36.9572C50.6053 36.4816 49.5591 35.8872 48.5103 35.2015C48.1725 34.9776 47.7359 34.9776 47.3983 35.2015C46.3356 35.901 45.3032 36.4734 44.257 36.9572C44.43 35.7158 44.6744 34.4717 44.9737 33.2607C45.067 32.8847 44.9462 32.4865 44.6579 32.2349C43.8534 31.5272 43.0214 30.753 42.1317 29.8655C43.4003 29.6775 44.5205 29.5393 45.553 29.4453C45.9319 29.4093 46.2696 29.1633 46.4069 28.8038C46.86 27.662 47.3762 26.5423 47.95 25.4612C48.5047 26.5229 49.0073 27.6067 49.4439 28.6822ZM23.8307 81H31.3625C31.9281 81 32.3812 80.5383 32.3812 79.9743V65.6389H34.4323C35.1435 65.6389 35.7722 65.2131 36.0469 64.5551C36.3187 63.8971 36.1677 63.1478 35.668 62.6419L29.0039 55.9318C28.6304 55.5503 28.128 55.3401 27.5898 55.3401C27.0599 55.3401 26.5573 55.5503 26.1839 55.9263L19.5144 62.6419C19.0119 63.1479 18.8609 63.8999 19.1355 64.5551C19.4073 65.2131 20.0389 65.6389 20.75 65.6389H22.8011V79.9686C22.8039 80.5382 23.2623 81 23.8307 81ZM21.4638 63.5872L27.5952 57.4134L33.7266 63.5872H31.3597C30.7941 63.5872 30.341 64.0489 30.341 64.6129V78.9426H24.8467L24.8494 64.6129C24.8494 64.0433 24.3909 63.5872 23.8307 63.5872H21.4638ZM59.9602 58.3507C60.232 59.0087 60.8636 59.4345 61.5747 59.4345H63.6259V79.9686C63.6259 80.5382 64.0844 80.9943 64.6445 80.9943H72.182C72.7476 80.9943 73.2007 80.5326 73.2007 79.9686V59.4345H75.2518C75.963 59.4345 76.5917 59.0087 76.8664 58.3507C77.1382 57.6927 76.9872 56.9352 76.4874 56.4292L69.8179 49.7136C69.0435 48.9394 67.7805 48.9394 67.0062 49.7219L60.3421 56.4375C59.8369 56.9352 59.6856 57.6927 59.9602 58.3507ZM68.4093 51.2007L74.5407 57.3828H72.1739C71.6082 57.3828 71.1552 57.8445 71.1552 58.4085V78.9426H65.6608V58.4085C65.6608 57.8389 65.2023 57.3828 64.6421 57.3828H62.2753L68.4093 51.2007ZM66.696 30.4372C66.1358 31.4768 65.6279 32.5606 65.161 33.6665C64.1341 33.7688 63.0742 33.9126 61.9265 34.0867C61.2153 34.1946 60.636 34.6922 60.419 35.3806C60.1966 36.0746 60.3696 36.7962 60.8858 37.3243C61.7178 38.1537 62.4922 38.8919 63.2527 39.5776C62.9726 40.7692 62.7585 41.9746 62.5992 43.1829C62.5141 43.8768 62.7942 44.532 63.3461 44.944C63.6756 45.1956 64.0709 45.3256 64.4664 45.3256C64.7245 45.3256 64.9908 45.2675 65.2407 45.1597C66.2814 44.6897 67.3276 44.134 68.3545 43.4925C69.3814 44.1339 70.4276 44.6924 71.4737 45.1597C72.1107 45.4417 72.8136 45.3615 73.3683 44.944C73.9284 44.5238 74.2003 43.8603 74.1069 43.1663C73.9504 41.9664 73.728 40.761 73.4534 39.5776C74.2579 38.856 75.068 38.0764 75.9274 37.2165C76.4299 36.7189 76.6166 36.0111 76.4079 35.3254C76.2075 34.6453 75.6775 34.156 74.9883 34.0039C73.8625 33.7661 72.7148 33.6057 71.4874 33.52C71.0508 32.486 70.5621 31.4547 70.0156 30.4428C69.6779 29.8152 69.0628 29.4475 68.3517 29.4475C67.6488 29.4392 67.031 29.8097 66.696 30.4372ZM68.3599 31.6648C68.9201 32.7348 69.4225 33.8158 69.8509 34.8858C70.0019 35.2618 70.3534 35.5079 70.7487 35.5272C72.0118 35.5936 73.1733 35.7291 74.2991 35.9475C73.382 36.8654 72.5143 37.681 71.6604 38.433C71.3748 38.6846 71.2512 39.0827 71.3446 39.4587C71.6466 40.6724 71.891 41.9138 72.0612 43.1552C71.0151 42.6631 69.9607 42.0798 68.92 41.3996C68.5823 41.1756 68.1457 41.1756 67.808 41.3996C66.7755 42.0797 65.7211 42.6714 64.6667 43.1552C64.8397 41.9194 65.0841 40.678 65.3834 39.4587C65.4767 39.0827 65.3559 38.6845 65.0676 38.433C64.2576 37.7169 63.4256 36.9372 62.5414 36.0635C63.7606 35.8755 64.8808 35.7373 65.9627 35.6433C66.3416 35.6074 66.6739 35.3613 66.8166 35.0074C67.2752 33.8683 67.7915 32.7404 68.3599 31.6648ZM35.6001 41.5299C35.6001 41.5216 35.6001 41.5216 35.5919 41.5161C35.3914 40.8359 34.8532 40.3466 34.1723 40.2028C33.052 39.965 31.8768 39.8046 30.6714 39.7189C30.2266 38.6655 29.7323 37.6315 29.1941 36.6362C28.8564 36.0141 28.2413 35.6409 27.5384 35.6409C26.8354 35.6409 26.2176 36.0086 25.8826 36.6362C25.317 37.6896 24.8008 38.7733 24.3477 39.8654C23.329 39.9677 22.2664 40.1115 21.1186 40.2857C20.4157 40.3935 19.8336 40.8856 19.6057 41.5851C19.3915 42.2652 19.57 43.0007 20.0725 43.5205C20.9127 44.3582 21.6925 45.1019 22.4394 45.7738C22.1676 46.9571 21.9452 48.1653 21.7859 49.3624C21.6925 50.0481 21.9644 50.7116 22.5163 51.1319C22.5245 51.1319 22.5245 51.1402 22.53 51.1402C23.0819 51.5521 23.7931 51.6323 24.4246 51.3503C25.4653 50.8803 26.5115 50.3246 27.5384 49.6831C28.5791 50.3328 29.6032 50.883 30.6521 51.3586C30.902 51.4664 31.1601 51.5245 31.4265 51.5245C31.8219 51.5245 32.2145 51.3945 32.5523 51.1429C33.1042 50.7227 33.3842 50.0674 33.2909 49.3735C33.1344 48.1736 32.9175 46.9681 32.6374 45.7765C33.4117 45.077 34.2299 44.3029 35.1113 43.4154C35.6166 42.9095 35.795 42.2101 35.6001 41.5299ZM30.8389 44.6347C30.5533 44.8863 30.4215 45.2844 30.5149 45.6604C30.8224 46.8797 31.0613 48.1238 31.2315 49.3569C30.1771 48.8648 29.1502 48.2953 28.0903 47.5958C27.9173 47.4879 27.7251 47.4299 27.5301 47.4299C27.3352 47.4299 27.143 47.4879 26.97 47.5958C25.9293 48.2759 24.8749 48.8676 23.8288 49.3569C24.0018 48.1156 24.2461 46.8714 24.5454 45.6604C24.6388 45.2844 24.5179 44.8862 24.2214 44.6347C23.4169 43.9352 22.5931 43.1611 21.6952 42.2736C22.9226 42.0856 24.0401 41.9474 25.1247 41.8534C25.5036 41.8174 25.8414 41.5714 25.9786 41.2119C26.4317 40.0784 26.9479 38.9504 27.5218 37.8693C28.0682 38.9089 28.5679 39.9926 29.0127 41.0986C29.1638 41.4663 29.5152 41.7206 29.9106 41.74C31.138 41.798 32.3269 41.9418 33.4609 42.1658C32.5301 43.1058 31.6627 43.9131 30.8389 44.6347ZM48.0029 21.6899C47.4373 21.6899 46.9842 21.2281 46.9842 20.6641V17.0312C46.9842 16.4617 47.4373 16 48.0029 16C48.5685 16 49.0216 16.4617 49.0216 17.0257V20.6669C49.0216 21.2364 48.5631 21.6899 48.0029 21.6899ZM57.2127 20.4485C57.6135 20.0503 58.2588 20.0503 58.6542 20.4485C59.0496 20.8521 59.0496 21.5019 58.6542 21.9L56.1006 24.4712C55.9002 24.6731 55.6421 24.7753 55.384 24.7753C55.1259 24.7753 54.8595 24.6731 54.6591 24.4712C54.2637 24.0676 54.2637 23.4178 54.6591 23.0197L57.2127 20.4485ZM41.3476 23.0197C41.7485 23.4178 41.7485 24.0676 41.3476 24.4712C41.1472 24.6731 40.8891 24.7753 40.6228 24.7753C40.3647 24.7753 40.0983 24.6731 39.9061 24.4712L37.3526 21.9C36.9517 21.5019 36.9517 20.8521 37.3526 20.4485C37.7479 20.0448 38.3932 20.0448 38.7941 20.4485L41.3476 23.0197Z" fill="white"/>
</svg>
