<svg width="96" height="96" viewBox="0 0 96 96" fill="none" xmlns="http://www.w3.org/2000/svg">
<circle cx="48" cy="48" r="48" fill="#0A0B0F"/>
<path d="M76.3227 55.9507C75.6482 54.7822 74.5412 53.93 73.2438 53.5803C71.9464 53.2306 70.5641 53.4118 69.3991 54.0844L56.0086 61.8599C55.8925 60.749 55.4465 59.6991 54.7287 58.8468C54.0109 57.9945 53.0545 57.3794 51.9843 57.0817L36.8749 52.9455C36.8313 52.9332 36.7869 52.924 36.7421 52.918C35.6536 52.7575 34.544 52.822 33.4812 53.1076C32.4184 53.3932 31.4247 53.894 30.5609 54.5792L26.5136 57.6963L26.342 57.052C26.2107 56.561 25.8911 56.1424 25.4534 55.8881C25.0156 55.6338 24.4955 55.5646 24.0071 55.6957L20.4114 56.6649C19.9236 56.7973 19.508 57.1188 19.2555 57.5589C19.003 57.999 18.9343 58.5219 19.0644 59.0129L24.2763 78.5786C24.4074 79.0698 24.7269 79.4885 25.1647 79.7428C25.6025 79.9971 26.1228 80.0662 26.6112 79.935L30.2062 78.9657C30.6949 78.8343 31.1117 78.5131 31.3651 78.0727C31.6185 77.6323 31.6877 77.1088 31.5574 76.6171L31.3557 75.8595C32.242 75.102 33.2954 74.5685 34.4281 74.3033C35.5608 74.0381 36.7401 74.0489 37.8679 74.3348L46.5218 76.3303C47.2395 76.4993 47.9739 76.5863 48.711 76.5896C50.1575 76.596 51.5793 76.2132 52.8293 75.481L74.471 62.9143C75.6331 62.2365 76.4805 61.1228 76.8276 59.8174C77.1748 58.5121 76.9932 57.1216 76.3227 55.9507ZM26.2027 77.9337L21.0533 58.6019L24.4149 57.6963L29.5643 77.0273L26.2027 77.9337ZM73.4543 61.1507L51.812 73.7173C50.3439 74.5607 48.604 74.7863 46.9713 74.345L38.3173 72.3451C37.0364 72.0154 35.6993 71.9711 34.3996 72.2153C33.0999 72.4596 31.8689 72.9865 30.7928 73.7592L27.0815 59.8268L31.7937 56.1969C32.437 55.681 33.1783 55.3026 33.9722 55.0849C34.766 54.8672 35.5957 54.8148 36.4103 54.9309L51.4515 59.0475C52.3399 59.2908 53.0959 59.8791 53.5531 60.683C54.0103 61.487 54.1313 62.4406 53.8895 63.3343C53.6476 64.228 53.0628 64.9884 52.2636 65.4483C51.4643 65.9082 50.5162 66.0299 49.6278 65.7866L41.5576 63.5773C41.3006 63.5133 41.0288 63.5529 40.8004 63.6878C40.5721 63.8227 40.4052 64.0421 40.3356 64.2992C40.266 64.5562 40.2992 64.8304 40.428 65.0632C40.5568 65.2959 40.771 65.4687 41.0249 65.5447L49.0958 67.7539C50.4085 68.1099 51.8057 67.9654 53.019 67.3482C54.2323 66.731 55.176 65.6846 55.669 64.41L70.4129 55.8488C71.1119 55.4431 71.9424 55.3333 72.7218 55.5436C73.5012 55.7539 74.1657 56.267 74.569 56.9701C74.9723 57.6731 75.0815 58.5086 74.8724 59.2926C74.6634 60.0766 74.1533 60.745 73.4543 61.1507ZM52.9636 23.1039C50.3824 23.1038 47.8592 23.8736 45.7129 25.3159C43.5667 26.7582 41.8938 28.8083 40.9058 31.207C39.9179 33.6056 39.6592 36.2451 40.1625 38.7917C40.6658 41.3382 41.9085 43.6774 43.7335 45.5136C45.5585 47.3497 47.8837 48.6002 50.4152 49.1071C52.9467 49.6139 55.5708 49.3543 57.9556 48.361C60.3404 47.3678 62.3789 45.6855 63.8132 43.5269C65.2476 41.3683 66.0134 38.8303 66.0138 36.234C66.01 32.7533 64.6339 29.4163 62.1875 26.9549C59.741 24.4934 56.4238 23.1085 52.9636 23.1039ZM52.9636 47.3194C50.7833 47.3194 48.6519 46.669 46.8391 45.4504C45.0263 44.2319 43.6134 42.5 42.7791 40.4737C41.9449 38.4474 41.7268 36.2178 42.1523 34.0668C42.5779 31.9158 43.628 29.9401 45.17 28.3894C46.7119 26.8388 48.6763 25.783 50.8148 25.3555C52.9533 24.928 55.1698 25.148 57.184 25.9877C59.1982 26.8273 60.9196 28.249 62.1306 30.0728C63.3415 31.8967 63.9875 34.0408 63.9869 36.234C63.9827 39.1732 62.8199 41.9908 60.7535 44.0689C58.687 46.147 55.8856 47.3159 52.9636 47.3194ZM52.9636 26.3836C51.0273 26.3836 49.1345 26.9611 47.5245 28.0431C45.9145 29.1252 44.6596 30.6631 43.9186 32.4625C43.1775 34.2619 42.9835 36.242 43.3611 38.1523C43.7387 40.0626 44.6709 41.8174 46.0399 43.1948C47.4089 44.5722 49.1532 45.5103 51.0523 45.8905C52.9513 46.2708 54.9198 46.0761 56.7088 45.331C58.4978 44.5859 60.027 43.324 61.1031 41.7048C62.1791 40.0855 62.7537 38.1817 62.7541 36.234C62.7519 33.6226 61.7197 31.1187 59.8842 29.272C58.0486 27.4252 55.5597 26.3864 52.9636 26.3836ZM52.9636 44.0405C51.428 44.0406 49.9268 43.5827 48.6499 42.7245C47.373 41.8664 46.3778 40.6466 45.7902 39.2194C45.2025 37.7923 45.0489 36.2219 45.3486 34.7069C45.6483 33.1919 46.3879 31.8003 47.4739 30.7082C48.56 29.6161 49.9436 28.8725 51.4498 28.5714C52.956 28.2704 54.5171 28.4254 55.9357 29.0169C57.3543 29.6084 58.5667 30.6098 59.4195 31.8944C60.2722 33.1791 60.7271 34.6893 60.7265 36.234C60.7235 38.3038 59.9046 40.288 58.4493 41.7514C56.9941 43.2148 55.0213 44.038 52.9636 44.0405ZM56.0682 38.1233C56.0673 38.7543 55.8631 39.368 55.4861 39.8723C55.1092 40.3766 54.5798 40.7444 53.9774 40.9205V41.2541C53.9774 41.5246 53.8706 41.784 53.6805 41.9752C53.4904 42.1665 53.2325 42.2739 52.9636 42.2739C52.6947 42.2739 52.4369 42.1665 52.2467 41.9752C52.0566 41.784 51.9498 41.5246 51.9498 41.2541V40.9652C51.2599 40.8077 50.6507 40.4028 50.236 39.8263C50.1527 39.7183 50.092 39.5945 50.0572 39.4624C50.0225 39.3303 50.0145 39.1925 50.0337 39.0573C50.0529 38.922 50.099 38.792 50.1692 38.6749C50.2393 38.5579 50.3322 38.4563 50.4421 38.3761C50.5521 38.2958 50.677 38.2387 50.8094 38.2079C50.9418 38.1772 51.0789 38.1736 51.2127 38.1972C51.3465 38.2209 51.4743 38.2713 51.5883 38.3456C51.7023 38.4199 51.8004 38.5164 51.8766 38.6296C51.9567 38.742 52.0622 38.8338 52.1844 38.8975C52.3065 38.9611 52.4419 38.9948 52.5795 38.9957H53.1718C53.4019 38.9957 53.6225 38.9038 53.7851 38.7402C53.9478 38.5766 54.0392 38.3547 54.0392 38.1233C54.0392 37.8919 53.9478 37.67 53.7851 37.5064C53.6225 37.3428 53.4019 37.2509 53.1718 37.2509H52.7511C52.0519 37.2534 51.3754 37.0012 50.8467 36.541C50.318 36.0807 49.9728 35.4435 49.8749 34.7471C49.7771 34.0507 49.9331 33.3422 50.3143 32.7526C50.6954 32.163 51.2759 31.732 51.9484 31.5395V31.2058C51.9484 30.9354 52.0552 30.676 52.2453 30.4848C52.4354 30.2935 52.6933 30.1861 52.9622 30.1861C53.2311 30.1861 53.4889 30.2935 53.679 30.4848C53.8692 30.676 53.976 30.9354 53.976 31.2058V31.4947C54.666 31.6524 55.2754 32.0572 55.6905 32.6337C55.7722 32.7419 55.8316 32.8655 55.8651 32.9972C55.8986 33.1289 55.9056 33.266 55.8857 33.4004C55.8658 33.5348 55.8194 33.6639 55.7492 33.78C55.679 33.8962 55.5864 33.997 55.4769 34.0766C55.3674 34.1563 55.2432 34.2131 55.1115 34.2437C54.9799 34.2743 54.8435 34.2782 54.7104 34.2551C54.5772 34.2319 54.45 34.1822 54.3362 34.1089C54.2224 34.0356 54.1244 33.9402 54.0478 33.8282C53.9675 33.7158 53.8619 33.6241 53.7396 33.5606C53.6173 33.4971 53.4818 33.4636 53.3441 33.4628H52.7518C52.5218 33.4628 52.3012 33.5547 52.1385 33.7183C51.9759 33.8819 51.8845 34.1038 51.8845 34.3352C51.8845 34.5666 51.9759 34.7885 52.1385 34.9521C52.3012 35.1158 52.5218 35.2077 52.7518 35.2077H53.1725C53.553 35.2079 53.9297 35.2834 54.2811 35.4301C54.6325 35.5767 54.9518 35.7915 55.2207 36.0622C55.4896 36.333 55.7028 36.6543 55.8482 37.008C55.9936 37.3616 56.0684 37.7406 56.0682 38.1233ZM39.6743 45.6229L39.0044 45.3383C40.2766 47.3107 41.9477 48.9913 43.9087 50.2707C45.8697 51.55 48.0766 52.3995 50.3858 52.7636C52.6949 53.1277 55.0544 52.9984 57.3106 52.384C59.5667 51.7696 61.6688 50.684 63.48 49.1979C63.6888 49.0321 63.9539 48.9555 64.2183 48.9846C64.4827 49.0137 64.7251 49.1461 64.8933 49.3533C65.0616 49.5605 65.1421 49.8259 65.1176 50.0923C65.0931 50.3587 64.9655 50.6047 64.7623 50.7774C62.6996 52.4695 60.301 53.6983 57.7274 54.3815C55.1538 55.0646 52.4648 55.1863 49.8406 54.7382C47.2164 54.2902 44.7179 53.2829 42.5125 51.7839C40.3071 50.2849 38.4458 48.3288 37.0537 46.0468L36.7851 47.0312C36.7264 47.2464 36.599 47.4363 36.4226 47.5717C36.2462 47.7071 36.0306 47.7806 35.8087 47.7809C35.7177 47.781 35.6271 47.7686 35.5394 47.744C35.4111 47.7086 35.2909 47.6481 35.1858 47.5659C35.0808 47.4838 34.9928 47.3816 34.927 47.2652C34.8612 47.1488 34.8188 47.0206 34.8023 46.8877C34.7858 46.7549 34.7955 46.6201 34.8308 46.491L35.7821 43.0048C35.8204 42.8647 35.888 42.7345 35.9804 42.6228C36.0727 42.5111 36.1877 42.4206 36.3177 42.3572C36.4477 42.2938 36.5896 42.2591 36.734 42.2553C36.8783 42.2515 37.0218 42.2788 37.1549 42.3353L40.4648 43.7451C40.7058 43.8548 40.8945 44.055 40.9908 44.3027C41.0871 44.5505 41.0834 44.8264 40.9803 45.0714C40.8772 45.3164 40.6831 45.5112 40.4392 45.6143C40.1954 45.7173 39.9204 45.7204 39.6743 45.6229ZM34.5357 39.2297C34.3775 38.2374 34.2978 37.234 34.2973 36.2289C34.303 31.3381 36.2034 26.6421 39.5949 23.1377C42.9865 19.6332 47.6022 17.5962 52.4625 17.459L51.7502 16.7368C51.5613 16.5441 51.4562 16.2838 51.4581 16.0132C51.4591 15.8792 51.4862 15.7467 51.5381 15.6233C51.5899 15.4999 51.6654 15.3879 51.7603 15.2938C51.8551 15.1997 51.9675 15.1254 52.0909 15.075C52.2143 15.0245 52.3464 14.9991 52.4796 15C52.7486 15.0019 53.0059 15.1112 53.1948 15.3039L55.7207 17.8765C55.8223 17.9798 55.9007 18.1037 55.9507 18.24C56.0008 18.3762 56.0212 18.5217 56.0108 18.6666C56.0003 18.8115 55.9591 18.9524 55.89 19.08C55.8209 19.2076 55.7255 19.3188 55.6101 19.4062L52.7382 21.5851C52.6322 21.6695 52.5106 21.7318 52.3803 21.7682C52.2501 21.8046 52.114 21.8145 51.9799 21.7972C51.8459 21.7799 51.7166 21.7359 51.5997 21.6676C51.4828 21.5994 51.3807 21.5083 51.2993 21.3997C51.2179 21.2912 51.159 21.1674 51.1258 21.0356C51.0927 20.9038 51.0861 20.7667 51.1065 20.6323C51.1268 20.4979 51.1736 20.3689 51.2443 20.253C51.3148 20.137 51.4078 20.0365 51.5176 19.9572L52.0977 19.5167C49.7644 19.6406 47.4831 20.2571 45.4023 21.3262C43.3214 22.3952 41.4875 23.8928 40.0198 25.7217C38.5522 27.5505 37.4836 29.6696 36.8837 31.9411C36.2837 34.2127 36.1657 36.5858 36.5374 38.9062C36.5585 39.0384 36.5535 39.1734 36.5227 39.3036C36.4919 39.4339 36.4359 39.5567 36.3579 39.6652C36.2799 39.7736 36.1814 39.8655 36.0681 39.9357C35.9548 40.0058 35.8288 40.0529 35.6974 40.074C35.6438 40.0832 35.5895 40.0878 35.5351 40.0877C35.2948 40.0875 35.0624 40.0014 34.8793 39.8448C34.6963 39.6881 34.5745 39.4712 34.5357 39.2326V39.2297ZM58.2868 19.2668C58.3827 19.0142 58.5742 18.8101 58.8195 18.6993C59.0647 18.5886 59.3436 18.5802 59.595 18.676C62.0824 19.6281 64.3389 21.104 66.2132 23.0047C68.0875 24.9055 69.5363 27.1872 70.4626 29.697C71.389 32.2068 71.7713 34.8867 71.5842 37.5573C71.3971 40.2278 70.6447 42.8273 69.3776 45.1816L70.3526 44.9252C70.6127 44.8567 70.8892 44.895 71.1213 45.0316C71.3534 45.1682 71.522 45.3919 71.5901 45.6536C71.6581 45.9152 71.6201 46.1933 71.4843 46.4268C71.3485 46.6602 71.1261 46.8298 70.866 46.8983L67.3852 47.8112C67.3014 47.8329 67.2153 47.8441 67.1288 47.8444C66.8817 47.8439 66.6433 47.7527 66.4583 47.5879C66.2732 47.4232 66.1542 47.1962 66.1236 46.9496L65.6828 43.3616C65.6602 43.2259 65.6651 43.087 65.6973 42.9533C65.7294 42.8195 65.7882 42.6937 65.8699 42.5834C65.9517 42.4731 66.0548 42.3806 66.1731 42.3114C66.2913 42.2423 66.4222 42.1979 66.558 42.181C66.6937 42.1641 66.8315 42.1749 66.9629 42.213C67.0944 42.251 67.2168 42.3154 67.3229 42.4023C67.4289 42.4892 67.5164 42.5968 67.5801 42.7186C67.6437 42.8403 67.6822 42.9738 67.6932 43.111L67.7829 43.8447C68.9835 41.4898 69.6072 38.8805 69.6023 36.234C69.5911 32.8413 68.5607 29.5312 66.6462 26.738C64.7316 23.9448 62.0225 21.7989 58.8741 20.5819C58.6229 20.4858 58.4199 20.2933 58.3098 20.0467C58.1996 19.8 58.1914 19.5195 58.2868 19.2668Z" fill="white"/>
</svg>
