<svg width="96" height="96" viewBox="0 0 96 96" fill="none" xmlns="http://www.w3.org/2000/svg">
<circle cx="48" cy="48" r="48" fill="#0A0B0F"/>
<path d="M43.3438 21.7392C43.257 21.6379 43.1909 21.5206 43.1495 21.3938C43.108 21.267 43.092 21.1333 43.1022 21.0003C43.1124 20.8673 43.1487 20.7376 43.2091 20.6187C43.2694 20.4997 43.3526 20.3938 43.4539 20.307L45.0522 18.9368C45.7423 18.3707 46.6074 18.0613 47.5 18.0613C48.3926 18.0613 49.2577 18.3707 49.9478 18.9368L51.5466 20.307C51.7502 20.4826 51.8759 20.7317 51.8961 20.9998C51.9163 21.2679 51.8294 21.5331 51.6544 21.7372C51.4794 21.9413 51.2307 22.0677 50.9626 22.0888C50.6946 22.1098 50.4292 22.0237 50.2245 21.8493L48.6257 20.4791C48.3085 20.2184 47.9106 20.0759 47.5 20.0759C47.0894 20.0759 46.6915 20.2184 46.3743 20.4791L44.776 21.8493C44.5712 22.0241 44.3056 22.1107 44.0371 22.0901C43.7687 22.0695 43.5194 21.9433 43.3438 21.7392ZM77.9688 45.2905V73.8907C77.9672 75.237 77.4316 76.5277 76.4797 77.4797C75.5277 78.4317 74.2369 78.9672 72.8906 78.9688H22.1094C20.7631 78.9672 19.4723 78.4317 18.5203 77.4797C17.5684 76.5277 17.0328 75.237 17.0313 73.8907V45.2905C17.0308 44.5579 17.1891 43.8338 17.4953 43.1682C17.8014 42.5026 18.2481 41.9113 18.8046 41.4348L20.4327 40.0393C20.6373 39.8647 20.9028 39.7784 21.171 39.7993C21.4392 39.8202 21.6881 39.9466 21.8632 40.1508C22.0383 40.3551 22.1252 40.6204 22.1049 40.8886C22.0845 41.1569 21.9586 41.4061 21.7548 41.5816L20.1268 42.9771C19.9559 43.1239 19.8019 43.2893 19.6676 43.4702L46.3743 66.3647C46.6915 66.6254 47.0894 66.7679 47.5 66.7679C47.9106 66.7679 48.3085 66.6254 48.6257 66.3647L75.3324 43.4702C75.1981 43.2893 75.0441 43.1239 74.8733 42.9771L73.2452 41.5816C73.0416 41.406 72.916 41.1569 72.8958 40.8888C72.8756 40.6207 72.9625 40.3555 73.1375 40.1514C73.3124 39.9473 73.5612 39.8209 73.8292 39.7999C74.0973 39.7788 74.3627 39.865 74.5673 40.0393L76.1954 41.4348C76.7519 41.9113 77.1986 42.5026 77.5047 43.1682C77.8109 43.8338 77.9692 44.5579 77.9688 45.2905ZM75.9375 73.8907V45.6272L58.3666 60.6899L75.5226 75.3978C75.7912 74.9407 75.9343 74.4208 75.9375 73.8907ZM36.6334 60.6899L19.0625 45.6272V73.8907C19.0657 74.4208 19.2088 74.9407 19.4774 75.3977L36.6334 60.6899ZM72.8906 76.9375C73.2564 76.935 73.6187 76.8659 73.9598 76.7337L56.806 62.0277L49.9478 67.907C49.2661 68.4913 48.3979 68.8125 47.5 68.8125C46.6021 68.8125 45.7339 68.4913 45.0522 67.907L38.194 62.0277L21.0402 76.7337C21.3813 76.8659 21.7436 76.935 22.1094 76.9375H72.8906ZM25.1563 45.1779C25.4256 45.1779 25.6839 45.0709 25.8744 44.8804C26.0649 44.69 26.1719 44.4317 26.1719 44.1623V29.2031C26.1728 28.3953 26.4941 27.6209 27.0653 27.0497C27.6365 26.4784 28.4109 26.1572 29.2188 26.1563H65.7812C66.5891 26.1572 67.3635 26.4784 67.9347 27.0497C68.506 27.6209 68.8272 28.3953 68.8281 29.2031V44.1623C68.8281 44.4317 68.9351 44.69 69.1256 44.8804C69.3161 45.0709 69.5744 45.1779 69.8438 45.1779C70.1131 45.1779 70.3714 45.0709 70.5619 44.8804C70.7524 44.69 70.8594 44.4317 70.8594 44.1623V29.2031C70.8578 27.8568 70.3223 26.5661 69.3703 25.6141C68.4183 24.6621 67.1276 24.1266 65.7812 24.125H29.2188C27.8724 24.1266 26.5817 24.6621 25.6297 25.6141C24.6777 26.5661 24.1422 27.8568 24.1406 29.2031V44.1623C24.1406 44.4317 24.2476 44.69 24.4381 44.8804C24.6286 45.0709 24.8869 45.1779 25.1563 45.1779ZM36.3281 51.5469V46.1133C34.973 45.6349 33.8307 44.6926 33.1033 43.4532C32.3759 42.2137 32.1103 40.757 32.3535 39.3406C32.5967 37.9242 33.3329 36.6394 34.432 35.7136C35.5311 34.7877 36.9223 34.2803 38.3594 34.2813H41.4062C47.8704 34.2813 50.6386 30.7703 50.7532 30.6205C50.8821 30.4518 51.0606 30.3277 51.2637 30.2656C51.4668 30.2034 51.6842 30.2065 51.8854 30.2742C52.0867 30.3419 52.2617 30.4709 52.3859 30.6431C52.5101 30.8153 52.5774 31.0221 52.5781 31.2344V37.3281H53.5938C54.4018 37.3281 55.1768 37.6492 55.7482 38.2206C56.3196 38.792 56.6406 39.5669 56.6406 40.375C56.6406 41.1831 56.3196 41.9581 55.7482 42.5295C55.1768 43.1009 54.4018 43.4219 53.5938 43.4219H52.5781V49.5156C52.5781 49.7288 52.5111 49.9365 52.3865 50.1095C52.2619 50.2824 52.086 50.4117 51.8838 50.4791C51.6816 50.5465 51.4633 50.5486 51.2599 50.4851C51.0564 50.4216 50.8781 50.2956 50.7502 50.1251C50.6447 49.9877 48.1583 46.8445 42.4219 46.5031V51.5469C42.4219 52.355 42.1009 53.13 41.5295 53.7014C40.9581 54.2728 40.1831 54.5938 39.375 54.5938C38.5669 54.5938 37.7919 54.2728 37.2205 53.7014C36.6491 53.13 36.3281 52.355 36.3281 51.5469ZM52.5781 39.3594V41.3906H53.5938C53.8631 41.3906 54.1214 41.2836 54.3119 41.0932C54.5024 40.9027 54.6094 40.6444 54.6094 40.375C54.6094 40.1057 54.5024 39.8473 54.3119 39.6569C54.1214 39.4664 53.8631 39.3594 53.5938 39.3594H52.5781ZM40.3906 51.5469V46.4688H38.3594V51.5469C38.3594 51.8163 38.4664 52.0746 38.6568 52.2651C38.8473 52.4555 39.1056 52.5625 39.375 52.5625C39.6444 52.5625 39.9027 52.4555 40.0932 52.2651C40.2836 52.0746 40.3906 51.8163 40.3906 51.5469ZM42.4219 36.2701V44.4799C45.338 44.5698 48.1634 45.5147 50.5469 47.1973V33.5528C48.1634 35.2353 45.338 36.1803 42.4219 36.2701ZM38.3594 44.4375H40.3906V36.3125H38.3594C37.2819 36.3125 36.2486 36.7405 35.4868 37.5024C34.7249 38.2643 34.2969 39.2976 34.2969 40.375C34.2969 41.4525 34.7249 42.4858 35.4868 43.2476C36.2486 44.0095 37.2819 44.4375 38.3594 44.4375ZM61.7188 39.3594H59.6875C59.4181 39.3594 59.1598 39.4664 58.9693 39.6569C58.7789 39.8473 58.6719 40.1057 58.6719 40.375C58.6719 40.6444 58.7789 40.9027 58.9693 41.0932C59.1598 41.2836 59.4181 41.3906 59.6875 41.3906H61.7188C61.9881 41.3906 62.2464 41.2836 62.4369 41.0932C62.6274 40.9027 62.7344 40.6444 62.7344 40.375C62.7344 40.1057 62.6274 39.8473 62.4369 39.6569C62.2464 39.4664 61.9881 39.3594 61.7188 39.3594ZM60.1418 43.529C60.0224 43.469 59.8924 43.4331 59.7592 43.4234C59.6259 43.4137 59.4921 43.4303 59.3653 43.4724C59.2385 43.5145 59.1213 43.5812 59.0203 43.6687C58.9193 43.7562 58.8366 43.8627 58.7768 43.9822C58.7171 44.1017 58.6815 44.2318 58.6721 44.365C58.6627 44.4983 58.6797 44.6321 58.7221 44.7588C58.7645 44.8855 58.8315 45.0026 58.9192 45.1033C59.0069 45.2041 59.1136 45.2866 59.2332 45.346L61.2645 46.3617C61.5054 46.4814 61.7839 46.5007 62.0389 46.4153C62.294 46.33 62.5048 46.1469 62.6251 45.9063C62.7454 45.6658 62.7654 45.3873 62.6806 45.132C62.5958 44.8767 62.4133 44.6655 62.173 44.5446L60.1418 43.529ZM59.6885 37.3281C59.8459 37.3282 60.0011 37.2915 60.1418 37.221L62.173 36.2054C62.4133 36.0845 62.5959 35.8733 62.6806 35.618C62.7654 35.3628 62.7454 35.0843 62.6251 34.8437C62.5048 34.6031 62.294 34.4201 62.039 34.3347C61.7839 34.2494 61.5054 34.2687 61.2645 34.3884L59.2333 35.404C59.0285 35.5063 58.8643 35.6749 58.7673 35.8822C58.6703 36.0896 58.6462 36.3236 58.6989 36.5464C58.7516 36.7691 58.878 36.9676 59.0577 37.1095C59.2373 37.2514 59.4596 37.3284 59.6885 37.3281Z" fill="white"/>
</svg>
