<svg width="96" height="96" viewBox="0 0 96 96" fill="none" xmlns="http://www.w3.org/2000/svg">
<circle cx="48" cy="48" r="48" fill="#0A0B0F"/>
<path d="M72.9012 23.3521H68.1608L68.5812 22.4054C68.7517 22.0215 68.6683 21.5722 68.3711 21.2752L66.4197 19.3236C66.1227 19.0267 65.6734 18.9434 65.2894 19.1137L64.1059 19.6394C63.5176 19.321 62.9 19.0649 62.2603 18.8741L61.7953 17.6665C61.6444 17.2742 61.2676 17.0156 60.8475 17.0156H58.0879C57.6677 17.0156 57.2911 17.2744 57.1401 17.6664L56.6753 18.874C56.0354 19.0648 55.4179 19.321 54.8297 19.6392L53.6462 19.1135C53.2623 18.9428 52.813 19.0264 52.5158 19.3235L50.5644 21.2749C50.2674 21.5721 50.1838 22.0214 50.3543 22.4053L50.7748 23.352H47.6189V21.2687C47.6189 19.4638 46.1505 17.9956 44.3458 17.9956H43.4428C41.638 17.9956 40.1696 19.4638 40.1696 21.2687V23.3521H22.0989C18.9941 23.3521 16.4683 25.878 16.4683 28.983V60.7323C16.4683 63.8371 18.9941 66.3631 22.0989 66.3631H37.0508V71.6641H31.0417C28.3116 71.6641 26.0904 73.5303 26.0904 75.8244V78.9688C26.0904 79.5296 26.5452 79.9844 27.106 79.9844H67.8943C68.4552 79.9844 68.9099 79.5296 68.9099 78.9688V75.8241C68.9099 73.5302 66.6888 71.6639 63.9586 71.6639H57.9494V66.3628H72.9013C76.0061 66.3628 78.5321 63.837 78.5321 60.7321V28.983C78.532 25.8781 76.006 23.3521 72.9012 23.3521ZM51.9491 26.4321C52.1384 25.6364 52.4524 24.8792 52.8824 24.1811C53.0581 23.896 53.0818 23.5424 52.9458 23.2363L52.4937 22.2183L53.459 21.2531L54.4773 21.7053C54.7835 21.8412 55.1368 21.8176 55.4219 21.6419C56.1202 21.2119 56.8774 20.8981 57.6725 20.7087C57.9983 20.6312 58.265 20.3982 58.3853 20.0856L58.7853 19.0469H60.1503L60.5502 20.0857C60.6705 20.3983 60.9371 20.6314 61.2629 20.7088C62.0579 20.8981 62.8152 21.2121 63.5135 21.6421C63.7987 21.8178 64.1521 21.8415 64.4582 21.7054L65.4766 21.2532L66.4418 22.2184L65.9896 23.2367C65.8537 23.5428 65.8774 23.8962 66.0531 24.1814C66.4831 24.8796 66.7971 25.6369 66.9863 26.4321C67.0639 26.7578 67.297 27.0245 67.6096 27.1447L68.6482 27.5445V28.9095L67.6098 29.3091C67.2972 29.4294 67.0642 29.6961 66.9866 30.0217C66.7972 30.8176 66.4832 31.575 66.0532 32.273C65.8777 32.5582 65.8539 32.9117 65.9899 33.2178L66.442 34.2357L65.4767 35.2009L64.4583 34.7487C64.1522 34.6127 63.7987 34.6365 63.5137 34.812C62.8153 35.242 62.0581 35.556 61.263 35.7453C60.9373 35.8227 60.6705 36.0558 60.5503 36.3684L60.1505 37.4072H58.7855L58.3859 36.3687C58.2657 36.0562 57.9989 35.8231 57.6732 35.7457C56.8776 35.5564 56.1202 35.2423 55.4221 34.8123C55.1368 34.6365 54.7834 34.6132 54.4771 34.7488L53.4594 35.201L52.4941 34.2358L52.9465 33.2174C53.0824 32.9113 53.0587 32.5579 52.883 32.2727C52.453 31.5745 52.1392 30.8172 51.9499 30.0221C51.8723 29.6963 51.6392 29.4296 51.3267 29.3094L50.2879 28.9096V27.5446L51.3263 27.145C51.6385 27.0246 51.8717 26.7579 51.9491 26.4321ZM40.3057 44.7125L43.0147 49.4045C43.1961 49.7189 43.5314 49.9124 43.8942 49.9124C44.257 49.9124 44.5923 49.7189 44.7737 49.4045L47.4827 44.7125C47.5718 44.5581 47.6187 44.3829 47.6187 44.2047V29.2427H48.2563V29.607C48.2563 30.0272 48.515 30.4038 48.9071 30.5548L50.1146 31.0196C50.3053 31.6594 50.5615 32.277 50.8798 32.8652L50.3542 34.0487C50.1837 34.4326 50.2671 34.8819 50.5643 35.1789L52.5157 37.1305C52.8128 37.4277 53.2623 37.5109 53.6461 37.3404L54.8289 36.815C55.4172 37.1334 56.0351 37.3896 56.6753 37.5804L57.14 38.7876C57.2908 39.1796 57.6676 39.4383 58.0878 39.4383H60.8474C61.2676 39.4383 61.6443 39.1796 61.7952 38.7876L62.26 37.58C62.8998 37.3892 63.5175 37.133 64.1058 36.8147L65.2892 37.3404C65.6731 37.5112 66.1226 37.4275 66.4196 37.1305L68.371 35.1791C68.6681 34.8819 68.7516 34.4326 68.581 34.0487L68.0557 32.8658C68.3741 32.2775 68.6303 31.6597 68.8211 31.0194L70.0281 30.5548C70.4203 30.404 70.6789 30.0272 70.6789 29.607V29.2427H72.6412V56.5577H22.3586V29.2427H40.1696V44.2047C40.1696 44.3829 40.2165 44.5581 40.3057 44.7125ZM42.9443 45.2203H44.8441L43.8942 46.8655L42.9443 45.2203ZM50.131 25.3834C50.1258 25.4006 50.1195 25.4174 50.1143 25.4346L48.9072 25.8993C48.515 26.0501 48.2564 26.4269 48.2564 26.8471V27.2114H47.6189V25.3834H50.131ZM43.4428 20.0268H44.3458C45.0306 20.0268 45.5876 20.584 45.5876 21.2687V43.189H42.2009V28.2274C42.2009 28.2272 42.2009 28.2271 42.2009 28.227C42.2009 28.2269 42.2009 28.2267 42.2009 28.2266V21.2687C42.2009 20.5839 42.758 20.0268 43.4428 20.0268ZM66.8786 75.8241V77.9531H28.1215V75.8241C28.1215 74.6701 29.4587 73.6951 31.0416 73.6951H63.9585C65.5414 73.6952 66.8786 74.6702 66.8786 75.8241ZM55.9181 71.664H39.0819V66.3629H55.9181V71.664ZM76.5007 60.7323C76.5007 62.7171 74.886 64.3318 72.9012 64.3318H22.0989C20.1142 64.3318 18.4995 62.7171 18.4995 60.7323V28.983C18.4995 26.9982 20.1142 25.3834 22.0989 25.3834H40.1698V27.2114H21.9831C21.0702 27.2114 20.3274 27.9542 20.3274 28.867V57.5733C20.3274 58.1342 20.7821 58.589 21.343 58.589H73.657C74.2178 58.589 74.6726 58.1342 74.6726 57.5733V28.8671C74.6726 27.9543 73.9298 27.2115 73.0169 27.2115H70.6791V26.8474C70.6791 26.4272 70.4204 26.0505 70.0284 25.8996L68.8209 25.4348C68.8157 25.4175 68.8094 25.4006 68.8042 25.3835H72.9011C74.8859 25.3835 76.5006 26.9983 76.5006 28.9831V60.7323H76.5007ZM59.4678 34.0555C62.6816 34.0555 65.2962 31.4408 65.2962 28.2271C65.2962 25.0134 62.6816 22.3987 59.4678 22.3987C56.254 22.3987 53.6392 25.0134 53.6392 28.2271C53.6392 31.4408 56.254 34.0555 59.4678 34.0555ZM59.4678 24.4298C61.5616 24.4298 63.265 26.1333 63.265 28.227C63.265 30.3207 61.5616 32.0242 59.4678 32.0242C57.374 32.0242 55.6705 30.3207 55.6705 28.227C55.6705 26.1333 57.374 24.4298 59.4678 24.4298ZM57.7985 52.9808L60.414 43.2199C60.5592 42.6781 61.1165 42.3567 61.6579 42.5017C62.1997 42.647 62.5213 43.2038 62.376 43.7456L59.7605 53.5065C59.6389 53.9603 59.2286 54.2596 58.7801 54.2596C58.693 54.2596 58.6046 54.2483 58.5167 54.2248C57.9748 54.0795 57.6534 53.5225 57.7985 52.9808ZM50.9421 48.3633C50.9421 48.0639 51.0743 47.7795 51.3033 47.5867L55.5649 43.9954C55.9937 43.6339 56.6345 43.6885 56.996 44.1176C57.3575 44.5466 57.3027 45.1873 56.8739 45.5486L53.5339 48.3633L56.8739 51.1778C57.3027 51.5393 57.3576 52.18 56.996 52.6088C56.7951 52.8473 56.508 52.97 56.2188 52.97C55.9878 52.97 55.7554 52.8916 55.5649 52.731L51.3033 49.1398C51.0743 48.947 50.9421 48.6628 50.9421 48.3633ZM63.3005 51.1778L66.6405 48.3633L63.3005 45.5486C62.8717 45.1872 62.8168 44.5464 63.1784 44.1176C63.5399 43.6886 64.1807 43.6339 64.6095 43.9954L68.8711 47.5867C69.1001 47.7797 69.2323 48.0639 69.2323 48.3633C69.2323 48.6628 69.1001 48.947 68.8711 49.1398L64.6095 52.731C64.419 52.8916 64.1866 52.97 63.9556 52.97C63.6665 52.97 63.3793 52.8473 63.1784 52.6088C62.8169 52.1799 62.8717 51.5391 63.3005 51.1778ZM25.8062 52.0103H46.951C47.5119 52.0103 47.9666 52.465 47.9666 53.0259C47.9666 53.5868 47.5119 54.0415 46.951 54.0415H25.8062C25.2453 54.0415 24.7905 53.5868 24.7905 53.0259C24.7905 52.465 25.2453 52.0103 25.8062 52.0103ZM24.7183 44.8345C24.7183 44.2736 25.1731 43.8189 25.7339 43.8189H36.7221C37.283 43.8189 37.7377 44.2736 37.7377 44.8345C37.7377 45.3954 37.283 45.8501 36.7221 45.8501H25.7339C25.1729 45.8501 24.7183 45.3954 24.7183 44.8345ZM24.7544 48.9302C24.7544 48.3694 25.2091 47.9146 25.77 47.9146H36.7582C37.319 47.9146 37.7738 48.3694 37.7738 48.9302C37.7738 49.4911 37.319 49.9459 36.7582 49.9459H25.77C25.2091 49.9459 24.7544 49.4911 24.7544 48.9302ZM24.7905 32.5475C24.7905 31.9866 25.2453 31.5318 25.8062 31.5318H36.7943C37.3552 31.5318 37.81 31.9866 37.81 32.5475C37.81 33.1083 37.3552 33.5631 36.7943 33.5631H25.8062C25.2453 33.5631 24.7905 33.1083 24.7905 32.5475ZM24.7544 36.6432C24.7544 36.0823 25.2091 35.6276 25.77 35.6276H36.7582C37.319 35.6276 37.7738 36.0823 37.7738 36.6432C37.7738 37.2041 37.319 37.6588 36.7582 37.6588H25.77C25.2091 37.6588 24.7544 37.2041 24.7544 36.6432ZM24.7183 40.7388C24.7183 40.178 25.1731 39.7232 25.7339 39.7232H36.7221C37.283 39.7232 37.7377 40.178 37.7377 40.7388C37.7377 41.2997 37.283 41.7545 36.7221 41.7545H25.7339C25.1729 41.7545 24.7183 41.2997 24.7183 40.7388Z" fill="white"/>
</svg>
