<svg width="96" height="96" viewBox="0 0 96 96" fill="none" xmlns="http://www.w3.org/2000/svg">
<circle cx="48" cy="48" r="48" fill="#0A0B0F"/>
<path d="M76.7499 33.0949C76.7499 25.4899 70.5099 19.3149 62.9049 19.3149C55.2999 19.3149 49.0599 25.4899 49.0599 33.0949C49.0599 33.4849 49.0599 33.9399 49.1249 34.3299C45.0299 34.4599 41.0649 36.0849 38.2049 39.0099C34.1099 43.1049 32.5499 49.1499 34.1099 54.6749C32.8099 54.2199 31.4449 53.8949 30.0149 53.8949C23.5799 53.8949 18.3149 59.1599 18.3149 65.5949C18.3149 72.0299 23.5799 77.2949 30.0149 77.2949C36.4499 77.2949 41.7149 72.0299 41.7149 65.5949C41.7149 65.1399 41.7149 64.6849 41.6499 64.2949C44.1199 65.6599 46.8499 66.4399 49.6449 66.4399C51.1399 66.4399 52.6349 66.2449 54.1299 65.7899L56.0799 72.2249C56.2099 72.6149 56.5349 72.8749 56.9899 72.9399H57.0549C57.4449 72.9399 57.7699 72.6799 57.9649 72.3549L60.3049 66.8949L63.8799 70.4699C64.2699 70.8599 64.8549 70.8599 65.2449 70.4699L69.7949 65.9849C69.9899 65.7899 70.0549 65.5299 70.0549 65.2699C70.0549 65.0099 69.9249 64.7499 69.7949 64.5549L66.2199 60.9799L71.6799 58.6399C72.0699 58.5099 72.2649 58.1199 72.2649 57.6649C72.2649 57.2749 71.9399 56.8849 71.5499 56.7549L65.0499 54.8049C65.8299 52.1399 65.8949 49.3449 65.2449 46.6799C71.7449 45.6399 76.7499 39.9849 76.7499 33.0949ZM56.9249 45.5749C58.3549 47.7199 58.7449 50.3199 58.0299 52.7899L54.8449 51.8149C55.3649 49.9299 54.8449 47.9149 53.4149 46.5499C51.2699 44.4049 47.7599 44.4049 45.6149 46.5499C44.5749 47.5899 43.9899 48.9549 43.9899 50.4499C43.9899 51.9449 44.5749 53.3099 45.6149 54.3499C46.6549 55.3899 48.0849 55.9749 49.5149 55.9749C49.9699 55.9749 50.4249 55.9099 50.9449 55.7799L51.9199 58.9649C48.8649 59.8099 45.5499 58.9649 43.2749 56.6899C41.5849 54.9999 40.6749 52.7899 40.6749 50.4499C40.6749 48.1099 41.5849 45.8999 43.2749 44.2099C45.6149 41.8699 49.1899 41.0249 52.3099 42.0649C53.6099 43.4949 55.1699 44.7299 56.9249 45.5749ZM51.0099 50.5799C50.6849 50.4499 50.2949 50.5799 50.0349 50.8399C49.7749 51.0999 49.7099 51.4899 49.7749 51.8149L50.3599 53.8299C49.1899 54.0899 47.8899 53.7649 47.0449 52.9199C46.3949 52.2699 46.0049 51.3599 46.0049 50.3849C46.0049 49.4099 46.3949 48.5649 47.0449 47.9149C48.4099 46.5499 50.6849 46.5499 52.0499 47.9149C52.9599 48.8249 53.2849 50.0599 52.9599 51.2299L51.0099 50.5799ZM29.9499 75.3449C24.5549 75.3449 20.1999 70.9899 20.1999 65.5949C20.1999 60.1999 24.5549 55.8449 29.9499 55.8449C35.3449 55.8449 39.6999 60.1999 39.6999 65.5949C39.6999 70.9899 35.3449 75.3449 29.9499 75.3449ZM40.9349 61.4999C40.0899 59.2899 38.5949 57.3399 36.6449 55.9749C34.3699 50.7099 35.4749 44.4699 39.5699 40.3749C42.1699 37.7749 45.7449 36.2799 49.4499 36.2799C49.7099 37.4499 50.1649 38.6199 50.7499 39.6599C47.5649 39.3349 44.2499 40.4399 41.9099 42.7149C39.8949 44.7299 38.7249 47.4599 38.7249 50.3199C38.7249 53.1799 39.8299 55.9099 41.9099 57.9249C43.9899 60.0049 46.7199 61.1099 49.5149 61.1099C50.4899 61.1099 51.4649 60.9799 52.4399 60.7199L53.4149 63.9049C49.1899 65.1399 44.4449 64.2949 40.9349 61.4999ZM64.0099 59.8099C63.6849 59.9399 63.4899 60.1999 63.4249 60.5249C63.3599 60.8499 63.4899 61.1749 63.6849 61.3699L67.5849 65.2699L64.4649 68.3899L60.5649 64.4899C60.3049 64.2299 59.9799 64.1649 59.7199 64.2299C59.3949 64.2949 59.1349 64.4899 59.0049 64.8149L57.1199 69.1049L55.6249 64.2299L52.1799 52.9849L53.3499 53.3099L63.4249 56.3649L68.2999 57.8599L64.0099 59.8099ZM63.0999 54.2849L59.9149 53.3099C60.5649 51.0349 60.4349 48.6299 59.5899 46.4849C60.6299 46.7449 61.7349 46.8749 62.8399 46.8749H63.1649C63.8799 49.3449 63.8149 51.8799 63.0999 54.2849ZM62.9049 44.9899C56.3399 44.9899 51.0099 39.6599 51.0099 33.1599C51.0099 26.5949 56.3399 21.3299 62.9049 21.3299C69.4699 21.2649 74.7999 26.5949 74.7999 33.0949C74.7999 39.6599 69.4699 44.9899 62.9049 44.9899Z" fill="white"/>
<path d="M63.165 32.1198H62.645C61.8 32.1198 61.085 31.4048 61.085 30.5598C61.085 30.1698 61.28 29.7798 61.54 29.4548C61.865 29.1298 62.255 28.9998 62.645 28.9998H62.97H65.635C66.155 28.9998 66.61 28.5448 66.61 28.0248C66.61 27.5048 66.155 27.0498 65.57 27.0498H63.945V25.5548C63.945 25.0348 63.49 24.5798 62.97 24.5798C62.45 24.5798 61.995 25.0348 61.995 25.5548V27.1148C61.28 27.2448 60.695 27.5698 60.175 28.0898C59.525 28.7398 59.135 29.6498 59.135 30.5598C59.135 32.5098 60.695 34.0698 62.645 34.0698H63.165C64.01 34.0698 64.725 34.7848 64.725 35.6298C64.725 36.4748 64.01 37.1898 63.165 37.1898H60.11C59.59 37.1898 59.135 37.6448 59.135 38.1648C59.135 38.6848 59.59 39.1398 60.11 39.1398H61.995V40.6998C61.995 41.2198 62.45 41.6748 62.97 41.6748C63.49 41.6748 63.945 41.2198 63.945 40.6998V39.1398C65.505 38.8148 66.675 37.3848 66.675 35.6948C66.675 33.7448 65.115 32.1198 63.165 32.1198Z" fill="white"/>
<path d="M38.9198 32.1849C42.1698 32.1849 44.7698 29.5849 44.7698 26.3349C44.7698 23.0849 42.1698 20.4849 38.9198 20.4849C35.6698 20.4849 33.0698 23.0849 33.0698 26.3349C33.0698 29.5849 35.6698 32.1849 38.9198 32.1849ZM38.9198 22.4349C41.0648 22.4349 42.8198 24.1899 42.8198 26.3349C42.8198 28.4799 41.0648 30.2349 38.9198 30.2349C36.7748 30.2349 35.0198 28.4799 35.0198 26.3349C35.0198 24.1899 36.7098 22.4349 38.9198 22.4349Z" fill="white"/>
<path d="M25.335 46.355C27.74 46.355 29.69 44.405 29.69 42C29.69 39.595 27.74 37.645 25.335 37.645C22.93 37.645 20.98 39.595 20.98 42C21.045 44.405 22.93 46.355 25.335 46.355ZM25.335 39.595C26.635 39.595 27.74 40.635 27.74 42C27.74 43.3 26.7 44.405 25.335 44.405C23.97 44.405 22.995 43.3 22.995 42C22.995 40.7 24.035 39.595 25.335 39.595Z" fill="white"/>
<path d="M30.21 64.62H29.755C29.105 64.62 28.585 64.1 28.585 63.45C28.585 62.8 29.105 62.28 29.755 62.28H30.015H32.225C32.745 62.28 33.2 61.825 33.2 61.305C33.2 60.785 32.745 60.33 32.225 60.33H30.99V59.225C30.99 58.705 30.535 58.25 30.015 58.25C29.495 58.25 29.04 58.705 29.04 59.225V60.395C27.675 60.72 26.635 61.955 26.635 63.385C26.635 65.075 28 66.505 29.755 66.505H30.21C30.86 66.505 31.38 67.025 31.38 67.675C31.38 68.325 30.86 68.845 30.21 68.845H27.675C27.155 68.845 26.7 69.3 26.7 69.82C26.7 70.34 27.155 70.795 27.675 70.795H29.105V71.9C29.105 72.42 29.56 72.875 30.08 72.875C30.6 72.875 31.055 72.42 31.055 71.9V70.73C32.355 70.34 33.33 69.17 33.33 67.74C33.265 66.05 31.9 64.62 30.21 64.62Z" fill="white"/>
<path d="M48.1499 69.5601C45.8749 69.5601 44.0549 71.3801 44.0549 73.6551C44.0549 75.9301 45.8749 77.7501 48.1499 77.7501C50.4249 77.7501 52.2449 75.9301 52.2449 73.6551C52.2449 71.3801 50.3599 69.5601 48.1499 69.5601ZM48.1499 75.7351C46.9799 75.7351 46.0049 74.7601 46.0049 73.5901C46.0049 72.4201 46.9799 71.4451 48.1499 71.4451C49.3199 71.4451 50.2949 72.4201 50.2949 73.5901C50.2949 74.7601 49.3199 75.7351 48.1499 75.7351Z" fill="white"/>
</svg>
