<svg width="169" height="76" viewBox="0 0 169 76" fill="none" xmlns="http://www.w3.org/2000/svg">
<g clip-path="url(#clip0_128_1594)">
<path d="M39.6936 39.0923V49.6183H46.1776C47.7206 49.6183 48.998 49.0993 50.009 48.0612C51.0469 47.0232 51.5667 45.7875 51.5667 44.3561C51.5667 42.9522 51.0469 41.7322 50.009 40.6919C48.998 39.626 47.7206 39.0923 46.1776 39.0923H39.6936ZM39.6936 53.325V65.5352H35.8203V35.3878H46.0931C48.7037 35.3878 50.9214 36.2586 52.7459 37.9984C54.5987 39.7382 55.5244 41.8578 55.5244 44.3561C55.5244 46.9108 54.5987 49.0426 52.7459 50.7546C50.9494 52.4691 48.7314 53.325 46.0931 53.325H39.6936Z" fill="white"/>
<path d="M60.8727 59.2173C60.8727 60.2282 61.2994 61.0711 62.1563 61.745C63.0123 62.419 64.0155 62.7559 65.1673 62.7559C66.7949 62.7559 68.2475 62.1517 69.524 60.9448C70.8016 59.7386 71.4405 58.321 71.4405 56.6919C70.2328 55.7375 68.5495 55.2612 66.3883 55.2612C64.8157 55.2612 63.5035 55.6384 62.4506 56.3976C61.3986 57.1552 60.8727 58.0964 60.8727 59.2173ZM65.8824 44.23C68.7455 44.23 71.0052 44.9945 72.6613 46.5229C74.3176 48.0545 75.1458 50.1522 75.1458 52.8186V65.5346H71.4405V62.6707H71.2726C69.6712 65.0296 67.5385 66.207 64.8722 66.207C62.5986 66.207 60.6962 65.5346 59.1676 64.1867C57.6362 62.8388 56.8723 61.154 56.8723 59.1344C56.8723 57.0018 57.6789 55.3014 59.2931 54.0388C60.9076 52.7761 63.0618 52.1447 65.7569 52.1447C68.0577 52.1447 69.9524 52.5653 71.4405 53.4073V52.5227C71.4405 51.1763 70.9077 50.0323 69.8409 49.0925C68.7742 48.1513 67.5247 47.6811 66.0922 47.6811C63.9318 47.6811 62.219 48.5929 60.9571 50.4172L57.5464 48.2714C59.4256 45.5756 62.2051 44.23 65.8824 44.23Z" fill="white"/>
<path d="M103.693 65.8711C102.008 65.8711 100.612 65.3521 99.5041 64.314C98.394 63.276 97.8246 61.8289 97.7975 59.9775V48.4412H94.1761V44.9028H97.7975V38.5877H101.671V44.9028H106.723V48.4412H101.671V58.7148C101.671 60.0898 101.938 61.0233 102.471 61.5136C103.005 62.0056 103.607 62.2511 104.281 62.2511C104.591 62.2511 104.893 62.2163 105.188 62.145C105.482 62.0753 105.755 61.9839 106.009 61.8715L107.229 65.325C106.218 65.689 105.041 65.8711 103.693 65.8711ZM79.5242 44.9028H83.23V48.2725H83.3974C84.5494 45.6331 86.9214 44.314 90.5142 44.314L91.3136 44.3977V48.4412L89.5885 48.2725C87.7912 48.2725 86.3102 48.8264 85.1459 49.9363C83.9808 51.0441 83.3974 52.4541 83.3974 54.1659V65.5357H79.5242V44.9028Z" fill="white"/>
<path d="M110.639 44.9022H114.344V47.7669H114.513C115.101 46.7559 116.008 45.913 117.228 45.2392C118.45 44.5651 119.719 44.2306 121.04 44.2306C123.564 44.2306 125.509 44.9524 126.87 46.3973C128.231 47.8442 128.912 49.8987 128.912 52.5658V65.5352H125.038V52.8191C124.955 49.4494 123.257 47.7669 119.945 47.7669C118.399 47.7669 117.108 48.3904 116.069 49.6391C115.032 50.8887 114.513 52.3838 114.513 54.1244V65.5352H110.639V44.9022Z" fill="white"/>
<path d="M136.533 52.7335H148.366C148.253 51.3027 147.67 50.1173 146.617 49.1762C145.565 48.2365 144.155 47.7663 142.385 47.7663C140.927 47.7663 139.67 48.2155 138.618 49.1119C137.565 50.0128 136.87 51.219 136.533 52.7335ZM142.722 66.207C139.691 66.207 137.193 65.169 135.229 63.0906C133.263 61.0145 132.281 58.3907 132.281 55.2185C132.281 52.0749 133.234 49.4566 135.144 47.365C137.053 45.2757 139.494 44.23 142.47 44.23C145.531 44.23 147.964 45.2176 149.776 47.197C151.586 49.1761 152.491 51.9495 152.491 55.5128L152.45 55.9351H136.238C136.294 57.9546 136.968 59.5837 138.26 60.8193C139.55 62.0549 141.095 62.6707 142.89 62.6707C145.362 62.6707 147.298 61.4367 148.703 58.9655L152.153 60.6504C151.227 62.3895 149.944 63.7514 148.301 64.7329C146.659 65.7167 144.8 66.207 142.722 66.207Z" fill="white"/>
<path d="M159.902 65.5352H156.027V44.9022H159.733V48.272H159.902C160.293 47.1757 161.1 46.2446 162.322 45.4716C163.542 44.6992 164.743 44.3135 165.923 44.3135C167.044 44.3135 167.999 44.4822 168.784 44.8194L167.605 48.5663C167.129 48.3711 166.37 48.272 165.332 48.272C163.872 48.272 162.601 48.8606 161.522 50.0405C160.441 51.2195 159.902 52.5946 159.902 54.1654V65.5352Z" fill="white"/>
<path d="M44.5962 17.7717V20.4009H50.8886C50.6857 22.061 49.997 23.3524 48.8234 24.2765C47.6801 25.1844 46.2709 25.6376 44.5962 25.6376C42.6557 25.6376 41.0188 24.9566 39.6887 23.5947C38.3579 22.2484 37.6923 20.5977 37.6923 18.6409C37.6923 16.6834 38.3579 15.0326 39.6887 13.6855C41.0188 12.3235 42.6557 11.6427 44.5962 11.6427C46.4119 11.6427 47.9931 12.2693 49.3394 13.5211L51.1946 11.6659C49.3317 9.89731 47.1332 9.01264 44.5962 9.01264C42.874 9.01264 41.2465 9.45111 39.7111 10.3273C38.1937 11.1887 36.9952 12.3709 36.1191 13.8737C35.2584 15.3455 34.8269 16.9342 34.8269 18.6409C34.8269 20.3623 35.2584 21.9587 36.1191 23.4305C36.9798 24.9179 38.1782 26.0915 39.7111 26.953C41.2465 27.8299 42.874 28.2676 44.5962 28.2676C47.195 28.2676 49.3471 27.4541 51.0536 25.8258C52.744 24.2129 53.5898 22.0773 53.5898 19.4155C53.5898 18.7896 53.5426 18.2403 53.449 17.7717H44.5962Z" fill="#4F77C4"/>
<path d="M63.2175 24.7459C62.5436 25.4664 61.7224 25.8258 60.7527 25.8258C59.7657 25.8258 58.9361 25.4664 58.2629 24.7459C57.5896 24.0255 57.2527 23.1339 57.2527 22.0687C57.2527 20.9735 57.5896 20.0803 58.2629 19.3923C58.9361 18.6718 59.7657 18.3117 60.7527 18.3117C61.7379 18.3117 62.5684 18.6718 63.2409 19.3923C63.914 20.0803 64.2509 20.9735 64.2509 22.0687C64.2509 23.1168 63.9063 24.01 63.2175 24.7459ZM60.7527 15.8691C58.9826 15.8691 57.5037 16.4648 56.3139 17.6539C55.124 18.8283 54.5291 20.3002 54.5291 22.0687C54.5291 23.8071 55.1317 25.2774 56.3371 26.4836C57.5269 27.6734 58.9988 28.2676 60.7527 28.2676C62.505 28.2676 63.9767 27.6734 65.1673 26.4836C66.3721 25.2774 66.9747 23.8071 66.9747 22.0687C66.9747 20.3002 66.3721 18.8283 65.1673 17.6539C63.9767 16.4648 62.505 15.8691 60.7527 15.8691Z" fill="#EE282A"/>
<path d="M95.4346 27.8916H98.1576V9.67007H95.4346V27.8916Z" fill="#1DAF47"/>
<path d="M76.7894 24.7459C76.1162 25.4664 75.2943 25.8258 74.3244 25.8258C73.3376 25.8258 72.5079 25.4664 71.8346 24.7459C71.1615 24.0255 70.8262 23.1339 70.8262 22.0687C70.8262 20.9735 71.1615 20.0803 71.8346 19.3923C72.5079 18.6718 73.3376 18.3117 74.3244 18.3117C75.3098 18.3117 76.1402 18.6718 76.8126 19.3923C77.4859 20.0803 77.8228 20.9735 77.8228 22.0687C77.8228 23.1168 77.4782 24.01 76.7894 24.7459ZM74.3244 15.8691C72.5551 15.8691 71.0755 16.4648 69.8864 17.6539C68.6965 18.8283 68.1016 20.3002 68.1016 22.0687C68.1016 23.8071 68.7042 25.2774 69.9096 26.4836C71.0989 27.6734 72.5705 28.2676 74.3244 28.2676C76.0767 28.2676 77.5486 27.6734 78.7392 26.4836C79.9446 25.2774 80.5465 23.8071 80.5465 22.0687C80.5465 20.3002 79.9446 18.8283 78.7392 17.6539C77.5486 16.4648 76.0767 15.8691 74.3244 15.8691Z" fill="#F9AF0B"/>
<path d="M103.113 19.2977C103.801 18.61 104.568 18.2651 105.415 18.2651C105.945 18.2651 106.423 18.3861 106.847 18.6292C107.269 18.8709 107.558 19.1886 107.715 19.5797L102.174 21.8805C102.142 20.8325 102.456 19.971 103.113 19.2977ZM105.625 25.8258C104.264 25.8258 103.26 25.1999 102.62 23.9473L110.909 20.5193L110.628 19.8145C110.407 19.235 110.122 18.7036 109.77 18.2171C109.417 17.7322 109.015 17.3138 108.561 16.9614C108.107 16.609 107.605 16.3385 107.059 16.1511C106.511 15.9629 105.931 15.8691 105.319 15.8691C103.662 15.8691 102.267 16.4563 101.14 17.6307C100.028 18.8206 99.4731 20.3002 99.4731 22.0687C99.4731 23.8226 100.06 25.2945 101.235 26.4836C102.408 27.6734 103.872 28.2676 105.625 28.2676C107.818 28.2676 109.54 27.3528 110.792 25.5206L108.678 24.1115C107.911 25.254 106.894 25.8258 105.625 25.8258Z" fill="#EE282A"/>
<path d="M90.1981 24.7686C89.5552 25.4728 88.7728 25.8252 87.8493 25.8252C86.8787 25.8252 86.0575 25.4658 85.3844 24.7454C84.7266 24.0249 84.3975 23.141 84.3975 22.0913C84.3975 21.027 84.7336 20.1354 85.4077 19.4149C86.0964 18.679 86.9097 18.3111 87.8493 18.3111C88.7883 18.3111 89.5706 18.6713 90.1981 19.3917C90.8396 20.1277 91.1611 21.027 91.1611 22.0913C91.1611 23.141 90.8396 24.0326 90.1981 24.7686ZM90.9727 17.2545H90.8783C90.096 16.3302 89.009 15.8685 87.6147 15.8685C86.0181 15.8685 84.6245 16.4797 83.4354 17.7007C82.261 18.9215 81.6738 20.3865 81.6738 22.0913C81.6738 23.7818 82.261 25.238 83.4354 26.4598C84.6408 27.6651 86.0335 28.267 87.6147 28.267C89.009 28.267 90.096 27.7976 90.8783 26.8578H90.9727V27.4924C90.9727 30.0905 89.8689 31.3904 87.6611 31.3904C86.9577 31.3904 86.3318 31.1865 85.7833 30.78C85.2357 30.3725 84.8205 29.8402 84.5392 29.1834L82.1664 30.1688C82.402 30.7171 82.6995 31.2145 83.0596 31.6599C83.4198 32.1061 83.8382 32.4904 84.3153 32.8119C84.7925 33.1318 85.3139 33.3821 85.8779 33.5633C86.4411 33.7422 87.036 33.832 87.6611 33.832C89.5088 33.832 90.9535 33.272 91.9938 32.1541C93.0357 31.0348 93.5563 29.4422 93.5563 27.3754V16.2443H90.9727V17.2545Z" fill="#4F77C4"/>
<path d="M0 75.4395H19.7592V0.351898H0V75.4395Z" fill="#4F77C4"/>
</g>
<defs>
<clipPath id="clip0_128_1594">
<rect width="168.784" height="75.081" fill="white" transform="translate(0 0.358398)"/>
</clipPath>
</defs>
</svg>
