<svg width="36" height="35" viewBox="0 0 36 35" fill="none" xmlns="http://www.w3.org/2000/svg">
<path d="M35.6758 34.3H21.9725C20.6337 29.1667 19.9643 23.8467 19.9643 18.34C19.9643 12.74 21.185 8.30666 23.6263 5.03999C26.1465 1.68 29.8479 0 34.7307 0V7.84C30.793 7.84 28.8241 10.6867 28.8241 16.38V19.04H35.6758V34.3ZM15.7115 34.3H2.00824C0.669413 29.1667 0 23.8467 0 18.34C0 12.74 1.22069 8.30666 3.66208 5.03999C6.18223 1.68 9.88369 0 14.7665 0V7.84C10.8287 7.84 8.85988 10.6867 8.85988 16.38V19.04H15.7115V34.3Z" fill="#CBD5E1"/>
</svg>
