<svg width="38" height="38" viewBox="0 0 38 38" fill="none" xmlns="http://www.w3.org/2000/svg">
<circle cx="19" cy="19" r="19" fill="#0A0B0F"/>
<g clip-path="url(#clip0_22_1266)">
<path fill-rule="evenodd" clip-rule="evenodd" d="M19.7071 22.7069C19.5196 22.8943 19.2653 22.9996 19.0001 22.9996C18.7349 22.9996 18.4806 22.8943 18.2931 22.7069L12.6361 17.0499C12.5406 16.9576 12.4644 16.8473 12.412 16.7253C12.3596 16.6033 12.332 16.472 12.3308 16.3393C12.3297 16.2065 12.355 16.0748 12.4053 15.9519C12.4556 15.829 12.5298 15.7174 12.6237 15.6235C12.7176 15.5296 12.8292 15.4553 12.9521 15.405C13.075 15.3548 13.2067 15.3295 13.3395 15.3306C13.4723 15.3318 13.6035 15.3593 13.7255 15.4118C13.8475 15.4642 13.9579 15.5403 14.0501 15.6359L19.0001 20.5859L23.9501 15.6359C24.1387 15.4537 24.3913 15.3529 24.6535 15.3552C24.9157 15.3575 25.1665 15.4626 25.3519 15.648C25.5373 15.8334 25.6425 16.0843 25.6448 16.3465C25.6471 16.6087 25.5463 16.8613 25.3641 17.0499L19.7071 22.7069Z" fill="white"/>
</g>
<defs>
<clipPath id="clip0_22_1266">
<rect width="24" height="24" fill="white" transform="translate(7 7)"/>
</clipPath>
</defs>
</svg>
