<svg width="38" height="38" viewBox="0 0 38 38" fill="none" xmlns="http://www.w3.org/2000/svg">
<circle cx="19" cy="19" r="19" transform="matrix(1 0 0 -1 0 38)" fill="#0A0B0F"/>
<g clip-path="url(#clip0_122_1183)">
<path fill-rule="evenodd" clip-rule="evenodd" d="M19.707 15.2931C19.5194 15.1057 19.2651 15.0004 19 15.0004C18.7348 15.0004 18.4805 15.1057 18.293 15.2931L12.636 20.9501C12.5405 21.0424 12.4643 21.1527 12.4119 21.2747C12.3595 21.3967 12.3319 21.528 12.3307 21.6607C12.3296 21.7935 12.3549 21.9252 12.4052 22.0481C12.4554 22.171 12.5297 22.2826 12.6236 22.3765C12.7175 22.4704 12.8291 22.5447 12.952 22.595C13.0749 22.6452 13.2066 22.6705 13.3394 22.6694C13.4722 22.6682 13.6034 22.6407 13.7254 22.5882C13.8474 22.5358 13.9577 22.4597 14.05 22.3641L19 17.4141L23.95 22.3641C24.1386 22.5463 24.3912 22.6471 24.6534 22.6448C24.9156 22.6425 25.1664 22.5374 25.3518 22.352C25.5372 22.1666 25.6424 21.9157 25.6447 21.6535C25.6469 21.3913 25.5461 21.1387 25.364 20.9501L19.707 15.2931Z" fill="white"/>
</g>
<defs>
<clipPath id="clip0_122_1183">
<rect width="24" height="24" fill="white" transform="matrix(1 0 0 -1 7 31)"/>
</clipPath>
</defs>
</svg>
