<svg width="720" height="187" viewBox="0 0 720 187" fill="none" xmlns="http://www.w3.org/2000/svg">
<path d="M11.3333 5.5C11.3333 8.44552 8.9455 10.8333 6 10.8333C3.0545 10.8333 0.666687 8.44552 0.666687 5.5C0.666687 2.55448 3.0545 0.166667 6 0.166667C8.9455 0.166667 11.3333 2.55448 11.3333 5.5ZM6 78.9827V79.9827C5.44769 79.9827 5 79.535 5 78.9827H6ZM714 78.9827V77.9827C714.552 77.9827 715 78.4304 715 78.9827H714ZM719.333 181.5C719.333 184.446 716.946 186.833 714 186.833C711.054 186.833 708.667 184.446 708.667 181.5C708.667 178.554 711.054 176.167 714 176.167C716.946 176.167 719.333 178.554 719.333 181.5ZM713 177.228C713 176.676 713.448 176.228 714 176.228C714.552 176.228 715 176.676 715 177.228H713ZM715 168.685C715 169.238 714.552 169.685 714 169.685C713.448 169.685 713 169.238 713 168.685H715ZM713 160.142C713 159.59 713.448 159.142 714 159.142C714.552 159.142 715 159.59 715 160.142H713ZM715 151.599C715 152.151 714.552 152.599 714 152.599C713.448 152.599 713 152.151 713 151.599H715ZM713 143.056C713 142.504 713.448 142.056 714 142.056C714.552 142.056 715 142.504 715 143.056H713ZM715 134.513C715 135.065 714.552 135.513 714 135.513C713.448 135.513 713 135.065 713 134.513H715ZM713 125.97C713 125.417 713.448 124.97 714 124.97C714.552 124.97 715 125.417 715 125.97H713ZM715 117.427C715 117.979 714.552 118.427 714 118.427C713.448 118.427 713 117.979 713 117.427H715ZM713 108.884C713 108.331 713.448 107.884 714 107.884C714.552 107.884 715 108.331 715 108.884H713ZM715 100.34C715 100.893 714.552 101.34 714 101.34C713.448 101.34 713 100.893 713 100.34H715ZM713 91.7973C713 91.245 713.448 90.7973 714 90.7973C714.552 90.7973 715 91.245 715 91.7973H713ZM715 83.2542C715 83.8065 714.552 84.2542 714 84.2542C713.448 84.2542 713 83.8065 713 83.2542H715ZM709.977 79.9827C709.425 79.9827 708.977 79.535 708.977 78.9827C708.977 78.4304 709.425 77.9827 709.977 77.9827V79.9827ZM701.932 77.9827C702.484 77.9827 702.932 78.4304 702.932 78.9827C702.932 79.535 702.484 79.9827 701.932 79.9827V77.9827ZM693.886 79.9827C693.334 79.9827 692.886 79.535 692.886 78.9827C692.886 78.4304 693.334 77.9827 693.886 77.9827V79.9827ZM685.841 77.9827C686.393 77.9827 686.841 78.4304 686.841 78.9827C686.841 79.535 686.393 79.9827 685.841 79.9827V77.9827ZM677.795 79.9827C677.243 79.9827 676.795 79.535 676.795 78.9827C676.795 78.4304 677.243 77.9827 677.795 77.9827V79.9827ZM669.75 77.9827C670.302 77.9827 670.75 78.4304 670.75 78.9827C670.75 79.535 670.302 79.9827 669.75 79.9827V77.9827ZM661.705 79.9827C661.152 79.9827 660.705 79.535 660.705 78.9827C660.705 78.4304 661.152 77.9827 661.705 77.9827V79.9827ZM653.659 77.9827C654.211 77.9827 654.659 78.4304 654.659 78.9827C654.659 79.535 654.211 79.9827 653.659 79.9827V77.9827ZM645.614 79.9827C645.061 79.9827 644.614 79.535 644.614 78.9827C644.614 78.4304 645.061 77.9827 645.614 77.9827V79.9827ZM637.568 77.9827C638.12 77.9827 638.568 78.4304 638.568 78.9827C638.568 79.535 638.12 79.9827 637.568 79.9827V77.9827ZM629.523 79.9827C628.97 79.9827 628.523 79.535 628.523 78.9827C628.523 78.4304 628.97 77.9827 629.523 77.9827V79.9827ZM621.477 77.9827C622.03 77.9827 622.477 78.4304 622.477 78.9827C622.477 79.535 622.03 79.9827 621.477 79.9827V77.9827ZM613.432 79.9827C612.88 79.9827 612.432 79.535 612.432 78.9827C612.432 78.4304 612.88 77.9827 613.432 77.9827V79.9827ZM605.386 77.9827C605.939 77.9827 606.386 78.4304 606.386 78.9827C606.386 79.535 605.939 79.9827 605.386 79.9827V77.9827ZM597.341 79.9827C596.789 79.9827 596.341 79.535 596.341 78.9827C596.341 78.4304 596.789 77.9827 597.341 77.9827V79.9827ZM589.295 77.9827C589.848 77.9827 590.295 78.4304 590.295 78.9827C590.295 79.535 589.848 79.9827 589.295 79.9827V77.9827ZM581.25 79.9827C580.698 79.9827 580.25 79.535 580.25 78.9827C580.25 78.4304 580.698 77.9827 581.25 77.9827V79.9827ZM573.205 77.9827C573.757 77.9827 574.205 78.4304 574.205 78.9827C574.205 79.535 573.757 79.9827 573.205 79.9827V77.9827ZM565.159 79.9827C564.607 79.9827 564.159 79.535 564.159 78.9827C564.159 78.4304 564.607 77.9827 565.159 77.9827V79.9827ZM557.114 77.9827C557.666 77.9827 558.114 78.4304 558.114 78.9827C558.114 79.535 557.666 79.9827 557.114 79.9827V77.9827ZM549.068 79.9827C548.516 79.9827 548.068 79.535 548.068 78.9827C548.068 78.4304 548.516 77.9827 549.068 77.9827V79.9827ZM541.023 77.9827C541.575 77.9827 542.023 78.4304 542.023 78.9827C542.023 79.535 541.575 79.9827 541.023 79.9827V77.9827ZM532.977 79.9827C532.425 79.9827 531.977 79.535 531.977 78.9827C531.977 78.4304 532.425 77.9827 532.977 77.9827V79.9827ZM524.932 77.9827C525.484 77.9827 525.932 78.4304 525.932 78.9827C525.932 79.535 525.484 79.9827 524.932 79.9827V77.9827ZM516.886 79.9827C516.334 79.9827 515.886 79.535 515.886 78.9827C515.886 78.4304 516.334 77.9827 516.886 77.9827V79.9827ZM508.841 77.9827C509.393 77.9827 509.841 78.4304 509.841 78.9827C509.841 79.535 509.393 79.9827 508.841 79.9827V77.9827ZM500.795 79.9827C500.243 79.9827 499.795 79.535 499.795 78.9827C499.795 78.4304 500.243 77.9827 500.795 77.9827V79.9827ZM492.75 77.9827C493.302 77.9827 493.75 78.4304 493.75 78.9827C493.75 79.535 493.302 79.9827 492.75 79.9827V77.9827ZM484.705 79.9827C484.152 79.9827 483.705 79.535 483.705 78.9827C483.705 78.4304 484.152 77.9827 484.705 77.9827V79.9827ZM476.659 77.9827C477.211 77.9827 477.659 78.4304 477.659 78.9827C477.659 79.535 477.211 79.9827 476.659 79.9827V77.9827ZM468.614 79.9827C468.061 79.9827 467.614 79.535 467.614 78.9827C467.614 78.4304 468.061 77.9827 468.614 77.9827V79.9827ZM460.568 77.9827C461.12 77.9827 461.568 78.4304 461.568 78.9827C461.568 79.535 461.12 79.9827 460.568 79.9827V77.9827ZM452.523 79.9827C451.97 79.9827 451.523 79.535 451.523 78.9827C451.523 78.4304 451.97 77.9827 452.523 77.9827V79.9827ZM444.477 77.9827C445.03 77.9827 445.477 78.4304 445.477 78.9827C445.477 79.535 445.03 79.9827 444.477 79.9827V77.9827ZM436.432 79.9827C435.88 79.9827 435.432 79.535 435.432 78.9827C435.432 78.4304 435.88 77.9827 436.432 77.9827V79.9827ZM428.386 77.9827C428.939 77.9827 429.386 78.4304 429.386 78.9827C429.386 79.535 428.939 79.9827 428.386 79.9827V77.9827ZM420.341 79.9827C419.789 79.9827 419.341 79.535 419.341 78.9827C419.341 78.4304 419.789 77.9827 420.341 77.9827V79.9827ZM412.296 77.9827C412.848 77.9827 413.296 78.4304 413.296 78.9827C413.296 79.535 412.848 79.9827 412.296 79.9827V77.9827ZM404.25 79.9827C403.698 79.9827 403.25 79.535 403.25 78.9827C403.25 78.4304 403.698 77.9827 404.25 77.9827V79.9827ZM396.205 77.9827C396.757 77.9827 397.205 78.4304 397.205 78.9827C397.205 79.535 396.757 79.9827 396.205 79.9827V77.9827ZM388.159 79.9827C387.607 79.9827 387.159 79.535 387.159 78.9827C387.159 78.4304 387.607 77.9827 388.159 77.9827V79.9827ZM380.114 77.9827C380.666 77.9827 381.114 78.4304 381.114 78.9827C381.114 79.535 380.666 79.9827 380.114 79.9827V77.9827ZM372.068 79.9827C371.516 79.9827 371.068 79.535 371.068 78.9827C371.068 78.4304 371.516 77.9827 372.068 77.9827V79.9827ZM364.023 77.9827C364.575 77.9827 365.023 78.4304 365.023 78.9827C365.023 79.535 364.575 79.9827 364.023 79.9827V77.9827ZM355.977 79.9827C355.425 79.9827 354.977 79.535 354.977 78.9827C354.977 78.4304 355.425 77.9827 355.977 77.9827V79.9827ZM347.932 77.9827C348.484 77.9827 348.932 78.4304 348.932 78.9827C348.932 79.535 348.484 79.9827 347.932 79.9827V77.9827ZM339.887 79.9827C339.334 79.9827 338.887 79.535 338.887 78.9827C338.887 78.4304 339.334 77.9827 339.887 77.9827V79.9827ZM331.841 77.9827C332.393 77.9827 332.841 78.4304 332.841 78.9827C332.841 79.535 332.393 79.9827 331.841 79.9827V77.9827ZM323.796 79.9827C323.243 79.9827 322.796 79.535 322.796 78.9827C322.796 78.4304 323.243 77.9827 323.796 77.9827V79.9827ZM315.75 77.9827C316.302 77.9827 316.75 78.4304 316.75 78.9827C316.75 79.535 316.302 79.9827 315.75 79.9827V77.9827ZM307.705 79.9827C307.152 79.9827 306.705 79.535 306.705 78.9827C306.705 78.4304 307.152 77.9827 307.705 77.9827V79.9827ZM299.659 77.9827C300.212 77.9827 300.659 78.4304 300.659 78.9827C300.659 79.535 300.212 79.9827 299.659 79.9827V77.9827ZM291.614 79.9827C291.062 79.9827 290.614 79.535 290.614 78.9827C290.614 78.4304 291.062 77.9827 291.614 77.9827V79.9827ZM283.568 77.9827C284.121 77.9827 284.568 78.4304 284.568 78.9827C284.568 79.535 284.121 79.9827 283.568 79.9827V77.9827ZM275.523 79.9827C274.971 79.9827 274.523 79.535 274.523 78.9827C274.523 78.4304 274.971 77.9827 275.523 77.9827V79.9827ZM267.478 77.9827C268.03 77.9827 268.478 78.4304 268.478 78.9827C268.478 79.535 268.03 79.9827 267.478 79.9827V77.9827ZM259.432 79.9827C258.88 79.9827 258.432 79.535 258.432 78.9827C258.432 78.4304 258.88 77.9827 259.432 77.9827V79.9827ZM251.387 77.9827C251.939 77.9827 252.387 78.4304 252.387 78.9827C252.387 79.535 251.939 79.9827 251.387 79.9827V77.9827ZM243.341 79.9827C242.789 79.9827 242.341 79.535 242.341 78.9827C242.341 78.4304 242.789 77.9827 243.341 77.9827V79.9827ZM235.296 77.9827C235.848 77.9827 236.296 78.4304 236.296 78.9827C236.296 79.535 235.848 79.9827 235.296 79.9827V77.9827ZM227.25 79.9827C226.698 79.9827 226.25 79.535 226.25 78.9827C226.25 78.4304 226.698 77.9827 227.25 77.9827V79.9827ZM219.205 77.9827C219.757 77.9827 220.205 78.4304 220.205 78.9827C220.205 79.535 219.757 79.9827 219.205 79.9827V77.9827ZM211.159 79.9827C210.607 79.9827 210.159 79.535 210.159 78.9827C210.159 78.4304 210.607 77.9827 211.159 77.9827V79.9827ZM203.114 77.9827C203.666 77.9827 204.114 78.4304 204.114 78.9827C204.114 79.535 203.666 79.9827 203.114 79.9827V77.9827ZM195.069 79.9827C194.516 79.9827 194.069 79.535 194.069 78.9827C194.069 78.4304 194.516 77.9827 195.069 77.9827V79.9827ZM187.023 77.9827C187.575 77.9827 188.023 78.4304 188.023 78.9827C188.023 79.535 187.575 79.9827 187.023 79.9827V77.9827ZM178.978 79.9827C178.425 79.9827 177.978 79.535 177.978 78.9827C177.978 78.4304 178.425 77.9827 178.978 77.9827V79.9827ZM170.932 77.9827C171.484 77.9827 171.932 78.4304 171.932 78.9827C171.932 79.535 171.484 79.9827 170.932 79.9827V77.9827ZM162.887 79.9827C162.334 79.9827 161.887 79.535 161.887 78.9827C161.887 78.4304 162.334 77.9827 162.887 77.9827V79.9827ZM154.841 77.9827C155.393 77.9827 155.841 78.4304 155.841 78.9827C155.841 79.535 155.393 79.9827 154.841 79.9827V77.9827ZM146.796 79.9827C146.243 79.9827 145.796 79.535 145.796 78.9827C145.796 78.4304 146.243 77.9827 146.796 77.9827V79.9827ZM138.75 77.9827C139.303 77.9827 139.75 78.4304 139.75 78.9827C139.75 79.535 139.303 79.9827 138.75 79.9827V77.9827ZM130.705 79.9827C130.153 79.9827 129.705 79.535 129.705 78.9827C129.705 78.4304 130.153 77.9827 130.705 77.9827V79.9827ZM122.659 77.9827C123.212 77.9827 123.659 78.4304 123.659 78.9827C123.659 79.535 123.212 79.9827 122.659 79.9827V77.9827ZM114.614 79.9827C114.062 79.9827 113.614 79.535 113.614 78.9827C113.614 78.4304 114.062 77.9827 114.614 77.9827V79.9827ZM106.568 77.9827C107.121 77.9827 107.568 78.4304 107.568 78.9827C107.568 79.535 107.121 79.9827 106.568 79.9827V77.9827ZM98.5229 79.9827C97.9706 79.9827 97.5229 79.535 97.5229 78.9827C97.5229 78.4304 97.9706 77.9827 98.5229 77.9827V79.9827ZM90.4775 77.9827C91.0298 77.9827 91.4775 78.4304 91.4775 78.9827C91.4775 79.535 91.0298 79.9827 90.4775 79.9827V77.9827ZM82.432 79.9827C81.8797 79.9827 81.432 79.535 81.432 78.9827C81.432 78.4304 81.8797 77.9827 82.432 77.9827V79.9827ZM74.3865 77.9827C74.9388 77.9827 75.3865 78.4304 75.3865 78.9827C75.3865 79.535 74.9388 79.9827 74.3865 79.9827V77.9827ZM66.3411 79.9827C65.7888 79.9827 65.3411 79.535 65.3411 78.9827C65.3411 78.4304 65.7888 77.9827 66.3411 77.9827V79.9827ZM58.2956 77.9827C58.8478 77.9827 59.2956 78.4304 59.2956 78.9827C59.2956 79.535 58.8478 79.9827 58.2956 79.9827V77.9827ZM50.2501 79.9827C49.6978 79.9827 49.2501 79.535 49.2501 78.9827C49.2501 78.4304 49.6978 77.9827 50.2501 77.9827V79.9827ZM42.2047 77.9827C42.7569 77.9827 43.2047 78.4304 43.2047 78.9827C43.2047 79.535 42.7569 79.9827 42.2047 79.9827V77.9827ZM34.1592 79.9827C33.6069 79.9827 33.1592 79.535 33.1592 78.9827C33.1592 78.4304 33.6069 77.9827 34.1592 77.9827V79.9827ZM26.1137 77.9827C26.666 77.9827 27.1137 78.4304 27.1137 78.9827C27.1137 79.535 26.666 79.9827 26.1137 79.9827V77.9827ZM18.0682 79.9827C17.516 79.9827 17.0682 79.535 17.0682 78.9827C17.0682 78.4304 17.516 77.9827 18.0682 77.9827V79.9827ZM10.0228 77.9827C10.5751 77.9827 11.0228 78.4304 11.0228 78.9827C11.0228 79.535 10.5751 79.9827 10.0228 79.9827V77.9827ZM5 75.3085C5 74.7562 5.44769 74.3085 6 74.3085C6.55231 74.3085 7 74.7562 7 75.3085H5ZM7 67.9603C7 68.5126 6.55231 68.9603 6 68.9603C5.44769 68.9603 5 68.5126 5 67.9603H7ZM5 60.612C5 60.0597 5.44769 59.612 6 59.612C6.55231 59.612 7 60.0597 7 60.612H5ZM7 53.2637C7 53.816 6.55231 54.2637 6 54.2637C5.44769 54.2637 5 53.816 5 53.2637H7ZM5 45.9155C5 45.3632 5.44769 44.9155 6 44.9155C6.55231 44.9155 7 45.3632 7 45.9155H5ZM7 38.5672C7 39.1195 6.55231 39.5672 6 39.5672C5.44769 39.5672 5 39.1195 5 38.5672H7ZM5 31.2189C5 30.6667 5.44769 30.2189 6 30.2189C6.55231 30.2189 7 30.6667 7 31.2189H5ZM7 23.8707C7 24.423 6.55231 24.8707 6 24.8707C5.44769 24.8707 5 24.423 5 23.8707H7ZM5 16.5224C5 15.9701 5.44769 15.5224 6 15.5224C6.55231 15.5224 7 15.9701 7 16.5224H5ZM7 9.17413C7 9.72642 6.55231 10.1741 6 10.1741C5.44769 10.1741 5 9.72642 5 9.17413H7ZM713 181.5V177.228H715V181.5H713ZM713 168.685V160.142H715V168.685H713ZM713 151.599V143.056H715V151.599H713ZM713 134.513V125.97H715V134.513H713ZM713 117.427V108.884H715V117.427H713ZM713 100.34V91.7973H715V100.34H713ZM713 83.2542V78.9827H715V83.2542H713ZM714 79.9827H709.977V77.9827H714V79.9827ZM701.932 79.9827H693.886V77.9827H701.932V79.9827ZM685.841 79.9827H677.795V77.9827H685.841V79.9827ZM669.75 79.9827H661.705V77.9827H669.75V79.9827ZM653.659 79.9827H645.614V77.9827H653.659V79.9827ZM637.568 79.9827H629.523V77.9827H637.568V79.9827ZM621.477 79.9827H613.432V77.9827H621.477V79.9827ZM605.386 79.9827H597.341V77.9827H605.386V79.9827ZM589.295 79.9827H581.25V77.9827H589.295V79.9827ZM573.205 79.9827H565.159V77.9827H573.205V79.9827ZM557.114 79.9827H549.068V77.9827H557.114V79.9827ZM541.023 79.9827H532.977V77.9827H541.023V79.9827ZM524.932 79.9827H516.886V77.9827H524.932V79.9827ZM508.841 79.9827H500.795V77.9827H508.841V79.9827ZM492.75 79.9827H484.705V77.9827H492.75V79.9827ZM476.659 79.9827H468.614V77.9827H476.659V79.9827ZM460.568 79.9827H452.523V77.9827H460.568V79.9827ZM444.477 79.9827H436.432V77.9827H444.477V79.9827ZM428.386 79.9827H420.341V77.9827H428.386V79.9827ZM412.296 79.9827H404.25V77.9827H412.296V79.9827ZM396.205 79.9827H388.159V77.9827H396.205V79.9827ZM380.114 79.9827H372.068V77.9827H380.114V79.9827ZM364.023 79.9827H355.977V77.9827H364.023V79.9827ZM347.932 79.9827H339.887V77.9827H347.932V79.9827ZM331.841 79.9827H323.796V77.9827H331.841V79.9827ZM315.75 79.9827H307.705V77.9827H315.75V79.9827ZM299.659 79.9827H291.614V77.9827H299.659V79.9827ZM283.568 79.9827H275.523V77.9827H283.568V79.9827ZM267.478 79.9827H259.432V77.9827H267.478V79.9827ZM251.387 79.9827H243.341V77.9827H251.387V79.9827ZM235.296 79.9827H227.25V77.9827H235.296V79.9827ZM219.205 79.9827H211.159V77.9827H219.205V79.9827ZM203.114 79.9827H195.069V77.9827H203.114V79.9827ZM187.023 79.9827H178.978V77.9827H187.023V79.9827ZM170.932 79.9827H162.887V77.9827H170.932V79.9827ZM154.841 79.9827H146.796V77.9827H154.841V79.9827ZM138.75 79.9827H130.705V77.9827H138.75V79.9827ZM122.659 79.9827H114.614V77.9827H122.659V79.9827ZM106.568 79.9827H98.5229V77.9827H106.568V79.9827ZM90.4775 79.9827H82.432V77.9827H90.4775V79.9827ZM74.3865 79.9827H66.3411V77.9827H74.3865V79.9827ZM58.2956 79.9827H50.2501V77.9827H58.2956V79.9827ZM42.2047 79.9827H34.1592V77.9827H42.2047V79.9827ZM26.1137 79.9827H18.0682V77.9827H26.1137V79.9827ZM10.0228 79.9827H6V77.9827H10.0228V79.9827ZM5 78.9827V75.3085H7V78.9827H5ZM5 67.9603V60.612H7V67.9603H5ZM5 53.2637V45.9155H7V53.2637H5ZM5 38.5672V31.2189H7V38.5672H5ZM5 23.8707V16.5224H7V23.8707H5ZM5 9.17413V5.5H7V9.17413H5Z" fill="#606060"/>
</svg>
