<svg width="720" height="183" viewBox="0 0 720 183" fill="none" xmlns="http://www.w3.org/2000/svg">
<path d="M11.3333 6C11.3333 8.94552 8.9455 11.3333 6 11.3333C3.0545 11.3333 0.666687 8.94552 0.666687 6C0.666687 3.05448 3.0545 0.666667 6 0.666667C8.9455 0.666667 11.3333 3.05448 11.3333 6ZM6 86.4827V87.4827C5.44769 87.4827 5 87.035 5 86.4827H6ZM714 86.4827V85.4827C714.552 85.4827 715 85.9304 715 86.4827H714ZM719.333 177C719.333 179.946 716.946 182.333 714 182.333C711.054 182.333 708.667 179.946 708.667 177C708.667 174.054 711.054 171.667 714 171.667C716.946 171.667 719.333 174.054 719.333 177ZM713 173.228C713 172.676 713.448 172.228 714 172.228C714.552 172.228 715 172.676 715 173.228H713ZM715 165.685C715 166.238 714.552 166.685 714 166.685C713.448 166.685 713 166.238 713 165.685H715ZM713 158.142C713 157.59 713.448 157.142 714 157.142C714.552 157.142 715 157.59 715 158.142H713ZM715 150.599C715 151.151 714.552 151.599 714 151.599C713.448 151.599 713 151.151 713 150.599H715ZM713 143.056C713 142.504 713.448 142.056 714 142.056C714.552 142.056 715 142.504 715 143.056H713ZM715 135.513C715 136.065 714.552 136.513 714 136.513C713.448 136.513 713 136.065 713 135.513H715ZM713 127.97C713 127.417 713.448 126.97 714 126.97C714.552 126.97 715 127.417 715 127.97H713ZM715 120.427C715 120.979 714.552 121.427 714 121.427C713.448 121.427 713 120.979 713 120.427H715ZM713 112.884C713 112.331 713.448 111.884 714 111.884C714.552 111.884 715 112.331 715 112.884H713ZM715 105.34C715 105.893 714.552 106.34 714 106.34C713.448 106.34 713 105.893 713 105.34H715ZM713 97.7973C713 97.245 713.448 96.7973 714 96.7973C714.552 96.7973 715 97.245 715 97.7973H713ZM715 90.2542C715 90.8065 714.552 91.2542 714 91.2542C713.448 91.2542 713 90.8065 713 90.2542H715ZM709.977 87.4827C709.425 87.4827 708.977 87.035 708.977 86.4827C708.977 85.9304 709.425 85.4827 709.977 85.4827V87.4827ZM701.932 85.4827C702.484 85.4827 702.932 85.9304 702.932 86.4827C702.932 87.035 702.484 87.4827 701.932 87.4827V85.4827ZM693.886 87.4827C693.334 87.4827 692.886 87.035 692.886 86.4827C692.886 85.9304 693.334 85.4827 693.886 85.4827V87.4827ZM685.841 85.4827C686.393 85.4827 686.841 85.9304 686.841 86.4827C686.841 87.035 686.393 87.4827 685.841 87.4827V85.4827ZM677.795 87.4827C677.243 87.4827 676.795 87.035 676.795 86.4827C676.795 85.9304 677.243 85.4827 677.795 85.4827V87.4827ZM669.75 85.4827C670.302 85.4827 670.75 85.9304 670.75 86.4827C670.75 87.035 670.302 87.4827 669.75 87.4827V85.4827ZM661.705 87.4827C661.152 87.4827 660.705 87.035 660.705 86.4827C660.705 85.9304 661.152 85.4827 661.705 85.4827V87.4827ZM653.659 85.4827C654.211 85.4827 654.659 85.9304 654.659 86.4827C654.659 87.035 654.211 87.4827 653.659 87.4827V85.4827ZM645.614 87.4827C645.061 87.4827 644.614 87.035 644.614 86.4827C644.614 85.9304 645.061 85.4827 645.614 85.4827V87.4827ZM637.568 85.4827C638.12 85.4827 638.568 85.9304 638.568 86.4827C638.568 87.035 638.12 87.4827 637.568 87.4827V85.4827ZM629.523 87.4827C628.97 87.4827 628.523 87.035 628.523 86.4827C628.523 85.9304 628.97 85.4827 629.523 85.4827V87.4827ZM621.477 85.4827C622.03 85.4827 622.477 85.9304 622.477 86.4827C622.477 87.035 622.03 87.4827 621.477 87.4827V85.4827ZM613.432 87.4827C612.88 87.4827 612.432 87.035 612.432 86.4827C612.432 85.9304 612.88 85.4827 613.432 85.4827V87.4827ZM605.386 85.4827C605.939 85.4827 606.386 85.9304 606.386 86.4827C606.386 87.035 605.939 87.4827 605.386 87.4827V85.4827ZM597.341 87.4827C596.789 87.4827 596.341 87.035 596.341 86.4827C596.341 85.9304 596.789 85.4827 597.341 85.4827V87.4827ZM589.295 85.4827C589.848 85.4827 590.295 85.9304 590.295 86.4827C590.295 87.035 589.848 87.4827 589.295 87.4827V85.4827ZM581.25 87.4827C580.698 87.4827 580.25 87.035 580.25 86.4827C580.25 85.9304 580.698 85.4827 581.25 85.4827V87.4827ZM573.205 85.4827C573.757 85.4827 574.205 85.9304 574.205 86.4827C574.205 87.035 573.757 87.4827 573.205 87.4827V85.4827ZM565.159 87.4827C564.607 87.4827 564.159 87.035 564.159 86.4827C564.159 85.9304 564.607 85.4827 565.159 85.4827V87.4827ZM557.114 85.4827C557.666 85.4827 558.114 85.9304 558.114 86.4827C558.114 87.035 557.666 87.4827 557.114 87.4827V85.4827ZM549.068 87.4827C548.516 87.4827 548.068 87.035 548.068 86.4827C548.068 85.9304 548.516 85.4827 549.068 85.4827V87.4827ZM541.023 85.4827C541.575 85.4827 542.023 85.9304 542.023 86.4827C542.023 87.035 541.575 87.4827 541.023 87.4827V85.4827ZM532.977 87.4827C532.425 87.4827 531.977 87.035 531.977 86.4827C531.977 85.9304 532.425 85.4827 532.977 85.4827V87.4827ZM524.932 85.4827C525.484 85.4827 525.932 85.9304 525.932 86.4827C525.932 87.035 525.484 87.4827 524.932 87.4827V85.4827ZM516.886 87.4827C516.334 87.4827 515.886 87.035 515.886 86.4827C515.886 85.9304 516.334 85.4827 516.886 85.4827V87.4827ZM508.841 85.4827C509.393 85.4827 509.841 85.9304 509.841 86.4827C509.841 87.035 509.393 87.4827 508.841 87.4827V85.4827ZM500.795 87.4827C500.243 87.4827 499.795 87.035 499.795 86.4827C499.795 85.9304 500.243 85.4827 500.795 85.4827V87.4827ZM492.75 85.4827C493.302 85.4827 493.75 85.9304 493.75 86.4827C493.75 87.035 493.302 87.4827 492.75 87.4827V85.4827ZM484.705 87.4827C484.152 87.4827 483.705 87.035 483.705 86.4827C483.705 85.9304 484.152 85.4827 484.705 85.4827V87.4827ZM476.659 85.4827C477.211 85.4827 477.659 85.9304 477.659 86.4827C477.659 87.035 477.211 87.4827 476.659 87.4827V85.4827ZM468.614 87.4827C468.061 87.4827 467.614 87.035 467.614 86.4827C467.614 85.9304 468.061 85.4827 468.614 85.4827V87.4827ZM460.568 85.4827C461.12 85.4827 461.568 85.9304 461.568 86.4827C461.568 87.035 461.12 87.4827 460.568 87.4827V85.4827ZM452.523 87.4827C451.97 87.4827 451.523 87.035 451.523 86.4827C451.523 85.9304 451.97 85.4827 452.523 85.4827V87.4827ZM444.477 85.4827C445.03 85.4827 445.477 85.9304 445.477 86.4827C445.477 87.035 445.03 87.4827 444.477 87.4827V85.4827ZM436.432 87.4827C435.88 87.4827 435.432 87.035 435.432 86.4827C435.432 85.9304 435.88 85.4827 436.432 85.4827V87.4827ZM428.386 85.4827C428.939 85.4827 429.386 85.9304 429.386 86.4827C429.386 87.035 428.939 87.4827 428.386 87.4827V85.4827ZM420.341 87.4827C419.789 87.4827 419.341 87.035 419.341 86.4827C419.341 85.9304 419.789 85.4827 420.341 85.4827V87.4827ZM412.296 85.4827C412.848 85.4827 413.296 85.9304 413.296 86.4827C413.296 87.035 412.848 87.4827 412.296 87.4827V85.4827ZM404.25 87.4827C403.698 87.4827 403.25 87.035 403.25 86.4827C403.25 85.9304 403.698 85.4827 404.25 85.4827V87.4827ZM396.205 85.4827C396.757 85.4827 397.205 85.9304 397.205 86.4827C397.205 87.035 396.757 87.4827 396.205 87.4827V85.4827ZM388.159 87.4827C387.607 87.4827 387.159 87.035 387.159 86.4827C387.159 85.9304 387.607 85.4827 388.159 85.4827V87.4827ZM380.114 85.4827C380.666 85.4827 381.114 85.9304 381.114 86.4827C381.114 87.035 380.666 87.4827 380.114 87.4827V85.4827ZM372.068 87.4827C371.516 87.4827 371.068 87.035 371.068 86.4827C371.068 85.9304 371.516 85.4827 372.068 85.4827V87.4827ZM364.023 85.4827C364.575 85.4827 365.023 85.9304 365.023 86.4827C365.023 87.035 364.575 87.4827 364.023 87.4827V85.4827ZM355.977 87.4827C355.425 87.4827 354.977 87.035 354.977 86.4827C354.977 85.9304 355.425 85.4827 355.977 85.4827V87.4827ZM347.932 85.4827C348.484 85.4827 348.932 85.9304 348.932 86.4827C348.932 87.035 348.484 87.4827 347.932 87.4827V85.4827ZM339.887 87.4827C339.334 87.4827 338.887 87.035 338.887 86.4827C338.887 85.9304 339.334 85.4827 339.887 85.4827V87.4827ZM331.841 85.4827C332.393 85.4827 332.841 85.9304 332.841 86.4827C332.841 87.035 332.393 87.4827 331.841 87.4827V85.4827ZM323.796 87.4827C323.243 87.4827 322.796 87.035 322.796 86.4827C322.796 85.9304 323.243 85.4827 323.796 85.4827V87.4827ZM315.75 85.4827C316.302 85.4827 316.75 85.9304 316.75 86.4827C316.75 87.035 316.302 87.4827 315.75 87.4827V85.4827ZM307.705 87.4827C307.152 87.4827 306.705 87.035 306.705 86.4827C306.705 85.9304 307.152 85.4827 307.705 85.4827V87.4827ZM299.659 85.4827C300.212 85.4827 300.659 85.9304 300.659 86.4827C300.659 87.035 300.212 87.4827 299.659 87.4827V85.4827ZM291.614 87.4827C291.062 87.4827 290.614 87.035 290.614 86.4827C290.614 85.9304 291.062 85.4827 291.614 85.4827V87.4827ZM283.568 85.4827C284.121 85.4827 284.568 85.9304 284.568 86.4827C284.568 87.035 284.121 87.4827 283.568 87.4827V85.4827ZM275.523 87.4827C274.971 87.4827 274.523 87.035 274.523 86.4827C274.523 85.9304 274.971 85.4827 275.523 85.4827V87.4827ZM267.478 85.4827C268.03 85.4827 268.478 85.9304 268.478 86.4827C268.478 87.035 268.03 87.4827 267.478 87.4827V85.4827ZM259.432 87.4827C258.88 87.4827 258.432 87.035 258.432 86.4827C258.432 85.9304 258.88 85.4827 259.432 85.4827V87.4827ZM251.387 85.4827C251.939 85.4827 252.387 85.9304 252.387 86.4827C252.387 87.035 251.939 87.4827 251.387 87.4827V85.4827ZM243.341 87.4827C242.789 87.4827 242.341 87.035 242.341 86.4827C242.341 85.9304 242.789 85.4827 243.341 85.4827V87.4827ZM235.296 85.4827C235.848 85.4827 236.296 85.9304 236.296 86.4827C236.296 87.035 235.848 87.4827 235.296 87.4827V85.4827ZM227.25 87.4827C226.698 87.4827 226.25 87.035 226.25 86.4827C226.25 85.9304 226.698 85.4827 227.25 85.4827V87.4827ZM219.205 85.4827C219.757 85.4827 220.205 85.9304 220.205 86.4827C220.205 87.035 219.757 87.4827 219.205 87.4827V85.4827ZM211.159 87.4827C210.607 87.4827 210.159 87.035 210.159 86.4827C210.159 85.9304 210.607 85.4827 211.159 85.4827V87.4827ZM203.114 85.4827C203.666 85.4827 204.114 85.9304 204.114 86.4827C204.114 87.035 203.666 87.4827 203.114 87.4827V85.4827ZM195.069 87.4827C194.516 87.4827 194.069 87.035 194.069 86.4827C194.069 85.9304 194.516 85.4827 195.069 85.4827V87.4827ZM187.023 85.4827C187.575 85.4827 188.023 85.9304 188.023 86.4827C188.023 87.035 187.575 87.4827 187.023 87.4827V85.4827ZM178.978 87.4827C178.425 87.4827 177.978 87.035 177.978 86.4827C177.978 85.9304 178.425 85.4827 178.978 85.4827V87.4827ZM170.932 85.4827C171.484 85.4827 171.932 85.9304 171.932 86.4827C171.932 87.035 171.484 87.4827 170.932 87.4827V85.4827ZM162.887 87.4827C162.334 87.4827 161.887 87.035 161.887 86.4827C161.887 85.9304 162.334 85.4827 162.887 85.4827V87.4827ZM154.841 85.4827C155.393 85.4827 155.841 85.9304 155.841 86.4827C155.841 87.035 155.393 87.4827 154.841 87.4827V85.4827ZM146.796 87.4827C146.243 87.4827 145.796 87.035 145.796 86.4827C145.796 85.9304 146.243 85.4827 146.796 85.4827V87.4827ZM138.75 85.4827C139.303 85.4827 139.75 85.9304 139.75 86.4827C139.75 87.035 139.303 87.4827 138.75 87.4827V85.4827ZM130.705 87.4827C130.153 87.4827 129.705 87.035 129.705 86.4827C129.705 85.9304 130.153 85.4827 130.705 85.4827V87.4827ZM122.659 85.4827C123.212 85.4827 123.659 85.9304 123.659 86.4827C123.659 87.035 123.212 87.4827 122.659 87.4827V85.4827ZM114.614 87.4827C114.062 87.4827 113.614 87.035 113.614 86.4827C113.614 85.9304 114.062 85.4827 114.614 85.4827V87.4827ZM106.568 85.4827C107.121 85.4827 107.568 85.9304 107.568 86.4827C107.568 87.035 107.121 87.4827 106.568 87.4827V85.4827ZM98.5229 87.4827C97.9706 87.4827 97.5229 87.035 97.5229 86.4827C97.5229 85.9304 97.9706 85.4827 98.5229 85.4827V87.4827ZM90.4775 85.4827C91.0298 85.4827 91.4775 85.9304 91.4775 86.4827C91.4775 87.035 91.0298 87.4827 90.4775 87.4827V85.4827ZM82.432 87.4827C81.8797 87.4827 81.432 87.035 81.432 86.4827C81.432 85.9304 81.8797 85.4827 82.432 85.4827V87.4827ZM74.3865 85.4827C74.9388 85.4827 75.3865 85.9304 75.3865 86.4827C75.3865 87.035 74.9388 87.4827 74.3865 87.4827V85.4827ZM66.3411 87.4827C65.7888 87.4827 65.3411 87.035 65.3411 86.4827C65.3411 85.9304 65.7888 85.4827 66.3411 85.4827V87.4827ZM58.2956 85.4827C58.8478 85.4827 59.2956 85.9304 59.2956 86.4827C59.2956 87.035 58.8478 87.4827 58.2956 87.4827V85.4827ZM50.2501 87.4827C49.6978 87.4827 49.2501 87.035 49.2501 86.4827C49.2501 85.9304 49.6978 85.4827 50.2501 85.4827V87.4827ZM42.2047 85.4827C42.7569 85.4827 43.2047 85.9304 43.2047 86.4827C43.2047 87.035 42.7569 87.4827 42.2047 87.4827V85.4827ZM34.1592 87.4827C33.6069 87.4827 33.1592 87.035 33.1592 86.4827C33.1592 85.9304 33.6069 85.4827 34.1592 85.4827V87.4827ZM26.1137 85.4827C26.666 85.4827 27.1137 85.9304 27.1137 86.4827C27.1137 87.035 26.666 87.4827 26.1137 87.4827V85.4827ZM18.0682 87.4827C17.516 87.4827 17.0682 87.035 17.0682 86.4827C17.0682 85.9304 17.516 85.4827 18.0682 85.4827V87.4827ZM10.0228 85.4827C10.5751 85.4827 11.0228 85.9304 11.0228 86.4827C11.0228 87.035 10.5751 87.4827 10.0228 87.4827V85.4827ZM5 82.4585C5 81.9062 5.44769 81.4585 6 81.4585C6.55231 81.4585 7 81.9062 7 82.4585H5ZM7 74.4103C7 74.9626 6.55231 75.4103 6 75.4103C5.44769 75.4103 5 74.9626 5 74.4103H7ZM5 66.362C5 65.8097 5.44769 65.362 6 65.362C6.55231 65.362 7 65.8097 7 66.362H5ZM7 58.3137C7 58.866 6.55231 59.3137 6 59.3137C5.44769 59.3137 5 58.866 5 58.3137H7ZM5 50.2655C5 49.7132 5.44769 49.2655 6 49.2655C6.55231 49.2655 7 49.7132 7 50.2655H5ZM7 42.2172C7 42.7695 6.55231 43.2172 6 43.2172C5.44769 43.2172 5 42.7695 5 42.2172H7ZM5 34.1689C5 33.6166 5.44769 33.1689 6 33.1689C6.55231 33.1689 7 33.6166 7 34.1689H5ZM7 26.1207C7 26.6729 6.55231 27.1207 6 27.1207C5.44769 27.1207 5 26.6729 5 26.1207H7ZM5 18.0724C5 17.5201 5.44769 17.0724 6 17.0724C6.55231 17.0724 7 17.5201 7 18.0724H5ZM7 10.0241C7 10.5764 6.55231 11.0241 6 11.0241C5.44769 11.0241 5 10.5764 5 10.0241H7ZM713 177V173.228H715V177H713ZM713 165.685V158.142H715V165.685H713ZM713 150.599V143.056H715V150.599H713ZM713 135.513V127.97H715V135.513H713ZM713 120.427V112.884H715V120.427H713ZM713 105.34V97.7973H715V105.34H713ZM713 90.2542V86.4827H715V90.2542H713ZM714 87.4827H709.977V85.4827H714V87.4827ZM701.932 87.4827H693.886V85.4827H701.932V87.4827ZM685.841 87.4827H677.795V85.4827H685.841V87.4827ZM669.75 87.4827H661.705V85.4827H669.75V87.4827ZM653.659 87.4827H645.614V85.4827H653.659V87.4827ZM637.568 87.4827H629.523V85.4827H637.568V87.4827ZM621.477 87.4827H613.432V85.4827H621.477V87.4827ZM605.386 87.4827H597.341V85.4827H605.386V87.4827ZM589.295 87.4827H581.25V85.4827H589.295V87.4827ZM573.205 87.4827H565.159V85.4827H573.205V87.4827ZM557.114 87.4827H549.068V85.4827H557.114V87.4827ZM541.023 87.4827H532.977V85.4827H541.023V87.4827ZM524.932 87.4827H516.886V85.4827H524.932V87.4827ZM508.841 87.4827H500.795V85.4827H508.841V87.4827ZM492.75 87.4827H484.705V85.4827H492.75V87.4827ZM476.659 87.4827H468.614V85.4827H476.659V87.4827ZM460.568 87.4827H452.523V85.4827H460.568V87.4827ZM444.477 87.4827H436.432V85.4827H444.477V87.4827ZM428.386 87.4827H420.341V85.4827H428.386V87.4827ZM412.296 87.4827H404.25V85.4827H412.296V87.4827ZM396.205 87.4827H388.159V85.4827H396.205V87.4827ZM380.114 87.4827H372.068V85.4827H380.114V87.4827ZM364.023 87.4827H355.977V85.4827H364.023V87.4827ZM347.932 87.4827H339.887V85.4827H347.932V87.4827ZM331.841 87.4827H323.796V85.4827H331.841V87.4827ZM315.75 87.4827H307.705V85.4827H315.75V87.4827ZM299.659 87.4827H291.614V85.4827H299.659V87.4827ZM283.568 87.4827H275.523V85.4827H283.568V87.4827ZM267.478 87.4827H259.432V85.4827H267.478V87.4827ZM251.387 87.4827H243.341V85.4827H251.387V87.4827ZM235.296 87.4827H227.25V85.4827H235.296V87.4827ZM219.205 87.4827H211.159V85.4827H219.205V87.4827ZM203.114 87.4827H195.069V85.4827H203.114V87.4827ZM187.023 87.4827H178.978V85.4827H187.023V87.4827ZM170.932 87.4827H162.887V85.4827H170.932V87.4827ZM154.841 87.4827H146.796V85.4827H154.841V87.4827ZM138.75 87.4827H130.705V85.4827H138.75V87.4827ZM122.659 87.4827H114.614V85.4827H122.659V87.4827ZM106.568 87.4827H98.5229V85.4827H106.568V87.4827ZM90.4775 87.4827H82.432V85.4827H90.4775V87.4827ZM74.3865 87.4827H66.3411V85.4827H74.3865V87.4827ZM58.2956 87.4827H50.2501V85.4827H58.2956V87.4827ZM42.2047 87.4827H34.1592V85.4827H42.2047V87.4827ZM26.1137 87.4827H18.0682V85.4827H26.1137V87.4827ZM10.0228 87.4827H6V85.4827H10.0228V87.4827ZM5 86.4827V82.4585H7V86.4827H5ZM5 74.4103V66.362H7V74.4103H5ZM5 58.3137V50.2655H7V58.3137H5ZM5 42.2172V34.1689H7V42.2172H5ZM5 26.1207V18.0724H7V26.1207H5ZM5 10.0241V6H7V10.0241H5Z" fill="#606060"/>
</svg>
