<svg width="720" height="174" viewBox="0 0 720 174" fill="none" xmlns="http://www.w3.org/2000/svg">
<path d="M708.667 6C708.667 8.94552 711.055 11.3333 714 11.3333C716.945 11.3333 719.333 8.94552 719.333 6C719.333 3.05448 716.945 0.666667 714 0.666667C711.055 0.666667 708.667 3.05448 708.667 6ZM714 95V96C714.552 96 715 95.5523 715 95H714ZM6 95V94C5.44772 94 5 94.4477 5 95H6ZM0.666667 168C0.666667 170.946 3.05448 173.333 6 173.333C8.94552 173.333 11.3333 170.946 11.3333 168C11.3333 165.054 8.94552 162.667 6 162.667C3.05448 162.667 0.666667 165.054 0.666667 168ZM7 164.35C7 163.798 6.55228 163.35 6 163.35C5.44772 163.35 5 163.798 5 164.35H7ZM5 157.05C5 157.602 5.44772 158.05 6 158.05C6.55228 158.05 7 157.602 7 157.05H5ZM7 149.75C7 149.198 6.55228 148.75 6 148.75C5.44772 148.75 5 149.198 5 149.75H7ZM5 142.45C5 143.002 5.44772 143.45 6 143.45C6.55228 143.45 7 143.002 7 142.45H5ZM7 135.15C7 134.598 6.55228 134.15 6 134.15C5.44772 134.15 5 134.598 5 135.15H7ZM5 127.85C5 128.402 5.44772 128.85 6 128.85C6.55228 128.85 7 128.402 7 127.85H5ZM7 120.55C7 119.998 6.55228 119.55 6 119.55C5.44772 119.55 5 119.998 5 120.55H7ZM5 113.25C5 113.802 5.44772 114.25 6 114.25C6.55228 114.25 7 113.802 7 113.25H5ZM7 105.95C7 105.398 6.55228 104.95 6 104.95C5.44772 104.95 5 105.398 5 105.95H7ZM5 98.65C5 99.2023 5.44772 99.65 6 99.65C6.55228 99.65 7 99.2023 7 98.65H5ZM10.0227 96C10.575 96 11.0227 95.5523 11.0227 95C11.0227 94.4477 10.575 94 10.0227 94V96ZM18.0682 94C17.5159 94 17.0682 94.4477 17.0682 95C17.0682 95.5523 17.5159 96 18.0682 96V94ZM26.1136 96C26.6659 96 27.1136 95.5523 27.1136 95C27.1136 94.4477 26.6659 94 26.1136 94V96ZM34.1591 94C33.6068 94 33.1591 94.4477 33.1591 95C33.1591 95.5523 33.6068 96 34.1591 96V94ZM42.2045 96C42.7568 96 43.2045 95.5523 43.2045 95C43.2045 94.4477 42.7568 94 42.2045 94V96ZM50.25 94C49.6977 94 49.25 94.4477 49.25 95C49.25 95.5523 49.6977 96 50.25 96V94ZM58.2955 96C58.8477 96 59.2955 95.5523 59.2955 95C59.2955 94.4477 58.8477 94 58.2955 94V96ZM66.3409 94C65.7886 94 65.3409 94.4477 65.3409 95C65.3409 95.5523 65.7886 96 66.3409 96V94ZM74.3864 96C74.9387 96 75.3864 95.5523 75.3864 95C75.3864 94.4477 74.9387 94 74.3864 94V96ZM82.4318 94C81.8795 94 81.4318 94.4477 81.4318 95C81.4318 95.5523 81.8795 96 82.4318 96V94ZM90.4773 96C91.0296 96 91.4773 95.5523 91.4773 95C91.4773 94.4477 91.0296 94 90.4773 94V96ZM98.5227 94C97.9705 94 97.5227 94.4477 97.5227 95C97.5227 95.5523 97.9705 96 98.5227 96V94ZM106.568 96C107.12 96 107.568 95.5523 107.568 95C107.568 94.4477 107.12 94 106.568 94V96ZM114.614 94C114.061 94 113.614 94.4477 113.614 95C113.614 95.5523 114.061 96 114.614 96V94ZM122.659 96C123.211 96 123.659 95.5523 123.659 95C123.659 94.4477 123.211 94 122.659 94V96ZM130.705 94C130.152 94 129.705 94.4477 129.705 95C129.705 95.5523 130.152 96 130.705 96V94ZM138.75 96C139.302 96 139.75 95.5523 139.75 95C139.75 94.4477 139.302 94 138.75 94V96ZM146.795 94C146.243 94 145.795 94.4477 145.795 95C145.795 95.5523 146.243 96 146.795 96V94ZM154.841 96C155.393 96 155.841 95.5523 155.841 95C155.841 94.4477 155.393 94 154.841 94V96ZM162.886 94C162.334 94 161.886 94.4477 161.886 95C161.886 95.5523 162.334 96 162.886 96V94ZM170.932 96C171.484 96 171.932 95.5523 171.932 95C171.932 94.4477 171.484 94 170.932 94V96ZM178.977 94C178.425 94 177.977 94.4477 177.977 95C177.977 95.5523 178.425 96 178.977 96V94ZM187.023 96C187.575 96 188.023 95.5523 188.023 95C188.023 94.4477 187.575 94 187.023 94V96ZM195.068 94C194.516 94 194.068 94.4477 194.068 95C194.068 95.5523 194.516 96 195.068 96V94ZM203.114 96C203.666 96 204.114 95.5523 204.114 95C204.114 94.4477 203.666 94 203.114 94V96ZM211.159 94C210.607 94 210.159 94.4477 210.159 95C210.159 95.5523 210.607 96 211.159 96V94ZM219.205 96C219.757 96 220.205 95.5523 220.205 95C220.205 94.4477 219.757 94 219.205 94V96ZM227.25 94C226.698 94 226.25 94.4477 226.25 95C226.25 95.5523 226.698 96 227.25 96V94ZM235.295 96C235.848 96 236.295 95.5523 236.295 95C236.295 94.4477 235.848 94 235.295 94V96ZM243.341 94C242.789 94 242.341 94.4477 242.341 95C242.341 95.5523 242.789 96 243.341 96V94ZM251.386 96C251.939 96 252.386 95.5523 252.386 95C252.386 94.4477 251.939 94 251.386 94V96ZM259.432 94C258.88 94 258.432 94.4477 258.432 95C258.432 95.5523 258.88 96 259.432 96V94ZM267.477 96C268.03 96 268.477 95.5523 268.477 95C268.477 94.4477 268.03 94 267.477 94V96ZM275.523 94C274.97 94 274.523 94.4477 274.523 95C274.523 95.5523 274.97 96 275.523 96V94ZM283.568 96C284.12 96 284.568 95.5523 284.568 95C284.568 94.4477 284.12 94 283.568 94V96ZM291.614 94C291.061 94 290.614 94.4477 290.614 95C290.614 95.5523 291.061 96 291.614 96V94ZM299.659 96C300.211 96 300.659 95.5523 300.659 95C300.659 94.4477 300.211 94 299.659 94V96ZM307.704 94C307.152 94 306.704 94.4477 306.704 95C306.704 95.5523 307.152 96 307.704 96V94ZM315.75 96C316.302 96 316.75 95.5523 316.75 95C316.75 94.4477 316.302 94 315.75 94V96ZM323.795 94C323.243 94 322.795 94.4477 322.795 95C322.795 95.5523 323.243 96 323.795 96V94ZM331.841 96C332.393 96 332.841 95.5523 332.841 95C332.841 94.4477 332.393 94 331.841 94V96ZM339.886 94C339.334 94 338.886 94.4477 338.886 95C338.886 95.5523 339.334 96 339.886 96V94ZM347.932 96C348.484 96 348.932 95.5523 348.932 95C348.932 94.4477 348.484 94 347.932 94V96ZM355.977 94C355.425 94 354.977 94.4477 354.977 95C354.977 95.5523 355.425 96 355.977 96V94ZM364.023 96C364.575 96 365.023 95.5523 365.023 95C365.023 94.4477 364.575 94 364.023 94V96ZM372.068 94C371.516 94 371.068 94.4477 371.068 95C371.068 95.5523 371.516 96 372.068 96V94ZM380.113 96C380.666 96 381.113 95.5523 381.113 95C381.113 94.4477 380.666 94 380.113 94V96ZM388.159 94C387.607 94 387.159 94.4477 387.159 95C387.159 95.5523 387.607 96 388.159 96V94ZM396.204 96C396.757 96 397.204 95.5523 397.204 95C397.204 94.4477 396.757 94 396.204 94V96ZM404.25 94C403.698 94 403.25 94.4477 403.25 95C403.25 95.5523 403.698 96 404.25 96V94ZM412.295 96C412.848 96 413.295 95.5523 413.295 95C413.295 94.4477 412.848 94 412.295 94V96ZM420.341 94C419.788 94 419.341 94.4477 419.341 95C419.341 95.5523 419.788 96 420.341 96V94ZM428.386 96C428.938 96 429.386 95.5523 429.386 95C429.386 94.4477 428.938 94 428.386 94V96ZM436.432 94C435.879 94 435.432 94.4477 435.432 95C435.432 95.5523 435.879 96 436.432 96V94ZM444.477 96C445.029 96 445.477 95.5523 445.477 95C445.477 94.4477 445.029 94 444.477 94V96ZM452.522 94C451.97 94 451.522 94.4477 451.522 95C451.522 95.5523 451.97 96 452.522 96V94ZM460.568 96C461.12 96 461.568 95.5523 461.568 95C461.568 94.4477 461.12 94 460.568 94V96ZM468.613 94C468.061 94 467.613 94.4477 467.613 95C467.613 95.5523 468.061 96 468.613 96V94ZM476.659 96C477.211 96 477.659 95.5523 477.659 95C477.659 94.4477 477.211 94 476.659 94V96ZM484.704 94C484.152 94 483.704 94.4477 483.704 95C483.704 95.5523 484.152 96 484.704 96V94ZM492.75 96C493.302 96 493.75 95.5523 493.75 95C493.75 94.4477 493.302 94 492.75 94V96ZM500.795 94C500.243 94 499.795 94.4477 499.795 95C499.795 95.5523 500.243 96 500.795 96V94ZM508.841 96C509.393 96 509.841 95.5523 509.841 95C509.841 94.4477 509.393 94 508.841 94V96ZM516.886 94C516.334 94 515.886 94.4477 515.886 95C515.886 95.5523 516.334 96 516.886 96V94ZM524.931 96C525.484 96 525.931 95.5523 525.931 95C525.931 94.4477 525.484 94 524.931 94V96ZM532.977 94C532.425 94 531.977 94.4477 531.977 95C531.977 95.5523 532.425 96 532.977 96V94ZM541.022 96C541.575 96 542.022 95.5523 542.022 95C542.022 94.4477 541.575 94 541.022 94V96ZM549.068 94C548.516 94 548.068 94.4477 548.068 95C548.068 95.5523 548.516 96 549.068 96V94ZM557.113 96C557.666 96 558.113 95.5523 558.113 95C558.113 94.4477 557.666 94 557.113 94V96ZM565.159 94C564.607 94 564.159 94.4477 564.159 95C564.159 95.5523 564.607 96 565.159 96V94ZM573.204 96C573.757 96 574.204 95.5523 574.204 95C574.204 94.4477 573.757 94 573.204 94V96ZM581.25 94C580.697 94 580.25 94.4477 580.25 95C580.25 95.5523 580.697 96 581.25 96V94ZM589.295 96C589.847 96 590.295 95.5523 590.295 95C590.295 94.4477 589.847 94 589.295 94V96ZM597.341 94C596.788 94 596.341 94.4477 596.341 95C596.341 95.5523 596.788 96 597.341 96V94ZM605.386 96C605.938 96 606.386 95.5523 606.386 95C606.386 94.4477 605.938 94 605.386 94V96ZM613.432 94C612.879 94 612.432 94.4477 612.432 95C612.432 95.5523 612.879 96 613.432 96V94ZM621.477 96C622.029 96 622.477 95.5523 622.477 95C622.477 94.4477 622.029 94 621.477 94V96ZM629.523 94C628.97 94 628.523 94.4477 628.523 95C628.523 95.5523 628.97 96 629.523 96V94ZM637.568 96C638.12 96 638.568 95.5523 638.568 95C638.568 94.4477 638.12 94 637.568 94V96ZM645.613 94C645.061 94 644.613 94.4477 644.613 95C644.613 95.5523 645.061 96 645.613 96V94ZM653.659 96C654.211 96 654.659 95.5523 654.659 95C654.659 94.4477 654.211 94 653.659 94V96ZM661.704 94C661.152 94 660.704 94.4477 660.704 95C660.704 95.5523 661.152 96 661.704 96V94ZM669.75 96C670.302 96 670.75 95.5523 670.75 95C670.75 94.4477 670.302 94 669.75 94V96ZM677.795 94C677.243 94 676.795 94.4477 676.795 95C676.795 95.5523 677.243 96 677.795 96V94ZM685.841 96C686.393 96 686.841 95.5523 686.841 95C686.841 94.4477 686.393 94 685.841 94V96ZM693.886 94C693.334 94 692.886 94.4477 692.886 95C692.886 95.5523 693.334 96 693.886 96V94ZM701.932 96C702.484 96 702.932 95.5523 702.932 95C702.932 94.4477 702.484 94 701.932 94V96ZM709.977 94C709.425 94 708.977 94.4477 708.977 95C708.977 95.5523 709.425 96 709.977 96V94ZM715 91.2917C715 90.7394 714.552 90.2917 714 90.2917C713.448 90.2917 713 90.7394 713 91.2917H715ZM713 83.875C713 84.4273 713.448 84.875 714 84.875C714.552 84.875 715 84.4273 715 83.875H713ZM715 76.4583C715 75.9061 714.552 75.4583 714 75.4583C713.448 75.4583 713 75.9061 713 76.4583H715ZM713 69.0417C713 69.594 713.448 70.0417 714 70.0417C714.552 70.0417 715 69.594 715 69.0417H713ZM715 61.625C715 61.0727 714.552 60.625 714 60.625C713.448 60.625 713 61.0727 713 61.625H715ZM713 54.2083C713 54.7606 713.448 55.2083 714 55.2083C714.552 55.2083 715 54.7606 715 54.2083H713ZM715 46.7917C715 46.2394 714.552 45.7917 714 45.7917C713.448 45.7917 713 46.2394 713 46.7917H715ZM713 39.375C713 39.9273 713.448 40.375 714 40.375C714.552 40.375 715 39.9273 715 39.375H713ZM715 31.9583C715 31.406 714.552 30.9583 714 30.9583C713.448 30.9583 713 31.406 713 31.9583H715ZM713 24.5417C713 25.094 713.448 25.5417 714 25.5417C714.552 25.5417 715 25.094 715 24.5417H713ZM715 17.125C715 16.5727 714.552 16.125 714 16.125C713.448 16.125 713 16.5727 713 17.125H715ZM713 9.70834C713 10.2606 713.448 10.7083 714 10.7083C714.552 10.7083 715 10.2606 715 9.70834H713ZM7 168V164.35H5V168H7ZM7 157.05V149.75H5V157.05H7ZM7 142.45V135.15H5V142.45H7ZM7 127.85V120.55H5V127.85H7ZM7 113.25V105.95H5V113.25H7ZM7 98.65V95H5V98.65H7ZM6 96H10.0227V94H6V96ZM18.0682 96H26.1136V94H18.0682V96ZM34.1591 96H42.2045V94H34.1591V96ZM50.25 96H58.2955V94H50.25V96ZM66.3409 96H74.3864V94H66.3409V96ZM82.4318 96H90.4773V94H82.4318V96ZM98.5227 96H106.568V94H98.5227V96ZM114.614 96H122.659V94H114.614V96ZM130.705 96H138.75V94H130.705V96ZM146.795 96H154.841V94H146.795V96ZM162.886 96H170.932V94H162.886V96ZM178.977 96H187.023V94H178.977V96ZM195.068 96H203.114V94H195.068V96ZM211.159 96H219.205V94H211.159V96ZM227.25 96H235.295V94H227.25V96ZM243.341 96H251.386V94H243.341V96ZM259.432 96H267.477V94H259.432V96ZM275.523 96H283.568V94H275.523V96ZM291.614 96H299.659V94H291.614V96ZM307.704 96H315.75V94H307.704V96ZM323.795 96H331.841V94H323.795V96ZM339.886 96H347.932V94H339.886V96ZM355.977 96H364.023V94H355.977V96ZM372.068 96H380.113V94H372.068V96ZM388.159 96H396.204V94H388.159V96ZM404.25 96H412.295V94H404.25V96ZM420.341 96H428.386V94H420.341V96ZM436.432 96H444.477V94H436.432V96ZM452.522 96H460.568V94H452.522V96ZM468.613 96H476.659V94H468.613V96ZM484.704 96H492.75V94H484.704V96ZM500.795 96H508.841V94H500.795V96ZM516.886 96H524.931V94H516.886V96ZM532.977 96H541.022V94H532.977V96ZM549.068 96H557.113V94H549.068V96ZM565.159 96H573.204V94H565.159V96ZM581.25 96H589.295V94H581.25V96ZM597.341 96H605.386V94H597.341V96ZM613.432 96H621.477V94H613.432V96ZM629.523 96H637.568V94H629.523V96ZM645.613 96H653.659V94H645.613V96ZM661.704 96H669.75V94H661.704V96ZM677.795 96H685.841V94H677.795V96ZM693.886 96H701.932V94H693.886V96ZM709.977 96H714V94H709.977V96ZM715 95V91.2917H713V95H715ZM715 83.875V76.4583H713V83.875H715ZM715 69.0417V61.625H713V69.0417H715ZM715 54.2083V46.7917H713V54.2083H715ZM715 39.375V31.9583H713V39.375H715ZM715 24.5417V17.125H713V24.5417H715ZM715 9.70834V6H713V9.70834H715Z" fill="#606060"/>
</svg>
