<svg width="720" height="176" viewBox="0 0 720 176" fill="none" xmlns="http://www.w3.org/2000/svg">
<path d="M708.667 6C708.667 8.94552 711.055 11.3333 714 11.3333C716.945 11.3333 719.333 8.94552 719.333 6C719.333 3.05448 716.945 0.666667 714 0.666667C711.055 0.666667 708.667 3.05448 708.667 6ZM714 81V82C714.552 82 715 81.5523 715 81H714ZM6 81V80C5.44772 80 5 80.4477 5 81H6ZM0.666667 170C0.666667 172.946 3.05448 175.333 6 175.333C8.94552 175.333 11.3333 172.946 11.3333 170C11.3333 167.054 8.94552 164.667 6 164.667C3.05448 164.667 0.666667 167.054 0.666667 170ZM7 166.292C7 165.739 6.55228 165.292 6 165.292C5.44772 165.292 5 165.739 5 166.292H7ZM5 158.875C5 159.427 5.44772 159.875 6 159.875C6.55228 159.875 7 159.427 7 158.875H5ZM7 151.458C7 150.906 6.55228 150.458 6 150.458C5.44772 150.458 5 150.906 5 151.458H7ZM5 144.042C5 144.594 5.44772 145.042 6 145.042C6.55228 145.042 7 144.594 7 144.042H5ZM7 136.625C7 136.073 6.55228 135.625 6 135.625C5.44772 135.625 5 136.073 5 136.625H7ZM5 129.208C5 129.761 5.44772 130.208 6 130.208C6.55228 130.208 7 129.761 7 129.208H5ZM7 121.792C7 121.239 6.55228 120.792 6 120.792C5.44772 120.792 5 121.239 5 121.792H7ZM5 114.375C5 114.927 5.44772 115.375 6 115.375C6.55228 115.375 7 114.927 7 114.375H5ZM7 106.958C7 106.406 6.55228 105.958 6 105.958C5.44772 105.958 5 106.406 5 106.958H7ZM5 99.5417C5 100.094 5.44772 100.542 6 100.542C6.55228 100.542 7 100.094 7 99.5417H5ZM7 92.125C7 91.5727 6.55228 91.125 6 91.125C5.44772 91.125 5 91.5727 5 92.125H7ZM5 84.7083C5 85.2606 5.44772 85.7083 6 85.7083C6.55228 85.7083 7 85.2606 7 84.7083H5ZM10.0227 82C10.575 82 11.0227 81.5523 11.0227 81C11.0227 80.4477 10.575 80 10.0227 80V82ZM18.0682 80C17.5159 80 17.0682 80.4477 17.0682 81C17.0682 81.5523 17.5159 82 18.0682 82V80ZM26.1136 82C26.6659 82 27.1136 81.5523 27.1136 81C27.1136 80.4477 26.6659 80 26.1136 80V82ZM34.1591 80C33.6068 80 33.1591 80.4477 33.1591 81C33.1591 81.5523 33.6068 82 34.1591 82V80ZM42.2045 82C42.7568 82 43.2045 81.5523 43.2045 81C43.2045 80.4477 42.7568 80 42.2045 80V82ZM50.25 80C49.6977 80 49.25 80.4477 49.25 81C49.25 81.5523 49.6977 82 50.25 82V80ZM58.2955 82C58.8477 82 59.2955 81.5523 59.2955 81C59.2955 80.4477 58.8477 80 58.2955 80V82ZM66.3409 80C65.7886 80 65.3409 80.4477 65.3409 81C65.3409 81.5523 65.7886 82 66.3409 82V80ZM74.3864 82C74.9387 82 75.3864 81.5523 75.3864 81C75.3864 80.4477 74.9387 80 74.3864 80V82ZM82.4318 80C81.8795 80 81.4318 80.4477 81.4318 81C81.4318 81.5523 81.8795 82 82.4318 82V80ZM90.4773 82C91.0296 82 91.4773 81.5523 91.4773 81C91.4773 80.4477 91.0296 80 90.4773 80V82ZM98.5227 80C97.9705 80 97.5227 80.4477 97.5227 81C97.5227 81.5523 97.9705 82 98.5227 82V80ZM106.568 82C107.12 82 107.568 81.5523 107.568 81C107.568 80.4477 107.12 80 106.568 80V82ZM114.614 80C114.061 80 113.614 80.4477 113.614 81C113.614 81.5523 114.061 82 114.614 82V80ZM122.659 82C123.211 82 123.659 81.5523 123.659 81C123.659 80.4477 123.211 80 122.659 80V82ZM130.705 80C130.152 80 129.705 80.4477 129.705 81C129.705 81.5523 130.152 82 130.705 82V80ZM138.75 82C139.302 82 139.75 81.5523 139.75 81C139.75 80.4477 139.302 80 138.75 80V82ZM146.795 80C146.243 80 145.795 80.4477 145.795 81C145.795 81.5523 146.243 82 146.795 82V80ZM154.841 82C155.393 82 155.841 81.5523 155.841 81C155.841 80.4477 155.393 80 154.841 80V82ZM162.886 80C162.334 80 161.886 80.4477 161.886 81C161.886 81.5523 162.334 82 162.886 82V80ZM170.932 82C171.484 82 171.932 81.5523 171.932 81C171.932 80.4477 171.484 80 170.932 80V82ZM178.977 80C178.425 80 177.977 80.4477 177.977 81C177.977 81.5523 178.425 82 178.977 82V80ZM187.023 82C187.575 82 188.023 81.5523 188.023 81C188.023 80.4477 187.575 80 187.023 80V82ZM195.068 80C194.516 80 194.068 80.4477 194.068 81C194.068 81.5523 194.516 82 195.068 82V80ZM203.114 82C203.666 82 204.114 81.5523 204.114 81C204.114 80.4477 203.666 80 203.114 80V82ZM211.159 80C210.607 80 210.159 80.4477 210.159 81C210.159 81.5523 210.607 82 211.159 82V80ZM219.205 82C219.757 82 220.205 81.5523 220.205 81C220.205 80.4477 219.757 80 219.205 80V82ZM227.25 80C226.698 80 226.25 80.4477 226.25 81C226.25 81.5523 226.698 82 227.25 82V80ZM235.295 82C235.848 82 236.295 81.5523 236.295 81C236.295 80.4477 235.848 80 235.295 80V82ZM243.341 80C242.789 80 242.341 80.4477 242.341 81C242.341 81.5523 242.789 82 243.341 82V80ZM251.386 82C251.939 82 252.386 81.5523 252.386 81C252.386 80.4477 251.939 80 251.386 80V82ZM259.432 80C258.88 80 258.432 80.4477 258.432 81C258.432 81.5523 258.88 82 259.432 82V80ZM267.477 82C268.03 82 268.477 81.5523 268.477 81C268.477 80.4477 268.03 80 267.477 80V82ZM275.523 80C274.97 80 274.523 80.4477 274.523 81C274.523 81.5523 274.97 82 275.523 82V80ZM283.568 82C284.12 82 284.568 81.5523 284.568 81C284.568 80.4477 284.12 80 283.568 80V82ZM291.614 80C291.061 80 290.614 80.4477 290.614 81C290.614 81.5523 291.061 82 291.614 82V80ZM299.659 82C300.211 82 300.659 81.5523 300.659 81C300.659 80.4477 300.211 80 299.659 80V82ZM307.704 80C307.152 80 306.704 80.4477 306.704 81C306.704 81.5523 307.152 82 307.704 82V80ZM315.75 82C316.302 82 316.75 81.5523 316.75 81C316.75 80.4477 316.302 80 315.75 80V82ZM323.795 80C323.243 80 322.795 80.4477 322.795 81C322.795 81.5523 323.243 82 323.795 82V80ZM331.841 82C332.393 82 332.841 81.5523 332.841 81C332.841 80.4477 332.393 80 331.841 80V82ZM339.886 80C339.334 80 338.886 80.4477 338.886 81C338.886 81.5523 339.334 82 339.886 82V80ZM347.932 82C348.484 82 348.932 81.5523 348.932 81C348.932 80.4477 348.484 80 347.932 80V82ZM355.977 80C355.425 80 354.977 80.4477 354.977 81C354.977 81.5523 355.425 82 355.977 82V80ZM364.023 82C364.575 82 365.023 81.5523 365.023 81C365.023 80.4477 364.575 80 364.023 80V82ZM372.068 80C371.516 80 371.068 80.4477 371.068 81C371.068 81.5523 371.516 82 372.068 82V80ZM380.113 82C380.666 82 381.113 81.5523 381.113 81C381.113 80.4477 380.666 80 380.113 80V82ZM388.159 80C387.607 80 387.159 80.4477 387.159 81C387.159 81.5523 387.607 82 388.159 82V80ZM396.204 82C396.757 82 397.204 81.5523 397.204 81C397.204 80.4477 396.757 80 396.204 80V82ZM404.25 80C403.698 80 403.25 80.4477 403.25 81C403.25 81.5523 403.698 82 404.25 82V80ZM412.295 82C412.848 82 413.295 81.5523 413.295 81C413.295 80.4477 412.848 80 412.295 80V82ZM420.341 80C419.788 80 419.341 80.4477 419.341 81C419.341 81.5523 419.788 82 420.341 82V80ZM428.386 82C428.938 82 429.386 81.5523 429.386 81C429.386 80.4477 428.938 80 428.386 80V82ZM436.432 80C435.879 80 435.432 80.4477 435.432 81C435.432 81.5523 435.879 82 436.432 82V80ZM444.477 82C445.029 82 445.477 81.5523 445.477 81C445.477 80.4477 445.029 80 444.477 80V82ZM452.522 80C451.97 80 451.522 80.4477 451.522 81C451.522 81.5523 451.97 82 452.522 82V80ZM460.568 82C461.12 82 461.568 81.5523 461.568 81C461.568 80.4477 461.12 80 460.568 80V82ZM468.613 80C468.061 80 467.613 80.4477 467.613 81C467.613 81.5523 468.061 82 468.613 82V80ZM476.659 82C477.211 82 477.659 81.5523 477.659 81C477.659 80.4477 477.211 80 476.659 80V82ZM484.704 80C484.152 80 483.704 80.4477 483.704 81C483.704 81.5523 484.152 82 484.704 82V80ZM492.75 82C493.302 82 493.75 81.5523 493.75 81C493.75 80.4477 493.302 80 492.75 80V82ZM500.795 80C500.243 80 499.795 80.4477 499.795 81C499.795 81.5523 500.243 82 500.795 82V80ZM508.841 82C509.393 82 509.841 81.5523 509.841 81C509.841 80.4477 509.393 80 508.841 80V82ZM516.886 80C516.334 80 515.886 80.4477 515.886 81C515.886 81.5523 516.334 82 516.886 82V80ZM524.931 82C525.484 82 525.931 81.5523 525.931 81C525.931 80.4477 525.484 80 524.931 80V82ZM532.977 80C532.425 80 531.977 80.4477 531.977 81C531.977 81.5523 532.425 82 532.977 82V80ZM541.022 82C541.575 82 542.022 81.5523 542.022 81C542.022 80.4477 541.575 80 541.022 80V82ZM549.068 80C548.516 80 548.068 80.4477 548.068 81C548.068 81.5523 548.516 82 549.068 82V80ZM557.113 82C557.666 82 558.113 81.5523 558.113 81C558.113 80.4477 557.666 80 557.113 80V82ZM565.159 80C564.607 80 564.159 80.4477 564.159 81C564.159 81.5523 564.607 82 565.159 82V80ZM573.204 82C573.757 82 574.204 81.5523 574.204 81C574.204 80.4477 573.757 80 573.204 80V82ZM581.25 80C580.697 80 580.25 80.4477 580.25 81C580.25 81.5523 580.697 82 581.25 82V80ZM589.295 82C589.847 82 590.295 81.5523 590.295 81C590.295 80.4477 589.847 80 589.295 80V82ZM597.341 80C596.788 80 596.341 80.4477 596.341 81C596.341 81.5523 596.788 82 597.341 82V80ZM605.386 82C605.938 82 606.386 81.5523 606.386 81C606.386 80.4477 605.938 80 605.386 80V82ZM613.432 80C612.879 80 612.432 80.4477 612.432 81C612.432 81.5523 612.879 82 613.432 82V80ZM621.477 82C622.029 82 622.477 81.5523 622.477 81C622.477 80.4477 622.029 80 621.477 80V82ZM629.523 80C628.97 80 628.523 80.4477 628.523 81C628.523 81.5523 628.97 82 629.523 82V80ZM637.568 82C638.12 82 638.568 81.5523 638.568 81C638.568 80.4477 638.12 80 637.568 80V82ZM645.613 80C645.061 80 644.613 80.4477 644.613 81C644.613 81.5523 645.061 82 645.613 82V80ZM653.659 82C654.211 82 654.659 81.5523 654.659 81C654.659 80.4477 654.211 80 653.659 80V82ZM661.704 80C661.152 80 660.704 80.4477 660.704 81C660.704 81.5523 661.152 82 661.704 82V80ZM669.75 82C670.302 82 670.75 81.5523 670.75 81C670.75 80.4477 670.302 80 669.75 80V82ZM677.795 80C677.243 80 676.795 80.4477 676.795 81C676.795 81.5523 677.243 82 677.795 82V80ZM685.841 82C686.393 82 686.841 81.5523 686.841 81C686.841 80.4477 686.393 80 685.841 80V82ZM693.886 80C693.334 80 692.886 80.4477 692.886 81C692.886 81.5523 693.334 82 693.886 82V80ZM701.932 82C702.484 82 702.932 81.5523 702.932 81C702.932 80.4477 702.484 80 701.932 80V82ZM709.977 80C709.425 80 708.977 80.4477 708.977 81C708.977 81.5523 709.425 82 709.977 82V80ZM715 77.25C715 76.6977 714.552 76.25 714 76.25C713.448 76.25 713 76.6977 713 77.25H715ZM713 69.75C713 70.3023 713.448 70.75 714 70.75C714.552 70.75 715 70.3023 715 69.75H713ZM715 62.25C715 61.6977 714.552 61.25 714 61.25C713.448 61.25 713 61.6977 713 62.25H715ZM713 54.75C713 55.3023 713.448 55.75 714 55.75C714.552 55.75 715 55.3023 715 54.75H713ZM715 47.25C715 46.6977 714.552 46.25 714 46.25C713.448 46.25 713 46.6977 713 47.25H715ZM713 39.75C713 40.3023 713.448 40.75 714 40.75C714.552 40.75 715 40.3023 715 39.75H713ZM715 32.25C715 31.6977 714.552 31.25 714 31.25C713.448 31.25 713 31.6977 713 32.25H715ZM713 24.75C713 25.3023 713.448 25.75 714 25.75C714.552 25.75 715 25.3023 715 24.75H713ZM715 17.25C715 16.6977 714.552 16.25 714 16.25C713.448 16.25 713 16.6977 713 17.25H715ZM713 9.75C713 10.3023 713.448 10.75 714 10.75C714.552 10.75 715 10.3023 715 9.75H713ZM7 170V166.292H5V170H7ZM7 158.875V151.458H5V158.875H7ZM7 144.042V136.625H5V144.042H7ZM7 129.208V121.792H5V129.208H7ZM7 114.375V106.958H5V114.375H7ZM7 99.5417V92.125H5V99.5417H7ZM7 84.7083V81H5V84.7083H7ZM6 82H10.0227V80H6V82ZM18.0682 82H26.1136V80H18.0682V82ZM34.1591 82H42.2045V80H34.1591V82ZM50.25 82H58.2955V80H50.25V82ZM66.3409 82H74.3864V80H66.3409V82ZM82.4318 82H90.4773V80H82.4318V82ZM98.5227 82H106.568V80H98.5227V82ZM114.614 82H122.659V80H114.614V82ZM130.705 82H138.75V80H130.705V82ZM146.795 82H154.841V80H146.795V82ZM162.886 82H170.932V80H162.886V82ZM178.977 82H187.023V80H178.977V82ZM195.068 82H203.114V80H195.068V82ZM211.159 82H219.205V80H211.159V82ZM227.25 82H235.295V80H227.25V82ZM243.341 82H251.386V80H243.341V82ZM259.432 82H267.477V80H259.432V82ZM275.523 82H283.568V80H275.523V82ZM291.614 82H299.659V80H291.614V82ZM307.704 82H315.75V80H307.704V82ZM323.795 82H331.841V80H323.795V82ZM339.886 82H347.932V80H339.886V82ZM355.977 82H364.023V80H355.977V82ZM372.068 82H380.113V80H372.068V82ZM388.159 82H396.204V80H388.159V82ZM404.25 82H412.295V80H404.25V82ZM420.341 82H428.386V80H420.341V82ZM436.432 82H444.477V80H436.432V82ZM452.522 82H460.568V80H452.522V82ZM468.613 82H476.659V80H468.613V82ZM484.704 82H492.75V80H484.704V82ZM500.795 82H508.841V80H500.795V82ZM516.886 82H524.931V80H516.886V82ZM532.977 82H541.022V80H532.977V82ZM549.068 82H557.113V80H549.068V82ZM565.159 82H573.204V80H565.159V82ZM581.25 82H589.295V80H581.25V82ZM597.341 82H605.386V80H597.341V82ZM613.432 82H621.477V80H613.432V82ZM629.523 82H637.568V80H629.523V82ZM645.613 82H653.659V80H645.613V82ZM661.704 82H669.75V80H661.704V82ZM677.795 82H685.841V80H677.795V82ZM693.886 82H701.932V80H693.886V82ZM709.977 82H714V80H709.977V82ZM715 81V77.25H713V81H715ZM715 69.75V62.25H713V69.75H715ZM715 54.75V47.25H713V54.75H715ZM715 39.75V32.25H713V39.75H715ZM715 24.75V17.25H713V24.75H715ZM715 9.75V6H713V9.75H715Z" fill="#606060"/>
</svg>
