<svg width="720" height="221" viewBox="0 0 720 221" fill="none" xmlns="http://www.w3.org/2000/svg">
<path d="M11.3333 6C11.3333 8.94552 8.9455 11.3333 6 11.3333C3.0545 11.3333 0.666687 8.94552 0.666687 6C0.666687 3.05448 3.0545 0.666667 6 0.666667C8.9455 0.666667 11.3333 3.05448 11.3333 6ZM6 91.4827V92.4827C5.44769 92.4827 5 92.035 5 91.4827H6ZM714 91.4827V90.4827C714.552 90.4827 715 90.9304 715 91.4827H714ZM719.333 215C719.333 217.946 716.946 220.333 714 220.333C711.054 220.333 708.667 217.946 708.667 215C708.667 212.054 711.054 209.667 714 209.667C716.946 209.667 719.333 212.054 719.333 215ZM713 211.14C713 210.588 713.448 210.14 714 210.14C714.552 210.14 715 210.588 715 211.14H713ZM715 203.42C715 203.973 714.552 204.42 714 204.42C713.448 204.42 713 203.973 713 203.42H715ZM713 195.7C713 195.148 713.448 194.7 714 194.7C714.552 194.7 715 195.148 715 195.7H713ZM715 187.981C715 188.533 714.552 188.981 714 188.981C713.448 188.981 713 188.533 713 187.981H715ZM713 180.261C713 179.708 713.448 179.261 714 179.261C714.552 179.261 715 179.708 715 180.261H713ZM715 172.541C715 173.093 714.552 173.541 714 173.541C713.448 173.541 713 173.093 713 172.541H715ZM713 164.821C713 164.269 713.448 163.821 714 163.821C714.552 163.821 715 164.269 715 164.821H713ZM715 157.101C715 157.654 714.552 158.101 714 158.101C713.448 158.101 713 157.654 713 157.101H715ZM713 149.381C713 148.829 713.448 148.381 714 148.381C714.552 148.381 715 148.829 715 149.381H713ZM715 141.662C715 142.214 714.552 142.662 714 142.662C713.448 142.662 713 142.214 713 141.662H715ZM713 133.942C713 133.389 713.448 132.942 714 132.942C714.552 132.942 715 133.389 715 133.942H713ZM715 126.222C715 126.774 714.552 127.222 714 127.222C713.448 127.222 713 126.774 713 126.222H715ZM713 118.502C713 117.95 713.448 117.502 714 117.502C714.552 117.502 715 117.95 715 118.502H713ZM715 110.782C715 111.335 714.552 111.782 714 111.782C713.448 111.782 713 111.335 713 110.782H715ZM713 103.062C713 102.51 713.448 102.062 714 102.062C714.552 102.062 715 102.51 715 103.062H713ZM715 95.3426C715 95.8949 714.552 96.3426 714 96.3426C713.448 96.3426 713 95.8949 713 95.3426H715ZM709.977 92.4827C709.425 92.4827 708.977 92.035 708.977 91.4827C708.977 90.9304 709.425 90.4827 709.977 90.4827V92.4827ZM701.932 90.4827C702.484 90.4827 702.932 90.9304 702.932 91.4827C702.932 92.035 702.484 92.4827 701.932 92.4827V90.4827ZM693.886 92.4827C693.334 92.4827 692.886 92.035 692.886 91.4827C692.886 90.9304 693.334 90.4827 693.886 90.4827V92.4827ZM685.841 90.4827C686.393 90.4827 686.841 90.9304 686.841 91.4827C686.841 92.035 686.393 92.4827 685.841 92.4827V90.4827ZM677.795 92.4827C677.243 92.4827 676.795 92.035 676.795 91.4827C676.795 90.9304 677.243 90.4827 677.795 90.4827V92.4827ZM669.75 90.4827C670.302 90.4827 670.75 90.9304 670.75 91.4827C670.75 92.035 670.302 92.4827 669.75 92.4827V90.4827ZM661.705 92.4827C661.152 92.4827 660.705 92.035 660.705 91.4827C660.705 90.9304 661.152 90.4827 661.705 90.4827V92.4827ZM653.659 90.4827C654.211 90.4827 654.659 90.9304 654.659 91.4827C654.659 92.035 654.211 92.4827 653.659 92.4827V90.4827ZM645.614 92.4827C645.061 92.4827 644.614 92.035 644.614 91.4827C644.614 90.9304 645.061 90.4827 645.614 90.4827V92.4827ZM637.568 90.4827C638.12 90.4827 638.568 90.9304 638.568 91.4827C638.568 92.035 638.12 92.4827 637.568 92.4827V90.4827ZM629.523 92.4827C628.97 92.4827 628.523 92.035 628.523 91.4827C628.523 90.9304 628.97 90.4827 629.523 90.4827V92.4827ZM621.477 90.4827C622.03 90.4827 622.477 90.9304 622.477 91.4827C622.477 92.035 622.03 92.4827 621.477 92.4827V90.4827ZM613.432 92.4827C612.88 92.4827 612.432 92.035 612.432 91.4827C612.432 90.9304 612.88 90.4827 613.432 90.4827V92.4827ZM605.386 90.4827C605.939 90.4827 606.386 90.9304 606.386 91.4827C606.386 92.035 605.939 92.4827 605.386 92.4827V90.4827ZM597.341 92.4827C596.789 92.4827 596.341 92.035 596.341 91.4827C596.341 90.9304 596.789 90.4827 597.341 90.4827V92.4827ZM589.295 90.4827C589.848 90.4827 590.295 90.9304 590.295 91.4827C590.295 92.035 589.848 92.4827 589.295 92.4827V90.4827ZM581.25 92.4827C580.698 92.4827 580.25 92.035 580.25 91.4827C580.25 90.9304 580.698 90.4827 581.25 90.4827V92.4827ZM573.205 90.4827C573.757 90.4827 574.205 90.9304 574.205 91.4827C574.205 92.035 573.757 92.4827 573.205 92.4827V90.4827ZM565.159 92.4827C564.607 92.4827 564.159 92.035 564.159 91.4827C564.159 90.9304 564.607 90.4827 565.159 90.4827V92.4827ZM557.114 90.4827C557.666 90.4827 558.114 90.9304 558.114 91.4827C558.114 92.035 557.666 92.4827 557.114 92.4827V90.4827ZM549.068 92.4827C548.516 92.4827 548.068 92.035 548.068 91.4827C548.068 90.9304 548.516 90.4827 549.068 90.4827V92.4827ZM541.023 90.4827C541.575 90.4827 542.023 90.9304 542.023 91.4827C542.023 92.035 541.575 92.4827 541.023 92.4827V90.4827ZM532.977 92.4827C532.425 92.4827 531.977 92.035 531.977 91.4827C531.977 90.9304 532.425 90.4827 532.977 90.4827V92.4827ZM524.932 90.4827C525.484 90.4827 525.932 90.9304 525.932 91.4827C525.932 92.035 525.484 92.4827 524.932 92.4827V90.4827ZM516.886 92.4827C516.334 92.4827 515.886 92.035 515.886 91.4827C515.886 90.9304 516.334 90.4827 516.886 90.4827V92.4827ZM508.841 90.4827C509.393 90.4827 509.841 90.9304 509.841 91.4827C509.841 92.035 509.393 92.4827 508.841 92.4827V90.4827ZM500.795 92.4827C500.243 92.4827 499.795 92.035 499.795 91.4827C499.795 90.9304 500.243 90.4827 500.795 90.4827V92.4827ZM492.75 90.4827C493.302 90.4827 493.75 90.9304 493.75 91.4827C493.75 92.035 493.302 92.4827 492.75 92.4827V90.4827ZM484.705 92.4827C484.152 92.4827 483.705 92.035 483.705 91.4827C483.705 90.9304 484.152 90.4827 484.705 90.4827V92.4827ZM476.659 90.4827C477.211 90.4827 477.659 90.9304 477.659 91.4827C477.659 92.035 477.211 92.4827 476.659 92.4827V90.4827ZM468.614 92.4827C468.061 92.4827 467.614 92.035 467.614 91.4827C467.614 90.9304 468.061 90.4827 468.614 90.4827V92.4827ZM460.568 90.4827C461.12 90.4827 461.568 90.9304 461.568 91.4827C461.568 92.035 461.12 92.4827 460.568 92.4827V90.4827ZM452.523 92.4827C451.97 92.4827 451.523 92.035 451.523 91.4827C451.523 90.9304 451.97 90.4827 452.523 90.4827V92.4827ZM444.477 90.4827C445.03 90.4827 445.477 90.9304 445.477 91.4827C445.477 92.035 445.03 92.4827 444.477 92.4827V90.4827ZM436.432 92.4827C435.88 92.4827 435.432 92.035 435.432 91.4827C435.432 90.9304 435.88 90.4827 436.432 90.4827V92.4827ZM428.386 90.4827C428.939 90.4827 429.386 90.9304 429.386 91.4827C429.386 92.035 428.939 92.4827 428.386 92.4827V90.4827ZM420.341 92.4827C419.789 92.4827 419.341 92.035 419.341 91.4827C419.341 90.9304 419.789 90.4827 420.341 90.4827V92.4827ZM412.296 90.4827C412.848 90.4827 413.296 90.9304 413.296 91.4827C413.296 92.035 412.848 92.4827 412.296 92.4827V90.4827ZM404.25 92.4827C403.698 92.4827 403.25 92.035 403.25 91.4827C403.25 90.9304 403.698 90.4827 404.25 90.4827V92.4827ZM396.205 90.4827C396.757 90.4827 397.205 90.9304 397.205 91.4827C397.205 92.035 396.757 92.4827 396.205 92.4827V90.4827ZM388.159 92.4827C387.607 92.4827 387.159 92.035 387.159 91.4827C387.159 90.9304 387.607 90.4827 388.159 90.4827V92.4827ZM380.114 90.4827C380.666 90.4827 381.114 90.9304 381.114 91.4827C381.114 92.035 380.666 92.4827 380.114 92.4827V90.4827ZM372.068 92.4827C371.516 92.4827 371.068 92.035 371.068 91.4827C371.068 90.9304 371.516 90.4827 372.068 90.4827V92.4827ZM364.023 90.4827C364.575 90.4827 365.023 90.9304 365.023 91.4827C365.023 92.035 364.575 92.4827 364.023 92.4827V90.4827ZM355.977 92.4827C355.425 92.4827 354.977 92.035 354.977 91.4827C354.977 90.9304 355.425 90.4827 355.977 90.4827V92.4827ZM347.932 90.4827C348.484 90.4827 348.932 90.9304 348.932 91.4827C348.932 92.035 348.484 92.4827 347.932 92.4827V90.4827ZM339.887 92.4827C339.334 92.4827 338.887 92.035 338.887 91.4827C338.887 90.9304 339.334 90.4827 339.887 90.4827V92.4827ZM331.841 90.4827C332.393 90.4827 332.841 90.9304 332.841 91.4827C332.841 92.035 332.393 92.4827 331.841 92.4827V90.4827ZM323.796 92.4827C323.243 92.4827 322.796 92.035 322.796 91.4827C322.796 90.9304 323.243 90.4827 323.796 90.4827V92.4827ZM315.75 90.4827C316.302 90.4827 316.75 90.9304 316.75 91.4827C316.75 92.035 316.302 92.4827 315.75 92.4827V90.4827ZM307.705 92.4827C307.152 92.4827 306.705 92.035 306.705 91.4827C306.705 90.9304 307.152 90.4827 307.705 90.4827V92.4827ZM299.659 90.4827C300.212 90.4827 300.659 90.9304 300.659 91.4827C300.659 92.035 300.212 92.4827 299.659 92.4827V90.4827ZM291.614 92.4827C291.062 92.4827 290.614 92.035 290.614 91.4827C290.614 90.9304 291.062 90.4827 291.614 90.4827V92.4827ZM283.568 90.4827C284.121 90.4827 284.568 90.9304 284.568 91.4827C284.568 92.035 284.121 92.4827 283.568 92.4827V90.4827ZM275.523 92.4827C274.971 92.4827 274.523 92.035 274.523 91.4827C274.523 90.9304 274.971 90.4827 275.523 90.4827V92.4827ZM267.478 90.4827C268.03 90.4827 268.478 90.9304 268.478 91.4827C268.478 92.035 268.03 92.4827 267.478 92.4827V90.4827ZM259.432 92.4827C258.88 92.4827 258.432 92.035 258.432 91.4827C258.432 90.9304 258.88 90.4827 259.432 90.4827V92.4827ZM251.387 90.4827C251.939 90.4827 252.387 90.9304 252.387 91.4827C252.387 92.035 251.939 92.4827 251.387 92.4827V90.4827ZM243.341 92.4827C242.789 92.4827 242.341 92.035 242.341 91.4827C242.341 90.9304 242.789 90.4827 243.341 90.4827V92.4827ZM235.296 90.4827C235.848 90.4827 236.296 90.9304 236.296 91.4827C236.296 92.035 235.848 92.4827 235.296 92.4827V90.4827ZM227.25 92.4827C226.698 92.4827 226.25 92.035 226.25 91.4827C226.25 90.9304 226.698 90.4827 227.25 90.4827V92.4827ZM219.205 90.4827C219.757 90.4827 220.205 90.9304 220.205 91.4827C220.205 92.035 219.757 92.4827 219.205 92.4827V90.4827ZM211.159 92.4827C210.607 92.4827 210.159 92.035 210.159 91.4827C210.159 90.9304 210.607 90.4827 211.159 90.4827V92.4827ZM203.114 90.4827C203.666 90.4827 204.114 90.9304 204.114 91.4827C204.114 92.035 203.666 92.4827 203.114 92.4827V90.4827ZM195.069 92.4827C194.516 92.4827 194.069 92.035 194.069 91.4827C194.069 90.9304 194.516 90.4827 195.069 90.4827V92.4827ZM187.023 90.4827C187.575 90.4827 188.023 90.9304 188.023 91.4827C188.023 92.035 187.575 92.4827 187.023 92.4827V90.4827ZM178.978 92.4827C178.425 92.4827 177.978 92.035 177.978 91.4827C177.978 90.9304 178.425 90.4827 178.978 90.4827V92.4827ZM170.932 90.4827C171.484 90.4827 171.932 90.9304 171.932 91.4827C171.932 92.035 171.484 92.4827 170.932 92.4827V90.4827ZM162.887 92.4827C162.334 92.4827 161.887 92.035 161.887 91.4827C161.887 90.9304 162.334 90.4827 162.887 90.4827V92.4827ZM154.841 90.4827C155.393 90.4827 155.841 90.9304 155.841 91.4827C155.841 92.035 155.393 92.4827 154.841 92.4827V90.4827ZM146.796 92.4827C146.243 92.4827 145.796 92.035 145.796 91.4827C145.796 90.9304 146.243 90.4827 146.796 90.4827V92.4827ZM138.75 90.4827C139.303 90.4827 139.75 90.9304 139.75 91.4827C139.75 92.035 139.303 92.4827 138.75 92.4827V90.4827ZM130.705 92.4827C130.153 92.4827 129.705 92.035 129.705 91.4827C129.705 90.9304 130.153 90.4827 130.705 90.4827V92.4827ZM122.659 90.4827C123.212 90.4827 123.659 90.9304 123.659 91.4827C123.659 92.035 123.212 92.4827 122.659 92.4827V90.4827ZM114.614 92.4827C114.062 92.4827 113.614 92.035 113.614 91.4827C113.614 90.9304 114.062 90.4827 114.614 90.4827V92.4827ZM106.568 90.4827C107.121 90.4827 107.568 90.9304 107.568 91.4827C107.568 92.035 107.121 92.4827 106.568 92.4827V90.4827ZM98.5229 92.4827C97.9706 92.4827 97.5229 92.035 97.5229 91.4827C97.5229 90.9304 97.9706 90.4827 98.5229 90.4827V92.4827ZM90.4775 90.4827C91.0298 90.4827 91.4775 90.9304 91.4775 91.4827C91.4775 92.035 91.0298 92.4827 90.4775 92.4827V90.4827ZM82.432 92.4827C81.8797 92.4827 81.432 92.035 81.432 91.4827C81.432 90.9304 81.8797 90.4827 82.432 90.4827V92.4827ZM74.3865 90.4827C74.9388 90.4827 75.3865 90.9304 75.3865 91.4827C75.3865 92.035 74.9388 92.4827 74.3865 92.4827V90.4827ZM66.3411 92.4827C65.7888 92.4827 65.3411 92.035 65.3411 91.4827C65.3411 90.9304 65.7888 90.4827 66.3411 90.4827V92.4827ZM58.2956 90.4827C58.8478 90.4827 59.2956 90.9304 59.2956 91.4827C59.2956 92.035 58.8478 92.4827 58.2956 92.4827V90.4827ZM50.2501 92.4827C49.6978 92.4827 49.2501 92.035 49.2501 91.4827C49.2501 90.9304 49.6978 90.4827 50.2501 90.4827V92.4827ZM42.2047 90.4827C42.7569 90.4827 43.2047 90.9304 43.2047 91.4827C43.2047 92.035 42.7569 92.4827 42.2047 92.4827V90.4827ZM34.1592 92.4827C33.6069 92.4827 33.1592 92.035 33.1592 91.4827C33.1592 90.9304 33.6069 90.4827 34.1592 90.4827V92.4827ZM26.1137 90.4827C26.666 90.4827 27.1137 90.9304 27.1137 91.4827C27.1137 92.035 26.666 92.4827 26.1137 92.4827V90.4827ZM18.0682 92.4827C17.516 92.4827 17.0682 92.035 17.0682 91.4827C17.0682 90.9304 17.516 90.4827 18.0682 90.4827V92.4827ZM10.0228 90.4827C10.5751 90.4827 11.0228 90.9304 11.0228 91.4827C11.0228 92.035 10.5751 92.4827 10.0228 92.4827V90.4827ZM5 87.2085C5 86.6562 5.44769 86.2085 6 86.2085C6.55231 86.2085 7 86.6562 7 87.2085H5ZM7 78.6603C7 79.2126 6.55231 79.6603 6 79.6603C5.44769 79.6603 5 79.2126 5 78.6603H7ZM5 70.112C5 69.5597 5.44769 69.112 6 69.112C6.55231 69.112 7 69.5597 7 70.112H5ZM7 61.5637C7 62.116 6.55231 62.5637 6 62.5637C5.44769 62.5637 5 62.116 5 61.5637H7ZM5 53.0155C5 52.4632 5.44769 52.0155 6 52.0155C6.55231 52.0155 7 52.4632 7 53.0155H5ZM7 44.4672C7 45.0195 6.55231 45.4672 6 45.4672C5.44769 45.4672 5 45.0195 5 44.4672H7ZM5 35.9189C5 35.3666 5.44769 34.9189 6 34.9189C6.55231 34.9189 7 35.3666 7 35.9189H5ZM7 27.3707C7 27.923 6.55231 28.3707 6 28.3707C5.44769 28.3707 5 27.923 5 27.3707H7ZM5 18.8224C5 18.2701 5.44769 17.8224 6 17.8224C6.55231 17.8224 7 18.2701 7 18.8224H5ZM7 10.2741C7 10.8264 6.55231 11.2741 6 11.2741C5.44769 11.2741 5 10.8264 5 10.2741H7ZM713 215V211.14H715V215H713ZM713 203.42V195.7H715V203.42H713ZM713 187.981V180.261H715V187.981H713ZM713 172.541V164.821H715V172.541H713ZM713 157.101V149.381H715V157.101H713ZM713 141.662V133.942H715V141.662H713ZM713 126.222V118.502H715V126.222H713ZM713 110.782V103.062H715V110.782H713ZM713 95.3426V91.4827H715V95.3426H713ZM714 92.4827H709.977V90.4827H714V92.4827ZM701.932 92.4827H693.886V90.4827H701.932V92.4827ZM685.841 92.4827H677.795V90.4827H685.841V92.4827ZM669.75 92.4827H661.705V90.4827H669.75V92.4827ZM653.659 92.4827H645.614V90.4827H653.659V92.4827ZM637.568 92.4827H629.523V90.4827H637.568V92.4827ZM621.477 92.4827H613.432V90.4827H621.477V92.4827ZM605.386 92.4827H597.341V90.4827H605.386V92.4827ZM589.295 92.4827H581.25V90.4827H589.295V92.4827ZM573.205 92.4827H565.159V90.4827H573.205V92.4827ZM557.114 92.4827H549.068V90.4827H557.114V92.4827ZM541.023 92.4827H532.977V90.4827H541.023V92.4827ZM524.932 92.4827H516.886V90.4827H524.932V92.4827ZM508.841 92.4827H500.795V90.4827H508.841V92.4827ZM492.75 92.4827H484.705V90.4827H492.75V92.4827ZM476.659 92.4827H468.614V90.4827H476.659V92.4827ZM460.568 92.4827H452.523V90.4827H460.568V92.4827ZM444.477 92.4827H436.432V90.4827H444.477V92.4827ZM428.386 92.4827H420.341V90.4827H428.386V92.4827ZM412.296 92.4827H404.25V90.4827H412.296V92.4827ZM396.205 92.4827H388.159V90.4827H396.205V92.4827ZM380.114 92.4827H372.068V90.4827H380.114V92.4827ZM364.023 92.4827H355.977V90.4827H364.023V92.4827ZM347.932 92.4827H339.887V90.4827H347.932V92.4827ZM331.841 92.4827H323.796V90.4827H331.841V92.4827ZM315.75 92.4827H307.705V90.4827H315.75V92.4827ZM299.659 92.4827H291.614V90.4827H299.659V92.4827ZM283.568 92.4827H275.523V90.4827H283.568V92.4827ZM267.478 92.4827H259.432V90.4827H267.478V92.4827ZM251.387 92.4827H243.341V90.4827H251.387V92.4827ZM235.296 92.4827H227.25V90.4827H235.296V92.4827ZM219.205 92.4827H211.159V90.4827H219.205V92.4827ZM203.114 92.4827H195.069V90.4827H203.114V92.4827ZM187.023 92.4827H178.978V90.4827H187.023V92.4827ZM170.932 92.4827H162.887V90.4827H170.932V92.4827ZM154.841 92.4827H146.796V90.4827H154.841V92.4827ZM138.75 92.4827H130.705V90.4827H138.75V92.4827ZM122.659 92.4827H114.614V90.4827H122.659V92.4827ZM106.568 92.4827H98.5229V90.4827H106.568V92.4827ZM90.4775 92.4827H82.432V90.4827H90.4775V92.4827ZM74.3865 92.4827H66.3411V90.4827H74.3865V92.4827ZM58.2956 92.4827H50.2501V90.4827H58.2956V92.4827ZM42.2047 92.4827H34.1592V90.4827H42.2047V92.4827ZM26.1137 92.4827H18.0682V90.4827H26.1137V92.4827ZM10.0228 92.4827H6V90.4827H10.0228V92.4827ZM5 91.4827V87.2085H7V91.4827H5ZM5 78.6603V70.112H7V78.6603H5ZM5 61.5637V53.0155H7V61.5637H5ZM5 44.4672V35.9189H7V44.4672H5ZM5 27.3707V18.8224H7V27.3707H5ZM5 10.2741V6H7V10.2741H5Z" fill="#606060"/>
</svg>
