<svg width="128" height="128" viewBox="0 0 128 128" fill="none" xmlns="http://www.w3.org/2000/svg">
<rect x="0.5" y="0.5" width="127" height="127" rx="7.5" stroke="#2E63D8"/>
<g clip-path="url(#clip0_1_283)">
<path d="M54.5575 44.7213H57.4575C58.7875 44.7213 59.865 45.7988 59.865 47.1275V88.135C59.865 89.4637 58.7875 90.5412 57.4575 90.5412H35.3438C34.015 90.5412 32.9375 89.4637 32.9375 88.135V47.1275C32.9375 45.7988 34.015 44.7213 35.3438 44.7213H38.2438" stroke="#2E63D8" stroke-width="1.96289" stroke-miterlimit="10" stroke-linecap="round" stroke-linejoin="round"/>
<path d="M43.2586 60.534H49.5435" stroke="#2E63D8" stroke-width="1.96289" stroke-miterlimit="10" stroke-linecap="round" stroke-linejoin="round"/>
<path d="M37.863 64.7636H54.9391" stroke="#2E63D8" stroke-width="1.96289" stroke-miterlimit="10" stroke-linecap="round" stroke-linejoin="round"/>
<path d="M37.863 68.9933H54.9391" stroke="#2E63D8" stroke-width="1.96289" stroke-miterlimit="10" stroke-linecap="round" stroke-linejoin="round"/>
<path d="M53.5435 77.211H39.2585C38.4878 77.211 37.863 77.8357 37.863 78.6065V84.2748C37.863 85.0455 38.4878 85.6703 39.2585 85.6703H53.5435C54.3143 85.6703 54.939 85.0455 54.939 84.2748V78.6065C54.9391 77.8359 54.3143 77.211 53.5435 77.211Z" stroke="#2E63D8" stroke-width="1.96289" stroke-miterlimit="10" stroke-linecap="round" stroke-linejoin="round"/>
<path d="M42.6388 49.1166L46.2173 39.7207C46.2904 39.542 46.5435 39.5417 46.6169 39.7204L50.1629 49.1166" stroke="#2E63D8" stroke-width="1.96289" stroke-miterlimit="10" stroke-linecap="round" stroke-linejoin="round"/>
<path d="M43.755 46.7766H49.0651" stroke="#2E63D8" stroke-width="1.96289" stroke-miterlimit="10" stroke-linecap="round" stroke-linejoin="round"/>
<path d="M38.2441 40.3384V38.5544C38.2441 37.2512 39.3005 36.1947 40.6037 36.1947H52.1984C53.5015 36.1947 54.558 37.2511 54.558 38.5544V50.149C54.558 51.4521 53.5016 52.5086 52.1984 52.5086H40.6037C39.3006 52.5086 38.2441 51.4523 38.2441 50.149V44.7212" stroke="#2E63D8" stroke-width="1.96289" stroke-miterlimit="10" stroke-linecap="round" stroke-linejoin="round"/>
<path d="M84.7685 90.5412H70.5425C69.2125 90.5412 68.135 89.4637 68.135 88.135V47.1275C68.135 45.7988 69.2125 44.7213 70.5425 44.7213H73.4425" stroke="#2E63D8" stroke-width="1.96289" stroke-miterlimit="10" stroke-linecap="round" stroke-linejoin="round"/>
<path d="M89.7562 44.7213H92.6562C93.985 44.7213 95.0625 45.7988 95.0625 47.1275V88.135C95.0625 89.4637 93.985 90.5412 92.6562 90.5412H89.1571" stroke="#2E63D8" stroke-width="1.96289" stroke-miterlimit="10" stroke-linecap="round" stroke-linejoin="round"/>
<path d="M73.0609 77.211H90.137" stroke="#2E63D8" stroke-width="1.96289" stroke-miterlimit="10" stroke-linecap="round" stroke-linejoin="round"/>
<path d="M73.0609 81.4408H90.137" stroke="#2E63D8" stroke-width="1.96289" stroke-miterlimit="10" stroke-linecap="round" stroke-linejoin="round"/>
<path d="M78.7451 85.6704H84.5961" stroke="#2E63D8" stroke-width="1.96289" stroke-miterlimit="10" stroke-linecap="round" stroke-linejoin="round"/>
<path d="M78.0373 59.1721H74.4564C73.6856 59.1721 73.0609 59.7969 73.0609 60.5676V70.8226C73.0609 71.5934 73.6856 72.2181 74.4564 72.2181H78.0373C78.808 72.2181 79.4328 71.5934 79.4328 70.8226V60.5676C79.4329 59.7969 78.808 59.1721 78.0373 59.1721Z" stroke="#2E63D8" stroke-width="1.96289" stroke-miterlimit="10" stroke-linecap="round" stroke-linejoin="round"/>
<path d="M88.7415 59.1721H85.3334C84.5626 59.1721 83.9379 59.7969 83.9379 60.5676V70.8226C83.9379 71.5934 84.5626 72.2181 85.3334 72.2181H88.7415C89.5123 72.2181 90.137 71.5934 90.137 70.8226V60.5676C90.137 59.7969 89.5123 59.1721 88.7415 59.1721Z" stroke="#2E63D8" stroke-width="1.96289" stroke-miterlimit="10" stroke-linecap="round" stroke-linejoin="round"/>
<path d="M83.6517 41.7795C83.6517 42.9906 82.6699 43.9724 81.4588 43.9724C80.8582 43.9724 78.6906 43.9821 78.6906 43.9821C78.6906 43.9821 78.6906 42.39 78.6906 41.7795C78.6906 41.2781 78.6906 39.5866 78.6906 39.5866C78.6906 39.5866 80.7491 39.5866 81.4588 39.5866C82.6699 39.5866 83.6517 40.5684 83.6517 41.7795Z" stroke="#2E63D8" stroke-width="1.96289" stroke-miterlimit="10" stroke-linecap="round" stroke-linejoin="round"/>
<path d="M84.5076 46.5401C84.5076 47.9569 83.3591 49.1054 81.9423 49.1054C81.2397 49.1054 78.6906 49.1167 78.6906 49.1167C78.6906 49.1167 78.6906 47.2544 78.6906 46.5402C78.6906 45.9537 78.6906 43.975 78.6906 43.975C78.6906 43.975 81.1121 43.975 81.9423 43.975C83.3592 43.975 84.5076 45.1234 84.5076 46.5401Z" stroke="#2E63D8" stroke-width="1.96289" stroke-miterlimit="10" stroke-linecap="round" stroke-linejoin="round"/>
<path d="M87.3963 52.5085H75.8016C74.4985 52.5085 73.442 51.4521 73.442 50.1489V38.5544C73.442 37.2512 74.4984 36.1947 75.8016 36.1947H87.3963C88.6994 36.1947 89.7559 37.2511 89.7559 38.5544V50.149C89.7559 51.4521 88.6994 52.5085 87.3963 52.5085Z" stroke="#2E63D8" stroke-width="1.96289" stroke-miterlimit="10" stroke-linecap="round" stroke-linejoin="round"/>
<path d="M64 33.1113V35.1113" stroke="#2E63D8" stroke-width="1.96289" stroke-linecap="round" stroke-linejoin="round"/>
<path d="M64 39.8512V90.5187" stroke="#2E63D8" stroke-width="1.96289" stroke-linecap="round" stroke-linejoin="round" stroke-dasharray="4.29 4.96"/>
<path d="M64 92.8887V94.8887" stroke="#2E63D8" stroke-width="1.96289" stroke-linecap="round" stroke-linejoin="round"/>
</g>
<defs>
<clipPath id="clip0_1_283">
<rect width="64" height="64" fill="white" transform="translate(32 32)"/>
</clipPath>
</defs>
</svg>
