<svg width="128" height="128" viewBox="0 0 128 128" fill="none" xmlns="http://www.w3.org/2000/svg">
<rect x="0.5" y="0.5" width="127" height="127" rx="7.5" stroke="#FF800B"/>
<path d="M94 33H70C69.447 33 69 33.448 69 34V66C69 66.552 69.447 67 70 67H94C94.553 67 95 66.552 95 66V34C95 33.448 94.553 33 94 33ZM93 65H71V35H93V65Z" fill="#FF800B"/>
<path d="M92 70H66C64.346 70 63 71.346 63 73V92C63 93.654 64.346 95 66 95H92C93.654 95 95 93.654 95 92V73C95 71.346 93.654 70 92 70ZM93 92C93 92.551 92.552 93 92 93H66C65.448 93 65 92.551 65 92V73C65 72.449 65.448 72 66 72H92C92.552 72 93 72.449 93 73V92Z" fill="#FF800B"/>
<path d="M89 88H87C87 87.448 86.553 87 86 87C85.447 87 85 87.448 85 88H69C67.676 88 67.677 90 69 90H85C85 90.552 85.447 91 86 91C86.553 91 87 90.552 87 90H89C90.324 90 90.323 88 89 88Z" fill="#FF800B"/>
<path d="M65 63V39C65 37.346 63.654 36 62 36H36C34.346 36 33 37.346 33 39V63C33 64.654 34.346 66 36 66H62C63.654 66 65 64.654 65 63ZM63 63C63 63.551 62.552 64 62 64H36C35.448 64 35 63.551 35 63V39C35 38.449 35.448 38 36 38H62C62.552 38 63 38.449 63 39V63Z" fill="#FF800B"/>
<path d="M53 49C55.206 49 57 47.206 57 45C57 42.794 55.206 41 53 41C50.794 41 49 42.794 49 45C49 47.206 50.794 49 53 49ZM53 43C54.103 43 55 43.897 55 45C55 46.103 54.103 47 53 47C51.897 47 51 46.103 51 45C51 43.897 51.897 43 53 43Z" fill="#FF800B"/>
<path d="M56.707 52.293C56.316 51.902 55.684 51.902 55.293 52.293L52 55.586L45.707 49.293C45.316 48.902 44.684 48.902 44.293 49.293L37.293 56.293C36.357 57.229 37.772 58.642 38.707 57.707L45 51.414L51.293 57.707C51.684 58.098 52.316 58.098 52.707 57.707L56 54.414L59.293 57.707C60.215 58.629 61.655 57.24 60.707 56.293L56.707 52.293Z" fill="#FF800B"/>
<path d="M75 40H85C86.324 40 86.323 38 85 38H75C73.676 38 73.677 40 75 40Z" fill="#FF800B"/>
<path d="M75 49H89C90.324 49 90.323 47 89 47H75C73.676 47 73.677 49 75 49Z" fill="#FF800B"/>
<path d="M75 58H89C90.324 58 90.323 56 89 56H75C73.676 56 73.677 58 75 58Z" fill="#FF800B"/>
<path d="M75 62H80C81.324 62 81.323 60 80 60H75C73.676 60 73.677 62 75 62Z" fill="#FF800B"/>
<path d="M75 45H77C78.324 45 78.323 43 77 43H75C73.676 43 73.677 45 75 45Z" fill="#FF800B"/>
<path d="M82 45H89C90.324 45 90.323 43 89 43H82C80.676 43 80.677 45 82 45Z" fill="#FF800B"/>
<path d="M75 54H82C83.324 54 83.323 52 82 52H75C73.676 52 73.677 54 75 54Z" fill="#FF800B"/>
<path d="M89 52H87C85.676 52 85.677 54 87 54H89C90.324 54 90.323 52 89 52Z" fill="#FF800B"/>
<path d="M47 69C39.28 69 33 73.935 33 80C33 82.469 34.062 84.874 36 86.814V94C36 94.896 37.083 95.331 37.707 94.707L42.106 90.308C43.65 90.768 45.294 91 47 91C54.72 91 61 86.065 61 80C61 73.935 54.72 69 47 69ZM47 89C45.291 89 43.661 88.739 42.153 88.224C41.794 88.1 41.392 88.192 41.123 88.463L38 91.586V86.39C38 86.112 37.885 85.847 37.682 85.658C35.927 84.026 35 82.069 35 80C35 75.038 40.383 71 47 71C53.617 71 59 75.038 59 80C59 84.962 53.617 89 47 89Z" fill="#FF800B"/>
<path d="M47 81.5C47.8284 81.5 48.5 80.8284 48.5 80C48.5 79.1716 47.8284 78.5 47 78.5C46.1716 78.5 45.5 79.1716 45.5 80C45.5 80.8284 46.1716 81.5 47 81.5Z" fill="#FF800B"/>
<path d="M54 81.5C54.8284 81.5 55.5 80.8284 55.5 80C55.5 79.1716 54.8284 78.5 54 78.5C53.1716 78.5 52.5 79.1716 52.5 80C52.5 80.8284 53.1716 81.5 54 81.5Z" fill="#FF800B"/>
<path d="M40 81.5C40.8284 81.5 41.5 80.8284 41.5 80C41.5 79.1716 40.8284 78.5 40 78.5C39.1716 78.5 38.5 79.1716 38.5 80C38.5 80.8284 39.1716 81.5 40 81.5Z" fill="#FF800B"/>
<path d="M77.262 85.714L83.909 81.884C85.357 81.051 85.357 78.954 83.909 78.12L77.263 74.292C75.819 73.456 74 74.505 74 76.173V83.831C74 85.521 75.835 86.533 77.262 85.714ZM76 76.173C76 76.044 76.146 75.956 76.264 76.025L82.911 79.854C83.025 79.92 83.025 80.085 82.911 80.151L76.265 83.98C76.147 84.046 76 83.965 76 83.832V76.173Z" fill="#FF800B"/>
</svg>
