<svg width="128" height="128" viewBox="0 0 128 128" fill="none" xmlns="http://www.w3.org/2000/svg">
<rect x="0.5" y="0.5" width="127" height="127" rx="7.5" stroke="#0085FF"/>
<g clip-path="url(#clip0_1_335)">
<path d="M43.0297 43.0296C39.6838 46.3755 37.8412 50.8238 37.8412 55.5556C37.8412 60.2873 39.6838 64.7358 43.0297 68.0816C46.3755 71.4276 50.8239 73.2702 55.5557 73.2702C60.2874 73.2702 64.7358 71.4276 68.0817 68.0816C74.9884 61.1748 74.9884 49.9366 68.0817 43.0296C61.1749 36.1228 49.9367 36.1227 43.0297 43.0296ZM47.057 69.3702C47.4877 68.3415 48.5103 67.6358 49.6524 67.6358C50.0582 67.6358 50.4522 67.579 50.8268 67.4732C52.238 68.3803 53.8644 68.8586 55.5557 68.8586C57.2469 68.8586 58.8734 68.3803 60.2847 67.4732C60.6593 67.579 61.0533 67.6358 61.4592 67.6358C62.6013 67.6358 63.6238 68.3415 64.0544 69.3702C61.5242 70.9333 58.6045 71.7701 55.5559 71.7701C52.5073 71.7701 49.5874 70.9332 47.0573 69.3701L47.057 69.3702ZM47.498 55.2496C47.498 54.5982 47.8737 54.0341 48.4188 53.7587V56.7405C47.8735 56.465 47.498 55.901 47.498 55.2496ZM49.1688 52.049C49.0848 52.049 49.0044 52.0633 48.929 52.0888C48.504 52.1208 48.1023 52.2367 47.74 52.4203V48.9192C47.74 48.2795 48.2605 47.7591 48.9002 47.7591H49.497C49.9112 47.7591 50.247 47.4232 50.247 47.0091C50.247 45.777 51.2494 44.7746 52.4815 44.7746H63.1064C63.2524 44.7746 63.3712 44.8933 63.3712 45.0393C63.3712 45.7118 62.824 46.2591 62.1514 46.2591C61.7373 46.2591 61.4014 46.595 61.4014 47.0091C61.4014 47.4232 61.7373 47.7591 62.1514 47.7591H62.2112C62.8509 47.7591 63.3713 48.2796 63.3713 48.9192V52.4203C62.9415 52.2025 62.4564 52.0788 61.9425 52.0788H59.388L58.1154 50.8062C57.899 50.5898 57.5728 50.5266 57.291 50.6466C57.0094 50.7666 56.829 51.0457 56.8353 51.3518C56.839 51.537 56.7698 51.7117 56.6402 51.844C56.5105 51.9762 56.3373 52.049 56.1522 52.049H49.1687H49.1688ZM62.6925 53.7587C63.2378 54.0342 63.6133 54.5982 63.6133 55.2496C63.6133 55.901 63.2393 56.463 62.6925 56.7388V53.7587ZM49.9188 53.549H56.1523C56.7438 53.549 57.2977 53.3162 57.7117 52.8937C57.7734 52.8307 57.8309 52.7646 57.8839 52.6958L58.5472 53.3591C58.6878 53.4997 58.8785 53.5787 59.0775 53.5787H61.1927V56.8578C61.1927 59.9661 58.664 62.4947 55.5558 62.4947C52.4475 62.4947 49.9189 59.9661 49.9189 56.8578V53.5488L49.9188 53.549ZM53.8983 64.0832L53.9473 63.8098C54.4647 63.9295 55.0025 63.9948 55.5557 63.9948C56.1088 63.9948 56.6467 63.9295 57.1639 63.8098L57.2129 64.0832C57.3984 65.1185 57.9425 66.0107 58.7034 66.6422C57.7279 67.1127 56.6587 67.3587 55.5557 67.3587C54.4527 67.3587 53.3834 67.1127 52.4079 66.6422C53.1688 66.0107 53.7128 65.1185 53.8983 64.0832ZM67.021 67.0211C66.4804 67.5617 65.9078 68.0585 65.3084 68.5116C64.5868 67.0896 63.1035 66.136 61.4589 66.136C60.0948 66.136 58.93 65.1613 58.6894 63.8186L58.5987 63.3118C60.577 62.3752 62.0582 60.5557 62.531 58.3647C63.999 58.088 65.1133 56.7968 65.1133 55.2496C65.1133 54.8197 65.0269 54.4097 64.8712 54.0356V48.9192C64.8712 48.1615 64.5528 47.4768 64.0428 46.992C64.5534 46.4972 64.8712 45.8047 64.8712 45.0393C64.8712 44.0662 64.0795 43.2746 63.1064 43.2746H52.4815C50.6788 43.2746 49.1702 44.5586 48.8225 46.2602C47.3915 46.3015 46.24 47.4785 46.24 48.9192V54.0356C46.0844 54.4097 45.9979 54.8197 45.9979 55.2496C45.9979 56.7968 47.1122 58.088 48.5802 58.3647C49.053 60.5557 50.534 62.3752 52.5125 63.3118L52.4218 63.8186C52.1812 65.1613 51.0164 66.136 49.6523 66.136C48.0078 66.136 46.5244 67.0895 45.8028 68.5115C45.2034 68.0583 44.6308 67.5616 44.0902 67.021C41.0277 63.9585 39.341 59.8867 39.341 55.5557C39.341 51.2247 41.0277 47.1528 44.0902 44.0903C47.2512 40.9293 51.4033 39.3488 55.5555 39.3488C59.7078 39.3488 63.8599 40.9293 67.0209 44.0903C73.3417 50.4125 73.3425 60.6995 67.0209 67.0211H67.021Z" fill="#0084FF"/>
<path d="M92.4851 82.1689L81.5988 74.1823C82.0889 73.039 81.8688 71.6615 80.937 70.7295C80.1654 69.9581 79.0882 69.6745 78.0916 69.8778L75.9175 66.3711C76.7127 64.8763 77.3446 63.2954 77.7926 61.6564C77.9019 61.2569 77.6665 60.8444 77.2669 60.7351C76.8676 60.6257 76.4549 60.8612 76.3456 61.2609C75.3638 64.8522 73.4453 68.1501 70.7976 70.798C62.3931 79.2023 48.718 79.2024 40.3134 70.798C36.2421 66.7266 33.9999 61.3135 33.9999 55.5557C33.9999 49.798 36.242 44.385 40.3134 40.3136C44.3846 36.2423 49.7978 34.0001 55.5555 34.0001C61.3132 34.0001 66.7264 36.2424 70.7976 40.3136C74.8608 44.3768 77.1029 49.7793 77.1107 55.5259C77.1112 55.9398 77.447 56.2749 77.8607 56.2749H77.8618C78.2759 56.2744 78.6112 55.9381 78.6107 55.5239C78.6024 49.3774 76.2043 43.5989 71.8582 39.253C67.5037 34.8982 61.714 32.5 55.5556 32.5C49.3973 32.5 43.6074 34.8982 39.2527 39.2529C34.8983 43.6075 32.5 49.3973 32.5 55.5556C32.5 61.714 34.8983 67.5037 39.2527 71.8584C43.7475 76.3531 49.6515 78.6005 55.5555 78.6005C59.2789 78.6005 63.002 77.7057 66.3719 75.918L69.8775 78.0915C69.6742 79.0882 69.9579 80.1652 70.7294 80.937C71.3401 81.5476 72.1423 81.8529 72.9445 81.8529C73.3664 81.8529 73.788 81.7676 74.182 81.5988L82.1688 92.4851C83.4439 94.2233 85.408 95.3143 87.5574 95.4784C87.746 95.4927 87.9342 95.4999 88.1219 95.4999C90.0721 95.4999 91.9476 94.7287 93.3381 93.3381C94.8624 91.814 95.6425 89.7069 95.4784 87.5575C95.3143 85.4081 94.2233 83.444 92.4851 82.1689ZM67.8438 75.0656C69.2694 74.1675 70.6177 73.099 71.8582 71.8585C73.0779 70.6389 74.1519 69.2895 75.0645 67.8421L76.7294 70.5276C76.6527 70.5909 76.5783 70.658 76.5066 70.7296L70.7295 76.5067C70.6579 76.5784 70.5908 76.6529 70.5275 76.7295L67.8438 75.0655V75.0656ZM71.7901 79.8764C71.1536 79.2397 71.1536 78.2039 71.7901 77.5672L77.5672 71.7902C77.8855 71.4719 78.3036 71.3129 78.7217 71.3129C79.1399 71.3129 79.5579 71.472 79.8761 71.7901C80.5126 72.4268 80.5126 73.4626 79.8761 74.0991L79.775 74.2002L74.099 79.8761C73.4625 80.5126 72.4266 80.5125 71.7901 79.8761V79.8764ZM92.2774 92.2776C91.0629 93.4921 89.3841 94.1138 87.6716 93.9829C85.959 93.852 84.3941 92.9827 83.3783 91.598L75.3887 80.708L80.7076 75.389L91.5976 83.3784C92.9825 84.3944 93.8517 85.9593 93.9826 87.6719C94.1134 89.3844 93.4919 91.063 92.2774 92.2776Z" fill="#0084FF"/>
<path d="M55.5556 60.9347C56.435 60.9347 57.2616 60.5923 57.8833 59.9706C58.1762 59.6777 58.1762 59.2028 57.8833 58.91C57.5905 58.6171 57.1155 58.6171 56.8227 58.91C56.124 59.6087 54.9872 59.6087 54.2886 58.91C53.9957 58.6171 53.5207 58.6171 53.228 58.91C52.9352 59.2028 52.9351 59.6777 53.228 59.9706C53.8497 60.5923 54.6762 60.9347 55.5556 60.9347Z" fill="#0084FF"/>
<path d="M41.0981 78.3037C36.3571 78.3037 32.5 82.1607 32.5 86.9018C32.5 89.5288 33.6855 91.8831 35.5481 93.4615C35.5879 93.504 35.6334 93.5417 35.6835 93.5746C37.1629 94.7773 39.0474 95.5 41.0981 95.5C43.1489 95.5 45.0331 94.7773 46.5125 93.5747C46.5627 93.5418 46.6084 93.5038 46.6484 93.4612C48.5109 91.8828 49.6964 89.5287 49.6964 86.9018C49.6964 82.1607 45.8391 78.3037 41.0981 78.3037ZM37.0505 92.728C37.8888 91.3062 39.4198 90.4131 41.0981 90.4131C42.7765 90.4131 44.3075 91.3061 45.1459 92.7278C43.9967 93.5286 42.6019 94 41.0981 94C39.5944 94 38.1995 93.5286 37.0505 92.7278V92.728ZM39.087 86.902C39.087 85.793 39.9893 84.8907 41.0981 84.8907C42.207 84.8907 43.1094 85.793 43.1094 86.902C43.1094 88.011 42.2071 88.9132 41.0981 88.9132C39.9891 88.9132 39.087 88.011 39.087 86.902ZM46.2942 91.7307C45.6209 90.6963 44.6602 89.8952 43.5455 89.4163C44.2011 88.7781 44.6094 87.887 44.6094 86.902C44.6094 84.9658 43.0343 83.3907 41.0981 83.3907C39.162 83.3907 37.587 84.9658 37.587 86.902C37.587 87.8871 37.9954 88.7781 38.6509 89.4163C37.5361 89.8952 36.5755 90.6963 35.9021 91.7307C34.7231 90.463 34 88.7657 34 86.9018C34 82.9878 37.1843 79.8037 41.0981 79.8037C45.012 79.8037 48.1963 82.988 48.1963 86.9018C48.1963 88.7656 47.4731 90.4628 46.2941 91.7306L46.2942 91.7307Z" fill="#0084FF"/>
<path d="M81.3516 47.7362C81.3915 47.7789 81.437 47.8167 81.4872 47.8496C82.9666 49.0524 84.8511 49.775 86.9018 49.775C88.9526 49.775 90.8371 49.0524 92.3165 47.8495C92.3666 47.8166 92.4121 47.7787 92.4518 47.7362C94.3145 46.1579 95.4998 43.8037 95.4998 41.1767C95.4998 36.4356 91.6427 32.5785 86.9017 32.5785C82.1607 32.5785 78.3036 36.4356 78.3036 41.1767C78.3036 43.8036 79.489 46.1579 81.3516 47.7362ZM82.8541 47.0029C83.6923 45.5811 85.2233 44.688 86.9018 44.688C88.5803 44.688 90.1112 45.5811 90.9496 47.0029C89.8005 47.8036 88.4056 48.275 86.9018 48.275C85.3981 48.275 84.0032 47.8036 82.8541 47.0029ZM84.8906 41.1769C84.8906 40.0679 85.7928 39.1656 86.9018 39.1656C88.0108 39.1656 88.913 40.0679 88.913 41.1769C88.913 42.2859 88.0107 43.188 86.9018 43.188C85.793 43.188 84.8906 42.2857 84.8906 41.1769ZM86.9018 34.0786C90.8158 34.0786 94 37.2629 94 41.1769C94 43.0406 93.2768 44.7379 92.098 46.0056C91.4245 44.9711 90.4638 44.1701 89.3491 43.6912C90.0047 43.053 90.413 42.162 90.413 41.1769C90.413 39.2407 88.8378 37.6656 86.9018 37.6656C84.9658 37.6656 83.3906 39.2407 83.3906 41.1769C83.3906 42.162 83.799 43.053 84.4545 43.6912C83.3397 44.1701 82.3791 44.9712 81.7057 46.0056C80.5267 44.7379 79.8037 43.0406 79.8037 41.1769C79.8037 37.2629 82.988 34.0786 86.9018 34.0786Z" fill="#0084FF"/>
<path d="M77.6634 59.2676C78.0776 59.2676 78.4134 58.9318 78.4134 58.5176C78.4134 58.1034 78.0776 57.7676 77.6634 57.7676C77.2492 57.7676 76.9134 58.1034 76.9134 58.5176C76.9134 58.9318 77.2492 59.2676 77.6634 59.2676Z" fill="#0084FF"/>
</g>
<defs>
<clipPath id="clip0_1_335">
<rect width="64" height="64" fill="white" transform="translate(32 32)"/>
</clipPath>
</defs>
</svg>
