<svg width="128" height="128" viewBox="0 0 128 128" fill="none" xmlns="http://www.w3.org/2000/svg">
<rect x="0.5" y="0.5" width="127" height="127" rx="7.5" stroke="#076856"/>
<path d="M91 48H89.7012C90.8616 46.7057 91.6223 45.1031 91.8915 43.3858C92.1606 41.6685 91.9267 39.91 91.218 38.3228C90.5092 36.7355 89.356 35.3875 87.8977 34.4416C86.4393 33.4956 84.7383 32.9922 83 32.9922C81.2617 32.9922 79.5607 33.4956 78.1023 34.4416C76.644 35.3875 75.4908 36.7355 74.782 38.3228C74.0733 39.91 73.8394 41.6685 74.1085 43.3858C74.3777 45.1031 75.1384 46.7057 76.2988 48H64V38C64 37.7348 63.8946 37.4804 63.7071 37.2929C63.5196 37.1054 63.2652 37 63 37H59C58.7348 37 58.4804 37.1054 58.2929 37.2929C58.1054 37.4804 58 37.7348 58 38V48H57V34C57 33.7348 56.8946 33.4804 56.7071 33.2929C56.5196 33.1054 56.2652 33 56 33H52C51.7348 33 51.4804 33.1054 51.2929 33.2929C51.1054 33.4804 51 33.7348 51 34V48H50V41C50 40.7348 49.8946 40.4804 49.7071 40.2929C49.5196 40.1054 49.2652 40 49 40H45C44.7348 40 44.4804 40.1054 44.2929 40.2929C44.1054 40.4804 44 40.7348 44 41V48H37C35.9395 48.0012 34.9228 48.423 34.1729 49.1729C33.423 49.9228 33.0012 50.9395 33 52V82C33.0012 83.0605 33.423 84.0772 34.1729 84.8271C34.9228 85.577 35.9395 85.9988 37 86H57.6125L56.2787 90H53C52.7348 90 52.4804 90.1054 52.2929 90.2929C52.1054 90.4804 52 90.7348 52 91V93H42C41.7348 93 41.4804 93.1054 41.2929 93.2929C41.1054 93.4804 41 93.7348 41 94C41 94.2652 41.1054 94.5196 41.2929 94.7071C41.4804 94.8946 41.7348 95 42 95H86C86.2652 95 86.5196 94.8946 86.7071 94.7071C86.8946 94.5196 87 94.2652 87 94C87 93.7348 86.8946 93.4804 86.7071 93.2929C86.5196 93.1054 86.2652 93 86 93H76V91C76 90.7348 75.8946 90.4804 75.7071 90.2929C75.5196 90.1054 75.2652 90 75 90H71.7212L70.3875 86H91C92.0605 85.9988 93.0772 85.577 93.8271 84.8271C94.577 84.0772 94.9988 83.0605 95 82V52C94.9988 50.9395 94.577 49.9228 93.8271 49.1729C93.0772 48.423 92.0605 48.0012 91 48ZM84 35.0725C85.4945 35.2906 86.8787 35.9853 87.9467 37.0533C89.0147 38.1213 89.7094 39.5055 89.9275 41H84V35.0725ZM83.4137 43H89.9275C89.7548 44.2016 89.2723 45.3376 88.5276 46.2963C87.7828 47.255 86.8014 48.0033 85.6797 48.4678C84.5581 48.9322 83.335 49.0968 82.1305 48.9453C80.926 48.7938 79.7817 48.3315 78.81 47.6037L83.4137 43ZM76 42C76.0024 40.3175 76.6098 38.6919 77.7113 37.4201C78.8129 36.1483 80.3351 35.3151 82 35.0725V41.5862L77.3963 46.19C76.4885 44.9818 75.9984 43.5112 76 42ZM60 39H62V58H60V39ZM57 50H58V58H57V50ZM53 35H55V58H53V35ZM50 50H51V58H50V50ZM46 42H48V58H46V42ZM74 92V93H54V92H74ZM58.3875 90L59.7213 86H68.2788L69.6125 90H58.3875ZM93 82C92.9993 82.5302 92.7884 83.0385 92.4134 83.4134C92.0385 83.7884 91.5302 83.9993 91 84H37C36.4698 83.9993 35.9615 83.7884 35.5866 83.4134C35.2116 83.0385 35.0007 82.5302 35 82V80H93V82ZM93 78H35V52C35.0007 51.4698 35.2116 50.9615 35.5866 50.5866C35.9615 50.2116 36.4698 50.0007 37 50H44V58H43V52C43 51.7348 42.8946 51.4804 42.7071 51.2929C42.5196 51.1054 42.2652 51 42 51H38C37.7348 51 37.4804 51.1054 37.2929 51.2929C37.1054 51.4804 37 51.7348 37 52V59C37 59.2652 37.1054 59.5196 37.2929 59.7071C37.4804 59.8946 37.7348 60 38 60H70C70.2652 60 70.5196 59.8946 70.7071 59.7071C70.8946 59.5196 71 59.2652 71 59V52C71 51.7348 70.8946 51.4804 70.7071 51.2929C70.5196 51.1054 70.2652 51 70 51H66C65.7348 51 65.4804 51.1054 65.2929 51.2929C65.1054 51.4804 65 51.7348 65 52V58H64V50H78.885C80.1572 50.6571 81.5682 51 83 51C84.4318 51 85.8428 50.6571 87.115 50H91C91.5302 50.0007 92.0385 50.2116 92.4134 50.5866C92.7884 50.9615 92.9993 51.4698 93 52V78ZM41 53V58H39V53H41ZM67 58V53H69V58H67Z" fill="#076856"/>
<path d="M44 81H38C37.7348 81 37.4804 81.1053 37.2929 81.2929C37.1054 81.4804 37 81.7348 37 82C37 82.2652 37.1054 82.5196 37.2929 82.7071C37.4804 82.8946 37.7348 83 38 83H44C44.2652 83 44.5196 82.8946 44.7071 82.7071C44.8946 82.5196 45 82.2652 45 82C45 81.7348 44.8946 81.4804 44.7071 81.2929C44.5196 81.1053 44.2652 81 44 81Z" fill="#076856"/>
<path d="M48 81H47C46.7348 81 46.4804 81.1053 46.2929 81.2929C46.1054 81.4804 46 81.7348 46 82C46 82.2652 46.1054 82.5196 46.2929 82.7071C46.4804 82.8946 46.7348 83 47 83H48C48.2652 83 48.5196 82.8946 48.7071 82.7071C48.8946 82.5196 49 82.2652 49 82C49 81.7348 48.8946 81.4804 48.7071 81.2929C48.5196 81.1053 48.2652 81 48 81Z" fill="#076856"/>
<path d="M75 58C75.1314 58.0002 75.2615 57.9744 75.3828 57.9241C75.5042 57.8739 75.6144 57.8001 75.7072 57.7071L79.4142 54H88C88.2653 54 88.5196 53.8946 88.7071 53.7071C88.8947 53.5196 89 53.2652 89 53C89 52.7348 88.8947 52.4804 88.7071 52.2929C88.5196 52.1053 88.2653 52 88 52H79C78.8687 52 78.7387 52.0258 78.6173 52.0761C78.496 52.1263 78.3858 52.2 78.2929 52.2929L74.2929 56.2929C74.153 56.4327 74.0578 56.6109 74.0192 56.8049C73.9806 56.9989 74.0004 57.1999 74.0761 57.3827C74.1518 57.5654 74.28 57.7216 74.4444 57.8315C74.6089 57.9413 74.8022 58 75 58Z" fill="#076856"/>
<path d="M88 69C87.4744 69.0004 86.9583 69.1388 86.5031 69.4014C86.0479 69.6639 85.6696 70.0415 85.4062 70.4962L74.9375 64.3887C74.7956 63.7073 74.4212 63.0963 73.8784 62.6606C73.3356 62.2248 72.6582 61.9914 71.9622 62.0002C71.2662 62.0091 70.5949 62.2597 70.0634 62.7091C69.5318 63.1586 69.1731 63.7789 69.0487 64.4637L58.5137 72.365C58.2271 71.9236 57.8294 71.5655 57.3605 71.3266C56.8916 71.0877 56.368 70.9765 55.8425 71.0041C55.317 71.0317 54.808 71.1972 54.3667 71.484C53.9255 71.7707 53.5675 72.1685 53.3287 72.6375L42.9162 68.2987C42.7519 67.6137 42.3519 67.0083 41.7862 66.5885C41.2205 66.1687 40.5251 65.9613 39.8219 66.0026C39.1187 66.0438 38.4524 66.3312 37.9396 66.8142C37.4269 67.2973 37.1004 67.9453 37.0174 68.6449C36.9343 69.3444 37.1 70.0509 37.4854 70.6405C37.8708 71.2302 38.4513 71.6656 39.1253 71.8703C39.7993 72.0751 40.5239 72.0362 41.1722 71.7606C41.8205 71.4849 42.3511 70.99 42.6712 70.3625L53.0837 74.7012C53.2445 75.3703 53.6304 75.9637 54.1767 76.382C54.723 76.8003 55.3966 77.018 56.0844 76.9987C56.7722 76.9793 57.4324 76.7241 57.9544 76.2757C58.4764 75.8274 58.8283 75.2132 58.9512 74.5362L69.4862 66.635C69.7653 67.0649 70.15 67.4161 70.6035 67.6549C71.0571 67.8937 71.5643 68.0122 72.0767 67.999C72.5891 67.9859 73.0896 67.8415 73.5302 67.5797C73.9709 67.3179 74.3371 66.9474 74.5937 66.5037L85.0625 72.6112C85.178 73.1665 85.4486 73.6776 85.8428 74.0853C86.237 74.493 86.7387 74.7806 87.2898 74.9148C87.8408 75.049 88.4186 75.0242 88.9561 74.8434C89.4937 74.6625 89.9689 74.333 90.3268 73.8931C90.6847 73.4531 90.9105 72.9207 90.9781 72.3576C91.0457 71.7945 90.9524 71.2238 90.7088 70.7116C90.4652 70.1994 90.0815 69.7668 89.602 69.4638C89.1226 69.1609 88.5671 69.0001 88 69ZM41 69.005C40.9993 69.2706 40.8932 69.5252 40.705 69.7127C40.5168 69.9002 40.2619 70.0053 39.9962 70.005C39.7305 70.0046 39.4759 69.8989 39.2881 69.7109C39.1004 69.5229 38.995 69.2681 38.995 69.0025C38.995 68.7368 39.1004 68.482 39.2881 68.294C39.4759 68.1061 39.7305 68.0003 39.9962 68C40.2619 67.9996 40.5168 68.1048 40.705 68.2923C40.8932 68.4798 40.9993 68.7343 41 69V69.005ZM56 75C55.7348 74.9996 55.4807 74.8941 55.2932 74.7067C55.1058 74.5192 55.0003 74.2651 55 74V73.995C55.0009 73.7974 55.0604 73.6046 55.1709 73.4408C55.2814 73.277 55.4379 73.1496 55.6207 73.0747C55.8035 72.9997 56.0044 72.9807 56.1981 73.0198C56.3917 73.059 56.5695 73.1546 56.7088 73.2946C56.8482 73.4347 56.9429 73.6129 56.9811 73.8067C57.0193 74.0006 56.9992 74.2014 56.9233 74.3838C56.8475 74.5662 56.7193 74.7221 56.555 74.8318C56.3907 74.9415 56.1975 75 56 75ZM72 66C71.8022 66 71.6088 65.9413 71.4444 65.8314C71.2799 65.7216 71.1518 65.5654 71.0761 65.3827C71.0004 65.1999 70.9806 64.9989 71.0192 64.8049C71.0578 64.6109 71.153 64.4327 71.2928 64.2929C71.4327 64.153 71.6109 64.0578 71.8049 64.0192C71.9988 63.9806 72.1999 64.0004 72.3826 64.0761C72.5654 64.1518 72.7215 64.28 72.8314 64.4444C72.9413 64.6089 73 64.8022 73 65C72.9996 65.2651 72.8941 65.5192 72.7067 65.7067C72.5192 65.8941 72.2651 65.9996 72 66ZM88 73C87.8022 73 87.6088 72.9413 87.4444 72.8314C87.2799 72.7216 87.1518 72.5654 87.0761 72.3827C87.0004 72.1999 86.9806 71.9989 87.0192 71.8049C87.0578 71.6109 87.153 71.4327 87.2928 71.2929C87.4327 71.153 87.6109 71.0578 87.8049 71.0192C87.9988 70.9806 88.1999 71.0004 88.3826 71.0761C88.5654 71.1518 88.7215 71.28 88.8314 71.4444C88.9413 71.6089 89 71.8022 89 72C88.9996 72.2651 88.8941 72.5192 88.7067 72.7067C88.5192 72.8941 88.2651 72.9996 88 73Z" fill="#076856"/>
<path d="M80 75H73C72.7348 75 72.4804 75.1053 72.2929 75.2929C72.1054 75.4804 72 75.7348 72 76C72 76.2652 72.1054 76.5196 72.2929 76.7071C72.4804 76.8946 72.7348 77 73 77H80C80.2652 77 80.5196 76.8946 80.7071 76.7071C80.8946 76.5196 81 76.2652 81 76C81 75.7348 80.8946 75.4804 80.7071 75.2929C80.5196 75.1053 80.2652 75 80 75Z" fill="#076856"/>
<path d="M80 72H77C76.7348 72 76.4804 72.1053 76.2929 72.2929C76.1054 72.4804 76 72.7348 76 73C76 73.2652 76.1054 73.5196 76.2929 73.7071C76.4804 73.8946 76.7348 74 77 74H80C80.2652 74 80.5196 73.8946 80.7071 73.7071C80.8946 73.5196 81 73.2652 81 73C81 72.7348 80.8946 72.4804 80.7071 72.2929C80.5196 72.1053 80.2652 72 80 72Z" fill="#076856"/>
<path d="M38 63H49C49.2652 63 49.5196 62.8946 49.7071 62.7071C49.8946 62.5196 50 62.2652 50 62C50 61.7348 49.8946 61.4804 49.7071 61.2929C49.5196 61.1053 49.2652 61 49 61H38C37.7348 61 37.4804 61.1053 37.2929 61.2929C37.1054 61.4804 37 61.7348 37 62C37 62.2652 37.1054 62.5196 37.2929 62.7071C37.4804 62.8946 37.7348 63 38 63Z" fill="#076856"/>
<path d="M52 63H53C53.2652 63 53.5196 62.8946 53.7071 62.7071C53.8946 62.5196 54 62.2652 54 62C54 61.7348 53.8946 61.4804 53.7071 61.2929C53.5196 61.1053 53.2652 61 53 61H52C51.7348 61 51.4804 61.1053 51.2929 61.2929C51.1054 61.4804 51 61.7348 51 62C51 62.2652 51.1054 62.5196 51.2929 62.7071C51.4804 62.8946 51.7348 63 52 63Z" fill="#076856"/>
</svg>
