<svg width="128" height="128" viewBox="0 0 128 128" fill="none" xmlns="http://www.w3.org/2000/svg">
<rect x="0.5" y="0.5" width="127" height="127" rx="7.5" stroke="#DC3545"/>
<path d="M46.592 48V41.6C46.592 39.552 48.256 37.76 50.432 37.76H70.272" stroke="#DC3545" stroke-width="1.28" stroke-miterlimit="10" stroke-linecap="round" stroke-linejoin="round"/>
<path d="M46.592 71.68V63.744" stroke="#DC3545" stroke-width="1.28" stroke-miterlimit="10" stroke-linecap="round" stroke-linejoin="round"/>
<path d="M76.928 77.696V90.368C76.928 92.416 75.264 94.208 73.088 94.208H50.304C48.256 94.208 46.464 92.544 46.464 90.368V81.536" stroke="#DC3545" stroke-width="1.28" stroke-miterlimit="10" stroke-linecap="round" stroke-linejoin="round"/>
<path d="M76.928 61.9521V54.5281" stroke="#DC3545" stroke-width="1.28" stroke-miterlimit="10" stroke-linecap="round" stroke-linejoin="round"/>
<path d="M49.536 48.0001V42.6241C49.536 42.3681 49.792 42.1121 50.048 42.1121H58.112C58.88 42.1121 59.52 42.4961 59.904 43.1361C60.288 43.7761 61.056 44.1601 61.696 44.1601C62.336 44.1601 63.104 43.7761 63.488 43.1361C63.872 42.4961 64.512 42.1121 65.28 42.1121H68.096" stroke="#DC3545" stroke-width="1.28" stroke-miterlimit="10" stroke-linecap="round" stroke-linejoin="round"/>
<path d="M49.536 70.272V63.744" stroke="#DC3545" stroke-width="1.28" stroke-miterlimit="10" stroke-linecap="round" stroke-linejoin="round"/>
<path d="M73.984 78.0801V85.7601C73.984 86.0161 73.728 86.2721 73.472 86.2721H50.048C49.792 86.2721 49.536 86.0161 49.536 85.7601V79.2321" stroke="#DC3545" stroke-width="1.28" stroke-miterlimit="10" stroke-linecap="round" stroke-linejoin="round"/>
<path d="M73.984 61.952V53.76" stroke="#DC3545" stroke-width="1.28" stroke-miterlimit="10" stroke-linecap="round" stroke-linejoin="round"/>
<path d="M61.696 91.648C62.4736 91.648 63.104 91.0176 63.104 90.24C63.104 89.4624 62.4736 88.832 61.696 88.832C60.9184 88.832 60.288 89.4624 60.288 90.24C60.288 91.0176 60.9184 91.648 61.696 91.648Z" stroke="#DC3545" stroke-width="1.28" stroke-miterlimit="10" stroke-linecap="round" stroke-linejoin="round"/>
<path d="M52.608 73.6C52.608 77.824 46.464 81.408 46.464 81.408C46.464 81.408 40.32 77.824 40.32 73.6C40.32 71.68 41.856 70.272 43.648 70.272C44.8 70.272 45.824 70.784 46.336 71.68C46.976 70.784 48 70.272 49.024 70.272C51.2 70.272 52.608 71.808 52.608 73.6Z" stroke="#DC3545" stroke-width="1.28" stroke-miterlimit="10" stroke-linecap="round" stroke-linejoin="round"/>
<path d="M88.704 44.288C88.704 50.048 84.096 54.656 78.336 54.656C76.288 54.656 74.368 54.016 72.832 52.992L69.376 53.248L69.632 49.792C68.608 48.128 67.968 46.336 67.968 44.16C67.968 38.4 72.576 33.792 78.336 33.792C84.096 33.92 88.704 38.528 88.704 44.288Z" stroke="#DC3545" stroke-width="1.28" stroke-miterlimit="10" stroke-linecap="round" stroke-linejoin="round"/>
<path d="M75.904 42.24V46.464C75.904 47.616 77.184 48.256 78.08 47.744L81.664 45.696C82.688 45.184 82.688 43.776 81.664 43.136L78.08 40.96C77.056 40.32 75.904 41.088 75.904 42.24Z" stroke="#DC3545" stroke-width="1.28" stroke-miterlimit="10" stroke-linecap="round" stroke-linejoin="round"/>
<path d="M61.312 51.328V60.5439C61.312 62.3359 59.904 63.7439 58.112 63.7439H56.704V67.5839L51.712 63.7439H42.496C40.704 63.7439 39.296 62.3359 39.296 60.5439V51.328C39.296 49.536 40.704 48.128 42.496 48.128H57.984C59.776 48 61.312 49.536 61.312 51.328Z" stroke="#DC3545" stroke-width="1.28" stroke-miterlimit="10" stroke-linecap="round" stroke-linejoin="round"/>
<path d="M55.936 57.728C56.7843 57.728 57.472 57.0403 57.472 56.192C57.472 55.3437 56.7843 54.656 55.936 54.656C55.0877 54.656 54.4 55.3437 54.4 56.192C54.4 57.0403 55.0877 57.728 55.936 57.728Z" stroke="#DC3545" stroke-width="1.28" stroke-miterlimit="10" stroke-linecap="round" stroke-linejoin="round"/>
<path d="M50.304 57.728C51.1523 57.728 51.84 57.0403 51.84 56.192C51.84 55.3437 51.1523 54.656 50.304 54.656C49.4557 54.656 48.768 55.3437 48.768 56.192C48.768 57.0403 49.4557 57.728 50.304 57.728Z" stroke="#DC3545" stroke-width="1.28" stroke-miterlimit="10" stroke-linecap="round" stroke-linejoin="round"/>
<path d="M44.672 57.728C45.5203 57.728 46.208 57.0403 46.208 56.192C46.208 55.3437 45.5203 54.656 44.672 54.656C43.8237 54.656 43.136 55.3437 43.136 56.192C43.136 57.0403 43.8237 57.728 44.672 57.728Z" stroke="#DC3545" stroke-width="1.28" stroke-miterlimit="10" stroke-linecap="round" stroke-linejoin="round"/>
<path d="M64.896 65.152V74.368C64.896 76.16 66.304 77.568 68.096 77.568H69.504V81.408L74.496 77.568H83.584C85.376 77.568 86.784 76.16 86.784 74.368V65.152C86.784 63.36 85.376 61.952 83.584 61.952H68.096C66.304 61.952 64.896 63.36 64.896 65.152Z" stroke="#DC3545" stroke-width="1.28" stroke-miterlimit="10" stroke-linecap="round" stroke-linejoin="round"/>
<path d="M82.432 66.5601H69.376" stroke="#DC3545" stroke-width="1.28" stroke-miterlimit="10" stroke-linecap="round" stroke-linejoin="round"/>
<path d="M82.432 69.76H69.376" stroke="#DC3545" stroke-width="1.28" stroke-miterlimit="10" stroke-linecap="round" stroke-linejoin="round"/>
<path d="M82.432 72.96H75.008" stroke="#DC3545" stroke-width="1.28" stroke-miterlimit="10" stroke-linecap="round" stroke-linejoin="round"/>
</svg>
