<svg width="128" height="128" viewBox="0 0 128 128" fill="none" xmlns="http://www.w3.org/2000/svg">
<rect x="0.5" y="0.5" width="127" height="127" rx="7.5" stroke="#FFC700"/>
<g clip-path="url(#clip0_1_401)">
<path d="M45.6666 41.8125H52.9941" stroke="#FFC700" stroke-width="1.875" stroke-miterlimit="10" stroke-linecap="round" stroke-linejoin="round"/>
<path d="M95.0625 72.875V79.3125C95.0625 80.9694 93.7194 82.3125 92.0625 82.3125H35.9375C34.2806 82.3125 32.9375 80.9694 32.9375 79.3125V44.8125C32.9375 43.1556 34.2806 41.8125 35.9375 41.8125H41.25" stroke="#FFC700" stroke-width="1.875" stroke-miterlimit="10" stroke-linecap="round" stroke-linejoin="round"/>
<path d="M67.6945 41.8125H92.0625C93.7193 41.8125 95.0625 43.1556 95.0625 44.8125V68.4166" stroke="#FFC700" stroke-width="1.875" stroke-miterlimit="10" stroke-linecap="round" stroke-linejoin="round"/>
<path d="M65.7084 45.5625H90.8438C91.1026 45.5625 91.3125 45.7724 91.3125 46.0312V78.0938C91.3125 78.3526 91.1026 78.5625 90.8438 78.5625H37.1562C36.8974 78.5625 36.6875 78.3526 36.6875 78.0938V46.0312C36.6875 45.7724 36.8974 45.5625 37.1562 45.5625H55.0209" stroke="#FFC700" stroke-width="1.875" stroke-miterlimit="10" stroke-linecap="round" stroke-linejoin="round"/>
<path d="M77.25 95.0625H50.75C49.7145 95.0625 48.875 94.223 48.875 93.1875C48.875 92.152 49.7145 91.3125 50.75 91.3125H77.25C78.2855 91.3125 79.125 92.152 79.125 93.1875C79.125 94.223 78.2855 95.0625 77.25 95.0625Z" stroke="#FFC700" stroke-width="1.875" stroke-miterlimit="10" stroke-linecap="round" stroke-linejoin="round"/>
<path d="M74 82.3125H54V91.3125H74V82.3125Z" stroke="#FFC700" stroke-width="1.875" stroke-miterlimit="10" stroke-linecap="round" stroke-linejoin="round"/>
<path d="M66.5 91.3125H61.5V88.5625C61.5 87.1818 62.6193 86.0625 64 86.0625C65.3807 86.0625 66.5 87.1818 66.5 88.5625V91.3125Z" stroke="#FFC700" stroke-width="1.875" stroke-miterlimit="10" stroke-linecap="round" stroke-linejoin="round"/>
<path d="M60.2442 47.4375C64.2483 47.4375 67.4942 44.1916 67.4942 40.1875C67.4942 36.1834 64.2483 32.9375 60.2442 32.9375C56.2402 32.9375 52.9942 36.1834 52.9942 40.1875C52.9942 44.1916 56.2402 47.4375 60.2442 47.4375Z" stroke="#FFC700" stroke-width="1.875" stroke-miterlimit="10" stroke-linecap="round" stroke-linejoin="round"/>
<path d="M48.2917 57.809H47.6856C45.9127 57.809 44.4754 59.2563 44.4754 61.0415V62.5215C44.4754 62.8424 44.7338 63.1025 45.0524 63.1025H57.8984C58.2171 63.1025 58.4754 62.8424 58.4754 62.5215V61.0415C58.4754 59.2563 57.0382 57.809 55.2653 57.809H54.7293" stroke="#FFC700" stroke-width="1.875" stroke-miterlimit="10" stroke-linecap="round" stroke-linejoin="round"/>
<path d="M47.6003 55.413V52.7915C47.6003 50.6514 49.3352 48.9165 51.4753 48.9165C53.6154 48.9165 55.3503 50.6514 55.3503 52.7915V55.3984C55.3503 57.5425 53.6122 59.2806 51.468 59.2806C49.3319 59.2808 47.6003 57.5491 47.6003 55.413Z" stroke="#FFC700" stroke-width="1.875" stroke-miterlimit="10" stroke-linecap="round" stroke-linejoin="round"/>
<path d="M47.7894 53.5088H55.1613" stroke="#FFC700" stroke-width="1.875" stroke-miterlimit="10" stroke-linecap="round" stroke-linejoin="round"/>
<path d="M47.8503 74.8541C46.8493 74.8541 46.0378 74.0426 46.0378 73.0416V71.1666C46.0378 70.1656 46.8493 69.3541 47.8503 69.3541C48.8513 69.3541 49.6628 70.1656 49.6628 71.1666V73.0416C49.6628 74.0426 48.8514 74.8541 47.8503 74.8541Z" stroke="#FFC700" stroke-width="1.875" stroke-miterlimit="10" stroke-linecap="round" stroke-linejoin="round"/>
<path d="M51.4753 74.8541C50.4743 74.8541 49.6628 74.0426 49.6628 73.0416V68.7916C49.6628 67.7906 50.4743 66.9791 51.4753 66.9791C52.4763 66.9791 53.2878 67.7906 53.2878 68.7916V73.0416C53.2878 74.0426 52.4764 74.8541 51.4753 74.8541Z" stroke="#FFC700" stroke-width="1.875" stroke-miterlimit="10" stroke-linecap="round" stroke-linejoin="round"/>
<path d="M55.1003 74.8541C54.0993 74.8541 53.2878 74.0426 53.2878 73.0416V72.1458C53.2878 71.1448 54.0993 70.3333 55.1003 70.3333C56.1013 70.3333 56.9128 71.1448 56.9128 72.1458V73.0416C56.9128 74.0426 56.1014 74.8541 55.1003 74.8541Z" stroke="#FFC700" stroke-width="1.875" stroke-miterlimit="10" stroke-linecap="round" stroke-linejoin="round"/>
<path d="M72.4942 57.809H71.7481C69.9752 57.809 68.5379 59.2563 68.5379 61.0415V62.5215C68.5379 62.8424 68.7963 63.1025 69.1149 63.1025H81.9609C82.2796 63.1025 82.5379 62.8424 82.5379 62.5215V61.0415C82.5379 59.2563 81.1007 57.809 79.3278 57.809H78.7501" stroke="#FFC700" stroke-width="1.875" stroke-miterlimit="10" stroke-linecap="round" stroke-linejoin="round"/>
<path d="M71.6628 55.413V52.7915C71.6628 50.6514 73.3977 48.9165 75.5378 48.9165C77.6779 48.9165 79.4128 50.6514 79.4128 52.7915V55.3984C79.4128 57.5425 77.6747 59.2806 75.5305 59.2806C73.3944 59.2808 71.6628 57.5491 71.6628 55.413Z" stroke="#FFC700" stroke-width="1.875" stroke-miterlimit="10" stroke-linecap="round" stroke-linejoin="round"/>
<path d="M71.8519 53.5088H79.2238" stroke="#FFC700" stroke-width="1.875" stroke-miterlimit="10" stroke-linecap="round" stroke-linejoin="round"/>
<path d="M75.6036 74.8541C74.6026 74.8541 73.7911 74.0426 73.7911 73.0416V71.1666C73.7911 70.1656 74.6026 69.3541 75.6036 69.3541C76.6046 69.3541 77.4161 70.1656 77.4161 71.1666V73.0416C77.4161 74.0426 76.6046 74.8541 75.6036 74.8541Z" stroke="#FFC700" stroke-width="1.875" stroke-miterlimit="10" stroke-linecap="round" stroke-linejoin="round"/>
<path d="M79.2286 74.8541C78.2276 74.8541 77.4161 74.0426 77.4161 73.0416V68.7916C77.4161 67.7906 78.2276 66.9791 79.2286 66.9791C80.2296 66.9791 81.0411 67.7906 81.0411 68.7916V73.0416C81.0411 74.0426 80.2296 74.8541 79.2286 74.8541Z" stroke="#FFC700" stroke-width="1.875" stroke-miterlimit="10" stroke-linecap="round" stroke-linejoin="round"/>
<path d="M71.9786 74.8541C70.9776 74.8541 70.1661 74.0426 70.1661 73.0416V72.1458C70.1661 71.1448 70.9776 70.3333 71.9786 70.3333C72.9796 70.3333 73.7911 71.1448 73.7911 72.1458V73.0416C73.7911 74.0426 72.9796 74.8541 71.9786 74.8541Z" stroke="#FFC700" stroke-width="1.875" stroke-miterlimit="10" stroke-linecap="round" stroke-linejoin="round"/>
<path d="M65.5284 45.4716L69.4807 49.424" stroke="#FFC700" stroke-width="1.875" stroke-miterlimit="10" stroke-linecap="round" stroke-linejoin="round"/>
</g>
<defs>
<clipPath id="clip0_1_401">
<rect width="64" height="64" fill="white" transform="translate(32 32)"/>
</clipPath>
</defs>
</svg>
