<svg width="128" height="128" viewBox="0 0 128 128" fill="none" xmlns="http://www.w3.org/2000/svg">
<rect x="0.5" y="0.5" width="127" height="127" rx="7.5" stroke="#C33DAB"/>
<g clip-path="url(#clip0_1_216)">
<mask id="mask0_1_216" style="mask-type:luminance" maskUnits="userSpaceOnUse" x="32" y="32" width="64" height="64">
<path d="M32 32H96V96H32V32Z" fill="white"/>
</mask>
<g mask="url(#mask0_1_216)">
<path d="M79.4601 73.8883L72.5817 72.374H66.4319L59.5536 73.8883C56.9842 74.6448 55.2202 77.003 55.2202 79.6814V92.996C55.2202 94.1373 56.1453 95.0625 57.2867 95.0625H81.7269C82.8682 95.0625 83.7933 94.1373 83.7933 92.996V79.6814C83.7933 77.003 82.0293 74.6448 79.4601 73.8883Z" stroke="#C33DAB" stroke-width="1.86046" stroke-miterlimit="10" stroke-linecap="round" stroke-linejoin="round"/>
<path d="M76.4413 57.2758C76.4413 55.701 75.1838 54.4144 73.6096 54.3783C71.975 54.3408 71.85 53.2029 70.1861 53.2029H67.3462C64.7086 53.2029 62.5702 55.3413 62.5702 57.979L62.5748 62.2905C62.5841 66.1196 65.6956 69.5444 69.5247 69.5351C73.3538 69.5259 76.4505 66.0863 76.4413 62.2571V57.2758Z" stroke="#C33DAB" stroke-width="1.86046" stroke-miterlimit="10" stroke-linecap="round" stroke-linejoin="round"/>
<path d="M83.7933 89.2863C83.7933 85.4224 80.6609 82.2901 76.7971 82.2901H62.2164C58.3526 82.2901 55.2202 85.4224 55.2202 89.2863" stroke="#C33DAB" stroke-width="1.86046" stroke-miterlimit="10" stroke-linecap="round" stroke-linejoin="round"/>
<path d="M72.5816 72.3739V68.7515" stroke="#C33DAB" stroke-width="1.86046" stroke-miterlimit="10" stroke-linecap="round" stroke-linejoin="round"/>
<path d="M66.432 68.7483V72.3739" stroke="#C33DAB" stroke-width="1.86046" stroke-miterlimit="10" stroke-linecap="round" stroke-linejoin="round"/>
<path d="M87.444 71.2389V65.198C87.444 63.0761 85.7237 61.356 83.602 61.356H76.4413" stroke="#C33DAB" stroke-width="1.86046" stroke-miterlimit="10" stroke-linecap="round" stroke-linejoin="round"/>
<path d="M83.7934 85.481C85.8264 85.3812 87.444 83.7015 87.444 81.6438V74.9888" stroke="#C33DAB" stroke-width="1.86046" stroke-miterlimit="10" stroke-linecap="round" stroke-linejoin="round"/>
<path d="M42.0898 61.3559H36.7822C34.6602 61.3559 32.9402 63.076 32.9402 65.1978V81.6436C32.9402 83.7655 34.6602 85.4856 36.7822 85.4856H55.2202" stroke="#C33DAB" stroke-width="1.86046" stroke-miterlimit="10" stroke-linecap="round" stroke-linejoin="round"/>
<path d="M62.5739 61.356H45.8396" stroke="#C33DAB" stroke-width="1.86046" stroke-miterlimit="10" stroke-linecap="round" stroke-linejoin="round"/>
<path d="M37.6521 85.4858V93.8359C37.6521 94.5134 38.2014 95.0625 38.8788 95.0625H41.0263C41.7036 95.0625 42.2529 94.5134 42.2529 93.8359V85.4858" stroke="#C33DAB" stroke-width="1.86046" stroke-miterlimit="10" stroke-linecap="round" stroke-linejoin="round"/>
<path d="M49.5706 52.4382L42.6921 53.9526C40.1228 54.7091 38.3588 57.0673 38.3588 59.7456V61.356" stroke="#C33DAB" stroke-width="1.86046" stroke-miterlimit="10" stroke-linecap="round" stroke-linejoin="round"/>
<path d="M64.0031 54.5697C63.5702 54.3096 63.0999 54.1002 62.5987 53.9526L55.7202 52.4383" stroke="#C33DAB" stroke-width="1.86046" stroke-miterlimit="10" stroke-linecap="round" stroke-linejoin="round"/>
<path d="M49.5706 49.7252V52.4381C49.5706 54.1363 50.9472 55.5129 52.6455 55.5129C54.3436 55.5129 55.7202 54.1363 55.7202 52.4381V49.7252" stroke="#C33DAB" stroke-width="1.86046" stroke-miterlimit="10" stroke-linecap="round" stroke-linejoin="round"/>
<path d="M60.3843 41.3534C60.3843 41.3534 58.8737 40.9029 57.7307 39.6355C57.0494 38.8801 55.9479 38.6819 55.0623 39.1823C52.7723 40.4758 48.5804 42.242 44.9064 40.5255V38.2669C44.9064 35.3235 47.2924 32.9375 50.2358 32.9375H53.4046C54.1078 32.9375 54.7917 33.168 55.3514 33.5936C55.8912 34.004 56.5467 34.2334 57.2246 34.249C58.9812 34.2893 60.3843 35.7249 60.3843 37.482V41.3534Z" stroke="#C33DAB" stroke-width="1.86046" stroke-miterlimit="10" stroke-linecap="round" stroke-linejoin="round"/>
<path d="M44.9064 40.5254V43.0211C44.9064 43.8744 45.5983 44.5664 46.4518 44.5664C46.4867 46.1937 47.1706 47.7599 48.4059 48.8237C49.4006 49.6801 50.7986 50.7474 52.6454 50.7679C54.4922 50.7474 55.8903 49.6801 56.8848 48.8237C58.1202 47.7599 58.8041 46.1937 58.8389 44.5664C59.6924 44.5664 60.3843 43.8744 60.3843 43.0211V41.3533" stroke="#C33DAB" stroke-width="1.86046" stroke-miterlimit="10" stroke-linecap="round" stroke-linejoin="round"/>
<path d="M92.9888 32.9584H77.0499C75.9062 32.9584 74.9788 33.8857 74.9788 35.0295V43.2139C74.9788 44.3578 75.9062 45.285 77.0499 45.285H82.7096C83.8354 45.285 84.7483 46.1979 84.7483 47.3238V50.1685C84.7483 50.7175 85.4453 50.9528 85.7779 50.516L89.1504 46.0885C89.5361 45.5822 90.1359 45.285 90.7723 45.285H92.9888C94.1326 45.285 95.0599 44.3578 95.0599 43.2139V35.0295C95.0599 33.8857 94.1326 32.9584 92.9888 32.9584Z" stroke="#C33DAB" stroke-width="1.86046" stroke-miterlimit="10" stroke-linecap="round" stroke-linejoin="round"/>
</g>
</g>
<defs>
<clipPath id="clip0_1_216">
<rect width="64" height="64" fill="white" transform="translate(32 32)"/>
</clipPath>
</defs>
</svg>
