<svg width="98" height="100" viewBox="0 0 98 100" fill="none" xmlns="http://www.w3.org/2000/svg">
<rect y="0.573242" width="98" height="98.8533" rx="5" fill="#FFC700"/>
<path d="M61.375 79.25C61.3743 79.8465 61.137 80.4184 60.7152 80.8402C60.2934 81.262 59.7215 81.4993 59.125 81.5H23.125C22.5285 81.4993 21.9566 81.262 21.5348 80.8402C21.113 80.4184 20.8757 79.8465 20.875 79.25V20.75C20.8757 20.1535 21.113 19.5816 21.5348 19.1598C21.9566 18.738 22.5285 18.5007 23.125 18.5H34.8047L35.6188 20.1282C35.7122 20.315 35.8559 20.4722 36.0336 20.582C36.2113 20.6918 36.4161 20.75 36.625 20.75H45.625C45.8339 20.75 46.0387 20.6918 46.2164 20.582C46.3941 20.4722 46.5378 20.315 46.6312 20.1282L47.4453 18.5H59.125C59.7215 18.5007 60.2934 18.738 60.7152 19.1598C61.137 19.5816 61.3743 20.1535 61.375 20.75V32H63.625V20.75C63.6236 19.5569 63.1491 18.4131 62.3055 17.5695C61.4619 16.7259 60.3181 16.2514 59.125 16.25H23.125C21.9319 16.2514 20.7881 16.7259 19.9445 17.5695C19.1009 18.4131 18.6264 19.5569 18.625 20.75V79.25C18.6264 80.4431 19.1009 81.5869 19.9445 82.4305C20.7881 83.2741 21.9319 83.7486 23.125 83.75H59.125C60.3181 83.7486 61.4619 83.2741 62.3055 82.4305C63.1491 81.5869 63.6236 80.4431 63.625 79.25V48.875H61.375V79.25Z" fill="white"/>
<path d="M70.375 36.5H68.125V33.125C68.125 32.9259 68.0722 32.7304 67.9719 32.5584C67.8716 32.3864 67.7275 32.2441 67.5543 32.146C67.381 32.0479 67.1849 31.9975 66.9858 32C66.7867 32.0026 66.5919 32.0578 66.4212 32.1603L61.0633 35.375H53.5C53.2016 35.375 52.9155 35.4935 52.7045 35.7045C52.4935 35.9155 52.375 36.2016 52.375 36.5V42.784L52.2183 42.9407C51.2311 42.4028 50.1242 42.1223 49 42.125H46.7469C47.4802 41.1527 47.8762 39.9678 47.875 38.75V33.8203L48.3502 33.5827C48.9971 33.2592 49.5159 32.7268 49.8224 32.0716C50.1289 31.4165 50.2053 30.6771 50.0391 29.9731C49.8729 29.2692 49.4739 28.6419 48.9067 28.1931C48.3395 27.7442 47.6374 27.5 46.9141 27.5H42.25C40.7587 27.5017 39.3289 28.0949 38.2744 29.1494C37.2199 30.2039 36.6267 31.6337 36.625 33.125V42.125H33.25C31.4604 42.127 29.7447 42.8388 28.4792 44.1042C27.2138 45.3697 26.502 47.0854 26.5 48.875V65.75H24.25V68H58V65.75H55.75V52.716L58.7955 49.6706C59.0065 49.4596 59.125 49.1734 59.125 48.875V44.375H61.0633L66.4212 47.5897C66.5919 47.6922 66.7867 47.7474 66.9858 47.75C67.1849 47.7525 67.381 47.7021 67.5543 47.604C67.7275 47.5059 67.8716 47.3636 67.9719 47.1916C68.0722 47.0196 68.125 46.8241 68.125 46.625V43.25H70.375C70.6734 43.25 70.9595 43.1315 71.1705 42.9205C71.3815 42.7095 71.5 42.4234 71.5 42.125V37.625C71.5 37.3266 71.3815 37.0405 71.1705 36.8295C70.9595 36.6185 70.6734 36.5 70.375 36.5ZM38.875 33.125C38.876 32.2302 39.2319 31.3723 39.8646 30.7396C40.4973 30.1069 41.3552 29.751 42.25 29.75H46.9141C47.1306 29.75 47.3407 29.8231 47.5104 29.9574C47.6801 30.0917 47.7996 30.2794 47.8493 30.4901C47.899 30.7008 47.8762 30.922 47.7844 31.1181C47.6927 31.3141 47.5375 31.4735 47.3439 31.5703L46.4845 32H41.125C40.8266 32 40.5405 32.1185 40.3295 32.3295L38.875 33.784V33.125ZM38.875 36.966L41.591 34.25H45.625V38.75C45.625 39.6451 45.2694 40.5036 44.6365 41.1365C44.0036 41.7694 43.1451 42.125 42.25 42.125C41.3549 42.125 40.4964 41.7694 39.8635 41.1365C39.2306 40.5036 38.875 39.6451 38.875 38.75V36.966ZM38.875 43.2469C39.5106 43.7248 40.2404 44.0623 41.0161 44.2373C41.7918 44.4122 42.5958 44.4206 43.375 44.2618V44.375C43.375 44.9717 43.1379 45.544 42.716 45.966C42.294 46.3879 41.7217 46.625 41.125 46.625C40.5283 46.625 39.956 46.3879 39.534 45.966C39.1121 45.544 38.875 44.9717 38.875 44.375V43.2469ZM53.5 65.75H28.75V48.875C28.7514 47.6819 29.2259 46.5381 30.0695 45.6945C30.9131 44.8509 32.0569 44.3764 33.25 44.375H36.625C36.625 45.5685 37.0991 46.7131 37.943 47.557C38.7869 48.4009 39.9315 48.875 41.125 48.875C42.3185 48.875 43.4631 48.4009 44.307 47.557C45.1509 46.7131 45.625 45.5685 45.625 44.375H49C49.5179 44.375 50.0319 44.4646 50.5192 44.6398L41.125 54.034L36.2955 49.2045L34.7045 50.7955L37.284 53.375L33.8125 56.8465L31.7955 54.8294L30.2045 56.4205L34.568 60.784C36.307 62.523 38.6657 63.5 41.125 63.5C43.5843 63.5 45.943 62.523 47.682 60.784L53.5 54.966V65.75ZM56.875 48.409L46.091 59.1929C45.4389 59.8451 44.6647 60.3624 43.8126 60.7154C42.9605 61.0683 42.0473 61.25 41.125 61.25C40.2027 61.25 39.2895 61.0683 38.4374 60.7154C37.5853 60.3624 36.8111 59.8451 36.159 59.1929L35.4035 58.4375L38.875 54.966L40.3295 56.4206C40.5405 56.6315 40.8267 56.7499 41.125 56.7499C41.4233 56.7499 41.7095 56.6315 41.9205 56.4206L53.966 44.375H56.875V48.409ZM60.25 42.125H54.625V37.625H60.25V42.125ZM65.875 37.625V44.638L62.5 42.6131V37.1369L65.875 35.112V37.625ZM69.25 41H68.125V38.75H69.25V41Z" fill="white"/>
<path d="M72.9447 35.7063L76.3192 32.3318L77.9099 33.9226L74.5354 37.297L72.9447 35.7063Z" fill="white"/>
<path d="M72.9449 44.0488L74.5356 42.4581L77.9101 45.8326L76.3194 47.4233L72.9449 44.0488Z" fill="white"/>
<path d="M73.75 38.75H78.25V41H73.75V38.75Z" fill="white"/>
<path d="M25.375 77H29.875C30.1734 77 30.4595 76.8815 30.6705 76.6705C30.8815 76.4595 31 76.1734 31 75.875V71.375C31 71.0766 30.8815 70.7905 30.6705 70.5795C30.4595 70.3685 30.1734 70.25 29.875 70.25H25.375C25.0766 70.25 24.7905 70.3685 24.5795 70.5795C24.3685 70.7905 24.25 71.0766 24.25 71.375V75.875C24.25 76.1734 24.3685 76.4595 24.5795 76.6705C24.7905 76.8815 25.0766 77 25.375 77ZM26.5 72.5H28.75V74.75H26.5V72.5Z" fill="white"/>
<path d="M34.375 70.25H40V72.5H34.375V70.25Z" fill="white"/>
<path d="M42.25 70.25H53.5V72.5H42.25V70.25Z" fill="white"/>
<path d="M34.375 74.75H44.5V77H34.375V74.75Z" fill="white"/>
<path d="M46.75 74.75H49V77H46.75V74.75Z" fill="white"/>
<path d="M55.75 70.25H58V72.5H55.75V70.25Z" fill="white"/>
<path d="M24.25 20.75H27.625V23H24.25V20.75Z" fill="white"/>
<path d="M54.625 20.75H58V23H54.625V20.75Z" fill="white"/>
</svg>
