<svg width="98" height="98" viewBox="0 0 98 98" fill="none" xmlns="http://www.w3.org/2000/svg">
<rect width="98" height="98" rx="5" fill="#DC3545"/>
<path d="M26.25 24.4375H28.0625V26.25H26.25V24.4375Z" fill="white"/>
<path d="M29.875 24.4375H31.6875V26.25H29.875V24.4375Z" fill="white"/>
<path d="M33.5 24.4375H35.3125V26.25H33.5V24.4375Z" fill="white"/>
<path d="M27.1562 44.375H41.6562C41.8966 44.375 42.1271 44.2795 42.2971 44.1096C42.467 43.9396 42.5625 43.7091 42.5625 43.4688V34.4062C42.5625 34.1659 42.467 33.9354 42.2971 33.7654C42.1271 33.5955 41.8966 33.5 41.6562 33.5H27.1562C26.9159 33.5 26.6854 33.5955 26.5154 33.7654C26.3455 33.9354 26.25 34.1659 26.25 34.4062V43.4688C26.25 43.7091 26.3455 43.9396 26.5154 44.1096C26.6854 44.2795 26.9159 44.375 27.1562 44.375ZM28.0625 35.3125H40.75V42.5625H28.0625V35.3125Z" fill="white"/>
<path d="M49.8125 34.4062H64.3125V36.2188H49.8125V34.4062Z" fill="white"/>
<path d="M46.1875 38.0312H62.5V39.8438H46.1875V38.0312Z" fill="white"/>
<path d="M46.1875 41.6562H58.875V43.4688H46.1875V41.6562Z" fill="white"/>
<path d="M29.875 48H53.4375V49.8125H29.875V48Z" fill="white"/>
<path d="M26.25 51.625H49.8125V53.4375H26.25V51.625Z" fill="white"/>
<path d="M26.25 55.25H46.1875V57.0625H26.25V55.25Z" fill="white"/>
<path d="M26.25 58.875H46.1875V60.6875H26.25V58.875Z" fill="white"/>
<path d="M26.25 62.5H46.1875V64.3125H26.25V62.5Z" fill="white"/>
<path d="M26.25 48H28.0625V49.8125H26.25V48Z" fill="white"/>
<path d="M70.6562 26.25H69.75V25.3438C69.75 24.142 69.2726 22.9894 68.4228 22.1397C67.5731 21.2899 66.4205 20.8125 65.2188 20.8125H25.3438C24.142 20.8125 22.9894 21.2899 22.1397 22.1397C21.2899 22.9894 20.8125 24.142 20.8125 25.3438V65.2188C20.8125 66.4205 21.2899 67.5731 22.1397 68.4228C22.9894 69.2726 24.142 69.75 25.3438 69.75H26.25V70.6562C26.25 71.858 26.7274 73.0106 27.5772 73.8603C28.4269 74.7101 29.5795 75.1875 30.7812 75.1875H70.6562C71.858 75.1875 73.0106 74.7101 73.8603 73.8603C74.7101 73.0106 75.1875 71.858 75.1875 70.6562V30.7812C75.1875 29.5795 74.7101 28.4269 73.8603 27.5772C73.0106 26.7274 71.858 26.25 70.6562 26.25ZM69.0341 40.3331L72.8856 44.1847L70.3209 46.7494L66.4694 42.8978L69.0341 40.3331ZM52.6491 58.5578L53.365 56.7L56.5188 59.8538L54.6609 60.5697L52.6491 58.5578ZM52.8122 61.2766L51.3894 61.8294L51.9422 60.4066L52.8122 61.2766ZM55.5763 56.3556L54.2984 55.0778L65.1916 44.1847L66.4694 45.4625L55.5763 56.3556ZM67.7562 46.7494L69.0341 48.0272L58.1409 58.9203L56.8631 57.6425L67.7562 46.7494ZM22.625 25.3438C22.6272 24.6234 22.9143 23.9331 23.4237 23.4237C23.9331 22.9143 24.6234 22.6272 25.3438 22.625H65.2188C65.9391 22.6272 66.6294 22.9143 67.1388 23.4237C67.6482 23.9331 67.9353 24.6234 67.9375 25.3438V28.0625H22.625V25.3438ZM25.3438 67.9375C24.6234 67.9353 23.9331 67.6482 23.4237 67.1388C22.9143 66.6294 22.6272 65.9391 22.625 65.2188V29.875H67.9375V38.8741L52.3772 54.4344C52.2864 54.5244 52.2154 54.6325 52.1687 54.7516L48.9697 63.08C48.9039 63.2433 48.8877 63.4224 48.9232 63.5949C48.9586 63.7674 49.0442 63.9256 49.1691 64.0497C49.3405 64.2187 49.5718 64.3132 49.8125 64.3125C49.9244 64.3134 50.0353 64.2918 50.1388 64.2491L58.4672 61.05C58.5863 61.0034 58.6943 60.9324 58.7844 60.8416L67.9375 51.6884V65.2188C67.9353 65.9391 67.6482 66.6294 67.1388 67.1388C66.6294 67.6482 65.9391 67.9353 65.2188 67.9375H25.3438ZM73.375 70.6562C73.3728 71.3766 73.0857 72.0669 72.5763 72.5763C72.0669 73.0857 71.3766 73.3728 70.6562 73.375H30.7812C30.0609 73.3728 29.3706 73.0857 28.8612 72.5763C28.3518 72.0669 28.0647 71.3766 28.0625 70.6562V69.75H65.2188C66.4205 69.75 67.5731 69.2726 68.4228 68.4228C69.2726 67.5731 69.75 66.4205 69.75 65.2188V49.8759L73.375 46.2509V70.6562ZM73.375 42.1094L69.75 38.4844V35.3125H73.375V42.1094ZM73.375 33.5H69.75V28.0625H70.6562C71.3766 28.0647 72.0669 28.3518 72.5763 28.8612C73.0857 29.3706 73.3728 30.0609 73.375 30.7812V33.5Z" fill="white"/>
<path d="M46.1875 34.4062H48V36.2188H46.1875V34.4062Z" fill="white"/>
</svg>
