<svg width="98" height="98" viewBox="0 0 98 98" fill="none" xmlns="http://www.w3.org/2000/svg">
<rect width="98" height="98" rx="5" fill="#C33DAB"/>
<g clip-path="url(#clip0_1_89)">
<path d="M26.5207 45.7313L27.036 47.2472C27.2238 47.8007 26.9538 48.4009 26.4285 48.6349L21.1398 51.255C20.5965 51.5211 19.94 51.3079 19.6554 50.7792L15.5913 43.236C15.3393 42.7675 15.453 42.1988 15.8366 41.8624L29.8507 28.579L26.9578 24.9728C26.5708 24.4902 26.6484 23.7837 27.1316 23.3967C27.189 23.3466 27.2525 23.3078 27.3161 23.2757V23.2718C29.084 22.3527 30.8306 22.392 32.499 22.9703C33.908 23.4563 35.2355 24.3265 36.464 25.3024C38.5267 25.1995 40.4432 25.4582 42.215 26.019C47.2983 27.6272 51.1329 31.6738 53.7806 36.5693C56.3754 41.3685 57.8345 47.0059 58.2035 51.9115C58.4488 55.1841 58.2103 58.1625 57.5083 60.3883C57.3587 60.8608 56.9295 61.1663 56.4604 61.1758C55.4771 61.258 54.4837 61.7232 53.685 62.4297C53.0201 63.0152 52.4987 63.7566 52.2326 64.5773C51.9733 65.3648 51.9491 66.2305 52.268 67.1007C52.6275 68.0732 53.4082 69.0705 54.761 70.0122C55.2718 70.3671 55.3961 71.0657 55.0445 71.5776C54.8246 71.8898 54.4764 72.0597 54.1215 72.0597H25.8041C25.2753 72.0597 24.8282 71.694 24.7106 71.1973C24.4558 70.3317 22.1265 61.645 29.6488 54.1227C35.172 48.5995 35.6867 47.0408 34.7957 44.9466C33.2336 46.4119 31.0258 46.1003 28.9985 45.8162C27.9731 45.6705 27.018 45.5355 26.5207 45.7313ZM24.5936 47.0419L24.1706 45.7993C24.075 45.5153 24.0924 45.189 24.2488 44.9044C25.2714 43.0234 27.1952 43.2928 29.3073 43.5915C31.1141 43.8463 33.134 44.1343 33.9007 42.2989V42.3028C34.0003 42.0683 34.1769 41.8624 34.4188 41.7381C34.9661 41.4507 35.6439 41.6633 35.9313 42.2106L36.1192 42.5723C36.1299 42.5903 36.14 42.6117 36.1513 42.6297C38.2708 46.6549 38.9694 47.9863 31.2384 55.7145C25.6016 61.3547 26.2367 67.6378 26.6799 69.8102H51.2555C50.7555 69.1785 50.3966 68.5294 50.1592 67.8758C49.6518 66.496 49.6867 65.1246 50.0957 63.8832C50.4933 62.676 51.2493 61.5927 52.1972 60.7551C53.163 59.9035 54.3341 59.2926 55.5513 59.0445C56.0238 57.1624 56.1622 54.7453 55.9603 52.0791C55.6155 47.4503 54.2418 42.1431 51.8028 37.6313C49.4145 33.2117 46.0018 29.5768 41.5367 28.1638C39.9037 27.6492 38.1183 27.4253 36.1833 27.571V27.5676C35.9066 27.5884 35.6231 27.5074 35.3885 27.3156C34.2382 26.3712 33.0063 25.5162 31.7677 25.0864C31.0967 24.8558 30.4149 24.7523 29.7264 24.8344L32.243 27.976L32.247 27.9799C32.6092 28.431 32.5732 29.0908 32.1468 29.4953L17.9735 42.9278L21.1185 48.7592L24.5936 47.0419Z" fill="white"/>
<path d="M22.0022 69.8101H57.4858C58.122 69.8101 58.6963 70.0694 59.1148 70.4879C59.5299 70.903 59.7892 71.4824 59.7892 72.1169V75.9509C59.7892 76.5859 59.5299 77.1602 59.1148 77.5799C58.6963 77.995 58.1214 78.2532 57.4858 78.2532H22.0022C21.3705 78.2532 20.7917 77.995 20.376 77.5799C19.9575 77.1602 19.6982 76.5854 19.6982 75.9509V72.1169C19.6982 71.4818 19.9575 70.903 20.376 70.4879H20.3799C20.7956 70.0694 21.3705 69.8101 22.0022 69.8101ZM57.4858 72.0601H22.0022C21.9881 72.0601 21.9735 72.0679 21.9628 72.0741L21.9667 72.0786C21.9561 72.0887 21.9493 72.1028 21.9493 72.1169V75.9509C21.9493 75.9649 21.9566 75.9796 21.9667 75.9863C21.9774 75.9976 21.9881 76.0037 22.0022 76.0037H57.4858C57.4999 76.0037 57.5145 75.997 57.5212 75.9863C57.5325 75.9796 57.5387 75.9655 57.5387 75.9509V72.1169C57.5387 72.1028 57.5319 72.0882 57.5212 72.0786C57.5145 72.0674 57.5004 72.0612 57.4858 72.0612V72.0601Z" fill="white"/>
<path d="M15.8287 82.7628H63.6587C63.8038 82.7628 63.932 82.7055 64.0243 82.6132V82.6098C64.1199 82.5131 64.1767 82.386 64.1767 82.2408V78.7758C64.1767 78.6307 64.1194 78.4991 64.0271 78.4068L64.0237 78.4035C63.9315 78.3112 63.8027 78.2538 63.6581 78.2538H15.8287C15.687 78.2538 15.5554 78.3112 15.4631 78.4035L15.4597 78.4068C15.3675 78.4991 15.3101 78.6307 15.3101 78.7758V82.2408C15.3101 82.386 15.3703 82.5142 15.4625 82.6098V82.6132C15.5554 82.706 15.687 82.7628 15.8287 82.7628ZM63.6592 85.0128H15.8287C15.0727 85.0128 14.3809 84.7006 13.8769 84.1966L13.8735 84.2C13.3729 83.7 13.0607 83.0036 13.0607 82.2414V78.7764C13.0607 78.017 13.3729 77.3251 13.8735 76.8206H13.8769V76.8172C14.3809 76.316 15.0727 76.0044 15.8287 76.0044H63.6587C64.4147 76.0044 65.1065 76.3166 65.6111 76.8172L65.6145 76.8206C66.1157 77.3246 66.4273 78.017 66.4273 78.7764V82.2414C66.4273 83.0036 66.1151 83.7005 65.6145 84.2V84.1966C65.1116 84.7012 64.4147 85.0128 63.6592 85.0128Z" fill="white"/>
<path d="M64.7983 27.8585C64.7983 27.2375 65.3023 26.7329 65.9233 26.7329C66.5448 26.7329 67.0494 27.2369 67.0494 27.8585V43.0803H77.1412C77.7622 43.0803 78.2662 43.5809 78.2662 44.2019V57.7582C78.2662 58.3792 77.7622 58.8832 77.1412 58.8832C76.5197 58.8832 76.0151 58.3792 76.0151 57.7582V45.3269H65.9233C65.3023 45.3269 64.7983 44.8229 64.7983 44.2013V27.8585Z" fill="white"/>
<path d="M62.4482 33.4601C62.0612 33.9427 61.3553 34.0175 60.8727 33.6305C60.3895 33.2435 60.3113 32.5376 60.7022 32.0544L65.0464 26.6763C65.4374 26.1937 66.1439 26.1195 66.6265 26.5059C66.6912 26.5593 66.7474 26.6162 66.7969 26.6763V26.673L71.1451 32.0471C71.536 32.5297 71.4617 33.2396 70.978 33.63C70.4959 34.0203 69.7861 33.9461 69.3951 33.4629L65.92 29.1677L62.4482 33.4601Z" fill="white"/>
<path d="M65.9233 13.0127C67.1243 13.0127 68.2093 13.4987 68.9985 14.2873C69.7832 15.072 70.2686 16.1616 70.2686 17.3614C70.2686 18.5618 69.7832 19.6474 68.9985 20.436C68.2099 21.2207 67.1243 21.7067 65.9233 21.7067C64.7235 21.7067 63.634 21.2207 62.8493 20.436C62.0618 19.6479 61.5746 18.5618 61.5746 17.3614C61.5746 16.1616 62.0612 15.072 62.8493 14.2873C63.634 13.4993 64.7235 13.0127 65.9233 13.0127ZM67.4078 15.8775C67.0275 15.4973 66.5027 15.2633 65.9245 15.2633C65.3456 15.2633 64.8203 15.4973 64.44 15.8775C64.0598 16.2578 63.8258 16.7826 63.8258 17.3614C63.8258 17.9402 64.0598 18.4656 64.44 18.8453C64.8203 19.2216 65.3451 19.4595 65.9245 19.4595C66.5021 19.4595 67.0275 19.2216 67.4078 18.8453C67.7846 18.465 68.022 17.9402 68.022 17.3614C68.0215 16.7792 67.7846 16.2572 67.4078 15.8775Z" fill="white"/>
<path d="M77.1412 63.3667C78.341 63.3667 79.4272 63.8533 80.2153 64.638C81 65.4255 81.4865 66.5122 81.4865 67.712C81.4865 68.9163 81 70.0014 80.2153 70.7861C79.4278 71.5747 78.341 72.0607 77.1412 72.0607C75.9369 72.0607 74.8518 71.5753 74.066 70.7861C73.2785 70.0014 72.7925 68.9163 72.7925 67.712C72.7925 66.5122 73.2779 65.426 74.066 64.638C74.8518 63.8533 75.9375 63.3667 77.1412 63.3667ZM78.6211 66.2321C78.2454 65.8518 77.7189 65.6178 77.1412 65.6178C76.559 65.6178 76.037 65.8518 75.6568 66.2321C75.2765 66.6078 75.0425 67.1332 75.0425 67.712C75.0425 68.2942 75.2765 68.8162 75.6568 69.1964C76.037 69.5756 76.559 69.8107 77.1412 69.8107C77.7189 69.8107 78.2454 69.5756 78.6211 69.1964C79.0014 68.8162 79.2354 68.2942 79.2354 67.712C79.2354 67.1326 79.0014 66.6078 78.6211 66.2321Z" fill="white"/>
<path d="M83.1397 27.2938C83.5802 26.8539 84.2901 26.8539 84.7305 27.2938C85.1698 27.7303 85.1698 28.4441 84.7305 28.884L78.8726 34.7413C78.4333 35.1811 77.7189 35.1811 77.283 34.7413C76.8426 34.3014 76.8426 33.591 77.283 33.1511L83.1397 27.2938Z" fill="white"/>
<path d="M84.7305 33.1511C85.1698 33.591 85.1698 34.3014 84.7305 34.7413C84.2901 35.1811 83.5802 35.1811 83.1397 34.7413L77.283 28.884C76.8426 28.4441 76.8426 27.7303 77.283 27.2938C77.7189 26.8539 78.4333 26.8539 78.8726 27.2938L84.7305 33.1511Z" fill="white"/>
<path d="M52.1432 17.0281C52.5836 16.5883 53.2935 16.5883 53.7339 17.0281C54.1732 17.4646 54.1732 18.1785 53.7339 18.6183L47.876 24.4751C47.4367 24.915 46.7224 24.915 46.2864 24.4751C45.846 24.0352 45.846 23.3248 46.2864 22.8849L52.1432 17.0281Z" fill="white"/>
<path d="M53.734 22.8849C54.1744 23.3248 54.1744 24.0352 53.734 24.4751C53.2935 24.915 52.5837 24.915 52.1432 24.4751L46.2865 18.6183C45.8466 18.1785 45.8466 17.4641 46.2865 17.0281C46.723 16.5883 47.4368 16.5883 47.8767 17.0281L53.734 22.8849Z" fill="white"/>
<path d="M39.5133 32.0467C38.9452 31.7986 38.6859 31.1383 38.9311 30.5701C39.1792 30.002 39.8396 29.7427 40.4077 29.9879C43.6803 31.4116 47.2201 34.6314 49.6833 39.6326C51.6391 43.6083 52.9278 48.7237 52.8716 54.9719C52.8671 55.5896 52.3597 56.0902 51.7421 56.0829C51.1211 56.0795 50.6238 55.5721 50.6312 54.9534C50.684 49.0933 49.4842 44.3188 47.6702 40.6265C45.459 36.14 42.3562 33.2825 39.5133 32.0467Z" fill="white"/>
</g>
<defs>
<clipPath id="clip0_1_89">
<rect width="72" height="72" fill="white" transform="translate(13 13)"/>
</clipPath>
</defs>
</svg>
