<svg width="98" height="100" viewBox="0 0 98 100" fill="none" xmlns="http://www.w3.org/2000/svg">
<rect y="0.647949" width="98" height="98.704" rx="5" fill="#FF800B"/>
<path d="M21.3934 81.6484C21.4238 81.884 21.5405 82.0999 21.721 82.2544C21.9016 82.4088 22.1329 82.4908 22.3704 82.4844H35.0267C35.1784 82.4912 35.3296 82.4612 35.4673 82.3971C35.605 82.333 35.7252 82.2366 35.8176 82.1161C35.9101 81.9956 35.9722 81.8545 35.9985 81.7049C36.0248 81.5553 36.0146 81.4016 35.9689 81.2568L34.3497 75.9532L39.3941 72.7672C40.0421 72.4115 40.8009 72.3147 41.5175 72.4964C41.5377 72.5016 41.5583 72.5069 41.5789 72.5105L52.113 74.4511C55.0176 74.9708 58.0123 74.5481 60.6595 73.2447C60.7013 73.2242 60.7415 73.2007 60.7799 73.1743L78.9988 60.665C79.2056 60.523 79.3504 60.3074 79.4036 60.0623C79.4568 59.8171 79.4144 59.5609 79.285 59.346C78.5959 58.1981 77.4905 57.3602 76.199 57.007C74.9076 56.6538 73.5296 56.8124 72.3522 57.4498L72.1826 57.5413C70.8565 56.0441 68.6529 55.4848 66.9623 56.3419L66.9404 56.3535L66.325 56.6849C65.4201 55.9548 64.3155 55.5153 63.1563 55.4242C61.9971 55.3331 60.8374 55.5946 59.8295 56.1745L55.9289 58.2969H50.7258C49.6181 58.2951 48.5251 58.0442 47.5275 57.5629L46.8051 57.2128C44.7149 56.1957 42.3839 55.7769 40.0704 56.0028C37.7568 56.2286 35.5508 57.0904 33.6968 58.4925C33.6751 58.5088 33.6546 58.5257 33.6341 58.5436L31.8895 60.0969C31.3019 60.6194 30.6151 61.0183 29.8701 61.2696L28.9369 58.1796C28.8769 57.9746 28.7534 57.7938 28.5843 57.6633C28.4151 57.5328 28.209 57.4592 27.9954 57.4532H19.5579C19.4167 57.4586 19.2782 57.4936 19.1513 57.5558C19.0243 57.6179 18.9118 57.7059 18.8209 57.8142C18.7285 57.9184 18.6593 58.0412 18.6179 58.1742C18.5765 58.3073 18.5639 58.4476 18.5809 58.5859L21.3934 81.6484ZM67.8626 58.0937C68.6612 57.6953 69.6485 57.9634 70.3579 58.5266L63.7029 62.1169L63.4969 62.2256C63.3047 61.7378 63.0512 61.2764 62.7426 60.8525L67.8626 58.0937ZM60.7816 57.8968C60.7894 57.8926 60.7973 57.8883 60.8049 57.8839C61.3402 57.5743 61.9431 57.4001 62.561 57.3767C63.179 57.3532 63.7933 57.4811 64.3505 57.7493L61.2708 59.4087C60.7443 59.0402 60.1635 58.7562 59.5494 58.5669L60.7816 57.8968ZM33.1985 61.5672L34.9122 60.0415C36.4766 58.8674 38.3346 58.1475 40.2817 57.961C42.2288 57.7746 44.1896 58.1287 45.9485 58.9846L46.671 59.3352C47.9358 59.9453 49.3215 60.2633 50.7258 60.2657H57.7328C58.6729 60.2666 59.5859 60.5806 60.3277 61.158C61.0696 61.7353 61.598 62.5433 61.8298 63.4543L57.01 63.2357C55.1516 63.1516 53.2893 63.2375 51.4465 63.4923C51.1911 63.5317 50.9614 63.67 50.8071 63.8773C50.6528 64.0846 50.5862 64.3442 50.6216 64.6002C50.657 64.8561 50.7917 65.0879 50.9966 65.2455C51.2014 65.403 51.46 65.4737 51.7165 65.4422C53.4404 65.204 55.1824 65.1235 56.921 65.2017L62.8976 65.4722C62.9116 65.4722 62.9272 65.4732 62.942 65.4732C63.2031 65.4732 63.4534 65.3694 63.6381 65.1848C63.8227 65.0002 63.9264 64.7499 63.9264 64.4888C63.9264 64.401 63.9234 64.3138 63.9199 64.2269L64.6285 63.8533L73.2868 59.1823C73.8782 58.862 74.5547 58.7341 75.2222 58.8164C75.8897 58.8988 76.5149 59.1873 77.0107 59.6417L59.7242 71.5105C57.4718 72.6036 54.9309 72.9551 52.4663 72.5145L41.9644 70.5807C40.7613 70.2853 39.491 70.4583 38.4107 71.0644C38.3953 71.0731 38.38 71.0821 38.3652 71.0915L33.7527 74.0074L30.4438 63.1541C31.461 62.8192 32.3985 62.2791 33.1985 61.5673V61.5672ZM27.2664 59.4219L33.6975 80.5157H23.242L20.6696 59.4219H27.2664Z" fill="white"/>
<path d="M28.0354 80.1951C28.5638 80.1951 29.0804 80.0384 29.5198 79.7448C29.9592 79.4512 30.3016 79.0339 30.5039 78.5457C30.7061 78.0575 30.759 77.5202 30.6559 77.0019C30.5528 76.4836 30.2983 76.0076 29.9247 75.6339C29.551 75.2602 29.0749 75.0058 28.5566 74.9027C28.0383 74.7996 27.5011 74.8525 27.0129 75.0547C26.5247 75.2569 26.1074 75.5994 25.8138 76.0388C25.5202 76.4782 25.3635 76.9947 25.3635 77.5232C25.3643 78.2316 25.6461 78.9107 26.147 79.4116C26.6479 79.9125 27.327 80.1943 28.0354 80.1951ZM28.0354 76.8201C28.1744 76.8201 28.3104 76.8613 28.426 76.9386C28.5416 77.0158 28.6318 77.1256 28.685 77.2541C28.7382 77.3826 28.7521 77.524 28.725 77.6604C28.6979 77.7968 28.6309 77.922 28.5326 78.0204C28.4342 78.1187 28.3089 78.1857 28.1725 78.2128C28.0361 78.2399 27.8948 78.226 27.7663 78.1728C27.6378 78.1196 27.528 78.0295 27.4507 77.9138C27.3735 77.7982 27.3322 77.6623 27.3322 77.5232C27.3325 77.3368 27.4066 77.1581 27.5384 77.0263C27.6702 76.8944 27.849 76.8203 28.0354 76.8201Z" fill="white"/>
<path d="M33.4368 37.1812L36.1078 37.4387C36.4111 38.5385 36.8554 39.5945 37.4297 40.5804L35.7333 42.6287C35.5768 42.8175 35.4964 43.058 35.5078 43.303C35.5193 43.548 35.6218 43.7799 35.7953 43.9533L38.9985 47.1564C39.1718 47.3298 39.4036 47.4322 39.6484 47.4437C39.8933 47.4552 40.1337 47.3749 40.3225 47.2186L42.3756 45.5177C43.3606 46.0904 44.4143 46.5358 45.5115 46.8432L45.769 49.5237C45.7923 49.7683 45.9055 49.9956 46.0867 50.1615C46.2679 50.3275 46.5043 50.4203 46.75 50.422H51.2913C51.537 50.42 51.7731 50.327 51.9541 50.1609C52.1351 49.9949 52.2481 49.7677 52.2712 49.5231L52.5287 46.8477C53.6286 46.5437 54.6845 46.0988 55.6703 45.5239L57.7188 47.2191C57.9076 47.3754 58.148 47.4555 58.3928 47.4439C58.6376 47.4323 58.8694 47.3298 59.0426 47.1564L62.2453 43.9533C62.4187 43.7799 62.5212 43.5482 62.5328 43.3033C62.5443 43.0583 62.464 42.818 62.3076 42.6291L60.6061 40.5752C61.179 39.5898 61.6245 38.5358 61.9319 37.4382L64.5638 37.1813C64.8072 37.1576 65.033 37.0441 65.1973 36.863C65.3616 36.6819 65.4526 36.4461 65.4526 36.2016V31.6601C65.4526 31.4154 65.3614 31.1794 65.1969 30.9983C65.0324 30.8171 64.8063 30.7037 64.5627 30.6802L61.8917 30.4229C61.5884 29.323 61.1441 28.267 60.5698 27.2812L62.2661 25.2327C62.4218 25.0447 62.502 24.8057 62.4914 24.5619C62.4807 24.3181 62.3799 24.087 62.2085 23.9133L59.0465 20.71C58.8736 20.535 58.6413 20.4311 58.3956 20.4188C58.1498 20.4065 57.9083 20.4867 57.7188 20.6435L55.6656 22.3451C54.6806 21.7724 53.6269 21.327 52.5297 21.0196L52.2722 18.3772C52.2475 18.1363 52.1327 17.9136 51.9507 17.7539C51.7687 17.5941 51.533 17.509 51.2909 17.5158H46.75C46.5083 17.5094 46.273 17.5945 46.0914 17.7541C45.9097 17.9137 45.795 18.136 45.7701 18.3765L45.5125 21.0328C44.413 21.3335 43.357 21.7753 42.3709 22.3472L40.3223 20.6472C40.1337 20.4906 39.8935 20.41 39.6486 20.4212C39.4038 20.4323 39.1719 20.5344 38.9983 20.7075L35.7953 23.9097C35.6221 24.083 35.5198 24.3146 35.5083 24.5594C35.4968 24.8041 35.577 25.0443 35.7332 25.2331L37.4347 27.2862C36.862 28.2713 36.4166 29.325 36.1092 30.4222L33.4373 30.6797C33.1935 30.703 32.9672 30.8164 32.8025 30.9977C32.6379 31.179 32.5467 31.4152 32.5469 31.6601V36.2013C32.5469 36.446 32.638 36.682 32.8025 36.8631C32.9671 37.0443 33.1932 37.1577 33.4368 37.1812ZM34.5156 32.5542L36.9906 32.3151C37.1984 32.2951 37.3944 32.2095 37.5503 32.0708C37.7062 31.9321 37.814 31.7474 37.8581 31.5434C38.1604 30.1868 38.7056 28.8961 39.4673 27.7336C39.5807 27.5578 39.6352 27.3504 39.6228 27.1416C39.6104 26.9327 39.5318 26.7333 39.3984 26.5721L37.821 24.6672L39.7569 22.7314L41.6615 24.3088C41.8246 24.4439 42.0269 24.5228 42.2383 24.5338C42.4498 24.5448 42.6592 24.4873 42.8354 24.3698C43.9911 23.6052 45.279 23.0624 46.6333 22.7692C46.8352 22.7315 47.0194 22.6294 47.1585 22.4783C47.2976 22.3272 47.3841 22.1351 47.405 21.9308L47.6441 19.4839H50.3975L50.6366 21.9308C50.6571 22.1369 50.7431 22.3309 50.882 22.4844C51.0209 22.638 51.2054 22.7429 51.4083 22.7838C52.7649 23.0832 54.0561 23.6257 55.2193 24.3851C55.3955 24.4981 55.6031 24.5519 55.812 24.5388C56.0208 24.5258 56.2201 24.4465 56.3808 24.3124L58.2811 22.7374L60.1845 24.664L58.6016 26.572C58.4666 26.7351 58.3878 26.9373 58.3769 27.1488C58.3659 27.3602 58.4234 27.5695 58.5408 27.7457C59.3054 28.9013 59.8481 30.1891 60.1413 31.5434C60.1854 31.7474 60.2932 31.9321 60.4492 32.0708C60.6051 32.2095 60.8011 32.2951 61.0088 32.3151L63.4838 32.5542V35.3083L61.0478 35.5461C60.8402 35.5664 60.6445 35.652 60.4887 35.7907C60.333 35.9294 60.2253 36.1139 60.1812 36.3177C59.8793 37.6747 59.3343 38.9658 58.5726 40.1287C58.4592 40.3045 58.4047 40.5119 58.4171 40.7207C58.4295 40.9296 58.5081 41.1291 58.6415 41.2902L60.2196 43.1939L58.2838 45.1297L56.379 43.5523C56.2159 43.4172 56.0136 43.3383 55.8022 43.3273C55.5907 43.3164 55.3813 43.3738 55.2051 43.4913C54.0495 44.2561 52.7616 44.799 51.4072 45.0923C51.2026 45.1384 51.0178 45.248 50.8792 45.4054C50.7406 45.5628 50.6553 45.76 50.6355 45.9688L50.397 48.4533H47.6435L47.4045 45.9688C47.3845 45.7606 47.299 45.564 47.1604 45.4074C47.0217 45.2508 46.837 45.1421 46.6327 45.097C45.2759 44.7941 43.9851 44.2485 42.8225 43.4862C42.6468 43.3727 42.4395 43.318 42.2306 43.3302C42.0217 43.3424 41.8222 43.4209 41.6609 43.5542L39.7563 45.131L37.821 43.1939L39.3984 41.2891C39.5335 41.126 39.6124 40.9237 39.6233 40.7121C39.6342 40.5006 39.5767 40.2912 39.4592 40.115C38.6947 38.9594 38.1519 37.6716 37.8587 36.3173C37.8146 36.1133 37.7068 35.9286 37.5508 35.7899C37.3949 35.6512 37.1989 35.5656 36.9912 35.5456L34.5162 35.3065L34.5156 32.5542Z" fill="white"/>
<path d="M49.0204 43.7564C50.9638 43.7564 52.8636 43.1801 54.4795 42.1003C56.0954 41.0206 57.3549 39.486 58.0986 37.6905C58.8423 35.895 59.0369 33.9192 58.6577 32.0131C58.2786 30.107 57.3427 28.3562 55.9685 26.982C54.5943 25.6078 52.8434 24.6719 50.9373 24.2928C49.0312 23.9137 47.0555 24.1083 45.26 24.852C43.4645 25.5958 41.9299 26.8552 40.8502 28.4712C39.7705 30.0871 39.1942 31.9869 39.1942 33.9303C39.1972 36.5355 40.2334 39.0331 42.0755 40.8752C43.9176 42.7173 46.4152 43.7535 49.0204 43.7564ZM49.0204 26.0729C50.5744 26.0729 52.0936 26.5337 53.3857 27.3971C54.6779 28.2605 55.685 29.4877 56.2797 30.9234C56.8744 32.3592 57.03 33.939 56.7268 35.4632C56.4236 36.9874 55.6753 38.3875 54.5764 39.4864C53.4775 40.5852 52.0775 41.3336 50.5533 41.6368C49.0291 41.9399 47.4492 41.7843 46.0135 41.1896C44.5777 40.5949 43.3506 39.5878 42.4872 38.2957C41.6238 37.0035 41.163 35.4844 41.163 33.9303C41.1655 31.8472 41.9941 29.8501 43.4671 28.3772C44.9402 26.9042 46.9373 26.0757 49.0204 26.0733V26.0729Z" fill="white"/>
<path d="M47.2641 36.935C47.448 37.1145 47.6948 37.215 47.9518 37.215C48.2087 37.215 48.4555 37.1145 48.6394 36.935L53.3512 32.3347C53.4448 32.2447 53.5197 32.137 53.5715 32.0179C53.6233 31.8988 53.6511 31.7707 53.6531 31.6408C53.6552 31.5109 53.6315 31.3819 53.5835 31.2612C53.5354 31.1406 53.464 31.0306 53.3733 30.9376C53.2825 30.8447 53.1743 30.7706 53.0548 30.7197C52.9353 30.6688 52.807 30.642 52.6771 30.6409C52.5472 30.6398 52.4184 30.6644 52.2981 30.7134C52.1777 30.7623 52.0683 30.8345 51.976 30.926L47.9518 34.8546L46.0239 32.9725C45.9317 32.8811 45.8222 32.8088 45.7019 32.7599C45.5816 32.711 45.4528 32.6863 45.3229 32.6874C45.193 32.6885 45.0646 32.7153 44.9451 32.7662C44.8257 32.8171 44.7174 32.8912 44.6267 32.9842C44.536 33.0771 44.4645 33.1871 44.4165 33.3078C44.3685 33.4284 44.3448 33.5574 44.3469 33.6873C44.3489 33.8172 44.3766 33.9454 44.4285 34.0645C44.4803 34.1836 44.5551 34.2912 44.6488 34.3813L47.2641 36.935Z" fill="white"/>
</svg>
