<svg width="98" height="98" viewBox="0 0 98 98" fill="none" xmlns="http://www.w3.org/2000/svg">
<rect width="98" height="98" rx="5" fill="#076856"/>
<g clip-path="url(#clip0_1_131)">
<path d="M32.5948 80.024C32.5946 80.024 32.5946 80.024 32.5948 80.024V80.024ZM84.7506 61.122C84.4337 61.8465 83.8553 62.4037 83.122 62.6905L78.996 64.3049C78.6485 64.4408 78.2854 64.5087 77.9226 64.5087C77.5195 64.5087 77.1168 64.425 76.7356 64.2582C76.1726 64.012 75.7129 63.6066 75.4003 63.0947L70.7071 65.0958C70.8563 66.0061 70.7164 66.9657 70.244 67.8246C69.6877 68.8361 68.7668 69.5678 67.651 69.8848C67.6395 69.888 67.6278 69.8903 67.6162 69.8934C68.0359 71.0227 67.9854 72.3165 67.3663 73.4423C66.5874 74.8584 65.1191 75.6601 63.6067 75.6601C63.2938 75.6601 62.9792 75.6238 62.6683 75.5535C62.7047 76.3132 62.5403 77.0893 62.1501 77.7986C61.3713 79.2147 59.903 80.0164 58.3906 80.0164C58.2068 80.0164 58.0226 80.0037 57.8387 79.9798C57.8957 80.7744 57.734 81.5927 57.3231 82.3398C56.5443 83.7558 55.0761 84.5576 53.5637 84.5576C52.8664 84.5576 52.1601 84.3873 51.5072 84.0283L50.0262 83.2139C49.481 83.9764 48.7031 84.5368 47.7871 84.8144C47.374 84.9395 46.9524 85.0015 46.5337 85.0015C45.8397 85.0015 45.1536 84.8314 44.5264 84.4959C43.5431 83.9701 42.8489 83.1125 42.5069 82.1348C42.3259 82.2182 42.1383 82.2903 41.9441 82.3492C41.5312 82.4744 41.1095 82.5364 40.6908 82.5364C39.9969 82.5364 39.3106 82.3662 38.6834 82.0307C37.7937 81.5548 37.1413 80.8071 36.7715 79.9447C36.486 80.1099 36.1797 80.2443 35.8556 80.3425C35.4426 80.4677 35.0211 80.5297 34.6023 80.5297C33.9085 80.5297 33.2221 80.3594 32.5951 80.024C31.5894 79.4861 30.8524 78.5858 30.52 77.4887C30.3158 76.8151 30.2804 76.1187 30.4074 75.4486C30.3227 75.4537 30.2382 75.458 30.1538 75.458C29.4598 75.458 28.7737 75.2879 28.1465 74.9525C27.1409 74.4146 26.4039 73.5142 26.0715 72.417C25.739 71.32 25.8521 70.162 26.39 69.1563L27.4707 67.1357C27.191 66.5123 27.0658 65.8287 26.944 65.1618C26.7175 63.9198 26.5537 63.3124 26.0318 63.1097C25.6462 62.9601 24.4828 62.449 22.3059 61.4722C21.7409 62.1899 20.8759 62.6003 19.9799 62.6003C19.5694 62.6003 19.1529 62.5145 18.7559 62.3329L14.7261 60.4913C13.2441 59.8141 12.5893 58.0571 13.2666 56.575L21.5485 38.4534C22.2258 36.9712 23.9829 36.3166 25.4648 36.994L29.4946 38.8355C30.9766 39.513 31.6314 41.2698 30.9541 42.7519L30.7034 43.3005L34.3512 44.9833C34.3785 44.996 34.4053 45.0098 34.4316 45.0244C35.8829 45.8413 37.3885 45.4856 39.2942 45.0354C41.7783 44.4485 44.8363 43.7277 48.4175 45.8414C53.3424 42.7932 57.1243 44.3352 59.9181 45.4771C61.9493 46.3073 63.2582 46.783 64.5213 46.1262L67.9842 44.2726L67.907 44.0752C67.3133 42.5577 68.0648 40.8401 69.5821 40.2462L73.7083 38.6317C75.2261 38.0383 76.9433 38.7898 77.5373 40.3068C77.5374 40.3068 77.5374 40.3068 77.5374 40.307L84.7975 58.8615C85.0842 59.5948 85.0675 60.3975 84.7506 61.122ZM20.6255 59.9384L28.9073 41.8167C29.0662 41.469 28.9067 41.0409 28.5588 40.882L24.5292 39.0405C24.3596 38.9629 24.1684 38.9567 23.9906 39.0231C23.8127 39.0893 23.6721 39.2192 23.5948 39.3887L15.3127 57.5103C15.1538 57.8581 15.3132 58.286 15.661 58.4449L19.6907 60.2866C20.0387 60.4456 20.4666 60.2859 20.6255 59.9384ZM30.7543 73.1176C31.2739 72.9601 31.6997 72.6133 31.9544 72.1408C31.9544 72.1408 33.9619 68.388 33.9631 68.386C34.4817 67.4165 34.1009 66.1527 33.131 65.6362C32.1635 65.121 30.9017 65.4908 30.3787 66.4687C30.3787 66.4687 28.3746 70.2157 28.3736 70.2175C27.8539 71.1894 28.2372 72.4496 29.2073 72.9684C29.6831 73.2228 30.2327 73.2757 30.7543 73.1176ZM36.4066 77.2064C36.4066 77.2064 39.1223 72.1289 39.1233 72.1268C39.6411 71.1588 39.2601 69.8929 38.2914 69.377C37.3305 68.8653 36.0691 69.2286 35.5431 70.2025L32.8222 75.289C32.5676 75.7646 32.5146 76.3142 32.6728 76.836C32.831 77.3579 33.1801 77.7854 33.6558 78.0399C34.1315 78.2943 34.6807 78.3473 35.2027 78.1892C35.7247 78.0312 36.1523 77.682 36.4066 77.2064ZM42.4951 79.2131C42.4951 79.2131 44.6908 75.1073 44.6919 75.1052C45.2105 74.1353 44.83 72.8718 43.86 72.3553C42.8856 71.8364 41.6277 72.2151 41.1075 73.1878L38.9107 77.2957C38.3821 78.284 38.7561 79.518 39.7444 80.0466C40.2202 80.301 40.7694 80.3542 41.2915 80.1958C41.8133 80.0378 42.2408 79.6887 42.4951 79.2131ZM48.338 81.6783C48.338 81.6783 50.2599 78.0845 50.2605 78.0835C50.7742 77.123 50.3923 75.8469 49.4286 75.3337C48.4543 74.815 47.1964 75.1932 46.6761 76.1662L44.7534 79.7614C44.2253 80.7496 44.5994 81.9833 45.5874 82.5118C46.0633 82.7663 46.6128 82.8195 47.1344 82.661C47.6561 82.5029 48.0836 82.1539 48.338 81.6783ZM54.7051 78.5916L52.7618 77.5228C52.7518 77.5173 52.7428 77.5107 52.733 77.5051C52.6836 78.0727 52.5204 78.6288 52.2446 79.1447L51.1199 81.2478L52.5912 82.057C53.5735 82.5971 54.8116 82.2377 55.3516 81.2557C55.8603 80.3308 55.5663 79.1752 54.7051 78.5916ZM67.4563 63.9716L56.5358 57.7473C54.6688 56.6829 52.346 57.6235 49.657 58.7123C45.6022 60.3538 40.5557 62.3968 36.2873 56.5149C36.0997 56.2564 36.0308 55.9303 36.0977 55.6181C36.1647 55.3059 36.3614 55.0368 36.6386 54.878C39.8797 53.0213 42.6035 50.988 44.7345 48.8346C45.2792 48.2842 45.8312 47.7778 46.3856 47.316C43.9854 46.2397 41.9479 46.7203 39.8112 47.2252C37.7267 47.7175 35.572 48.2266 33.3692 47.0083L29.7678 45.3468L23.3177 59.4604C24.6042 60.0375 26.4102 60.8433 26.8456 61.0123C28.46 61.6391 28.8612 63.1917 29.099 64.4439C29.5982 63.93 30.2227 63.547 30.9298 63.3326C32.0272 63.0002 33.185 63.1133 34.1906 63.6512C35.1932 64.1851 35.9301 65.084 36.2635 66.181C36.3444 66.4471 36.3987 66.7166 36.4275 66.9868C37.4219 66.7697 38.4477 66.9089 39.351 67.3919C40.3536 67.9259 41.0905 68.8246 41.4239 69.9218C41.443 69.9849 41.4605 70.0482 41.4767 70.1116C41.5368 70.0905 41.5973 70.0703 41.6588 70.0516C42.7559 69.7191 43.914 69.8323 44.9196 70.3701C45.9222 70.9042 46.659 71.8029 46.9925 72.8999C47.0118 72.9631 47.0291 73.0265 47.0453 73.0899C47.1053 73.0688 47.1659 73.0484 47.2272 73.0299C48.324 72.6974 49.4822 72.8105 50.488 73.3484C50.9778 73.6092 51.4037 73.9576 51.7506 74.3731L57.4182 77.5154C58.3997 78.0551 59.6384 77.6962 60.1786 76.7142C60.7136 75.7418 60.3498 74.5011 59.3677 73.9484L52.6269 70.1545C52.0854 69.8498 51.8936 69.1638 52.1983 68.6223C52.5031 68.0808 53.1889 67.8889 53.7306 68.1936L62.6342 73.1591C63.6158 73.699 64.8544 73.3398 65.3947 72.3578C65.9259 71.3921 65.5699 70.1624 64.603 69.6042C64.5404 69.5729 56.5881 65.0848 56.5881 65.0848C56.0471 64.7793 55.8563 64.093 56.1618 63.552C56.4673 63.0112 57.1534 62.8198 57.6947 63.1258L65.5232 67.5477C65.981 67.8062 66.5183 67.8675 67.0358 67.7204C67.5689 67.569 68.0081 67.2208 68.2725 66.7403C68.8043 65.7735 68.4383 64.5313 67.4563 63.9716ZM74.5362 61.0173L68.8098 46.3827L65.5711 48.1162C63.3078 49.2933 61.1516 48.4122 59.0664 47.5599C56.2185 46.3958 53.2735 45.1922 49.0172 48.1345C48.1257 48.7507 47.2229 49.5188 46.3338 50.4172C44.3167 52.4554 41.8182 54.3835 38.8945 56.1594C41.9037 59.4231 45.1271 58.1187 48.8126 56.6268C51.7736 55.4281 54.8353 54.1884 57.6501 55.7926L68.5704 62.017C69.048 62.2891 69.4547 62.6398 69.7836 63.0437L74.5362 61.0173ZM82.7019 59.6815C82.7019 59.6815 75.445 41.1351 75.4418 41.127C75.3043 40.7754 74.8795 40.5895 74.528 40.7272L70.402 42.3415C70.046 42.4809 69.8628 42.8994 70.0022 43.2555L77.2623 61.81C77.3301 61.9835 77.4634 62.121 77.6373 62.1971C77.8112 62.2733 78.0026 62.2778 78.176 62.2098L82.3021 60.5954C82.4756 60.5275 82.6131 60.3943 82.6892 60.2203C82.7653 60.0464 82.7699 59.855 82.7019 59.6815ZM73.5214 42.5802C72.6583 42.5802 71.9542 43.2842 71.9542 44.1473C71.9542 45.0105 72.6583 45.7146 73.5214 45.7146C74.3846 45.7146 75.0887 45.0105 75.0887 44.1473C75.0887 43.2842 74.3847 42.5802 73.5214 42.5802ZM25.4309 40.9468C24.5666 40.8986 23.8271 41.5601 23.7789 42.4244C23.7306 43.2887 24.3921 44.0282 25.2564 44.0764C26.1207 44.1247 26.8602 43.4632 26.9085 42.5989C26.9567 41.7346 26.2952 40.9949 25.4309 40.9468ZM25.5887 33.5533C25.0331 32.7996 24.8797 31.892 25.1567 30.9977C25.9282 28.5066 27.7117 26.5678 29.978 25.5678C29.0948 24.6665 28.5487 23.4335 28.5487 22.075C28.5487 19.3211 30.7893 17.0805 33.5432 17.0805C36.297 17.0805 38.5373 19.321 38.5373 22.0748C38.5373 23.4328 37.9918 24.6653 37.1094 25.5664C38.2208 26.058 39.2213 26.7803 40.0483 27.6981C41.3083 26.0866 42.9925 24.8333 44.9269 24.0933C43.5676 22.9374 42.703 21.2166 42.703 19.2968C42.703 15.8247 45.5279 13 49 13C52.472 13 55.2967 15.8247 55.2967 19.2969C55.2967 21.2169 54.432 22.9377 53.0729 24.0936C55.0073 24.8336 56.6914 26.087 57.9514 27.6985C58.7786 26.7807 59.779 26.0584 60.8904 25.5668C60.0079 24.6655 59.4623 23.4331 59.4623 22.0751C59.4623 19.3212 61.7029 17.0808 64.4567 17.0808C67.2106 17.0808 69.4512 19.3212 69.4512 22.0751C69.4512 23.4338 68.9051 24.6668 68.0219 25.5681C70.288 26.5681 72.0717 28.5067 72.8431 30.998C73.1201 31.8923 72.9667 32.7999 72.4111 33.5536C71.8552 34.3074 71.0336 34.7225 70.0975 34.7225H60.2951V35.6647C60.2949 37.7923 58.5639 39.5233 56.4365 39.5233H41.5633C39.4356 39.5233 37.7048 37.7923 37.7048 35.6647V34.7222H27.9023C26.9657 34.7221 26.1442 34.3071 25.5887 33.5533ZM64.4556 24.8194H64.4566H64.4577C65.9704 24.8188 67.2012 23.5879 67.2012 22.0751C67.2012 20.5618 65.97 19.3308 64.4567 19.3308C62.9435 19.3308 61.7123 20.5618 61.7123 22.0751C61.7123 23.5879 62.9429 24.8188 64.4556 24.8194ZM59.2096 29.7175C59.628 30.578 59.9428 31.5006 60.1348 32.4725H70.0975C70.3125 32.4725 70.4723 32.3918 70.6001 32.2185C70.7276 32.0455 70.7575 31.8691 70.6939 31.6636C69.8431 28.9162 67.3373 27.0702 64.4583 27.0695C64.4579 27.0695 64.4573 27.0695 64.4569 27.0695C64.4565 27.0695 64.456 27.0695 64.4556 27.0695C62.3555 27.0698 60.4381 28.0504 59.2096 29.7175ZM48.997 23.3437H48.9998H49.0028C51.2329 23.3421 53.0469 21.5274 53.0469 19.2969C53.0467 17.0655 51.2314 15.25 49 15.25C46.7685 15.25 44.953 17.0655 44.953 19.2969C44.953 21.5274 46.767 23.3421 48.997 23.3437ZM39.9548 33.6588V35.6645C39.9548 36.5516 40.6764 37.2731 41.5633 37.2731H56.4363C57.3234 37.2731 58.0448 36.5515 58.045 35.6645V33.6588C57.5234 29.0574 53.6465 25.5951 49.0026 25.5937C49.0018 25.5937 49.0008 25.5937 48.9998 25.5937C48.9988 25.5937 48.9978 25.5935 48.9969 25.5935C44.353 25.5951 40.4761 29.0575 39.9548 33.6588ZM33.542 24.8191H33.543C33.543 24.8191 33.5437 24.8191 33.544 24.8191C35.0568 24.8185 36.2873 23.5877 36.2873 22.0748C36.2873 20.5615 35.0563 19.3304 33.543 19.3304C32.0297 19.3304 30.7986 20.5615 30.7986 22.0748C30.7986 23.5878 32.0292 24.8185 33.542 24.8191ZM27.3997 32.2184C27.5274 32.3915 27.687 32.4722 27.9021 32.4722H37.865C38.0569 31.5005 38.3718 30.5777 38.79 29.7174C37.5615 28.0503 35.6439 27.0697 33.544 27.0692C33.5437 27.0692 33.5433 27.0692 33.5429 27.0692C33.5424 27.0692 33.5419 27.0692 33.5413 27.0692C30.6622 27.07 28.1564 28.9159 27.3056 31.6633C27.2422 31.8686 27.272 32.0451 27.3997 32.2184Z" fill="white"/>
</g>
<defs>
<clipPath id="clip0_1_131">
<rect width="72" height="72" fill="white" transform="translate(13 13)"/>
</clipPath>
</defs>
</svg>
