<svg width="1440" height="786" viewBox="0 0 1440 786" fill="none" xmlns="http://www.w3.org/2000/svg">
<g clip-path="url(#clip0_2_4)">
<circle cx="720" cy="393" r="496.75" stroke="#814124" stroke-width="0.5" stroke-dasharray="8 8"/>
<circle cx="719.5" cy="392.5" r="589.25" stroke="#814124" stroke-width="0.5"/>
<g clip-path="url(#clip1_2_4)">
<path d="M321.049 189.67C304.403 191.446 287.615 191.446 270.969 189.67C267.737 189.329 264.719 187.89 262.419 185.593C260.119 183.296 258.675 180.281 258.329 177.049C256.554 160.403 256.554 143.615 258.329 126.969C258.671 123.737 260.11 120.719 262.407 118.419C264.704 116.119 267.719 114.675 270.951 114.329C287.597 112.554 304.385 112.554 321.031 114.329C324.263 114.671 327.281 116.11 329.581 118.407C331.881 120.704 333.325 123.719 333.67 126.951C335.446 143.597 335.446 160.385 333.67 177.031C333.329 180.263 331.89 183.281 329.593 185.581C327.296 187.881 324.281 189.325 321.049 189.67Z" fill="#E60000"/>
<path d="M319.236 140.273C318.261 137.273 315.035 135.456 312.065 135.039C301.385 133.905 290.615 133.905 279.935 135.039C276.965 135.456 273.73 137.255 272.764 140.273C271.244 148.019 271.244 155.986 272.764 163.731C273.739 166.727 276.965 168.548 279.935 168.965C290.615 170.1 301.385 170.1 312.065 168.965C315.035 168.548 318.27 166.749 319.236 163.731C320.756 155.986 320.756 148.019 319.236 140.273ZM290.168 161.342V142.658L305.378 152C300.25 155.151 295.273 158.205 290.168 161.342Z" fill="white"/>
</g>
<g clip-path="url(#clip2_2_4)">
<path d="M218.695 607H149.302C146.926 607.001 144.999 608.929 145 611.305V680.698C145.001 683.074 146.929 685.001 149.305 685H218.695C221.072 685.001 222.999 683.074 223 680.696C223 680.696 223 680.695 223 680.695V611.302C222.999 608.926 221.071 606.999 218.695 607Z" fill="#4267B2"/>
<path d="M198.854 685V654.836H209.022L210.546 643.029H198.854V635.51C198.854 632.099 199.8 629.775 204.691 629.775H210.889V619.244C209.81 619.101 206.111 618.78 201.806 618.78C192.817 618.78 186.666 624.264 186.666 634.34V643.029H176.535V654.836H186.666V685H198.854Z" fill="white"/>
</g>
<g clip-path="url(#clip3_2_4)">
<path d="M1220.36 509H1163.64C1157.76 509 1153 513.762 1153 519.636V576.364C1153 582.238 1157.76 587 1163.64 587H1220.36C1226.24 587 1231 582.238 1231 576.364V519.636C1231 513.762 1226.24 509 1220.36 509Z" fill="#50ABF1"/>
<path d="M1216.28 533.246C1215.13 534.975 1213.72 536.521 1212.1 537.833C1211.89 538 1211.72 538.212 1211.61 538.453C1211.49 538.694 1211.43 538.958 1211.43 539.225V539.389C1211.42 542.872 1210.78 546.324 1209.55 549.582C1208.28 552.997 1206.4 556.152 1203.99 558.889C1200.78 562.555 1196.63 565.289 1192 566.804C1188.95 567.795 1185.75 568.292 1182.54 568.276C1177.46 568.27 1172.46 566.922 1168.07 564.367C1167.91 564.277 1167.79 564.139 1167.72 563.972C1167.64 563.806 1167.63 563.621 1167.67 563.445C1167.72 563.271 1167.82 563.117 1167.96 563.008C1168.1 562.899 1168.28 562.841 1168.46 562.842H1169.67C1173.54 562.842 1177.31 561.686 1180.52 559.523C1178.61 559.211 1176.82 558.379 1175.35 557.119C1173.89 555.859 1172.79 554.219 1172.19 552.379C1172.16 552.288 1172.16 552.191 1172.18 552.098C1172.2 552.004 1172.24 551.918 1172.3 551.846C1172.37 551.775 1172.45 551.721 1172.54 551.69C1172.63 551.659 1172.73 551.652 1172.82 551.67C1173.4 551.781 1174 551.837 1174.59 551.838H1174.81C1172.96 550.988 1171.4 549.619 1170.31 547.898C1169.22 546.177 1168.65 544.178 1168.68 542.141C1168.68 542.046 1168.7 541.952 1168.75 541.869C1168.8 541.787 1168.87 541.718 1168.95 541.67C1169.03 541.622 1169.13 541.596 1169.22 541.595C1169.32 541.593 1169.41 541.617 1169.5 541.663C1170.25 542.082 1171.05 542.395 1171.89 542.593C1170.23 540.955 1169.16 538.813 1168.86 536.503C1168.55 534.193 1169.01 531.846 1170.18 529.83C1170.23 529.755 1170.29 529.693 1170.36 529.647C1170.44 529.601 1170.52 529.573 1170.61 529.566C1170.69 529.559 1170.78 529.572 1170.86 529.605C1170.94 529.637 1171.01 529.689 1171.07 529.754C1173.39 532.624 1176.26 534.997 1179.52 536.735C1182.78 538.472 1186.35 539.537 1190.02 539.868H1190.06C1190.12 539.866 1190.17 539.853 1190.22 539.83C1190.27 539.807 1190.31 539.775 1190.35 539.735C1190.39 539.694 1190.41 539.647 1190.43 539.596C1190.45 539.545 1190.45 539.491 1190.44 539.438C1190.31 538.151 1190.39 536.85 1190.69 535.591C1190.96 534.489 1191.41 533.44 1192.02 532.489C1193.31 530.459 1195.28 528.952 1197.58 528.234C1198.66 527.896 1199.78 527.723 1200.91 527.72C1203.47 527.717 1205.94 528.651 1207.86 530.344C1208.11 530.561 1208.42 530.684 1208.75 530.689C1208.86 530.688 1208.96 530.673 1209.07 530.645C1210.87 530.188 1212.6 529.473 1214.2 528.522C1214.3 528.466 1214.41 528.441 1214.52 528.449C1214.63 528.458 1214.74 528.499 1214.83 528.569C1214.91 528.638 1214.98 528.732 1215.01 528.838C1215.04 528.945 1215.04 529.058 1215.01 529.165C1214.47 530.842 1213.52 532.357 1212.24 533.57C1213.4 533.295 1214.52 532.915 1215.6 532.435C1215.71 532.387 1215.84 532.375 1215.95 532.402C1216.07 532.429 1216.17 532.493 1216.25 532.585C1216.33 532.677 1216.37 532.791 1216.38 532.91C1216.38 533.03 1216.35 533.148 1216.28 533.246Z" fill="white"/>
</g>
<g clip-path="url(#clip4_2_4)">
<path d="M1307.66 126.951C1306.95 120.299 1301.7 115.045 1295.05 114.335C1278.37 112.555 1261.63 112.555 1244.95 114.335C1238.3 115.045 1233.05 120.299 1232.34 126.951C1230.56 143.634 1230.56 160.366 1232.34 177.048C1233.05 183.701 1238.3 188.955 1244.95 189.665C1261.63 191.445 1278.37 191.445 1295.05 189.665C1301.7 188.955 1306.95 183.701 1307.66 177.048C1309.45 160.366 1309.45 143.634 1307.66 126.951Z" fill="url(#paint0_radial_2_4)"/>
<path d="M1303.42 129.773C1302.79 123.87 1298.13 119.207 1292.23 118.577C1277.42 116.998 1262.58 116.998 1247.77 118.577C1241.87 119.207 1237.21 123.87 1236.58 129.773C1235 144.576 1235 159.424 1236.58 174.227C1237.21 180.13 1241.87 184.793 1247.77 185.422C1262.58 187.002 1277.42 187.002 1292.23 185.422C1298.13 184.793 1302.79 180.13 1303.42 174.227C1305 159.424 1305 144.576 1303.42 129.773Z" fill="url(#paint1_linear_2_4)"/>
<path d="M1232.17 175.431C1232.22 175.97 1232.28 176.509 1232.34 177.049C1233.05 183.701 1238.3 188.955 1244.95 189.665C1261.63 191.445 1278.37 191.445 1295.05 189.665C1301.7 188.955 1306.95 183.701 1307.66 177.049C1307.72 176.509 1307.78 175.97 1307.83 175.431H1232.17Z" fill="url(#paint2_linear_2_4)"/>
<path d="M1307.66 177.048C1308.62 168.084 1309.06 159.106 1308.99 150.129L1291.16 132.3C1288.94 129.757 1285.68 128.17 1281.86 128.033C1274 127.749 1266.11 127.764 1258.25 128.034C1251.72 128.259 1247.15 132.648 1245.98 139.1C1245.77 140.239 1245.65 141.392 1245.49 142.54V161.453C1245.58 162.066 1245.71 162.676 1245.75 163.292C1246.01 167.216 1247.62 170.578 1250.21 172.851L1268.35 190.994C1277.25 191.056 1286.16 190.614 1295.05 189.665C1301.7 188.955 1306.95 183.701 1307.66 177.048Z" fill="url(#paint3_linear_2_4)"/>
<path d="M1307.66 177.049C1306.96 183.7 1301.7 188.955 1295.05 189.665C1286.16 190.613 1277.25 191.056 1268.35 190.994L1250.23 172.878C1252.33 174.716 1255.07 175.836 1258.25 175.955C1266.11 176.251 1274 176.243 1281.86 175.96C1288.97 175.702 1294.11 170.44 1294.34 163.33C1294.57 155.781 1294.57 148.212 1294.34 140.662C1294.24 137.382 1293.08 134.496 1291.17 132.312L1308.99 150.13C1309.06 159.105 1308.62 168.085 1307.66 177.049Z" fill="url(#paint4_linear_2_4)"/>
<path d="M1279.2 143.554C1276.92 141.067 1273.64 139.507 1270 139.507C1263.1 139.507 1257.51 145.1 1257.51 152C1257.51 155.643 1259.07 158.92 1261.55 161.204L1290.46 190.109C1291.99 189.976 1293.52 189.828 1295.05 189.665C1301.7 188.955 1306.95 183.701 1307.66 177.048C1307.83 175.519 1307.98 173.989 1308.11 172.459L1279.2 143.554Z" fill="url(#paint5_linear_2_4)"/>
<path d="M1308.85 160.402L1285.59 137.139C1285.04 136.427 1284.19 135.965 1283.22 135.965C1281.58 135.965 1280.25 137.295 1280.25 138.937C1280.25 139.902 1280.71 140.757 1281.43 141.3L1308.43 168.308C1308.62 165.673 1308.75 163.038 1308.85 160.402Z" fill="url(#paint6_linear_2_4)"/>
<path d="M1245.49 142.54C1245.65 141.392 1245.77 140.239 1245.98 139.1C1247.15 132.648 1251.72 128.259 1258.25 128.034C1266.11 127.764 1274 127.749 1281.86 128.033C1288.97 128.289 1294.11 133.552 1294.34 140.662C1294.57 148.212 1294.57 155.78 1294.34 163.33C1294.11 170.44 1288.97 175.703 1281.86 175.959C1274 176.243 1266.11 176.25 1258.25 175.955C1251.14 175.688 1246.22 170.413 1245.75 163.292C1245.71 162.676 1245.58 162.065 1245.49 161.452C1245.49 155.148 1245.49 148.844 1245.49 142.54ZM1270.01 171.745C1273.6 171.745 1277.21 171.853 1280.8 171.72C1286.43 171.511 1289.9 168.149 1290.03 162.521C1290.19 155.507 1290.19 148.485 1290.03 141.471C1289.9 135.844 1286.43 132.403 1280.8 132.283C1273.65 132.132 1266.5 132.133 1259.35 132.283C1253.76 132.401 1250.28 135.772 1250.13 141.337C1249.94 148.439 1249.94 155.553 1250.13 162.655C1250.28 168.22 1253.76 171.513 1259.35 171.72C1262.9 171.852 1266.45 171.745 1270.01 171.745Z" fill="url(#paint7_linear_2_4)"/>
<path d="M1245.49 142.54C1245.65 141.392 1245.77 140.239 1245.98 139.1C1247.15 132.648 1251.72 128.259 1258.25 128.034C1266.11 127.764 1274 127.749 1281.86 128.033C1288.97 128.289 1294.11 133.552 1294.34 140.662C1294.57 148.212 1294.57 155.78 1294.34 163.33C1294.11 170.44 1288.97 175.703 1281.86 175.959C1274 176.243 1266.11 176.25 1258.25 175.955C1251.14 175.688 1246.22 170.413 1245.75 163.292C1245.71 162.676 1245.58 162.065 1245.49 161.452C1245.49 155.148 1245.49 148.844 1245.49 142.54ZM1270.01 171.745C1273.6 171.745 1277.21 171.853 1280.8 171.72C1286.43 171.511 1289.9 168.149 1290.03 162.521C1290.19 155.507 1290.19 148.485 1290.03 141.471C1289.9 135.844 1286.43 132.403 1280.8 132.283C1273.65 132.132 1266.5 132.133 1259.35 132.283C1253.76 132.401 1250.28 135.772 1250.13 141.337C1249.94 148.439 1249.94 155.553 1250.13 162.655C1250.28 168.22 1253.76 171.513 1259.35 171.72C1262.9 171.852 1266.45 171.745 1270.01 171.745Z" fill="white"/>
<path d="M1270 139.507C1263.1 139.507 1257.51 145.1 1257.51 152C1257.51 158.9 1263.1 164.493 1270 164.493C1276.9 164.493 1282.49 158.9 1282.49 152C1282.49 145.1 1276.9 139.507 1270 139.507ZM1270 160.192C1265.48 160.192 1261.81 156.524 1261.81 152C1261.81 147.475 1265.48 143.808 1270 143.808C1274.52 143.808 1278.19 147.475 1278.19 152C1278.19 156.524 1274.52 160.192 1270 160.192Z" fill="white"/>
<path d="M1286.19 138.937C1286.19 140.578 1284.86 141.909 1283.22 141.909C1281.58 141.909 1280.25 140.578 1280.25 138.937C1280.25 137.295 1281.58 135.965 1283.22 135.965C1284.86 135.965 1286.19 137.295 1286.19 138.937Z" fill="white"/>
</g>
<g clip-path="url(#clip5_2_4)">
<path d="M150.683 318.176L94.1762 333.317L109.317 389.824L165.824 374.683L150.683 318.176Z" fill="#ECEFF1"/>
<path d="M131.592 359.943L165.824 374.683L154.021 330.636L131.592 359.943Z" fill="#CFD8DC"/>
<path d="M153.037 317.545L150.683 318.176L128.408 348.057L94.1762 333.317L91.8218 333.948C87.9228 334.993 85.6063 339.005 86.651 342.904L98.0067 385.284C99.0514 389.183 103.064 391.499 106.963 390.455L109.317 389.824L97.5148 345.777L131.591 359.938L154.02 330.631L165.824 374.683L168.178 374.052C172.077 373.007 174.394 368.995 173.349 365.096L161.993 322.716C160.949 318.817 156.936 316.501 153.037 317.545Z" fill="#F44336"/>
</g>
</g>
<defs>
<radialGradient id="paint0_radial_2_4" cx="0" cy="0" r="1" gradientUnits="userSpaceOnUse" gradientTransform="translate(1246.99 181.166) scale(86.0202)">
<stop stop-color="#FAE100"/>
<stop offset="0.0544" stop-color="#FADC04"/>
<stop offset="0.1167" stop-color="#FBCE0E"/>
<stop offset="0.1829" stop-color="#FCB720"/>
<stop offset="0.2514" stop-color="#FE9838"/>
<stop offset="0.3054" stop-color="#FF7950"/>
<stop offset="0.4922" stop-color="#FF1C74"/>
<stop offset="1" stop-color="#6C1CD1"/>
</radialGradient>
<linearGradient id="paint1_linear_2_4" x1="1260.92" y1="146.89" x2="1128.78" y2="72.5609" gradientUnits="userSpaceOnUse">
<stop stop-color="#A1B5D8" stop-opacity="0"/>
<stop offset="0.3094" stop-color="#90A2BD" stop-opacity="0.309804"/>
<stop offset="0.7554" stop-color="#7C8B9C" stop-opacity="0.756863"/>
<stop offset="1" stop-color="#748290"/>
</linearGradient>
<linearGradient id="paint2_linear_2_4" x1="1270" y1="181.854" x2="1270" y2="194.012" gradientUnits="userSpaceOnUse">
<stop stop-color="#FAE100" stop-opacity="0"/>
<stop offset="0.3068" stop-color="#FCA800" stop-opacity="0.305882"/>
<stop offset="0.6275" stop-color="#FE7300" stop-opacity="0.627451"/>
<stop offset="0.8685" stop-color="#FF5200" stop-opacity="0.866667"/>
<stop offset="1" stop-color="#FF4500"/>
</linearGradient>
<linearGradient id="paint3_linear_2_4" x1="1265.56" y1="147.452" x2="1246.26" y2="128.148" gradientUnits="userSpaceOnUse">
<stop stop-color="#833AB4" stop-opacity="0"/>
<stop offset="1" stop-color="#833AB4"/>
</linearGradient>
<linearGradient id="paint4_linear_2_4" x1="1284.46" y1="184.341" x2="1274.82" y2="138.919" gradientUnits="userSpaceOnUse">
<stop stop-color="#833AB4" stop-opacity="0"/>
<stop offset="1" stop-color="#833AB4"/>
</linearGradient>
<linearGradient id="paint5_linear_2_4" x1="1288.12" y1="170.124" x2="1249.42" y2="131.425" gradientUnits="userSpaceOnUse">
<stop stop-color="#833AB4" stop-opacity="0"/>
<stop offset="1" stop-color="#833AB4"/>
</linearGradient>
<linearGradient id="paint6_linear_2_4" x1="1290.99" y1="146.708" x2="1278.2" y2="133.911" gradientUnits="userSpaceOnUse">
<stop stop-color="#833AB4" stop-opacity="0"/>
<stop offset="1" stop-color="#833AB4"/>
</linearGradient>
<linearGradient id="paint7_linear_2_4" x1="1285.49" y1="136.621" x2="1253.93" y2="168.174" gradientUnits="userSpaceOnUse">
<stop stop-color="#833AB4"/>
<stop offset="0.0922" stop-color="#9C3495"/>
<stop offset="0.2927" stop-color="#DC2546"/>
<stop offset="0.392" stop-color="#FD1D1D"/>
<stop offset="0.5589" stop-color="#FC6831"/>
<stop offset="0.6887" stop-color="#FC9B40"/>
<stop offset="0.7521" stop-color="#FCAF45"/>
<stop offset="0.7806" stop-color="#FDB750"/>
<stop offset="0.8656" stop-color="#FECB6A"/>
<stop offset="0.9415" stop-color="#FFD87A"/>
<stop offset="1" stop-color="#FFDC80"/>
</linearGradient>
<clipPath id="clip0_2_4">
<rect width="1440" height="786" fill="white"/>
</clipPath>
<clipPath id="clip1_2_4">
<rect width="78" height="78" fill="white" transform="translate(257 113)"/>
</clipPath>
<clipPath id="clip2_2_4">
<rect width="78" height="78" fill="white" transform="translate(145 607)"/>
</clipPath>
<clipPath id="clip3_2_4">
<rect width="78" height="78" fill="white" transform="translate(1153 509)"/>
</clipPath>
<clipPath id="clip4_2_4">
<rect width="78" height="78" fill="white" transform="translate(1231 113)"/>
</clipPath>
<clipPath id="clip5_2_4">
<rect width="78" height="78" fill="white" transform="translate(82.2349 326.423) rotate(-15)"/>
</clipPath>
</defs>
</svg>
