<svg width="68" height="68" viewBox="0 0 68 68" fill="none" xmlns="http://www.w3.org/2000/svg">
<path d="M35.1505 65.8685C35.1526 66.4553 34.6786 66.9328 34.0917 66.9348C34.0519 66.9349 34.0114 66.935 33.9715 66.935C26.9865 66.935 20.3038 64.7602 14.6371 60.6417C7.52074 55.4697 2.84441 47.8359 1.46967 39.1468C0.0949281 30.4578 2.18606 21.7534 7.35818 14.6372C10.8069 9.89192 15.3886 6.20253 20.7046 3.86516L18.2824 3.25781C17.7132 3.11517 17.3675 2.53796 17.5102 1.96886C17.6529 1.39976 18.2301 1.05365 18.7993 1.19669L24.5028 2.62682C24.8196 2.70637 25.0823 2.92697 25.2151 3.2254C25.3479 3.52383 25.3361 3.86675 25.1829 4.15536L22.4276 9.34978C22.2368 9.70944 21.8687 9.9145 21.4881 9.91464C21.3201 9.91464 21.1498 9.87466 20.9911 9.79046C20.4727 9.51554 20.2754 8.87232 20.5503 8.35396L22.0005 5.62014C16.8411 7.79375 12.398 11.3171 9.07704 15.8865C4.23868 22.5438 2.28235 30.6866 3.56851 38.815C4.85453 46.9434 9.22911 54.0846 15.8863 58.9228C21.2178 62.7976 27.5084 64.8289 34.0842 64.8099H34.088C34.6731 64.8098 35.1484 65.283 35.1505 65.8685ZM66.5303 28.8532C65.1555 20.164 60.4792 12.5304 53.363 7.35813C47.6961 3.23961 41.0142 1.06494 34.0309 1.06494C33.9901 1.06494 33.9487 1.06507 33.9079 1.06521C33.3212 1.06746 32.8472 1.54479 32.8493 2.13156C32.8514 2.717 33.3266 3.19021 33.9118 3.19021H33.9158C40.4885 3.16789 46.7814 5.20179 52.1137 9.07712C65.8561 19.065 68.9107 38.371 58.9229 52.1135C55.6038 56.6803 51.1577 60.2054 45.9998 62.3789L47.4495 59.6459C47.7244 59.1275 47.5271 58.4843 47.0087 58.2094C46.4902 57.9343 45.8471 58.1318 45.5722 58.65L42.8169 63.8446C42.6639 64.1332 42.652 64.4761 42.7848 64.7746C42.9177 65.073 43.1804 65.2937 43.4971 65.3731L49.2006 66.8033C49.2873 66.8251 49.3743 66.8354 49.4599 66.8354C49.9357 66.8354 50.3687 66.5135 50.4897 66.031C50.6325 65.4619 50.2868 64.8847 49.7175 64.742L47.2949 64.1347C52.6102 61.7974 57.1949 58.1055 60.6418 53.3629C65.8137 46.2467 67.905 37.5423 66.5303 28.8532ZM44.5096 52.1777C42.9109 53.1042 41.2041 53.8117 39.4214 54.287L38.1371 57.6239C37.9793 58.0341 37.5851 58.3047 37.1455 58.3047H30.8546C30.415 58.3047 30.0209 58.0341 29.863 57.6239L28.5782 54.2861C26.7973 53.8112 25.0906 53.1035 23.4917 52.1772L20.2208 53.63C19.8192 53.8081 19.349 53.7211 19.0382 53.4103L14.5898 48.962C14.279 48.6511 14.1916 48.1811 14.3701 47.7795L15.8225 44.5096C14.8961 42.911 14.1886 41.2041 13.7133 39.4215L10.3763 38.137C9.96622 37.9792 9.69555 37.5851 9.69555 37.1454V30.8546C9.69555 30.415 9.96622 30.021 10.3763 29.8631L13.7138 28.5784C14.1889 26.7968 14.8963 25.0902 15.8227 23.4914L14.3701 20.2208C14.1918 19.8191 14.279 19.3491 14.59 19.0382L19.0382 14.5899C19.349 14.2789 19.8192 14.192 20.2208 14.3701L23.4917 15.8229C25.0905 14.8966 26.7969 14.1891 28.5782 13.7139L29.863 10.376C30.0209 9.9659 30.415 9.69523 30.8546 9.69523H37.1454C37.585 9.69523 37.979 9.9659 38.1369 10.376L39.4216 13.7139C41.2031 14.1891 42.9094 14.8966 44.5081 15.8229L47.7791 14.3701C48.1806 14.1921 48.6508 14.279 48.9617 14.5898L53.4101 19.0381C53.7209 19.349 53.8083 19.819 53.6299 20.2206L52.1776 23.4905C53.104 25.0891 53.8116 26.7962 54.2869 28.5785L57.6239 29.8629C58.0341 30.0207 58.3047 30.4149 58.3047 30.8545V37.1454C58.3047 37.5851 58.034 37.9791 57.6239 38.137L54.286 39.4218C53.8109 41.203 53.1035 42.9094 52.1772 44.5083L53.6299 47.7793C53.8083 48.181 53.721 48.651 53.4101 48.9618L48.9618 53.4102C48.651 53.7211 48.1809 53.8084 47.7793 53.63L44.5096 52.1777ZM44.8688 50.0122L47.9752 51.392L51.3918 47.9752L50.0116 44.8677C49.8693 44.5475 49.8942 44.1777 50.078 43.8794C51.128 42.174 51.8949 40.3243 52.357 38.3821C52.4382 38.0414 52.682 37.7624 53.009 37.6366L56.1797 36.4159V31.5842L53.0098 30.364C52.6828 30.2383 52.439 29.9592 52.3578 29.6184C51.8954 27.6749 51.1284 25.8249 50.0784 24.1199C49.8947 23.8214 49.8699 23.4517 50.012 23.1315L51.3916 20.025L47.9749 16.6084L44.8674 17.9887C44.5471 18.1308 44.1774 18.1062 43.879 17.9223C42.1739 16.8724 40.3244 16.1054 38.3817 15.6431C38.0409 15.5621 37.762 15.3181 37.6362 14.9913L36.4158 11.8204H31.5841L30.3636 14.9911C30.2378 15.3181 29.9589 15.562 29.6181 15.643C27.6757 16.1053 25.8262 16.8723 24.1208 17.9223C23.8223 18.1061 23.4527 18.1308 23.1325 17.9886L20.025 16.6083L16.6083 20.025L17.9884 23.1323C18.1306 23.4525 18.1058 23.8222 17.922 24.1205C16.8718 25.826 16.1051 27.6756 15.6428 29.6182C15.5616 29.959 15.3178 30.238 14.9908 30.3638L11.8203 31.5843V36.416L14.9902 37.6363C15.3171 37.7621 15.5611 38.0411 15.6422 38.3818C16.1048 40.3258 16.8717 42.1757 17.9217 43.8805C18.1054 44.1789 18.1302 44.5487 17.988 44.8689L16.6083 47.9754L20.025 51.392L23.1326 50.0117C23.4528 49.8694 23.8225 49.8941 24.121 50.0779C25.8267 51.1281 27.6762 51.8951 29.6182 52.3571C29.959 52.4381 30.2381 52.682 30.3638 53.009L31.5841 56.1797H36.416L37.6361 53.0099C37.7619 52.683 38.0409 52.4391 38.3817 52.3581C40.3256 51.8955 42.1756 51.1285 43.8804 50.0786C44.1787 49.8948 44.5483 49.8697 44.8688 50.0122ZM46.993 34C46.993 41.1643 41.1644 46.9931 34 46.9931C26.8357 46.9931 21.0069 41.1643 21.0069 34C21.0069 26.8357 26.8355 21.007 34 21.007C41.1644 21.007 46.993 26.8357 46.993 34ZM44.868 34C44.868 28.0074 39.9926 23.132 34 23.132C28.0073 23.132 23.1319 28.0074 23.1319 34C23.1319 39.9927 28.0072 44.8681 34 44.8681C39.9927 44.8681 44.868 39.9927 44.868 34ZM41.4951 32.4305C40.6189 33.3147 39.745 34.2011 38.8711 35.0876C37.4225 36.5568 35.9246 38.0763 34.4394 39.5616C33.9046 40.0963 33.1934 40.3909 32.4369 40.3909C31.6804 40.3909 30.9692 40.0963 30.4343 39.5616L26.5135 35.6407C25.9786 35.106 25.684 34.3948 25.684 33.6381C25.684 32.8816 25.9786 32.1704 26.5135 31.6356C27.0482 31.1009 27.7594 30.8062 28.516 30.8062C29.2726 30.8062 29.9838 31.1009 30.5187 31.6357L32.4293 33.5464L37.4793 28.4461C38.0108 27.9094 38.7197 27.6123 39.4757 27.6092H39.4868C40.2398 27.6092 40.9479 27.9013 41.4821 28.4325C42.5859 29.53 42.5919 31.3236 41.4951 32.4305ZM39.9836 29.939C39.8505 29.8068 39.6741 29.734 39.4865 29.734C39.4855 29.734 39.4846 29.734 39.4837 29.734C39.2961 29.7348 39.1206 29.8082 38.9891 29.941L33.1878 35.8001C32.9889 36.001 32.7182 36.1143 32.4354 36.115C32.4345 36.115 32.4336 36.115 32.4328 36.115C32.151 36.115 31.8808 36.003 31.6815 35.8038L29.0156 33.1381C28.8822 33.0045 28.7046 32.9309 28.5156 32.9309C28.3266 32.9309 28.1492 33.0045 28.0157 33.138C27.8822 33.2716 27.8086 33.4491 27.8086 33.638C27.8086 33.827 27.8822 34.0044 28.0156 34.1379L31.9365 38.0588C32.0699 38.1924 32.2475 38.2659 32.4365 38.2659C32.6255 38.2659 32.8031 38.1924 32.9365 38.0588C34.4163 36.579 35.9115 35.0623 37.3576 33.5958C38.2327 32.708 39.1079 31.8203 39.9854 30.9349C40.2592 30.6588 40.2582 30.2121 39.9836 29.939Z" fill="#6AD7C3"/>
</svg>
