<svg width="68" height="68" viewBox="0 0 68 68" fill="none" xmlns="http://www.w3.org/2000/svg">
<g clip-path="url(#clip0_16_4470)">
<path d="M63.3626 58.5042C65.9196 58.5042 68 56.4238 68 53.8666V6.64062C68 2.97898 65.021 0 61.3594 0H6.64062C2.97898 0 0 2.97898 0 6.64062V53.8666C0 56.4238 2.08037 58.5042 4.63741 58.5042H6.10938V65.3438H1.32812C0.594602 65.3438 0 65.9385 0 66.6719C0 67.4053 0.594602 68 1.32812 68H66.6719C67.4054 68 68 67.4053 68 66.6719C68 65.9385 67.4054 65.3438 66.6719 65.3438H61.8906V58.5042H63.3626ZM2.65625 6.64062C2.65625 4.44364 4.44364 2.65625 6.64062 2.65625H61.3594C63.5564 2.65625 65.3438 4.44364 65.3438 6.64062V9.5625H2.78959C2.74457 9.5625 2.70008 9.56489 2.65625 9.56927V6.64062ZM14.6094 65.3438H8.76562V53.3906H14.6094V65.3438ZM29.4844 65.3438H23.6406V38.7058H29.4844V65.3438ZM44.3594 65.3438H38.5156V49.9375H44.3594V65.3438ZM60.5625 34.0664H52.0625C51.329 34.0664 50.7344 34.6611 50.7344 35.3945V42.1014C50.7344 42.8348 51.329 43.4296 52.0625 43.4296C52.796 43.4296 53.3906 42.8348 53.3906 42.1014V36.7227H59.2344V65.3438H53.3906V51.0332C53.3906 50.2998 52.796 49.7051 52.0625 49.7051C51.329 49.7051 50.7344 50.2998 50.7344 51.0332V65.3438H47.0156V48.6094C47.0156 47.876 46.421 47.2812 45.6875 47.2812H37.1875C36.454 47.2812 35.8594 47.876 35.8594 48.6094V65.3438H32.1406V37.3777C32.1406 36.6443 31.546 36.0496 30.8125 36.0496H22.3125C21.579 36.0496 20.9844 36.6443 20.9844 37.3777V65.3438H17.2656V52.0625C17.2656 51.3291 16.671 50.7344 15.9375 50.7344H7.4375C6.70398 50.7344 6.10938 51.3291 6.10938 52.0625V55.8479H4.63741C3.5449 55.8479 2.65625 54.9591 2.65625 53.8666V12.212C2.70008 12.2164 2.74457 12.2188 2.78959 12.2188H65.3438V53.8666C65.3438 54.9591 64.455 55.8479 63.3626 55.8479H61.8906V35.3945C61.8906 34.6611 61.296 34.0664 60.5625 34.0664Z" fill="#E87882"/>
<path d="M59.5 4.78125H29.493C28.7595 4.78125 28.1649 5.37598 28.1649 6.10938C28.1649 6.84277 28.7595 7.4375 29.493 7.4375H59.5C60.2335 7.4375 60.8281 6.84277 60.8281 6.10938C60.8281 5.37598 60.2335 4.78125 59.5 4.78125Z" fill="#E87882"/>
<path d="M14.7515 5.17039C14.5045 4.92336 14.1618 4.78125 13.8125 4.78125C13.4632 4.78125 13.1205 4.92323 12.8735 5.17039C12.6265 5.41742 12.4844 5.76008 12.4844 6.10938C12.4844 6.45867 12.6265 6.80133 12.8735 7.04823C13.1205 7.29539 13.4632 7.4375 13.8125 7.4375C14.1618 7.4375 14.5045 7.29539 14.7515 7.04823C14.9985 6.80133 15.1406 6.45867 15.1406 6.10938C15.1406 5.76008 14.9985 5.41742 14.7515 5.17039Z" fill="#E87882"/>
<path d="M9.43898 5.17039C9.19195 4.92336 8.8493 4.78125 8.5 4.78125C8.1507 4.78125 7.80805 4.92323 7.56102 5.17039C7.31398 5.41742 7.17188 5.76008 7.17188 6.10938C7.17188 6.45867 7.31398 6.80133 7.56102 7.04823C7.80805 7.29539 8.1507 7.4375 8.5 7.4375C8.8493 7.4375 9.19195 7.29539 9.43898 7.04823C9.68602 6.80133 9.82812 6.45867 9.82812 6.10938C9.82812 5.76008 9.68602 5.41742 9.43898 5.17039Z" fill="#E87882"/>
<path d="M20.064 5.17039C19.817 4.92336 19.4756 4.78125 19.125 4.78125C18.7757 4.78125 18.433 4.92323 18.186 5.17039C17.939 5.41742 17.7969 5.76008 17.7969 6.10938C17.7969 6.45867 17.939 6.80133 18.186 7.04823C18.433 7.29539 18.7757 7.4375 19.125 7.4375C19.4743 7.4375 19.817 7.29539 20.064 7.04823C20.311 6.80133 20.4531 6.45867 20.4531 6.10938C20.4531 5.76008 20.311 5.41742 20.064 5.17039Z" fill="#E87882"/>
<path d="M53.0015 45.896C52.7545 45.6476 52.4118 45.5068 52.0625 45.5068C51.7132 45.5068 51.3705 45.6477 51.1235 45.896C50.8765 46.143 50.7344 46.4857 50.7344 46.835C50.7344 47.1843 50.8765 47.5269 51.1235 47.7739C51.3705 48.0208 51.7132 48.1631 52.0625 48.1631C52.4118 48.1631 52.7545 48.021 53.0015 47.7739C53.2485 47.5269 53.3906 47.1843 53.3906 46.835C53.3906 46.4843 53.2485 46.143 53.0015 45.896Z" fill="#E87882"/>
<path d="M56.3125 18.0544C53.676 18.0544 51.5312 20.1992 51.5312 22.8357C51.5312 23.8829 51.8706 24.8519 52.4438 25.6404L43.6217 34.4625C42.9371 34.0836 42.1506 33.8671 41.3141 33.8671C40.5604 33.8671 39.8472 34.0431 39.2125 34.3551L30.0007 25.1433C30.3797 24.4587 30.5961 23.6721 30.5961 22.8357C30.5961 20.1992 28.4514 18.0544 25.8149 18.0544C23.1784 18.0544 21.0336 20.1992 21.0336 22.8357C21.0336 23.7571 21.2963 24.618 21.7498 25.3488L13.9068 33.1916C13.2221 32.8127 12.4356 32.5962 11.5993 32.5962C8.96284 32.5962 6.81805 34.741 6.81805 37.3775C6.81805 40.0139 8.96284 42.1587 11.5993 42.1587C14.2358 42.1587 16.3806 40.0139 16.3806 37.3775C16.3806 36.541 16.1641 35.7545 15.7852 35.0698L23.7218 27.1332C24.3544 27.4426 25.0646 27.6168 25.8149 27.6168C26.6512 27.6168 27.4377 27.4003 28.1224 27.0214L37.2439 36.1428C36.7936 36.872 36.5329 37.73 36.5329 38.6481C36.5329 41.2845 38.6777 43.4293 41.3141 43.4293C43.9506 43.4293 46.0954 41.2845 46.0954 38.6481C46.0954 37.8116 45.8789 37.0251 45.5 36.3405L54.5584 27.282C55.102 27.4974 55.6935 27.6169 56.3125 27.6169C58.949 27.6169 61.0937 25.4722 61.0937 22.8357C61.0937 20.1992 58.949 18.0544 56.3125 18.0544ZM11.5994 39.5027C10.4278 39.5027 9.47444 38.5494 9.47444 37.3777C9.47444 36.2061 10.4278 35.2527 11.5994 35.2527C12.7711 35.2527 13.7244 36.2061 13.7244 37.3777C13.7244 38.5494 12.7711 39.5027 11.5994 39.5027ZM25.815 24.9607C24.6434 24.9607 23.69 24.0074 23.69 22.8357C23.69 21.664 24.6434 20.7107 25.815 20.7107C26.9867 20.7107 27.94 21.664 27.94 22.8357C27.94 24.0074 26.9867 24.9607 25.815 24.9607ZM41.3142 40.7733C40.1426 40.7733 39.1892 39.82 39.1892 38.6483C39.1892 37.4767 40.1426 36.5233 41.3142 36.5233C42.4859 36.5233 43.4392 37.4767 43.4392 38.6483C43.4392 39.82 42.4859 40.7733 41.3142 40.7733ZM56.3125 24.9607C55.1408 24.9607 54.1875 24.0074 54.1875 22.8357C54.1875 21.664 55.1408 20.7107 56.3125 20.7107C57.4842 20.7107 58.4375 21.664 58.4375 22.8357C58.4375 24.0074 57.4842 24.9607 56.3125 24.9607Z" fill="#E87882"/>
<path d="M19.7001 17.1263C19.4517 16.8793 19.1104 16.7371 18.7611 16.7371C18.4105 16.7371 18.0678 16.8792 17.8208 17.1263C17.5738 17.3732 17.433 17.7159 17.433 18.0652C17.433 18.4145 17.5738 18.7571 17.8208 19.0042C18.0692 19.2512 18.4105 19.3933 18.7611 19.3933C19.1104 19.3933 19.4517 19.2513 19.7001 19.0042C19.9471 18.7571 20.0892 18.4145 20.0892 18.0652C20.0892 17.7159 19.9471 17.3732 19.7001 17.1263Z" fill="#E87882"/>
<path d="M13.8125 16.7371H7.4375C6.70398 16.7371 6.10938 17.3318 6.10938 18.0652C6.10938 18.7986 6.70398 19.3933 7.4375 19.3933H13.8125C14.546 19.3933 15.1406 18.7986 15.1406 18.0652C15.1406 17.3318 14.546 16.7371 13.8125 16.7371Z" fill="#E87882"/>
<path d="M13.8125 23.1121H7.4375C6.70398 23.1121 6.10938 23.7068 6.10938 24.4402C6.10938 25.1736 6.70398 25.7683 7.4375 25.7683H13.8125C14.546 25.7683 15.1406 25.1736 15.1406 24.4402C15.1406 23.7068 14.546 23.1121 13.8125 23.1121Z" fill="#E87882"/>
</g>
<defs>
<clipPath id="clip0_16_4470">
<rect width="68" height="68" fill="white"/>
</clipPath>
</defs>
</svg>
