<svg width="68" height="68" viewBox="0 0 68 68" fill="none" xmlns="http://www.w3.org/2000/svg">
<path d="M65.2524 29.1274L58.8774 35.5024C58.463 35.9168 57.919 36.125 57.375 36.125C56.831 36.125 56.287 35.9168 55.8726 35.5024C55.0417 34.6715 55.0417 33.3285 55.8726 32.4977L58.6203 29.75H42.5C36.6414 29.75 31.875 34.5164 31.875 40.375V44.625C31.875 52.8275 25.2004 59.5 17 59.5H4.25C3.07488 59.5 2.125 58.548 2.125 57.375C2.125 56.202 3.07488 55.25 4.25 55.25H17C22.8586 55.25 27.625 50.4837 27.625 44.625V40.375C27.625 32.1725 34.2996 25.5 42.5 25.5H58.6203L55.8726 22.7524C55.0417 21.9215 55.0417 20.5785 55.8726 19.7477C56.7035 18.9168 58.0465 18.9168 58.8774 19.7477L65.2524 26.1227C66.0833 26.9535 66.0833 28.2965 65.2524 29.1274ZM4.77487 48.2524C5.18925 48.6668 5.73325 48.875 6.27725 48.875C6.82125 48.875 7.36525 48.6668 7.77962 48.2524L10.625 45.407L13.4704 48.2524C13.8848 48.6668 14.4288 48.875 14.9727 48.875C15.5168 48.875 16.0608 48.6668 16.4751 48.2524C17.306 47.4215 17.306 46.0764 16.4751 45.2477L13.6298 42.4044L16.4751 39.5612C17.306 38.7324 17.306 37.3873 16.4751 36.5564C15.6442 35.7255 14.3013 35.7255 13.4704 36.5564L10.625 39.4018L7.77962 36.5564C6.94875 35.7255 5.60575 35.7255 4.77487 36.5564C3.944 37.3873 3.944 38.7324 4.77487 39.5612L7.62025 42.4044L4.77487 45.2477C3.944 46.0764 3.944 47.4215 4.77487 48.2524ZM58.9751 47.1793C58.1442 46.3484 56.8013 46.3484 55.9704 47.1793L53.125 50.0247L50.2796 47.1793C49.4487 46.3484 48.1058 46.3484 47.2749 47.1793C46.444 48.0102 46.444 49.3553 47.2749 50.184L50.1203 53.0273L47.2749 55.8705C46.444 56.6993 46.444 58.0444 47.2749 58.8753C47.6893 59.2897 48.2332 59.4979 48.7773 59.4979C49.3213 59.4979 49.8652 59.2897 50.2796 58.8753L53.125 56.0299L55.9704 58.8753C56.3848 59.2897 56.9287 59.4979 57.4727 59.4979C58.0168 59.4979 58.5607 59.2897 58.9751 58.8753C59.806 58.0444 59.806 56.6993 58.9751 55.8705L56.1297 53.0273L58.9751 50.184C59.806 49.3553 59.806 48.0102 58.9751 47.1793Z" fill="#FF800B"/>
<path d="M20.1875 23.375C16.0863 23.375 12.75 20.0387 12.75 15.9375C12.75 11.8363 16.0863 8.5 20.1875 8.5C24.2887 8.5 27.625 11.8363 27.625 15.9375C27.625 20.0387 24.2887 23.375 20.1875 23.375ZM20.1875 12.75C18.4301 12.75 17 14.1801 17 15.9375C17 17.6949 18.4301 19.125 20.1875 19.125C21.9449 19.125 23.375 17.6949 23.375 15.9375C23.375 14.1801 21.9449 12.75 20.1875 12.75Z" fill="#FF993C"/>
</svg>
