<svg width="68" height="68" viewBox="0 0 68 68" fill="none" xmlns="http://www.w3.org/2000/svg">
<path d="M20.8182 62.288H14.8077C14.5191 62.288 14.2424 62.1734 14.0384 61.9694C13.8343 61.7653 13.7197 61.4886 13.7197 61.2V43.826C13.7197 43.5375 13.8343 43.2607 14.0384 43.0567C14.2424 42.8527 14.5191 42.738 14.8077 42.738H20.8182C21.1068 42.738 21.3835 42.8527 21.5875 43.0567C21.7916 43.2607 21.9062 43.5375 21.9062 43.826V61.2C21.9062 61.4886 21.7916 61.7653 21.5875 61.9694C21.3835 62.1734 21.1068 62.288 20.8182 62.288ZM15.8957 60.112H19.7302V44.914H15.8957V60.112Z" fill="#0084FF"/>
<path d="M31.6098 62.2881H25.5993C25.3107 62.2881 25.034 62.1735 24.83 61.9695C24.6259 61.7654 24.5113 61.4887 24.5113 61.2001V37.2213C24.5113 36.9327 24.6259 36.656 24.83 36.452C25.034 36.2479 25.3107 36.1333 25.5993 36.1333H31.6098C31.8984 36.1333 32.1751 36.2479 32.3791 36.452C32.5832 36.656 32.6978 36.9327 32.6978 37.2213V61.2001C32.6978 61.4887 32.5832 61.7654 32.3791 61.9695C32.1751 62.1735 31.8984 62.2881 31.6098 62.2881ZM26.6873 60.1121H30.5218V38.3093H26.6873V60.1121Z" fill="#0084FF"/>
<path d="M42.4007 62.2881H36.3909C36.1023 62.2881 35.8256 62.1735 35.6215 61.9694C35.4175 61.7654 35.3029 61.4886 35.3029 61.2001V40.4064C35.3029 40.1178 35.4175 39.8411 35.6215 39.637C35.8256 39.433 36.1023 39.3184 36.3909 39.3184H42.4007C42.6893 39.3184 42.966 39.433 43.17 39.637C43.3741 39.8411 43.4887 40.1178 43.4887 40.4064V61.2001C43.4887 61.4886 43.3741 61.7654 43.17 61.9694C42.966 62.1735 42.6893 62.2881 42.4007 62.2881ZM37.4789 60.1121H41.3127V41.4944H37.4789V60.1121Z" fill="#0084FF"/>
<path d="M53.1923 62.2881H47.1825C46.8939 62.2881 46.6172 62.1735 46.4131 61.9695C46.2091 61.7654 46.0945 61.4887 46.0945 61.2001V30.6056C46.0945 30.317 46.2091 30.0403 46.4131 29.8362C46.6172 29.6322 46.8939 29.5176 47.1825 29.5176H53.1923C53.4809 29.5176 53.7576 29.6322 53.9617 29.8362C54.1657 30.0403 54.2803 30.317 54.2803 30.6056V61.2001C54.2803 61.4887 54.1657 61.7654 53.9617 61.9695C53.7576 62.1735 53.4809 62.2881 53.1923 62.2881ZM48.2705 60.1121H52.1043V31.6936H48.2705V60.1121Z" fill="#0084FF"/>
<path d="M14.892 39.1824C13.8631 39.179 12.8767 38.7719 12.1448 38.0488C11.3194 37.2226 10.8415 36.1118 10.8093 34.9444C10.7771 33.777 11.1929 32.6415 11.9714 31.771L24.329 18.2812C24.5099 18.0772 25.685 16.8165 27.2585 16.8158C27.8854 16.8158 28.8109 17.0198 29.667 18.0085L29.8547 18.2261C30.0682 18.473 30.2702 18.7069 30.4783 18.934L34.7623 23.6083C35.143 24.0173 35.4988 24.4487 35.8278 24.9003L35.8741 24.848L35.8802 24.8405C35.9897 24.7126 36.1032 24.5807 36.2243 24.4481L45.9442 13.8401L43.5146 11.1881C43.3904 11.0528 43.3025 10.8883 43.259 10.7099C43.2156 10.5315 43.218 10.345 43.2661 10.1677C43.3141 9.99049 43.4063 9.8283 43.5339 9.69627C43.6615 9.56425 43.8205 9.46667 43.996 9.41263L55.7831 5.76103C55.9596 5.70629 56.147 5.69737 56.3279 5.73511C56.5087 5.77286 56.6769 5.85603 56.8167 5.97678C56.9565 6.09753 57.0633 6.25189 57.1269 6.42532C57.1906 6.59874 57.209 6.78551 57.1805 6.96803L54.9787 21.0488C54.947 21.2512 54.8588 21.4406 54.7242 21.5952C54.5897 21.7497 54.4142 21.8631 54.218 21.9222C54.0218 21.9814 53.8129 21.984 53.6154 21.9297C53.4178 21.8754 53.2396 21.7664 53.1012 21.6152L51.0394 19.3644L37.6271 34.0069C37.126 34.5509 35.8591 35.3118 34.2897 34.6835C33.7742 34.4722 33.3134 34.1467 32.9419 33.7315L27.3707 27.6496C27.3591 27.6349 27.3447 27.6226 27.3284 27.6135C27.3121 27.6044 27.2941 27.5986 27.2755 27.5965C27.2568 27.5986 27.2387 27.6044 27.2222 27.6135C27.2058 27.6226 27.1913 27.6348 27.1796 27.6496L17.816 37.8706C17.4602 38.2672 17.0278 38.5876 16.545 38.8128C16.0621 39.038 15.5387 39.1632 15.0062 39.181C14.9695 39.1824 14.9314 39.1824 14.892 39.1824ZM13.6598 36.4868C13.8278 36.6552 14.0281 36.7879 14.2485 36.877C14.469 36.9662 14.7052 37.0099 14.943 37.0057C15.1845 36.9957 15.4215 36.9369 15.6397 36.8329C15.8579 36.7289 16.0527 36.5818 16.2126 36.4005L25.5748 26.1801C25.7889 25.9412 26.051 25.7501 26.3439 25.6192C26.6368 25.4884 26.954 25.4208 27.2748 25.4208C27.5956 25.4208 27.9128 25.4884 28.2057 25.6192C28.4986 25.7501 28.7607 25.9412 28.9748 26.1801L34.544 32.262C34.6961 32.4349 34.8847 32.572 35.0962 32.6632C35.6714 32.8937 36.0169 32.5408 36.0203 32.5367L50.2323 17.0191C50.3342 16.9078 50.4582 16.8189 50.5963 16.7581C50.7345 16.6973 50.8838 16.6659 51.0347 16.6659C51.1856 16.6659 51.3349 16.6973 51.473 16.7581C51.6112 16.8189 51.7352 16.9078 51.8371 17.0191L53.176 18.4777L54.7577 8.35591L46.2781 10.9834L48.2215 13.1044C48.4054 13.305 48.5074 13.5673 48.5074 13.8394C48.5074 14.1116 48.4054 14.3739 48.2215 14.5745L37.8284 25.9203C37.7318 26.0257 37.6346 26.1393 37.5326 26.2603L37.5258 26.2685C36.924 26.9702 36.2855 27.3055 35.6272 27.266C35.0669 27.2327 34.5658 26.926 34.2149 26.3977C33.8968 25.9313 33.5431 25.4902 33.1568 25.0785L28.8728 20.4042C28.643 20.1532 28.422 19.8962 28.2078 19.6487L28.0228 19.4352C27.64 18.9938 27.3557 18.9918 27.2626 18.9918H27.2578C26.7267 18.9918 26.1249 19.5358 25.9556 19.7242C25.9461 19.7357 25.9495 19.731 25.94 19.7418L13.5769 33.2405C12.7609 34.1334 12.7983 35.6504 13.6605 36.4868H13.6598Z" fill="#0084FF"/>
</svg>
