<svg width="24" height="24" viewBox="0 0 24 24" fill="none" xmlns="http://www.w3.org/2000/svg">
<circle cx="12" cy="12" r="12" fill="#FFEBE8"/>
<path d="M17.9883 6.55349H15.2621C15.2457 6.55349 15.232 6.55634 15.2156 6.55634C15.15 6.50795 15.0762 6.4681 14.9996 6.43395C14.7836 6.34571 14.5512 6.33718 14.3324 6.40833L13.9441 5.48046C13.8621 5.28408 13.7117 5.13323 13.5203 5.05638C13.3289 4.97668 13.1184 4.98238 12.9324 5.06776L12.5277 5.25277C12.525 5.25561 12.5223 5.25561 12.5195 5.25846C12.4266 5.29831 12.35 5.38085 12.3254 5.489C12.2297 5.87609 12.0684 6.23756 11.8551 6.55634H6.01172C5.45391 6.55634 5 7.02881 5 7.60944V15.5817C5 16.1623 5.45391 16.6348 6.01172 16.6348H10.3266C10.2992 16.7885 10.2773 16.9166 10.2609 17.0162C10.2336 17.1841 10.2145 17.3037 10.1898 17.3407C10.1543 17.3919 10.023 17.4801 9.83984 17.6025C9.75508 17.6594 9.66211 17.722 9.55 17.7989C9.31758 17.9611 9.21367 18.2543 9.2957 18.5332C9.37773 18.8121 9.61836 19 9.89727 19H14.1C14.3789 19 14.6223 18.8121 14.7016 18.5332C14.7836 18.2543 14.6797 17.9583 14.4473 17.7989C14.3352 17.722 14.2395 17.6566 14.1574 17.6025C13.9742 17.4801 13.843 17.3919 13.8074 17.3407C13.7828 17.3037 13.7637 17.1841 13.7363 17.0162C13.7199 16.9137 13.7008 16.7885 13.6707 16.6348H17.9883C18.5461 16.6348 19 16.1623 19 15.5817V7.60659C19 7.02596 18.5461 6.55349 17.9883 6.55349V6.55349ZM14.759 7.0715C14.8465 7.1085 14.9176 7.17681 14.9559 7.26789C14.9941 7.35897 14.9969 7.45859 14.9613 7.55251C14.9422 7.60659 14.9094 7.65498 14.8684 7.69198L14.5977 7.04588C14.6523 7.04019 14.707 7.04873 14.759 7.0715V7.0715ZM13.1922 5.69108C13.2305 5.67401 13.2633 5.68255 13.2797 5.69108C13.2961 5.69678 13.3262 5.71385 13.3426 5.7537L14.9039 9.48794C14.9203 9.52779 14.9121 9.56194 14.9039 9.57902C14.8957 9.5961 14.882 9.6274 14.8438 9.64448L14.7398 9.69287L13.0883 5.73947L13.1922 5.69108ZM12.6699 6.45102L13.9551 9.52209C13.0992 9.26309 12.1777 9.32001 11.352 9.70141L10.7695 8.31245C11.6008 7.94244 12.2707 7.27927 12.6699 6.45102ZM10.1652 8.57715L10.7531 9.98318L10.332 10.1739L9.74414 8.76785L10.1652 8.57715ZM9.06602 9.32001C9.09336 9.24601 9.13164 9.1777 9.17813 9.11793L9.70039 10.3646C9.62656 10.3589 9.55273 10.3418 9.48438 10.3133C9.30117 10.2393 9.15625 10.0942 9.07695 9.90633C8.99766 9.72133 8.99219 9.51356 9.06602 9.32001V9.32001ZM11.0156 10.6093L11.5105 11.7962C11.5324 11.8531 11.5352 11.9129 11.5133 11.9698C11.4914 12.0268 11.4504 12.0723 11.3957 12.0951L11.3793 12.1036C11.3246 12.1264 11.2672 12.1292 11.2125 12.1065C11.1578 12.0837 11.1141 12.041 11.0922 11.9841L10.5973 10.7972L11.0156 10.6093ZM6.01172 7.23658H11.2344C10.9609 7.46143 10.652 7.64359 10.3129 7.76598C10.3047 7.76882 10.2992 7.77167 10.291 7.77452L9.19453 8.2726C8.85547 8.4263 8.59297 8.71092 8.45625 9.07239C8.31953 9.43386 8.325 9.82664 8.47539 10.1824C8.62305 10.5353 8.89648 10.8086 9.24375 10.9509C9.41055 11.0192 9.58281 11.0534 9.75508 11.0534C9.82891 11.0534 9.90547 11.0477 9.9793 11.0334L10.4934 12.2602C10.5863 12.4822 10.7586 12.6558 10.9746 12.744C11.0785 12.7867 11.1879 12.8066 11.2973 12.8066C11.4148 12.8066 11.5352 12.781 11.6473 12.7298L11.6637 12.7212C11.877 12.6245 12.0438 12.4452 12.1285 12.2203C12.2133 11.9926 12.2105 11.745 12.1176 11.523L11.6172 10.3276C12.5086 9.91487 13.534 9.95472 14.4008 10.4471C14.4965 10.5012 14.6059 10.5012 14.6988 10.4557C14.7016 10.4557 14.7043 10.4528 14.707 10.4528L15.1117 10.2678C15.3004 10.1824 15.4453 10.0259 15.5191 9.82664C15.5957 9.6274 15.5902 9.40825 15.5082 9.2147L15.1391 8.32953C15.3387 8.20999 15.4891 8.02783 15.5766 7.80298C15.6449 7.62082 15.6641 7.42443 15.6312 7.23658H17.9883C18.1852 7.23658 18.3438 7.40166 18.3438 7.60659V14.2497H5.65625V7.60659C5.65625 7.40166 5.81484 7.23658 6.01172 7.23658V7.23658ZM13.091 17.1243C13.1348 17.3919 13.1621 17.5712 13.277 17.7363C13.3836 17.89 13.534 17.9896 13.802 18.1718C13.8648 18.2144 13.9332 18.26 14.0125 18.3141H9.9875C10.0668 18.26 10.1352 18.2144 10.198 18.1718C10.4688 17.9896 10.6164 17.89 10.723 17.7363C10.8379 17.5684 10.868 17.3919 10.909 17.1243C10.9309 16.9934 10.9555 16.8369 10.9937 16.6319H13.0008C13.0445 16.8369 13.0691 16.9934 13.091 17.1243ZM17.9883 15.9489H6.01172C5.81484 15.9489 5.65625 15.7838 5.65625 15.5788V14.9328H18.3438V15.5788C18.3438 15.7809 18.1852 15.9489 17.9883 15.9489Z" fill="#EA5454"/>
</svg>
