<svg width="24" height="24" viewBox="0 0 24 24" fill="none" xmlns="http://www.w3.org/2000/svg">
<circle cx="12" cy="12" r="12" fill="#FFEBE8"/>
<path d="M12.0007 12.5515H11.42V11.983C11.4175 11.3506 11.5405 10.7241 11.7818 10.1396C12.0231 9.55511 12.3781 9.02432 12.826 8.57796L15.6685 5.72315C15.8334 5.53157 16.0361 5.37613 16.2639 5.2666C16.4917 5.15707 16.7396 5.09581 16.9922 5.08665C17.2448 5.0775 17.4965 5.12065 17.7317 5.21341C17.9668 5.30617 18.1802 5.44652 18.3585 5.62566C18.5368 5.80481 18.6761 6.01887 18.7678 6.25442C18.8594 6.48997 18.9014 6.74192 18.891 6.99446C18.8807 7.247 18.8182 7.49467 18.7076 7.72193C18.597 7.9492 18.4406 8.15114 18.2483 8.3151L15.3996 11.1638C14.9524 11.6077 14.422 11.9588 13.8387 12.1969C13.2554 12.4351 12.6307 12.5556 12.0007 12.5515V12.5515ZM16.9584 6.3528C16.8725 6.35136 16.7873 6.36805 16.7083 6.40175C16.6293 6.43546 16.5583 6.48543 16.4999 6.54841L13.6512 9.391C13.117 9.91712 12.7547 10.5927 12.612 11.3289C13.3466 11.2007 14.0235 10.8483 14.5499 10.3202L17.3985 7.47149C17.4597 7.4112 17.5083 7.33935 17.5415 7.26012C17.5746 7.18088 17.5917 7.09585 17.5917 7.00995C17.5917 6.92406 17.5746 6.83902 17.5415 6.75979C17.5083 6.68056 17.4597 6.6087 17.3985 6.54841C17.3423 6.4877 17.2742 6.43906 17.1986 6.40543C17.1229 6.3718 17.0412 6.3539 16.9584 6.3528V6.3528Z" fill="#EA5454"/>
<path d="M12.0005 18.6281L10.0076 16.6352H7.91692C7.14406 16.6336 6.40332 16.3259 5.85682 15.7794C5.31032 15.2329 5.00259 14.4921 5.00098 13.7193V7.88739C5.00097 7.11347 5.30799 6.37116 5.85466 5.82334C6.40133 5.27552 7.143 4.96695 7.91692 4.96533H13.7488V6.13293H7.91692C7.4521 6.13454 7.00679 6.31991 6.67811 6.64858C6.34944 6.97726 6.16407 7.42257 6.16246 7.88739V13.7193C6.16407 14.1841 6.34944 14.6294 6.67811 14.9581C7.00679 15.2868 7.4521 15.4721 7.91692 15.4737H10.4905L12.0005 16.9776L13.5104 15.4737H16.084C16.5488 15.4721 16.9941 15.2868 17.3228 14.9581C17.6515 14.6294 17.8368 14.1841 17.8385 13.7193V10.2165H18.9999V13.7193C18.9983 14.4921 18.6906 15.2329 18.1441 15.7794C17.5976 16.3259 16.8569 16.6336 16.084 16.6352H13.9933L12.0005 18.6281Z" fill="#EA5454"/>
</svg>
