<svg width="24" height="24" viewBox="0 0 24 24" fill="none" xmlns="http://www.w3.org/2000/svg">
<circle cx="12" cy="12" r="12" fill="#FFEBE8"/>
<path fill-rule="evenodd" clip-rule="evenodd" d="M17.3941 5.13919C13.8275 4.49071 10.1732 4.49071 6.60654 5.13919C5.19385 5.39604 4.16699 6.62643 4.16699 8.06228V13.6189C4.16699 15.534 5.85681 17.0091 7.75442 16.7503C8.99768 16.5808 10.2486 16.486 11.5003 16.4661V18.3893C11.0841 18.4184 10.6697 18.484 10.2622 18.5858L9.2124 18.8483C8.9445 18.9152 8.78162 19.1867 8.84859 19.4546C8.91556 19.7225 9.18704 19.8854 9.45493 19.8184L10.5047 19.556C10.9957 19.4332 11.498 19.3719 12.0003 19.3719C12.5027 19.3719 13.005 19.4332 13.496 19.556L14.5457 19.8184C14.8136 19.8854 15.0851 19.7225 15.1521 19.4546C15.2191 19.1867 15.0561 18.9152 14.7883 18.8483L13.7385 18.5858C13.3309 18.484 12.9166 18.4184 12.5003 18.3893V16.4661C13.7521 16.486 15.003 16.5808 16.2463 16.7503C18.1439 17.0091 19.8337 15.534 19.8337 13.6189V8.06228C19.8337 6.62643 18.8068 5.39604 17.3941 5.13919V5.13919ZM6.78542 6.12306C10.2338 5.49609 13.7669 5.49609 17.2153 6.12306C18.1525 6.29346 18.8337 7.10971 18.8337 8.06228V13.6189C18.8337 14.928 17.6785 15.9364 16.3813 15.7595C14.9277 15.5612 13.4641 15.4622 12.0003 15.4622C10.5366 15.4622 9.07292 15.5612 7.6193 15.7595C6.32213 15.9364 5.16699 14.928 5.16699 13.6189V8.06228C5.16699 7.10971 5.84823 6.29346 6.78542 6.12306V6.12306Z" fill="#EA5454"/>
</svg>
