<svg width="24" height="24" viewBox="0 0 24 24" fill="none" xmlns="http://www.w3.org/2000/svg">
<circle cx="12" cy="12" r="12" fill="#FFEBE8"/>
<path d="M17.85 5.5H6.15C5.71264 5.50079 5.29341 5.67489 4.98415 5.98415C4.67489 6.29341 4.50079 6.71264 4.5 7.15V16.85C4.50079 17.2874 4.67489 17.7066 4.98415 18.0159C5.29341 18.3251 5.71264 18.4992 6.15 18.5H17.85C18.2874 18.4992 18.7066 18.3251 19.0159 18.0159C19.3251 17.7066 19.4992 17.2874 19.5 16.85V7.15C19.4992 6.71264 19.3251 6.29341 19.0159 5.98415C18.7066 5.67489 18.2874 5.50079 17.85 5.5V5.5ZM18.5 16.85C18.5 17.0224 18.4315 17.1877 18.3096 17.3096C18.1877 17.4315 18.0224 17.5 17.85 17.5H6.15C5.97761 17.5 5.81228 17.4315 5.69038 17.3096C5.56848 17.1877 5.5 17.0224 5.5 16.85V9.5H18.5V16.85ZM18.5 8.5H5.5V7.15C5.5 6.97761 5.56848 6.81228 5.69038 6.69038C5.81228 6.56848 5.97761 6.5 6.15 6.5H17.85C18.0224 6.5 18.1877 6.56848 18.3096 6.69038C18.4315 6.81228 18.5 6.97761 18.5 7.15V8.5Z" fill="#EA5454"/>
<path d="M7 8C7.27614 8 7.5 7.77614 7.5 7.5C7.5 7.22386 7.27614 7 7 7C6.72386 7 6.5 7.22386 6.5 7.5C6.5 7.77614 6.72386 8 7 8Z" fill="#EA5454"/>
<path d="M8.5 8C8.77614 8 9 7.77614 9 7.5C9 7.22386 8.77614 7 8.5 7C8.22386 7 8 7.22386 8 7.5C8 7.77614 8.22386 8 8.5 8Z" fill="#EA5454"/>
<path d="M10 8C10.2761 8 10.5 7.77614 10.5 7.5C10.5 7.22386 10.2761 7 10 7C9.72386 7 9.5 7.22386 9.5 7.5C9.5 7.77614 9.72386 8 10 8Z" fill="#EA5454"/>
</svg>
