<svg width="24" height="24" viewBox="0 0 24 24" fill="none" xmlns="http://www.w3.org/2000/svg">
<circle cx="12" cy="12" r="12" fill="#FFEBE8"/>
<path d="M15.4812 14.7078C15.8848 14.2212 16.2112 13.6715 16.442 13.0848H16.8398C18.031 13.0848 19 12.1157 19 10.9246C19 9.73347 18.031 8.76448 16.8398 8.76448H16.4427C15.5802 6.55422 13.4272 5 10.9246 5C7.65021 5 5 7.64968 5 10.9246C5 14.1987 7.64978 16.8488 10.9246 16.8488C12.3427 16.8488 13.6611 16.3548 14.7088 15.4823L18.0664 18.8398C18.2799 19.0533 18.6263 19.0534 18.8398 18.8398C19.0534 18.6263 19.0534 18.28 18.8398 18.0664L15.4812 14.7078ZM17.9062 10.9246C17.9062 11.5126 17.4278 11.991 16.8398 11.991C16.45 11.991 9.59279 11.991 9.31134 11.991C8.72324 11.991 8.24493 11.5126 8.24493 10.9246C8.24493 10.3365 8.72324 9.85823 9.31134 9.85823H16.8398C17.4278 9.85823 17.9062 10.3365 17.9062 10.9246ZM10.9246 15.7551C8.26085 15.7551 6.09375 13.5882 6.09375 10.9246C6.09375 8.26086 8.26085 6.09375 10.9246 6.09375C12.808 6.09375 14.442 7.16743 15.2455 8.76448H9.31134C8.12018 8.76448 7.15118 9.73347 7.15118 10.9246C7.15118 12.1157 8.12018 13.0848 9.31134 13.0848H15.2454C14.4396 14.6861 12.8027 15.7551 10.9246 15.7551Z" fill="#EA5454"/>
</svg>
