<svg width="24" height="24" viewBox="0 0 24 24" fill="none" xmlns="http://www.w3.org/2000/svg">
<circle cx="12" cy="12" r="12" fill="#FFEBE8"/>
<path d="M13.198 10.9409C13.3197 11.0276 13.4677 11.0185 13.583 10.916L15.833 8.91605C15.9373 8.82334 16 8.66722 16 8.50003C16 8.33284 15.9373 8.17672 15.833 8.08402L13.583 6.08402C13.468 5.98167 13.32 5.97217 13.198 6.05915C13.0762 6.14626 13 6.31566 13 6.50003V10.5C13 10.6844 13.0762 10.8538 13.198 10.9409ZM13.75 7.43428L14.9489 8.50003L13.75 9.56579V7.43428Z" fill="#EA5454"/>
<path d="M5 12.8203V15.2812C5 15.5078 5.19585 15.6914 5.4375 15.6914H5.875V17.7422C5.875 18.4219 6.46107 19 7.1875 19C7.91257 19 8.5 18.4231 8.5 17.7422V15.8731L14.625 18.0264V18.5898C14.625 18.8164 14.8208 19 15.0625 19C15.3042 19 15.5 18.8164 15.5 18.5898C15.5 18.3324 15.5 16.0468 15.5 15.6914H15.9375C16.6612 15.6914 17.25 15.1394 17.25 14.4609C17.25 13.7825 16.6612 13.2305 15.9375 13.2305H15.5V12.4102H18.5625C18.8042 12.4102 19 12.2265 19 12V5.41016C19 5.18361 18.8042 5 18.5625 5H9.8125C9.57085 5 9.375 5.18361 9.375 5.41016V11.5071L7.93 12.4102H5.4375C5.19585 12.4102 5 12.5938 5 12.8203ZM7.1875 18.1797C6.95439 18.1797 6.75 17.9753 6.75 17.7422V15.6914H7.625V17.7422C7.625 17.9753 7.42061 18.1797 7.1875 18.1797ZM15.9375 14.0508C16.1787 14.0508 16.375 14.2348 16.375 14.4609C16.375 14.6871 16.1787 14.8711 15.9375 14.8711H15.5V14.0508H15.9375ZM14.625 17.1503L8.5 14.997V13.0398L9.59489 12.3555C9.65903 12.3901 9.7332 12.4102 9.8125 12.4102H11.125V13.6406C11.125 13.8065 11.2316 13.956 11.3951 14.0196C11.5586 14.083 11.7467 14.0479 11.8718 13.9306L13.4938 12.4102H14.625V17.1503ZM10.25 5.82031H18.125V11.5898H13.3125C13.1965 11.5898 13.0852 11.6331 13.0032 11.71L12 12.6504V12C12 11.7735 11.8042 11.5898 11.5625 11.5898H10.25V5.82031ZM5.875 13.2305H7.625V14.8711H5.875V13.2305Z" fill="#EA5454"/>
</svg>
