<svg width="24" height="24" viewBox="0 0 24 24" fill="none" xmlns="http://www.w3.org/2000/svg">
<circle cx="12" cy="12" r="12" fill="#FFEBE8"/>
<path fill-rule="evenodd" clip-rule="evenodd" d="M12.5 12H11.5C11.224 12 11 12.224 11 12.5C11 12.776 11.224 13 11.5 13H12.5C12.776 13 13 12.776 13 12.5C13 12.224 12.776 12 12.5 12Z" fill="#EA5454"/>
<path fill-rule="evenodd" clip-rule="evenodd" d="M6 6.5505C6 6.1395 6.1635 5.745 6.454 5.454C6.745 5.1635 7.139 5 7.5505 5H16.4495C16.861 5 17.255 5.1635 17.546 5.454C17.8365 5.745 18 6.1395 18 6.5505V8.913C18.1615 8.8765 18.3365 8.9125 18.462 9.038C18.7945 9.3705 19 9.8295 19 10.3365V16.6635C19 17.6775 18.1775 18.5 17.163 18.5H6.837C5.8225 18.5 5 17.6775 5 16.6635V10.3365C5 9.8295 5.2055 9.3705 5.538 9.038L5.544 9.032C5.669 8.9115 5.841 8.877 6 8.913V6.5505ZM8.5995 14.6465C8.7945 14.4515 9.1115 14.4515 9.3065 14.6465C9.5015 14.8415 9.5015 15.1585 9.3065 15.3535L7.16 17.5H16.84L14.6935 15.3535C14.4985 15.1585 14.4985 14.8415 14.6935 14.6465C14.8885 14.4515 15.2055 14.4515 15.4005 14.6465L17.867 17.113C17.95 16.983 18 16.8295 18 16.6635V10.3365C18 10.2955 17.997 10.2555 17.991 10.216L13.2875 14.92C12.5765 15.6305 11.4235 15.6305 10.7125 14.92L6.009 10.216C6.003 10.2555 6 10.2955 6 10.3365V16.6635C6 16.8295 6.05 16.983 6.133 17.113L8.5995 14.6465ZM7.161 6.161C7.2645 6.058 7.4045 6 7.5505 6H16.4495C16.5955 6 16.7355 6.058 16.839 6.161C16.942 6.2645 17 6.4045 17 6.5505V9.793L12.58 14.2125C12.26 14.533 11.74 14.533 11.42 14.2125L7 9.793V6.5505C7 6.4045 7.058 6.2645 7.161 6.161V6.161Z" fill="#EA5454"/>
<path fill-rule="evenodd" clip-rule="evenodd" d="M11 8.06037C11 8.02437 11.0195 7.99087 11.051 7.97287C11.083 7.95487 11.122 7.95537 11.153 7.97387C11.706 8.30587 12.4075 8.72687 12.951 9.05287C12.9815 9.07087 13 9.10387 13 9.13937C13 9.17487 12.9815 9.20787 12.951 9.22587L11.153 10.3049C11.122 10.3234 11.083 10.3239 11.051 10.3059C11.0195 10.2884 11 10.2544 11 10.2184V8.06037ZM10.5585 11.1764C10.9035 11.3719 11.3275 11.3664 11.6675 11.1624L13.4655 10.0834C13.797 9.88437 14 9.52637 14 9.13937C14 8.75287 13.797 8.39437 13.4655 8.19537C12.922 7.86937 12.2205 7.44837 11.6675 7.11637C11.3275 6.91237 10.9035 6.90687 10.5585 7.10237C10.2135 7.29787 10 7.66387 10 8.06037V10.2184C10 10.6149 10.2135 10.9809 10.5585 11.1764Z" fill="#EA5454"/>
</svg>
