<svg width="24" height="24" viewBox="0 0 24 24" fill="none" xmlns="http://www.w3.org/2000/svg">
<circle cx="12" cy="12" r="12" fill="#FFEBE8"/>
<path d="M12 11.2566C12 10.9493 11.8675 10.6545 11.6316 10.4372C11.3957 10.2199 11.0758 10.0978 10.7422 10.0978H10.2428C10.1759 10.0978 10.1118 10.0733 10.0646 10.0298C10.0173 9.98624 9.99075 9.92717 9.99075 9.86559C9.99075 9.80401 10.0173 9.74494 10.0646 9.7014C10.1118 9.65785 10.1759 9.63339 10.2428 9.63339H11.397C11.467 9.63964 11.5376 9.63234 11.6043 9.61196C11.671 9.59157 11.7324 9.55855 11.7845 9.51502C11.8365 9.47149 11.8781 9.41841 11.9066 9.35919C11.935 9.29997 11.9497 9.23591 11.9497 9.17115C11.9497 9.10638 11.935 9.04232 11.9066 8.9831C11.8781 8.92388 11.8365 8.8708 11.7845 8.82727C11.7324 8.78374 11.671 8.75072 11.6043 8.73034C11.5376 8.70995 11.467 8.70265 11.397 8.70891H10.9966V8.50925C11.0033 8.44479 10.9954 8.37973 10.9733 8.31825C10.9512 8.25677 10.9153 8.20024 10.8681 8.15228C10.8208 8.10432 10.7632 8.066 10.6989 8.03977C10.6347 8.01355 10.5651 8 10.4948 8C10.4245 8 10.355 8.01355 10.2907 8.03977C10.2264 8.066 10.1688 8.10432 10.1216 8.15228C10.0743 8.20024 10.0385 8.25677 10.0164 8.31825C9.99424 8.37973 9.98632 8.44479 9.9931 8.50925V8.71759C9.69078 8.77755 9.42302 8.93803 9.24099 9.16836C9.05896 9.39869 8.9754 9.68273 9.00629 9.96623C9.03718 10.2497 9.18034 10.5128 9.40843 10.7052C9.63652 10.8976 9.93356 11.0058 10.2428 11.0093H10.7469C10.8137 11.0093 10.8778 11.0337 10.9251 11.0773C10.9724 11.1208 10.9989 11.1799 10.9989 11.2415C10.9989 11.303 10.9724 11.3621 10.9251 11.4057C10.8778 11.4492 10.8137 11.4737 10.7469 11.4737H9.58796C9.51798 11.4674 9.44736 11.4747 9.38064 11.4951C9.31391 11.5155 9.25254 11.5485 9.20049 11.592C9.14843 11.6356 9.10684 11.6886 9.07837 11.7479C9.04991 11.8071 9.0352 11.8711 9.0352 11.9359C9.0352 12.0007 9.04991 12.0647 9.07837 12.1239C9.10684 12.1832 9.14843 12.2362 9.20049 12.2798C9.25254 12.3233 9.31391 12.3563 9.38064 12.3767C9.44736 12.3971 9.51798 12.4044 9.58796 12.3981H9.98839V12.5804C10.0005 12.6953 10.0586 12.8019 10.1513 12.8795C10.2441 12.957 10.3649 13 10.4901 13C10.6154 13 10.7362 12.957 10.8289 12.8795C10.9217 12.8019 10.9797 12.6953 10.9918 12.5804V12.3721C11.2726 12.3197 11.5256 12.1806 11.709 11.9778C11.8923 11.775 11.995 11.5206 12 11.2566V11.2566Z" fill="#EA5454"/>
<path d="M17.2786 12.7835L16.0307 12.4714V11.3074C16.0307 10.9607 15.8901 10.6281 15.6399 10.3829C15.3897 10.1377 15.0504 10 14.6966 10C14.3428 10 14.0035 10.1377 13.7533 10.3829C13.5031 10.6281 13.3626 10.9607 13.3626 11.3074V13.686L12.6009 13.4372C12.4181 13.3769 12.2232 13.3601 12.0325 13.3883C11.8418 13.4165 11.6607 13.4888 11.5042 13.5993C11.3477 13.7098 11.2203 13.8553 11.1326 14.0236C11.045 14.192 10.9995 14.3784 11 14.5675C11.0001 14.6709 11.0224 14.7731 11.0653 14.8676C11.1083 14.962 11.1711 15.0466 11.2496 15.1157L13.3626 16.9756V18.1017C13.3642 18.3406 13.4616 18.5693 13.6337 18.7385C13.8018 18.903 14.0287 18.9969 14.2663 19H18.0705C18.1918 19.0011 18.3121 18.9787 18.4245 18.9341C18.537 18.8895 18.6393 18.8236 18.7257 18.7401C18.8121 18.6566 18.8808 18.5573 18.9278 18.4477C18.9749 18.3381 18.9994 18.2205 19 18.1017V14.9639C19.0008 14.4647 18.8321 13.9795 18.5204 13.5847C18.2087 13.1899 17.7719 12.908 17.2786 12.7835V12.7835ZM18.0834 18.0974H14.2663V16.7732C14.2662 16.7104 14.2527 16.6484 14.2268 16.591C14.2009 16.5336 14.163 16.4822 14.1157 16.44L11.9166 14.5C11.9324 14.4303 11.9738 14.3688 12.0328 14.3271C12.0709 14.3002 12.1148 14.2823 12.1611 14.275C12.2074 14.2677 12.2549 14.2711 12.2996 14.2849L13.6638 14.7319C13.7323 14.7537 13.805 14.7594 13.8762 14.7487C13.9473 14.7379 14.0149 14.7109 14.0735 14.6699C14.1321 14.6289 14.1801 14.575 14.2135 14.5125C14.247 14.45 14.2651 14.3807 14.2663 14.3102V11.3074C14.291 11.2181 14.3451 11.1392 14.4202 11.083C14.4952 11.0267 14.5871 10.9963 14.6816 10.9963C14.776 10.9963 14.8679 11.0267 14.9429 11.083C15.018 11.1392 15.0721 11.2181 15.0968 11.3074V12.8172C15.1001 12.9145 15.1354 13.0081 15.1975 13.0842C15.2595 13.1602 15.345 13.2145 15.4411 13.239L17.0334 13.6396C17.3299 13.7137 17.5928 13.8824 17.7806 14.1191C17.9684 14.3559 18.0704 14.6472 18.0705 14.947L18.0834 18.0974Z" fill="#EA5454"/>
<path d="M9.74933 14.0923C9.00435 14.0197 8.29243 13.7589 7.68548 13.3361C7.07852 12.9133 6.59802 12.3436 6.2925 11.6845C5.98699 11.0253 5.86728 10.3001 5.94546 9.58213C6.02365 8.86412 6.29696 8.17871 6.7378 7.59514C7.17863 7.01157 7.77138 6.55049 8.45617 6.25849C9.14096 5.96648 9.89354 5.85388 10.6379 5.93206C11.3823 6.01024 12.0921 6.27643 12.6956 6.70375C13.2991 7.13107 13.775 7.70439 14.0752 8.36579C14.1251 8.47913 14.2198 8.56869 14.3382 8.61478C14.3968 8.63759 14.4596 8.64905 14.5228 8.64849C14.5861 8.64793 14.6486 8.63537 14.7068 8.61152C14.765 8.58767 14.8177 8.55299 14.8621 8.50948C14.9064 8.46597 14.9413 8.41447 14.965 8.35792C14.9887 8.30137 15.0006 8.24088 15 8.17991C14.9994 8.11893 14.9864 8.05866 14.9616 8.00254C14.5951 7.19522 14.0143 6.49534 13.2777 5.97346C12.5412 5.45158 11.675 5.12614 10.7665 5.02995C9.8579 4.93376 8.9391 5.07022 8.10267 5.42557C7.26625 5.78093 6.54177 6.34261 6.00227 7.05401C5.46277 7.7654 5.12731 8.60136 5.02972 9.47762C4.93213 10.3539 5.07585 11.2394 5.4464 12.0451C5.81695 12.8507 6.40122 13.5479 7.14032 14.0664C7.87942 14.5848 8.74723 14.9063 9.65625 14.9983C9.7195 15.0036 9.78321 14.9966 9.84365 14.9779C9.9041 14.9592 9.96008 14.9291 10.0083 14.8893C10.0566 14.8495 10.0962 14.8009 10.1248 14.7463C10.1533 14.6916 10.1704 14.632 10.1748 14.5709C10.1811 14.4538 10.1405 14.3387 10.0613 14.2496C9.98209 14.1605 9.8704 14.1042 9.74933 14.0923Z" fill="#EA5454"/>
</svg>
