<svg width="24" height="24" viewBox="0 0 24 24" fill="none" xmlns="http://www.w3.org/2000/svg">
<circle cx="12" cy="12" r="12" fill="#FFEBE8"/>
<path d="M12.0001 11.4167C12.4834 11.4167 12.8751 11.0249 12.8751 10.5416C12.8751 10.0583 12.4834 9.6665 12.0001 9.6665C11.5168 9.6665 11.125 10.0583 11.125 10.5416C11.125 11.0249 11.5168 11.4167 12.0001 11.4167Z" fill="#EA5454"/>
<path d="M13.3118 13.7501C13.0703 13.7501 12.8742 13.5541 12.8742 13.3126C12.8742 13.0711 12.6776 12.8751 12.4367 12.8751H11.5616C11.3207 12.8751 11.1241 13.0711 11.1241 13.3126C11.1241 13.5541 10.9281 13.7501 10.6866 13.7501C10.445 13.7501 10.249 13.5541 10.249 13.3126C10.249 12.5886 10.8382 12 11.5616 12H12.4367C13.1601 12 13.7493 12.5886 13.7493 13.3126C13.7493 13.5541 13.5533 13.7501 13.3118 13.7501Z" fill="#EA5454"/>
<path d="M12.0007 16.0834C9.7494 16.0834 7.91699 14.2516 7.91699 11.9997C7.91699 9.74784 9.7494 7.91602 12.0007 7.91602C14.252 7.91602 16.0844 9.74784 16.0844 11.9997C16.0844 14.2516 14.252 16.0834 12.0007 16.0834ZM12.0007 8.79109C10.2319 8.79109 8.79207 10.2303 8.79207 11.9997C8.79207 13.7691 10.2319 15.2083 12.0007 15.2083C13.7695 15.2083 15.2093 13.7691 15.2093 11.9997C15.2093 10.2303 13.7695 8.79109 12.0007 8.79109Z" fill="#EA5454"/>
<path d="M16.7185 17.1576C16.6065 17.1576 16.4945 17.115 16.4093 17.0293L14.3733 14.9933C14.2024 14.8223 14.2024 14.5452 14.3733 14.3743C14.5442 14.2034 14.8214 14.2034 14.9923 14.3743L17.0283 16.4103C17.1992 16.5812 17.1992 16.8583 17.0283 17.0293C16.9425 17.115 16.8305 17.1576 16.7185 17.1576V17.1576Z" fill="#EA5454"/>
<path d="M9.31618 9.75429C9.20417 9.75429 9.09216 9.7117 9.00698 9.62594L6.97097 7.58994C6.80004 7.41901 6.80004 7.1419 6.97097 6.97097C7.1419 6.80004 7.41901 6.80004 7.58994 6.97097L9.62595 9.00697C9.79689 9.1779 9.79689 9.45501 9.62595 9.62594C9.5402 9.7117 9.42877 9.75429 9.31618 9.75429Z" fill="#EA5454"/>
<path d="M14.6825 9.75429C14.5705 9.75429 14.4585 9.7117 14.3733 9.62594C14.2024 9.45501 14.2024 9.1779 14.3733 9.00697L16.4093 6.97097C16.5802 6.80004 16.8574 6.80004 17.0283 6.97097C17.1992 7.1419 17.1992 7.41901 17.0283 7.58994L14.9923 9.62594C14.9059 9.7117 14.7945 9.75429 14.6825 9.75429Z" fill="#EA5454"/>
<path d="M7.28017 17.1576C7.16816 17.1576 7.05615 17.115 6.97097 17.0293C6.80004 16.8583 6.80004 16.5812 6.97097 16.4103L9.00698 14.3743C9.17791 14.2034 9.45502 14.2034 9.62595 14.3743C9.79689 14.5452 9.79689 14.8223 9.62595 14.9933L7.58994 17.0293C7.50419 17.115 7.39276 17.1576 7.28017 17.1576V17.1576Z" fill="#EA5454"/>
<path d="M6.45748 19.0009C5.653 19.0009 4.99902 18.3464 4.99902 17.5424C4.99902 16.7385 5.653 16.084 6.45748 16.084C7.26197 16.084 7.91594 16.7385 7.91594 17.5424C7.91594 18.3464 7.26197 19.0009 6.45748 19.0009ZM6.45748 16.9591C6.13545 16.9591 5.8741 17.221 5.8741 17.5424C5.8741 17.8639 6.13545 18.1258 6.45748 18.1258C6.77951 18.1258 7.04086 17.8639 7.04086 17.5424C7.04086 17.221 6.77951 16.9591 6.45748 16.9591Z" fill="#EA5454"/>
<path d="M6.45748 7.91643C5.653 7.91643 4.99902 7.26187 4.99902 6.45797C4.99902 5.65407 5.653 4.99951 6.45748 4.99951C7.26197 4.99951 7.91594 5.65407 7.91594 6.45797C7.91594 7.26187 7.26197 7.91643 6.45748 7.91643ZM6.45748 5.87459C6.13545 5.87459 5.8741 6.13653 5.8741 6.45797C5.8741 6.77941 6.13545 7.04135 6.45748 7.04135C6.77951 7.04135 7.04086 6.77941 7.04086 6.45797C7.04086 6.13653 6.77951 5.87459 6.45748 5.87459Z" fill="#EA5454"/>
<path d="M17.5415 7.91643C16.737 7.91643 16.083 7.26187 16.083 6.45797C16.083 5.65407 16.737 4.99951 17.5415 4.99951C18.346 4.99951 18.9999 5.65407 18.9999 6.45797C18.9999 7.26187 18.346 7.91643 17.5415 7.91643ZM17.5415 5.87459C17.2194 5.87459 16.9581 6.13653 16.9581 6.45797C16.9581 6.77941 17.2194 7.04135 17.5415 7.04135C17.8635 7.04135 18.1249 6.77941 18.1249 6.45797C18.1249 6.13653 17.8635 5.87459 17.5415 5.87459Z" fill="#EA5454"/>
<path d="M17.5415 19.0009C16.737 19.0009 16.083 18.3464 16.083 17.5424C16.083 16.7385 16.737 16.084 17.5415 16.084C18.346 16.084 18.9999 16.7385 18.9999 17.5424C18.9999 18.3464 18.346 19.0009 17.5415 19.0009ZM17.5415 16.9591C17.2194 16.9591 16.9581 17.221 16.9581 17.5424C16.9581 17.8639 17.2194 18.1258 17.5415 18.1258C17.8635 18.1258 18.1249 17.8639 18.1249 17.5424C18.1249 17.221 17.8635 16.9591 17.5415 16.9591Z" fill="#EA5454"/>
</svg>
