<svg width="24" height="24" viewBox="0 0 24 24" fill="none" xmlns="http://www.w3.org/2000/svg">
<circle cx="12" cy="12" r="12" fill="#FFEBE8"/>
<path d="M19.0398 8.47983C18.9916 8.44267 18.9357 8.41678 18.8761 8.40405C18.8166 8.39131 18.755 8.39206 18.6958 8.40623L17.1614 8.79983C16.595 8.76783 14.7886 8.07343 13.7598 7.63183L13.739 7.62383C12.3726 7.13263 11.1902 7.24303 10.2014 7.94383C8.88621 7.49423 7.20141 8.44303 6.68141 8.76783L5.29901 8.41263C5.23994 8.39718 5.17811 8.39551 5.11829 8.40776C5.05848 8.42001 5.00228 8.44584 4.95403 8.48326C4.90578 8.52068 4.86679 8.56869 4.84005 8.62358C4.8133 8.67847 4.79954 8.73877 4.79981 8.79983V14.3998C4.79981 14.5059 4.84195 14.6076 4.91697 14.6827C4.99198 14.7577 5.09372 14.7998 5.19981 14.7998H6.04941L9.68621 17.667C9.82579 17.8013 9.9958 17.8998 10.1817 17.9541C10.3676 18.0084 10.5639 18.0169 10.7539 17.9788C10.9438 17.9408 11.1217 17.8573 11.2723 17.7356C11.423 17.6139 11.5419 17.4575 11.619 17.2798C11.8003 17.3837 12.0053 17.4388 12.2142 17.4398C12.4487 17.4399 12.678 17.3713 12.874 17.2425C13.0699 17.1137 13.2238 16.9303 13.3166 16.715C13.4975 16.8197 13.7028 16.8749 13.9118 16.875C14.146 16.8748 14.375 16.8061 14.5706 16.6773C14.7662 16.5485 14.9199 16.3653 15.0126 16.1502C15.1973 16.2551 15.4066 16.3089 15.619 16.3062C15.8314 16.3034 16.0392 16.2442 16.2212 16.1346C16.4031 16.025 16.5526 15.8689 16.6543 15.6824C16.756 15.4959 16.8062 15.2857 16.7998 15.0734L17.6558 14.7998H18.7998C18.9059 14.7998 19.0076 14.7577 19.0826 14.6827C19.1577 14.6076 19.1998 14.5059 19.1998 14.3998V8.79983C19.2001 8.73768 19.1857 8.67635 19.1579 8.62077C19.1301 8.56519 19.0897 8.51691 19.0398 8.47983V8.47983ZM5.59981 9.31183L6.31501 9.49582L6.02861 12.1598L5.83021 13.9998H5.59981V9.31183ZM15.891 15.3854C15.815 15.4587 15.7134 15.4997 15.6078 15.4997C15.5022 15.4997 15.4006 15.4587 15.3246 15.3854L14.7598 14.8206L12.4974 12.5566C12.4214 12.4883 12.3221 12.4516 12.2199 12.4542C12.1177 12.4568 12.0204 12.4983 11.9479 12.5704C11.8754 12.6425 11.8333 12.7396 11.8301 12.8418C11.827 12.9439 11.8631 13.0434 11.931 13.1198L14.195 15.387C14.2678 15.4626 14.3079 15.5637 14.3069 15.6685C14.3058 15.7734 14.2636 15.8737 14.1894 15.9478C14.1151 16.0218 14.0147 16.0637 13.9098 16.0645C13.8049 16.0653 13.7039 16.0248 13.6286 15.9518L13.0622 15.3854L11.3598 13.6878C11.3226 13.6506 11.2785 13.6211 11.2299 13.601C11.1813 13.5809 11.1292 13.5705 11.0766 13.5705C11.024 13.5705 10.9719 13.5809 10.9233 13.601C10.8747 13.6211 10.8306 13.6506 10.7934 13.6878C10.7562 13.725 10.7267 13.7692 10.7066 13.8178C10.6865 13.8663 10.6761 13.9184 10.6761 13.971C10.6761 14.0236 10.6865 14.0757 10.7066 14.1243C10.7267 14.1729 10.7562 14.217 10.7934 14.2542L12.4974 15.9518C12.5356 15.9888 12.566 16.033 12.5869 16.0818C12.6077 16.1306 12.6187 16.1831 12.6191 16.2362C12.6195 16.2893 12.6093 16.342 12.5891 16.3911C12.5689 16.4402 12.5391 16.4849 12.5015 16.5224C12.4639 16.5599 12.4192 16.5895 12.37 16.6096C12.3209 16.6296 12.2682 16.6396 12.2151 16.6391C12.162 16.6386 12.1095 16.6275 12.0607 16.6064C12.0119 16.5854 11.9679 16.5549 11.931 16.5166L10.2398 14.8206C10.2028 14.7834 10.1588 14.7539 10.1103 14.7338C10.0619 14.7136 10.0099 14.7032 9.95741 14.7032C9.90492 14.7032 9.85296 14.7136 9.8045 14.7338C9.75603 14.7539 9.71203 14.7834 9.67501 14.8206C9.63772 14.8574 9.60817 14.9012 9.58811 14.9496C9.56805 14.998 9.55788 15.0499 9.55821 15.1022C9.55803 15.1548 9.56825 15.2069 9.5883 15.2555C9.60835 15.3041 9.63781 15.3483 9.67501 15.3854L10.8062 16.5166C10.881 16.5919 10.9231 16.6937 10.9231 16.7998C10.9231 16.906 10.881 17.0078 10.8062 17.083C10.7298 17.1556 10.6284 17.1961 10.523 17.1961C10.4176 17.1961 10.3162 17.1556 10.2398 17.083C10.2288 17.0715 10.2171 17.0608 10.2046 17.051L6.60941 14.2222L7.01101 10.5118L7.12781 9.43022C7.63661 9.11023 8.63021 8.61583 9.45421 8.63023C9.20932 8.91297 8.99031 9.21712 8.79981 9.53902C8.62334 9.83972 8.56716 10.196 8.64254 10.5364C8.71792 10.8769 8.91929 11.1761 9.20621 11.3742C9.77261 11.7614 10.8062 12.1214 12.0862 11.0158L15.891 14.819C15.9655 14.8945 16.0072 14.9962 16.0072 15.1022C16.0072 15.2082 15.9655 15.31 15.891 15.3854V15.3854ZM16.5198 14.3246C16.5003 14.3 16.4795 14.2765 16.4574 14.2542L12.6494 10.4462C12.8094 10.2638 12.9694 10.0606 13.1294 9.83022C13.1658 9.78803 13.1929 9.7387 13.2091 9.6854C13.2253 9.6321 13.2302 9.57601 13.2235 9.52071C13.2167 9.46541 13.1985 9.41213 13.17 9.36428C13.1415 9.31643 13.1033 9.27506 13.0578 9.24283C13.0124 9.2106 12.9607 9.18821 12.9062 9.17711C12.8516 9.166 12.7953 9.16642 12.7408 9.17834C12.6864 9.19026 12.6351 9.21341 12.5901 9.24632C12.5452 9.27922 12.5076 9.32115 12.4798 9.36943C11.7694 10.3758 10.707 11.4254 9.66381 10.7134C9.54535 10.6291 9.46308 10.5031 9.43342 10.3608C9.40376 10.2184 9.4289 10.0701 9.50381 9.94542C9.7631 9.48217 10.1022 9.06835 10.5054 8.72303C10.5184 8.71377 10.5307 8.70361 10.5422 8.69263C11.3422 8.05263 12.3022 7.95503 13.467 8.37263C13.7694 8.50063 15.7838 9.35343 16.8398 9.55663L17.1918 14.115L16.5198 14.3246ZM18.3998 13.9998H17.971L17.6238 9.50543L18.3998 9.31183V13.9998Z" fill="#EA5454"/>
</svg>
