<svg width="15" height="15" viewBox="0 0 15 15" fill="none" xmlns="http://www.w3.org/2000/svg">
<path d="M8.00191 15C7.80328 15.0012 7.60882 14.9432 7.4433 14.8334C7.27778 14.7236 7.14871 14.5669 7.07254 14.3835C6.99637 14.2001 6.97656 13.9981 7.01563 13.8033C7.0547 13.6086 7.15088 13.4299 7.29191 13.29L12.5919 8.00002L7.29191 2.71003C7.12808 2.51873 7.04248 2.27265 7.0522 2.02097C7.06192 1.7693 7.16625 1.53056 7.34435 1.35246C7.52244 1.17437 7.76118 1.07004 8.01286 1.06032C8.26453 1.05059 8.51061 1.1362 8.70191 1.30003L14.7019 7.30002C14.8882 7.48739 14.9927 7.74084 14.9927 8.00502C14.9927 8.26921 14.8882 8.52266 14.7019 8.71002L8.70191 14.71C8.51565 14.8948 8.26425 14.9989 8.00191 15Z" fill="white"/>
<path d="M2.00191 15.0002C1.80329 15.0013 1.60882 14.9433 1.4433 14.8335C1.27778 14.7237 1.14871 14.5671 1.07254 14.3837C0.996372 14.2002 0.97656 13.9983 1.01563 13.8035C1.0547 13.6088 1.15088 13.4301 1.29191 13.2902L6.59192 8.00018L1.29191 2.71019C1.10361 2.52188 0.997818 2.26649 0.997818 2.00019C0.997818 1.73388 1.10361 1.47849 1.29191 1.29019C1.48021 1.10188 1.73561 0.996094 2.00191 0.996094C2.26821 0.996094 2.52361 1.10188 2.71191 1.29019L8.71192 7.29018C8.89817 7.47755 9.00271 7.731 9.00271 7.99518C9.00271 8.25937 8.89817 8.51282 8.71192 8.70018L2.71191 14.7002C2.6193 14.7947 2.50885 14.8698 2.38698 14.9213C2.2651 14.9728 2.13422 14.9996 2.00191 15.0002Z" fill="white"/>
</svg>
