<svg width="113" height="100" viewBox="0 0 113 100" fill="none" xmlns="http://www.w3.org/2000/svg">
<g clip-path="url(#clip0_243_360)">
<path fill-rule="evenodd" clip-rule="evenodd" d="M31.4355 8.33818L39.7679 0.00585938V15.913H31.4355V8.33818ZM80.672 8.33818L72.3397 0.00585938V15.913H80.672V8.33818Z" fill="#7B7B7B"/>
<path d="M39.7678 0.00585938H72.3396V7.95944H39.7678V0.00585938Z" fill="#5A5A5A"/>
<path fill-rule="evenodd" clip-rule="evenodd" d="M103.018 99.9938H9.08981C6.67904 99.9938 4.36701 99.0361 2.66234 97.3315C0.957673 95.6268 0 93.3148 0 90.904L0 31.5316L15.6186 15.9131H96.4891L112.108 31.5316V90.904C112.108 93.3148 111.15 95.6268 109.445 97.3315C107.741 99.0361 105.429 99.9938 103.018 99.9938Z" fill="#E6E7E8"/>
<path fill-rule="evenodd" clip-rule="evenodd" d="M0 48.1062V31.5316L15.6186 15.9131H96.4891L112.108 31.5316V48.1062H0Z" fill="#D0D1D2"/>
<path fill-rule="evenodd" clip-rule="evenodd" d="M12.8772 99.9939V35.6077C12.8772 34.6032 13.2762 33.6399 13.9865 32.9296C14.6968 32.2193 15.6601 31.8203 16.6646 31.8203H95.4429C96.4474 31.8203 97.4108 32.2193 98.1211 32.9296C98.8313 33.6399 99.2304 34.6032 99.2304 35.6077V99.9939H12.8772Z" fill="#458CF5"/>
<path d="M12.8772 48.1064H99.2304V99.9941H12.8772V48.1064Z" fill="white"/>
<path fill-rule="evenodd" clip-rule="evenodd" d="M73.476 99.994V84.4655L65.9012 76.8907L60.9775 63.256L64.3862 54.5449L83.7021 73.8608L87.1107 59.4686L99.2305 71.5883V99.994H73.476Z" fill="#D2D3D4"/>
<path d="M18.5583 54.166H47.3427V86.3591H18.5583V54.166ZM18.5583 93.5552H55.6751V99.9938H18.5583V93.5552Z" fill="#D2D3D4"/>
<path fill-rule="evenodd" clip-rule="evenodd" d="M80.672 87.9122V99.9941H64.7648V88.0838C61.5218 86.6078 58.7665 84.2384 56.8215 81.253C54.8765 78.2675 53.8224 74.7897 53.7827 71.2269C53.7429 67.664 54.7192 64.1635 56.5971 61.1355C58.475 58.1074 61.1768 55.6771 64.3861 54.1292V71.9672L72.3397 76.8908L80.672 71.9672V54.1284C83.8498 55.6613 86.5307 58.0595 88.4068 61.0475C90.2829 64.0355 91.2781 67.4921 91.2781 71.0203C91.2781 74.5485 90.2829 78.0051 88.4068 80.9931C86.5307 83.9811 83.8498 86.3793 80.672 87.9122Z" fill="#505050"/>
<path fill-rule="evenodd" clip-rule="evenodd" d="M21.7777 35.9863C22.4144 35.9863 23.0368 36.1751 23.5662 36.5289C24.0956 36.8826 24.5082 37.3854 24.7519 37.9737C24.9956 38.5619 25.0593 39.2092 24.9351 39.8337C24.8109 40.4582 24.5043 41.0318 24.054 41.482C23.6038 41.9323 23.0302 42.2389 22.4057 42.3631C21.7812 42.4873 21.1339 42.4235 20.5457 42.1799C19.9574 41.9362 19.4546 41.5236 19.1009 40.9942C18.7472 40.4648 18.5583 39.8424 18.5583 39.2056C18.5583 38.3518 18.8975 37.533 19.5013 36.9292C20.105 36.3255 20.9238 35.9863 21.7777 35.9863ZM31.2462 35.9863C31.8829 35.9863 32.5053 36.1751 33.0348 36.5289C33.5642 36.8826 33.9768 37.3854 34.2205 37.9737C34.4641 38.5619 34.5279 39.2092 34.4037 39.8337C34.2794 40.4582 33.9728 41.0318 33.5226 41.482C33.0724 41.9323 32.4987 42.2389 31.8743 42.3631C31.2498 42.4873 30.6025 42.4235 30.0142 42.1799C29.426 41.9362 28.9232 41.5236 28.5695 40.9942C28.2157 40.4648 28.0269 39.8424 28.0269 39.2056C28.0269 38.3518 28.3661 37.533 28.9698 36.9292C29.5736 36.3255 30.3924 35.9863 31.2462 35.9863Z" fill="#E6E7E8"/>
</g>
<defs>
<clipPath id="clip0_243_360">
<rect width="112.108" height="100" fill="white"/>
</clipPath>
</defs>
</svg>
