<svg width="150" height="67" viewBox="0 0 150 67" fill="none" xmlns="http://www.w3.org/2000/svg">
<g clip-path="url(#clip0_1249_1091)">
<path d="M35.2834 47.2684V58.1696H31.8467V31.2705H40.976C43.3024 31.2705 45.2587 32.0492 46.8802 33.6065C48.5192 35.1638 49.3476 37.0574 49.3476 39.2871C49.3476 41.5169 48.5192 43.4636 46.8802 45.0032C45.2764 46.5251 43.3201 47.3038 40.976 47.3038H35.2834V47.2684ZM35.2834 34.5798V43.9768H41.0465C42.4212 43.9768 43.5492 43.5167 44.448 42.5787C45.3645 41.6585 45.8403 40.5436 45.8403 39.2695C45.8403 37.9953 45.3821 36.9335 44.448 35.9955C43.5492 35.0399 42.4212 34.5621 41.0465 34.5621H35.2834V34.5798Z" fill="#777778"/>
<path d="M58.5474 39.1632C61.0852 39.1632 63.0944 39.8534 64.5748 41.216C66.0377 42.5787 66.7779 44.4545 66.7779 46.8259V58.1695H63.4821V55.6212H63.3411C61.9136 57.7271 60.0278 58.7712 57.6485 58.7712C55.6217 58.7712 53.9298 58.1695 52.5727 56.9662C51.2157 55.7628 50.5283 54.2586 50.5283 52.4535C50.5283 50.5422 51.2509 49.038 52.6785 47.9054C54.106 46.7728 56.0271 46.2065 58.424 46.2065C60.4684 46.2065 62.1603 46.5782 63.4821 47.3391V46.5428C63.4821 45.3394 63.0063 44.313 62.0546 43.4812C61.1029 42.6495 59.9925 42.2247 58.7236 42.2247C56.8026 42.2247 55.2869 43.0388 54.1589 44.6669L51.1275 42.7556C52.8018 40.3489 55.2692 39.1455 58.5297 39.1455L58.5474 39.1632ZM54.106 52.5243C54.106 53.4268 54.4938 54.1701 55.2516 54.7718C56.0095 55.3735 56.9083 55.6743 57.9305 55.6743C59.3757 55.6743 60.6623 55.1434 61.8078 54.0639C62.9358 52.9844 63.5174 51.7279 63.5174 50.2768C62.4423 49.4273 60.9443 49.0026 59.0232 49.0026C57.6309 49.0026 56.4677 49.3389 55.516 50.0113C54.5819 50.6838 54.106 51.5333 54.106 52.5243Z" fill="#777778"/>
<path d="M70.6729 39.7654H73.9686V42.7738H74.1096C75.1318 40.4202 77.2467 39.2345 80.4367 39.2345L81.1417 39.3053V42.9154L79.6083 42.7738C78.0045 42.7738 76.7003 43.2694 75.6605 44.2604C74.6207 45.2514 74.1096 46.5079 74.1096 48.0298V58.17H70.6729V39.7654ZM92.1568 58.4709C90.6588 58.4709 89.4251 58.0108 88.4381 57.0728C87.4511 56.1526 86.94 54.8607 86.9224 53.1972V42.8977H83.6972V39.7477H86.9224V34.1201H90.3591V39.7477H94.8533V42.8977H90.3591V52.0646C90.3591 53.2857 90.5883 54.1175 91.0641 54.5599C91.54 55.0023 92.0687 55.2147 92.6679 55.2147C92.9499 55.2147 93.2143 55.1793 93.4786 55.1262C93.743 55.0554 93.9897 54.9846 94.2012 54.8784L95.2939 57.9577C94.3951 58.2762 93.3553 58.4532 92.1568 58.4532V58.4709Z" fill="#777778"/>
<path d="M98.3252 39.7648H101.621V42.3131H101.762C102.291 41.4106 103.084 40.6673 104.176 40.0656C105.269 39.4639 106.397 39.1631 107.56 39.1631C109.799 39.1631 111.526 39.8002 112.742 41.092C113.958 42.3839 114.557 44.2244 114.557 46.5957V58.1694H111.12V46.8258C111.05 43.8173 109.534 42.3131 106.591 42.3131C105.216 42.3131 104.071 42.8794 103.154 43.9766C102.238 45.0915 101.762 46.4188 101.762 47.9761V58.1517H98.3252V39.7471V39.7648Z" fill="#777778"/>
<path d="M126.842 58.7711C124.145 58.7711 121.925 57.8509 120.18 55.9927C118.435 54.1346 117.554 51.7986 117.554 48.9671C117.554 46.1356 118.4 43.835 120.092 41.9592C121.784 40.101 123.951 39.1631 126.595 39.1631C129.239 39.1631 131.477 40.0479 133.081 41.8176C134.684 43.5873 135.495 46.0648 135.495 49.2326L135.46 49.6042H121.061C121.114 51.4093 121.713 52.8604 122.859 53.9576C124.004 55.0548 125.379 55.6034 126.983 55.6034C129.186 55.6034 130.895 54.5062 132.147 52.2941L135.213 53.7983C134.385 55.3556 133.257 56.559 131.794 57.4439C130.331 58.3287 128.675 58.7534 126.842 58.7534V58.7711ZM121.343 46.7373H131.865C131.759 45.4631 131.248 44.4013 130.314 43.5696C129.38 42.7378 128.128 42.3131 126.56 42.3131C125.256 42.3131 124.145 42.7201 123.211 43.5165C122.277 44.3128 121.66 45.3924 121.361 46.755L121.343 46.7373Z" fill="#777778"/>
<path d="M142.104 58.1698H138.667V39.7652H141.963V42.7736H142.104C142.456 41.8003 143.179 40.9685 144.254 40.2784C145.347 39.5882 146.404 39.252 147.461 39.252C148.519 39.252 149.312 39.3935 149.999 39.6944L148.96 43.0391C148.537 42.8621 147.867 42.7736 146.933 42.7736C145.629 42.7736 144.501 43.3045 143.549 44.3486C142.58 45.3927 142.104 46.6315 142.104 48.0296V58.1698Z" fill="#777778"/>
<path d="M39.637 15.5378V17.8915H45.2238C45.0476 19.378 44.4307 20.5283 43.3909 21.3423C42.3687 22.1564 41.1174 22.5634 39.637 22.5634C37.9098 22.5634 36.4646 21.9617 35.2838 20.7406C34.1029 19.5373 33.5037 18.0684 33.5037 16.3165C33.5037 14.5645 34.1029 13.0956 35.2838 11.8923C36.4646 10.6712 37.9274 10.0695 39.637 10.0695C41.2584 10.0695 42.6507 10.6358 43.8491 11.7507L45.5058 10.0872C43.8491 8.51217 41.8929 7.71582 39.637 7.71582C38.1036 7.71582 36.6585 8.10515 35.3014 8.88381C33.9443 9.64477 32.8869 10.7066 32.1114 12.0515C31.3536 13.3611 30.9658 14.7768 30.9658 16.2988C30.9658 17.8207 31.3536 19.2541 32.1114 20.5814C32.8692 21.9086 33.9443 22.9527 35.3014 23.7314C36.6585 24.5101 38.1036 24.8994 39.637 24.8994C41.9457 24.8994 43.8668 24.1738 45.3825 22.7227C46.8805 21.2892 47.6384 19.378 47.6384 17.0066C47.6384 16.4403 47.6031 15.9625 47.515 15.5378H39.6546H39.637Z" fill="#487CBF"/>
<path d="M53.9832 13.8389C52.4147 13.8389 51.0929 14.3698 50.0354 15.4316C48.9779 16.4757 48.4492 17.7852 48.4492 19.378C48.4492 20.9707 48.9779 22.2448 50.053 23.3243C51.1105 24.3861 52.4147 24.917 53.9832 24.917C55.5518 24.917 56.856 24.3861 57.9134 23.3243C58.9885 22.2448 59.5172 20.9353 59.5172 19.378C59.5172 17.8206 58.9885 16.4934 57.9134 15.4316C56.856 14.3698 55.5518 13.8389 53.9832 13.8389ZM56.1863 21.767C55.587 22.4041 54.8644 22.7226 54.0009 22.7226C53.1373 22.7226 52.3794 22.4041 51.7802 21.767C51.181 21.1299 50.8814 20.3336 50.8814 19.378C50.8814 18.4223 51.181 17.6083 51.7802 16.9889C52.3794 16.3518 53.1196 16.0333 54.0009 16.0333C54.8821 16.0333 55.6223 16.3518 56.2215 16.9889C56.8207 17.6083 57.1203 18.4046 57.1203 19.378C57.1203 20.3513 56.8207 21.1122 56.2039 21.767H56.1863Z" fill="#EE332D"/>
<path d="M87.2221 8.31738H84.8076V24.5807H87.2221V8.31738Z" fill="#00AC4E"/>
<path d="M66.0555 13.8389C64.4869 13.8389 63.1651 14.3698 62.1077 15.4316C61.0502 16.4757 60.5215 17.7852 60.5215 19.378C60.5215 20.9707 61.0502 22.2448 62.1253 23.3243C63.1827 24.3861 64.4869 24.917 66.0555 24.917C67.6241 24.917 68.9283 24.3861 69.9857 23.3243C71.0608 22.2448 71.5895 20.9353 71.5895 19.378C71.5895 17.8206 71.0608 16.4934 69.9857 15.4316C68.9283 14.3698 67.6241 13.8389 66.0555 13.8389ZM68.2409 21.767C67.6417 22.4041 66.9191 22.7226 66.0555 22.7226C65.1919 22.7226 64.4341 22.4041 63.8348 21.767C63.2356 21.1299 62.936 20.3336 62.936 19.378C62.936 18.4223 63.2356 17.6083 63.8348 16.9889C64.4341 16.3518 65.1743 16.0333 66.0555 16.0333C66.9367 16.0333 67.6769 16.3518 68.2762 16.9889C68.8754 17.6083 69.175 18.4046 69.175 19.378C69.175 20.3513 68.8754 21.1122 68.2585 21.767H68.2409Z" fill="#FDB614"/>
<path d="M93.8669 22.7228C92.6508 22.7228 91.7696 22.1565 91.188 21.0416L98.5549 17.98L98.3082 17.3429C98.1143 16.8297 97.8676 16.3519 97.5503 15.9095C97.2331 15.4848 96.8806 15.0955 96.4753 14.7946C96.0699 14.4761 95.6293 14.246 95.1358 14.069C94.6423 13.9098 94.1312 13.8213 93.5849 13.8213C92.1045 13.8213 90.8708 14.3522 89.8662 15.3963C88.8792 16.4581 88.3857 17.7854 88.3857 19.3604C88.3857 20.9354 88.9145 22.245 89.9543 23.3068C90.9941 24.3686 92.2983 24.8995 93.8493 24.8995C95.8055 24.8995 97.3212 24.0854 98.4316 22.4396L96.5458 21.1831C95.8584 22.2096 94.9596 22.7051 93.8316 22.7051L93.8669 22.7228ZM91.6462 16.9005C92.2631 16.2811 92.9328 15.9803 93.6906 15.9803C94.1665 15.9803 94.5895 16.0865 94.9596 16.2988C95.3297 16.5112 95.5941 16.7943 95.7351 17.1483L90.8179 19.2011C90.7826 18.2632 91.0646 17.5022 91.6462 16.9005Z" fill="#EE332D"/>
<path d="M80.842 15.0776H80.7539C80.0665 14.2459 79.0972 13.8389 77.8459 13.8389C76.4183 13.8389 75.1846 14.3875 74.1272 15.467C73.0873 16.5642 72.5586 17.856 72.5586 19.378C72.5586 20.8999 73.0873 22.1917 74.1272 23.2712C75.2022 24.3508 76.4359 24.8817 77.8459 24.8817C79.0796 24.8817 80.0489 24.4569 80.7539 23.6252H80.842V24.1915C80.842 26.5098 79.855 27.6777 77.8987 27.6777C77.2643 27.6777 76.7179 27.5008 76.2244 27.1291C75.731 26.7575 75.3609 26.2974 75.1141 25.6957L72.9992 26.5805C73.2107 27.0761 73.4751 27.5185 73.7923 27.9078C74.1095 28.3148 74.4796 28.6511 74.9026 28.9342C75.3256 29.2174 75.7838 29.4474 76.2949 29.6067C76.7884 29.766 77.3171 29.8545 77.8811 29.8545C79.5202 29.8545 80.8067 29.3589 81.7232 28.3502C82.6397 27.3592 83.1155 25.9258 83.1155 24.0853V14.1574H80.8244V15.0599L80.842 15.0776ZM80.1546 21.7847C79.5907 22.4218 78.8857 22.7226 78.075 22.7226C77.2114 22.7226 76.4888 22.4041 75.8896 21.767C75.308 21.1299 75.0084 20.3336 75.0084 19.3957C75.0084 18.4577 75.308 17.6437 75.9072 17.0066C76.5241 16.3518 77.2466 16.0156 78.075 16.0156C78.9033 16.0156 79.6083 16.3341 80.1546 16.9712C80.7186 17.626 81.0182 18.44 81.0182 19.378C81.0182 20.3159 80.7362 21.1122 80.1546 21.767V21.7847Z" fill="#487CBF"/>
<path d="M17.5538 0H0V67H17.5538V0Z" fill="#487CBF"/>
</g>
<defs>
<clipPath id="clip0_1249_1091">
<rect width="150" height="67" fill="white"/>
</clipPath>
</defs>
</svg>
