<svg width="19" height="18" viewBox="0 0 19 18" fill="none" xmlns="http://www.w3.org/2000/svg">
<path d="M9.12396 10.8018C10.1309 10.8018 10.9518 9.99369 10.9518 9C10.9518 8.60775 10.8216 8.24558 10.6058 7.94976C10.2735 7.49588 9.73385 7.19824 9.12433 7.19824C8.51444 7.19824 7.97514 7.49551 7.64244 7.9494C7.42628 8.24522 7.29724 8.60738 7.29688 8.99964C7.29651 9.99332 8.11667 10.8018 9.12396 10.8018Z" fill="#C5CAD9"/>
<path d="M13.1118 6.79547V5.2853V5.06055L12.8824 5.06127L11.3516 5.06598L11.3578 6.80127L13.1118 6.79547Z" fill="#C5CAD9"/>
<path d="M9.12674 0C4.09428 0 0 4.03742 0 9C0 13.9626 4.09428 18 9.12674 18C14.1592 18 18.2535 13.9626 18.2535 9C18.2535 4.03742 14.1592 0 9.12674 0ZM14.3173 7.94977V12.1405C14.3173 13.2321 13.4173 14.1192 12.3111 14.1192H5.94234C4.83578 14.1192 3.9362 13.2321 3.9362 12.1405V7.94977V5.86019C3.9362 4.76899 4.83578 3.8819 5.94234 3.8819H12.3108C13.4173 3.8819 14.3173 4.76899 14.3173 5.86019V7.94977Z" fill="#C5CAD9"/>
<path d="M11.9637 8.99942C11.9637 10.5426 10.6906 11.7991 9.12485 11.7991C7.55913 11.7991 6.28604 10.5426 6.28604 8.99942C6.28604 8.62821 6.36104 8.27331 6.49486 7.94922H4.94531V12.1399C4.94531 12.6815 5.39124 13.1201 5.94011 13.1201H12.3085C12.8574 13.1201 13.3033 12.6815 13.3033 12.1399V7.94922H11.7534C11.8876 8.27331 11.9637 8.62821 11.9637 8.99942Z" fill="#C5CAD9"/>
</svg>
