<svg width="18" height="18" viewBox="0 0 18 18" fill="none" xmlns="http://www.w3.org/2000/svg">
<circle cx="9" cy="9" r="9" fill="#C5CAD9"/>
<g clip-path="url(#clip0_37_226)">
<path d="M5.16569 4C4.46084 4 4 4.46284 4 5.07117C4 5.66607 4.44711 6.14211 5.13864 6.14211H5.15202C5.87065 6.14211 6.31788 5.66607 6.31788 5.07117C6.30445 4.46284 5.87065 4 5.16569 4Z" fill="black"/>
<path d="M4.125 6.98828H6.18556V13.1876H4.125V6.98828Z" fill="black"/>
<path d="M11.2457 6.84277C10.1341 6.84277 9.38875 7.88731 9.38875 7.88731V6.98827H7.32812V13.1876H9.38863V9.72564C9.38863 9.5403 9.40207 9.35526 9.45651 9.22273C9.60547 8.85265 9.94446 8.46925 10.5137 8.46925C11.2593 8.46925 11.5576 9.03775 11.5576 9.87114V13.1876H13.6179V9.633C13.6179 7.72885 12.6013 6.84277 11.2457 6.84277Z" fill="black"/>
</g>
<defs>
<clipPath id="clip0_37_226">
<rect width="10.2531" height="10.2531" fill="white" transform="translate(4 3)"/>
</clipPath>
</defs>
</svg>
