<svg width="18" height="18" viewBox="0 0 18 18" fill="none" xmlns="http://www.w3.org/2000/svg">
<circle cx="9" cy="9" r="9" fill="#C5CAD9"/>
<g clip-path="url(#clip0_37_220)">
<path d="M15.0418 6.09724C14.6312 6.27736 14.1937 6.39675 13.7375 6.45472C14.2068 6.17453 14.5649 5.73424 14.7333 5.20354C14.2958 5.46441 13.8127 5.64867 13.2979 5.75149C12.8824 5.30913 12.2903 5.03516 11.6444 5.03516C10.3911 5.03516 9.38219 6.05238 9.38219 7.29942C9.38219 7.47885 9.39737 7.65137 9.43464 7.81562C7.5527 7.72384 5.88746 6.82186 4.76879 5.44784C4.57348 5.78669 4.45893 6.17453 4.45893 6.59205C4.45893 7.37602 4.86264 8.07096 5.46442 8.4733C5.10073 8.4664 4.74394 8.36081 4.44167 8.19449C4.44167 8.20139 4.44167 8.21037 4.44167 8.21934C4.44167 9.31938 5.22633 10.2331 6.25529 10.4436C6.07103 10.4939 5.87021 10.5181 5.66179 10.5181C5.51687 10.5181 5.37056 10.5098 5.23323 10.4795C5.52653 11.3759 6.35881 12.035 7.34843 12.0564C6.57826 12.6588 5.60037 13.0218 4.54174 13.0218C4.3561 13.0218 4.17805 13.0136 4 12.9908C5.00273 13.6374 6.19111 14.0066 7.47265 14.0066C11.6382 14.0066 13.9155 10.5561 13.9155 7.56511C13.9155 7.46504 13.9121 7.36843 13.9073 7.2725C14.3565 6.95367 14.734 6.55548 15.0418 6.09724Z" fill="black"/>
</g>
<defs>
<clipPath id="clip0_37_220">
<rect width="11.0418" height="11.0418" fill="white" transform="translate(4 4)"/>
</clipPath>
</defs>
</svg>
