<svg width="18" height="18" viewBox="0 0 18 18" fill="none" xmlns="http://www.w3.org/2000/svg">
<path fill-rule="evenodd" clip-rule="evenodd" d="M9 0C13.9672 0 18 4.03277 18 9C18 13.9672 13.9672 18 9 18C4.03277 18 0 13.9672 0 9C0 4.03277 4.03277 0 9 0ZM14.39 6.2922C14.2606 5.80813 13.8794 5.427 13.3954 5.29763C12.518 5.0625 9 5.0625 9 5.0625C9 5.0625 5.48202 5.0625 4.60459 5.29763C4.12066 5.427 3.73939 5.80813 3.61002 6.2922C3.375 7.16952 3.375 9.00007 3.375 9.00007C3.375 9.00007 3.375 10.8306 3.61002 11.7078C3.73939 12.1919 4.12066 12.5731 4.60459 12.7025C5.48202 12.9375 9 12.9375 9 12.9375C9 12.9375 12.518 12.9375 13.3954 12.7025C13.8794 12.5731 14.2606 12.1919 14.39 11.7078C14.625 10.8306 14.625 9.00007 14.625 9.00007C14.625 9.00007 14.625 7.16952 14.39 6.2922ZM7.87496 10.6876V7.31254L10.7977 9.00007L7.87496 10.6876Z" fill="#C5CAD9"/>
</svg>
