<svg width="68" height="69" viewBox="0 0 68 69" fill="none" xmlns="http://www.w3.org/2000/svg">
<path d="M14.5954 21.2475L12.086 23.7495L11.5024 23.1677C10.7245 22.3918 9.46309 22.3918 8.68507 23.1677C7.90706 23.9434 7.90706 25.2011 8.68507 25.9769L10.6773 27.9633C11.4551 28.7391 12.7166 28.7392 13.4946 27.9633L17.4126 24.0565C18.1906 23.2808 18.1906 22.0231 17.4126 21.2473C16.6347 20.4716 15.3732 20.4716 14.5954 21.2475Z" fill="#0085FF"/>
<path d="M22.0469 26.6914H34C35.1002 26.6914 35.9922 25.802 35.9922 24.705C35.9922 23.6079 35.1002 22.7185 34 22.7185H22.0469C20.9467 22.7185 20.0547 23.6079 20.0547 24.705C20.0547 25.802 20.9467 26.6914 22.0469 26.6914Z" fill="#0085FF"/>
<path d="M14.5954 33.2995L12.086 35.8015L11.5024 35.2197C10.7245 34.4439 9.46309 34.4439 8.68507 35.2197C7.90706 35.9954 7.90706 37.2533 8.68507 38.0289L10.6773 40.0153C11.4554 40.7912 12.7166 40.7911 13.4946 40.0153L17.4126 36.1085C18.1906 35.3328 18.1906 34.0751 17.4126 33.2993C16.6347 32.5236 15.3732 32.5236 14.5954 33.2995Z" fill="#0085FF"/>
<path d="M14.5954 45.1645L12.086 47.6667L11.5024 47.0848C10.7245 46.3091 9.46309 46.3091 8.68507 47.0848C7.90706 47.8606 7.90706 49.1185 8.68507 49.8941L10.6773 51.8805C11.4554 52.6564 12.7166 52.6563 13.4946 51.8805L17.4126 47.9737C18.1906 47.198 18.1906 45.9401 17.4126 45.1645C16.6347 44.3889 15.3732 44.3889 14.5954 45.1645Z" fill="#0085FF"/>
<path d="M66.638 33.0201L61.9481 31.4613L60.3849 26.7847C59.9176 25.3865 58.1332 24.9642 57.0863 26.0082L51.4545 31.6241C49.0247 30.6034 46.5046 30.1271 43.9609 30.1354V12.7855H47.9453C49.0455 12.7855 49.9375 11.8961 49.9375 10.799V7.75283C49.9375 3.88244 46.7798 0.733643 42.8984 0.733643H7.03906C3.15775 0.733643 0 3.88244 0 7.75283V62.5819C0 63.679 0.891969 64.5685 1.99219 64.5685H32.3056C44.8704 74.2015 63.2785 65.2736 63.2785 49.3381C63.2785 46.7617 62.7757 44.2729 61.7849 41.9252L67.4166 36.3095C68.4618 35.2674 68.0425 33.487 66.638 33.0201ZM44.0207 55.9601C40.3591 55.9601 37.3801 52.9896 37.3801 49.3383C37.3801 44.357 42.706 41.1805 47.0895 43.4688L42.612 47.9336C41.834 48.7094 41.834 49.9673 42.612 50.7429C43.39 51.5188 44.6513 51.5187 45.4293 50.7429L49.9068 46.2781C52.1949 50.6363 49.0281 55.9601 44.0207 55.9601ZM42.8986 4.70682C44.5829 4.70682 45.9533 6.07333 45.9533 7.75283V8.81232H14.0781C14.0274 8.16847 14.3058 6.6152 13.3802 4.70682H42.8986ZM3.98438 7.75283C3.98438 6.0732 5.35473 4.70682 7.03906 4.70682C8.72339 4.70682 10.0938 6.07333 10.0938 7.75283V10.7988C10.0938 11.8959 10.9857 12.7854 12.0859 12.7854H39.9766V30.5621C36.8526 31.2304 34.0076 32.6565 31.6448 34.6376H22.0469C20.9467 34.6376 20.0547 35.5271 20.0547 36.6242C20.0547 37.7213 20.9467 38.6107 22.0469 38.6107H28.0549C26.4814 40.932 25.4037 43.6135 24.9731 46.5026H22.0469C20.9467 46.5026 20.0547 47.392 20.0547 48.4891C20.0547 49.5862 20.9467 50.4756 22.0469 50.4756H24.7976C25.0194 54.241 26.3338 57.7177 28.4288 60.5951H3.98438C3.98438 58.2574 3.98438 10.2624 3.98438 7.75283ZM44.0207 64.5685C35.5989 64.5685 28.7473 57.7362 28.7473 49.3381C28.7473 38.6057 39.6459 31.2425 49.5922 35.1565L51.0505 39.5189L49.9888 40.5776C43.0439 35.8582 33.3957 40.7678 33.3957 49.3383C33.3957 55.1804 38.1621 59.9333 44.0207 59.9333C52.585 59.9333 57.5558 50.3368 52.8061 43.3871L53.8677 42.3284L58.2412 43.7822C62.1768 53.7332 54.7569 64.5685 44.0207 64.5685ZM58.4265 39.6555L54.9047 38.4849L53.7308 34.9731L57.6243 31.0906L58.4832 33.66C58.6815 34.2531 59.1483 34.7187 59.7432 34.9163L62.3199 35.7729L58.4265 39.6555Z" fill="#0085FF"/>
</svg>
