<svg width="68" height="69" viewBox="0 0 68 69" fill="none" xmlns="http://www.w3.org/2000/svg">
<path d="M37.7916 34.1699C38.5375 33.4372 39.048 32.4998 39.2581 31.477C39.4682 30.4541 39.3684 29.392 38.9714 28.4259C38.5745 27.4598 37.8983 26.6332 37.0289 26.0515C36.1595 25.4698 35.1363 25.1592 34.0894 25.1592C33.0424 25.1592 32.0192 25.4698 31.1498 26.0515C30.2804 26.6332 29.6042 27.4598 29.2073 28.4259C28.8103 29.392 28.7106 30.4541 28.9207 31.477C29.1308 32.4998 29.6412 33.4372 30.3871 34.1699C29.3525 34.7026 28.4845 35.5086 27.8781 36.5C27.2717 37.4914 26.9502 38.6299 26.9486 39.7911V43.0508C26.9447 43.1998 26.9708 43.348 27.0253 43.4867C27.0797 43.6255 27.1615 43.7519 27.2658 43.8586C27.37 43.9653 27.4947 44.0501 27.6323 44.1081C27.7699 44.166 27.9178 44.1958 28.0672 44.1958C28.2166 44.1958 28.3645 44.166 28.5021 44.1081C28.6398 44.0501 28.7644 43.9653 28.8687 43.8586C28.9729 43.7519 29.0547 43.6255 29.1092 43.4867C29.1636 43.348 29.1897 43.1998 29.1858 43.0508V39.7911C29.187 38.7035 29.6208 37.6608 30.3919 36.8918C31.163 36.1227 32.2085 35.6902 33.2991 35.689H34.8797C35.9703 35.6902 37.0159 36.1227 37.7871 36.8917C38.5584 37.6608 38.9923 38.7035 38.9937 39.7911V43.0508C38.9937 43.3466 39.1115 43.6303 39.3212 43.8394C39.5309 44.0486 39.8153 44.166 40.1119 44.166C40.4085 44.166 40.6929 44.0486 40.9026 43.8394C41.1123 43.6303 41.2301 43.3466 41.2301 43.0508V39.7911C41.2286 38.6298 40.9071 37.4913 40.3007 36.4999C39.6943 35.5086 38.8263 34.7025 37.7916 34.1699ZM34.0894 27.398C34.6905 27.3974 35.2784 27.5747 35.7785 27.9074C36.2787 28.24 36.6687 28.7132 36.8991 29.267C37.1295 29.8207 37.1901 30.4302 37.0731 31.0183C36.9562 31.6064 36.6669 32.1467 36.242 32.5709C35.817 32.995 35.2755 33.2838 34.6859 33.4009C34.0963 33.518 33.4851 33.4581 32.9296 33.2287C32.3742 32.9993 31.8995 32.6107 31.5655 32.1122C31.2316 31.6136 31.0534 31.0275 31.0535 30.4279C31.0545 29.6252 31.3745 28.8555 31.9434 28.2876C32.5123 27.7197 33.2837 27.3998 34.0886 27.398H34.0894Z" fill="#C33DAB"/>
<path d="M66.8818 33.5263H51.1133C50.8305 29.3986 49.0515 25.5145 46.1084 22.5986C43.1652 19.6827 39.2589 17.9342 35.1182 17.6793V1.84883C35.1182 1.55307 35.0004 1.26941 34.7907 1.06027C34.581 0.851136 34.2966 0.733643 34 0.733643C33.7034 0.733643 33.419 0.851136 33.2093 1.06027C32.9996 1.26941 32.8818 1.55307 32.8818 1.84883V17.6928C28.7747 17.9883 24.9126 19.7529 22.0063 22.6621C19.0999 25.5713 17.3447 29.4292 17.0635 33.5263H1.11822C0.821651 33.5263 0.537227 33.6438 0.32752 33.8529C0.117813 34.0621 0 34.3457 0 34.6415C0 34.9372 0.117813 35.2209 0.32752 35.43C0.537227 35.6392 0.821651 35.7567 1.11822 35.7567H17.0604C17.33 39.8632 19.0805 43.7337 21.9886 46.6533C24.8967 49.5729 28.766 51.3444 32.8818 51.6406V67.4341C32.8818 67.7299 32.9996 68.0135 33.2093 68.2227C33.419 68.4318 33.7034 68.5493 34 68.5493C34.2966 68.5493 34.581 68.4318 34.7907 68.2227C35.0004 68.0135 35.1182 67.7299 35.1182 67.4341V51.6542C39.268 51.3988 43.182 49.6433 46.1271 46.7166C49.0722 43.7899 50.8463 39.8927 51.1171 35.7552H66.8818C67.1783 35.7552 67.4628 35.6377 67.6725 35.4285C67.8822 35.2194 68 34.9357 68 34.64C68 34.3442 67.8822 34.0606 67.6725 33.8514C67.4628 33.6423 67.1783 33.5248 66.8818 33.5248V33.5263ZM35.1182 49.4178V48.2491C35.1182 47.9533 35.0004 47.6697 34.7907 47.4605C34.581 47.2514 34.2966 47.1339 34 47.1339C33.7034 47.1339 33.419 47.2514 33.2093 47.4605C32.9996 47.6697 32.8818 47.9533 32.8818 48.2491V49.4042C29.3603 49.1127 26.0585 47.5784 23.5696 45.0769C21.0807 42.5754 19.5679 39.2707 19.3029 35.7567H20.5043C20.8008 35.7567 21.0853 35.6392 21.295 35.43C21.5047 35.2209 21.6225 34.9372 21.6225 34.6415C21.6225 34.3457 21.5047 34.0621 21.295 33.8529C21.0853 33.6438 20.8008 33.5263 20.5043 33.5263H19.3067C19.5829 30.0218 21.1002 26.7295 23.5873 24.2384C26.0744 21.7473 29.3689 20.2199 32.8818 19.9292V21.1823C32.8818 21.4781 32.9996 21.7617 33.2093 21.9709C33.419 22.18 33.7034 22.2975 34 22.2975C34.2966 22.2975 34.581 22.18 34.7907 21.9709C35.0004 21.7617 35.1182 21.4781 35.1182 21.1823V19.9157C38.6645 20.1669 42.0027 21.6787 44.5261 24.1763C47.0495 26.674 48.5906 29.9916 48.8693 33.5263H47.3469C47.0503 33.5263 46.7659 33.6438 46.5562 33.8529C46.3465 34.0621 46.2287 34.3457 46.2287 34.6415C46.2287 34.9372 46.3465 35.2209 46.5562 35.43C46.7659 35.6392 47.0503 35.7567 47.3469 35.7567H48.8746C48.6075 39.3012 47.0708 42.6317 44.5452 45.1399C42.0196 47.648 38.6735 49.1664 35.1182 49.4178Z" fill="#C33DAB"/>
<path d="M3.0401 29.248C3.18695 29.248 3.33236 29.2192 3.46803 29.1632C3.60369 29.1071 3.72697 29.025 3.8308 28.9214C3.93464 28.8179 4.01701 28.6949 4.0732 28.5596C4.1294 28.4243 4.15832 28.2793 4.15832 28.1329V25.6749C4.15912 24.9292 4.45656 24.2143 4.98535 23.6871C5.51414 23.1598 6.23108 22.8634 6.97881 22.8628H8.16881C8.9164 22.8636 9.63314 23.1601 10.1618 23.6873C10.6904 24.2145 10.9877 24.9293 10.9885 25.6749V28.1291C10.9885 28.4249 11.1063 28.7085 11.3161 28.9176C11.5258 29.1268 11.8102 29.2443 12.1068 29.2443C12.4033 29.2443 12.6877 29.1268 12.8975 28.9176C13.1072 28.7085 13.225 28.4249 13.225 28.1291V25.6749C13.2233 24.8116 12.9993 23.9632 12.5743 23.2111C12.1494 22.459 11.5377 21.8285 10.7981 21.3799C11.3268 20.7648 11.6676 20.0114 11.7799 19.209C11.8923 18.4066 11.7716 17.5889 11.4322 16.8528C11.0927 16.1168 10.5488 15.4932 9.86475 15.0561C9.18076 14.619 8.38542 14.3867 7.57305 14.3867C6.76068 14.3867 5.96535 14.619 5.28135 15.0561C4.59735 15.4932 4.05338 16.1168 3.71393 16.8528C3.37448 17.5889 3.25378 18.4066 3.36616 19.209C3.47854 20.0114 3.81928 20.7648 4.34797 21.3799C3.6086 21.8287 2.9972 22.4593 2.57239 23.2114C2.14757 23.9634 1.92358 24.8117 1.92188 25.6749V28.1291C1.92138 28.2759 1.94994 28.4213 2.00591 28.557C2.06189 28.6927 2.14418 28.8161 2.24806 28.9201C2.35195 29.024 2.47539 29.1065 2.6113 29.1628C2.74722 29.2191 2.89294 29.248 3.0401 29.248ZM7.57343 16.6252C7.97107 16.6252 8.35979 16.7428 8.69042 16.9632C9.02105 17.1835 9.27874 17.4966 9.43092 17.863C9.58309 18.2294 9.6229 18.6326 9.54533 19.0215C9.46775 19.4105 9.27627 19.7677 8.99509 20.0481C8.71391 20.3286 8.35567 20.5195 7.96566 20.5969C7.57566 20.6743 7.17141 20.6346 6.80403 20.4828C6.43666 20.331 6.12265 20.074 5.90173 19.7443C5.68081 19.4146 5.5629 19.0269 5.5629 18.6303C5.5635 18.0987 5.77551 17.5891 6.15243 17.2132C6.52935 16.8373 7.04039 16.6258 7.57343 16.6252Z" fill="#C33DAB"/>
<path d="M17.6541 16.625C17.9507 16.625 18.2351 16.5075 18.4448 16.2984C18.6545 16.0892 18.7724 15.8056 18.7724 15.5098V13.0557C18.7732 12.3101 19.0705 11.5953 19.5991 11.0681C20.1278 10.5409 20.8445 10.2444 21.5921 10.2436H22.7821C23.5298 10.2444 24.2466 10.5409 24.7753 11.0681C25.3041 11.5953 25.6016 12.3101 25.6026 13.0557V15.5098C25.6026 15.8056 25.7204 16.0892 25.9301 16.2984C26.1398 16.5075 26.4243 16.625 26.7208 16.625C27.0174 16.625 27.3018 16.5075 27.5115 16.2984C27.7212 16.0892 27.8391 15.8056 27.8391 15.5098V13.0557C27.8381 12.1918 27.6143 11.3426 27.1893 10.5898C26.7643 9.83702 26.1524 9.20586 25.4122 8.75698C25.9409 8.14186 26.2816 7.38846 26.394 6.58609C26.5064 5.78371 26.3857 4.96603 26.0462 4.22999C25.7068 3.49395 25.1628 2.87042 24.4788 2.43333C23.7948 1.99623 22.9995 1.76392 22.1871 1.76392C21.3747 1.76392 20.5794 1.99623 19.8954 2.43333C19.2114 2.87042 18.6674 3.49395 18.328 4.22999C17.9885 4.96603 17.8678 5.78371 17.9802 6.58609C18.0926 7.38846 18.4333 8.14186 18.962 8.75698C18.222 9.20602 17.6101 9.83722 17.1852 10.59C16.7602 11.3427 16.5364 12.1918 16.5352 13.0557V15.5098C16.5354 15.8057 16.6533 16.0893 16.8632 16.2984C17.073 16.5075 17.3575 16.625 17.6541 16.625ZM22.1875 4.0024C22.5851 4.0024 22.9738 4.11998 23.3044 4.34027C23.635 4.56055 23.8927 4.87365 24.0449 5.23999C24.1971 5.60632 24.237 6.00943 24.1594 6.39835C24.0819 6.78727 23.8905 7.14454 23.6094 7.42499C23.3283 7.70543 22.9701 7.89645 22.5802 7.9739C22.1902 8.05135 21.786 8.01175 21.4186 7.86011C21.0512 7.70847 20.7372 7.45159 20.5161 7.12196C20.2951 6.79233 20.1771 6.40475 20.1769 6.00822C20.1773 5.47649 20.3893 4.96665 20.7662 4.5906C21.1432 4.21455 21.6543 4.003 22.1875 4.0024Z" fill="#C33DAB"/>
<path d="M55.9748 29.2476C56.1216 29.2476 56.267 29.2187 56.4027 29.1627C56.5384 29.1066 56.6616 29.0245 56.7655 28.9209C56.8693 28.8174 56.9517 28.6944 57.0079 28.5591C57.0641 28.4238 57.093 28.2788 57.093 28.1324V25.6745C57.095 24.9292 57.3932 24.215 57.9224 23.6886C58.4515 23.1622 59.1683 22.8665 59.9157 22.8663H61.1057C61.8517 22.8685 62.5666 23.1651 63.0939 23.6913C63.6213 24.2175 63.9184 24.9305 63.9202 25.6745V28.1286C63.9277 28.4195 64.0489 28.6959 64.2579 28.8989C64.4668 29.1019 64.747 29.2155 65.0388 29.2155C65.3305 29.2155 65.6107 29.1019 65.8196 28.8989C66.0286 28.6959 66.1498 28.4195 66.1573 28.1286V25.6745C66.1555 24.8113 65.9314 23.963 65.5064 23.211C65.0815 22.4589 64.47 21.8283 63.7305 21.3796C64.2595 20.7645 64.6004 20.0109 64.713 19.2084C64.8255 18.4058 64.7049 17.5879 64.3654 16.8516C64.026 16.1154 63.4819 15.4916 62.7977 15.0544C62.1136 14.6172 61.318 14.3848 60.5054 14.3848C59.6928 14.3848 58.8973 14.6172 58.2131 15.0544C57.529 15.4916 56.9849 16.1154 56.6454 16.8516C56.306 17.5879 56.1854 18.4058 56.2979 19.2084C56.4104 20.0109 56.7514 20.7645 57.2804 21.3796C56.5407 21.8282 55.9291 22.4587 55.5042 23.2108C55.0792 23.9629 54.8552 24.8113 54.8535 25.6745V28.1286C54.853 28.2756 54.8817 28.4213 54.9378 28.5572C54.994 28.6932 55.0766 28.8167 55.1808 28.9207C55.285 29.0247 55.4088 29.1071 55.545 29.1632C55.6813 29.2193 55.8273 29.248 55.9748 29.2476ZM60.5081 16.6251C60.9057 16.6251 61.2944 16.7427 61.6251 16.963C61.9557 17.1834 62.2134 17.4965 62.3656 17.8629C62.5177 18.2292 62.5576 18.6324 62.48 19.0213C62.4024 19.4103 62.2109 19.7675 61.9297 20.0479C61.6486 20.3283 61.2903 20.5193 60.9003 20.5967C60.5103 20.674 60.1061 20.6343 59.7387 20.4826C59.3713 20.3308 59.0573 20.0738 58.8364 19.7441C58.6155 19.4144 58.4976 19.0267 58.4976 18.6302C58.4982 18.0986 58.7102 17.5889 59.0871 17.2131C59.464 16.8372 59.975 16.6257 60.5081 16.6251Z" fill="#C33DAB"/>
<path d="M10.7981 44.6822C11.3268 44.0671 11.6676 43.3137 11.7799 42.5113C11.8923 41.7089 11.7716 40.8912 11.4322 40.1551C11.0927 39.4191 10.5487 38.7955 9.86475 38.3584C9.18075 37.9213 8.38542 37.689 7.57305 37.689C6.76068 37.689 5.96534 37.9213 5.28134 38.3584C4.59734 38.7955 4.05337 39.4191 3.71392 40.1551C3.37447 40.8912 3.25378 41.7089 3.36616 42.5113C3.47854 43.3137 3.81927 44.0671 4.34796 44.6822C3.60799 45.1315 2.99622 45.7628 2.57137 46.5158C2.14653 47.2687 1.92287 48.1179 1.92188 48.9818V51.4353C1.92188 51.7311 2.03969 52.0147 2.24939 52.2239C2.4591 52.433 2.74353 52.5505 3.0401 52.5505C3.33667 52.5505 3.62109 52.433 3.8308 52.2239C4.04051 52.0147 4.15832 51.7311 4.15832 51.4353V48.9818C4.15932 48.2363 4.45684 47.5215 4.98561 46.9945C5.51439 46.4674 6.23121 46.1711 6.9788 46.1705H8.1688C8.9164 46.1713 9.63314 46.4678 10.1618 46.995C10.6904 47.5222 10.9877 48.237 10.9885 48.9826V51.4361C10.9885 51.7318 11.1063 52.0155 11.3161 52.2246C11.5258 52.4338 11.8102 52.5513 12.1068 52.5513C12.4033 52.5513 12.6877 52.4338 12.8975 52.2246C13.1072 52.0155 13.225 51.7318 13.225 51.4361V48.9818C13.224 48.1178 13.0002 47.2685 12.5752 46.5156C12.1503 45.7626 11.5383 45.1313 10.7981 44.6822ZM7.57343 39.9275C7.97125 39.9274 8.36019 40.0449 8.69104 40.2652C9.0219 40.4855 9.2798 40.7987 9.43215 41.1653C9.5845 41.5318 9.62443 41.9351 9.54691 42.3243C9.46939 42.7134 9.2779 43.0709 8.99664 43.3515C8.71539 43.6321 8.35701 43.8232 7.96684 43.9007C7.57667 43.9781 7.17223 43.9385 6.80467 43.7867C6.43711 43.6349 6.12295 43.3778 5.90191 43.0479C5.68087 42.718 5.56289 42.3302 5.56289 41.9334C5.56349 41.4017 5.77549 40.892 6.15238 40.516C6.52928 40.1399 7.04031 39.9283 7.57343 39.9275Z" fill="#C33DAB"/>
<path d="M63.7335 44.6821C64.2625 44.067 64.6035 43.3134 64.716 42.5108C64.8285 41.7082 64.7079 40.8903 64.3684 40.154C64.029 39.4177 63.4849 38.7939 62.8007 38.3567C62.1166 37.9194 61.321 37.687 60.5085 37.687C59.6959 37.687 58.9003 37.9194 58.2162 38.3567C57.532 38.7939 56.9879 39.4177 56.6485 40.154C56.309 40.8903 56.1884 41.7082 56.3009 42.5108C56.4135 43.3134 56.7544 44.067 57.2834 44.6821C56.5427 45.1308 55.9301 45.762 55.5046 46.515C55.079 47.2679 54.8548 48.1174 54.8535 48.9817V51.4351C54.8535 51.5816 54.8824 51.7266 54.9386 51.8619C54.9948 51.9972 55.0772 52.1201 55.181 52.2237C55.2849 52.3273 55.4081 52.4094 55.5438 52.4654C55.6795 52.5215 55.8249 52.5503 55.9717 52.5503C56.1186 52.5503 56.264 52.5215 56.3997 52.4654C56.5353 52.4094 56.6586 52.3273 56.7624 52.2237C56.8663 52.1201 56.9486 51.9972 57.0048 51.8619C57.061 51.7266 57.09 51.5816 57.09 51.4351V48.9817C57.0912 48.2353 57.3895 47.5198 57.9193 46.9927C58.4492 46.4655 59.1673 46.1697 59.9157 46.1703H61.1057C61.8523 46.1725 62.5675 46.4696 63.095 46.9964C63.6225 47.5233 63.9192 48.2372 63.9201 48.9817V51.4351C63.9163 51.5841 63.9423 51.7323 63.9968 51.871C64.0513 52.0097 64.133 52.1362 64.2373 52.2429C64.3416 52.3496 64.4662 52.4344 64.6038 52.4923C64.7415 52.5502 64.8893 52.5801 65.0387 52.5801C65.1881 52.5801 65.336 52.5502 65.4737 52.4923C65.6113 52.4344 65.7359 52.3496 65.8402 52.2429C65.9444 52.1362 66.0262 52.0097 66.0807 51.871C66.1352 51.7323 66.1612 51.5841 66.1573 51.4351V48.9817C66.1565 48.118 65.9332 47.269 65.5087 46.5161C65.0843 45.7632 64.473 45.1317 63.7335 44.6821ZM60.5081 39.9275C60.9059 39.9273 61.2948 40.0448 61.6257 40.2651C61.9565 40.4855 62.2144 40.7987 62.3668 41.1652C62.5191 41.5317 62.5591 41.935 62.4816 42.3242C62.404 42.7133 62.2125 43.0708 61.9313 43.3514C61.65 43.632 61.2917 43.8231 60.9015 43.9006C60.5113 43.978 60.1069 43.9384 59.7393 43.7866C59.3718 43.6348 59.0576 43.3777 58.8366 43.0478C58.6155 42.7179 58.4975 42.3301 58.4975 41.9333C58.4979 41.4016 58.7099 40.8917 59.0868 40.5157C59.4637 40.1396 59.9749 39.9281 60.5081 39.9275Z" fill="#C33DAB"/>
<path d="M41.3604 16.625C41.657 16.625 41.9414 16.5075 42.1511 16.2984C42.3608 16.0892 42.4786 15.8056 42.4786 15.5098V13.0557C42.4796 12.3101 42.7771 11.5953 43.3059 11.0681C43.8346 10.5409 44.5515 10.2444 45.2991 10.2436H46.4891C47.2367 10.2444 47.9535 10.5409 48.4821 11.0681C49.0107 11.5953 49.3081 12.3101 49.3089 13.0557V15.5098C49.3165 15.8007 49.4376 16.0771 49.6466 16.2801C49.8555 16.4831 50.1357 16.5968 50.4275 16.5968C50.7192 16.5968 50.9994 16.4831 51.2084 16.2801C51.4173 16.0771 51.5385 15.8007 51.5461 15.5098V13.0557C51.5449 12.1918 51.321 11.3427 50.8961 10.59C50.4711 9.83722 49.8592 9.20602 49.1192 8.75698C49.6479 8.14186 49.9887 7.38846 50.101 6.58609C50.2134 5.78371 50.0927 4.96603 49.7533 4.22999C49.4138 3.49395 48.8698 2.87042 48.1858 2.43333C47.5018 1.99623 46.7065 1.76392 45.8941 1.76392C45.0818 1.76392 44.2864 1.99623 43.6024 2.43333C42.9184 2.87042 42.3744 3.49395 42.035 4.22999C41.6955 4.96603 41.5749 5.78371 41.6872 6.58609C41.7996 7.38846 42.1403 8.14186 42.669 8.75698C41.9289 9.20586 41.3169 9.83702 40.8919 10.5898C40.4669 11.3426 40.2432 12.1918 40.2422 13.0557V15.5098C40.2422 15.8056 40.36 16.0892 40.5697 16.2984C40.7794 16.5075 41.0638 16.625 41.3604 16.625ZM45.8938 4.0024C46.2914 4.0024 46.6801 4.11998 47.0107 4.34027C47.3413 4.56055 47.599 4.87365 47.7512 5.23999C47.9034 5.60632 47.9432 6.00943 47.8657 6.39835C47.7882 6.78727 47.5968 7.14454 47.3157 7.42499C47.0346 7.70543 46.6764 7.89645 46.2865 7.9739C45.8965 8.05135 45.4923 8.01175 45.1249 7.86011C44.7575 7.70847 44.4434 7.45159 44.2224 7.12196C44.0014 6.79233 43.8834 6.40475 43.8832 6.00822C43.8836 5.47649 44.0955 4.96665 44.4725 4.5906C44.8494 4.21455 45.3606 4.003 45.8938 4.0024Z" fill="#C33DAB"/>
<path d="M25.4126 58.7589C25.9413 58.1438 26.282 57.3904 26.3944 56.588C26.5068 55.7856 26.3861 54.9679 26.0466 54.2318C25.7072 53.4957 25.1632 52.8722 24.4792 52.4351C23.7952 51.998 22.9998 51.7656 22.1875 51.7656C21.3751 51.7656 20.5798 51.998 19.8958 52.4351C19.2118 52.8722 18.6678 53.4957 18.3283 54.2318C17.9889 54.9679 17.8682 55.7856 17.9806 56.588C18.093 57.3904 18.4337 58.1438 18.9624 58.7589C18.2223 59.2081 17.6104 59.8395 17.1855 60.5924C16.7605 61.3453 16.5367 62.1945 16.5355 63.0585V65.512C16.5317 65.661 16.5577 65.8092 16.6122 65.9479C16.6667 66.0866 16.7484 66.2131 16.8527 66.3198C16.9569 66.4265 17.0816 66.5113 17.2192 66.5692C17.3569 66.6271 17.5047 66.657 17.6541 66.657C17.8035 66.657 17.9514 66.6271 18.0891 66.5692C18.2267 66.5113 18.3513 66.4265 18.4556 66.3198C18.5598 66.2131 18.6416 66.0866 18.6961 65.9479C18.7506 65.8092 18.7766 65.661 18.7727 65.512V63.0585C18.7735 62.3129 19.0708 61.598 19.5995 61.0707C20.1281 60.5433 20.8448 60.2466 21.5925 60.2456H22.7825C23.5302 60.2466 24.247 60.5433 24.7758 61.0706C25.3045 61.5979 25.602 62.3128 25.603 63.0585V65.512C25.603 65.8078 25.7208 66.0915 25.9305 66.3006C26.1402 66.5097 26.4246 66.6272 26.7212 66.6272C27.0178 66.6272 27.3022 66.5097 27.5119 66.3006C27.7216 66.0915 27.8394 65.8078 27.8394 65.512V63.0585C27.8384 62.1945 27.6147 61.3452 27.1897 60.5923C26.7647 59.8393 26.1527 59.208 25.4126 58.7589ZM22.1879 54.0065C22.5857 54.0063 22.9746 54.1238 23.3055 54.3441C23.6363 54.5645 23.8942 54.8777 24.0466 55.2442C24.1989 55.6107 24.2389 56.014 24.1613 56.4032C24.0838 56.7924 23.8923 57.1498 23.6111 57.4304C23.3298 57.711 22.9714 57.9022 22.5813 57.9796C22.1911 58.0571 21.7867 58.0174 21.4191 57.8656C21.0515 57.7138 20.7374 57.4567 20.5163 57.1268C20.2953 56.7969 20.1773 56.4091 20.1773 56.0123C20.1779 55.4807 20.3899 54.9709 20.7668 54.5949C21.1437 54.2189 21.6547 54.0072 22.1879 54.0065Z" fill="#C33DAB"/>
<path d="M49.1192 58.7589C49.6479 58.1438 49.9887 57.3904 50.101 56.588C50.2134 55.7856 50.0927 54.9679 49.7533 54.2318C49.4138 53.4957 48.8698 52.8722 48.1858 52.4351C47.5018 51.998 46.7065 51.7656 45.8941 51.7656C45.0818 51.7656 44.2864 51.998 43.6024 52.4351C42.9184 52.8722 42.3744 53.4957 42.035 54.2318C41.6955 54.9679 41.5749 55.7856 41.6872 56.588C41.7996 57.3904 42.1403 58.1438 42.669 58.7589C41.9289 59.208 41.3169 59.8393 40.8919 60.5923C40.4669 61.3452 40.2432 62.1945 40.2422 63.0585V65.512C40.2422 65.8078 40.36 66.0915 40.5697 66.3006C40.7794 66.5097 41.0638 66.6272 41.3604 66.6272C41.657 66.6272 41.9414 66.5097 42.1511 66.3006C42.3608 66.0915 42.4786 65.8078 42.4786 65.512V63.0585C42.4796 62.3128 42.7771 61.5979 43.3058 61.0706C43.8346 60.5433 44.5514 60.2466 45.2991 60.2456H46.4891C47.2368 60.2466 47.9535 60.5433 48.4821 61.0707C49.0108 61.598 49.3081 62.3129 49.3089 63.0585V65.512C49.305 65.661 49.331 65.8092 49.3855 65.9479C49.44 66.0866 49.5218 66.2131 49.626 66.3198C49.7303 66.4265 49.8549 66.5113 49.9925 66.5692C50.1302 66.6271 50.2781 66.657 50.4275 66.657C50.5769 66.657 50.7247 66.6271 50.8624 66.5692C51 66.5113 51.1247 66.4265 51.2289 66.3198C51.3332 66.2131 51.415 66.0866 51.4694 65.9479C51.5239 65.8092 51.55 65.661 51.5461 65.512V63.0585C51.5449 62.1945 51.3211 61.3453 50.8961 60.5924C50.4712 59.8395 49.8593 59.2081 49.1192 58.7589ZM45.8937 54.0065C46.2916 54.0063 46.6805 54.1238 47.0114 54.3441C47.3422 54.5645 47.6001 54.8777 47.7525 55.2442C47.9048 55.6107 47.9448 56.014 47.8672 56.4032C47.7897 56.7924 47.5982 57.1498 47.317 57.4304C47.0357 57.711 46.6773 57.9022 46.2872 57.9796C45.897 58.0571 45.4926 58.0174 45.125 57.8656C44.7574 57.7138 44.4433 57.4567 44.2222 57.1268C44.0012 56.7969 43.8832 56.4091 43.8832 56.0123C43.8838 55.4807 44.0958 54.9709 44.4727 54.5949C44.8496 54.2189 45.3606 54.0072 45.8937 54.0065Z" fill="#C33DAB"/>
</svg>
