<svg width="64" height="64" viewBox="0 0 64 64" fill="none" xmlns="http://www.w3.org/2000/svg">
<path d="M60.16 51.6755V12.3252C60.16 11.7919 59.7237 11.3652 59.2 11.3652C58.6667 11.3652 58.24 11.8016 58.24 12.3252V51.6755C58.24 52.2089 58.6764 52.6355 59.2 52.6355C59.7237 52.6452 60.16 52.2089 60.16 51.6755Z" fill="#076856"/>
<path d="M55.7382 1.13477H62.6327V8.02931H55.7382V1.13477Z" fill="#076856"/>
<path d="M55.7382 55.9614H62.6327V62.856H55.7382V55.9614Z" fill="#076856"/>
<path d="M51.6752 3.61719H12.3249C11.7915 3.61719 11.3649 4.04385 11.3649 4.57719C11.3649 5.11052 11.8012 5.53719 12.3249 5.53719H51.6752C52.2085 5.53719 52.6352 5.10082 52.6352 4.57719C52.6449 4.05355 52.2085 3.61719 51.6752 3.61719Z" fill="#076856"/>
<path d="M51.6752 58.4536H12.3249C11.7915 58.4536 11.3649 58.8803 11.3649 59.4136C11.3649 59.9469 11.8012 60.3736 12.3249 60.3736H51.6752C52.2085 60.3736 52.6352 59.9373 52.6352 59.4136C52.6449 58.8803 52.2085 58.4536 51.6752 58.4536Z" fill="#076856"/>
<path d="M5.7697 51.6755V12.3252C5.7697 11.7919 5.33334 11.3652 4.8097 11.3652C4.28606 11.3652 3.8497 11.8016 3.8497 12.3252V51.6755C3.8497 52.2089 4.28606 52.6355 4.8097 52.6355C5.33334 52.6355 5.7697 52.2089 5.7697 51.6755Z" fill="#076856"/>
<path d="M1.35757 1.13477H8.25212V8.02931H1.35757V1.13477Z" fill="#076856"/>
<path d="M1.35757 55.9614H8.25212V62.856H1.35757V55.9614Z" fill="#076856"/>
<path d="M18.6182 51.8891L23.5152 40.4369H40.4849L45.3818 51.8891C45.8473 52.9848 46.9236 53.6442 48.0388 53.6442C48.417 53.6442 48.8049 53.5666 49.1733 53.4115C50.6473 52.7812 51.3261 51.0842 50.6958 49.6103L34.657 12.1121C34.2012 11.0454 33.1539 10.3569 32 10.3569C30.8461 10.3569 29.7988 11.0454 29.343 12.1121L13.2945 49.6103C12.6642 51.0745 13.343 52.7812 14.817 53.4115C16.2812 54.0418 17.9879 53.3533 18.6182 51.8891ZM32 20.6066L38.0121 34.6478H25.9879L32 20.6066Z" fill="#076856"/>
</svg>
