<svg width="64" height="64" viewBox="0 0 64 64" fill="none" xmlns="http://www.w3.org/2000/svg">
<path d="M1.42221 2.10498H7.83643V8.5192H1.42221V2.10498Z" fill="#DC3545"/>
<path d="M56.1635 2.10498H62.5777V8.5192H56.1635V2.10498Z" fill="#DC3545"/>
<path d="M1.42218 55.481H7.8364V61.8952H1.42218V55.481Z" fill="#DC3545"/>
<path d="M56.1635 55.481H62.5777V61.8952H56.1635V55.481Z" fill="#DC3545"/>
<path d="M55.4382 9.97032C55.0399 9.97032 54.7128 9.64321 54.7128 9.24498V6.03076H9.28706V9.24498C9.28706 9.64321 8.95995 9.97032 8.56173 9.97032H5.3475V54.045H8.5475C8.94573 54.045 9.27284 54.3721 9.27284 54.7703V57.9134H54.6986V54.7561C54.6986 54.3579 55.0257 54.0308 55.4239 54.0308H58.6239V9.97032H55.4382ZM36.5368 13.9668C36.8213 13.6823 37.2764 13.6823 37.5608 13.9668L44.7715 21.1774C45.0559 21.4619 45.0559 21.917 44.7715 22.2014C44.6293 22.3437 44.4444 22.4148 44.2595 22.4148C44.0746 22.4148 43.8897 22.3437 43.7475 22.2014L36.5368 14.9908C36.2524 14.7063 36.2524 14.237 36.5368 13.9668ZM33.8346 35.4565L42.5671 26.7241L33.7208 17.8779C33.4364 17.5934 33.4364 17.1383 33.7208 16.8539C34.0053 16.5694 34.4604 16.5694 34.7448 16.8539L44.1031 26.2121C44.3875 26.4965 44.3875 26.9517 44.1031 27.2361L34.8586 36.4805C34.7164 36.6228 34.5315 36.6939 34.3466 36.6939C34.1617 36.6939 33.9768 36.6228 33.8346 36.4805C33.5502 36.1961 33.5502 35.741 33.8346 35.4565ZM28.9848 36.5516C28.8426 36.6939 28.6577 36.765 28.4728 36.765C28.2879 36.765 28.1031 36.6939 27.9608 36.5516C27.6764 36.2672 27.6764 35.8121 27.9608 35.5276L37.9022 25.5437C38.1866 25.2592 38.6417 25.2592 38.9262 25.5437C39.2106 25.8281 39.2106 26.2832 38.9262 26.5676L28.9848 36.5516ZM36.0817 11.1365C36.3662 11.421 36.3662 11.8761 36.0817 12.1605L25.8986 22.3437C25.7564 22.4859 25.5715 22.557 25.3866 22.557C25.2017 22.557 25.0168 22.4859 24.8746 22.3437C24.5902 22.0592 24.5902 21.6041 24.8746 21.3196L35.0577 11.1365C35.3279 10.8663 35.7973 10.8663 36.0817 11.1365ZM19.8542 20.5374L29.0986 11.293C29.3831 11.0085 29.8382 11.0085 30.1226 11.293C30.4071 11.5774 30.4071 12.0325 30.1226 12.317L21.3902 21.0494L30.2364 29.8956C30.5208 30.1801 30.5208 30.6352 30.2364 30.9196C30.0942 31.0619 29.9093 31.133 29.7244 31.133C29.5395 31.133 29.3546 31.0619 29.2124 30.9196L19.8542 21.5614C19.7119 21.4192 19.6408 21.2343 19.6408 21.0494C19.6408 20.8645 19.7262 20.6796 19.8542 20.5374ZM19.2284 25.5863C19.5128 25.3019 19.9679 25.3019 20.2524 25.5863L27.4631 32.7116C27.7475 32.9961 27.7475 33.4512 27.4631 33.7356C27.3208 33.8779 27.1359 33.949 26.9511 33.949C26.7662 33.949 26.5813 33.8779 26.4391 33.7356L19.2284 26.6103C18.9582 26.3401 18.9439 25.8708 19.2284 25.5863ZM43.2355 52.3525C43.2355 52.7508 42.9084 53.0779 42.5102 53.0779H21.4897C21.0915 53.0779 20.7644 52.7508 20.7644 52.3525V49.0956C20.7644 48.6974 21.0915 48.3703 21.4897 48.3703H42.5244C42.9226 48.3703 43.2497 48.6974 43.2497 49.0956V52.3525H43.2355ZM46.2079 45.5685C46.2079 45.9668 45.8808 46.2939 45.4826 46.2939H18.5173C18.1191 46.2939 17.7919 45.9668 17.7919 45.5685V40.0645C17.7919 39.6663 18.1191 39.3392 18.5173 39.3392H45.4684C45.8666 39.3392 46.1937 39.6663 46.1937 40.0645L46.2079 45.5685Z" fill="#DC3545"/>
<path d="M22.2008 49.8066H41.7848V51.6129H22.2008V49.8066Z" fill="#DC3545"/>
<path d="M19.2426 40.79H44.743V44.8434H19.2426V40.79Z" fill="#DC3545"/>
</svg>
