<svg width="64" height="64" viewBox="0 0 64 64" fill="none" xmlns="http://www.w3.org/2000/svg">
<path fill-rule="evenodd" clip-rule="evenodd" d="M35.5723 56.9867C35.5321 57.5186 35.3826 58.0474 35.1203 58.5379L34.1091 60.4288C34.4777 60.6406 34.8537 60.8627 35.2217 61.0647C36.0997 61.5476 37.2118 61.1797 37.6882 60.312C38.1808 59.4162 37.8446 58.2892 36.9565 57.7915C36.4976 57.5342 36.0353 57.2488 35.5723 56.9867ZM23.0045 37.7797C25.7588 40.735 28.9448 39.446 31.9723 38.2203C34.738 37.1007 37.3938 36.0256 39.9242 37.4678L49.7698 43.0796C50.1211 43.2797 50.4292 43.5253 50.6903 43.804C50.7402 43.8572 50.7886 43.9118 50.8352 43.9674L52.2997 43.3564L47.2783 30.4038C45.0421 31.6006 43.4185 30.9131 41.2201 30.0145C38.82 29.0333 36.0078 27.884 32.1805 30.5096C30.0901 31.9378 28.4121 33.9711 26.3002 35.5567C25.2535 36.3426 24.1523 37.0827 23.0045 37.7797ZM23.4665 47.8523C22.6655 47.4247 21.7478 47.2902 20.8583 47.4661C20.7011 46.2003 19.9447 45.0832 18.814 44.4797C17.2731 43.6573 15.366 43.9587 14.1503 45.2024C13.9078 43.9478 13.5715 42.7261 12.154 42.1758C12.0692 42.1429 11.9278 42.0837 11.7428 42.0042L17.3946 29.2172L18.0452 29.5173C20.0233 30.6157 21.8575 30.1861 23.8502 29.7191C25.6423 29.2991 27.5905 28.8426 29.7962 29.8156C28.1863 31.1562 26.7896 32.698 25.1048 33.9631C23.95 34.8302 22.6833 35.6603 21.322 36.4548C20.6251 36.8618 20.4448 37.7967 20.9397 38.4341C24.7278 43.3083 28.8331 41.6465 32.7223 40.0719C35.032 39.137 37.2498 38.2391 38.9398 39.2023L48.7855 44.8141C49.6621 45.3137 50.0202 46.4248 49.5281 47.327C49.0216 48.2036 47.9473 48.5677 47.0415 48.0755C44.7876 46.7858 42.5086 45.535 40.2535 44.2441C39.7746 43.9701 39.1641 44.1362 38.8902 44.6152C38.6162 45.0941 38.7823 45.7046 39.2613 45.9785C41.5147 47.2685 43.7802 48.5377 46.0456 49.8066C46.9315 50.3052 47.2746 51.4241 46.7811 52.3213C46.3042 53.1883 45.1502 53.5546 44.2781 53.0531L35.36 48.0348C34.8788 47.7652 34.2702 47.9366 34.0006 48.4177C33.731 48.8988 33.9023 49.5075 34.3835 49.7771C36.81 51.1424 39.231 52.53 41.6571 53.8907C42.5515 54.3941 42.8861 55.5147 42.3876 56.4177C41.8925 57.3022 40.7691 57.625 39.8813 57.1342L34.6976 54.2001C34.3691 53.7973 33.9658 53.4677 33.5076 53.2228C32.554 52.7133 31.4441 52.6202 30.4208 52.9594C30.1341 51.9191 29.4423 51.0475 28.4871 50.5376C27.5335 50.0287 26.4236 49.9353 25.4005 50.2743C25.114 49.2341 24.4216 48.3619 23.4665 47.8523ZM28.0226 59.5862C27.879 60.4022 28.279 61.2388 29.012 61.6308C29.947 62.131 31.1262 61.7737 31.6263 60.8386L33.3596 57.5976C33.86 56.662 33.4948 55.479 32.5676 54.9834C31.7893 54.5676 30.8077 54.7428 30.2183 55.3973L28.0226 59.5862ZM28.506 54.4822C28.7228 53.6278 28.3278 52.7151 27.5475 52.2986C26.769 51.8831 25.7873 52.0574 25.1978 52.7122L22.7467 57.4134C22.6271 58.2172 23.0248 59.0236 23.7442 59.4082C24.5927 59.8621 25.665 59.6113 26.2252 58.8301L28.506 54.4822ZM23.4855 51.797C23.7023 50.9427 23.3072 50.0298 22.527 49.6133C21.804 49.2274 20.9077 49.3456 20.3055 49.8974L17.4625 54.9848C16.9623 55.9198 17.3198 57.0991 18.2548 57.5991C19.201 58.1051 20.3715 57.7363 20.876 56.7941L23.4855 51.797ZM18.72 48.7453C19.1387 47.8272 18.7657 46.7165 17.8745 46.2408C16.939 45.7415 15.76 46.097 15.2595 47.0326L13.4517 50.4123C12.9517 51.3473 13.3091 52.5266 14.2441 53.0266C14.9631 53.4111 15.854 53.2951 16.4561 52.7501L18.72 48.7453ZM32 2.14258L45.1426 7.77508V18.4022C45.1426 22.1363 43.8621 25.4622 41.6985 28.0601C40.8913 27.7316 40.0437 27.3995 39.137 27.1678C39.3572 26.9408 39.5686 26.7058 39.7708 26.4631C41.576 24.2966 42.6426 21.5306 42.6426 18.4022V10.083C42.6426 9.6452 42.3612 9.27308 41.9695 9.1377L32.3906 5.03245C32.1307 4.92195 31.8502 4.93008 31.6093 5.03245L21.9667 9.16495C21.5873 9.32633 21.3597 9.69508 21.3595 10.083L21.3573 18.4022C21.3573 21.5305 22.424 24.2966 24.2291 26.4631C24.5035 26.7923 24.7948 27.1073 25.102 27.4076C24.5183 27.5112 23.9515 27.644 23.3971 27.7738C23.0143 27.8635 22.639 27.9515 22.2713 28.0236C20.1261 25.4311 18.8573 22.1188 18.8573 18.4022V7.77508L32 2.14258ZM32 7.03583L23.3573 10.7397V18.4021C23.3573 21.0485 24.2498 23.3767 25.7603 25.1896C26.4236 25.9855 27.2072 26.6845 28.0881 27.27C29.1857 27.3968 30.3513 27.7556 31.6055 28.5012C33.4188 27.3687 35.0267 26.9213 36.4822 26.8646C37.1337 26.3702 37.7232 25.8092 38.2396 25.1895C39.7501 23.3766 40.6426 21.0485 40.6426 18.402V10.7397L32 7.03583ZM38.1136 15.7401C35.98 17.8935 33.8608 20.061 31.7173 22.2046C31.0907 22.8312 30.0742 22.8312 29.4476 22.2046L25.8913 18.6485C25.2647 18.0218 25.2647 17.0053 25.8913 16.3787C26.518 15.7521 27.5346 15.7521 28.1611 16.3787L30.5788 18.7965L35.8405 13.4825C36.4632 12.8535 37.4793 12.8516 38.1066 13.4755C38.7337 14.099 38.7357 15.1122 38.1136 15.7401ZM61.8827 42.3448L54.7181 23.8638C54.3717 22.9702 53.3571 22.5226 52.4635 22.869L48.9058 24.2482C48.0123 24.5946 47.5646 25.6092 47.911 26.5027L55.0756 44.9837C55.422 45.8773 56.4366 46.3249 57.3302 45.9786L60.8878 44.5993C61.7813 44.2531 62.2291 43.2385 61.8827 42.3448ZM51.9857 28.1005C51.331 28.1005 50.8002 27.5697 50.8002 26.9148C50.8002 26.26 51.331 25.7292 51.9857 25.7292C52.6405 25.7292 53.1713 26.26 53.1713 26.9148C53.1713 27.5696 52.6405 28.1005 51.9857 28.1005ZM15.9491 23.2298L12.4591 21.6873C11.5825 21.2998 10.5482 21.7001 10.1608 22.5767L2.14797 40.7061C1.76047 41.5827 2.16072 42.6168 3.03734 43.0043L6.52734 44.5468C7.40384 44.9343 8.43809 44.5341 8.82547 43.6574L16.8385 25.5281C17.2258 24.6515 16.8257 23.6173 15.9491 23.2298ZM12.6941 26.9352C12.0401 26.9048 11.5343 26.3501 11.5647 25.696C11.5951 25.0418 12.1498 24.5362 12.804 24.5666C13.4581 24.5968 13.9637 25.1517 13.9333 25.8058C13.903 26.4598 13.3481 26.9656 12.6941 26.9352Z" fill="#C33DAB"/>
</svg>
