<svg width="128" height="128" viewBox="0 0 128 128" fill="none" xmlns="http://www.w3.org/2000/svg">
<rect x="0.5" y="0.5" width="127" height="127" rx="7.5" stroke="#C33DAB"/>
<g clip-path="url(#clip0_13_559)">
<path d="M54.0184 37.7593C45.0582 37.7593 37.7684 45.049 37.7684 54.0093C37.7684 62.9695 45.0582 70.2592 54.0184 70.2592C62.9787 70.2592 70.2683 62.9695 70.2683 54.0093C70.2683 45.049 62.9787 37.7593 54.0184 37.7593ZM54.0184 67.7592C46.4367 67.7592 40.2684 61.591 40.2684 54.0093C40.2684 46.4275 46.4367 40.2593 54.0184 40.2593C61.6002 40.2593 67.7683 46.4275 67.7683 54.0093C67.7683 61.591 61.6002 67.7592 54.0184 67.7592Z" fill="#C33DAB"/>
<path d="M94.8658 86.9198L77.3619 69.4159C76.8737 68.9279 76.0824 68.9279 75.5942 69.4159L75.2981 69.7119L71.5664 65.9802C73.9009 62.5689 75.2686 58.446 75.2686 54.0093C75.2686 42.292 65.7358 32.7593 54.0187 32.7593C42.3014 32.7593 32.7687 42.292 32.7687 54.0093C32.7687 65.7265 42.3014 75.2592 54.0187 75.2592C58.4554 75.2592 62.5783 73.8915 65.9898 71.5569L69.7216 75.2887L69.4071 75.6032C68.9191 76.0913 68.9191 76.8826 69.4071 77.371L86.9109 94.8747C87.3992 95.3628 88.1904 95.3627 88.6787 94.8747L94.8659 88.6877C95.3536 88.1998 95.3538 87.4082 94.8658 86.9198ZM35.2684 54.0094C35.2684 43.6707 43.6797 35.2594 54.0184 35.2594C64.3572 35.2594 72.7683 43.6707 72.7683 54.0094C72.7683 64.3482 64.3572 72.7593 54.0184 72.7593C43.6797 72.7593 35.2684 64.3482 35.2684 54.0094ZM70.0296 67.9793L73.5008 71.4503L71.4596 73.4915L67.9883 70.0204C68.7139 69.3869 69.3961 68.7049 70.0296 67.9793ZM87.7944 92.223L72.0584 76.4872L76.4778 72.0676L92.2139 87.8038L87.7944 92.223Z" fill="#C33DAB"/>
<path d="M54.0184 62.7593C49.1937 62.7593 45.2684 58.834 45.2684 54.0093C45.2684 53.3189 44.7088 52.7593 44.0184 52.7593C43.3281 52.7593 42.7684 53.3189 42.7684 54.0093C42.7684 60.2125 47.8152 65.2592 54.0184 65.2592C54.7088 65.2592 55.2684 64.6995 55.2684 64.0093C55.2684 63.3189 54.7088 62.7593 54.0184 62.7593Z" fill="#C33DAB"/>
</g>
<defs>
<clipPath id="clip0_13_559">
<rect width="64" height="64" fill="white" transform="translate(32 32)"/>
</clipPath>
</defs>
</svg>
