<svg width="128" height="128" viewBox="0 0 128 128" fill="none" xmlns="http://www.w3.org/2000/svg">
<rect x="0.5" y="0.5" width="127" height="127" rx="7.5" stroke="#0085FF"/>
<path d="M72 64C72 59.589 68.411 56 64 56C59.589 56 56 59.589 56 64C56 68.411 59.589 72 64 72C68.411 72 72 68.411 72 64ZM64 70C60.691 70 58 67.309 58 64C58 60.691 60.691 58 64 58C67.309 58 70 60.691 70 64C70 67.309 67.309 70 64 70Z" fill="#0084FF"/>
<path d="M90.978 63.099C90.873 59.884 90.211 56.76 89 53.795V51.208C89 50.539 89.33 49.911 89.861 49.569C92.453 47.904 94 45.074 94 42C94 39.44 92.904 36.993 90.994 35.286C89.085 33.58 86.52 32.769 83.955 33.059C80.205 33.483 77.091 36.315 76.24 39.938C72.466 38.018 68.267 37 64 37C60.902 37 57.882 37.519 55 38.54V33H49V49H47V37H41V49H39V41H33V51H40.336C38.151 54.969 37 59.426 37 64C37 67.093 37.535 70.115 38.556 73C38.212 73.591 38 74.268 38 75H36C34.346 75 33 76.346 33 78V83H35C36.103 83 37 83.897 37 85C37 86.103 36.103 87 35 87H33V92C33 93.654 34.346 95 36 95H48C49.654 95 51 93.654 51 92V87H49C47.897 87 47 86.103 47 85C47 83.897 47.897 83 49 83H51V78C51 76.346 49.654 75 48 75H46C46 72.794 44.206 71 42 71C41.333 71 40.713 71.18 40.16 71.47C39.504 69.376 39.131 67.211 39.044 65H51V67.708L52.826 68.353C52.888 68.51 52.953 68.667 53.022 68.824L52.186 70.572L57.43 75.816L59.178 74.98C59.334 75.049 59.491 75.115 59.649 75.176L60.292 77H63V88.973C59.675 88.844 56.469 88.077 53.458 86.675L52.614 88.488C56.192 90.155 60.023 91 64 91C72.259 91 79.898 87.296 85 80.965V88.236L87.658 93.552C88.104 94.445 89.001 95 90 95C90.999 95 91.896 94.445 92.342 93.553L95 88.236V68C95 65.578 93.268 63.555 90.978 63.099ZM37 49H35V43H37V49ZM78.06 41.075C78.46 37.938 81.034 35.402 84.18 35.046C84.458 35.015 84.734 35 85.009 35C86.734 35 88.362 35.617 89.661 36.778C91.147 38.105 92 40.009 92 42C92 44.39 90.796 46.591 88.78 47.887C87.723 48.567 87.078 49.72 87.013 51H86V44.816C87.161 44.402 88 43.302 88 42C88 40.346 86.654 39 85 39C83.346 39 82 40.346 82 42C82 43.302 82.839 44.402 84 44.816V51H82.985C82.911 49.709 82.274 48.561 81.237 47.898C78.928 46.423 77.711 43.809 78.06 41.075ZM87 53V54C87 54.551 86.551 55 86 55H84C83.449 55 83 54.551 83 54V53H87ZM84 42C84 41.449 84.449 41 85 41C85.551 41 86 41.449 86 42C86 42.551 85.551 43 85 43C84.449 43 84 42.551 84 42ZM65 39.033C68.86 39.187 72.632 40.23 76.003 42.078C76.027 45.116 77.549 47.915 80.159 49.583C80.678 49.914 80.999 50.553 80.999 51.25V54C80.999 55.654 82.345 57 83.999 57H85.999C86.682 57 87.305 56.762 87.81 56.376C88.495 58.516 88.887 60.733 88.975 63H77V60.292L75.174 59.647C75.112 59.49 75.047 59.333 74.978 59.176L75.814 57.428L70.57 52.184L68.822 53.02C68.666 52.951 68.509 52.885 68.351 52.824L67.708 51H65V39.033ZM51 35H53V49H51V35ZM43 39H45V49H43V39ZM40 77V75C40 73.897 40.897 73 42 73C43.103 73 44 73.897 44 75V77H48C48.551 77 49 77.449 49 78V81C46.794 81 45 82.794 45 85C45 87.206 46.794 89 49 89V92C49 92.551 48.551 93 48 93H36C35.449 93 35 92.551 35 92V89C37.206 89 39 87.206 39 85C39 82.794 37.206 81 35 81V78C35 77.449 35.449 77 36 77H40ZM51 60.292V63H39.035C39.204 58.743 40.444 54.626 42.657 51H55V40.677C57.559 39.688 60.242 39.132 63 39.025V51H60.292L59.647 52.826C59.49 52.888 59.333 52.953 59.176 53.022L57.428 52.186L52.184 57.43L53.02 59.178C52.951 59.334 52.885 59.491 52.824 59.649L51 60.292ZM61.708 75L61.217 73.608L60.759 73.451C60.376 73.32 59.99 73.159 59.612 72.973L59.177 72.76L57.843 73.398L54.601 70.156L55.239 68.822L55.026 68.387C54.84 68.009 54.68 67.623 54.548 67.24L54.391 66.782L53 66.292V61.707L54.392 61.216L54.549 60.758C54.68 60.375 54.841 59.989 55.027 59.611L55.24 59.176L54.602 57.842L57.844 54.6L59.178 55.238L59.613 55.025C59.991 54.839 60.377 54.679 60.76 54.547L61.218 54.39L61.708 53H66.293L66.784 54.392L67.242 54.549C67.625 54.68 68.011 54.841 68.389 55.027L68.824 55.24L70.158 54.602L73.4 57.844L72.762 59.178L72.975 59.613C73.161 59.991 73.321 60.377 73.453 60.76L73.61 61.218L75 61.708V66.293L73.608 66.784L73.451 67.242C73.32 67.625 73.159 68.011 72.973 68.389L72.76 68.824L73.398 70.158L70.156 73.4L68.822 72.762L68.387 72.975C68.009 73.161 67.623 73.321 67.24 73.453L66.782 73.61L66.292 75H61.708ZM85 68V77.557C80.548 84.443 73.147 88.648 65 88.968V77H67.708L68.353 75.174C68.51 75.112 68.667 75.047 68.824 74.978L70.572 75.814L75.816 70.57L74.98 68.822C75.049 68.666 75.115 68.509 75.176 68.351L77 67.708V65H86.026C85.391 65.838 85 66.87 85 68ZM87 71H89V87H87V71ZM90.553 92.659C90.342 93.08 89.658 93.08 89.448 92.659L87.618 89H92.382L90.553 92.659ZM93 87H91V71H93V87ZM93 69H87V68C87 66.346 88.346 65 90 65C91.654 65 93 66.346 93 68V69Z" fill="#0084FF"/>
<path d="M67.135 86.7878C72.354 86.0758 77.216 83.5528 80.824 79.6828L79.361 78.3188C76.066 81.8528 71.628 84.1568 66.864 84.8068L67.135 86.7878Z" fill="#0084FF"/>
<path d="M83.922 75.5L82.191 74.5C81.813 75.154 81.393 75.796 80.943 76.41L82.556 77.593C83.049 76.92 83.508 76.217 83.922 75.5Z" fill="#0084FF"/>
</svg>
