<svg width="128" height="128" viewBox="0 0 128 128" fill="none" xmlns="http://www.w3.org/2000/svg">
<rect x="0.5" y="0.5" width="127" height="127" rx="7.5" stroke="#DC3545"/>
<g clip-path="url(#clip0_13_600)">
<path d="M87.3164 41.9404H94.75C95.4404 41.9404 96 41.3809 96 40.6904V33.25C96 32.5596 95.4404 32 94.75 32H87.3164C86.626 32 86.0664 32.5596 86.0664 33.25V35.7202H68.9668V33.25C68.9668 32.5596 68.4072 32 67.7168 32H60.2832C59.5928 32 59.0332 32.5596 59.0332 33.25V35.7202H41.9336V33.25C41.9336 32.5596 41.374 32 40.6836 32H33.25C32.5596 32 32 32.5596 32 33.25V40.6904C32 41.3809 32.5596 41.9404 33.25 41.9404H40.6836C41.374 41.9404 41.9336 41.3809 41.9336 40.6904V38.2202H52.332C48.6704 39.8804 45.3691 42.3188 42.6792 45.4023C38.4614 50.2373 36.0229 56.3555 35.7412 62.75H33.25C32.5596 62.75 32 63.3096 32 64V71.4404C32 72.1309 32.5596 72.6904 33.25 72.6904H40.6836C41.374 72.6904 41.9336 72.1309 41.9336 71.4404V64C41.9336 63.3096 41.374 62.75 40.6836 62.75H38.2441C38.8203 50.9702 47.4858 40.9395 59.0332 38.6846V40.6909C59.0332 41.3813 59.5928 41.9409 60.2832 41.9409H67.7168C68.4072 41.9409 68.9668 41.3813 68.9668 40.6909V38.6846C80.5142 40.9395 89.1797 50.9702 89.7559 62.75H87.3164C86.626 62.75 86.0664 63.3096 86.0664 64V71.4404C86.0664 72.1309 86.626 72.6904 87.3164 72.6904H94.75C95.4404 72.6904 96 72.1309 96 71.4404V64C96 63.3096 95.4404 62.75 94.75 62.75H92.2588C91.9771 56.3555 89.5386 50.2373 85.3208 45.4023C82.6309 42.3188 79.3296 39.8804 75.668 38.2202H86.0664V40.6909C86.0664 41.3809 86.626 41.9404 87.3164 41.9404ZM39.4336 39.4404H34.5V34.5H39.4336V39.4404ZM39.4336 70.1904H34.5V65.25H39.4336V70.1904ZM93.5 70.1904H88.5664V65.25H93.5V70.1904ZM66.4668 39.4404H61.5332V34.5H66.4668V39.4404ZM88.5664 34.5H93.5V39.4404H88.5664V34.5Z" fill="#DC3545"/>
<path d="M65.0948 45.772C64.875 45.373 64.4556 45.125 64 45.125C63.5445 45.125 63.125 45.373 62.9053 45.772L57.7134 55.1978C57.3804 55.8027 57.6006 56.563 58.2056 56.8955C58.8096 57.2285 59.5704 57.0088 59.9034 56.4038L62.75 51.2354V60.4536C61.0147 60.9888 59.75 62.6074 59.75 64.5161C59.75 66.8594 61.6568 68.7661 64 68.7661C66.3433 68.7661 68.25 66.8594 68.25 64.5161C68.25 62.6074 66.9854 60.9888 65.25 60.4536V51.2354L73.8257 66.8057C71.0083 69.6553 69.0879 73.3105 68.3418 77.25H59.6582C58.9117 73.3105 56.9913 69.6553 54.1744 66.8057L55.607 64.2046C55.94 63.6001 55.7198 62.8398 55.1153 62.5068C54.5108 62.1738 53.75 62.3936 53.417 62.9985L51.5225 66.439C51.2442 66.9438 51.3477 67.5742 51.773 67.9639C54.4649 70.4292 56.334 73.6948 57.1075 77.25H55.9434C53.8755 77.25 52.1934 78.9326 52.1934 81C52.1934 82.459 53.0308 83.7246 54.25 84.3442V94.75C54.25 95.4404 54.8096 96 55.5 96C56.1905 96 56.75 95.4404 56.75 94.75V84.75H71.25V94.75C71.25 95.4404 71.8096 96 72.5 96C73.1905 96 73.75 95.4404 73.75 94.75V84.3442C74.9693 83.7246 75.8067 82.4585 75.8067 81C75.8067 78.9321 74.1246 77.25 72.0567 77.25H70.8926C71.6661 73.6943 73.5352 70.4292 76.2271 67.9634C76.6524 67.5737 76.7559 66.9438 76.4776 66.4385L65.0948 45.772ZM64 66.2661C63.0352 66.2661 62.25 65.481 62.25 64.5161C62.25 63.5508 63.0352 62.7661 64 62.7661C64.9649 62.7661 65.75 63.5508 65.75 64.5161C65.75 65.481 64.9649 66.2661 64 66.2661ZM73.3067 81C73.3067 81.6895 72.7461 82.25 72.0567 82.25H55.9434C55.2539 82.25 54.6934 81.6895 54.6934 81C54.6934 80.3105 55.2539 79.75 55.9434 79.75H72.0567C72.7461 79.75 73.3067 80.3105 73.3067 81Z" fill="#DC3545"/>
<path d="M56.5785 61.0151C56.9076 61.0151 57.2299 60.8823 57.4623 60.6499C57.6947 60.416 57.8285 60.0952 57.8285 59.7651C57.8285 59.436 57.6947 59.1152 57.4623 58.8813C57.2299 58.6489 56.9076 58.5151 56.5785 58.5151C56.2484 58.5151 55.9261 58.6489 55.6937 58.8813C55.4613 59.1152 55.3285 59.436 55.3285 59.7651C55.3285 60.0952 55.4613 60.416 55.6937 60.6499C55.9261 60.8823 56.2484 61.0151 56.5785 61.0151Z" fill="#DC3545"/>
</g>
<defs>
<clipPath id="clip0_13_600">
<rect width="64" height="64" fill="white" transform="translate(32 32)"/>
</clipPath>
</defs>
</svg>
