<svg width="128" height="128" viewBox="0 0 128 128" fill="none" xmlns="http://www.w3.org/2000/svg">
<rect x="0.5" y="0.5" width="127" height="127" rx="7.5" stroke="#FFC700"/>
<path d="M39 73H41V92H39V73Z" fill="#FFC700"/>
<path d="M51 92H49V61C49 60.7594 49.0867 60.5268 49.2443 60.3449C49.4019 60.1631 49.6198 60.0442 49.858 60.01L62.019 58.273C62.3056 58.2329 62.5663 58.0855 62.7485 57.8606C62.9306 57.6357 63.0205 57.35 63 57.0613C62.9796 56.7726 62.8503 56.5025 62.6383 56.3055C62.4263 56.1084 62.1474 55.9993 61.858 56H41C39.6744 56.0016 38.4036 56.5289 37.4662 57.4662C36.5289 58.4036 36.0016 59.6744 36 61V72C36 72.7956 36.3161 73.5587 36.8787 74.1213C37.4413 74.6839 38.2044 75 39 75H40V77H39C37.6744 76.9984 36.4036 76.4711 35.4662 75.5338C34.5289 74.5964 34.0016 73.3256 34 72V61C34.0021 59.1441 34.7403 57.3649 36.0526 56.0526C37.3649 54.7403 39.1441 54.0021 41 54H61.858C62.6522 54.0008 63.4167 54.3024 63.9975 54.844C64.5784 55.3857 64.9326 56.1272 64.9888 56.9194C65.0451 57.7116 64.7993 58.4958 64.3008 59.1141C63.8023 59.7324 63.0881 60.1389 62.302 60.252L51 61.867V92Z" fill="#FFC700"/>
<path d="M45 56C43.6155 56 42.2622 55.5895 41.111 54.8203C39.9599 54.0511 39.0627 52.9579 38.5328 51.6788C38.003 50.3997 37.8644 48.9922 38.1345 47.6344C38.4046 46.2765 39.0713 45.0292 40.0503 44.0503C41.0292 43.0713 42.2765 42.4046 43.6344 42.1345C44.9922 41.8644 46.3997 42.003 47.6788 42.5328C48.9579 43.0627 50.0511 43.9599 50.8203 45.111C51.5895 46.2622 52 47.6155 52 49C51.9979 50.8559 51.2597 52.6351 49.9474 53.9474C48.6351 55.2597 46.8559 55.9979 45 56ZM45 44C44.0111 44 43.0444 44.2932 42.2222 44.8427C41.3999 45.3921 40.759 46.173 40.3806 47.0866C40.0022 48.0002 39.9032 49.0056 40.0961 49.9755C40.289 50.9454 40.7652 51.8363 41.4645 52.5355C42.1637 53.2348 43.0546 53.711 44.0246 53.9039C44.9945 54.0969 45.9998 53.9978 46.9134 53.6194C47.8271 53.241 48.6079 52.6001 49.1574 51.7779C49.7068 50.9556 50 49.9889 50 49C49.9984 47.6744 49.4711 46.4036 48.5338 45.4662C47.5964 44.5289 46.3256 44.0016 45 44Z" fill="#FFC700"/>
<path d="M44 79H46V92H44V79Z" fill="#FFC700"/>
<path d="M63 94C56.766 94 54.527 91.942 54.293 91.707C54.1054 91.5195 54.0001 91.2652 54 91V87C54.0016 85.6744 54.5289 84.4036 55.4662 83.4662C56.4036 82.5289 57.6744 82.0016 59 82H67C68.3256 82.0016 69.5964 82.5289 70.5338 83.4662C71.4711 84.4036 71.9984 85.6744 72 87V91C71.9999 91.2652 71.8946 91.5195 71.707 91.707C71.473 91.942 69.234 94 63 94ZM56 90.505C56.71 90.963 58.785 92 63 92C67.215 92 69.279 90.969 70 90.5V87C70 86.2044 69.6839 85.4413 69.1213 84.8787C68.5587 84.3161 67.7956 84 67 84H59C58.2044 84 57.4413 84.3161 56.8787 84.8787C56.3161 85.4413 56 86.2044 56 87V90.505Z" fill="#FFC700"/>
<path d="M63 84C61.8133 84 60.6533 83.6481 59.6666 82.9888C58.6799 82.3295 57.9109 81.3925 57.4567 80.2961C57.0026 79.1997 56.8838 77.9933 57.1153 76.8295C57.3468 75.6656 57.9182 74.5965 58.7574 73.7574C59.5965 72.9182 60.6656 72.3468 61.8295 72.1153C62.9933 71.8838 64.1997 72.0026 65.2961 72.4567C66.3925 72.9109 67.3295 73.6799 67.9888 74.6666C68.6481 75.6533 69 76.8133 69 78C68.9984 79.5908 68.3658 81.116 67.2409 82.2409C66.116 83.3658 64.5908 83.9984 63 84ZM63 74C62.2089 74 61.4355 74.2346 60.7777 74.6741C60.1199 75.1137 59.6072 75.7384 59.3045 76.4693C59.0017 77.2002 58.9225 78.0044 59.0769 78.7804C59.2312 79.5563 59.6122 80.269 60.1716 80.8284C60.731 81.3878 61.4437 81.7688 62.2196 81.9231C62.9956 82.0775 63.7998 81.9983 64.5307 81.6955C65.2616 81.3928 65.8864 80.8801 66.3259 80.2223C66.7654 79.5645 67 78.7911 67 78C67 76.9391 66.5786 75.9217 65.8284 75.1716C65.0783 74.4214 64.0609 74 63 74Z" fill="#FFC700"/>
<path d="M85 94C78.766 94 76.527 91.942 76.293 91.707C76.1054 91.5195 76.0001 91.2652 76 91V87C76.0016 85.6744 76.5289 84.4036 77.4662 83.4662C78.4036 82.5289 79.6744 82.0016 81 82H89C90.3256 82.0016 91.5964 82.5289 92.5338 83.4662C93.4711 84.4036 93.9984 85.6744 94 87V91C93.9999 91.2652 93.8946 91.5195 93.707 91.707C93.473 91.942 91.234 94 85 94ZM78 90.505C78.71 90.963 80.785 92 85 92C89.215 92 91.279 90.969 92 90.5V87C92 86.2044 91.6839 85.4413 91.1213 84.8787C90.5587 84.3161 89.7956 84 89 84H81C80.2044 84 79.4413 84.3161 78.8787 84.8787C78.3161 85.4413 78 86.2044 78 87V90.505Z" fill="#FFC700"/>
<path d="M85 84C83.8133 84 82.6533 83.6481 81.6666 82.9888C80.6799 82.3295 79.9109 81.3925 79.4567 80.2961C79.0026 79.1997 78.8838 77.9933 79.1153 76.8295C79.3468 75.6656 79.9182 74.5965 80.7574 73.7574C81.5965 72.9182 82.6656 72.3468 83.8295 72.1153C84.9933 71.8838 86.1997 72.0026 87.2961 72.4567C88.3925 72.9109 89.3295 73.6799 89.9888 74.6666C90.6481 75.6533 91 76.8133 91 78C90.9984 79.5908 90.3658 81.116 89.2409 82.2409C88.116 83.3658 86.5908 83.9984 85 84ZM85 74C84.2089 74 83.4355 74.2346 82.7777 74.6741C82.1199 75.1137 81.6072 75.7384 81.3045 76.4693C81.0017 77.2002 80.9225 78.0044 81.0769 78.7804C81.2312 79.5563 81.6122 80.269 82.1716 80.8284C82.731 81.3878 83.4437 81.7688 84.2196 81.9231C84.9956 82.0775 85.7998 81.9983 86.5307 81.6955C87.2616 81.3928 87.8864 80.8801 88.3259 80.2223C88.7654 79.5645 89 78.7911 89 78C89 76.9391 88.5786 75.9217 87.8284 75.1716C87.0783 74.4214 86.0609 74 85 74Z" fill="#FFC700"/>
<path d="M93 70H55C54.7348 70 54.4804 69.8946 54.2929 69.7071C54.1054 69.5196 54 69.2652 54 69V63H56V68H92V36H56V52H54V35C54 34.7348 54.1054 34.4804 54.2929 34.2929C54.4804 34.1054 54.7348 34 55 34H93C93.2652 34 93.5196 34.1054 93.7071 34.2929C93.8946 34.4804 94 34.7348 94 35V69C94 69.2652 93.8946 69.5196 93.7071 69.7071C93.5196 69.8946 93.2652 70 93 70Z" fill="#FFC700"/>
<path d="M74 66.9997C72.9392 66.9997 71.9217 66.5783 71.1716 65.8282C70.4215 65.078 70 64.0606 70 62.9997V60.7887C69.995 60.5996 69.9379 60.4156 69.835 60.2568C69.7322 60.098 69.5875 59.9707 69.417 59.8887C67.4018 58.8479 65.8004 57.1529 64.8754 55.082C63.9505 53.011 63.757 50.6872 64.3268 48.4918C64.8966 46.2964 66.1957 44.36 68.011 43.0002C69.8264 41.6405 72.05 40.9382 74.317 41.0087C76.8503 41.1183 79.2503 42.1739 81.0431 43.967C82.8359 45.7602 83.891 48.1605 84 50.6937C84.0678 52.5831 83.5939 54.4525 82.6341 56.0814C81.6743 57.7102 80.2687 59.0306 78.583 59.8867C78.4131 59.9689 78.2692 60.0965 78.1672 60.2553C78.0652 60.4141 78.0091 60.598 78.005 60.7867V62.9997C78.005 63.5255 77.9014 64.046 77.7001 64.5316C77.4987 65.0173 77.2036 65.4584 76.8317 65.8299C76.4597 66.2014 76.0182 66.496 75.5323 66.6967C75.0464 66.8974 74.5257 67.0004 74 66.9997ZM74 42.9997C72.2081 43.002 70.4687 43.6057 69.0608 44.7143C67.6529 45.8229 66.6579 47.3721 66.2354 49.1135C65.8129 50.855 65.9873 52.6878 66.7307 54.3183C67.474 55.9489 68.7433 57.2826 70.335 58.1057C70.8329 58.3561 71.2518 58.7391 71.5457 59.2126C71.8395 59.686 71.9967 60.2315 72 60.7887V62.9997C72 63.5302 72.2107 64.0389 72.5858 64.414C72.9609 64.789 73.4696 64.9997 74 64.9997C74.5305 64.9997 75.0392 64.789 75.4142 64.414C75.7893 64.0389 76 63.5302 76 62.9997V60.7877C76.003 60.231 76.16 59.6859 76.4537 59.2128C76.7474 58.7398 77.1663 58.3573 77.664 58.1077C79.013 57.4231 80.1381 56.3668 80.9064 55.0636C81.6747 53.7604 82.0541 52.2646 82 50.7527C81.9149 48.7245 81.0713 46.8022 79.6362 45.3664C78.2011 43.9305 76.2792 43.0859 74.251 42.9997C74.167 42.9997 74.083 42.9997 74 42.9997Z" fill="#FFC700"/>
<path d="M77 63H71C70.7348 63 70.4804 62.8946 70.2929 62.7071C70.1054 62.5196 70 62.2652 70 62C70 61.7348 70.1054 61.4804 70.2929 61.2929C70.4804 61.1054 70.7348 61 71 61H77C77.2652 61 77.5196 61.1054 77.7071 61.2929C77.8946 61.4804 78 61.7348 78 62C78 62.2652 77.8946 62.5196 77.7071 62.7071C77.5196 62.8946 77.2652 63 77 63Z" fill="#FFC700"/>
<path d="M80 51H78C78 49.9391 77.5786 48.9217 76.8284 48.1716C76.0783 47.4214 75.0609 47 74 47V45C75.5908 45.0016 77.116 45.6342 78.2409 46.7591C79.3658 47.884 79.9984 49.4092 80 51Z" fill="#FFC700"/>
<path d="M73 37H75V40H73V37Z" fill="#FFC700"/>
<path d="M66.133 39.3755L67.865 38.3755L69.365 40.9735L67.633 41.9735L66.133 39.3755Z" fill="#FFC700"/>
<path d="M61.3755 44.8672L62.3755 43.1352L64.9735 44.6352L63.9735 46.3672L61.3755 44.8672Z" fill="#FFC700"/>
<path d="M60 50H63V52H60V50Z" fill="#FFC700"/>
<path d="M85 50H88V52H85V50Z" fill="#FFC700"/>
<path d="M83.0234 44.6289L85.6214 43.1289L86.6214 44.8609L84.0234 46.3609L83.0234 44.6289Z" fill="#FFC700"/>
<path d="M78.6367 40.9775L80.1367 38.3795L81.8687 39.3795L80.3687 41.9775L78.6367 40.9775Z" fill="#FFC700"/>
</svg>
