<svg width="98" height="99" viewBox="0 0 98 99" fill="none" xmlns="http://www.w3.org/2000/svg">
<rect y="0.649414" width="98" height="98" rx="5" fill="#C33DAB"/>
<path fill-rule="evenodd" clip-rule="evenodd" d="M54.6667 75.6667H60C61.472 75.6667 62.6667 76.8613 62.6667 78.3333C62.6667 79.8053 61.472 81 60 81H44C42.528 81 41.3333 79.8053 41.3333 78.3333C41.3333 76.8613 42.528 75.6667 44 75.6667H49.3333V38.3333H33.3333V43.6667C33.3333 45.1387 32.1387 46.3333 30.6667 46.3333C29.1947 46.3333 28 45.1387 28 43.6667V35.6667C28 34.1947 29.1947 33 30.6667 33H73.3333C74.8053 33 76 34.1947 76 35.6667V43.6667C76 45.1387 74.8053 46.3333 73.3333 46.3333C71.8613 46.3333 70.6667 45.1387 70.6667 43.6667V38.3333H54.6667V75.6667Z" fill="white"/>
</svg>
