<svg width="98" height="99" viewBox="0 0 98 99" fill="none" xmlns="http://www.w3.org/2000/svg">
<rect y="0.649414" width="98" height="98" rx="5" fill="#0085FF"/>
<g clip-path="url(#clip0_13_292)">
<path d="M56.9317 49.8441C56.7161 51.6056 55.9239 53.2847 54.6189 54.5897C53.0327 56.1769 50.8155 56.9241 48.0311 56.8116C46.0783 56.7338 45.1764 57.2447 45.0282 57.3375C44.4301 57.8616 43.6707 58.1485 42.8692 58.1485C41.9926 58.1485 41.1685 57.8072 40.5488 57.1875C39.4791 56.1178 39.3066 54.4678 40.037 53.2106L40.561 52.38C40.7392 51.9459 40.9801 51.0891 40.9238 49.7044C40.8123 46.919 41.5595 44.7028 43.1457 43.1165C44.4451 41.8181 46.1064 41.0137 47.9026 40.799C48.1567 39.5774 48.707 38.4346 49.5011 37.4746H30.6591C28.5891 37.4746 26.9044 39.1584 26.9044 41.2284V59.8463H66.0734V41.3596L61.3137 47.1928C60.1943 48.5606 58.6399 49.4916 56.9317 49.8441Z" fill="white"/>
<path d="M26.9044 63.8589C26.9044 65.928 28.5891 67.6118 30.6591 67.6118H41.3297V70.8312H38.9646C38.1879 70.8312 37.5583 71.4608 37.5583 72.2374C37.5583 73.0141 38.1879 73.6437 38.9646 73.6437H54.0127C54.7894 73.6437 55.419 73.0141 55.419 72.2374C55.419 71.4608 54.7894 70.8312 54.0127 70.8312H51.6476V67.6118H62.3186C64.3886 67.6118 66.0733 65.928 66.0733 63.8589V62.6589H26.9043V63.8589H26.9044Z" fill="white"/>
<path d="M42.5712 54.5031C42.5709 54.5033 42.5706 54.5036 42.5704 54.5039C42.5702 54.504 42.5701 54.5041 42.57 54.5042L42.5697 54.5046C42.5695 54.5047 42.5694 54.5049 42.5692 54.5051C42.5691 54.5054 42.569 54.5054 42.5687 54.5055L42.5686 54.5056C42.5685 54.5058 42.5684 54.5059 42.5682 54.5061C42.5682 54.5061 42.5682 54.5061 42.5681 54.5062C42.568 54.5063 42.5678 54.5065 42.5677 54.5067C42.5677 54.5067 42.5677 54.5067 42.5676 54.5068C42.5674 54.5069 42.5673 54.507 42.5671 54.5072C42.5671 54.5072 42.5671 54.5072 42.567 54.5073L42.5666 54.5078C42.3888 54.6913 42.3906 54.9841 42.5718 55.1654C42.6634 55.2569 42.7833 55.3026 42.9033 55.3026C43.0222 55.3026 43.1411 55.2577 43.2323 55.1678C43.261 55.1406 44.681 53.8278 48.1792 53.9685C50.1473 54.0478 51.6563 53.5763 52.6648 52.5679C54.7313 50.5014 54.7313 47.139 52.6648 45.0724C51.6637 44.0714 50.3327 43.52 48.917 43.52C47.5013 43.52 46.1703 44.0713 45.1693 45.0724C44.1609 46.0808 43.6896 47.59 43.7687 49.558C43.9101 53.0752 42.5825 54.4914 42.5718 54.5025C42.5714 54.5027 42.5714 54.5029 42.5712 54.5031Z" fill="white"/>
<path d="M56.8098 46.9527C57.7267 46.678 58.5527 46.1343 59.1686 45.3814L60.9654 43.1794L54.5645 36.7786L52.3717 38.5696C51.617 39.1846 51.0714 40.0096 50.7958 40.9264C52.2452 41.2668 53.5745 42.0046 54.6536 43.0836C55.758 44.188 56.477 45.5333 56.8098 46.9527Z" fill="white"/>
<path d="M71.2502 26.488C70.203 25.4408 68.5474 25.3574 67.3999 26.2949L56.7538 34.9905L62.7526 40.9892L71.4443 30.3375C72.3808 29.1908 72.2974 27.5352 71.2502 26.488Z" fill="white"/>
</g>
<defs>
<clipPath id="clip0_13_292">
<rect width="48" height="48" fill="white" transform="translate(25.5 25.6436)"/>
</clipPath>
</defs>
</svg>
