<svg width="72" height="72" viewBox="0 0 72 72" fill="none" xmlns="http://www.w3.org/2000/svg">
<g clip-path="url(#clip0_167_771)">
<path d="M69.8906 0H2.10938C0.945 0 0 0.945 0 2.10938V14.5294H72V2.10938C72 0.945 71.0564 0 69.8906 0ZM24.3773 9.37406H10.5469C9.3825 9.37406 8.4375 8.42906 8.4375 7.26469C8.4375 6.10031 9.3825 5.15531 10.5469 5.15531H24.3773C25.5417 5.15531 26.4867 6.10031 26.4867 7.26469C26.4867 8.42906 25.5417 9.37406 24.3773 9.37406ZM44.5781 9.37406C43.4137 9.37406 42.4688 8.42906 42.4688 7.26469C42.4688 6.10031 43.4137 5.15531 44.5781 5.15531C45.7439 5.15531 46.6875 6.10031 46.6875 7.26469C46.6875 8.42906 45.7439 9.37406 44.5781 9.37406ZM53.0156 9.37406C51.8512 9.37406 50.9062 8.42906 50.9062 7.26469C50.9062 6.10031 51.8512 5.15531 53.0156 5.15531C54.1814 5.15531 55.125 6.10031 55.125 7.26469C55.125 8.42906 54.1814 9.37406 53.0156 9.37406ZM61.4531 9.37406C60.2887 9.37406 59.3438 8.42906 59.3438 7.26469C59.3438 6.10031 60.2887 5.15531 61.4531 5.15531C62.6189 5.15531 63.5625 6.10031 63.5625 7.26469C63.5625 8.42906 62.6189 9.37406 61.4531 9.37406Z" fill="#076856"/>
<path d="M36 46.312C33.8667 46.312 32.13 48.0473 32.13 50.1806C32.13 52.3153 33.8667 54.0506 36 54.0506C38.1333 54.0506 39.87 52.3153 39.87 50.1806C39.87 48.0473 38.1333 46.312 36 46.312Z" fill="#076856"/>
<path d="M0 60.0473C0 61.2117 0.945 62.1567 2.10938 62.1567H13.2005C13.1259 61.2665 13.2455 60.3595 13.5619 59.5059C11.4202 58.5285 9.96187 56.3713 9.96187 53.8978V46.4643C9.96187 44.0203 11.3892 41.8828 13.4958 40.8899C12.7027 38.7032 13.1991 36.1818 14.9245 34.4465L20.1684 29.1801C21.3328 28.0087 22.8853 27.3632 24.5377 27.3632C25.2703 27.3632 25.9945 27.4954 26.6752 27.7471C27.6511 25.6026 29.8083 24.1443 32.2833 24.1443H39.7167C42.165 24.1443 44.3039 25.5717 45.2939 27.6796C45.9619 27.4378 46.6706 27.3112 47.3878 27.3112C49.0289 27.3112 50.573 27.9496 51.7345 29.1056L57.008 34.3551C58.7559 36.1003 59.2552 38.6526 58.4381 40.859C60.5798 41.8363 62.0381 43.9935 62.0381 46.4643V53.8978C62.0381 56.346 60.6108 58.4835 58.5056 59.4749C58.8192 60.3398 58.9303 61.2567 58.8445 62.1567H69.8906C71.0564 62.1567 72 61.2117 72 60.0473V18.7485H0V60.0473Z" fill="#076856"/>
<path d="M56.0888 44.5322L50.9633 43.9645L54.1773 39.9301C54.7942 39.1551 54.7294 38.0405 54.0282 37.3408L48.7589 32.096C48.0577 31.3976 46.9419 31.3379 46.1695 31.9586L42.2091 35.1428L41.6493 30.0924C41.5405 29.1075 40.7084 28.3623 39.717 28.3623H32.2833C31.2918 28.3623 30.4598 29.1075 30.3509 30.0924L29.782 35.2179L25.749 32.0052C24.974 31.387 23.8581 31.4518 23.1596 32.1543L17.9149 37.4224C17.2164 38.1248 17.1568 39.2394 17.7775 40.0117L20.9617 43.9721L15.9113 44.5319C14.9263 44.642 14.1812 45.4741 14.1812 46.4641V53.8978C14.1812 54.8892 14.9263 55.7213 15.9113 55.8302L21.0368 56.3991L17.8228 60.4324C17.2059 61.2074 17.2707 62.3232 17.9718 63.0217L23.2412 68.2665C23.9424 68.9651 25.0582 69.0246 25.8305 68.4039L29.791 65.2197L30.3508 70.2701C30.4596 71.255 31.2917 72.0002 32.2831 72.0002H39.7168C40.7082 72.0002 41.5403 71.255 41.6492 70.2701L42.2181 65.1446L46.2513 68.3586C47.0262 68.9755 48.1421 68.9119 48.8406 68.2095L54.0853 62.9414C54.7838 62.239 54.8434 61.1231 54.2227 60.3507L51.0385 56.3903L56.089 55.8305C57.0739 55.7216 57.8191 54.8895 57.8191 53.8981V46.4644C57.8189 45.4744 57.0738 44.6423 56.0888 44.5322ZM36 58.2694C31.5406 58.2694 27.9118 54.6408 27.9118 50.1813C27.9118 45.7218 31.5405 42.0931 36 42.0931C40.4593 42.0931 44.0882 45.7218 44.0882 50.1813C44.0882 54.6408 40.4593 58.2694 36 58.2694Z" fill="#076856"/>
</g>
<defs>
<clipPath id="clip0_167_771">
<rect width="72" height="72" fill="white"/>
</clipPath>
</defs>
</svg>
