<svg width="72" height="72" viewBox="0 0 72 72" fill="none" xmlns="http://www.w3.org/2000/svg">
<g clip-path="url(#clip0_167_755)">
<path d="M69.8906 0H61.3125C60.1466 0 59.2031 0.943453 59.2031 2.10938V4.21875H41.9396C41.0659 1.76878 38.7464 0 36 0C33.2536 0 30.9341 1.76878 30.0604 4.21875H12.7969V2.10938C12.7969 0.943453 11.8534 0 10.6875 0H2.10938C0.943453 0 0 0.943453 0 2.10938V10.5469C0 11.7128 0.943453 12.6562 2.10938 12.6562H10.6875C11.8534 12.6562 12.7969 11.7128 12.7969 10.5469V8.40938H21.4599C14.1394 12.9826 9.31247 21.015 8.73548 30.0115C6.20452 30.8399 4.35938 33.1959 4.35938 36C4.35938 39.4895 7.19803 42.3281 10.6875 42.3281C14.177 42.3281 17.0156 39.4895 17.0156 36C17.0156 33.3084 15.3195 31.02 12.9459 30.1068C13.6657 20.0768 20.6643 11.6229 30.3993 9.21094C31.4522 11.2468 33.5541 12.6562 36 12.6562C38.4459 12.6562 40.5478 11.2468 41.6007 9.21094C51.3357 11.6228 58.3343 20.0766 59.0541 30.1067C56.6805 31.02 54.9844 33.3084 54.9844 36C54.9844 39.4895 57.823 42.3281 61.3125 42.3281C64.802 42.3281 67.6406 39.4895 67.6406 36C67.6406 33.1959 65.7955 30.8399 63.2645 30.0115C62.6875 21.015 57.8606 13.0108 50.5401 8.4375H59.2031V10.5469C59.2031 11.7128 60.1466 12.6562 61.3125 12.6562H69.8906C71.0565 12.6562 72 11.7128 72 10.5469V2.10938C72 0.943453 71.0565 0 69.8906 0Z" fill="#DC3545"/>
<path d="M50.3507 69.3842C49.2474 66.0079 46.0687 63.4224 42.3281 63.4224H29.6718C25.9312 63.4224 22.7525 66.0079 21.6492 69.3842C21.2238 70.6859 22.3312 72.0005 23.7009 72.0005H48.299C49.6685 72.0005 50.7761 70.6859 50.3507 69.3842Z" fill="#DC3545"/>
<path d="M54.63 43.2679L38.1094 18.4868V38.4983C40.5594 39.372 42.3281 41.6915 42.3281 44.4379C42.3281 47.9274 39.4895 50.766 36 50.766C32.5106 50.766 29.6719 47.9274 29.6719 44.4379C29.6719 41.6915 31.4407 39.372 33.8906 38.4983V18.4868L17.37 43.2679C16.8117 44.1042 16.923 45.2186 17.6337 45.9294C21.5061 49.8018 23.9814 54.7904 24.9366 60.1416C26.4019 59.5472 27.9956 59.2035 29.6719 59.2035H42.3281C44.0044 59.2035 45.5981 59.5471 47.0634 60.1414C48.0187 54.7899 50.494 49.8018 54.3664 45.9294C55.0771 45.2186 55.1883 44.1042 54.63 43.2679Z" fill="#DC3545"/>
<path d="M36 42.3281C34.8362 42.3281 33.8906 43.2737 33.8906 44.4375C33.8906 45.6013 34.8362 46.5469 36 46.5469C37.1638 46.5469 38.1094 45.6013 38.1094 44.4375C38.1094 43.2737 37.1638 42.3281 36 42.3281Z" fill="#DC3545"/>
</g>
<defs>
<clipPath id="clip0_167_755">
<rect width="72" height="72" fill="white"/>
</clipPath>
</defs>
</svg>
