<svg width="72" height="72" viewBox="0 0 72 72" fill="none" xmlns="http://www.w3.org/2000/svg">
<g clip-path="url(#clip0_167_768)">
<path d="M72 17.0156V6.46875C72 2.97942 69.1612 0.140625 65.6719 0.140625H6.32812C2.8388 0.140625 0 2.97942 0 6.46875V17.0156H72ZM48.6562 8.57813H61.3125C62.4774 8.57813 63.4219 9.52256 63.4219 10.6875C63.4219 11.8524 62.4774 12.7969 61.3125 12.7969H48.6562C47.4913 12.7969 46.5469 11.8524 46.5469 10.6875C46.5469 9.52256 47.4913 8.57813 48.6562 8.57813ZM27.5625 8.57813C28.7274 8.57813 29.6719 9.52256 29.6719 10.6875C29.6719 11.8524 28.7274 12.7969 27.5625 12.7969C26.3976 12.7969 25.4531 11.8524 25.4531 10.6875C25.4531 9.52256 26.3976 8.57813 27.5625 8.57813ZM19.125 8.57813C20.2899 8.57813 21.2344 9.52256 21.2344 10.6875C21.2344 11.8524 20.2899 12.7969 19.125 12.7969C17.9601 12.7969 17.0156 11.8524 17.0156 10.6875C17.0156 9.52256 17.9601 8.57813 19.125 8.57813ZM10.6875 8.57813C11.8524 8.57813 12.7969 9.52256 12.7969 10.6875C12.7969 11.8524 11.8524 12.7969 10.6875 12.7969C9.52256 12.7969 8.57812 11.8524 8.57812 10.6875C8.57812 9.52256 9.52256 8.57813 10.6875 8.57813Z" fill="#0084FF"/>
<path d="M0 21.2344V65.5312C0 69.0206 2.8388 71.8594 6.32812 71.8594H65.6719C69.1612 71.8594 72 69.0206 72 65.5312V21.2344H0ZM24.6614 51.2279C25.5712 51.9556 25.7186 53.283 24.9909 54.1927C24.2633 55.1022 22.9357 55.2499 22.0261 54.522L11.4792 46.0845C10.4247 45.2412 10.424 43.6343 11.4792 42.7902L22.0261 34.3527C22.9354 33.625 24.263 33.7724 24.9909 34.6821C25.7186 35.5918 25.5712 36.9193 24.6614 37.6469L16.1736 44.4375L24.6614 51.2279ZM44.2669 30.5028L31.6107 60.0341C31.1518 61.1047 29.9121 61.6011 28.8409 61.1419C27.7702 60.6831 27.2741 59.4429 27.7331 58.3722L40.3893 28.8409C40.8483 27.7702 42.0884 27.2742 43.1591 27.7331C44.2298 28.1919 44.7259 29.432 44.2669 30.5028ZM60.5208 46.0846L49.9739 54.5221C49.0658 55.2489 47.738 55.1038 47.0091 54.1928C46.2814 53.2831 46.4287 51.9556 47.3386 51.228L55.8264 44.4375L47.3386 37.6471C46.4287 36.9194 46.2814 35.592 47.0091 34.6823C47.7367 33.7726 49.0642 33.6251 49.9739 34.353L60.5208 42.7905C61.5753 43.6338 61.576 45.2406 60.5208 46.0846Z" fill="#0084FF"/>
</g>
<defs>
<clipPath id="clip0_167_768">
<rect width="72" height="72" fill="white"/>
</clipPath>
</defs>
</svg>
