<svg width="72" height="72" viewBox="0 0 72 72" fill="none" xmlns="http://www.w3.org/2000/svg">
<g clip-path="url(#clip0_167_751)">
<path d="M17.4908 28.1704C18.8663 28.1704 19.9858 27.0454 19.9858 25.6617C19.9858 24.2785 18.8663 23.1519 17.4908 23.1519C16.1142 23.1519 14.9947 24.2785 14.9947 25.6617C14.9947 27.0454 16.1142 28.1704 17.4908 28.1704Z" fill="#C33DAB"/>
<path d="M3.59308 53.3494C3.59308 56.5102 6.1507 59.0821 9.2939 59.0821H31.861L25.5422 68.8611C24.9071 69.8438 25.184 71.1583 26.1607 71.7972C26.5161 72.0295 26.9144 72.1399 27.3082 72.1399C27.9987 72.1399 28.6749 71.7999 29.0792 71.1742L33.6385 64.1177V69.9498C33.6385 71.1221 34.5828 72.0718 35.7479 72.0718C36.913 72.0718 37.8573 71.1221 37.8573 69.9498V64.1177L42.4166 71.1742C43.0517 72.157 44.3585 72.436 45.3352 71.7972C46.3119 71.1583 46.5887 69.8438 45.9537 68.8611L39.6349 59.0821H62.2014C65.3457 59.0821 67.9022 56.5097 67.9022 53.3494V12.1133H3.59308V53.3494ZM61.4488 43.6913C62.2728 44.5203 62.2728 45.8644 61.4488 46.6917L59.5702 48.5819L61.4488 50.4721C62.2728 51.301 62.2728 52.6436 61.4488 53.4725C61.0385 53.8872 60.4985 54.0949 59.9585 54.0949C59.4186 54.0949 58.8786 53.8872 58.4666 53.4741L56.5863 51.5823L54.706 53.4741C54.2956 53.8872 53.7557 54.0949 53.2157 54.0949C52.6751 54.0949 52.1352 53.8872 51.7232 53.4725C50.8992 52.6436 50.9009 51.301 51.7232 50.4721L53.6035 48.5819L51.7232 46.6917C50.9009 45.8644 50.8992 44.5203 51.7232 43.6913C52.5477 42.8624 53.8836 42.8624 54.706 43.6913L56.5863 45.5815L58.4666 43.6913C59.2906 42.8619 60.6265 42.8619 61.4488 43.6913ZM29.1276 33.0126C30.4481 31.9024 32.4141 32.0096 33.605 33.2604L40.7868 40.7964L49.7813 29.6431C48.6959 29.6469 47.7719 28.8109 47.6764 27.7046C47.5764 26.5373 48.4355 25.5073 49.5957 25.4073L53.8864 25.0321C54.5879 24.9701 55.2954 25.2008 55.8266 25.6644C56.3583 26.1286 56.6863 26.7993 56.7269 27.5068L56.9488 31.4822C57.0153 32.6523 56.1249 33.6553 54.962 33.7201C54.9213 33.7229 54.8818 33.7245 54.8411 33.7245C53.9974 33.7245 53.2591 33.2208 52.9245 32.4836L43.4532 44.2275C42.8781 44.9844 42.009 45.4525 41.0598 45.5151C40.0892 45.5788 39.1488 45.2108 38.4764 44.5049L31.2062 36.8749L18.1071 49.4196C17.699 49.8102 17.1744 50.0041 16.6531 50.0041C16.0961 50.0041 15.5391 49.7833 15.1244 49.346C14.3212 48.4957 14.3548 47.1531 15.1985 46.3456L29.0759 33.0571L29.1276 33.0126ZM17.4908 18.9078C21.1938 18.9078 24.2046 21.9384 24.2046 25.6616C24.2046 29.3855 21.1938 32.4144 17.4908 32.4144C13.7884 32.4144 10.776 29.3855 10.776 25.6616C10.776 21.9384 13.7884 18.9078 17.4908 18.9078Z" fill="#C33DAB"/>
<path d="M68.0264 0.140625H3.69251C1.57544 0.140625 -0.140625 1.86713 -0.140625 3.99683V4.01276C-0.140625 6.14247 1.57544 7.86897 3.69251 7.86897H68.0264C70.1435 7.86897 71.8595 6.14247 71.8595 4.01276V3.99683C71.8595 1.86713 70.1435 0.140625 68.0264 0.140625Z" fill="#C33DAB"/>
</g>
<defs>
<clipPath id="clip0_167_751">
<rect width="72" height="72" fill="white"/>
</clipPath>
</defs>
</svg>
