<svg width="98" height="99" viewBox="0 0 98 99" fill="none" xmlns="http://www.w3.org/2000/svg">
<rect y="0.649414" width="98" height="98" rx="5" fill="#DC3545"/>
<g clip-path="url(#clip0_87_3370)">
<path d="M26.6792 42.2453C26.8446 42.4108 27.0619 42.494 27.2792 42.494C27.4965 42.494 27.7137 42.4113 27.8797 42.2453C28.2111 41.9139 28.2111 41.3762 27.8797 41.0448L25.8185 38.9836L27.8797 36.9229C28.2111 36.591 28.2111 36.0538 27.8797 35.7223C27.5482 35.3909 27.0106 35.3909 26.6792 35.7223L24.0179 38.3836C23.8586 38.5429 23.7692 38.7588 23.7692 38.9836C23.7692 39.2088 23.8586 39.4248 24.0179 39.5841L26.6792 42.2453Z" fill="white"/>
<path d="M35.1027 38.9837L33.0415 41.0449C32.7101 41.3763 32.7101 41.914 33.0419 42.2454C33.2074 42.4109 33.4247 42.4941 33.642 42.4941C33.8592 42.4941 34.0765 42.4109 34.242 42.2454L36.9037 39.5837C37.2351 39.2523 37.2351 38.7146 36.9037 38.3836L34.242 35.722C33.9106 35.3905 33.3734 35.3905 33.0419 35.722C32.7101 36.0538 32.7101 36.591 33.0419 36.9225L35.1027 38.9837Z" fill="white"/>
<path d="M29.1952 42.4352C29.297 42.475 29.4023 42.494 29.5054 42.494C29.8444 42.494 30.1643 42.2896 30.2957 41.9555L32.3866 36.6326C32.5583 36.1963 32.3432 35.7038 31.9069 35.5321C31.471 35.3608 30.9781 35.5754 30.8068 36.0118L28.7156 41.3347C28.5443 41.771 28.7589 42.2639 29.1952 42.4352Z" fill="white"/>
<path d="M25.0985 47.4741H30.8171C31.2857 47.4741 31.6658 47.094 31.6658 46.625C31.6658 46.1564 31.2857 45.7762 30.8171 45.7762H25.0985C24.6295 45.7762 24.2498 46.1564 24.2498 46.625C24.2498 47.094 24.6295 47.4741 25.0985 47.4741Z" fill="white"/>
<path d="M43.9878 45.7762H33.9341C33.4654 45.7762 33.0853 46.1564 33.0853 46.625C33.0853 47.094 33.4654 47.4741 33.9341 47.4741H43.9878C44.4569 47.4741 44.837 47.094 44.837 46.625C44.837 46.1564 44.4569 45.7762 43.9878 45.7762Z" fill="white"/>
<path d="M25.0985 51.0543H27.5345C28.0032 51.0543 28.3833 50.6742 28.3833 50.2052C28.3833 49.7366 28.0032 49.3564 27.5345 49.3564H25.0985C24.6295 49.3564 24.2498 49.7366 24.2498 50.2052C24.2498 50.6742 24.6295 51.0543 25.0985 51.0543Z" fill="white"/>
<path d="M40.8823 49.3564C40.4132 49.3564 40.0336 49.7366 40.0336 50.2052C40.0336 50.6742 40.4132 51.0543 40.8823 51.0543H42.3656C42.8346 51.0543 43.2147 50.6742 43.2147 50.2052C43.2147 49.7366 42.8346 49.3564 42.3656 49.3564H40.8823Z" fill="white"/>
<path d="M38.6481 50.2052C38.6481 49.7366 38.268 49.3564 37.7993 49.3564H30.513C30.044 49.3564 29.6643 49.7366 29.6643 50.2052C29.6643 50.6742 30.044 51.0543 30.513 51.0543H37.7993C38.268 51.0543 38.6481 50.6742 38.6481 50.2052Z" fill="white"/>
<path d="M44.2086 50.2052C44.2086 50.6742 44.5887 51.0543 45.0573 51.0543H47.8358C48.3049 51.0543 48.685 50.6742 48.685 50.2052C48.685 49.7366 48.3049 49.3564 47.8358 49.3564H45.0573C44.5887 49.3564 44.2086 49.7366 44.2086 50.2052Z" fill="white"/>
<path d="M39.5857 39.6647H42.5165C42.9855 39.6647 43.3656 39.2846 43.3656 38.8155C43.3656 38.3469 42.9855 37.9668 42.5165 37.9668H39.5857C39.1167 37.9668 38.7366 38.3469 38.7366 38.8155C38.7366 39.2846 39.1167 39.6647 39.5857 39.6647Z" fill="white"/>
<path d="M45.799 39.6647H63.6811C64.1502 39.6647 64.5299 39.2846 64.5299 38.8155C64.5299 38.3469 64.1502 37.9668 63.6811 37.9668H45.799C45.3299 37.9668 44.9498 38.3469 44.9498 38.8155C44.9498 39.2846 45.3299 39.6647 45.799 39.6647Z" fill="white"/>
<path d="M60.965 41.7015H53.7212C53.2525 41.7015 52.8724 42.0817 52.8724 42.5507C52.8724 43.0193 53.2525 43.3994 53.7212 43.3994H60.965C61.4336 43.3994 61.8137 43.0193 61.8137 42.5507C61.8137 42.0817 61.4336 41.7015 60.965 41.7015Z" fill="white"/>
<path d="M51.0051 41.7015H48.5151C48.0461 41.7015 47.6664 42.0817 47.6664 42.5507C47.6664 43.0193 48.0461 43.3994 48.5151 43.3994H51.0051C51.4742 43.3994 51.8538 43.0193 51.8538 42.5507C51.8538 42.0817 51.4742 41.7015 51.0051 41.7015Z" fill="white"/>
<path d="M39.5857 43.3994H45.6857C46.1543 43.3994 46.5344 43.0193 46.5344 42.5507C46.5344 42.0817 46.1543 41.7015 45.6857 41.7015H39.5857C39.1167 41.7015 38.7366 42.0817 38.7366 42.5507C38.7366 43.0193 39.1167 43.3994 39.5857 43.3994Z" fill="white"/>
<path d="M37.81 52.9067H32.0919C31.6228 52.9067 31.2427 53.2869 31.2427 53.7555C31.2427 54.2241 31.6228 54.6042 32.0919 54.6042H37.81C38.2786 54.6042 38.6587 54.2241 38.6587 53.7555C38.6587 53.2869 38.2786 52.9067 37.81 52.9067Z" fill="white"/>
<path d="M29.4918 52.9067H25.0985C24.6295 52.9067 24.2498 53.2869 24.2498 53.7555C24.2498 54.2241 24.6295 54.6042 25.0985 54.6042H29.4918C29.9608 54.6042 30.3405 54.2241 30.3405 53.7555C30.3405 53.2869 29.9608 52.9067 29.4918 52.9067Z" fill="white"/>
<path d="M48.1757 52.9067H40.7057C40.2367 52.9067 39.857 53.2869 39.857 53.7555C39.857 54.2241 40.2367 54.6042 40.7057 54.6042H48.1757C48.6443 54.6042 49.0244 54.2241 49.0244 53.7555C49.0244 53.2869 48.6443 52.9067 48.1757 52.9067Z" fill="white"/>
<path d="M58.2777 48.5461H54.1929C53.7243 48.5461 53.3442 48.9263 53.3442 49.3949C53.3442 49.8639 53.7243 50.244 54.1929 50.244H58.2777C58.7467 50.244 59.1264 49.8639 59.1264 49.3949C59.1264 48.9263 58.7467 48.5461 58.2777 48.5461Z" fill="white"/>
<path d="M65.3658 50.244H71.1321C71.6011 50.244 71.9812 49.8639 71.9812 49.3949C71.9812 48.9263 71.6011 48.5461 71.1321 48.5461H65.3658C64.8967 48.5461 64.517 48.9263 64.517 49.3949C64.517 49.8639 64.8971 50.244 65.3658 50.244Z" fill="white"/>
<path d="M62.4824 48.5461H61.1611C60.692 48.5461 60.3119 48.9263 60.3119 49.3949C60.3119 49.8639 60.692 50.244 61.1611 50.244H62.4824C62.9514 50.244 63.3311 49.8639 63.3311 49.3949C63.3311 48.9263 62.9514 48.5461 62.4824 48.5461Z" fill="white"/>
<path d="M54.1929 59.4943H58.2777C58.7467 59.4943 59.1264 59.1147 59.1264 58.6456C59.1264 58.177 58.7467 57.7969 58.2777 57.7969H54.1929C53.7243 57.7969 53.3442 58.177 53.3442 58.6456C53.3442 59.1147 53.7243 59.4943 54.1929 59.4943Z" fill="white"/>
<path d="M65.3658 59.4943H71.1321C71.6011 59.4943 71.9812 59.1147 71.9812 58.6456C71.9812 58.177 71.6011 57.7969 71.1321 57.7969H65.3658C64.8967 57.7969 64.517 58.177 64.517 58.6456C64.517 59.1147 64.8971 59.4943 65.3658 59.4943Z" fill="white"/>
<path d="M61.161 59.4943H62.4824C62.9514 59.4943 63.3315 59.1147 63.3315 58.6456C63.3315 58.177 62.9514 57.7969 62.4824 57.7969H61.161C60.692 57.7969 60.3123 58.177 60.3123 58.6456C60.3123 59.1147 60.692 59.4943 61.161 59.4943Z" fill="white"/>
<path d="M58.2777 67.0474H54.1929C53.7243 67.0474 53.3442 67.4275 53.3442 67.8961C53.3442 68.3647 53.7243 68.7448 54.1929 68.7448H58.2777C58.7467 68.7448 59.1264 68.3647 59.1264 67.8961C59.1264 67.4275 58.7467 67.0474 58.2777 67.0474Z" fill="white"/>
<path d="M71.1321 67.0474H65.3658C64.8967 67.0474 64.517 67.4275 64.517 67.8961C64.517 68.3647 64.8967 68.7448 65.3658 68.7448H71.1321C71.6011 68.7448 71.9812 68.3647 71.9812 67.8961C71.9812 67.4275 71.6011 67.0474 71.1321 67.0474Z" fill="white"/>
<path d="M62.4824 67.0474H61.1611C60.692 67.0474 60.3119 67.4275 60.3119 67.8961C60.3119 68.3647 60.692 68.7448 61.1611 68.7448H62.4824C62.9514 68.7448 63.3311 68.3647 63.3311 67.8961C63.3311 67.4275 62.9514 67.0474 62.4824 67.0474Z" fill="white"/>
<path d="M74.2645 21.1132H23.736C21.6762 21.1132 19.9999 22.7889 19.9999 24.8492V65.9214C19.9999 67.9813 21.6762 69.657 23.736 69.657H26.9305C27.3991 69.657 27.7792 69.2774 27.7792 68.8083C27.7792 68.3397 27.3991 67.9596 26.9305 67.9596H23.736C22.6121 67.9596 21.6978 67.0453 21.6978 65.9214V62.7013H52.6233V64.1642H51.9502C51.0294 64.1642 50.2807 64.9129 50.2807 65.8338V67.9596H32.0914C31.6228 67.9596 31.2427 68.3397 31.2427 68.8083C31.2427 69.2774 31.6228 69.657 32.0914 69.657H40.253V72.7015H37.69C35.9802 72.7015 34.5894 74.0927 34.5894 75.8021V77.6359C34.5894 78.416 35.2239 79.0506 36.0041 79.0506H61.9314C62.7116 79.0506 63.3461 78.416 63.3461 77.6359V75.8021C63.3461 74.0927 61.9553 72.7015 60.2455 72.7015H57.6825V71.6284H73.3751C74.2955 71.6284 75.0442 70.8797 75.0442 69.9588V69.5592C76.6988 69.1751 77.9356 67.6905 77.9356 65.9214L77.9997 24.8488C78.0002 22.7889 76.3244 21.1132 74.2645 21.1132ZM51.9786 60.6803V56.6115H73.3468V60.6803H51.9786ZM54.3208 54.9136V53.1276H71.0041V54.9136H54.3208ZM71.0041 62.3778V64.1642H54.3208V62.3778H71.0041ZM41.9505 69.657H50.2807V69.9593C50.2807 70.8797 51.0294 71.6284 51.9502 71.6284H55.985V72.7015H41.9505V69.657ZM60.2459 74.3994C61.0194 74.3994 61.6487 75.0286 61.6487 75.8021V77.3531H36.2868V75.8021C36.2868 75.0286 36.9165 74.3994 37.69 74.3994H60.2459ZM73.3468 69.9305H51.9786V65.8621H73.3468V69.9305ZM76.2381 65.9214C76.2381 66.7436 75.7478 67.452 75.0447 67.7737V65.8333C75.0447 64.9129 74.2955 64.1642 73.3751 64.1642H72.702V62.7013H76.2381V65.9214ZM76.2381 61.0038H75.0168C75.034 60.9078 75.0447 56.5832 75.0447 56.5832C75.0447 55.6623 74.2955 54.9136 73.3751 54.9136H72.702V53.1276H73.3751C74.2955 53.1276 75.0447 52.3785 75.0447 51.4581V47.3326C75.0447 46.4121 74.2955 45.663 73.3751 45.663H68.5805C68.1115 45.663 67.7318 46.0431 67.7318 46.5122C67.7318 46.9808 68.1115 47.3609 68.5805 47.3609H73.3468V51.4297H51.9786V47.3609H63.2988C63.7678 47.3609 64.1475 46.9808 64.1475 46.5122C64.1475 46.0431 63.7678 45.663 63.2988 45.663H51.9502C51.0294 45.663 50.2807 46.4121 50.2807 47.3326V51.4581C50.2807 52.3785 51.0294 53.1276 51.9502 53.1276H52.6233V54.9136H51.9502C51.0294 54.9136 50.2807 55.6628 50.2807 56.5832C50.2807 56.5832 50.2913 60.9078 50.3085 61.0038H21.6978V32.6599H76.2381V61.0038ZM76.2381 30.962H21.7602V24.8488C21.7602 23.7253 22.6744 22.8111 23.7984 22.8111H74.1999C75.3239 22.8111 76.2381 23.7253 76.2381 24.8492V30.962Z" fill="white"/>
<path d="M26.2601 24.3712C24.8866 24.3712 23.7692 25.4885 23.7692 26.8621C23.7692 28.2356 24.8866 29.3534 26.2601 29.3534C27.6336 29.3534 28.7514 28.2356 28.7514 26.8621C28.7514 25.4885 27.6336 24.3712 26.2601 24.3712ZM26.2601 27.6555C25.8229 27.6555 25.4667 27.2997 25.4667 26.8621C25.4667 26.4249 25.8229 26.0687 26.2601 26.0687C26.6977 26.0687 27.0535 26.4249 27.0535 26.8621C27.0535 27.2997 26.6977 27.6555 26.2601 27.6555Z" fill="white"/>
<path d="M32.6026 24.3712C31.229 24.3712 30.1113 25.4885 30.1113 26.8621C30.1113 28.2356 31.229 29.3534 32.6026 29.3534C33.9761 29.3534 35.0934 28.2356 35.0934 26.8621C35.0934 25.4885 33.9757 24.3712 32.6026 24.3712ZM32.6026 27.6555C32.1649 27.6555 31.8092 27.2997 31.8092 26.8621C31.8092 26.4249 32.1649 26.0687 32.6026 26.0687C33.0398 26.0687 33.396 26.4249 33.396 26.8621C33.396 27.2997 33.0398 27.6555 32.6026 27.6555Z" fill="white"/>
<path d="M38.9445 24.3712C37.571 24.3712 36.4537 25.4885 36.4537 26.8621C36.4537 28.2356 37.571 29.3534 38.9445 29.3534C40.3181 29.3534 41.4359 28.2356 41.4359 26.8621C41.4359 25.4885 40.3181 24.3712 38.9445 24.3712ZM38.9445 27.6555C38.5073 27.6555 38.1511 27.2997 38.1511 26.8621C38.1511 26.4249 38.5073 26.0687 38.9445 26.0687C39.3822 26.0687 39.738 26.4249 39.738 26.8621C39.738 27.2997 39.3822 27.6555 38.9445 27.6555Z" fill="white"/>
</g>
<defs>
<clipPath id="clip0_87_3370">
<rect width="58" height="58" fill="white" transform="translate(20 21)"/>
</clipPath>
</defs>
</svg>
