<svg width="98" height="100" viewBox="0 0 98 100" fill="none" xmlns="http://www.w3.org/2000/svg">
<rect y="0.222656" width="98" height="98.8533" rx="5" fill="#FF800B"/>
<g clip-path="url(#clip0_87_3459)">
<path d="M25.2106 28.8381C25.2106 29.7134 25.9202 30.423 26.7955 30.423C27.6708 30.423 28.3804 29.7134 28.3804 28.8381C28.3804 27.9628 27.6708 27.2532 26.7954 27.2532C25.9201 27.2532 25.2106 27.9628 25.2106 28.8381Z" fill="white"/>
<path d="M31.671 30.423C32.5464 30.423 33.256 29.7134 33.256 28.8381C33.256 27.9628 32.5464 27.2532 31.671 27.2532C30.7957 27.2532 30.0861 27.9628 30.0861 28.8381C30.0861 29.7134 30.7957 30.423 31.671 30.423Z" fill="white"/>
<path d="M36.5466 30.423C37.422 30.423 38.1316 29.7134 38.1316 28.8381C38.1316 27.9628 37.422 27.2532 36.5466 27.2532C35.6713 27.2532 34.9617 27.9628 34.9617 28.8381C34.9617 29.7134 35.6713 30.423 36.5466 30.423Z" fill="white"/>
<path d="M34.8178 52.195C35.1564 52.195 35.4766 51.9916 35.6094 51.6578L40.3466 39.7474C40.5205 39.3103 40.307 38.8151 39.8699 38.6412C39.4331 38.4677 38.9377 38.6808 38.7638 39.1179L34.0266 51.0283C33.8527 51.4654 34.0661 51.9606 34.5033 52.1345C34.6065 52.1755 34.713 52.195 34.8178 52.195Z" fill="white"/>
<path d="M44.0579 51.5089C44.1923 51.5867 44.3391 51.6237 44.484 51.6237C44.7778 51.6237 45.0638 51.4714 45.2218 51.1988L48.4028 45.7069C48.5583 45.4382 48.5555 45.1062 48.3951 44.8403L45.2141 39.5639C44.9713 39.161 44.4476 39.0315 44.045 39.2743C43.642 39.5171 43.5125 40.0406 43.7553 40.4433L46.6764 45.2887L43.7476 50.345C43.5119 50.752 43.6508 51.2731 44.0579 51.5089Z" fill="white"/>
<path d="M30.7136 50.3452L27.7848 45.2889L30.7059 40.4435C30.9487 40.0407 30.8191 39.5173 30.4162 39.2744C30.0137 39.0318 29.49 39.1613 29.2471 39.5641L26.0661 44.8405C25.9057 45.1064 25.9028 45.4384 26.0584 45.7071L29.2394 51.199C29.3973 51.4716 29.6834 51.6239 29.9772 51.6239C30.1221 51.6239 30.269 51.5869 30.4033 51.509C30.8105 51.2733 30.9493 50.7522 30.7136 50.3452Z" fill="white"/>
<path d="M62.7106 62.7694C62.25 62.6751 61.7999 62.972 61.7055 63.433C61.3884 64.9821 60.0083 66.1065 58.424 66.1065C56.5771 66.1065 55.0746 64.604 55.0746 62.757C55.0746 60.9101 56.5771 59.4075 58.424 59.4075C59.2431 59.4075 60.0316 59.7063 60.6442 60.249C60.9962 60.5608 61.5347 60.5283 61.8464 60.1762C62.1584 59.8242 62.1259 59.286 61.7738 58.974C60.8495 58.1551 59.6599 57.7041 58.4241 57.7041C55.6379 57.7041 53.3713 59.9709 53.3713 62.757C53.3713 65.5432 55.6379 67.8098 58.4241 67.8098C60.8139 67.8098 62.8958 66.1127 63.3743 63.7745C63.4686 63.3137 63.1714 62.8636 62.7106 62.7694Z" fill="white"/>
<path d="M71.5486 40.5617C70.0023 39.9299 68.2301 40.6742 67.5985 42.2206C67.2926 42.9696 67.2965 43.7931 67.61 44.5391C67.9233 45.2852 68.3669 45.7333 69.2574 46.1706C70.5448 46.8027 72.6146 46.0906 73.2073 44.5118C73.7274 43.1266 73.1294 41.1519 71.5486 40.5617ZM70.4029 44.6967C69.6693 44.6967 69.0746 44.102 69.0746 43.3684C69.0746 42.6348 69.6693 42.04 70.4029 42.04C71.1365 42.04 71.7313 42.6348 71.7313 43.3684C71.7313 44.102 71.1365 44.6967 70.4029 44.6967Z" fill="white"/>
<path d="M77.2076 43.7931L76.6958 43.584C76.7016 43.4183 76.7007 43.2524 76.6932 43.0868L77.2028 42.8727C77.8508 42.6007 78.1566 41.8523 77.8846 41.2042L77.1849 39.5383C76.9244 38.9963 76.339 38.586 75.5164 38.8565L75.0067 39.0705C74.8935 38.9493 74.7758 38.8325 74.6533 38.7205L74.8622 38.2091C75.0606 37.7534 74.9061 36.8344 74.1644 36.5471L72.4917 35.8638C72.0362 35.6655 71.1168 35.8203 70.8298 36.5617L70.6207 37.0734C70.4551 37.0676 70.2892 37.0685 70.1236 37.076L69.9096 36.5665C69.7777 36.2524 69.5317 36.0087 69.2164 35.8799C68.9903 35.7875 68.7481 35.7634 68.5133 35.8053V27.4963C68.5133 25.0787 66.5464 23.1118 64.1288 23.1118H62.3436C61.8732 23.1118 61.492 23.4931 61.492 23.9635C61.492 24.4338 61.8733 24.8151 62.3436 24.8151H64.1288C65.6071 24.8151 66.8098 26.0178 66.8098 27.4961V32.8611H21.7034V31.4202V27.4961C21.7034 26.0178 22.9061 24.8151 24.3844 24.8151H58.3814C58.8518 24.8151 59.233 24.4338 59.233 23.9635C59.233 23.4931 58.8517 23.1118 58.3814 23.1118H24.3844C21.9669 23.1119 20 25.0787 20 27.4963V63.2793C20 65.6968 21.9669 67.6637 24.3844 67.6637H27.5858C28.0562 67.6637 28.4374 67.2824 28.4374 66.8121C28.4374 66.3418 28.0561 65.9604 27.5858 65.9604H24.3844C22.9061 65.9604 21.7034 64.7577 21.7034 63.2794V34.5645H66.81V36.4855L66.5748 36.5842C65.9271 36.8563 65.6213 37.6049 65.8933 38.2528L66.1073 38.7625C65.9861 38.8757 65.8693 38.9935 65.7574 39.1157L65.2457 38.9067C64.5955 38.6409 63.8497 38.9537 63.5837 39.6047L62.9006 41.2771C62.7022 41.7329 62.8569 42.652 63.5986 42.9391L64.1101 43.1481C64.1045 43.3138 64.1053 43.4798 64.1127 43.6454L63.6031 43.8595C63.0613 44.1202 62.651 44.7057 62.9215 45.5281L63.621 47.1938C63.8818 47.7359 64.4669 48.1462 65.2896 47.8757L65.7994 47.6616C65.9126 47.7829 66.0302 47.8996 66.1526 48.0116L65.9436 48.5234C65.6778 49.174 65.9911 49.9194 66.6415 50.1851L66.81 50.2539V51.2508C66.5662 51.1158 66.2913 51.0433 66.005 51.0433C65.5597 51.0433 65.1408 51.2169 64.8258 51.5318L63.6714 52.6863C63.0823 52.3787 62.4678 52.124 61.8344 51.9249V50.2926C61.8344 49.3732 61.0864 48.6252 60.167 48.6252H56.6813C55.7619 48.6252 55.0138 49.3732 55.0138 50.2926V51.9249C54.3803 52.1242 53.7661 52.3787 53.1769 52.6863L52.0225 51.5318C51.3723 50.8817 50.3147 50.8816 49.6643 51.5318L47.1994 53.9967C46.5493 54.6468 46.5493 55.7048 47.1994 56.3549L48.3538 57.5093C48.0463 58.0985 47.7917 58.7128 47.5926 59.3462H45.9604C45.041 59.3462 44.2929 60.0942 44.2929 61.0136V64.4995C44.2929 65.1278 44.6426 65.6758 45.1574 65.96H31.5176C31.0472 65.96 30.666 66.3413 30.666 66.8116C30.666 67.282 31.0473 67.6633 31.5176 67.6633H48.1852C48.2399 67.7774 48.2948 67.8914 48.3535 68.0038L47.1991 69.1583C46.8841 69.4732 46.7107 69.892 46.7107 70.3374C46.7107 70.7828 46.8842 71.2015 47.1991 71.5164L49.6639 73.9814C50.3145 74.6318 51.3721 74.6317 52.0221 73.9814L53.1766 72.8269C53.7657 73.1344 54.3802 73.3891 55.0134 73.5882V75.2205C55.0134 76.1399 55.7615 76.8879 56.6809 76.8879H60.1667C61.0861 76.8879 61.8341 76.1399 61.8341 75.2205V73.5887C62.4676 73.3895 63.0819 73.1349 63.6711 72.8273L64.8255 73.9819C65.1404 74.2968 65.5593 74.4704 66.0046 74.4704C66.4501 74.4704 66.8689 74.2968 67.1837 73.9819L69.6485 71.517C69.9634 71.2021 70.1369 70.7833 70.1369 70.3379C70.1369 69.8924 69.9635 69.4738 69.6485 69.1587L68.494 68.0043C68.8016 67.4152 69.0561 66.801 69.2554 66.1674H70.8875C71.8069 66.1674 72.555 65.4194 72.555 64.4999V61.014C72.555 60.0946 71.8069 59.3466 70.8875 59.3466H69.2554C69.0561 58.7131 68.8014 58.0987 68.494 57.5098L69.6489 56.3552C70.299 55.7051 70.299 54.6472 69.6489 53.997L68.5134 52.8615V50.9306C68.9315 51.0479 69.7238 50.8268 69.9761 50.171L70.1851 49.6593C70.3506 49.6651 70.5165 49.6641 70.6824 49.6567L70.8965 50.1667C71.1687 50.8146 71.917 51.12 72.565 50.848L74.2308 50.1484C74.7727 49.8879 75.1833 49.3024 74.9126 48.4798L74.6986 47.97C74.82 47.8569 74.9366 47.739 75.0487 47.6168L75.5604 47.8258C76.016 48.0241 76.9352 47.8693 77.2223 47.1279L77.9056 45.4551C78.1711 44.8044 77.8579 44.059 77.2076 43.7931ZM68.6115 61.0499H70.8521V64.464H68.6115C68.2208 64.464 67.8802 64.7298 67.7853 65.1088C67.5558 66.0255 67.1926 66.9016 66.706 67.7128C66.5049 68.0479 66.5578 68.4768 66.8342 68.7532L68.419 70.338L66.0048 72.7521L64.4201 71.1673C64.1438 70.891 63.715 70.838 63.3797 71.0391C62.5681 71.5258 61.692 71.8889 60.7757 72.1184C60.3967 72.2132 60.1308 72.5539 60.1308 72.9446V75.1852H56.7167V72.9446C56.7167 72.5539 56.4508 72.2132 56.0718 72.1184C55.1556 71.889 54.2796 71.526 53.4679 71.0391C53.1326 70.8381 52.7038 70.891 52.4276 71.1673L50.8429 72.7521L48.4286 70.338L50.0134 68.7532C50.2897 68.4769 50.3426 68.048 50.1415 67.7129C49.6548 66.9014 49.2917 66.0252 49.0623 65.1089C48.9674 64.7299 48.6269 64.4641 48.2361 64.4641H45.9956V61.05H48.2361C48.6269 61.05 48.9674 60.7842 49.0623 60.4052C49.2917 59.4889 49.6548 58.6129 50.1415 57.8014C50.3426 57.4663 50.2897 57.0374 50.0134 56.761L48.4286 55.1762L50.8427 52.7621L52.4276 54.3469C52.704 54.6231 53.1326 54.6761 53.4679 54.475C54.2794 53.9883 55.1555 53.6251 56.0718 53.3957C56.4508 53.3009 56.7167 52.9603 56.7167 52.5696V50.329H60.1308V52.5696C60.1308 52.9603 60.3967 53.3009 60.7757 53.3957C61.6921 53.6253 62.5683 53.9883 63.3797 54.475C63.7148 54.6761 64.1437 54.6231 64.4201 54.3469L66.0048 52.7621L68.419 55.1762L66.8341 56.761C66.5578 57.0373 66.5049 57.4663 66.706 57.8014C67.1926 58.6125 67.5557 59.4885 67.7853 60.4052C67.8802 60.7842 68.2209 61.0499 68.6115 61.0499ZM75.8073 46.0866L75.1119 45.8026C74.7502 45.6547 74.3344 45.7721 74.1032 46.0871C73.8374 46.4492 73.52 46.7696 73.1597 47.0394C72.8468 47.2737 72.7337 47.6907 72.8849 48.0509L73.1759 48.7438L72.3007 49.1114L72.0097 48.4185C71.8585 48.0582 71.4813 47.8473 71.0951 47.9065C70.6504 47.9749 70.1995 47.9773 69.7546 47.9134C69.3674 47.8576 68.993 48.0728 68.8452 48.4344L68.5612 49.1298L67.6825 48.7708L67.9666 48.0755C68.1143 47.7138 67.9969 47.298 67.682 47.0668C67.32 46.8011 66.9995 46.4837 66.7296 46.1233C66.4955 45.8107 66.0786 45.6972 65.7182 45.8486L65.0254 46.1396L64.6578 45.2644L65.3507 44.9734C65.711 44.8221 65.9221 44.4451 65.8627 44.0588C65.7944 43.6139 65.792 43.1629 65.8558 42.7183C65.9113 42.3316 65.6965 41.9567 65.3348 41.8089L64.6395 41.5248L64.9985 40.6461L65.6939 40.9302C66.0553 41.078 66.4713 40.9607 66.7026 40.6457C66.9686 40.2836 67.2859 39.9632 67.646 39.6935C67.9589 39.4592 68.072 39.0423 67.9208 38.682L67.6298 37.989L68.505 37.6214L68.7961 38.3144C68.9475 38.6747 69.3245 38.8859 69.7106 38.8264C70.1556 38.758 70.6066 38.7558 71.0511 38.8195C71.4381 38.8751 71.8126 38.6601 71.9604 38.2985L72.2444 37.6032L73.1231 37.9621L72.8391 38.6575C72.6914 39.0191 72.8088 39.4349 73.1236 39.6662C73.486 39.9322 73.8063 40.2496 74.0758 40.6096C74.31 40.9223 74.7267 41.0359 75.0873 40.8844L75.7803 40.5934L76.1479 41.4686L75.4549 41.7596C75.0947 41.911 74.8835 42.288 74.9429 42.6742C75.0112 43.119 75.0136 43.57 74.9499 44.0148C74.8945 44.4016 75.1093 44.7763 75.4709 44.924L76.1662 45.2081L75.8073 46.0866Z" fill="white"/>
</g>
<defs>
<clipPath id="clip0_87_3459">
<rect width="58" height="58" fill="white" transform="translate(20 21)"/>
</clipPath>
</defs>
</svg>
