<svg width="98" height="99" viewBox="0 0 98 99" fill="none" xmlns="http://www.w3.org/2000/svg">
<rect y="0.649414" width="98" height="98" rx="5" fill="#C33DAB"/>
<g clip-path="url(#clip0_87_3318)">
<path d="M73.7437 26.2211H46.1624V27.9236H73.7437C75.1518 27.9236 76.2975 29.0693 76.2975 30.4774V55.7318H45.9922V30.6957L41.7358 23.6018L37.4794 30.6957V55.7319H34.6418V21H24.9941V55.7319H21.7025V30.4774C21.7025 29.4288 22.3596 28.4707 23.3377 28.0936L22.725 26.5051C21.0951 27.1338 20 28.7301 20 30.4774V62.2583C20 64.6052 21.9094 66.5146 24.2563 66.5146H40.2035V72.7573H37.6497C35.9286 72.7573 34.5283 74.1575 34.5283 75.8787V79H63.4717V75.8787C63.4717 74.1575 62.0714 72.7573 60.3503 72.7573H57.7965V66.5146H73.7437C76.0906 66.5146 78 64.6052 78 62.2583V30.4774C78 28.1305 76.0906 26.2211 73.7437 26.2211ZM41.7358 26.911L43.973 30.6396L41.7358 31.9817L39.4986 30.6394L41.7358 26.911ZM39.182 32.4349L41.7358 33.9672L44.2897 32.4349V51.1917H39.182V32.4349ZM39.182 52.8943H44.2897V55.7319H39.182V52.8943ZM26.6966 53.6889H30.8394V51.9864H26.6966V50.2839H29.0234V48.5814H26.6966V46.8789H30.8394V45.1764H26.6966V43.4739H29.0234V41.7714H26.6966V40.0689H30.8394V38.3664H26.6966V36.6634H29.0234V34.9609H26.6966V33.2584H30.8394V31.5558H26.6966V29.8533H29.0234V28.1507H26.6966V26.4481H30.8394V24.7456H26.6966V22.7025H32.9393V55.7318H26.6966V53.6889ZM60.3503 74.4599C61.1326 74.4599 61.7691 75.0963 61.7691 75.8787V77.2974H36.2309V75.8787C36.2309 75.0963 36.8674 74.4599 37.6497 74.4599H60.3503ZM41.9061 72.7573V66.5146H56.094V72.7573H41.9061ZM76.2975 62.2583C76.2975 63.6665 75.1518 64.8121 73.7437 64.8121H24.2563C22.8482 64.8121 21.7025 63.6665 21.7025 62.2583V57.4344H76.2974V62.2583H76.2975Z" fill="white"/>
<path d="M54.7319 29.6262V39.2739H74.5949V29.6262H54.7319ZM72.8924 37.5714H56.4344V31.3287H72.8924V37.5714Z" fill="white"/>
<path d="M54.7319 40.9764V47.2191H63.8122V40.9764H54.7319ZM62.1096 45.5166H56.4344V42.6791H62.1096V45.5166Z" fill="white"/>
<path d="M65.5147 40.9764V47.2191H74.595V40.9764H65.5147ZM72.8924 45.5166H67.2172V42.6791H72.8924V45.5166Z" fill="white"/>
<path d="M52.8591 31.3287V29.6262H47.7514V31.3287H49.454V52.3268H47.7514V54.0293H52.8591V52.3268H51.1565V31.3287H52.8591Z" fill="white"/>
<path d="M49.8512 60.272H48.1487V61.9745H49.8512V60.272Z" fill="white"/>
<path d="M53.2563 60.272H51.5538V61.9745H53.2563V60.272Z" fill="white"/>
<path d="M46.4462 60.272H44.7437V61.9745H46.4462V60.272Z" fill="white"/>
<path d="M42.587 43.1898H40.8845V44.8923H42.587V43.1898Z" fill="white"/>
<path d="M42.587 46.5948H40.8845V49.4324H42.587V46.5948Z" fill="white"/>
<path d="M42.587 35.8121H40.8845V41.4873H42.587V35.8121Z" fill="white"/>
<path d="M62.9608 49.4893H61.2583V51.1918H62.9608V49.4893Z" fill="white"/>
<path d="M59.5558 49.4893H55.5833V51.1918H59.5558V49.4893Z" fill="white"/>
<path d="M70.3385 49.4893H66.3659V51.1918H70.3385V49.4893Z" fill="white"/>
<path d="M73.7436 49.4893H72.0411V51.1918H73.7436V49.4893Z" fill="white"/>
</g>
<defs>
<clipPath id="clip0_87_3318">
<rect width="58" height="58" fill="white" transform="translate(20 21)"/>
</clipPath>
</defs>
</svg>
