<svg width="98" height="99" viewBox="0 0 98 99" fill="none" xmlns="http://www.w3.org/2000/svg">
<rect y="0.649414" width="98" height="98" rx="5" fill="#0085FF"/>
<path d="M74.4261 25.5403H23.5739C21.6032 25.5403 20 27.1434 20 29.1141V63.621C20 65.5917 21.6032 67.1948 23.5739 67.1948H40.7729L40.0773 72.7602H37.195C36.7256 72.7602 36.3454 73.1406 36.3454 73.6098C36.3454 74.079 36.7256 74.4594 37.195 74.4594H60.805C61.2744 74.4594 61.6546 74.079 61.6546 73.6098C61.6546 73.1406 61.2744 72.7602 60.805 72.7602H57.9228L57.2271 67.1948H74.4261C76.3967 67.1948 78 65.5917 78 63.621V29.1141C78 27.1434 76.3968 25.5403 74.4261 25.5403ZM41.7898 72.7602L42.4855 67.1948H45.6124L45.9192 68.4217C46.2733 69.838 47.5403 70.8271 49.0001 70.8271C50.46 70.8271 51.7269 69.838 52.081 68.4217L52.3878 67.1948H55.5147L56.2102 72.7602H41.7898ZM47.3639 67.1948H50.636L50.4323 68.0095C50.2677 68.668 49.6788 69.1279 48.9999 69.1279C48.321 69.1279 47.7322 68.6679 47.5674 68.0095L47.3639 67.1948ZM76.3008 63.621C76.3008 64.6547 75.4598 65.4956 74.4261 65.4956H23.5739C22.5402 65.4956 21.6992 64.6547 21.6992 63.621V29.1141C21.6992 28.0804 22.5402 27.2395 23.5739 27.2395H74.4261C75.4598 27.2395 76.3008 28.0804 76.3008 29.1141V63.621Z" fill="white"/>
<path d="M68.0696 29.1729H24.4819C24.0125 29.1729 23.6323 29.5531 23.6323 30.0225V62.7132C23.6323 63.1825 24.0125 63.5628 24.4819 63.5628H26.2981C26.7674 63.5628 27.1477 63.1825 27.1477 62.7132C27.1478 62.244 26.7674 61.8636 26.2982 61.8636H25.3316V30.8721H68.0696C68.5389 30.8721 68.9192 30.4917 68.9192 30.0225C68.9192 29.5531 68.5389 29.1729 68.0696 29.1729Z" fill="white"/>
<path d="M73.5182 29.1729H71.7019C71.2326 29.1729 70.8523 29.5531 70.8523 30.0225C70.8523 30.4917 71.2326 30.8721 71.7019 30.8721H72.6685V61.8636H29.9305C29.4612 61.8636 29.0809 62.244 29.0809 62.7132C29.0809 63.1825 29.4612 63.5628 29.9305 63.5628H73.518C73.9874 63.5628 74.3677 63.1825 74.3677 62.7132V30.0225C74.3678 29.5531 73.9874 29.1729 73.5182 29.1729Z" fill="white"/>
<path d="M60.566 38.5792C60.4133 38.3841 60.183 38.2653 59.9356 38.2541L39.958 37.3459C39.9424 37.3453 39.9271 37.3449 39.9113 37.3452C39.7931 36.9569 39.5432 36.6203 39.2049 36.3946L36.7584 34.7636C36.368 34.5034 35.8404 34.6088 35.5802 34.9993C35.32 35.3898 35.4255 35.9172 35.8159 36.1774L38.2623 37.8082C38.2738 37.8159 38.2823 37.8276 38.2862 37.841L41.4024 48.7478C41.4996 49.0879 41.6596 49.3935 41.865 49.6575L40.7248 51.9378C40.4503 52.4867 40.4791 53.1259 40.8017 53.6479C40.9187 53.8372 41.0671 53.9984 41.2376 54.1275C41.0145 54.5171 40.8861 54.9678 40.8861 55.4481C40.8861 56.918 42.082 58.1138 43.5518 58.1138C45.0217 58.1138 46.2176 56.9179 46.2176 55.4481C46.2176 55.1072 46.1526 54.7814 46.0354 54.4815H53.7813C53.6641 54.7814 53.5991 55.1072 53.5991 55.4481C53.5991 56.918 54.795 58.1138 56.2648 58.1138C57.7347 58.1138 58.9306 56.9179 58.9306 55.4481C58.9306 55.0217 58.8294 54.6187 58.6506 54.261C58.8222 54.1056 58.9306 53.8817 58.9306 53.6319C58.9306 53.1627 58.5503 52.7823 58.081 52.7823H42.2966C42.2845 52.7823 42.2639 52.7823 42.2468 52.7546C42.2297 52.7269 42.2389 52.7087 42.2444 52.6977L43.2947 50.5971C43.5085 50.6521 43.7312 50.6818 43.9591 50.6818C44.0641 50.6818 44.1701 50.6755 44.2768 50.6631L56.2151 49.2586C57.757 49.0771 58.9975 47.9325 59.302 46.41L60.73 39.2695C60.7786 39.0265 60.7187 38.7744 60.566 38.5792ZM56.2646 54.4818C56.7976 54.4818 57.2311 54.9154 57.2311 55.4483C57.2311 55.9813 56.7976 56.4148 56.2646 56.4148C55.7316 56.4148 55.2981 55.9813 55.2981 55.4483C55.2981 54.9153 55.7316 54.4818 56.2646 54.4818ZM43.5516 54.4818C44.0846 54.4818 44.5181 54.9153 44.5181 55.4483C44.5181 55.9813 44.0846 56.4148 43.5516 56.4148C43.0186 56.4148 42.5851 55.9813 42.5851 55.4483C42.5851 54.9153 43.0186 54.4818 43.5516 54.4818ZM41.4681 42.7936L40.4034 39.0673L43.8002 39.2217L44.3891 42.7936H41.4681ZM44.0784 48.9755C43.6046 49.0312 43.1668 48.7391 43.0361 48.2811L41.9537 44.4929H44.6693L45.383 48.822L44.0784 48.9755ZM49.0586 48.3896L47.0725 48.6233L46.3916 44.493H49.0586V48.3896ZM49.0586 42.7936H46.1113L45.5354 39.3006L49.0586 39.4608V42.7936ZM53.3612 47.8834L50.7578 48.1897V44.4929H53.6681L53.3612 47.8834ZM53.8219 42.7936H50.7578V39.5379L54.1029 39.69L53.8219 42.7936ZM57.6356 46.077C57.4759 46.8754 56.8252 47.4759 56.0165 47.571L55.0857 47.6806L55.3742 44.493H57.9524L57.6356 46.077ZM58.2923 42.7936H55.5282L55.8021 39.7672L58.8697 39.9067L58.2923 42.7936Z" fill="white"/>
</svg>
