<svg width="98" height="100" viewBox="0 0 98 100" fill="none" xmlns="http://www.w3.org/2000/svg">
<rect y="0.222656" width="98" height="98.8533" rx="5" fill="#FFC700"/>
<g clip-path="url(#clip0_87_3410)">
<path d="M56.7047 69.7514H70.3261C74.0954 69.7514 77.1504 66.6964 77.1504 62.9272C77.1504 62.2837 77.1504 33.0882 77.1504 28.8055C77.1504 25.0362 74.0953 21.9812 70.3261 21.9812H27.6739C23.9046 21.9811 20.8496 25.0361 20.8496 28.8054C20.8496 31.3799 20.8496 61.3927 20.8496 62.927C20.8496 66.6964 23.9046 69.7513 27.6739 69.7513H27.7012" stroke="white" stroke-width="1.69537" stroke-miterlimit="10" stroke-linecap="round" stroke-linejoin="round"/>
<path d="M77.1504 34.7761H68.0438" stroke="white" stroke-width="1.69537" stroke-miterlimit="10" stroke-linecap="round" stroke-linejoin="round"/>
<path d="M64.0789 34.7761H20.8496" stroke="white" stroke-width="1.69537" stroke-miterlimit="10" stroke-linecap="round" stroke-linejoin="round"/>
<path d="M29.3229 28.8695C29.5935 27.7233 28.8837 26.5746 27.7375 26.304C26.5912 26.0333 25.4426 26.7431 25.1719 27.8894C24.9012 29.0356 25.611 30.1843 26.7573 30.4549C27.9036 30.7256 29.0522 30.0158 29.3229 28.8695Z" stroke="white" stroke-width="1.69537" stroke-miterlimit="10" stroke-linecap="round" stroke-linejoin="round"/>
<path d="M36.5944 30.3491C37.6826 29.8984 38.1993 28.6508 37.7486 27.5626C37.2978 26.4744 36.0503 25.9577 34.9621 26.4085C33.8739 26.8592 33.3572 28.1068 33.8079 29.1949C34.2587 30.2831 35.5062 30.7999 36.5944 30.3491Z" stroke="white" stroke-width="1.69537" stroke-miterlimit="10" stroke-linecap="round" stroke-linejoin="round"/>
<path d="M46.6691 29.8869C47.5019 29.0541 47.5019 27.7038 46.6691 26.8709C45.8363 26.0381 44.486 26.0381 43.6531 26.8709C42.8203 27.7038 42.8203 29.0541 43.6531 29.8869C44.486 30.7197 45.8363 30.7197 46.6691 29.8869Z" stroke="white" stroke-width="1.69537" stroke-miterlimit="10" stroke-linecap="round" stroke-linejoin="round"/>
<path d="M70.7526 30.5114H53.6918C52.5134 30.5114 51.5591 29.5571 51.5591 28.3787C51.5591 27.2006 52.5134 26.2461 53.6918 26.2461H70.7526C71.931 26.2461 72.8852 27.2004 72.8852 28.3787C72.8852 29.557 71.931 30.5114 70.7526 30.5114Z" stroke="white" stroke-width="1.69537" stroke-miterlimit="10" stroke-linecap="round" stroke-linejoin="round"/>
<path d="M27.7009 55.2834C27.7009 49.216 27.7009 43.868 27.7009 43.1838C27.7009 40.8955 29.5553 39.0422 31.8436 39.0422H52.5627C54.851 39.0422 56.7043 40.8955 56.7043 43.1838V52.8693" stroke="white" stroke-width="1.69537" stroke-miterlimit="10" stroke-linecap="round" stroke-linejoin="round"/>
<path d="M56.7043 63.9902C56.7043 65.43 56.7043 72.6982 56.7043 74.1391C56.7043 76.4274 54.851 78.2818 52.5627 78.2818H31.8436C29.5553 78.2818 27.7009 76.4274 27.7009 74.1391C27.7009 73.3733 27.7009 66.3941 27.7009 59.2483" stroke="white" stroke-width="1.69537" stroke-miterlimit="10" stroke-linecap="round" stroke-linejoin="round"/>
<path d="M50.7335 47.5722H33.6726C32.7297 47.5722 31.9665 46.8079 31.9665 45.866C31.9665 44.924 32.7308 44.1599 33.6726 44.1599H50.7335C51.6752 44.1599 52.4396 44.9242 52.4396 45.866C52.4395 46.8063 51.6752 47.5722 50.7335 47.5722Z" stroke="white" stroke-width="1.69537" stroke-miterlimit="10" stroke-linecap="round" stroke-linejoin="round"/>
<path d="M32.8195 52.6907H52.4395" stroke="white" stroke-width="1.69537" stroke-miterlimit="10" stroke-linecap="round" stroke-linejoin="round"/>
<path d="M52.866 57.8088H32.8195" stroke="white" stroke-width="1.69537" stroke-miterlimit="10" stroke-linecap="round" stroke-linejoin="round"/>
<path d="M49.9623 62.927H32.8195" stroke="white" stroke-width="1.69537" stroke-miterlimit="10" stroke-linecap="round" stroke-linejoin="round"/>
<path d="M49.2332 68.0452H32.8195" stroke="white" stroke-width="1.69537" stroke-miterlimit="10" stroke-linecap="round" stroke-linejoin="round"/>
<path d="M32.8195 73.1636H43.0561" stroke="white" stroke-width="1.69537" stroke-miterlimit="10" stroke-linecap="round" stroke-linejoin="round"/>
<path d="M63.2882 44.3966L64.3346 43.0499C65.4913 41.5611 67.6341 41.2927 69.123 42.4483C70.6134 43.6077 70.8773 45.7518 69.7235 47.2367C69.7058 47.2594 57.128 63.4453 57.2191 63.3285L55.5914 65.4235" stroke="white" stroke-width="1.69537" stroke-miterlimit="10" stroke-linecap="round" stroke-linejoin="round"/>
<path d="M50.2026 61.2368C51.2264 59.9194 59.7771 48.9151 60.6712 47.7644" stroke="white" stroke-width="1.69537" stroke-miterlimit="10" stroke-linecap="round" stroke-linejoin="round"/>
<path d="M49.2335 68.0452C49.2798 67.7198 48.9869 69.7779 50.2025 61.2368L55.5914 65.4236L49.2335 68.0452Z" stroke="white" stroke-width="1.69537" stroke-miterlimit="10" stroke-linecap="round" stroke-linejoin="round"/>
<path d="M66.0589 51.9525L60.671 47.7646L63.2882 44.3967L68.676 48.5835L66.0589 51.9525Z" stroke="white" stroke-width="1.69537" stroke-miterlimit="10" stroke-linecap="round" stroke-linejoin="round"/>
</g>
<defs>
<clipPath id="clip0_87_3410">
<rect width="58" height="58" fill="white" transform="translate(20 21.1313)"/>
</clipPath>
</defs>
</svg>
