<svg width="64" height="64" viewBox="0 0 64 64" fill="none" xmlns="http://www.w3.org/2000/svg">
<g clip-path="url(#clip0_167_683)">
<path d="M32.0001 26.2194C35.5445 26.2194 38.4179 23.3461 38.4179 19.8016C38.4179 16.2571 35.5445 13.3838 32.0001 13.3838C28.4556 13.3838 25.5822 16.2571 25.5822 19.8016C25.5822 23.3461 28.4556 26.2194 32.0001 26.2194Z" stroke="#FFC700" stroke-width="1.93361" stroke-miterlimit="10" stroke-linecap="round" stroke-linejoin="round"/>
<path d="M40.3172 12.1248C43.4065 12.1248 45.9108 9.6204 45.9108 6.53113C45.9108 3.44185 43.4065 0.9375 40.3172 0.9375C37.2279 0.9375 34.7236 3.44185 34.7236 6.53113C34.7236 9.6204 37.2279 12.1248 40.3172 12.1248Z" stroke="#FFC700" stroke-width="1.93361" stroke-miterlimit="10" stroke-linecap="round" stroke-linejoin="round"/>
<path d="M23.7595 12.1248C26.8488 12.1248 29.3532 9.6204 29.3532 6.53113C29.3532 3.44185 26.8488 0.9375 23.7595 0.9375C20.6703 0.9375 18.1659 3.44185 18.1659 6.53113C18.1659 9.6204 20.6703 12.1248 23.7595 12.1248Z" stroke="#FFC700" stroke-width="1.93361" stroke-miterlimit="10" stroke-linecap="round" stroke-linejoin="round"/>
<path d="M15.4658 24.2724C18.6118 24.2724 21.1621 21.7221 21.1621 18.5761C21.1621 15.4302 18.6118 12.8799 15.4658 12.8799C12.3199 12.8799 9.76959 15.4302 9.76959 18.5761C9.76959 21.7221 12.3199 24.2724 15.4658 24.2724Z" stroke="#FFC700" stroke-width="1.93361" stroke-miterlimit="10" stroke-linecap="round" stroke-linejoin="round"/>
<path d="M48.4195 24.2727C44.4011 24.3266 41.0918 27.2208 40.2651 31.0067C41.077 32.4087 41.5429 34.0333 41.5429 35.7615V40.0706C41.6271 40.0833 41.7126 40.0918 41.8003 40.0918H55.268C56.2269 40.0918 57.0042 39.3145 57.0042 38.3558V32.742C57.0042 28.0453 53.1299 24.2096 48.4195 24.2727Z" stroke="#FFC700" stroke-width="1.93361" stroke-miterlimit="10" stroke-linecap="round" stroke-linejoin="round"/>
<path d="M22.4572 35.8872C22.4572 34.1226 22.932 32.4593 23.7596 31.0252C22.9527 27.1466 19.4719 24.218 15.3511 24.2732C10.7 24.3356 6.99594 28.202 6.99594 32.8536V38.3562C6.99594 39.315 7.7732 40.0923 8.73196 40.0923H22.1997C22.2875 40.0923 22.373 40.0836 22.4572 40.0711V35.8872Z" stroke="#FFC700" stroke-width="1.93361" stroke-miterlimit="10" stroke-linecap="round" stroke-linejoin="round"/>
<path d="M21.1622 18.5761C21.1622 21.7221 18.6119 24.2724 15.4659 24.2724C15.458 24.2724 15.4503 24.2719 15.4423 24.2718V24.2732C19.5231 24.262 22.9587 27.1744 23.7596 31.0242C23.7591 31.0251 23.7587 31.0259 23.7582 31.0267C25.3884 28.2002 28.3939 26.2658 31.8707 26.2192C31.9129 26.2186 31.955 26.2192 31.9972 26.2191C28.454 26.2176 25.5821 23.3449 25.5821 19.8014C25.5821 17.3018 27.012 15.1376 29.0975 14.0778C27.6234 12.8381 25.7182 12.0964 23.6468 12.1243C21.7751 12.1494 20.0601 12.8027 18.687 13.8784C20.1817 14.9053 21.1622 16.626 21.1622 18.5761Z" stroke="#FFC700" stroke-width="1.93361" stroke-miterlimit="10" stroke-linecap="round" stroke-linejoin="round"/>
<path d="M38.4179 19.8015C38.4179 23.345 35.5461 26.2177 32.0029 26.2192C35.5227 26.2203 38.613 28.1521 40.2661 31.0081C40.2658 31.0075 40.2655 31.0069 40.2651 31.0064C41.0918 27.2204 44.401 24.3263 48.4195 24.2724C48.4916 24.2714 48.563 24.2742 48.6347 24.275V24.2698C48.6012 24.2704 48.568 24.2723 48.5342 24.2723C45.3882 24.2723 42.8379 21.722 42.8379 18.576C42.8379 16.6037 43.8404 14.8659 45.3634 13.8434C43.9334 12.7455 42.1418 12.0983 40.2046 12.1243C38.2025 12.1512 36.3793 12.8959 34.9626 14.1087C37.0155 15.1794 38.4179 17.3261 38.4179 19.8015Z" stroke="#FFC700" stroke-width="1.93361" stroke-miterlimit="10" stroke-linecap="round" stroke-linejoin="round"/>
<path d="M38.63 56.0061C39.4493 55.2076 38.9973 53.8162 37.865 53.6517L35.3859 53.2915C34.9362 53.2261 34.5476 52.9438 34.3466 52.5364L33.2378 50.2899C32.7315 49.264 31.2686 49.264 30.7623 50.2899L29.6536 52.5364C29.4524 52.9438 29.0638 53.2262 28.6142 53.2915L26.1349 53.6517C25.0028 53.8162 24.5508 55.2076 25.3699 56.0061L27.1639 57.7547C27.4893 58.0719 27.6377 58.5288 27.5609 58.9765L27.1374 61.4457C26.944 62.5733 28.1275 63.4332 29.1402 62.9008L31.3576 61.735C31.7597 61.5237 32.2401 61.5237 32.6422 61.735L34.8596 62.9008C35.8722 63.4332 37.0559 62.5733 36.8624 61.4457L36.4389 58.9765C36.362 58.5288 36.5105 58.0719 36.8359 57.7547L38.63 56.0061Z" stroke="#FFC700" stroke-width="1.93361" stroke-miterlimit="10" stroke-linecap="round" stroke-linejoin="round"/>
<path d="M51.999 52.535C52.6034 51.9459 52.2699 50.9195 51.4347 50.7981L49.6058 50.5324C49.2742 50.4841 48.9874 50.2759 48.8392 49.9754L48.0213 48.3181C47.6478 47.5613 46.5685 47.5613 46.195 48.3181L45.3772 49.9754C45.2288 50.2759 44.9422 50.4841 44.6104 50.5324L42.7815 50.7981C41.9464 50.9195 41.6129 51.9459 42.2172 52.535L43.5405 53.825C43.7805 54.059 43.89 54.396 43.8334 54.7263L43.521 56.5478C43.3784 57.3796 44.2514 58.0139 44.9984 57.6211L46.6342 56.7611C46.9308 56.6051 47.2852 56.6051 47.5818 56.7611L49.2175 57.6211C49.9645 58.0139 50.8377 57.3795 50.695 56.5478L50.3827 54.7263C50.326 54.3959 50.4355 54.0589 50.6755 53.825L51.999 52.535Z" stroke="#FFC700" stroke-width="1.93361" stroke-miterlimit="10" stroke-linecap="round" stroke-linejoin="round"/>
<path d="M62.8062 47.4506C63.3079 46.9614 63.031 46.1093 62.3377 46.0084L60.8192 45.7878C60.5438 45.7478 60.3057 45.5748 60.1825 45.3253L59.5034 43.9493C59.1933 43.3209 58.2972 43.3209 57.9872 43.9493L57.308 45.3253C57.1849 45.5748 56.9468 45.7478 56.6714 45.7878L55.1529 46.0084C54.4594 46.1092 54.1825 46.9614 54.6844 47.4506L55.7833 48.5217C55.9825 48.7159 56.0735 48.9958 56.0264 49.2701L55.767 50.7824C55.6485 51.4731 56.3735 51.9998 56.9938 51.6737L58.352 50.9597C58.5984 50.8302 58.8925 50.8302 59.1389 50.9597L60.4972 51.6737C61.1174 51.9998 61.8424 51.4731 61.7239 50.7824L61.4645 49.2701C61.4175 48.9958 61.5084 48.7159 61.7077 48.5217L62.8062 47.4506Z" stroke="#FFC700" stroke-width="1.93361" stroke-miterlimit="10" stroke-linecap="round" stroke-linejoin="round"/>
<path d="M12.0009 52.535C11.3965 51.9459 11.73 50.9195 12.5652 50.7981L14.3941 50.5324C14.7257 50.4841 15.0125 50.2759 15.1607 49.9754L15.9786 48.3181C16.3521 47.5613 17.4314 47.5613 17.8049 48.3181L18.6227 49.9754C18.7711 50.2759 19.0577 50.4841 19.3895 50.5324L21.2184 50.7981C22.0535 50.9195 22.387 51.9459 21.7827 52.535L20.4594 53.825C20.2194 54.059 20.1099 54.396 20.1665 54.7263L20.4789 56.5478C20.6215 57.3796 19.7485 58.0139 19.0014 57.6211L17.3656 56.7611C17.069 56.6051 16.7146 56.6051 16.418 56.7611L14.7822 57.6211C14.0352 58.0139 13.1621 57.3795 13.3047 56.5478L13.6171 54.7263C13.6737 54.3959 13.5642 54.0589 13.3242 53.825L12.0009 52.535Z" stroke="#FFC700" stroke-width="1.93361" stroke-miterlimit="10" stroke-linecap="round" stroke-linejoin="round"/>
<path d="M1.19375 47.4506C0.692001 46.9614 0.968876 46.1093 1.66225 46.0084L3.18075 45.7878C3.45613 45.7478 3.69425 45.5748 3.81738 45.3253L4.4965 43.9493C4.80663 43.3209 5.70275 43.3209 6.01275 43.9493L6.69188 45.3253C6.815 45.5748 7.05313 45.7478 7.3285 45.7878L8.847 46.0084C9.5405 46.1092 9.81738 46.9614 9.3155 47.4506L8.21663 48.5217C8.01738 48.7159 7.92638 48.9958 7.9735 49.2701L8.23288 50.7824C8.35138 51.4731 7.62638 51.9998 7.00613 51.6737L5.64788 50.9597C5.4015 50.8302 5.10738 50.8302 4.861 50.9597L3.50275 51.6737C2.8825 51.9998 2.1575 51.4731 2.276 50.7824L2.53538 49.2701C2.58238 48.9958 2.4915 48.7159 2.29225 48.5217L1.19375 47.4506Z" stroke="#FFC700" stroke-width="1.93361" stroke-miterlimit="10" stroke-linecap="round" stroke-linejoin="round"/>
<path d="M34.1876 44.0424H39.5869C40.6671 44.0424 41.5429 43.1667 41.5429 42.0864V35.7616C41.5429 30.47 37.178 26.1485 31.8708 26.2196C26.6305 26.29 22.4572 30.646 22.4572 35.8867V42.0863C22.4572 43.1665 23.333 44.0423 24.4132 44.0423H29.8125" stroke="#FFC700" stroke-width="1.93361" stroke-miterlimit="10" stroke-linecap="round" stroke-linejoin="round"/>
<path d="M53.8424 16.5104C53.015 14.386 50.951 12.8799 48.534 12.8799C45.388 12.8799 42.8378 15.4301 42.8378 18.5761C42.8378 21.7221 45.388 24.2724 48.534 24.2724C50.8576 24.2724 52.8549 22.8804 53.741 20.8854" stroke="#FFC700" stroke-width="1.93361" stroke-miterlimit="10" stroke-linecap="round" stroke-linejoin="round"/>
</g>
<defs>
<clipPath id="clip0_167_683">
<rect width="64" height="64" fill="white"/>
</clipPath>
</defs>
</svg>
