<svg width="64" height="64" viewBox="0 0 64 64" fill="none" xmlns="http://www.w3.org/2000/svg">
<g clip-path="url(#clip0_167_674)">
<path d="M46.3262 40.1951L54.8375 56.9826L47.415 56.7376L42.8462 63.0626L38.9012 55.2813" stroke="#0084FF" stroke-width="1.93359" stroke-miterlimit="10" stroke-linecap="round" stroke-linejoin="round"/>
<path d="M36.9225 51.379L33.9313 45.4802" stroke="#0084FF" stroke-width="1.93359" stroke-miterlimit="10" stroke-linecap="round" stroke-linejoin="round"/>
<path d="M17.6 40.3413L13.9575 47.5263" stroke="#0084FF" stroke-width="1.93359" stroke-miterlimit="10" stroke-linecap="round" stroke-linejoin="round"/>
<path d="M11.9787 51.429L9.16248 56.9827L16.585 56.7377L21.1537 63.0627L30.0687 45.4802" stroke="#0084FF" stroke-width="1.93359" stroke-miterlimit="10" stroke-linecap="round" stroke-linejoin="round"/>
<path d="M54.1175 25.2013V26.5713C54.1175 27.1238 53.6687 27.5713 53.1175 27.5713H50.1012C49.6425 29.4388 48.9037 31.1963 47.93 32.795L50.0562 34.9225C50.4475 35.3125 50.4475 35.9463 50.0562 36.3363L45.17 41.2225C44.78 41.6138 44.1462 41.6138 43.7562 41.2225L41.6225 39.09C40.0212 40.06 38.2625 40.795 36.3937 41.25V44.2575C36.3937 44.8088 35.9462 45.2575 35.3937 45.2575H28.4837C27.9312 45.2575 27.4837 44.8088 27.4837 44.2575V41.2413C25.6162 40.7825 23.8587 40.0438 22.2587 39.07L20.1325 41.1963C19.7412 41.5875 19.1087 41.5875 18.7175 41.1963L13.8312 36.31C13.4412 35.92 13.4412 35.2863 13.8312 34.8963L15.965 32.7625C14.995 31.1613 14.26 29.4025 13.805 27.5338H10.7975C10.245 27.5338 9.79749 27.0863 9.79749 26.5338V19.6238C9.79749 19.0713 10.245 18.6238 10.7975 18.6238H13.8137C14.2725 16.7563 15.0112 14.9988 15.9837 13.3988L13.8575 11.2725C13.4675 10.8813 13.4675 10.2488 13.8575 9.8575L18.7437 4.97125C19.135 4.58125 19.7675 4.58125 20.1587 4.97125L22.2912 7.105C23.8925 6.135 25.6512 5.4 27.52 4.945V1.9375C27.52 1.385 27.9687 0.9375 28.52 0.9375H35.4312C35.9837 0.9375 36.4312 1.385 36.4312 1.9375V4.95375C38.2987 5.4125 40.0562 6.15125 41.655 7.12375L43.7825 4.9975C44.1725 4.6075 44.8062 4.6075 45.1962 4.9975L50.0825 9.88375C50.4737 10.275 50.4737 10.9075 50.0825 11.2988L47.95 13.4313C48.92 15.0325 49.655 16.7913 50.11 18.66H53.1175C53.6687 18.66 54.1175 19.1088 54.1175 19.66V20.8263" stroke="#0084FF" stroke-width="1.93359" stroke-miterlimit="10" stroke-linecap="round" stroke-linejoin="round"/>
<path d="M25.3462 11.825C27.285 10.685 29.545 10.0312 31.9575 10.0312C39.1737 10.0312 45.0237 15.8813 45.0237 23.0975C45.0237 30.3138 39.1737 36.1638 31.9575 36.1638C24.7412 36.1638 18.8912 30.3138 18.8912 23.0975C18.8912 19.8788 20.055 16.9313 21.9875 14.6538" stroke="#0084FF" stroke-width="1.93359" stroke-miterlimit="10" stroke-linecap="round" stroke-linejoin="round"/>
<path d="M30.4812 30.257C29.9102 30.257 29.3652 30.013 28.9847 29.5845L24.1927 24.1885C23.4586 23.3619 23.5336 22.0967 24.3602 21.3626C25.1868 20.6286 26.4519 20.7035 27.1861 21.5301L30.3808 25.1276L36.7316 16.9774C37.4112 16.1052 38.6689 15.9491 39.5408 16.6287C40.4128 17.3082 40.5688 18.566 39.8894 19.438L32.0603 29.4856C31.6949 29.9546 31.1399 30.2369 30.5457 30.2559C30.5242 30.2566 30.5027 30.257 30.4812 30.257Z" stroke="#0084FF" stroke-width="1.93359" stroke-miterlimit="10" stroke-linecap="round" stroke-linejoin="round"/>
</g>
<defs>
<clipPath id="clip0_167_674">
<rect width="64" height="64" fill="white"/>
</clipPath>
</defs>
</svg>
