<svg width="64" height="64" viewBox="0 0 64 64" fill="none" xmlns="http://www.w3.org/2000/svg">
<path d="M28.9971 31.7847C22.6694 31.7847 17.5214 36.9328 17.5214 43.2608C17.5214 49.5907 22.6694 54.7403 28.9971 54.7403C35.3269 54.7403 40.4765 49.5905 40.4765 43.2608C40.4765 36.9328 35.3267 31.7847 28.9971 31.7847ZM28.9971 52.2403C24.0479 52.2403 20.0214 48.212 20.0214 43.2608C20.0214 38.3114 24.0479 34.2847 28.9971 34.2847C33.9484 34.2847 37.9765 38.3113 37.9765 43.2608C37.9765 48.2122 33.9484 52.2403 28.9971 52.2403Z" fill="#FF800B"/>
<path d="M32.5935 42.0107H30.2471V38.0874C30.2471 37.397 29.6874 36.8374 28.9971 36.8374C28.3069 36.8374 27.7471 37.397 27.7471 38.0874V43.2607C27.7471 43.951 28.3069 44.5107 28.9971 44.5107H32.5935C33.2838 44.5107 33.8435 43.951 33.8435 43.2607C33.8435 42.5703 33.2839 42.0107 32.5935 42.0107Z" fill="#FF800B"/>
<path d="M60.3158 4.19971H25.2412C23.2097 4.19971 21.557 5.85246 21.557 7.88408V28.4961C20.0667 29.2501 18.7061 30.2241 17.5163 31.3737H12.4502C11.76 31.3737 11.2002 31.9333 11.2002 32.6237C11.2002 33.3141 11.76 33.8737 12.4502 33.8737H15.3938C14.7835 34.7552 14.2571 35.6985 13.8252 36.6922H7.88287C7.19263 36.6922 6.63287 37.2518 6.63287 37.9422C6.63287 38.6326 7.19263 39.1922 7.88287 39.1922H12.9683C12.7366 40.1041 12.5816 41.0461 12.5091 42.0107H1.25C0.55975 42.0107 0 42.5703 0 43.2607C0 43.9511 0.55975 44.5107 1.25 44.5107H12.5085C12.5809 45.4755 12.7368 46.4172 12.9683 47.3292H7.88287C7.19263 47.3292 6.63287 47.8888 6.63287 48.5792C6.63287 49.2696 7.19263 49.8292 7.88287 49.8292H13.8229C14.2545 50.823 14.7809 51.7662 15.3906 52.6477H12.4502C11.76 52.6477 11.2002 53.2073 11.2002 53.8977C11.2002 54.5881 11.76 55.1477 12.4502 55.1477H17.5123C20.489 58.0261 24.5396 59.8001 28.9971 59.8001C36.9589 59.8001 43.6242 54.1447 45.1885 46.6401H60.3158C62.3473 46.6401 64 44.9873 64 42.9558V7.88408C64 5.85246 62.3473 4.19971 60.3158 4.19971ZM38.237 6.69971H47.3199V18.0332L43.4911 15.366C43.0616 15.0667 42.4912 15.0668 42.0617 15.3661L38.2369 18.0323V6.69971H38.237ZM28.9971 57.3002C21.2579 57.3002 14.9616 51.0021 14.9616 43.2607C14.9616 35.5212 21.2579 29.2247 28.9971 29.2247C36.7384 29.2247 43.0361 35.5212 43.0361 43.2607C43.0361 51.0021 36.7383 57.3002 28.9971 57.3002ZM61.5 42.956C61.5 43.609 60.9688 44.1402 60.3158 44.1402H45.5127C45.5281 43.849 45.5363 43.5557 45.5363 43.2607C45.5363 34.1427 38.1169 26.7247 28.9972 26.7247C27.2773 26.7247 25.6179 26.9891 24.0571 27.4786V7.88408C24.0571 7.23108 24.5884 6.69971 25.2414 6.69971H35.7373V20.4275C35.7373 20.8931 35.996 21.3202 36.4089 21.5356C36.8216 21.7511 37.3199 21.7192 37.7021 21.4528L42.7772 17.9151L47.8558 21.4531C48.0694 21.602 48.3192 21.6775 48.5704 21.6775C48.7682 21.6775 48.9669 21.6306 49.1488 21.5356C49.5615 21.3201 49.8203 20.8931 49.8203 20.4275V6.69971H60.3161C60.9691 6.69971 61.5004 7.23096 61.5004 7.88408V42.956H61.5Z" fill="#FF800B"/>
<path d="M5.20776 33.8735H7.33726C8.02751 33.8735 8.58726 33.3139 8.58726 32.6235C8.58726 31.9332 8.02751 31.3735 7.33726 31.3735H5.20776C4.51751 31.3735 3.95776 31.9332 3.95776 32.6235C3.95776 33.3139 4.51751 33.8735 5.20776 33.8735Z" fill="#FF800B"/>
<path d="M7.33726 52.6479H5.20776C4.51751 52.6479 3.95776 53.2076 3.95776 53.8979C3.95776 54.5883 4.51751 55.1479 5.20776 55.1479H7.33726C8.02751 55.1479 8.58726 54.5883 8.58726 53.8979C8.58726 53.2076 8.02764 52.6479 7.33726 52.6479Z" fill="#FF800B"/>
</svg>
