<svg width="64" height="64" viewBox="0 0 64 64" fill="none" xmlns="http://www.w3.org/2000/svg">
<g clip-path="url(#clip0_167_649)">
<path d="M63.6338 11.7395L52.2588 0.366125C52.0244 0.13175 51.7065 0 51.375 0H14.25C12.1823 0 10.5 1.68225 10.5 3.75V6.133C4.35938 8.54175 0 14.5269 0 21.5114C0 22.2016 0.55975 22.7614 1.25 22.7614H16.5114C17.2016 22.7614 17.7614 22.2016 17.7614 21.5114V6.25C17.7614 5.55975 17.2016 5 16.5114 5C15.3066 5 14.1321 5.13087 13 5.37712V3.75C13 3.06075 13.5608 2.5 14.25 2.5H50.125V10.125C50.125 12.1927 51.8073 13.875 53.875 13.875H61.5V60.25C61.5 60.9393 60.9393 61.5 60.25 61.5H14.25C13.5608 61.5 13 60.9393 13 60.25V49.5416C13 48.8514 12.4403 48.2916 11.75 48.2916C11.0597 48.2916 10.5 48.8514 10.5 49.5416V60.25C10.5 62.3177 12.1823 64 14.25 64H60.25C62.3177 64 64 62.3177 64 60.25V12.6234C64 12.2919 63.8683 11.9739 63.6338 11.7395ZM15.2612 7.55538V20.2614H2.55525C3.15287 13.5304 8.53037 8.153 15.2612 7.55538ZM53.875 11.375C53.1857 11.375 52.625 10.8142 52.625 10.125V4.2675L59.7335 11.375H53.875Z" fill="#DC3545"/>
<path d="M12.6336 44.1158C12.4013 43.8831 12.0788 43.7495 11.75 43.7495C11.4212 43.7495 11.0988 43.8831 10.8663 44.1158C10.6338 44.3483 10.5 44.6708 10.5 44.9995C10.5 45.3283 10.6336 45.6508 10.8663 45.8831C11.0988 46.1158 11.4212 46.2495 11.75 46.2495C12.0788 46.2495 12.4013 46.1158 12.6336 45.8831C12.8663 45.6508 13 45.3283 13 44.9995C13 44.6708 12.8663 44.3483 12.6336 44.1158Z" fill="#DC3545"/>
<path d="M20.9886 9.47705C20.2984 9.47705 19.7386 10.0368 19.7386 10.7271V24.7383H5.72736C5.03711 24.7383 4.47736 25.298 4.47736 25.9883C4.47736 35.0927 11.8842 42.4997 20.9886 42.4997C30.093 42.4997 37.5 35.0927 37.5 25.9883C37.5 16.8839 30.093 9.47705 20.9886 9.47705ZM22.2386 12.0324C25.1649 12.2922 27.835 13.4559 29.9681 15.2412L22.2386 22.9706V12.0324ZM20.9886 39.9997C13.684 39.9997 7.66686 34.3811 7.03273 27.2383H20.9886C21.3336 27.2383 21.6459 27.0986 21.8721 26.8726C21.8721 26.8726 21.8724 26.8724 21.8726 26.8722L31.7362 17.0087C33.7726 19.4421 35 22.5746 35 25.9883C35 33.7142 28.7145 39.9997 20.9886 39.9997Z" fill="#DC3545"/>
<path d="M54.7592 39.4502C52.6914 39.4502 51.0092 41.1324 51.0092 43.2002C51.0092 43.7184 51.1149 44.2123 51.3058 44.6617L44.1042 51.8633C43.6093 51.6222 43.0538 51.4866 42.4673 51.4866C41.8947 51.4866 41.3519 51.6161 40.866 51.8464L36.0838 47.0642C36.2495 46.6412 36.3415 46.1813 36.3415 45.7001C36.3415 43.6323 34.6593 41.9501 32.5915 41.9501C30.5238 41.9501 28.8415 43.6323 28.8415 45.7001C28.8415 46.2603 28.9659 46.7918 29.1872 47.2697L24.6003 51.8566C24.1117 51.6228 23.5649 51.4917 22.9882 51.4917C20.9204 51.4917 19.2382 53.1739 19.2382 55.2417C19.2382 57.3094 20.9204 58.9917 22.9882 58.9917C25.0559 58.9917 26.7382 57.3094 26.7382 55.2417C26.7382 54.6621 26.6059 54.1128 26.3702 53.6224L30.9314 49.0612C31.4323 49.3097 31.9958 49.4501 32.5918 49.4501C33.2649 49.4501 33.8965 49.2709 34.4432 48.9592L39.0905 53.6066C38.8515 54.0997 38.7173 54.6527 38.7173 55.2366C38.7173 57.3043 40.3995 58.9866 42.4673 58.9866C44.535 58.9866 46.2173 57.3043 46.2173 55.2366C46.2173 54.6668 46.089 54.1266 45.8607 53.6426L52.995 46.5082C53.5212 46.7899 54.1218 46.9502 54.7592 46.9502C56.8269 46.9502 58.5092 45.2679 58.5092 43.2002C58.5092 41.1324 56.8269 39.4502 54.7592 39.4502ZM22.988 56.4918C22.2988 56.4918 21.738 55.9311 21.738 55.2418C21.738 54.5526 22.2988 53.9918 22.988 53.9918C23.3237 53.9918 23.628 54.1254 23.8528 54.3414C23.8578 54.3467 23.8622 54.3523 23.8673 54.3574C23.8733 54.3634 23.8798 54.3684 23.8859 54.3742C24.1034 54.5992 24.238 54.9049 24.238 55.2418C24.238 55.9309 23.6773 56.4918 22.988 56.4918ZM32.5915 46.9501C31.9023 46.9501 31.3415 46.3893 31.3415 45.7001C31.3415 45.0108 31.9023 44.4501 32.5915 44.4501C33.2808 44.4501 33.8415 45.0108 33.8415 45.7001C33.8415 46.3893 33.2808 46.9501 32.5915 46.9501ZM42.467 56.4866C41.7778 56.4866 41.217 55.9258 41.217 55.2366C41.217 54.5473 41.7778 53.9866 42.467 53.9866C43.1563 53.9866 43.717 54.5473 43.717 55.2366C43.717 55.9258 43.1563 56.4866 42.467 56.4866ZM54.7589 44.4501C54.0697 44.4501 53.5089 43.8893 53.5089 43.2001C53.5089 42.5108 54.0698 41.9501 54.7589 41.9501C55.4482 41.9501 56.0089 42.5108 56.0089 43.2001C56.0089 43.8893 55.4482 44.4501 54.7589 44.4501Z" fill="#DC3545"/>
<path d="M48.5113 29.3748H41.9139C41.2236 29.3748 40.6639 29.9345 40.6639 30.6248C40.6639 31.315 41.2235 31.8748 41.9139 31.8748H48.5113C49.2015 31.8748 49.7613 31.315 49.7613 30.6248C49.7613 29.9345 49.2015 29.3748 48.5113 29.3748Z" fill="#DC3545"/>
<path d="M55.0861 29.741C54.8538 29.5085 54.5313 29.3748 54.2025 29.3748C53.8738 29.3748 53.5513 29.5084 53.3188 29.741C53.0863 29.9735 52.9525 30.296 52.9525 30.6248C52.9525 30.9535 53.0861 31.276 53.3188 31.5084C53.5513 31.7409 53.8725 31.8748 54.2025 31.8748C54.5313 31.8748 54.8538 31.741 55.0861 31.5084C55.3186 31.276 55.4525 30.9535 55.4525 30.6248C55.4525 30.296 55.3188 29.9735 55.0861 29.741Z" fill="#DC3545"/>
<path d="M57.1831 17.3745H41.9139C41.2236 17.3745 40.6639 17.9343 40.6639 18.6245C40.6639 19.3148 41.2235 19.8745 41.9139 19.8745H57.1831C57.8734 19.8745 58.4331 19.3148 58.4331 18.6245C58.4331 17.9343 57.8734 17.3745 57.1831 17.3745Z" fill="#DC3545"/>
<path d="M57.1831 23.3748H41.9139C41.2236 23.3748 40.6639 23.9345 40.6639 24.6248C40.6639 25.315 41.2235 25.8748 41.9139 25.8748H57.1831C57.8734 25.8748 58.4331 25.315 58.4331 24.6248C58.4331 23.9345 57.8734 23.3748 57.1831 23.3748Z" fill="#DC3545"/>
</g>
<defs>
<clipPath id="clip0_167_649">
<rect width="64" height="64" fill="white"/>
</clipPath>
</defs>
</svg>
