<svg width="38" height="37" viewBox="0 0 38 37" fill="none" xmlns="http://www.w3.org/2000/svg">
<circle cx="19" cy="18.5" r="18.5" fill="#855BFF"/>
<path d="M27.75 15.4941C27.7483 15.5921 27.7272 15.6888 27.6875 15.7783C27.6489 15.8655 27.5922 15.9429 27.5234 16.0088L27.5244 16.0098L19.5117 24.0332L19.4014 24.125C19.3618 24.1518 19.3197 24.1748 19.2754 24.1934C19.1865 24.2306 19.0905 24.25 18.9941 24.25C18.8979 24.25 18.8027 24.2305 18.7139 24.1934C18.6254 24.1563 18.546 24.1014 18.4785 24.0332L18.4775 24.0342L10.4697 16.0127C10.3996 15.9451 10.3433 15.8643 10.3057 15.7744C10.2681 15.6848 10.2502 15.5884 10.251 15.4912C10.2522 15.2981 10.3292 15.114 10.4658 14.9775L10.4648 14.9766C10.5325 14.9084 10.6135 14.8544 10.7021 14.8174C10.7909 14.7804 10.8863 14.7608 10.9824 14.7607C11.0786 14.7607 11.1739 14.7804 11.2627 14.8174C11.3514 14.8544 11.4323 14.9083 11.5 14.9766L18.9951 22.4824L26.4912 14.9756L26.4922 14.9766C26.5579 14.9078 26.6357 14.8512 26.7227 14.8125C26.8122 14.7727 26.9089 14.7517 27.0068 14.75C27.1048 14.7484 27.2021 14.767 27.293 14.8037C27.3839 14.8405 27.4668 14.8954 27.5361 14.9648C27.6052 15.0341 27.6596 15.1164 27.6963 15.207C27.733 15.298 27.7516 15.3961 27.75 15.4941Z" fill="white" stroke="white" stroke-width="0.5"/>
</svg>
