<svg width="38" height="37" viewBox="0 0 38 37" fill="none" xmlns="http://www.w3.org/2000/svg">
<circle cx="18.5" cy="18.5" r="18.5" transform="matrix(1 0 0 -1 0.5 37)" fill="#855BFF"/>
<path d="M27.75 21.5059C27.7483 21.4079 27.7272 21.3112 27.6875 21.2217C27.6489 21.1345 27.5922 21.0571 27.5234 20.9912L27.5244 20.9902L19.5117 12.9668L19.4014 12.875C19.3618 12.8482 19.3197 12.8252 19.2754 12.8066C19.1865 12.7694 19.0905 12.75 18.9941 12.75C18.8979 12.75 18.8027 12.7695 18.7139 12.8066C18.6254 12.8437 18.546 12.8986 18.4785 12.9668L18.4775 12.9658L10.4697 20.9873C10.3996 21.0549 10.3433 21.1357 10.3057 21.2256C10.2681 21.3152 10.2502 21.4116 10.251 21.5088C10.2522 21.7019 10.3292 21.886 10.4658 22.0225L10.4648 22.0234C10.5325 22.0916 10.6135 22.1456 10.7021 22.1826C10.7909 22.2196 10.8863 22.2392 10.9824 22.2393C11.0786 22.2393 11.1739 22.2196 11.2627 22.1826C11.3514 22.1456 11.4323 22.0917 11.5 22.0234L18.9951 14.5176L26.4912 22.0244L26.4922 22.0234C26.5579 22.0922 26.6357 22.1488 26.7227 22.1875C26.8122 22.2273 26.9089 22.2483 27.0068 22.25C27.1048 22.2516 27.2021 22.233 27.293 22.1963C27.3839 22.1595 27.4668 22.1046 27.5361 22.0352C27.6052 21.9659 27.6596 21.8836 27.6963 21.793C27.733 21.702 27.7516 21.6039 27.75 21.5059Z" fill="white" stroke="white" stroke-width="0.5"/>
</svg>
