<svg width="46" height="46" viewBox="0 0 46 46" fill="none" xmlns="http://www.w3.org/2000/svg">
<g clip-path="url(#clip0_248_293)">
<path d="M30.6884 15.4148L31.3955 23.193C31.4663 23.5466 31.3248 23.8294 31.1127 24.0415C30.9713 24.183 30.6884 24.3244 30.547 24.3244C29.9813 24.3244 29.4864 23.9708 29.4864 23.4052L28.9207 17.7483L19.799 26.87C19.3747 27.2942 18.809 27.2942 18.3848 26.87C17.9605 26.4457 17.9605 25.88 18.3848 25.4558L27.4357 16.4048L21.7789 15.8391C21.2132 15.8391 20.7889 15.2734 20.8596 14.7785C20.8596 14.2128 21.4253 13.7885 21.9203 13.8592L29.6985 14.5663C30.2642 14.5663 30.6884 14.9906 30.6884 15.4148Z" fill="#171717"/>
<path d="M17.6777 28.9914L16.2635 30.4056C15.8392 30.8299 15.2735 30.8299 14.8492 30.4056C14.425 29.9813 14.425 29.4156 14.8492 28.9914L16.2635 27.5772C16.6877 27.1529 17.2534 27.1529 17.6777 27.5772C18.1019 28.0014 18.0312 28.6378 17.6777 28.9914Z" fill="#171717"/>
</g>
<defs>
<clipPath id="clip0_248_293">
<rect width="45.2548" height="45.2548" fill="white"/>
</clipPath>
</defs>
</svg>
