<svg width="32" height="32" viewBox="0 0 32 32" fill="none" xmlns="http://www.w3.org/2000/svg">
<path d="M16 15.3337C15.116 15.3337 14.2681 14.9825 13.643 14.3573C13.0179 13.7322 12.6667 12.8844 12.6667 12.0003C12.6667 11.1163 13.0179 10.2684 13.643 9.6433C14.2681 9.01818 15.116 8.66699 16 8.66699C16.8841 8.66699 17.7319 9.01818 18.357 9.6433C18.9822 10.2684 19.3334 11.1163 19.3334 12.0003C19.3334 12.4381 19.2471 12.8715 19.0796 13.2759C18.9121 13.6804 18.6666 14.0478 18.357 14.3573C18.0475 14.6669 17.68 14.9124 17.2756 15.0799C16.8712 15.2474 16.4378 15.3337 16 15.3337ZM16 2.66699C13.5247 2.66699 11.1507 3.65032 9.40036 5.40066C7.65002 7.151 6.66669 9.52497 6.66669 12.0003C6.66669 19.0003 16 29.3337 16 29.3337C16 29.3337 25.3334 19.0003 25.3334 12.0003C25.3334 9.52497 24.35 7.151 22.5997 5.40066C20.8493 3.65032 18.4754 2.66699 16 2.66699Z" fill="white"/>
</svg>
