<svg width="24" height="25" viewBox="0 0 24 25" fill="none" xmlns="http://www.w3.org/2000/svg">
<g clip-path="url(#clip0_248_280)">
<path d="M22.0879 13.774H21.3145V24.0429C21.3145 24.172 21.2093 24.2772 21.0802 24.2772H18.83C18.7009 24.2772 18.5956 24.172 18.5956 24.0429V13.774H17.8222C17.563 13.774 17.4182 13.4763 17.5781 13.2723L19.4669 10.8642C19.7152 10.5477 20.1949 10.5477 20.4433 10.8642L22.332 13.2723C22.492 13.4763 22.3471 13.774 22.0879 13.774ZM11.1142 5.28139C11.1142 4.52557 10.5365 3.90476 9.79853 3.83623L10.9823 5.88659C11.0669 5.70242 11.1142 5.49743 11.1142 5.28139ZM9.69508 8.99483L6.46295 3.39654C5.91208 4.21029 5.48457 5.00895 4.72276 5.63689C5.44351 6.88512 6.16417 8.1334 6.88483 9.38168C7.80953 9.03593 8.71492 9.065 9.69508 8.99483ZM16.2042 8.10354C16.1619 7.9392 15.976 7.85932 15.8277 7.94178L13.0712 9.47309C12.8785 9.58015 12.9012 9.85418 13.0948 9.93739L13.8113 10.2452C13.027 11.6699 10.8328 14.287 4.83268 16.4202C10.633 16.3808 13.8239 13.5657 15.7761 11.0895L16.6375 11.4596C16.8312 11.543 17.0457 11.3707 16.9907 11.1572L16.2042 8.10354ZM10.5188 9.01522C10.6924 9.31592 11.0805 9.41989 11.3811 9.24626C11.6814 9.07292 11.7856 8.68414 11.6122 8.3839L7.95057 2.04181C7.77695 1.74115 7.38887 1.63714 7.08822 1.81072C6.78798 1.98406 6.68382 2.37284 6.85717 2.67307L10.5188 9.01522ZM5.2194 11.0881L6.89697 12.7657C7.02306 12.8918 7.2287 12.8917 7.35479 12.7657L7.83072 12.2898C7.95681 12.1637 7.95681 11.958 7.83072 11.832L6.40333 10.4046L5.2194 11.0881ZM6.61628 19.7993H4.36614C4.23704 19.7993 4.13176 19.9046 4.13176 20.0337V24.0428C4.13176 24.1719 4.23704 24.2772 4.36614 24.2772H6.61632C6.74542 24.2772 6.8507 24.1719 6.8507 24.0428V20.0337C6.85065 19.9046 6.74537 19.7993 6.61628 19.7993ZM12.7467 3.90579L13.6679 3.37395C13.8355 3.27687 13.8927 3.06228 13.7956 2.89465C13.6985 2.72707 13.4839 2.66984 13.3164 2.76692L12.3952 3.29881C12.2275 3.39589 12.1704 3.61048 12.2674 3.77811C12.3645 3.94568 12.5791 4.00287 12.7467 3.90579ZM12.5535 5.95592C12.5035 6.14323 12.6147 6.3357 12.8021 6.38576L13.8295 6.66106C14.0169 6.71112 14.2093 6.59979 14.2593 6.41248C14.3094 6.22517 14.1981 6.0327 14.0108 5.98264L12.9834 5.70734C12.796 5.65728 12.6036 5.76856 12.5535 5.95592ZM1.7559 9.84636C1.98718 10.247 2.42673 10.4578 2.86159 10.4221L1.8099 8.60061C1.56118 8.95925 1.5242 9.44506 1.7559 9.84636ZM16.2588 15.7824C15.5088 15.7824 14.7587 15.7824 14.0087 15.7824C13.8796 15.7824 13.7743 15.8877 13.7743 16.0168V24.0429C13.7743 24.172 13.8796 24.2772 14.0087 24.2772H16.2588C16.3879 24.2772 16.4932 24.172 16.4932 24.0429C16.4932 21.3675 16.4932 18.6922 16.4932 16.0168C16.4932 15.8877 16.3879 15.7824 16.2588 15.7824ZM4.5782 10.6464L6.2469 9.68295C5.54556 8.46818 4.84426 7.25347 4.14292 6.0387L2.47422 7.00212C2.15397 7.187 2.04357 7.59903 2.2285 7.91928C2.70601 8.74639 3.18357 9.5735 3.66109 10.4006C3.84597 10.7209 4.25795 10.8313 4.5782 10.6464ZM11.4376 17.7908C10.6875 17.7908 9.93747 17.7908 9.18737 17.7908C9.05828 17.7908 8.953 17.8961 8.953 18.0252V24.0428C8.953 24.1719 9.05828 24.2772 9.18737 24.2772H11.4376C11.5667 24.2772 11.6719 24.1719 11.6719 24.0428C11.6719 22.037 11.6719 20.0311 11.6719 18.0252C11.6719 17.8961 11.5667 17.7908 11.4376 17.7908ZM10.5244 2.44072C10.7117 2.49078 10.9042 2.3795 10.9543 2.19214L11.2296 1.16473C11.2796 0.977419 11.1683 0.78495 10.981 0.734887C10.7937 0.684825 10.6012 0.796153 10.5512 0.983465L10.2759 2.01092C10.2258 2.19818 10.3371 2.39065 10.5244 2.44072Z" fill="white"/>
</g>
<defs>
<clipPath id="clip0_248_280">
<rect width="24" height="24" fill="white" transform="translate(0 0.5)"/>
</clipPath>
</defs>
</svg>
