<svg width="24" height="25" viewBox="0 0 24 25" fill="none" xmlns="http://www.w3.org/2000/svg">
<path fill-rule="evenodd" clip-rule="evenodd" d="M5.06813 19.1042L6.81516 22.2861C7.07344 22.7567 6.92297 23.3506 6.45797 23.6192C5.99297 23.8873 5.38313 23.7327 5.12484 23.262L3.13406 19.6358C3.19922 19.6241 3.26438 19.6095 3.32953 19.5922C3.91594 19.4352 4.48828 19.2612 5.06813 19.1047V19.1042ZM18.6141 1.25C21.1744 1.25 23.25 2.72656 23.25 4.54766C23.25 6.36875 21.1744 7.84531 18.6141 7.84531C17.7211 7.84531 16.8872 7.66578 16.1798 7.35453C16.1025 7.32078 16.02 7.32875 15.9506 7.37703L14.4863 8.40547C14.3859 8.47578 14.2561 8.36938 14.3053 8.25734L14.9527 6.785C14.993 6.69266 14.9723 6.59 14.8997 6.52109C14.3212 5.97078 13.9786 5.28781 13.9786 4.54813C13.9786 2.72703 16.0542 1.25047 18.6145 1.25047L18.6141 1.25ZM15.938 16.2847C15.8264 16.2205 15.7875 16.078 15.8517 15.9659C15.9159 15.8544 16.0584 15.8155 16.1705 15.8797L17.9723 16.9198C18.0839 16.9841 18.1228 17.1266 18.0586 17.2386C17.9944 17.3502 17.8519 17.3891 17.7398 17.3248L15.938 16.2847ZM15.0267 11.6094C14.962 11.7209 14.8191 11.7594 14.707 11.6947C14.5955 11.63 14.557 11.487 14.6217 11.375L15.6619 9.57312C15.7266 9.46156 15.8695 9.42313 15.9816 9.48781C16.0931 9.5525 16.1316 9.69547 16.0669 9.8075L15.0267 11.6094ZM16.4503 13.7586C16.3256 13.7919 16.1972 13.7178 16.1639 13.5927C16.1306 13.4675 16.2047 13.3395 16.3298 13.3063L18.3394 12.7677C18.4641 12.7344 18.5925 12.8084 18.6258 12.9336C18.6591 13.0583 18.585 13.1867 18.4598 13.22L16.4503 13.7586ZM21.345 3.63359H16.2867C16.1573 3.63359 16.0523 3.73859 16.0523 3.86797C16.0523 3.99734 16.1573 4.10234 16.2867 4.10234H21.345C21.4744 4.10234 21.5794 3.99734 21.5794 3.86797C21.5794 3.73859 21.4744 3.63359 21.345 3.63359ZM16.2867 4.99391C16.1578 4.99391 16.0533 5.09844 16.0533 5.22734C16.0533 5.35625 16.1578 5.46078 16.2867 5.46078L19.6247 5.44953C19.7536 5.44953 19.8581 5.345 19.8581 5.21609C19.8581 5.08719 19.7536 4.98266 19.6247 4.98266L16.2867 4.99391ZM1.62047 4.06109H7.29C7.76953 4.06109 8.16047 4.45203 8.16047 4.93156V8.49828C8.16047 8.97781 7.76953 9.36875 7.29 9.36875H1.62047C1.14094 9.36875 0.75 8.97781 0.75 8.49828V4.93156C0.75 4.45203 1.14094 4.06109 1.62047 4.06109ZM5.59031 6.97906C5.79422 6.86141 5.79422 6.56891 5.59031 6.45125L4.19063 5.64313C3.98672 5.52547 3.73359 5.67172 3.73359 5.90703V7.52328C3.73359 7.75859 3.98672 7.90484 4.19063 7.78719L5.59031 6.97906ZM21.8105 20.3122C21.8105 19.4516 21.1692 18.7541 20.378 18.7541C19.8061 18.7541 19.3125 19.1183 19.0828 19.6452C18.8531 19.1183 18.3595 18.7541 17.7877 18.7541C16.9964 18.7541 16.3552 19.4516 16.3552 20.3122C16.3552 21.2956 18.2095 22.9409 18.8663 23.652C18.9858 23.7814 19.1798 23.7814 19.2994 23.652C19.9561 22.9414 21.8105 21.2956 21.8105 20.3122ZM10.822 8.64547C10.4222 8.75281 10.1822 9.16766 10.2895 9.5675L13.0894 20.0159C13.1967 20.4158 13.6116 20.6558 14.0114 20.5484C14.4113 20.4411 14.6512 20.0263 14.5439 19.6264L11.7441 9.17797C11.6367 8.77813 11.2219 8.53813 10.822 8.64547ZM5.93813 18.4072C5.80266 18.4362 5.67656 18.4648 5.5575 18.493L4.52859 14.653C4.64578 14.6173 4.76953 14.5789 4.90125 14.5367C7.69266 13.6386 9.31078 12.1967 10.1405 10.8214L12.3333 19.0058C10.927 18.2295 8.80453 17.7898 5.93813 18.4077V18.4072ZM5.10281 18.6055L4.07859 14.7828C3.46031 14.953 2.96578 15.0552 2.17078 15.2684C1.14422 15.5436 0.529688 16.6081 0.823125 17.7041C1.11656 18.7995 2.18156 19.4145 3.20813 19.1394C4.00313 18.9266 4.48266 18.7677 5.10281 18.6059V18.6055ZM13.2844 13.1141L13.9416 13.1197C14.1928 13.122 14.4042 13.2856 14.4694 13.5284L14.7286 14.4955C14.7937 14.7383 14.6925 14.9858 14.4759 15.1133L13.9097 15.447L13.2844 13.1136V13.1141Z" fill="white"/>
</svg>
