<svg width="24" height="25" viewBox="0 0 24 25" fill="none" xmlns="http://www.w3.org/2000/svg">
<path fill-rule="evenodd" clip-rule="evenodd" d="M7.5 14H3C2.17125 14 1.5 14.6713 1.5 15.5V21.5C1.5 22.3288 2.17125 23 3 23H7.5C8.32875 23 9 22.3288 9 21.5V15.5C9 14.6713 8.32875 14 7.5 14ZM18.75 17H22.5V10.25C22.5 9.00725 21.4928 8 20.25 8H12.75C12.153 8 11.5807 8.237 11.1592 8.65925C10.737 9.08075 10.5 9.653 10.5 10.25V20.75C10.5 21.347 10.737 21.9193 11.1592 22.3408C11.5807 22.763 12.153 23 12.75 23H16.5V19.25C16.5 18.0072 17.5072 17 18.75 17ZM22.0335 18.5H18.75C18.336 18.5 18 18.836 18 19.25V22.5335C18.0772 22.475 18.15 22.4105 18.2197 22.3408L21.8408 18.7197C21.9105 18.65 21.975 18.5772 22.0335 18.5ZM4.5 17.75V19.25C4.5 19.664 4.836 20 5.25 20C5.664 20 6 19.664 6 19.25V17.75C6 17.336 5.664 17 5.25 17C4.836 17 4.5 17.336 4.5 17.75ZM14.25 15.5H17.25C17.664 15.5 18 15.164 18 14.75C18 14.336 17.664 14 17.25 14H14.25C13.836 14 13.5 14.336 13.5 14.75C13.5 15.164 13.836 15.5 14.25 15.5ZM14.25 12.5H18.75C19.164 12.5 19.5 12.164 19.5 11.75C19.5 11.336 19.164 11 18.75 11H14.25C13.836 11 13.5 11.336 13.5 11.75C13.5 12.164 13.836 12.5 14.25 12.5ZM8.13375 12.3598L4.863 8.76425C4.08225 7.9055 4.08225 6.5945 4.863 5.73575L8.13375 2.14025C7.93725 2.04875 7.72125 2 7.5 2H3C2.6025 2 2.22075 2.15825 1.9395 2.4395C1.65825 2.72075 1.5 3.1025 1.5 3.5V11C1.5 11.3975 1.65825 11.7793 1.9395 12.0605C2.22075 12.3418 2.6025 12.5 3 12.5H7.5C7.72125 12.5 7.93725 12.4513 8.13375 12.3598ZM8.99775 3.41975L5.973 6.74525C5.71275 7.03175 5.71275 7.46825 5.973 7.75475L8.99775 11.0803C8.99925 11.0533 9 11.027 9 11C9 9.305 9 5.195 9 3.5C9 3.473 8.99925 3.446 8.99775 3.41975ZM18.75 2H13.6612C13.4482 2 13.2382 2.045 13.044 2.13275L11.3835 2.88275C10.8458 3.12575 10.5007 3.6605 10.5007 4.25C10.5007 4.8395 10.8458 5.37425 11.3835 5.61725L13.044 6.36725C13.2382 6.455 13.4482 6.5 13.6612 6.5H18.75V2ZM20.25 2V6.5H21C21.8288 6.5 22.5 5.82875 22.5 5V3.5C22.5 2.67125 21.8288 2 21 2H20.25Z" fill="white"/>
</svg>
