<svg width="24" height="25" viewBox="0 0 24 25" fill="none" xmlns="http://www.w3.org/2000/svg">
<path d="M22.247 11.9405C21.7755 11.6695 21.214 11.6715 20.744 11.9455L18 13.5465V18.954L20.744 20.555C20.9805 20.693 21.24 20.762 21.5 20.762C21.7565 20.762 22.013 20.695 22.247 20.5605C22.7185 20.2895 23 19.8035 23 19.26V13.242C23 12.6985 22.7185 12.212 22.247 11.9415V11.9405Z" fill="white"/>
<path d="M15.301 11.1435C16.331 10.368 17 9.1385 17 7.75C17 5.403 15.097 3.5 12.75 3.5C10.403 3.5 8.5 5.403 8.5 7.75C8.5 9.0545 9.089 10.2205 10.014 11H7.2935C8.0335 10.315 8.5 9.338 8.5 8.25C8.5 6.179 6.821 4.5 4.75 4.5C2.679 4.5 1 6.179 1 8.25C1 9.464 1.5795 10.5405 2.4745 11.226C1.6075 11.619 1 12.488 1 13.5V19C1 20.3785 2.1215 21.5 3.5 21.5H14.5C15.8785 21.5 17 20.3785 17 19V13.5C17 12.403 16.2855 11.4795 15.301 11.1435ZM3.25 8.25C3.25 7.4215 3.9215 6.75 4.75 6.75C5.5785 6.75 6.25 7.4215 6.25 8.25C6.25 9.0785 5.5785 9.75 4.75 9.75C3.9215 9.75 3.25 9.0785 3.25 8.25ZM6 19H4C3.724 19 3.5 18.776 3.5 18.5C3.5 18.224 3.724 18 4 18H6C6.276 18 6.5 18.224 6.5 18.5C6.5 18.776 6.276 19 6 19ZM12.75 9.75C11.6455 9.75 10.75 8.8545 10.75 7.75C10.75 6.6455 11.6455 5.75 12.75 5.75C13.8545 5.75 14.75 6.6455 14.75 7.75C14.75 8.8545 13.8545 9.75 12.75 9.75Z" fill="white"/>
</svg>
