<svg width="66" height="65" viewBox="0 0 66 65" fill="none" xmlns="http://www.w3.org/2000/svg">
<path d="M55.4749 54.9289H45.8278V39.97C45.8278 36.4028 45.7635 31.8109 40.8103 31.8109C35.7858 31.8109 35.017 35.6974 35.017 39.7103V54.9279H25.3699V24.1662H34.6311V28.3701H34.7607C35.6876 26.801 37.0269 25.5102 38.636 24.6352C40.2451 23.7601 42.0638 23.3336 43.8984 23.401C53.6761 23.401 55.4789 29.7691 55.4789 38.0536L55.4749 54.9289ZM14.4847 19.9613C13.3775 19.9615 12.295 19.6366 11.3743 19.0277C10.4535 18.4187 9.73586 17.5531 9.31196 16.5403C8.88805 15.5275 8.77695 14.413 8.99277 13.3377C9.20859 12.2623 9.74162 11.2745 10.5244 10.4992C11.3072 9.7238 12.3047 9.19569 13.3906 8.98161C14.4765 8.76753 15.6022 8.8771 16.6252 9.29647C17.6482 9.71584 18.5227 10.4262 19.138 11.3376C19.7533 12.2491 20.0819 13.3208 20.0821 14.4171C20.0822 15.1451 19.9375 15.8659 19.6563 16.5385C19.3751 17.2111 18.9629 17.8222 18.4431 18.337C17.9233 18.8519 17.3062 19.2603 16.627 19.539C15.9479 19.8177 15.2199 19.9612 14.4847 19.9613ZM19.3083 54.9289H9.65114V24.1662H19.3083V54.9289ZM60.2844 0.00439214H4.80349C3.54423 -0.00967865 2.33078 0.471843 1.4299 1.34314C0.529015 2.21445 0.014392 3.40424 -0.000976562 4.65109V59.8134C0.013866 61.0609 0.528188 62.2515 1.42904 63.1237C2.32989 63.9959 3.54361 64.4784 4.80349 64.4651H60.2844C61.5468 64.4808 62.7639 63.9997 63.6683 63.1275C64.5727 62.2553 65.0904 61.0634 65.1079 59.8134V4.64711C65.0899 3.39779 64.5718 2.20664 63.6673 1.33536C62.7629 0.464079 61.5461 -0.0160665 60.2844 0.000410489" fill="#0A66C2"/>
</svg>
