<svg width="93" height="65" viewBox="0 0 93 65" fill="none" xmlns="http://www.w3.org/2000/svg">
<g clip-path="url(#clip0_105_688)">
<path d="M91.0565 10.15C89.987 6.15456 86.8361 3.00835 82.8345 1.94057C75.582 0 46.5 0 46.5 0C46.5 0 17.4181 0 10.1655 1.94057C6.16421 3.00835 3.01276 6.15456 1.94335 10.15C0 17.3913 0 32.5 0 32.5C0 32.5 0 47.6085 1.94335 54.8505C3.01276 58.8454 6.16421 61.9916 10.1655 63.0599C17.4181 65 46.5 65 46.5 65C46.5 65 75.582 65 82.8345 63.0599C86.8361 61.9916 89.987 58.8454 91.0565 54.8505C93 47.6085 93 32.5 93 32.5C93 32.5 93 17.3913 91.0565 10.15Z" fill="#ED1D24"/>
<path d="M36.9886 46.2178L61.2955 32.5009L36.9886 18.7828V46.2178Z" fill="white"/>
</g>
<defs>
<clipPath id="clip0_105_688">
<rect width="93" height="65" fill="white"/>
</clipPath>
</defs>
</svg>
