<svg width="65" height="65" viewBox="0 0 65 65" fill="none" xmlns="http://www.w3.org/2000/svg">
<path d="M32.5 0C14.5514 0 0 14.5514 0 32.5C0 46.2757 8.55967 58.0453 20.6502 62.7798C20.356 60.2119 20.1152 56.2531 20.7572 53.4444C21.3457 50.9033 24.5556 37.2881 24.5556 37.2881C24.5556 37.2881 23.5926 35.3354 23.5926 32.4733C23.5926 27.9527 26.214 24.5823 29.4774 24.5823C32.2593 24.5823 33.5967 26.6687 33.5967 29.1564C33.5967 31.9383 31.8313 36.1111 30.8951 39.9897C30.1193 43.2263 32.5267 45.8745 35.7099 45.8745C41.4877 45.8745 45.928 39.7757 45.928 31.0021C45.928 23.2181 40.3374 17.7881 32.3395 17.7881C23.0844 17.7881 17.6543 24.716 17.6543 31.8848C17.6543 34.6667 18.7243 37.6625 20.0617 39.2942C20.3292 39.6152 20.356 39.9095 20.2757 40.2304C20.035 41.2469 19.4733 43.4671 19.3663 43.9218C19.2325 44.5103 18.8848 44.644 18.2695 44.3498C14.2037 42.4506 11.6626 36.5391 11.6626 31.751C11.6626 21.5062 19.0988 12.0905 33.142 12.0905C44.4033 12.0905 53.177 20.1152 53.177 30.8683C53.177 42.0761 46.1152 51.0905 36.3251 51.0905C33.035 51.0905 29.9321 49.3786 28.8889 47.3457C28.8889 47.3457 27.2572 53.5514 26.856 55.0761C26.1337 57.9115 24.1543 61.4424 22.8169 63.6091C25.8663 64.5453 29.0761 65.0535 32.4465 65.0535C50.3951 65.0535 64.9465 50.5021 64.9465 32.5535C65 14.5514 50.4486 0 32.5 0Z" fill="#E60023"/>
</svg>
