<svg width="59" height="65" viewBox="0 0 59 65" fill="none" xmlns="http://www.w3.org/2000/svg">
<g clip-path="url(#clip0_105_652)">
<path d="M23.0839 25.5946V23.0576C22.2047 22.9386 21.3124 22.8652 20.4019 22.8652C9.42852 22.8652 0.5 31.707 0.5 42.5754C0.5 49.2438 3.86363 55.1443 8.99716 58.7117C5.68457 55.19 3.65289 50.4732 3.65289 45.2917C3.65289 34.5798 12.3279 25.844 23.0856 25.5946H23.0839Z" fill="#25F4EE"/>
<path d="M23.5531 54.293C28.4496 54.293 32.4438 50.4354 32.6249 45.6306L32.643 2.71791H40.559C40.3944 1.83585 40.3038 0.92934 40.3038 0H29.4918L29.4737 42.9127C29.2926 47.7175 25.2983 51.5751 20.4019 51.5751C18.8806 51.5751 17.4466 51.1985 16.1854 50.5414C17.8368 52.8093 20.5204 54.293 23.5531 54.293Z" fill="#25F4EE"/>
<path d="M55.3471 17.2827V14.8974C52.3276 14.8974 49.5139 14.0088 47.1545 12.4844C49.2554 14.8729 52.1086 16.5963 55.3471 17.2827Z" fill="#25F4EE"/>
<path d="M47.1562 12.4837C44.8545 9.86685 43.4567 6.45112 43.4567 2.71582H40.5606C41.3229 6.79513 43.7678 10.2956 47.1562 12.4837Z" fill="#FE2C55"/>
<path d="M20.4019 33.5734C15.3902 33.5734 11.312 37.6119 11.312 42.5749C11.312 46.0314 13.2927 49.0347 16.1854 50.5412C15.107 49.0607 14.4649 47.251 14.4649 45.2912C14.4649 40.3282 18.5431 36.2897 23.5548 36.2897C24.4899 36.2897 25.3872 36.4429 26.2368 36.7054V25.7734C25.3576 25.6544 24.4652 25.5811 23.5548 25.5811C23.3967 25.5811 23.242 25.5892 23.0855 25.5925V33.9875C22.236 33.725 21.3387 33.5718 20.4035 33.5718L20.4019 33.5734Z" fill="#FE2C55"/>
<path d="M55.3471 17.2822V25.6039C49.7411 25.6039 44.545 23.8284 40.3038 20.8137V42.5749C40.3038 53.4433 31.3753 62.2835 20.4019 62.2835C16.1608 62.2835 12.2291 60.9596 8.99554 58.7112C12.6308 62.577 17.8105 64.9998 23.5532 64.9998C34.5282 64.9998 43.4551 56.158 43.4551 45.2912V23.5316C47.6962 26.5463 52.8923 28.3218 58.4984 28.3218V17.6132C57.4167 17.6132 56.363 17.4974 55.3471 17.2822Z" fill="#FE2C55"/>
<path d="M40.3038 42.5747V20.8135C44.545 23.8281 49.7411 25.6037 55.3471 25.6037V17.282C52.1086 16.5956 49.2554 14.8739 47.1545 12.4837C43.7662 10.2956 41.3213 6.79676 40.559 2.71582H32.643L32.6249 45.6285C32.4438 50.4333 28.4496 54.2909 23.5531 54.2909C20.5204 54.2909 17.8368 52.8072 16.1854 50.5393C13.2927 49.0312 11.312 46.028 11.312 42.5731C11.312 37.6101 15.3902 33.5715 20.4019 33.5715C21.3371 33.5715 22.2344 33.7248 23.0839 33.9873V25.5923C12.3262 25.8417 3.65125 34.5775 3.65125 45.2894C3.65125 50.4709 5.68292 55.1877 8.99552 58.7094C12.2274 60.9561 16.1607 62.2816 20.4019 62.2816C31.3753 62.2816 40.3038 53.4398 40.3038 42.5731V42.5747Z" fill="white"/>
</g>
<defs>
<clipPath id="clip0_105_652">
<rect width="58" height="65" fill="white" transform="translate(0.5)"/>
</clipPath>
</defs>
</svg>
