<svg width="65" height="65" viewBox="0 0 65 65" fill="none" xmlns="http://www.w3.org/2000/svg">
<g clip-path="url(#clip0_105_716)">
<path d="M54.643 0C60.362 0 65 4.637 65 10.3579V54.643C65 60.362 60.362 65 54.643 65H10.3579C4.63796 65 0 60.362 0 54.643V10.3579C0 4.637 4.63796 0 10.3579 0H54.643Z" fill="#FFFC00"/>
<path d="M54.4152 43.6421C54.2236 43.0081 53.3068 42.5611 53.3068 42.5611C53.2202 42.5155 53.1426 42.4745 53.0788 42.4425C51.5509 41.7037 50.1963 40.8143 49.056 39.8063C48.1392 38.9944 47.3548 38.1005 46.7253 37.1518C45.9545 35.9933 45.5942 35.0264 45.4391 34.5019C45.3525 34.1598 45.3662 34.023 45.4391 33.8451C45.4984 33.6946 45.6763 33.5532 45.7584 33.4848C46.2738 33.1199 47.1039 32.5817 47.6147 32.2533C48.0572 31.966 48.4357 31.7197 48.6592 31.5646C49.3753 31.0629 49.8679 30.5521 50.1552 30.0002C50.5292 29.2887 50.5748 28.5042 50.2829 27.7334C49.8907 26.6935 48.9192 26.0732 47.6832 26.0732C47.4095 26.0732 47.1267 26.1051 46.8439 26.1644C46.137 26.3195 45.4665 26.5703 44.9055 26.7892C44.8645 26.8075 44.8189 26.7756 44.8234 26.7299C44.8827 25.3389 44.9511 23.4688 44.796 21.6946C44.6592 20.0892 44.3263 18.7345 43.7881 17.5533C43.2453 16.3674 42.5384 15.4917 41.9865 14.8577C41.462 14.2557 40.5361 13.3663 39.1404 12.5681C37.1792 11.4461 34.9443 10.876 32.4996 10.876C30.0595 10.876 27.8292 11.4461 25.8634 12.5681C24.3857 13.4119 23.4415 14.3651 23.0128 14.8577C22.4609 15.4917 21.754 16.3674 21.2112 17.5533C20.6685 18.7345 20.3401 20.0846 20.2032 21.6946C20.0482 23.478 20.112 25.1975 20.1759 26.7299C20.1759 26.7756 20.1348 26.8075 20.0892 26.7892C19.5282 26.5703 18.8577 26.3195 18.1508 26.1644C17.8726 26.1051 17.5898 26.0732 17.3116 26.0732C16.0801 26.0732 15.1086 26.6935 14.7118 27.7334C14.4199 28.5042 14.4655 29.2887 14.8395 30.0002C15.1314 30.5521 15.6194 31.0629 16.3355 31.5646C16.5544 31.7197 16.9376 31.966 17.38 32.2533C17.8771 32.5771 18.6844 33.1016 19.2044 33.462C19.2682 33.5076 19.4872 33.6718 19.5556 33.8451C19.6286 34.0275 19.6422 34.1643 19.5465 34.5292C19.3868 35.0583 19.0265 36.0161 18.2694 37.1518C17.64 38.105 16.8555 38.9944 15.9387 39.8063C14.7985 40.8143 13.4439 41.7037 11.9159 42.4425C11.843 42.479 11.7563 42.5201 11.6651 42.5748C11.6651 42.5748 10.7529 43.04 10.5796 43.6421C10.3241 44.5315 11.0037 45.3661 11.6924 45.8131C12.8236 46.5429 14.201 46.9351 14.9992 47.1495C15.2226 47.2088 15.4233 47.2635 15.6058 47.3182C15.7198 47.3547 16.0071 47.4642 16.1303 47.6238C16.2854 47.8245 16.3036 48.0708 16.3583 48.349C16.445 48.8188 16.6411 49.398 17.2204 49.7994C17.8589 50.2372 18.6662 50.2692 19.6924 50.3102C20.7642 50.3513 22.096 50.4014 23.624 50.9077C24.3309 51.1403 24.974 51.5371 25.7129 51.9932C27.2636 52.9465 29.1929 54.1323 32.486 54.1323C35.7835 54.1323 37.7265 52.9419 39.2864 51.9841C40.0253 51.5326 40.6592 51.1403 41.3525 50.9123C42.8804 50.406 44.2122 50.3558 45.2841 50.3148C46.3103 50.2737 47.1176 50.2464 47.7561 49.804C48.3764 49.3752 48.5543 48.7367 48.6364 48.2578C48.682 48.0206 48.7094 47.8062 48.8462 47.6329C48.9648 47.4824 49.2293 47.3775 49.3525 47.3365C49.5395 47.2772 49.7493 47.2224 49.9819 47.1586C50.7801 46.9442 51.7835 46.6934 53.0013 46.0047C54.4699 45.17 54.5702 44.1483 54.4152 43.6421Z" fill="white"/>
<path d="M55.6831 43.1496C55.3593 42.2648 54.739 41.795 54.0366 41.4028C53.9043 41.3252 53.7812 41.2614 53.6808 41.2158C53.471 41.1063 53.2567 41.0014 53.0423 40.8919C50.8485 39.7289 49.1335 38.2602 47.9477 36.5225C47.5463 35.9341 47.2681 35.4051 47.072 34.9718C46.9716 34.6799 46.9762 34.5157 47.0492 34.3652C47.1039 34.2511 47.2498 34.1326 47.3319 34.0733C47.7105 33.8224 48.0982 33.5716 48.3627 33.4028C48.8325 33.0972 49.2065 32.8555 49.4437 32.6913C50.3468 32.0619 50.9762 31.3914 51.3684 30.6434C51.9249 29.5898 51.9933 28.3857 51.5645 27.2546C50.9716 25.6856 49.4847 24.7096 47.6877 24.7096C47.3137 24.7096 46.9351 24.7506 46.5611 24.8327C46.4608 24.8555 46.365 24.8783 46.2692 24.9011C46.2875 23.8339 46.2601 22.6936 46.1643 21.5807C45.8268 17.6583 44.454 15.6013 43.0218 13.9639C42.4243 13.2797 41.3844 12.2809 39.8246 11.3869C37.649 10.1372 35.1861 9.50781 32.4996 9.50781C29.8223 9.50781 27.3594 10.1372 25.1838 11.3824C23.6148 12.2763 22.5749 13.2797 21.982 13.9593C20.5499 15.5967 19.177 17.6537 18.8395 21.5762C18.7437 22.689 18.7209 23.8293 18.7346 24.8966C18.6388 24.8738 18.5385 24.851 18.4427 24.8281C18.0687 24.7461 17.6856 24.705 17.3161 24.705C15.5191 24.705 14.0322 25.6811 13.4393 27.25C13.0106 28.3812 13.079 29.5853 13.6354 30.6388C14.0277 31.3868 14.6616 32.0573 15.5602 32.6867C15.8019 32.8555 16.1713 33.0972 16.6411 33.3982C16.8965 33.5624 17.266 33.8042 17.6308 34.0459C17.6856 34.0824 17.8817 34.2283 17.9501 34.3652C18.0276 34.5202 18.0276 34.689 17.9136 34.9991C17.7221 35.4233 17.4438 35.9433 17.0516 36.5179C15.8885 38.2192 14.2238 39.6605 12.1029 40.8098C10.9764 41.4073 9.80875 41.8041 9.31617 43.1451C8.94217 44.1576 9.18846 45.3115 10.1326 46.283C10.4427 46.616 10.835 46.9124 11.3276 47.1861C12.486 47.8246 13.4712 48.1393 14.2466 48.3537C14.3834 48.3947 14.6981 48.4951 14.835 48.6182C15.1816 48.9193 15.1314 49.3754 15.5921 50.0413C15.8703 50.4563 16.1896 50.7391 16.4541 50.9215C17.4165 51.5874 18.502 51.6285 19.6514 51.6741C20.6867 51.7151 21.8634 51.7607 23.2044 52.2032C23.7608 52.3856 24.34 52.7414 25.0059 53.1518C26.6114 54.1416 28.8144 55.4916 32.4951 55.4916C36.1803 55.4916 38.3924 54.1325 40.0116 53.1427C40.6775 52.7368 41.2522 52.381 41.7904 52.2032C43.1313 51.7607 44.308 51.7151 45.3434 51.6741C46.4927 51.6285 47.5737 51.5874 48.5406 50.9215C48.8416 50.7117 49.2248 50.3696 49.5258 49.8497C49.8542 49.2887 49.8496 48.8919 50.1598 48.6228C50.2875 48.5133 50.5657 48.4175 50.7162 48.3719C51.4961 48.1576 52.495 47.8429 53.6763 47.1906C54.2008 46.9033 54.6067 46.5886 54.9305 46.2283C54.9351 46.2237 54.9397 46.2192 54.9442 46.2146C55.8245 45.2568 56.048 44.1393 55.6831 43.1496ZM52.4129 44.9056C50.4152 46.0093 49.0879 45.8908 48.0571 46.5521C47.1814 47.1177 47.6968 48.3354 47.0628 48.7733C46.2784 49.3161 43.9659 48.7368 40.9785 49.722C38.5156 50.5384 36.942 52.8782 32.5042 52.8782C28.0572 52.8782 26.5293 50.5475 24.0299 49.722C21.0424 48.7368 18.7255 49.3161 17.9455 48.7733C17.3116 48.3354 17.827 47.1177 16.9513 46.5521C15.9205 45.8862 14.5932 46.0048 12.5955 44.9056C11.323 44.2032 12.0436 43.7699 12.4678 43.5647C19.7015 40.0664 20.8509 34.6571 20.9056 34.2511C20.9695 33.7677 21.0379 33.3846 20.5043 32.8874C19.9889 32.4085 17.6947 30.99 17.0607 30.5476C16.0071 29.8133 15.5465 29.079 15.8885 28.1759C16.1257 27.5511 16.7095 27.3184 17.3253 27.3184C17.5168 27.3184 17.7129 27.3413 17.8999 27.3823C19.0539 27.6332 20.1759 28.2124 20.8235 28.3675C20.9147 28.3903 20.9923 28.3994 21.0607 28.3994C21.4073 28.3994 21.5259 28.2261 21.5031 27.8293C21.4301 26.5659 21.2477 24.103 21.4484 21.7997C21.722 18.6343 22.7437 17.0654 23.9569 15.6743C24.5407 15.0084 27.2773 12.1167 32.5088 12.1167C37.7539 12.1167 40.4768 15.0084 41.0606 15.6743C42.2738 17.0608 43.2955 18.6298 43.5691 21.7997C43.7698 24.103 43.5965 26.5659 43.5144 27.8293C43.487 28.2443 43.6147 28.3994 43.9568 28.3994C44.0252 28.3994 44.1073 28.3903 44.194 28.3675C44.8417 28.2124 45.9637 27.6332 47.1176 27.3823C47.3046 27.3413 47.5007 27.3184 47.6923 27.3184C48.308 27.3184 48.8918 27.5556 49.129 28.1759C49.471 29.079 49.0058 29.8133 47.9568 30.5476C47.3228 30.99 45.0287 32.4085 44.5133 32.8874C43.9796 33.38 44.048 33.7631 44.1119 34.2511C44.1621 34.6571 45.316 40.0664 52.5497 43.5647C52.9602 43.7699 53.6854 44.2032 52.4129 44.9056Z" fill="black"/>
</g>
<defs>
<clipPath id="clip0_105_716">
<rect width="65" height="65" fill="white"/>
</clipPath>
</defs>
</svg>
