<svg width="65" height="65" viewBox="0 0 65 65" fill="none" xmlns="http://www.w3.org/2000/svg">
<path d="M65 32.5003C65 14.551 50.4493 0.000282288 32.5 0.000282288C14.5507 0.000282288 0 14.551 0 32.5003C0 48.722 11.8848 62.1673 27.4219 64.6055V41.8948H19.1699V32.5003H27.4219V25.3401C27.4219 17.1948 32.2739 12.6956 39.6976 12.6956C43.2534 12.6956 46.9727 13.3304 46.9727 13.3304V21.3284H42.8745C38.8372 21.3284 37.5781 23.8336 37.5781 26.4038V32.5003H46.5918L45.1509 41.8948H37.5781V64.6055C53.1152 62.1673 65 48.722 65 32.5003Z" fill="#1877F2"/>
<path d="M45.1509 41.8945L46.5918 32.5H37.5781V26.4035C37.5781 23.8334 38.8372 21.3281 42.8745 21.3281H46.9727V13.3301C46.9727 13.3301 43.2534 12.6953 39.6976 12.6953C32.2739 12.6953 27.4219 17.1945 27.4219 25.3398V32.5H19.1699V41.8945H27.4219V64.6052C29.0765 64.8648 30.7724 65 32.5 65C34.2276 65 35.9235 64.8648 37.5781 64.6052V41.8945H45.1509Z" fill="white"/>
</svg>
