<svg width="65" height="65" viewBox="0 0 65 65" fill="none" xmlns="http://www.w3.org/2000/svg">
<g clip-path="url(#clip0_105_626)">
<path d="M53.6832 15.1341C53.6832 12.9766 51.9345 11.2344 49.785 11.2344C47.6354 11.2344 45.8853 12.9766 45.8853 15.1341C45.8853 17.2837 47.6354 19.0258 49.785 19.0258C51.9345 19.0258 53.6832 17.2837 53.6832 15.1341Z" fill="url(#paint0_linear_105_626)"/>
<path d="M58.8775 45.5742C58.7331 48.7393 58.2037 50.4589 57.7643 51.601C57.1738 53.1154 56.4697 54.1982 55.3275 55.3339C54.1982 56.4697 53.1153 57.1723 51.601 57.7562C50.4589 58.2022 48.7328 58.7331 45.5678 58.884C42.1462 59.0348 41.1323 59.0669 32.4554 59.0669C23.7866 59.0669 22.7646 59.0348 19.343 58.884C16.1781 58.7331 14.4599 58.2022 13.3177 57.7562C11.7954 57.1723 10.7207 56.4697 9.58491 55.3339C8.4411 54.1982 7.73691 53.1154 7.1546 51.601C6.71497 50.4589 6.17767 48.7393 6.04123 45.5742C5.87448 42.1525 5.84393 41.1226 5.84393 32.4634C5.84393 23.7865 5.87448 22.7646 6.04123 19.3429C6.17767 16.178 6.71497 14.46 7.1546 13.3081C7.73691 11.7954 8.4411 10.719 9.58491 9.58322C10.7207 8.44917 11.7954 7.74485 13.3177 7.15461C14.4599 6.70704 16.1781 6.18405 19.343 6.0333C22.7646 5.88242 23.7866 5.84392 32.4554 5.84392C41.1323 5.84392 42.1462 5.88242 45.5678 6.0333C48.7328 6.18405 50.4589 6.70704 51.601 7.15461C53.1153 7.74485 54.1982 8.44917 55.3275 9.58322C56.4697 10.719 57.1738 11.7954 57.7643 13.3081C58.2037 14.46 58.7331 16.178 58.8775 19.3429C59.0363 22.7646 59.0748 23.7865 59.0748 32.4634C59.0748 41.1226 59.0363 42.1525 58.8775 45.5742ZM64.7215 19.0767C64.5628 15.6181 64.0172 13.2552 63.2071 11.1971C62.3827 9.06191 61.2773 7.25241 59.4678 5.44292C57.6664 3.64149 55.8569 2.53619 53.7218 1.70206C51.6556 0.899939 49.3007 0.348064 45.8405 0.197314C42.3802 0.0304408 41.2751 0 32.4554 0C23.6437 0 22.5305 0.0304408 19.0703 0.197314C15.6181 0.348064 13.2647 0.899939 11.189 1.70206C9.06191 2.53619 7.25242 3.64149 5.45098 5.44292C3.64148 7.25241 2.53618 9.06191 1.70362 11.1971C0.901499 13.2552 0.356123 15.6181 0.189251 19.0767C0.0384998 22.5369 0 23.6437 0 32.4634C0 41.2752 0.0384998 42.3803 0.189251 45.8405C0.356123 49.2927 0.901499 51.654 1.70362 53.7218C2.53618 55.8489 3.64148 57.6665 5.45098 59.4679C7.25242 61.2694 9.06191 62.3826 11.189 63.2152C13.2647 64.0173 15.6181 64.5627 19.0703 64.7215C22.5305 64.8804 23.6437 64.9189 32.4554 64.9189C41.2751 64.9189 42.3802 64.8804 45.8405 64.7215C49.3007 64.5627 51.6556 64.0173 53.7218 63.2152C55.8569 62.3826 57.6664 61.2694 59.4678 59.4679C61.2773 57.6665 62.3827 55.8489 63.2071 53.7218C64.0172 51.654 64.5628 49.2927 64.7215 45.8405C64.8803 42.3803 64.9188 41.2752 64.9188 32.4634C64.9188 23.6437 64.8803 22.5369 64.7215 19.0767Z" fill="url(#paint1_linear_105_626)"/>
<path d="M32.4554 43.2741C26.4831 43.2741 21.6369 38.4358 21.6369 32.4635C21.6369 26.4816 26.4831 21.6371 32.4554 21.6371C38.4295 21.6371 43.2819 26.4816 43.2819 32.4635C43.2819 38.4358 38.4295 43.2741 32.4554 43.2741ZM32.4554 15.7852C23.2492 15.7852 15.793 23.2572 15.793 32.4635C15.793 41.6619 23.2492 49.126 32.4554 49.126C41.6617 49.126 49.1259 41.6619 49.1259 32.4635C49.1259 23.2572 41.6617 15.7852 32.4554 15.7852Z" fill="url(#paint2_linear_105_626)"/>
</g>
<defs>
<linearGradient id="paint0_linear_105_626" x1="0.585399" y1="64.248" x2="59.5116" y2="5.32201" gradientUnits="userSpaceOnUse">
<stop stop-color="#FFD521"/>
<stop offset="0.05" stop-color="#FFD521"/>
<stop offset="0.501119" stop-color="#F50000"/>
<stop offset="0.95" stop-color="#B900B4"/>
<stop offset="0.950079" stop-color="#B900B4"/>
<stop offset="1" stop-color="#B900B4"/>
</linearGradient>
<linearGradient id="paint1_linear_105_626" x1="0.585558" y1="64.3285" x2="59.5602" y2="5.3539" gradientUnits="userSpaceOnUse">
<stop stop-color="#FFD521"/>
<stop offset="0.05" stop-color="#FFD521"/>
<stop offset="0.501119" stop-color="#F50000"/>
<stop offset="0.95" stop-color="#B900B4"/>
<stop offset="0.950079" stop-color="#B900B4"/>
<stop offset="1" stop-color="#B900B4"/>
</linearGradient>
<linearGradient id="paint2_linear_105_626" x1="0.60088" y1="64.3302" x2="59.5613" y2="5.36979" gradientUnits="userSpaceOnUse">
<stop stop-color="#FFD521"/>
<stop offset="0.05" stop-color="#FFD521"/>
<stop offset="0.501119" stop-color="#F50000"/>
<stop offset="0.95" stop-color="#B900B4"/>
<stop offset="0.950079" stop-color="#B900B4"/>
<stop offset="1" stop-color="#B900B4"/>
</linearGradient>
<clipPath id="clip0_105_626">
<rect width="65" height="65" fill="white"/>
</clipPath>
</defs>
</svg>
