<svg width="24" height="25" viewBox="0 0 24 25" fill="none" xmlns="http://www.w3.org/2000/svg">
<g clip-path="url(#clip0_248_412)">
<path d="M24 0.5H0V24.5H24V0.5Z" fill="white"/>
<path d="M0 0.5H24V24.5H0V0.5ZM18.0169 20.8812L17.8237 19.4999C17.0646 19.5556 16.2384 19.2009 15.8925 18.1411C17.6743 16.9479 18.6637 15.4486 19.1831 13.5718C19.5816 12.2111 19.4811 10.1292 19.1818 8.93675C18.3923 5.79237 16.0449 3.923 12.5818 3.72238C9.30431 3.53244 6.34744 5.31369 5.07431 8.28425C4.65487 9.26281 4.43888 10.328 4.43888 11.6518C4.43888 15.6399 6.47325 18.383 9.98137 19.133C10.7818 19.2959 12.8257 19.3708 13.6357 19.1151C14.5046 20.5443 15.9026 21.7045 18.0158 20.8821L18.0169 20.8812ZM8.18438 14.0938C7.93688 12.9905 7.96331 10.3681 8.23299 9.28437C8.64006 7.64937 9.33006 6.62563 10.4249 6.03125C11.3965 5.60075 12.6017 5.53419 13.5017 5.95359C14.4801 6.41503 15.1596 7.34709 15.583 8.80734C15.9722 10.5258 16.0358 12.5348 15.5425 14.2823C15.3709 14.9106 15.1214 15.5268 14.8023 16.0857C14.0165 14.7997 12.2298 14.2351 10.891 14.7398L11.0789 16.0478C11.824 15.8771 12.8429 16.5897 12.895 17.2707C10.0563 17.698 8.81316 16.4026 8.18503 14.0926L8.18438 14.0938Z" fill="#A82400"/>
</g>
<defs>
<clipPath id="clip0_248_412">
<rect width="24" height="24" fill="white" transform="translate(0 0.5)"/>
</clipPath>
</defs>
</svg>
