<svg width="21" height="25" viewBox="0 0 21 25" fill="none" xmlns="http://www.w3.org/2000/svg">
<g clip-path="url(#clip0_248_268)">
<path d="M8.17693 9.95013V9.01342C7.85861 8.96947 7.53551 8.94238 7.20586 8.94238C3.23274 8.94238 0 12.207 0 16.22C0 18.6822 1.21787 20.8608 3.07656 22.178C1.87717 20.8777 1.14156 19.1361 1.14156 17.2229C1.14156 13.2678 4.2825 10.0422 8.17753 9.95013H8.17693Z" fill="#25F4EE"/>
<path d="M8.34682 20.5467C10.1197 20.5467 11.5659 19.1223 11.6314 17.3482L11.638 1.50354H14.5041C14.4445 1.17785 14.4117 0.843141 14.4117 0.5H10.497L10.4905 16.3447C10.4249 18.1188 8.97871 19.5431 7.20585 19.5431C6.65504 19.5431 6.13582 19.4041 5.6792 19.1614C6.2771 19.9988 7.24878 20.5467 8.34682 20.5467Z" fill="#25F4EE"/>
<path d="M19.8584 6.88131V6.00058C18.7652 6.00058 17.7464 5.67249 16.8922 5.10962C17.6528 5.99155 18.6859 6.62787 19.8584 6.88131Z" fill="#25F4EE"/>
<path d="M16.8927 5.10952C16.0594 4.14331 15.5533 2.88212 15.5533 1.50293H14.5047C14.7807 3.00914 15.6659 4.30164 16.8927 5.10952Z" fill="#FE2C55"/>
<path d="M7.20586 12.8963C5.39128 12.8963 3.9147 14.3875 3.9147 16.22C3.9147 17.4962 4.63183 18.6051 5.67921 19.1614C5.28875 18.6147 5.05627 17.9465 5.05627 17.2229C5.05627 15.3904 6.53285 13.8993 8.34743 13.8993C8.68602 13.8993 9.01091 13.9558 9.3185 14.0528V10.0163C9.00018 9.9724 8.67708 9.94531 8.34743 9.94531C8.2902 9.94531 8.23416 9.94832 8.17753 9.94953V13.0492C7.86994 12.9523 7.54505 12.8957 7.20646 12.8957L7.20586 12.8963Z" fill="#FE2C55"/>
<path d="M19.8584 6.8811V9.95372C17.8287 9.95372 15.9473 9.29814 14.4117 8.18504V16.22C14.4117 20.2329 11.179 23.497 7.20585 23.497C5.67026 23.497 4.24673 23.0081 3.07596 22.178C4.39218 23.6053 6.26757 24.4999 8.34682 24.4999C12.3205 24.4999 15.5527 21.2352 15.5527 17.2229V9.18858C17.0883 10.3017 18.9696 10.9573 20.9994 10.9573V7.00331C20.6077 7.00331 20.2262 6.96057 19.8584 6.8811Z" fill="#FE2C55"/>
<path d="M14.4117 16.2201V8.18515C15.9473 9.29825 17.8287 9.95383 19.8584 9.95383V6.88121C18.6859 6.62777 17.6528 5.99206 16.8922 5.10952C15.6653 4.30164 14.7801 3.00974 14.5041 1.50293H11.638L11.6314 17.3476C11.5658 19.1217 10.1197 20.546 8.34682 20.546C7.24877 20.546 6.2771 19.9982 5.6792 19.1608C4.63182 18.604 3.91469 17.4951 3.91469 16.2195C3.91469 14.387 5.39127 12.8958 7.20585 12.8958C7.54445 12.8958 7.86933 12.9524 8.17693 13.0493V9.94961C4.2819 10.0417 1.14096 13.2672 1.14096 17.2224C1.14096 19.1356 1.87657 20.8771 3.07596 22.1775C4.24613 23.007 5.67026 23.4965 7.20585 23.4965C11.179 23.4965 14.4117 20.2318 14.4117 16.2195V16.2201Z" fill="white"/>
</g>
<defs>
<clipPath id="clip0_248_268">
<rect width="21" height="24" fill="white" transform="translate(0 0.5)"/>
</clipPath>
</defs>
</svg>
