<svg width="24" height="25" viewBox="0 0 24 25" fill="none" xmlns="http://www.w3.org/2000/svg">
<g clip-path="url(#clip0_248_541)">
<path d="M19.8215 6.08785C19.8215 5.29122 19.1758 4.64795 18.3822 4.64795C17.5885 4.64795 16.9423 5.29122 16.9423 6.08785C16.9423 6.88155 17.5885 7.52479 18.3822 7.52479C19.1758 7.52479 19.8215 6.88155 19.8215 6.08785Z" fill="url(#paint0_linear_248_541)"/>
<path d="M21.7394 17.3274C21.6861 18.4961 21.4906 19.131 21.3284 19.5527C21.1103 20.1118 20.8503 20.5117 20.4286 20.931C20.0116 21.3504 19.6118 21.6098 19.0527 21.8254C18.631 21.99 17.9937 22.1861 16.825 22.2418C15.5617 22.2975 15.1873 22.3093 11.9836 22.3093C8.78274 22.3093 8.40539 22.2975 7.14202 22.2418C5.97344 22.1861 5.33906 21.99 4.9173 21.8254C4.35522 21.6098 3.9584 21.3504 3.53904 20.931C3.11671 20.5117 2.85671 20.1118 2.6417 19.5527C2.47938 19.131 2.28098 18.4961 2.23061 17.3274C2.16904 16.064 2.15776 15.6837 2.15776 12.4865C2.15776 9.28271 2.16904 8.90541 2.23061 7.64199C2.28098 6.47341 2.47938 5.83907 2.6417 5.41377C2.85671 4.85523 3.11671 4.45777 3.53904 4.03842C3.9584 3.61969 4.35522 3.35964 4.9173 3.1417C5.33906 2.97645 5.97344 2.78334 7.14202 2.72768C8.40539 2.67197 8.78274 2.65776 11.9836 2.65776C15.1873 2.65776 15.5617 2.67197 16.825 2.72768C17.9937 2.78334 18.631 2.97645 19.0527 3.1417C19.6118 3.35964 20.0116 3.61969 20.4286 4.03842C20.8503 4.45777 21.1103 4.85523 21.3284 5.41377C21.4906 5.83907 21.6861 6.47341 21.7394 7.64199C21.798 8.90541 21.8122 9.28271 21.8122 12.4865C21.8122 15.6837 21.798 16.064 21.7394 17.3274ZM23.8972 7.5437C23.8386 6.26667 23.6371 5.39422 23.338 4.63431C23.0336 3.84593 22.6255 3.17781 21.9573 2.50969C21.2922 1.84455 20.6241 1.43644 19.8357 1.12845C19.0729 0.832285 18.2033 0.628516 16.9257 0.572854C15.6481 0.51124 15.24 0.5 11.9836 0.5C8.72998 0.5 8.31897 0.51124 7.04135 0.572854C5.7667 0.628516 4.89775 0.832285 4.13133 1.12845C3.34594 1.43644 2.67782 1.84455 2.01267 2.50969C1.34455 3.17781 0.936436 3.84593 0.629029 4.63431C0.332861 5.39422 0.131492 6.26667 0.0698773 7.5437C0.0142153 8.82132 0 9.22999 0 12.4865C0 15.7401 0.0142153 16.1481 0.0698773 17.4257C0.131492 18.7004 0.332861 19.5722 0.629029 20.3357C0.936436 21.1211 1.34455 21.7922 2.01267 22.4574C2.67782 23.1225 3.34594 23.5336 4.13133 23.841C4.89775 24.1371 5.7667 24.3385 7.04135 24.3972C8.31897 24.4558 8.72998 24.47 11.9836 24.47C15.24 24.47 15.6481 24.4558 16.9257 24.3972C18.2033 24.3385 19.0729 24.1371 19.8357 23.841C20.6241 23.5336 21.2922 23.1225 21.9573 22.4574C22.6255 21.7922 23.0336 21.1211 23.338 20.3357C23.6371 19.5722 23.8386 18.7004 23.8972 17.4257C23.9558 16.1481 23.97 15.7401 23.97 12.4865C23.97 9.22999 23.9558 8.82132 23.8972 7.5437Z" fill="url(#paint1_linear_248_541)"/>
<path d="M11.9835 16.4781C9.77837 16.4781 7.98902 14.6917 7.98902 12.4865C7.98902 10.2778 9.77837 8.48909 11.9835 8.48909C14.1893 8.48909 15.981 10.2778 15.981 12.4865C15.981 14.6917 14.1893 16.4781 11.9835 16.4781ZM11.9835 6.32837C8.5843 6.32837 5.83127 9.08729 5.83127 12.4865C5.83127 15.8828 8.5843 18.6388 11.9835 18.6388C15.3828 18.6388 18.1388 15.8828 18.1388 12.4865C18.1388 9.08729 15.3828 6.32837 11.9835 6.32837Z" fill="url(#paint2_linear_248_541)"/>
</g>
<defs>
<linearGradient id="paint0_linear_248_541" x1="0.21616" y1="24.2222" x2="21.9735" y2="2.46492" gradientUnits="userSpaceOnUse">
<stop stop-color="#FFD521"/>
<stop offset="0.05" stop-color="#FFD521"/>
<stop offset="0.501119" stop-color="#F50000"/>
<stop offset="0.95" stop-color="#B900B4"/>
<stop offset="0.950079" stop-color="#B900B4"/>
<stop offset="1" stop-color="#B900B4"/>
</linearGradient>
<linearGradient id="paint1_linear_248_541" x1="0.216206" y1="24.2521" x2="21.9915" y2="2.47683" gradientUnits="userSpaceOnUse">
<stop stop-color="#FFD521"/>
<stop offset="0.05" stop-color="#FFD521"/>
<stop offset="0.501119" stop-color="#F50000"/>
<stop offset="0.95" stop-color="#B900B4"/>
<stop offset="0.950079" stop-color="#B900B4"/>
<stop offset="1" stop-color="#B900B4"/>
</linearGradient>
<linearGradient id="paint2_linear_248_541" x1="0.221859" y1="24.2527" x2="21.9919" y2="2.4827" gradientUnits="userSpaceOnUse">
<stop stop-color="#FFD521"/>
<stop offset="0.05" stop-color="#FFD521"/>
<stop offset="0.501119" stop-color="#F50000"/>
<stop offset="0.95" stop-color="#B900B4"/>
<stop offset="0.950079" stop-color="#B900B4"/>
<stop offset="1" stop-color="#B900B4"/>
</linearGradient>
<clipPath id="clip0_248_541">
<rect width="24" height="24" fill="white" transform="translate(0 0.5)"/>
</clipPath>
</defs>
</svg>
