<svg width="24" height="25" viewBox="0 0 24 25" fill="none" xmlns="http://www.w3.org/2000/svg">
<g clip-path="url(#clip0_248_18)">
<path d="M12 0.5C5.37284 0.5 0 5.87284 0 12.5C0 17.5864 3.16049 21.9321 7.62469 23.6802C7.51605 22.7321 7.42716 21.2704 7.6642 20.2333C7.88148 19.2951 9.06667 14.2679 9.06667 14.2679C9.06667 14.2679 8.71111 13.5469 8.71111 12.4901C8.71111 10.821 9.67901 9.57654 10.884 9.57654C11.9111 9.57654 12.4049 10.3469 12.4049 11.2654C12.4049 12.2926 11.7531 13.8333 11.4074 15.2654C11.121 16.4605 12.0099 17.4383 13.1852 17.4383C15.3185 17.4383 16.958 15.1864 16.958 11.9469C16.958 9.07284 14.8938 7.0679 11.9407 7.0679C8.52346 7.0679 6.51852 9.62593 6.51852 12.2728C6.51852 13.3 6.91358 14.4062 7.40741 15.0086C7.50617 15.1272 7.51605 15.2358 7.48642 15.3543C7.39753 15.7296 7.19012 16.5494 7.15062 16.7173C7.10123 16.9346 6.97284 16.984 6.74568 16.8753C5.24444 16.1741 4.30617 13.9914 4.30617 12.2235C4.30617 8.44074 7.05185 4.9642 12.237 4.9642C16.3951 4.9642 19.6346 7.92716 19.6346 11.8975C19.6346 16.0358 17.0272 19.3642 13.4123 19.3642C12.1975 19.3642 11.0519 18.7321 10.6667 17.9815C10.6667 17.9815 10.0642 20.2728 9.91605 20.8358C9.64938 21.8827 8.91852 23.1864 8.42469 23.9864C9.55062 24.3321 10.7358 24.5198 11.9802 24.5198C18.6074 24.5198 23.9802 19.1469 23.9802 12.5198C24 5.87284 18.6272 0.5 12 0.5Z" fill="#E60023"/>
</g>
<defs>
<clipPath id="clip0_248_18">
<rect width="24" height="24" fill="white" transform="translate(0 0.5)"/>
</clipPath>
</defs>
</svg>
