<svg width="24" height="25" viewBox="0 0 24 25" fill="none" xmlns="http://www.w3.org/2000/svg">
<g clip-path="url(#clip0_140_633)">
<path fill-rule="evenodd" clip-rule="evenodd" d="M8.65543 0.97329C6.33602 1.64893 4.27409 3.00795 2.73865 4.87305C1.20321 6.73815 0.265553 9.02272 0.0480042 11.4287H5.53372C5.85349 7.76743 6.91503 4.20952 8.65372 0.971576L8.65543 0.97329ZM5.53372 13.5716H0.0480042C0.2651 15.9777 1.20236 18.2625 2.7375 20.1279C4.27264 21.9933 6.33437 23.3527 8.65372 24.0287C6.91503 20.7908 5.85349 17.2329 5.53372 13.5716ZM11.4034 24.4864C9.325 21.19 8.05071 17.4512 7.68343 13.5716H16.3149C15.9476 17.4512 14.6733 21.19 12.5949 24.4864C12.198 24.5062 11.8003 24.5062 11.4034 24.4864ZM15.3463 24.027C17.6654 23.3511 19.7269 21.9919 21.2621 20.1269C22.7972 18.2618 23.7346 15.9774 23.952 13.5716H18.4663C18.1465 17.2329 17.085 20.7908 15.3463 24.0287V24.027ZM18.4663 11.4287H23.952C23.7349 9.02263 22.7976 6.73784 21.2625 4.87243C19.7274 3.00702 17.6656 1.64762 15.3463 0.971576C17.085 4.20952 18.1465 7.76743 18.4663 11.4287ZM11.4034 0.513862C11.8009 0.494077 12.1991 0.494077 12.5966 0.513862C14.6744 3.8104 15.9481 7.54928 16.3149 11.4287H7.68515C8.05715 7.52529 9.33429 3.783 11.4034 0.513862Z" fill="white"/>
</g>
<defs>
<clipPath id="clip0_140_633">
<rect width="24" height="24" fill="white" transform="translate(0 0.5)"/>
</clipPath>
</defs>
</svg>
