<svg width="46" height="46" viewBox="0 0 46 46" fill="none" xmlns="http://www.w3.org/2000/svg">
<g clip-path="url(#clip0_248_449)">
<path d="M30.6884 15.4146L31.3955 23.1928C31.4663 23.5463 31.3248 23.8292 31.1127 24.0413C30.9713 24.1827 30.6884 24.3241 30.547 24.3241C29.9813 24.3241 29.4864 23.9706 29.4864 23.4049L28.9207 17.7481L19.799 26.8697C19.3747 27.294 18.809 27.294 18.3848 26.8697C17.9605 26.4455 17.9605 25.8798 18.3848 25.4555L27.4357 16.4046L21.7789 15.8389C21.2132 15.8389 20.7889 15.2732 20.8596 14.7782C20.8596 14.2125 21.4253 13.7883 21.9203 13.859L29.6985 14.5661C30.2642 14.5661 30.6884 14.9903 30.6884 15.4146Z" fill="white"/>
<path d="M17.6777 28.9911L16.2635 30.4053C15.8392 30.8296 15.2735 30.8296 14.8492 30.4053C14.425 29.9811 14.425 29.4154 14.8492 28.9911L16.2635 27.5769C16.6877 27.1527 17.2534 27.1527 17.6777 27.5769C18.1019 28.0012 18.0312 28.6376 17.6777 28.9911Z" fill="white"/>
</g>
<defs>
<clipPath id="clip0_248_449">
<rect width="45.2548" height="45.2548" fill="white"/>
</clipPath>
</defs>
</svg>
