<svg width="30" height="30" viewBox="0 0 30 30" fill="none" xmlns="http://www.w3.org/2000/svg">
<circle cx="15" cy="15" r="15" transform="rotate(-90 15 15)" fill="#2E63D8"/>
<path d="M7.87276 17.3096C7.88195 17.2678 7.89539 17.2268 7.9128 17.1875L7.97627 17.0762C7.99939 17.0436 8.02647 17.0141 8.05537 16.9863L8.0544 16.9854L14.5515 10.4805L14.6481 10.4004C14.6829 10.3769 14.7196 10.3561 14.7585 10.3398L14.8796 10.3027C14.9206 10.2945 14.9625 10.291 15.0046 10.291C15.089 10.291 15.1728 10.3072 15.2507 10.3398C15.328 10.3722 15.3968 10.4209 15.4558 10.4805L15.4567 10.4795L21.9528 16.9854L21.9519 16.9863C21.9814 17.0152 22.0087 17.0461 22.0319 17.0801L22.0935 17.1914C22.1264 17.2699 22.142 17.3544 22.1413 17.4395H22.1423C22.1413 17.6091 22.0731 17.772 21.9528 17.8916L21.9519 17.8906C21.9225 17.9201 21.8914 17.9476 21.8571 17.9707L21.7458 18.0303C21.6682 18.0626 21.5848 18.0791 21.5007 18.0791C21.4166 18.0791 21.3332 18.0626 21.2556 18.0303L21.1442 17.9707C21.1095 17.9474 21.0772 17.9204 21.0476 17.8906V17.8896L15.0036 11.8379L8.95967 17.8906L8.95869 17.8896C8.9308 17.9188 8.90156 17.9464 8.86885 17.9697L8.75752 18.0332C8.71821 18.0507 8.67725 18.064 8.63545 18.0732L8.5085 18.0879C8.42267 18.0893 8.33708 18.0732 8.25752 18.041L8.14424 17.9814C8.10879 17.9579 8.07584 17.9306 8.04561 17.9004C7.98497 17.8397 7.93713 17.7671 7.90498 17.6875L7.86885 17.5645C7.86106 17.5225 7.85739 17.4794 7.85811 17.4365L7.87276 17.3096Z" fill="white" stroke="white" stroke-width="0.5"/>
</svg>
