<svg width="30" height="30" viewBox="0 0 30 30" fill="none" xmlns="http://www.w3.org/2000/svg">
<circle cx="15" cy="15" r="15" transform="rotate(90 15 15)" fill="#2E63D8"/>
<path d="M22.1272 12.6904C22.1181 12.7322 22.1046 12.7732 22.0872 12.8125L22.0237 12.9238C22.0006 12.9564 21.9735 12.9859 21.9446 13.0137L21.9456 13.0146L15.4485 19.5195L15.3519 19.5996C15.3171 19.6231 15.2804 19.6439 15.2415 19.6602L15.1204 19.6973C15.0794 19.7055 15.0375 19.709 14.9954 19.709C14.911 19.709 14.8272 19.6928 14.7493 19.6602C14.672 19.6278 14.6032 19.5791 14.5442 19.5195L14.5433 19.5205L8.04716 13.0146L8.04814 13.0137C8.01857 12.9848 7.9913 12.9539 7.96806 12.9199L7.90654 12.8086C7.87364 12.7301 7.85805 12.6456 7.85869 12.5605H7.85771C7.85869 12.3909 7.92686 12.228 8.04716 12.1084L8.04814 12.1094C8.07748 12.0799 8.10855 12.0524 8.14287 12.0293L8.2542 11.9697C8.33184 11.9374 8.41521 11.9209 8.49931 11.9209C8.58341 11.9209 8.66679 11.9374 8.74443 11.9697L8.85576 12.0293C8.89045 12.0526 8.92283 12.0796 8.95244 12.1094V12.1104L14.9964 18.1621L21.0403 12.1094L21.0413 12.1104C21.0692 12.0812 21.0984 12.0536 21.1311 12.0303L21.2425 11.9668C21.2818 11.9493 21.3227 11.936 21.3645 11.9268L21.4915 11.9121C21.5773 11.9107 21.6629 11.9268 21.7425 11.959L21.8558 12.0186C21.8912 12.0421 21.9242 12.0694 21.9544 12.0996C22.015 12.1603 22.0629 12.2329 22.095 12.3125L22.1311 12.4355C22.1389 12.4775 22.1426 12.5206 22.1419 12.5635L22.1272 12.6904Z" fill="white" stroke="white" stroke-width="0.5"/>
</svg>
