<svg width="30" height="30" viewBox="0 0 30 30" fill="none" xmlns="http://www.w3.org/2000/svg">
<path d="M8.3875 11.637C8.50314 11.5212 8.6405 11.4292 8.79172 11.3665C8.94293 11.3038 9.10504 11.2715 9.26875 11.2715C9.43246 11.2715 9.59456 11.3038 9.74578 11.3665C9.89699 11.4292 10.0344 11.5212 10.15 11.637L15 16.487L19.85 11.637C20.0837 11.4033 20.4007 11.272 20.7312 11.272C21.0618 11.272 21.3788 11.4033 21.6125 11.637C21.8462 11.8708 21.9775 12.1878 21.9775 12.5183C21.9775 12.8488 21.8462 13.1658 21.6125 13.3995L15.875 19.137C15.7594 19.2529 15.622 19.3449 15.4708 19.4076C15.3196 19.4703 15.1575 19.5026 14.9937 19.5026C14.83 19.5026 14.6679 19.4703 14.5167 19.4076C14.3655 19.3449 14.2281 19.2529 14.1125 19.137L8.375 13.3995C7.9 12.9245 7.9 12.1245 8.3875 11.637Z" fill="black"/>
</svg>
