<svg width="96" height="96" viewBox="0 0 96 96" fill="none" xmlns="http://www.w3.org/2000/svg">
<circle cx="48" cy="48" r="48" fill="#0A0B0F"/>
<path d="M27.2286 59.9733C27.2286 59.4825 27.6265 59.0846 28.1173 59.0846H49.6021C50.0929 59.0846 50.4908 59.4825 50.4908 59.9733C50.4908 60.4641 50.0929 60.8619 49.6021 60.8619H28.1173C27.6265 60.8619 27.2286 60.4641 27.2286 59.9733ZM28.1173 54.2736H43.8125C44.3033 54.2736 44.7012 53.8757 44.7012 53.3849C44.7012 52.8941 44.3033 52.4962 43.8125 52.4962H28.1173C27.6265 52.4962 27.2286 52.8941 27.2286 53.3849C27.2286 53.8757 27.6265 54.2736 28.1173 54.2736ZM64.492 67.2542V77.7989C64.492 78.9341 63.5686 79.8576 62.4334 79.8576H48.2695C47.1342 79.8576 46.2108 78.9341 46.2108 77.7989V71.3598C43.8528 71.9076 41.3857 72.1856 38.8597 72.1856C37.8126 72.1856 36.7601 72.1366 35.7262 72.0399L24.7501 79.6978C24.5974 79.8044 24.4195 79.8577 24.2417 79.8577C24.0679 79.8577 23.8942 79.8069 23.7436 79.705C23.4391 79.4988 23.2928 79.1263 23.376 78.768L25.5795 69.2755C19.6554 66.3693 16.1426 61.7012 16.1426 56.6791C16.1426 53.2348 17.7473 49.9793 20.7831 47.2644C23.6875 44.667 27.6398 42.7927 32.2128 41.8441C32.6933 41.7447 33.1638 42.0532 33.2635 42.5337C33.3631 43.0144 33.0544 43.4847 32.5739 43.5844C28.3679 44.4568 24.6012 46.2343 21.9679 48.5891C19.3197 50.9574 17.9199 53.7548 17.9199 56.6791C17.9199 61.1685 21.3051 65.3892 26.9754 67.9693C27.3605 68.1445 27.5686 68.567 27.4729 68.9791L25.6304 76.9163L34.9785 70.3942C35.1536 70.2721 35.3665 70.2174 35.5788 70.2391C36.6578 70.3512 37.7616 70.4081 38.8597 70.4081C41.3947 70.4081 43.8638 70.1128 46.2108 69.5316V67.254C46.2108 66.1188 47.1342 65.1954 48.2695 65.1954H55.2549C58.1879 62.7726 59.7995 59.7585 59.7995 56.679C59.7995 53.3886 57.9763 50.1988 54.6657 47.6972C54.2742 47.4012 54.1967 46.844 54.4925 46.4524C54.7884 46.0609 55.3456 45.9833 55.7372 46.2792C59.5029 49.1247 61.5768 52.8181 61.5768 56.679C61.5768 59.7251 60.2736 62.6851 57.8658 65.1954H62.4332C63.5685 65.1954 64.492 66.1189 64.492 67.2542ZM62.7147 67.2542C62.7147 67.1017 62.5858 66.9728 62.4334 66.9728H48.2695C48.117 66.9728 47.9881 67.1017 47.9881 67.2542V77.7989C47.9881 77.9514 48.117 78.0802 48.2695 78.0802H62.4334C62.5858 78.0802 62.7147 77.9514 62.7147 77.7989V67.2542ZM58.7756 72.5264C58.7756 72.8439 58.6062 73.1373 58.3313 73.296L53.2602 76.2236C53.1228 76.303 52.9693 76.3427 52.8159 76.3427C52.6625 76.3427 52.5091 76.3031 52.3716 76.2236C52.0966 76.065 51.9272 75.7716 51.9272 75.4541V69.5986C51.9272 69.2811 52.0966 68.9877 52.3716 68.829C52.6465 68.6702 52.9853 68.6702 53.2602 68.829L58.3313 71.7568C58.6062 71.9156 58.7756 72.2089 58.7756 72.5264ZM56.1096 72.5264L53.7046 71.1379V73.9149L56.1096 72.5264ZM73.0576 26.4309C73.2084 26.4309 73.3611 26.3925 73.5011 26.3116L76.9333 24.3302C77.3584 24.0848 77.504 23.5413 77.2586 23.1162C77.0133 22.6912 76.4699 22.5456 76.0446 22.791L72.6125 24.7725C72.1874 25.0179 72.0418 25.5614 72.2872 25.9864C72.4517 26.2714 72.7505 26.4309 73.0576 26.4309ZM67.3369 22.4214C67.477 22.5023 67.6297 22.5406 67.7805 22.5406C68.0876 22.5406 68.3863 22.3813 68.5509 22.0962L70.6411 18.4757C70.8865 18.0507 70.7409 17.5072 70.3159 17.2618C69.8909 17.0164 69.3474 17.162 69.102 17.587L67.0117 21.2075C66.7663 21.6325 66.9119 22.176 67.3369 22.4214ZM72.8995 32.0559C72.8995 32.5467 73.2974 32.9446 73.7882 32.9446H77.9688C78.4595 32.9446 78.8574 32.5467 78.8574 32.0559C78.8574 31.5651 78.4595 31.1672 77.9688 31.1672H73.7882C73.2974 31.1672 72.8995 31.5651 72.8995 32.0559ZM35.2497 41.8087C35.7222 40.0449 36.8479 38.574 38.4195 37.6667L43.0678 34.9831C43.2718 34.8651 43.5146 34.8331 43.7422 34.8942C43.8321 34.9183 43.9164 34.9565 43.9932 35.0059C48.7702 31.4308 52.5369 27.2918 54.6947 23.2408L54.6129 23.0992C53.6059 21.3551 54.2057 19.117 55.9497 18.1098C57.6941 17.103 59.9321 17.7027 60.9391 19.4467L64.5654 25.7275C66.4916 24.7311 68.8883 25.4188 69.9837 27.3162C71.079 29.2135 70.4762 31.6326 68.6504 32.8029L72.2767 39.0838C72.763 39.9261 72.8914 40.91 72.6384 41.8545C72.3852 42.7989 71.7821 43.5869 70.9397 44.0733C70.3797 44.3966 69.7572 44.5618 69.1252 44.5618C68.8065 44.5618 68.4856 44.5198 68.1691 44.435C67.2247 44.1819 66.4367 43.5787 65.9505 42.7365L65.8687 42.5949C61.3218 42.4393 55.9085 43.6099 50.4717 45.919L56.8882 54.5559C57.5285 55.4179 57.4162 56.6081 56.6268 57.3244L55.2152 58.6053C54.8328 58.9522 54.3343 59.1427 53.8228 59.1427C53.757 59.1427 53.6911 59.1396 53.6252 59.1332C53.0531 59.078 52.5281 58.783 52.1851 58.3236L45.4723 49.3412L45.2381 49.4764C44.1935 50.0794 43.0318 50.3875 41.8522 50.3875C41.2571 50.3875 40.6575 50.3091 40.066 50.1507C38.3022 49.6781 36.8314 48.5523 35.924 46.9808C35.0166 45.4091 34.7771 43.5723 35.2497 41.8087ZM55.4614 55.6157L49.2007 47.1885L47.0223 48.4462L53.6089 57.2598C53.6662 57.3367 53.7423 57.3589 53.796 57.3641C53.8441 57.3687 53.9369 57.3651 54.0208 57.289L55.4323 56.0081C55.5432 55.9075 55.5556 55.7424 55.4614 55.6157ZM65.4565 27.271L67.7593 31.2595C68.7368 30.582 69.0497 29.2531 68.4445 28.2049C67.8393 27.1568 66.532 26.7632 65.4565 27.271ZM56.1521 22.2105L67.4895 41.8477C67.7385 42.2788 68.1431 42.5879 68.6291 42.7181C69.1149 42.848 69.6198 42.7829 70.0511 42.534C70.4822 42.2851 70.7913 41.8804 70.9216 41.3946C71.0517 40.9087 70.9863 40.4037 70.7375 39.9726L59.3999 20.3355C59.0531 19.7346 58.4214 19.3983 57.7729 19.3983C57.455 19.3983 57.1331 19.479 56.8385 19.6491C56.4074 19.898 56.0983 20.3027 55.9682 20.7885C55.838 21.2744 55.9033 21.7794 56.1521 22.2105ZM44.9678 36.4965L49.5254 44.3907C54.8557 42.0943 60.2027 40.8457 64.8357 40.8058L55.7276 25.0297C53.3765 29.022 49.6216 33.0285 44.9678 36.4965ZM37.4631 46.092C38.133 47.2524 39.2208 48.0841 40.5258 48.4337C41.8308 48.7835 43.1887 48.607 44.3491 47.9371L48.2278 45.6978L43.1868 36.9664L39.3081 39.2058C38.1476 39.8757 37.3161 40.9634 36.9663 42.2685C36.6166 43.5736 36.7932 44.9316 37.4631 46.092ZM21.018 27.4159C21.018 24.4396 23.4393 22.0181 26.4158 22.0181C29.3922 22.0181 31.8135 24.4395 31.8135 27.4159C31.8135 30.3922 29.3922 32.8135 26.4158 32.8135C23.4393 32.8135 21.018 30.3922 21.018 27.4159ZM22.7953 27.4159C22.7953 29.4122 24.4194 31.0362 26.4158 31.0362C28.4121 31.0362 30.0362 29.4122 30.0362 27.4159C30.0362 25.4195 28.4121 23.7954 26.4158 23.7954C24.4194 23.7954 22.7953 25.4195 22.7953 27.4159ZM16.1426 28.3543V26.4774C16.1426 25.6474 16.8177 24.9723 17.6476 24.9723C18.3827 24.9723 18.6726 24.4104 18.7438 24.2381C18.8152 24.0658 19.0077 23.4635 18.4878 22.9437C18.2035 22.6596 18.0469 22.2816 18.0469 21.8795C18.0469 21.4774 18.2034 21.0993 18.4878 20.8151L19.8148 19.4879C20.4016 18.901 21.3565 18.901 21.9434 19.4879C22.4633 20.0078 23.0657 19.8153 23.2379 19.744C23.4101 19.6726 23.972 19.3828 23.972 18.6477C23.972 17.8177 24.6472 17.1426 25.4771 17.1426H27.3539C28.1838 17.1426 28.859 17.8177 28.859 18.6477C28.859 19.3828 29.4209 19.6726 29.5931 19.744C29.7653 19.8153 30.3679 20.0075 30.8875 19.4879C31.4745 18.901 32.4293 18.901 33.0162 19.4879L34.3433 20.8151C34.6276 21.0993 34.7841 21.4773 34.7841 21.8793C34.7841 22.2814 34.6276 22.6595 34.3432 22.9437C33.8235 23.4635 34.0159 24.0658 34.0873 24.2381C34.1586 24.4103 34.4485 24.9723 35.1835 24.9723C36.0134 24.9723 36.6885 25.6474 36.6885 26.4774V28.3543C36.6885 29.1842 36.0134 29.8593 35.1835 29.8593C34.4485 29.8593 34.1585 30.4212 34.0873 30.5935C34.0159 30.7657 33.8235 31.3682 34.3433 31.8879C34.9302 32.4748 34.9302 33.4298 34.3433 34.0166L33.0162 35.3437C32.7321 35.628 32.354 35.7846 31.9519 35.7846C31.5499 35.7846 31.1718 35.6281 30.8875 35.3437C30.3678 34.8241 29.7655 35.0163 29.5931 35.0878C29.421 35.1591 28.859 35.449 28.859 36.1842C28.859 37.014 28.1838 37.6892 27.3539 37.6892H25.4773C24.6474 37.6892 23.9723 37.014 23.9723 36.1842C23.9723 35.4474 23.4108 35.1576 23.2388 35.0864C23.0665 35.015 22.4646 34.8228 21.9437 35.3439C21.6596 35.6281 21.2815 35.7848 20.8795 35.7848C20.4774 35.7848 20.0992 35.6282 19.8151 35.3439L18.488 34.0168C18.2038 33.7327 18.0471 33.3546 18.0471 32.9524C18.0471 32.5504 18.2037 32.1723 18.488 31.8881C19.0078 31.3683 18.8153 30.7659 18.744 30.5938C18.6726 30.4215 18.3828 29.8596 17.6477 29.8596C16.8177 29.8593 16.1426 29.1842 16.1426 28.3543ZM17.9199 28.0938C19.0233 28.1899 19.9533 28.8686 20.386 29.9134C20.8188 30.9583 20.641 32.0959 19.9287 32.9441L20.8876 33.9029C21.7364 33.1898 22.8743 33.0117 23.9187 33.4443C24.9633 33.8769 25.6417 34.8075 25.7377 35.912H27.0936C27.1897 34.8086 27.8684 33.8786 28.9132 33.4458C29.9579 33.0132 31.0955 33.1907 31.9438 33.9029L32.9027 32.9441C32.1903 32.0959 32.0127 30.9583 32.4454 29.9134C32.8782 28.8687 33.8081 28.1899 34.9115 28.0938V26.738C33.8081 26.6418 32.878 25.9632 32.4454 24.9183C32.0127 23.8735 32.1903 22.736 32.9025 21.8877L31.9437 20.9288C31.0952 21.641 29.9577 21.8186 28.913 21.386C27.8684 20.9532 27.1897 20.0233 27.0936 18.9199H25.7377C25.6416 20.0233 24.9629 20.9533 23.9182 21.386C22.8734 21.8188 21.7358 21.641 20.8876 20.9287L19.9287 21.8876C20.6409 22.736 20.8186 23.8735 20.3859 24.9182C19.9533 25.9632 19.0233 26.6418 17.9199 26.738V28.0938ZM78.7876 51.7211C78.4739 54.3525 77.2086 56.8559 76.4821 58.1139C75.7557 59.3719 74.2206 61.7194 72.0986 63.3068C70.7228 64.336 69.3373 64.8537 67.9949 64.8537C67.0575 64.8537 66.1409 64.6013 65.263 64.0944L64.9439 63.9101C64.418 63.6065 64.0419 63.1156 63.8842 62.5274C63.7266 61.9394 63.807 61.3261 64.1105 60.8004L65.3866 58.5902C66.0141 57.5031 67.4092 57.1294 68.4963 57.7569L69.2448 58.1891C69.4569 58.3117 69.708 58.2702 69.8698 58.086C70.5676 57.2902 71.2104 56.3863 71.7803 55.3993C72.3502 54.4122 72.8117 53.4034 73.1518 52.4014C73.2305 52.1693 73.1408 51.931 72.9287 51.8085L72.1802 51.3765C71.6544 51.073 71.2782 50.5819 71.1205 49.9939C70.963 49.4058 71.0433 48.7924 71.3469 48.2667L72.6229 46.0565C73.2503 44.9696 74.6454 44.5958 75.7326 45.2232L76.0519 45.4076C78.1871 46.6403 79.133 48.8234 78.7876 51.7211ZM75.1632 46.9467L74.8441 46.7624C74.6058 46.6248 74.2997 46.7068 74.1622 46.9451L72.8862 49.1552C72.82 49.2698 72.8026 49.4042 72.8374 49.5337C72.8721 49.6631 72.9544 49.7709 73.069 49.8371L73.8175 50.2691C74.77 50.8192 75.1885 51.9308 74.8349 52.9724C74.4575 54.0845 73.9476 55.2 73.3196 56.2878C72.6917 57.3754 71.9805 58.3747 71.2061 59.2579C70.4807 60.0851 69.3089 60.2783 68.3562 59.7284L67.6077 59.2964C67.5294 59.2512 67.4437 59.2296 67.359 59.2296C67.1864 59.2296 67.0182 59.3191 66.9257 59.479L65.6497 61.6892C65.5836 61.8038 65.5662 61.9381 65.601 62.0676C65.6356 62.1971 65.7179 62.3049 65.8325 62.371L66.1517 62.5554C67.6651 63.4291 69.2621 63.2093 71.0339 61.8837C72.9715 60.4342 74.413 58.1431 74.9431 57.2252C75.473 56.3075 76.7364 53.9133 77.0228 51.5107C77.2847 49.3133 76.6765 47.8204 75.1632 46.9467Z" fill="white"/>
</svg>
