<svg width="96" height="96" viewBox="0 0 96 96" fill="none" xmlns="http://www.w3.org/2000/svg">
<circle cx="48" cy="48" r="48" fill="#0A0B0F"/>
<path d="M23.125 22.0938H25.1562V24.125H23.125V22.0938Z" fill="white"/>
<path d="M27.1875 22.0938H29.2188V24.125H27.1875V22.0938Z" fill="white"/>
<path d="M31.25 22.0938H33.2812V24.125H31.25V22.0938Z" fill="white"/>
<path d="M24.1406 44.4375H40.3906C40.66 44.4375 40.9183 44.3305 41.1088 44.14C41.2992 43.9496 41.4062 43.6912 41.4062 43.4219V33.2656C41.4062 32.9963 41.2992 32.7379 41.1088 32.5475C40.9183 32.357 40.66 32.25 40.3906 32.25H24.1406C23.8713 32.25 23.6129 32.357 23.4225 32.5475C23.232 32.7379 23.125 32.9963 23.125 33.2656V43.4219C23.125 43.6912 23.232 43.9496 23.4225 44.14C23.6129 44.3305 23.8713 44.4375 24.1406 44.4375ZM25.1562 34.2812H39.375V42.4062H25.1562V34.2812Z" fill="white"/>
<path d="M49.5312 33.2656H65.7812V35.2969H49.5312V33.2656Z" fill="white"/>
<path d="M45.4688 37.3281H63.75V39.3594H45.4688V37.3281Z" fill="white"/>
<path d="M45.4688 41.3906H59.6875V43.4219H45.4688V41.3906Z" fill="white"/>
<path d="M27.1875 48.5H53.5938V50.5312H27.1875V48.5Z" fill="white"/>
<path d="M23.125 52.5625H49.5312V54.5938H23.125V52.5625Z" fill="white"/>
<path d="M23.125 56.625H45.4688V58.6562H23.125V56.625Z" fill="white"/>
<path d="M23.125 60.6875H45.4688V62.7188H23.125V60.6875Z" fill="white"/>
<path d="M23.125 64.75H45.4688V66.7812H23.125V64.75Z" fill="white"/>
<path d="M23.125 48.5H25.1562V50.5312H23.125V48.5Z" fill="white"/>
<path d="M72.8906 24.125H71.875V23.1094C71.875 21.7626 71.34 20.4709 70.3877 19.5186C69.4353 18.5663 68.1437 18.0312 66.7969 18.0312H22.1094C20.7626 18.0312 19.4709 18.5663 18.5186 19.5186C17.5663 20.4709 17.0312 21.7626 17.0312 23.1094V67.7969C17.0312 69.1437 17.5663 70.4353 18.5186 71.3877C19.4709 72.34 20.7626 72.875 22.1094 72.875H23.125V73.8906C23.125 75.2374 23.66 76.5291 24.6123 77.4814C25.5647 78.4337 26.8563 78.9688 28.2031 78.9688H72.8906C74.2374 78.9688 75.5291 78.4337 76.4814 77.4814C77.4337 76.5291 77.9688 75.2374 77.9688 73.8906V29.2031C77.9688 27.8563 77.4337 26.5647 76.4814 25.6123C75.5291 24.66 74.2374 24.125 72.8906 24.125ZM71.0727 39.9078L75.3891 44.2242L72.5148 47.0984L68.1984 42.782L71.0727 39.9078ZM52.7102 60.332L53.5125 58.25L57.0469 61.7844L54.9648 62.5867L52.7102 60.332ZM52.893 63.3789L51.2984 63.9984L51.918 62.4039L52.893 63.3789ZM55.9906 57.8641L54.5586 56.432L66.7664 44.2242L68.1984 45.6562L55.9906 57.8641ZM69.6406 47.0984L71.0727 48.5305L58.8648 60.7383L57.4328 59.3062L69.6406 47.0984ZM19.0625 23.1094C19.0649 22.302 19.3867 21.5285 19.9576 20.9576C20.5285 20.3867 21.302 20.0649 22.1094 20.0625H66.7969C67.6042 20.0649 68.3778 20.3867 68.9487 20.9576C69.5196 21.5285 69.8413 22.302 69.8438 23.1094V26.1562H19.0625V23.1094ZM22.1094 70.8438C21.302 70.8413 20.5285 70.5196 19.9576 69.9487C19.3867 69.3778 19.0649 68.6042 19.0625 67.7969V28.1875H69.8438V38.2727L52.4055 55.7109C52.3037 55.8119 52.2242 55.933 52.1719 56.0664L48.5867 65.4C48.513 65.583 48.4948 65.7838 48.5346 65.9771C48.5743 66.1703 48.6702 66.3476 48.8102 66.4867C49.0023 66.6762 49.2614 66.782 49.5312 66.7812C49.6567 66.7823 49.781 66.7581 49.8969 66.7102L59.2305 63.125C59.3639 63.0727 59.485 62.9932 59.5859 62.8914L69.8438 52.6336V67.7969C69.8413 68.6042 69.5196 69.3778 68.9487 69.9487C68.3778 70.5196 67.6042 70.8413 66.7969 70.8438H22.1094ZM75.9375 73.8906C75.9351 74.698 75.6133 75.4715 75.0424 76.0424C74.4715 76.6133 73.698 76.9351 72.8906 76.9375H28.2031C27.3958 76.9351 26.6222 76.6133 26.0513 76.0424C25.4804 75.4715 25.1587 74.698 25.1562 73.8906V72.875H66.7969C68.1437 72.875 69.4353 72.34 70.3877 71.3877C71.34 70.4353 71.875 69.1437 71.875 67.7969V50.6023L75.9375 46.5398V73.8906ZM75.9375 41.8984L71.875 37.8359V34.2812H75.9375V41.8984ZM75.9375 32.25H71.875V26.1562H72.8906C73.698 26.1587 74.4715 26.4804 75.0424 27.0513C75.6133 27.6222 75.9351 28.3958 75.9375 29.2031V32.25Z" fill="white"/>
<path d="M45.4688 33.2656H47.5V35.2969H45.4688V33.2656Z" fill="white"/>
</svg>
