<svg width="96" height="96" viewBox="0 0 96 96" fill="none" xmlns="http://www.w3.org/2000/svg">
<circle cx="48" cy="48" r="48" fill="#0A0B0F"/>
<path d="M47.3007 55.4926C47.288 55.4926 47.2753 55.4938 47.2626 55.4938C46.8589 55.4938 46.5225 55.1765 46.5022 54.7689C46.4819 54.3487 46.8056 53.992 47.2258 53.9717C55.6326 53.5642 61.7404 49.4153 66.3335 40.9577L65.2392 41.3208C64.8393 41.4528 64.4089 41.237 64.2756 40.8384C64.1436 40.4397 64.3594 40.0081 64.758 39.8748L67.6284 38.9214C67.8201 38.8579 68.0296 38.8731 68.2099 38.9633C68.3902 39.0534 68.5273 39.2121 68.5907 39.4038L69.5442 42.2742C69.6762 42.6729 69.4604 43.1045 69.0617 43.2378C68.9818 43.2645 68.9005 43.2771 68.8218 43.2771C68.5031 43.2771 68.2048 43.0753 68.0994 42.7554L67.7173 41.6052C62.8487 50.629 56.3245 55.0546 47.3007 55.4926ZM78.0957 20.3799V61.5127V63.855C78.0957 64.6586 77.4419 65.3124 76.6383 65.3124H74.9968C74.8749 65.6742 74.7277 66.031 74.5563 66.375L75.7179 67.5366C76.2866 68.1054 76.2866 69.0296 75.7179 69.5983L74.0612 71.2551C73.4924 71.8238 72.5682 71.8238 71.9994 71.2551L70.8378 70.0935C70.4938 70.2648 70.137 70.4134 69.7752 70.534V72.1755C69.7752 72.9791 69.1214 73.6329 68.3178 73.6329H65.9755C65.1719 73.6329 64.5181 72.9791 64.5181 72.1755V70.534C64.155 70.4121 63.7983 70.2648 63.4555 70.0935L62.2939 71.2551C61.7251 71.8238 60.8009 71.8238 60.2322 71.2551L58.5754 69.5996C58.0067 69.0309 58.0067 68.1066 58.5754 67.5379L59.737 66.3763C59.5656 66.0335 59.4184 65.6768 59.2965 65.3137H57.6563C56.8527 65.3137 56.1988 64.6599 56.1988 63.8563V63.4475H51.6971C51.7212 63.6328 51.7352 63.8207 51.7352 64.0124V67.1469L53.9289 67.0936C54.9255 67.0707 55.8345 67.4249 56.5492 68.1231C57.264 68.8214 57.6423 69.7189 57.6423 70.7181V73.8106C57.6423 75.635 56.5886 77.8071 54.5751 78.4292C53.0491 78.9002 51.5816 79.0932 50.1787 79.0932C47.7793 79.0932 45.5691 78.532 43.5772 77.8439C43.4845 78.1601 43.1925 78.3924 42.8459 78.3924H37.9773C37.5571 78.3924 37.2155 78.0509 37.2155 77.6307V67.1761C37.2155 66.7559 37.5571 66.4144 37.9773 66.4144H42.8459C43.2052 66.4144 43.5061 66.6632 43.5861 66.9983C44.7693 66.9171 45.5665 66.6327 45.9563 66.1478C46.4654 65.5143 46.3079 64.4555 46.0959 63.4487H36.7039L36.982 64.4859C37.1406 65.0775 37.0581 65.6971 36.7509 66.2303C36.4424 66.7635 35.9473 67.1443 35.3557 67.303C35.1589 67.3563 34.9583 67.3817 34.759 67.3817C34.3604 67.3817 33.9655 67.2764 33.6101 67.072C33.2533 66.8663 32.9664 66.5743 32.7671 66.2277C31.2424 65.2324 26.9006 64.1305 25.9066 64.3768L25.0953 64.5938L27.2497 68.033C27.8007 68.9128 27.6077 70.016 26.8003 70.5987C26.4702 70.8361 26.0894 70.9504 25.7111 70.9504C25.1309 70.9504 24.5583 70.6812 24.194 70.176L20.8602 65.5498C20.3105 65.527 19.7735 65.3822 19.2834 65.1169C18.4468 64.6637 17.8539 63.9223 17.614 63.026L17.0173 60.7979C16.5247 58.9609 17.6851 57.049 19.6021 56.5349L19.8699 56.4625V20.3799C19.8699 19.0151 20.9808 17.9043 22.3455 17.9043H75.6201C76.9849 17.9043 78.0957 19.0151 78.0957 20.3799ZM21.3934 20.3799V27.8523H76.5723V20.3799C76.5723 19.8556 76.1457 19.4277 75.6201 19.4277H22.3455C21.8212 19.4277 21.3934 19.8543 21.3934 20.3799ZM20.0083 63.7775C20.4869 64.0365 21.0481 64.0987 21.5902 63.954L24.7881 63.0971L24.0188 60.2241L23.1225 57.1696L19.9969 58.0075C18.8911 58.3033 18.2145 59.3786 18.4887 60.4044L19.0854 62.6324C19.2161 63.1199 19.5437 63.5262 20.0083 63.7775ZM23.5579 65.0039L22.541 65.2769L25.4305 69.2835C25.5397 69.4346 25.7593 69.4701 25.9104 69.3609C26.0792 69.2391 26.0614 69.0017 25.9599 68.8404L23.5579 65.0039ZM25.4876 59.8217L26.2925 62.8254C27.8058 62.8368 30.3474 63.4919 32.1514 64.232L28.9928 52.4444C27.7855 53.9933 25.8723 55.8658 24.5571 56.6479L25.4825 59.8039C25.4838 59.8103 25.4863 59.8153 25.4876 59.8217ZM35.5106 64.877L31.5395 50.0577C31.4468 49.7111 31.132 49.4813 30.7879 49.4813C30.7219 49.4813 30.6546 49.4902 30.5873 49.508C30.388 49.5613 30.2217 49.6908 30.1163 49.8711C30.0122 50.0514 29.9843 50.2608 30.0376 50.4602L34.0087 65.2794C34.062 65.4787 34.1915 65.645 34.3718 65.7504C34.5533 65.8545 34.7615 65.8824 34.9609 65.8291C35.1602 65.7758 35.3265 65.6463 35.4319 65.466C35.536 65.2857 35.5639 65.0763 35.5106 64.877ZM36.4691 58.5458C36.8093 57.9555 36.9007 57.2687 36.7242 56.611C36.4284 55.5091 35.4509 54.7689 34.3667 54.7232L35.6261 59.4243C35.9714 59.2072 36.2596 58.9089 36.4691 58.5458ZM42.0842 67.9353H38.739V76.8664H42.0842V67.9353ZM50.9912 68.6868C50.7843 68.6932 50.5875 68.6132 50.4403 68.471C50.293 68.3275 50.2105 68.1308 50.2105 67.9264V64.0124C50.2105 62.4839 48.9676 61.241 47.4391 61.241C47.3667 61.241 47.3185 61.2474 47.2893 61.2524C47.2309 61.5051 47.3896 62.2325 47.4975 62.7238C47.7996 64.1013 48.1754 65.8151 47.142 67.0999C46.459 67.9492 45.2974 68.4177 43.6064 68.5218V76.238C46.7548 77.3755 50.2041 78.1842 54.1244 76.973C55.3724 76.5871 56.1176 75.0624 56.1176 73.8106V70.7168C56.1176 70.1201 55.9107 69.6288 55.4841 69.2124C55.0575 68.796 54.5599 68.5979 53.9645 68.6145L50.9912 68.6868ZM57.6563 60.0553H59.2978C59.4196 59.6922 59.5669 59.3354 59.7383 58.9927L58.5767 57.8311C58.3012 57.5556 58.1501 57.1899 58.1501 56.8002C58.1501 56.4104 58.3012 56.0448 58.5767 55.7693L60.2334 54.1126C60.8022 53.5438 61.7264 53.5438 62.2951 54.1126L63.4568 55.2742C63.7995 55.1028 64.1563 54.9556 64.5194 54.8337V53.1922C64.5194 52.3886 65.1732 51.7348 65.9768 51.7348H68.3191C69.1227 51.7348 69.7765 52.3886 69.7765 53.1922V54.8337C70.1396 54.9556 70.4963 55.1028 70.8391 55.2742L72.0007 54.1126C72.5695 53.5438 73.4937 53.5438 74.0624 54.1126L75.7192 55.7693C75.9946 56.0436 76.1457 56.4104 76.1457 56.8002C76.1457 57.1899 75.9946 57.5568 75.7192 57.8311L74.5575 58.9927C74.7289 59.3354 74.8762 59.6922 74.9981 60.0553H76.5723V29.3758H21.3934V56.0562L23.4348 55.5091C24.3984 55.2323 27.6331 52.1004 28.5002 50.4805C28.4545 50.0069 28.5535 49.5321 28.7973 49.1106C29.1058 48.5774 29.6009 48.1966 30.1925 48.0379C30.7841 47.8792 31.4049 47.9617 31.9381 48.2689C32.4713 48.5774 32.8522 49.0726 33.0109 49.6642L33.9605 53.2087C35.8724 53.0678 37.6802 54.298 38.1944 56.2162C38.4762 57.2674 38.3315 58.3643 37.7868 59.3075C37.3717 60.0261 36.7623 60.5872 36.0311 60.9389L36.2951 61.9228H45.7938C45.71 61.2791 45.7468 60.718 46.1035 60.2736C46.4006 59.9029 46.85 59.7163 47.4391 59.7163C49.0489 59.7163 50.4542 60.6075 51.1893 61.9228H56.1963V61.5127C56.1976 60.7091 56.8514 60.0553 57.6563 60.0553ZM76.5723 61.5787H74.9486C74.3176 61.5787 73.7603 61.1763 73.5635 60.5758C73.4581 60.2559 73.3274 59.9397 73.175 59.6389C72.8894 59.0752 72.9973 58.396 73.4442 57.9491L74.5931 56.8002L73.0303 55.2374L71.8814 56.3863C71.4345 56.8332 70.7553 56.9411 70.1916 56.6567C69.8907 56.5044 69.5746 56.3736 69.2547 56.2683C68.6555 56.0715 68.2518 55.5142 68.2518 54.8832V53.2595H66.0415V54.8832C66.0415 55.5142 65.6391 56.0715 65.0386 56.2683C64.7187 56.3736 64.4026 56.5044 64.1017 56.6567C63.538 56.9424 62.8588 56.8332 62.4119 56.3876L61.263 55.2387L59.7002 56.8015L60.8491 57.9504C61.296 58.3973 61.4039 59.0765 61.1195 59.6389C60.9672 59.941 60.8364 60.2559 60.7311 60.5758C60.5343 61.175 59.977 61.5787 59.346 61.5787H57.7223V63.7902H59.346C59.977 63.7902 60.5343 64.1927 60.7311 64.7932C60.8364 65.1131 60.9672 65.4279 61.1195 65.7301C61.4052 66.2938 61.2973 66.9729 60.8504 67.4198L59.7015 68.5687L61.2643 70.1315L62.4132 68.9826C62.8601 68.5357 63.5393 68.4278 64.1029 68.7135C64.4038 68.8658 64.7199 68.9966 65.0399 69.102C65.6391 69.2987 66.0428 69.8561 66.0428 70.487V72.1107H68.253V70.487C68.253 69.8561 68.6555 69.3 69.256 69.102C69.5759 68.9966 69.8907 68.8658 70.1929 68.7135C70.7566 68.4278 71.4358 68.5357 71.8826 68.9826L73.0316 70.1315L74.5944 68.5687L73.4454 67.4198C72.9986 66.9729 72.8906 66.2938 73.1763 65.7301C73.3286 65.4279 73.4594 65.1131 73.5648 64.7932C73.7615 64.1939 74.3189 63.7902 74.9498 63.7902H76.5723V61.5787ZM34.0506 36.4636C34.1458 36.7581 34.0544 37.0806 33.8183 37.2812L32.0676 38.7627L32.6135 40.9895C32.6871 41.2903 32.5716 41.6052 32.3215 41.7867C32.0714 41.9683 31.7363 41.981 31.4722 41.8185L29.5222 40.6111L27.5722 41.8185C27.449 41.8946 27.3094 41.9327 27.171 41.9327C27.0136 41.9327 26.8562 41.8845 26.7229 41.7867C26.4728 41.6052 26.3572 41.2891 26.4309 40.9895L26.9768 38.7627L25.2261 37.2812C24.99 37.0818 24.8986 36.7581 24.9938 36.4636C25.089 36.169 25.353 35.9621 25.6615 35.9393L27.948 35.7704L28.8151 33.6478C28.9319 33.3608 29.2112 33.1742 29.5196 33.1742C29.8281 33.1742 30.1074 33.3608 30.2242 33.6478L31.0913 35.7704L33.379 35.9393C33.6913 35.9621 33.9554 36.169 34.0506 36.4636ZM31.4113 37.3218L30.5124 37.2558C30.2242 37.2342 29.9729 37.0514 29.8637 36.7848L29.5235 35.9507L29.1832 36.7848C29.074 37.0526 28.8227 37.2354 28.5345 37.2558L27.6357 37.3218L28.3238 37.9032C28.5446 38.0898 28.6399 38.3856 28.5713 38.6662L28.3568 39.5409L29.1223 39.0661C29.2454 38.9899 29.3838 38.9519 29.5235 38.9519C29.6631 38.9519 29.8015 38.9899 29.9246 39.0661L30.6902 39.5409L30.4756 38.6662C30.4071 38.3856 30.5023 38.0898 30.7232 37.9032L31.4113 37.3218ZM44.9584 36.4636C45.0536 36.7581 44.9622 37.0806 44.7261 37.2812L42.9754 38.7627L43.5213 40.9895C43.5949 41.2903 43.4794 41.6052 43.2293 41.7867C43.096 41.8832 42.9386 41.9327 42.7812 41.9327C42.6428 41.9327 42.5031 41.8946 42.38 41.8185L40.43 40.6111L38.48 41.8185C38.2172 41.9822 37.8821 41.9695 37.6307 41.7867C37.3793 41.6039 37.2651 41.2891 37.3387 40.9895L37.8846 38.7627L36.1339 37.2812C35.8978 37.0818 35.8064 36.7581 35.9016 36.4636C35.9968 36.169 36.2609 35.9621 36.5694 35.9393L38.8558 35.7704L39.7229 33.6478C39.8397 33.3608 40.119 33.1742 40.4275 33.1742C40.736 33.1742 41.0153 33.3608 41.1321 33.6478L41.9991 35.7704L44.2856 35.9393C44.5991 35.9621 44.8632 36.169 44.9584 36.4636ZM42.3191 37.3218L41.4202 37.2558C41.1321 37.2342 40.8807 37.0514 40.7715 36.7848L40.4313 35.9507L40.091 36.7848C39.9819 37.0526 39.7305 37.2354 39.4423 37.2558L38.5435 37.3218L39.2316 37.9032C39.4525 38.0898 39.5477 38.3856 39.4791 38.6662L39.2646 39.5409L40.0301 39.0661C40.2764 38.9138 40.5862 38.9138 40.8324 39.0661L41.598 39.5409L41.3834 38.6662C41.3149 38.3856 41.4101 38.0898 41.631 37.9032L42.3191 37.3218ZM46.8945 36.4636C46.9897 36.169 47.2537 35.9621 47.5622 35.9393L52.116 35.6028L53.8426 31.3766C53.9594 31.0896 54.2387 30.903 54.5472 30.903C54.8557 30.903 55.135 31.0896 55.2518 31.3766L56.9783 35.6028L61.5321 35.9393C61.8406 35.9621 62.1047 36.169 62.1999 36.4636C62.2951 36.7581 62.2037 37.0806 61.9676 37.2812L58.4815 40.2303L59.5682 44.6647C59.6418 44.9656 59.5263 45.2805 59.2762 45.462C59.1429 45.5585 58.9855 45.608 58.828 45.608C58.6897 45.608 58.55 45.5699 58.4269 45.4938L54.5459 43.0893L50.665 45.4938C50.4022 45.6575 50.067 45.6448 49.8156 45.462C49.5643 45.2792 49.45 44.9644 49.5237 44.6647L50.6104 40.2303L47.1242 37.2812C46.8906 37.0806 46.7992 36.7581 46.8945 36.4636ZM49.5338 37.3218L51.9573 39.3708C52.1782 39.5574 52.2735 39.8532 52.2049 40.1338L51.4495 43.2162L54.1473 41.5455C54.2704 41.4693 54.4088 41.4313 54.5485 41.4313C54.6881 41.4313 54.8265 41.4693 54.9496 41.5455L57.6474 43.2162L56.892 40.1338C56.8235 39.8532 56.9187 39.5574 57.1396 39.3708L59.5631 37.3218L56.3982 37.0882C56.11 37.0666 55.8586 36.8838 55.7494 36.6172L54.5485 33.6795L53.3475 36.6172C53.2383 36.8851 52.9869 37.0679 52.6987 37.0882L49.5338 37.3218ZM72.0807 62.6845C72.0807 65.4051 69.8679 67.6179 67.1473 67.6179C64.4267 67.6179 62.2139 65.4051 62.2139 62.6845C62.2139 59.9639 64.4267 57.7511 67.1473 57.7511C69.8666 57.7511 72.0807 59.9639 72.0807 62.6845ZM70.5572 62.6845C70.5572 60.8043 69.0275 59.2745 67.1473 59.2745C65.2671 59.2745 63.7373 60.8043 63.7373 62.6845C63.7373 64.5647 65.2671 66.0944 67.1473 66.0944C69.0275 66.0944 70.5572 64.5647 70.5572 62.6845ZM41.744 54.7854L39.7902 55.3085C39.3839 55.4177 39.1427 55.8354 39.2519 56.2416C39.3433 56.5818 39.6505 56.8065 39.9869 56.8065C40.0517 56.8065 40.119 56.7977 40.185 56.7799L42.1388 56.2568C42.545 56.1477 42.7863 55.73 42.6771 55.3237C42.5679 54.9175 42.1502 54.6775 41.744 54.7854ZM42.1388 58.2843L40.185 57.7612C39.7787 57.6533 39.3611 57.8933 39.2519 58.2995C39.1427 58.7058 39.3839 59.1234 39.7902 59.2326L41.744 59.7557C41.81 59.7734 41.876 59.7823 41.942 59.7823C42.2784 59.7823 42.5857 59.5576 42.6771 59.2174C42.7863 58.8111 42.545 58.3935 42.1388 58.2843ZM40.7309 53.031C41.028 52.7339 41.028 52.2515 40.7309 51.9531C40.4338 51.6548 39.9514 51.6561 39.653 51.9531L38.2223 53.3839C37.9252 53.681 37.9252 54.1634 38.2223 54.4617C38.3708 54.6103 38.5663 54.6852 38.7606 54.6852C38.9561 54.6852 39.1503 54.6103 39.2988 54.4617L40.7309 53.031ZM52.6861 23.7695C52.6861 22.4467 53.7626 21.3701 55.0855 21.3701H71.6605C72.9833 21.3701 74.0599 22.4467 74.0599 23.7695C74.0599 25.0924 72.9833 26.1689 71.6605 26.1689H55.0855C53.7626 26.1702 52.6861 25.0937 52.6861 23.7695ZM54.2095 23.7695C54.2095 24.2532 54.603 24.6455 55.0855 24.6455H71.6605C72.1442 24.6455 72.5364 24.252 72.5364 23.7695C72.5364 23.2871 72.1429 22.8936 71.6605 22.8936H55.0855C54.6018 22.8936 54.2095 23.2871 54.2095 23.7695ZM25.5498 23.7695C25.5498 22.5267 26.5604 21.5161 27.8032 21.5161C29.0461 21.5161 30.0567 22.5267 30.0567 23.7695C30.0567 25.0124 29.0461 26.0229 27.8032 26.0229C26.5604 26.0229 25.5498 25.0124 25.5498 23.7695ZM27.0733 23.7695C27.0733 24.172 27.4008 24.4995 27.8032 24.4995C28.2057 24.4995 28.5332 24.172 28.5332 23.7695C28.5332 23.3671 28.2057 23.0396 27.8032 23.0396C27.4008 23.0396 27.0733 23.3671 27.0733 23.7695ZM31.4189 23.7695C31.4189 22.5267 32.4294 21.5161 33.6723 21.5161C34.9152 21.5161 35.9257 22.5267 35.9257 23.7695C35.9257 25.0124 34.9152 26.0229 33.6723 26.0229C32.4307 26.0242 31.4189 25.0124 31.4189 23.7695ZM32.9423 23.7695C32.9423 24.172 33.2698 24.4995 33.6723 24.4995C34.0747 24.4995 34.4023 24.172 34.4023 23.7695C34.4023 23.3671 34.0747 23.0396 33.6723 23.0396C33.2698 23.0396 32.9423 23.3671 32.9423 23.7695ZM37.2879 23.7695C37.2879 22.5267 38.2985 21.5161 39.5413 21.5161C40.7842 21.5161 41.7947 22.5267 41.7947 23.7695C41.7947 25.0124 40.7842 26.0229 39.5413 26.0229C38.2997 26.0242 37.2879 25.0124 37.2879 23.7695ZM38.8113 23.7695C38.8113 24.172 39.1389 24.4995 39.5413 24.4995C39.9438 24.4995 40.2713 24.172 40.2713 23.7695C40.2713 23.3671 39.9438 23.0396 39.5413 23.0396C39.1389 23.0396 38.8113 23.3671 38.8113 23.7695Z" fill="white"/>
</svg>
