<svg width="96" height="96" viewBox="0 0 96 96" fill="none" xmlns="http://www.w3.org/2000/svg">
<circle cx="48" cy="48" r="48" fill="#0A0B0F"/>
<path d="M72.1114 51.529V48.5194C72.1114 47.9924 71.6842 47.5654 71.1573 47.5654C70.6305 47.5654 70.2033 47.9924 70.2033 48.5194V50.7429C68.8063 50.2834 67.315 50.0338 65.7663 50.0338C65.6552 50.0338 65.5432 50.0363 65.4312 50.0389V36.6643C65.4312 36.1373 65.004 35.7102 64.4772 35.7102H64.0996L67.8172 31.7579L71.5348 35.7102H71.1572C70.6304 35.7102 70.2032 36.1373 70.2032 36.6643V44.7963C70.2032 45.3232 70.6302 45.7503 71.1572 45.7503C71.6842 45.7503 72.1113 45.3232 72.1113 44.7963V37.6183H73.7418C74.5527 37.6452 75.0118 36.5828 74.4368 36.0107L68.5121 29.7121C68.1543 29.3151 67.4801 29.3151 67.1224 29.7121L61.1977 36.0107C60.6226 36.5829 61.082 37.6452 61.8927 37.6183H63.5233V44.7758C62.2947 42.7059 60.5441 40.9861 58.4588 39.793V28.2022H60.0894C60.9003 28.2291 61.3593 27.1665 60.7844 26.5946L54.8597 20.2961C54.5018 19.8991 53.8277 19.8991 53.47 20.2961L47.5453 26.5946C46.9701 27.1667 47.4295 28.2293 48.2403 28.2022H49.8708V38.0743C48.0558 38.298 46.3431 38.8725 44.8066 39.7325V34.9249H46.4371C47.248 34.9518 47.7071 33.8892 47.1321 33.3172L41.2074 27.0186C40.8496 26.6217 40.1754 26.6217 39.8177 27.0186L33.893 33.3172C33.3179 33.8893 33.7773 34.9517 34.588 34.9249H36.2186V48.0069C35.7655 47.9565 35.3086 47.9298 34.8486 47.9298C33.5619 47.9298 32.321 48.129 31.1542 48.4967V26.7029H32.7847C33.5956 26.7298 34.0546 25.6673 33.4797 25.0953L27.5548 18.7965C27.197 18.3995 26.5228 18.3995 26.165 18.7965L20.2402 25.0952C19.665 25.6673 20.1245 26.7297 20.9352 26.7028H22.5658V34.528C22.5658 35.055 22.993 35.4821 23.5198 35.4821C24.0467 35.4821 24.4739 35.055 24.4739 34.528V25.7488C24.4739 25.2219 24.0468 24.7948 23.5198 24.7948H23.1423L26.8598 20.8425L30.5774 24.7948H30.1998C29.673 24.7948 29.2458 25.2219 29.2458 25.7488V49.2801C27.2978 50.2795 25.6496 51.7829 24.4736 53.6171V38.3442C24.4736 37.8173 24.0466 37.3902 23.5196 37.3902C22.9927 37.3902 22.5655 37.8173 22.5655 38.3442V59.3592C22.5625 59.4025 22.5587 59.4458 22.556 59.4892C18.1952 60.4427 15 64.3451 15 68.883C15 74.1864 19.3148 78.5012 24.6182 78.5012H53.9558C54.4827 78.5012 54.9099 78.0741 54.9099 77.5471C54.9099 77.0201 54.4828 76.5931 53.9558 76.5931H24.6182C20.3668 76.5931 16.908 73.1342 16.908 68.8828C16.908 65.024 19.7901 61.7383 23.6119 61.2402C24.0884 61.1782 24.4444 60.7712 24.4426 60.2906C24.4425 60.2735 24.4421 60.2565 24.4414 60.2359C24.4459 54.5013 29.1127 49.8376 34.8484 49.8376C36.1131 49.8376 37.3525 50.0641 38.5318 50.5105C39.0709 50.7301 39.7242 50.3567 39.8097 49.7811C40.8035 44.0418 45.7577 39.8761 51.5898 39.8761C57.9044 39.8761 63.147 44.8095 63.5252 51.1075C63.6214 52.2941 64.9577 51.936 65.7665 51.9419C72.563 51.9419 78.0921 57.4713 78.0921 64.2676C78.0921 71.0639 72.563 76.5932 65.7665 76.5932H57.7718C57.2449 76.5932 56.8177 77.0203 56.8177 77.5473C56.8177 78.0742 57.2449 78.5013 57.7718 78.5013H65.7663C73.6148 78.5013 80 72.1161 80 64.2676C80 58.6978 76.7838 53.8658 72.1114 51.529ZM54.1648 22.3421L57.8824 26.2942H57.5049C56.9781 26.2942 56.5509 26.7213 56.5509 27.2483V38.8863C55.0632 38.3145 53.4547 37.9931 51.7788 37.9705V27.2482C51.7788 26.7212 51.3516 26.2941 50.8248 26.2941H50.4472L54.1648 22.3421ZM38.1589 48.3819C38.1481 48.3789 38.1371 48.3763 38.1263 48.3734V33.9707C38.1263 33.4437 37.6991 33.0167 37.1722 33.0167H36.7948L40.5124 29.0645L44.2299 33.0167H43.8525C43.3257 33.0167 42.8985 33.4437 42.8985 33.9707V41.0199C40.6162 42.8531 38.918 45.4045 38.1589 48.3819Z" fill="white"/>
<path d="M50.9503 59.2899C51.4772 59.2899 51.9044 58.8629 51.9044 58.3359C51.9044 57.8089 51.4772 57.3818 50.9503 57.3818H46.483C45.9561 57.3818 45.5289 57.8089 45.5289 58.3359V68.9384C45.5289 69.4654 45.9561 69.8924 46.483 69.8924H50.9503C51.4772 69.8924 51.9044 69.4654 51.9044 68.9384C51.9044 68.4114 51.4772 67.9843 50.9503 67.9843H47.4369V64.5911H50.6209C51.1478 64.5911 51.5749 64.1641 51.5749 63.6371C51.5749 63.1101 51.1479 62.683 50.6209 62.683H47.4369V59.2898H50.9503V59.2899Z" fill="white"/>
<path d="M39.6416 68.0331C38.4716 68.0331 37.342 67.5573 36.6199 66.7604C36.266 66.3701 35.6628 66.3405 35.2723 66.694C34.8819 67.0479 34.8522 67.6511 35.2059 68.0417C36.2837 69.2311 37.9418 69.9412 39.6415 69.9412C41.677 69.9412 43.4504 68.6062 43.7666 66.8358C44.1312 64.7937 42.5253 63.4256 40.9008 62.8265C39.5239 62.3186 38.2466 61.7641 37.9242 61.6225C37.5823 61.3719 37.4164 60.9718 37.4786 60.5388C37.5568 59.9938 37.9755 59.5565 38.5987 59.3688C40.3153 58.8514 41.8666 60.0954 41.8972 60.1204C42.3005 60.4565 42.8998 60.4034 43.2379 60.0012C43.5769 59.5979 43.5248 58.996 43.1215 58.657C43.0268 58.5775 40.7752 56.7207 38.0482 57.5419C36.7156 57.9434 35.7736 58.9879 35.5898 60.2678C35.4188 61.4596 35.9348 62.6055 36.9366 63.2587C36.9788 63.2862 37.0231 63.3104 37.069 63.3308C37.1305 63.3581 38.5927 64.009 40.2403 64.6167C41.4233 65.053 42.0239 65.7397 41.888 66.5007C41.7556 67.2434 40.9232 68.0331 39.6416 68.0331Z" fill="white"/>
<path d="M65.4517 63.637C65.4517 60.1609 62.6237 57.333 59.1477 57.333C55.6716 57.333 52.8436 60.161 52.8436 63.637C52.8436 67.1131 55.6716 69.941 59.1477 69.941C62.6237 69.9411 65.4517 67.1131 65.4517 63.637ZM54.7516 63.637C54.7516 61.2129 56.7237 59.241 59.1476 59.241C61.5715 59.241 63.5436 61.2129 63.5436 63.637C63.5436 66.061 61.5715 68.033 59.1476 68.033C56.7237 68.0331 54.7516 66.061 54.7516 63.637Z" fill="white"/>
</svg>
